ISO-10303-21;
HEADER;
FILE_DESCRIPTION(('FreeCAD Model'),'2;1');
FILE_NAME('Open CASCADE Shape Model','2026-10-04T22:10:50',(''),(''),
  'Open CASCADE STEP processor 7.8','FreeCAD','Unknown');
FILE_SCHEMA(('AUTOMOTIVE_DESIGN { 1 0 10303 214 1 1 1 1 }'));
ENDSEC;
DATA;
#1 = APPLICATION_PROTOCOL_DEFINITION('international standard',
  'automotive_design',2000,#2);
#2 = APPLICATION_CONTEXT(
  'core data for automotive mechanical design processes');
#3 = SHAPE_DEFINITION_REPRESENTATION(#4,#10);
#4 = PRODUCT_DEFINITION_SHAPE('','',#5);
#5 = PRODUCT_DEFINITION('design','',#6,#9);
#6 = PRODUCT_DEFINITION_FORMATION('','',#7);
#7 = PRODUCT('Body','Body','',(#8));
#8 = PRODUCT_CONTEXT('',#2,'mechanical');
#9 = PRODUCT_DEFINITION_CONTEXT('part definition',#2,'design');
#10 = ADVANCED_BREP_SHAPE_REPRESENTATION('',(#11,#15),#833);
#11 = AXIS2_PLACEMENT_3D('',#12,#13,#14);
#12 = CARTESIAN_POINT('',(0.,0.,0.));
#13 = DIRECTION('',(0.,0.,1.));
#14 = DIRECTION('',(1.,0.,-0.));
#15 = MANIFOLD_SOLID_BREP('',#16);
#16 = CLOSED_SHELL('',(#17,#177,#203,#261,#310,#347,#377,#397,#413,#425,
    #434,#470,#522,#650,#686,#706,#722,#742,#754,#779,#804,#824));
#17 = ADVANCED_FACE('',(#18,#92),#172,.F.);
#18 = FACE_BOUND('',#19,.F.);
#19 = EDGE_LOOP('',(#20,#30,#37,#38,#50,#57,#69,#77));
#20 = ORIENTED_EDGE('',*,*,#21,.F.);
#21 = EDGE_CURVE('',#22,#24,#26,.T.);
#22 = VERTEX_POINT('',#23);
#23 = CARTESIAN_POINT('',(-29.15,8.881784197001E-16,4.));
#24 = VERTEX_POINT('',#25);
#25 = CARTESIAN_POINT('',(-29.15000022626,-2.750370249181E-08,
    16.100000002189));
#26 = LINE('',#27,#28);
#27 = CARTESIAN_POINT('',(-29.15,0.,0.));
#28 = VECTOR('',#29,1.);
#29 = DIRECTION('',(0.,2.22044604925E-16,1.));
#30 = ORIENTED_EDGE('',*,*,#31,.T.);
#31 = EDGE_CURVE('',#22,#22,#32,.T.);
#32 = CIRCLE('',#33,29.15);
#33 = AXIS2_PLACEMENT_3D('',#34,#35,#36);
#34 = CARTESIAN_POINT('',(0.,8.881784197001E-16,4.));
#35 = DIRECTION('',(0.,2.22044604925E-16,1.));
#36 = DIRECTION('',(-1.,3.088732323067E-33,-6.858363483945E-49));
#37 = ORIENTED_EDGE('',*,*,#21,.T.);
#38 = ORIENTED_EDGE('',*,*,#39,.T.);
#39 = EDGE_CURVE('',#24,#40,#42,.T.);
#40 = VERTEX_POINT('',#41);
#41 = CARTESIAN_POINT('',(-2.652065436274E-08,29.150000260058,
    14.60000000248));
#42 = B_SPLINE_CURVE_WITH_KNOTS('',6,(#43,#44,#45,#46,#47,#48,#49),
  .UNSPECIFIED.,.F.,.F.,(7,7),(0.,1.574721175092),
  .PIECEWISE_BEZIER_KNOTS.);
#43 = CARTESIAN_POINT('',(-29.15000022626,-2.750380545535E-08,
    16.100000002247));
#44 = CARTESIAN_POINT('',(-29.15000009747,7.631452053327,15.85000000093)
  );
#45 = CARTESIAN_POINT('',(-26.7530635748,15.262255403398,15.600000004967
    ));
#46 = CARTESIAN_POINT('',(-21.9554926571,21.955492935385,15.350000002565
    ));
#47 = CARTESIAN_POINT('',(-15.26225540557,26.753062952616,
    15.099999999648));
#48 = CARTESIAN_POINT('',(-7.63145211461,29.15000039897,14.850000003954)
  );
#49 = CARTESIAN_POINT('',(-2.652063304645E-08,29.150000260057,
    14.600000002538));
#50 = ORIENTED_EDGE('',*,*,#51,.T.);
#51 = EDGE_CURVE('',#40,#52,#54,.T.);
#52 = VERTEX_POINT('',#53);
#53 = CARTESIAN_POINT('',(-2.652078226043E-08,29.150000260059,
    16.10000000248));
#54 = B_SPLINE_CURVE_WITH_KNOTS('',1,(#55,#56),.UNSPECIFIED.,.F.,.F.,(2,
    2),(-1.5,-0.),.PIECEWISE_BEZIER_KNOTS.);
#55 = CARTESIAN_POINT('',(-2.652065436274E-08,29.150000260058,
    14.60000000248));
#56 = CARTESIAN_POINT('',(-2.652078226043E-08,29.150000260059,
    16.10000000248));
#57 = ORIENTED_EDGE('',*,*,#58,.F.);
#58 = EDGE_CURVE('',#59,#52,#61,.T.);
#59 = VERTEX_POINT('',#60);
#60 = CARTESIAN_POINT('',(-29.15000022626,-2.750382328407E-08,
    17.600000002218));
#61 = B_SPLINE_CURVE_WITH_KNOTS('',6,(#62,#63,#64,#65,#66,#67,#68),
  .UNSPECIFIED.,.F.,.F.,(7,7),(0.,1.574721175092),
  .PIECEWISE_BEZIER_KNOTS.);
#62 = CARTESIAN_POINT('',(-29.15000022626,-2.75039475639E-08,
    17.600000002189));
#63 = CARTESIAN_POINT('',(-29.15000009747,7.631452053327,17.350000000872
    ));
#64 = CARTESIAN_POINT('',(-26.75306357481,15.262255403399,
    17.100000004908));
#65 = CARTESIAN_POINT('',(-21.9554926571,21.955492935388,16.850000002506
    ));
#66 = CARTESIAN_POINT('',(-15.26225540557,26.753062952615,16.59999999959
    ));
#67 = CARTESIAN_POINT('',(-7.631452114611,29.150000398973,
    16.350000003896));
#68 = CARTESIAN_POINT('',(-2.652078226043E-08,29.150000260059,
    16.10000000248));
#69 = ORIENTED_EDGE('',*,*,#70,.T.);
#70 = EDGE_CURVE('',#59,#71,#73,.T.);
#71 = VERTEX_POINT('',#72);
#72 = CARTESIAN_POINT('',(-29.15000022059,-4.850869933742E-10,
    22.10000000213));
#73 = LINE('',#74,#75);
#74 = CARTESIAN_POINT('',(-29.15,0.,0.));
#75 = VECTOR('',#76,1.);
#76 = DIRECTION('',(0.,2.22044604925E-16,1.));
#77 = ORIENTED_EDGE('',*,*,#78,.T.);
#78 = EDGE_CURVE('',#71,#24,#79,.T.);
#79 = B_SPLINE_CURVE_WITH_KNOTS('',11,(#80,#81,#82,#83,#84,#85,#86,#87,
    #88,#89,#90,#91),.UNSPECIFIED.,.F.,.F.,(12,12),(0.,6.29888470037),
  .PIECEWISE_BEZIER_KNOTS.);
#80 = CARTESIAN_POINT('',(-29.15000022059,-4.859511015315E-10,
    22.100000002189));
#81 = CARTESIAN_POINT('',(-29.14999981094,16.650441305323,
    21.554545452618));
#82 = CARTESIAN_POINT('',(-18.69047048544,33.300503760884,
    21.009090916419));
#83 = CARTESIAN_POINT('',(2.250292590757,42.650790541839,20.463636359268
    ));
#84 = CARTESIAN_POINT('',(27.832627514687,37.372426872592,
    19.918181814386));
#85 = CARTESIAN_POINT('',(46.90753094177,15.412432152233,19.372727295965
    ));
#86 = CARTESIAN_POINT('',(46.907525532798,-15.4124317084,18.827272695745
    ));
#87 = CARTESIAN_POINT('',(27.832630786219,-37.37242754517,
    18.281818212504));
#88 = CARTESIAN_POINT('',(2.250291576089,-42.65079013609,17.736363618825
    ));
#89 = CARTESIAN_POINT('',(-18.69047034299,-33.30050389879,17.1909091012)
  );
#90 = CARTESIAN_POINT('',(-29.1499997435,-16.6504413177,16.645454543042)
  );
#91 = CARTESIAN_POINT('',(-29.15000022626,-2.750363617351E-08,
    16.100000002247));
#92 = FACE_BOUND('',#93,.F.);
#93 = EDGE_LOOP('',(#94,#133,#164));
#94 = ORIENTED_EDGE('',*,*,#95,.T.);
#95 = EDGE_CURVE('',#96,#98,#100,.T.);
#96 = VERTEX_POINT('',#97);
#97 = CARTESIAN_POINT('',(4.056892236454,28.866314717709,15.167371087208
    ));
#98 = VERTEX_POINT('',#99);
#99 = CARTESIAN_POINT('',(4.94912140509,28.726794066127,15.350000002491)
  );
#100 = B_SPLINE_CURVE_WITH_KNOTS('',6,(#101,#102,#103,#104,#105,#106,
    #107,#108,#109,#110,#111,#112,#113,#114,#115,#116,#117,#118,#119,
    #120,#121,#122,#123,#124,#125,#126,#127,#128,#129,#130,#131,#132),
  .UNSPECIFIED.,.F.,.F.,(7,5,5,5,5,5,7),(0.,0.123198000299,
    0.322099704166,0.507404934332,0.612882558894,0.890391071109,1.),
  .UNSPECIFIED.);
#101 = CARTESIAN_POINT('',(4.056892236454,28.866314717709,
    15.167371087208));
#102 = CARTESIAN_POINT('',(4.087149514636,28.862062338485,
    15.173205115376));
#103 = CARTESIAN_POINT('',(4.117161819524,28.85780557937,15.179021015712
    ));
#104 = CARTESIAN_POINT('',(4.146894184471,28.853550500455,
    15.184811186764));
#105 = CARTESIAN_POINT('',(4.176303689186,28.849304584069,
    15.190566265185));
#106 = CARTESIAN_POINT('',(4.205341087666,28.845076574483,
    15.196275388252));
#107 = CARTESIAN_POINT('',(4.280145117361,28.834095052969,
    15.211050038533));
#108 = CARTESIAN_POINT('',(4.325240570601,28.827384203276,15.2200249024)
  );
#109 = CARTESIAN_POINT('',(4.368984701261,28.8207888994,15.228794989805)
  );
#110 = CARTESIAN_POINT('',(4.411114915302,28.814359011315,
    15.237299945311));
#111 = CARTESIAN_POINT('',(4.451394091023,28.808142760245,
    15.245482876546));
#112 = CARTESIAN_POINT('',(4.52528029519,28.796625479605,15.260579120405
    ));
#113 = CARTESIAN_POINT('',(4.559167525156,28.791288951152,
    15.267543549191));
#114 = CARTESIAN_POINT('',(4.591159405448,28.786203746462,
    15.274153815454));
#115 = CARTESIAN_POINT('',(4.621217843244,28.78138604817,15.280394452581
    ));
#116 = CARTESIAN_POINT('',(4.64937992704,28.776839274869,15.286266138479
    ));
#117 = CARTESIAN_POINT('',(4.690719888165,28.770121267294,
    15.294918108769));
#118 = CARTESIAN_POINT('',(4.7051283402,28.767770175193,15.297940849239)
  );
#119 = CARTESIAN_POINT('',(4.718966090975,28.765503611798,15.30085030903
    ));
#120 = CARTESIAN_POINT('',(4.732254180562,28.763319400026,
    15.303649960036));
#121 = CARTESIAN_POINT('',(4.745016420284,28.761214745186,
    15.306343979587));
#122 = CARTESIAN_POINT('',(4.789536013924,28.753850417948,15.31575861658
    ));
#123 = CARTESIAN_POINT('',(4.818314222312,28.749045382569,
    15.321877853572));
#124 = CARTESIAN_POINT('',(4.844091431751,28.744710185839,
    15.327382398715));
#125 = CARTESIAN_POINT('',(4.867326480219,28.740779229828,
    15.332361556804));
#126 = CARTESIAN_POINT('',(4.888390990293,28.737197380789,
    15.336889161126));
#127 = CARTESIAN_POINT('',(4.915188021983,28.73262058977,15.342664043135
    ));
#128 = CARTESIAN_POINT('',(4.922485121779,28.73137181221,15.344238454961
    ));
#129 = CARTESIAN_POINT('',(4.929510666537,28.730167289346,
    15.345755939543));
#130 = CARTESIAN_POINT('',(4.936281782255,28.729004393584,
    15.347219964534));
#131 = CARTESIAN_POINT('',(4.942814029837,28.727880715957,
    15.348633696814));
#132 = CARTESIAN_POINT('',(4.94912140509,28.726794066127,15.350000002491
    ));
#133 = ORIENTED_EDGE('',*,*,#134,.T.);
#134 = EDGE_CURVE('',#98,#135,#137,.T.);
#135 = VERTEX_POINT('',#136);
#136 = CARTESIAN_POINT('',(4.056892236448,28.866314717709,
    15.532628917785));
#137 = B_SPLINE_CURVE_WITH_KNOTS('',7,(#138,#139,#140,#141,#142,#143,
    #144,#145,#146,#147,#148,#149,#150,#151,#152,#153,#154,#155,#156,
    #157,#158,#159,#160,#161,#162,#163),.UNSPECIFIED.,.F.,.F.,(8,6,6,6,8
    ),(0.,0.450976616259,0.67804508746,0.878546365403,1.),
  .UNSPECIFIED.);
#138 = CARTESIAN_POINT('',(4.94912140509,28.726794066127,15.350000002491
    ));
#139 = CARTESIAN_POINT('',(4.92687567919,28.730626613468,15.354818878861
    ));
#140 = CARTESIAN_POINT('',(4.901942065338,28.734901519357,
    15.360204468436));
#141 = CARTESIAN_POINT('',(4.873725792691,28.739712419469,
    15.366278986009));
#142 = CARTESIAN_POINT('',(4.841465472481,28.745176038993,
    15.373196527332));
#143 = CARTESIAN_POINT('',(4.8042455455,28.751428856494,15.381139479002)
  );
#144 = CARTESIAN_POINT('',(4.760812395266,28.758647674058,
    15.390350019335));
#145 = CARTESIAN_POINT('',(4.68442166929,28.771155097083,15.406407786516
    ));
#146 = CARTESIAN_POINT('',(4.656984314703,28.775620068297,
    15.412154773344));
#147 = CARTESIAN_POINT('',(4.627582179788,28.780372610334,
    15.418289176821));
#148 = CARTESIAN_POINT('',(4.596130017169,28.78541776289,15.424822228064
    ));
#149 = CARTESIAN_POINT('',(4.562595479013,28.790750732843,
    15.431753159707));
#150 = CARTESIAN_POINT('',(4.527027578732,28.796353194461,
    15.439063943264));
#151 = CARTESIAN_POINT('',(4.456523520519,28.807343121876,
    15.453469043849));
#152 = CARTESIAN_POINT('',(4.421988614762,28.812680971408,
    15.460491075824));
#153 = CARTESIAN_POINT('',(4.386084668891,28.818179571928,
    15.467753336803));
#154 = CARTESIAN_POINT('',(4.348942170214,28.823811814562,
    15.475224089429));
#155 = CARTESIAN_POINT('',(4.310707724004,28.829548948803,
    15.482868956271));
#156 = CARTESIAN_POINT('',(4.271533917638,28.835362483454,
    15.490653231499));
#157 = CARTESIAN_POINT('',(4.207360550651,28.844777965355,15.50332414163
    ));
#158 = CARTESIAN_POINT('',(4.18285806955,28.848348739928,15.508143948046
    ));
#159 = CARTESIAN_POINT('',(4.158091189318,28.851933041572,
    15.512997010498));
#160 = CARTESIAN_POINT('',(4.133087432857,28.855525949462,
    15.517877232636));
#161 = CARTESIAN_POINT('',(4.10787196837,28.85912303367,15.522779092096)
  );
#162 = CARTESIAN_POINT('',(4.082467179662,28.862720397146,
    15.527697709556));
#163 = CARTESIAN_POINT('',(4.056892236448,28.866314717709,
    15.532628917785));
#164 = ORIENTED_EDGE('',*,*,#165,.T.);
#165 = EDGE_CURVE('',#135,#96,#166,.T.);
#166 = B_SPLINE_CURVE_WITH_KNOTS('',4,(#167,#168,#169,#170,#171),
  .UNSPECIFIED.,.F.,.F.,(5,5),(0.,1.),.PIECEWISE_BEZIER_KNOTS.);
#167 = CARTESIAN_POINT('',(4.056892236448,28.866314717709,
    15.532628917785));
#168 = CARTESIAN_POINT('',(4.056892236449,28.866314717709,
    15.441314460137));
#169 = CARTESIAN_POINT('',(4.05689223645,28.866314717709,15.35000000249)
  );
#170 = CARTESIAN_POINT('',(4.056892236451,28.866314717709,
    15.258685544843));
#171 = CARTESIAN_POINT('',(4.056892236452,28.866314717709,
    15.167371087196));
#172 = CYLINDRICAL_SURFACE('',#173,29.15);
#173 = AXIS2_PLACEMENT_3D('',#174,#175,#176);
#174 = CARTESIAN_POINT('',(0.,0.,0.));
#175 = DIRECTION('',(0.,2.22044604925E-16,1.));
#176 = DIRECTION('',(-1.,0.,0.));
#177 = ADVANCED_FACE('',(#178),#198,.F.);
#178 = FACE_BOUND('',#179,.T.);
#179 = EDGE_LOOP('',(#180,#189,#190,#191));
#180 = ORIENTED_EDGE('',*,*,#181,.F.);
#181 = EDGE_CURVE('',#22,#182,#184,.T.);
#182 = VERTEX_POINT('',#183);
#183 = CARTESIAN_POINT('',(-27.15,4.440892098501E-16,2.));
#184 = CIRCLE('',#185,2.);
#185 = AXIS2_PLACEMENT_3D('',#186,#187,#188);
#186 = CARTESIAN_POINT('',(-27.15,8.881784197001E-16,4.));
#187 = DIRECTION('',(-3.088732323067E-33,-1.,2.22044604925E-16));
#188 = DIRECTION('',(-1.,3.088732323067E-33,-6.858363483945E-49));
#189 = ORIENTED_EDGE('',*,*,#31,.F.);
#190 = ORIENTED_EDGE('',*,*,#181,.T.);
#191 = ORIENTED_EDGE('',*,*,#192,.T.);
#192 = EDGE_CURVE('',#182,#182,#193,.T.);
#193 = CIRCLE('',#194,27.15);
#194 = AXIS2_PLACEMENT_3D('',#195,#196,#197);
#195 = CARTESIAN_POINT('',(0.,4.440892098501E-16,2.));
#196 = DIRECTION('',(0.,2.22044604925E-16,1.));
#197 = DIRECTION('',(-1.,3.088732323067E-33,-6.858363483945E-49));
#198 = TOROIDAL_SURFACE('',#199,27.15,2.);
#199 = AXIS2_PLACEMENT_3D('',#200,#201,#202);
#200 = CARTESIAN_POINT('',(0.,8.881784197001E-16,4.));
#201 = DIRECTION('',(-0.,-2.22044604925E-16,-1.));
#202 = DIRECTION('',(-1.,3.088732323067E-33,-6.858363483945E-49));
#203 = ADVANCED_FACE('',(#204),#236,.T.);
#204 = FACE_BOUND('',#205,.T.);
#205 = EDGE_LOOP('',(#206,#225,#230,#231));
#206 = ORIENTED_EDGE('',*,*,#207,.F.);
#207 = EDGE_CURVE('',#208,#210,#212,.T.);
#208 = VERTEX_POINT('',#209);
#209 = CARTESIAN_POINT('',(-28.15000022059,-4.853712104685E-10,
    22.850000002189));
#210 = VERTEX_POINT('',#211);
#211 = CARTESIAN_POINT('',(-28.15000022626,-2.750445566711E-08,
    16.850000002218));
#212 = B_SPLINE_CURVE_WITH_KNOTS('',11,(#213,#214,#215,#216,#217,#218,
    #219,#220,#221,#222,#223,#224),.UNSPECIFIED.,.F.,.F.,(12,12),(0.,
    6.29888470037),.PIECEWISE_BEZIER_KNOTS.);
#213 = CARTESIAN_POINT('',(-28.1500002206,-4.862684715372E-10,
    22.850000002189));
#214 = CARTESIAN_POINT('',(-28.14999981094,16.079242641094,
    22.304545452617));
#215 = CARTESIAN_POINT('',(-18.04928799799,32.158119376607,
    21.759090916423));
#216 = CARTESIAN_POINT('',(2.17309565498,41.187641764929,21.213636359262
    ));
#217 = CARTESIAN_POINT('',(26.8778202926,36.09035368218,20.66818181439)
  );
#218 = CARTESIAN_POINT('',(45.298353329848,14.883704089389,
    20.122727295975));
#219 = CARTESIAN_POINT('',(45.298347920801,-14.88370364553,
    19.57727269572));
#220 = CARTESIAN_POINT('',(26.877823564171,-36.0903543548,
    19.031818212534));
#221 = CARTESIAN_POINT('',(2.173094640308,-41.18764135914,
    18.486363618803));
#222 = CARTESIAN_POINT('',(-18.04928785554,-32.15811951453,
    17.940909101209));
#223 = CARTESIAN_POINT('',(-28.1499997435,-16.07924265346,17.39545454304
    ));
#224 = CARTESIAN_POINT('',(-28.15000022626,-2.750438056673E-08,
    16.850000002247));
#225 = ORIENTED_EDGE('',*,*,#226,.T.);
#226 = EDGE_CURVE('',#208,#71,#227,.T.);
#227 = B_SPLINE_CURVE_WITH_KNOTS('',1,(#228,#229),.UNSPECIFIED.,.F.,.F.,
  (2,2),(0.,1.250000000003),.PIECEWISE_BEZIER_KNOTS.);
#228 = CARTESIAN_POINT('',(-28.15000022059,-4.845054716824E-10,
    22.850000002189));
#229 = CARTESIAN_POINT('',(-29.15000022059,-4.841923378407E-10,
    22.100000002189));
#230 = ORIENTED_EDGE('',*,*,#78,.T.);
#231 = ORIENTED_EDGE('',*,*,#232,.F.);
#232 = EDGE_CURVE('',#210,#24,#233,.T.);
#233 = B_SPLINE_CURVE_WITH_KNOTS('',1,(#234,#235),.UNSPECIFIED.,.F.,.F.,
  (2,2),(0.,1.250000000003),.PIECEWISE_BEZIER_KNOTS.);
#234 = CARTESIAN_POINT('',(-28.15000022626,-2.750438056673E-08,
    16.850000002247));
#235 = CARTESIAN_POINT('',(-29.15000022626,-2.750363617351E-08,
    16.100000002247));
#236 = B_SPLINE_SURFACE_WITH_KNOTS('',1,11,(
    (#237,#238,#239,#240,#241,#242,#243,#244,#245,#246,#247,#248)
    ,(#249,#250,#251,#252,#253,#254,#255,#256,#257,#258,#259,#260
  )),.UNSPECIFIED.,.F.,.F.,.F.,(2,2),(12,12),(0.,1.250000000003),(0.,
    6.29888470037),.PIECEWISE_BEZIER_KNOTS.);
#237 = CARTESIAN_POINT('',(-28.1500002206,-4.862684715372E-10,
    22.850000002189));
#238 = CARTESIAN_POINT('',(-28.14999981094,16.079242641094,
    22.304545452617));
#239 = CARTESIAN_POINT('',(-18.04928799799,32.158119376607,
    21.759090916423));
#240 = CARTESIAN_POINT('',(2.17309565498,41.187641764929,21.213636359262
    ));
#241 = CARTESIAN_POINT('',(26.8778202926,36.09035368218,20.66818181439)
  );
#242 = CARTESIAN_POINT('',(45.298353329848,14.883704089389,
    20.122727295975));
#243 = CARTESIAN_POINT('',(45.298347920801,-14.88370364553,
    19.57727269572));
#244 = CARTESIAN_POINT('',(26.877823564171,-36.0903543548,
    19.031818212534));
#245 = CARTESIAN_POINT('',(2.173094640308,-41.18764135914,
    18.486363618803));
#246 = CARTESIAN_POINT('',(-18.04928785554,-32.15811951453,
    17.940909101209));
#247 = CARTESIAN_POINT('',(-28.1499997435,-16.07924265346,17.39545454304
    ));
#248 = CARTESIAN_POINT('',(-28.15000022626,-2.750438056673E-08,
    16.850000002247));
#249 = CARTESIAN_POINT('',(-29.15000022059,-4.859511015315E-10,
    22.100000002189));
#250 = CARTESIAN_POINT('',(-29.14999981094,16.650441305323,
    21.554545452618));
#251 = CARTESIAN_POINT('',(-18.69047048544,33.300503760884,
    21.009090916419));
#252 = CARTESIAN_POINT('',(2.250292590757,42.650790541839,
    20.463636359268));
#253 = CARTESIAN_POINT('',(27.832627514687,37.372426872592,
    19.918181814386));
#254 = CARTESIAN_POINT('',(46.90753094177,15.412432152233,
    19.372727295965));
#255 = CARTESIAN_POINT('',(46.907525532798,-15.4124317084,
    18.827272695745));
#256 = CARTESIAN_POINT('',(27.832630786219,-37.37242754517,
    18.281818212504));
#257 = CARTESIAN_POINT('',(2.250291576089,-42.65079013609,
    17.736363618825));
#258 = CARTESIAN_POINT('',(-18.69047034299,-33.30050389879,17.1909091012
    ));
#259 = CARTESIAN_POINT('',(-29.1499997435,-16.6504413177,16.645454543042
    ));
#260 = CARTESIAN_POINT('',(-29.15000022626,-2.750363617351E-08,
    16.100000002247));
#261 = ADVANCED_FACE('',(#262),#305,.F.);
#262 = FACE_BOUND('',#263,.F.);
#263 = EDGE_LOOP('',(#264,#265,#282,#290));
#264 = ORIENTED_EDGE('',*,*,#70,.F.);
#265 = ORIENTED_EDGE('',*,*,#266,.F.);
#266 = EDGE_CURVE('',#267,#59,#269,.T.);
#267 = VERTEX_POINT('',#268);
#268 = CARTESIAN_POINT('',(-29.1500002206,-4.850727825195E-10,
    23.600000002189));
#269 = B_SPLINE_CURVE_WITH_KNOTS('',11,(#270,#271,#272,#273,#274,#275,
    #276,#277,#278,#279,#280,#281),.UNSPECIFIED.,.F.,.F.,(12,12),(0.,
    6.29888470037),.PIECEWISE_BEZIER_KNOTS.);
#270 = CARTESIAN_POINT('',(-29.1500002206,-4.859620510195E-10,
    23.600000002189));
#271 = CARTESIAN_POINT('',(-29.14999981094,16.650441305324,
    23.054545452619));
#272 = CARTESIAN_POINT('',(-18.69047048544,33.300503760881,
    22.509090916417));
#273 = CARTESIAN_POINT('',(2.250292590777,42.650790541866,
    21.963636359274));
#274 = CARTESIAN_POINT('',(27.83262751464,37.372426872538,
    21.418181814376));
#275 = CARTESIAN_POINT('',(46.907530941847,15.412432152305,
    20.872727295979));
#276 = CARTESIAN_POINT('',(46.907525532728,-15.41243170846,
    20.327272695731));
#277 = CARTESIAN_POINT('',(27.832630786255,-37.37242754513,
    19.781818212515));
#278 = CARTESIAN_POINT('',(2.250291576084,-42.65079013611,
    19.236363618818));
#279 = CARTESIAN_POINT('',(-18.69047034299,-33.30050389879,
    18.690909101202));
#280 = CARTESIAN_POINT('',(-29.1499997435,-16.6504413177,18.145454543042
    ));
#281 = CARTESIAN_POINT('',(-29.15000022626,-2.750374659898E-08,
    17.600000002247));
#282 = ORIENTED_EDGE('',*,*,#283,.T.);
#283 = EDGE_CURVE('',#267,#284,#286,.T.);
#284 = VERTEX_POINT('',#285);
#285 = CARTESIAN_POINT('',(-29.15,2.382947488803E-14,28.099999999977));
#286 = LINE('',#287,#288);
#287 = CARTESIAN_POINT('',(-29.15,0.,0.));
#288 = VECTOR('',#289,1.);
#289 = DIRECTION('',(0.,2.22044604925E-16,1.));
#290 = ORIENTED_EDGE('',*,*,#291,.T.);
#291 = EDGE_CURVE('',#284,#71,#292,.T.);
#292 = B_SPLINE_CURVE_WITH_KNOTS('',11,(#293,#294,#295,#296,#297,#298,
    #299,#300,#301,#302,#303,#304),.UNSPECIFIED.,.F.,.F.,(12,12),(0.,
    6.29888470037),.PIECEWISE_BEZIER_KNOTS.);
#293 = CARTESIAN_POINT('',(-29.15,-6.219403204075E-15,28.100000000035));
#294 = CARTESIAN_POINT('',(-29.15000054265,16.650441313355,
    27.554545459979));
#295 = CARTESIAN_POINT('',(-18.69046850157,33.300504052309,
    27.009090898232));
#296 = CARTESIAN_POINT('',(2.250289185319,42.650789553579,
    26.463636386791));
#297 = CARTESIAN_POINT('',(27.832631601921,37.372428794861,
    25.918181793491));
#298 = CARTESIAN_POINT('',(46.907528259517,15.412429828173,
    25.372727290515));
#299 = CARTESIAN_POINT('',(46.907525458626,-15.41243018558,
    24.827272729581));
#300 = CARTESIAN_POINT('',(27.832632816321,-37.37242812222,
    24.281818169635));
#301 = CARTESIAN_POINT('',(2.250289402635,-42.65079008941,
    23.736363648995));
#302 = CARTESIAN_POINT('',(-18.69046928937,-33.30050386053,
    23.190909088722));
#303 = CARTESIAN_POINT('',(-29.15000001139,-16.65044128284,
    22.64545454552));
#304 = CARTESIAN_POINT('',(-29.15000022059,-4.841923378407E-10,
    22.100000002189));
#305 = CYLINDRICAL_SURFACE('',#306,29.15);
#306 = AXIS2_PLACEMENT_3D('',#307,#308,#309);
#307 = CARTESIAN_POINT('',(0.,0.,0.));
#308 = DIRECTION('',(0.,2.22044604925E-16,1.));
#309 = DIRECTION('',(-1.,0.,0.));
#310 = ADVANCED_FACE('',(#311),#332,.T.);
#311 = FACE_BOUND('',#312,.T.);
#312 = EDGE_LOOP('',(#313,#325,#326,#327));
#313 = ORIENTED_EDGE('',*,*,#314,.F.);
#314 = EDGE_CURVE('',#210,#315,#317,.T.);
#315 = VERTEX_POINT('',#316);
#316 = CARTESIAN_POINT('',(-2.652108086277E-08,28.150000260058,
    15.35000000248));
#317 = B_SPLINE_CURVE_WITH_KNOTS('',6,(#318,#319,#320,#321,#322,#323,
    #324),.UNSPECIFIED.,.F.,.F.,(7,7),(0.,1.574721175092),
  .PIECEWISE_BEZIER_KNOTS.);
#318 = CARTESIAN_POINT('',(-28.15000022626,-2.750456928879E-08,
    16.850000002189));
#319 = CARTESIAN_POINT('',(-28.15000009747,7.369652665479,
    16.600000000871));
#320 = CARTESIAN_POINT('',(-25.83529126086,14.738678902796,
    16.350000004909));
#321 = CARTESIAN_POINT('',(-21.20230250737,21.202302785653,
    16.100000002506));
#322 = CARTESIAN_POINT('',(-14.73867890497,25.835290638671,
    15.849999999589));
#323 = CARTESIAN_POINT('',(-7.369652726766,28.150000398971,
    15.600000003896));
#324 = CARTESIAN_POINT('',(-2.652108086277E-08,28.150000260058,
    15.35000000248));
#325 = ORIENTED_EDGE('',*,*,#232,.T.);
#326 = ORIENTED_EDGE('',*,*,#39,.T.);
#327 = ORIENTED_EDGE('',*,*,#328,.F.);
#328 = EDGE_CURVE('',#315,#40,#329,.T.);
#329 = B_SPLINE_CURVE_WITH_KNOTS('',1,(#330,#331),.UNSPECIFIED.,.F.,.F.,
  (2,2),(0.,1.250000000003),.PIECEWISE_BEZIER_KNOTS.);
#330 = CARTESIAN_POINT('',(-2.652108086277E-08,28.150000260058,
    15.35000000248));
#331 = CARTESIAN_POINT('',(-2.652063304645E-08,29.150000260057,
    14.600000002538));
#332 = B_SPLINE_SURFACE_WITH_KNOTS('',1,6,(
    (#333,#334,#335,#336,#337,#338,#339)
    ,(#340,#341,#342,#343,#344,#345,#346
    )),.UNSPECIFIED.,.F.,.F.,.F.,(2,2),(7,7),(0.,1.250000000003),(0.,
    1.574721175092),.PIECEWISE_BEZIER_KNOTS.);
#333 = CARTESIAN_POINT('',(-28.15000022626,-2.750456928879E-08,
    16.850000002189));
#334 = CARTESIAN_POINT('',(-28.15000009747,7.369652665479,
    16.600000000871));
#335 = CARTESIAN_POINT('',(-25.83529126086,14.738678902796,
    16.350000004909));
#336 = CARTESIAN_POINT('',(-21.20230250737,21.202302785653,
    16.100000002506));
#337 = CARTESIAN_POINT('',(-14.73867890497,25.835290638671,
    15.849999999589));
#338 = CARTESIAN_POINT('',(-7.369652726766,28.150000398971,
    15.600000003896));
#339 = CARTESIAN_POINT('',(-2.652108086277E-08,28.150000260058,
    15.35000000248));
#340 = CARTESIAN_POINT('',(-29.15000022626,-2.750380545535E-08,
    16.100000002247));
#341 = CARTESIAN_POINT('',(-29.15000009747,7.631452053327,15.85000000093
    ));
#342 = CARTESIAN_POINT('',(-26.7530635748,15.262255403398,
    15.600000004967));
#343 = CARTESIAN_POINT('',(-21.9554926571,21.955492935385,
    15.350000002565));
#344 = CARTESIAN_POINT('',(-15.26225540557,26.753062952616,
    15.099999999648));
#345 = CARTESIAN_POINT('',(-7.63145211461,29.15000039897,14.850000003954
    ));
#346 = CARTESIAN_POINT('',(-2.652063304645E-08,29.150000260057,
    14.600000002538));
#347 = ADVANCED_FACE('',(#348),#362,.T.);
#348 = FACE_BOUND('',#349,.T.);
#349 = EDGE_LOOP('',(#350,#351,#356,#357));
#350 = ORIENTED_EDGE('',*,*,#58,.F.);
#351 = ORIENTED_EDGE('',*,*,#352,.T.);
#352 = EDGE_CURVE('',#59,#210,#353,.T.);
#353 = B_SPLINE_CURVE_WITH_KNOTS('',1,(#354,#355),.UNSPECIFIED.,.F.,.F.,
  (2,2),(0.,1.249999999997),.PIECEWISE_BEZIER_KNOTS.);
#354 = CARTESIAN_POINT('',(-29.15000022626,-2.750374659898E-08,
    17.600000002247));
#355 = CARTESIAN_POINT('',(-28.15000022626,-2.750438056673E-08,
    16.850000002247));
#356 = ORIENTED_EDGE('',*,*,#314,.T.);
#357 = ORIENTED_EDGE('',*,*,#358,.F.);
#358 = EDGE_CURVE('',#52,#315,#359,.T.);
#359 = B_SPLINE_CURVE_WITH_KNOTS('',1,(#360,#361),.UNSPECIFIED.,.F.,.F.,
  (2,2),(0.,1.249999999997),.PIECEWISE_BEZIER_KNOTS.);
#360 = CARTESIAN_POINT('',(-2.652078226043E-08,29.150000260059,
    16.10000000248));
#361 = CARTESIAN_POINT('',(-2.652108086277E-08,28.150000260058,
    15.35000000248));
#362 = B_SPLINE_SURFACE_WITH_KNOTS('',1,6,(
    (#363,#364,#365,#366,#367,#368,#369)
    ,(#370,#371,#372,#373,#374,#375,#376
    )),.UNSPECIFIED.,.F.,.F.,.F.,(2,2),(7,7),(0.,1.249999999997),(0.,
    1.574721175092),.PIECEWISE_BEZIER_KNOTS.);
#363 = CARTESIAN_POINT('',(-29.15000022626,-2.75039475639E-08,
    17.600000002189));
#364 = CARTESIAN_POINT('',(-29.15000009747,7.631452053327,
    17.350000000872));
#365 = CARTESIAN_POINT('',(-26.75306357481,15.262255403399,
    17.100000004908));
#366 = CARTESIAN_POINT('',(-21.9554926571,21.955492935388,
    16.850000002506));
#367 = CARTESIAN_POINT('',(-15.26225540557,26.753062952615,
    16.59999999959));
#368 = CARTESIAN_POINT('',(-7.631452114611,29.150000398973,
    16.350000003896));
#369 = CARTESIAN_POINT('',(-2.652078226043E-08,29.150000260059,
    16.10000000248));
#370 = CARTESIAN_POINT('',(-28.15000022626,-2.750456928879E-08,
    16.850000002189));
#371 = CARTESIAN_POINT('',(-28.15000009747,7.369652665479,
    16.600000000871));
#372 = CARTESIAN_POINT('',(-25.83529126086,14.738678902796,
    16.350000004909));
#373 = CARTESIAN_POINT('',(-21.20230250737,21.202302785653,
    16.100000002506));
#374 = CARTESIAN_POINT('',(-14.73867890497,25.835290638671,
    15.849999999589));
#375 = CARTESIAN_POINT('',(-7.369652726766,28.150000398971,
    15.600000003896));
#376 = CARTESIAN_POINT('',(-2.652108086277E-08,28.150000260058,
    15.35000000248));
#377 = ADVANCED_FACE('',(#378),#392,.T.);
#378 = FACE_BOUND('',#379,.T.);
#379 = EDGE_LOOP('',(#380,#385,#386,#391));
#380 = ORIENTED_EDGE('',*,*,#381,.F.);
#381 = EDGE_CURVE('',#40,#96,#382,.T.);
#382 = B_SPLINE_CURVE_WITH_KNOTS('',1,(#383,#384),.UNSPECIFIED.,.F.,.F.,
  (2,2),(0.,1.),.PIECEWISE_BEZIER_KNOTS.);
#383 = CARTESIAN_POINT('',(-2.652063304645E-08,29.150000260057,
    14.600000002538));
#384 = CARTESIAN_POINT('',(4.999999973479,28.800366200339,15.29926812194
    ));
#385 = ORIENTED_EDGE('',*,*,#51,.T.);
#386 = ORIENTED_EDGE('',*,*,#387,.T.);
#387 = EDGE_CURVE('',#52,#135,#388,.T.);
#388 = B_SPLINE_CURVE_WITH_KNOTS('',1,(#389,#390),.UNSPECIFIED.,.F.,.F.,
  (2,2),(0.,1.),.PIECEWISE_BEZIER_KNOTS.);
#389 = CARTESIAN_POINT('',(-2.652078226043E-08,29.150000260059,
    16.10000000248));
#390 = CARTESIAN_POINT('',(4.999999973479,28.800366200339,
    15.400731883045));
#391 = ORIENTED_EDGE('',*,*,#165,.T.);
#392 = B_SPLINE_SURFACE_WITH_KNOTS('',1,1,(
    (#393,#394)
    ,(#395,#396
    )),.UNSPECIFIED.,.F.,.F.,.F.,(2,2),(2,2),(-1.5,0.),(0.,1.),
  .PIECEWISE_BEZIER_KNOTS.);
#393 = CARTESIAN_POINT('',(-2.652065436274E-08,29.150000260058,
    14.60000000248));
#394 = CARTESIAN_POINT('',(4.999999973479,28.800366200339,15.29926812194
    ));
#395 = CARTESIAN_POINT('',(-2.652078226043E-08,29.150000260059,
    16.10000000248));
#396 = CARTESIAN_POINT('',(4.999999973479,28.800366200339,
    15.400731883045));
#397 = ADVANCED_FACE('',(#398),#408,.T.);
#398 = FACE_BOUND('',#399,.T.);
#399 = EDGE_LOOP('',(#400,#405,#406,#407));
#400 = ORIENTED_EDGE('',*,*,#401,.F.);
#401 = EDGE_CURVE('',#315,#98,#402,.T.);
#402 = B_SPLINE_CURVE_WITH_KNOTS('',1,(#403,#404),.UNSPECIFIED.,.F.,.F.,
  (2,2),(0.,1.),.PIECEWISE_BEZIER_KNOTS.);
#403 = CARTESIAN_POINT('',(-2.652108086277E-08,28.150000260058,
    15.35000000248));
#404 = CARTESIAN_POINT('',(4.999999973479,28.732723692933,
    15.350000002491));
#405 = ORIENTED_EDGE('',*,*,#328,.T.);
#406 = ORIENTED_EDGE('',*,*,#381,.T.);
#407 = ORIENTED_EDGE('',*,*,#95,.T.);
#408 = B_SPLINE_SURFACE_WITH_KNOTS('',1,1,(
    (#409,#410)
    ,(#411,#412
    )),.UNSPECIFIED.,.F.,.F.,.F.,(2,2),(2,2),(0.,1.250000000003),(0.,1.)
  ,.PIECEWISE_BEZIER_KNOTS.);
#409 = CARTESIAN_POINT('',(-2.652108086277E-08,28.150000260058,
    15.35000000248));
#410 = CARTESIAN_POINT('',(4.999999973479,28.732723692933,
    15.350000002491));
#411 = CARTESIAN_POINT('',(-2.652063304645E-08,29.150000260057,
    14.600000002538));
#412 = CARTESIAN_POINT('',(4.999999973479,28.800366200339,15.29926812194
    ));
#413 = ADVANCED_FACE('',(#414),#420,.T.);
#414 = FACE_BOUND('',#415,.T.);
#415 = EDGE_LOOP('',(#416,#417,#418,#419));
#416 = ORIENTED_EDGE('',*,*,#387,.F.);
#417 = ORIENTED_EDGE('',*,*,#358,.T.);
#418 = ORIENTED_EDGE('',*,*,#401,.T.);
#419 = ORIENTED_EDGE('',*,*,#134,.T.);
#420 = B_SPLINE_SURFACE_WITH_KNOTS('',1,1,(
    (#421,#422)
    ,(#423,#424
    )),.UNSPECIFIED.,.F.,.F.,.F.,(2,2),(2,2),(0.,1.249999999997),(0.,1.)
  ,.PIECEWISE_BEZIER_KNOTS.);
#421 = CARTESIAN_POINT('',(-2.652078226043E-08,29.150000260059,
    16.10000000248));
#422 = CARTESIAN_POINT('',(4.999999973479,28.800366200339,
    15.400731883045));
#423 = CARTESIAN_POINT('',(-2.652108086277E-08,28.150000260058,
    15.35000000248));
#424 = CARTESIAN_POINT('',(4.999999973479,28.732723692933,
    15.350000002491));
#425 = ADVANCED_FACE('',(#426),#429,.T.);
#426 = FACE_BOUND('',#427,.T.);
#427 = EDGE_LOOP('',(#428));
#428 = ORIENTED_EDGE('',*,*,#192,.T.);
#429 = PLANE('',#430);
#430 = AXIS2_PLACEMENT_3D('',#431,#432,#433);
#431 = CARTESIAN_POINT('',(2.878821331662E-15,-1.193756698676E-15,2.));
#432 = DIRECTION('',(0.,2.22044604925E-16,1.));
#433 = DIRECTION('',(0.,1.,-2.22044604925E-16));
#434 = ADVANCED_FACE('',(#435),#445,.T.);
#435 = FACE_BOUND('',#436,.T.);
#436 = EDGE_LOOP('',(#437,#438,#443,#444));
#437 = ORIENTED_EDGE('',*,*,#266,.F.);
#438 = ORIENTED_EDGE('',*,*,#439,.T.);
#439 = EDGE_CURVE('',#267,#208,#440,.T.);
#440 = B_SPLINE_CURVE_WITH_KNOTS('',1,(#441,#442),.UNSPECIFIED.,.F.,.F.,
  (2,2),(0.,1.249999999997),.PIECEWISE_BEZIER_KNOTS.);
#441 = CARTESIAN_POINT('',(-29.15000022059,-4.842186648118E-10,
    23.600000002189));
#442 = CARTESIAN_POINT('',(-28.15000022059,-4.845054716824E-10,
    22.850000002189));
#443 = ORIENTED_EDGE('',*,*,#207,.T.);
#444 = ORIENTED_EDGE('',*,*,#352,.F.);
#445 = B_SPLINE_SURFACE_WITH_KNOTS('',1,11,(
    (#446,#447,#448,#449,#450,#451,#452,#453,#454,#455,#456,#457)
    ,(#458,#459,#460,#461,#462,#463,#464,#465,#466,#467,#468,#469
  )),.UNSPECIFIED.,.F.,.F.,.F.,(2,2),(12,12),(0.,1.249999999997),(0.,
    6.29888470037),.PIECEWISE_BEZIER_KNOTS.);
#446 = CARTESIAN_POINT('',(-29.1500002206,-4.859620510195E-10,
    23.600000002189));
#447 = CARTESIAN_POINT('',(-29.14999981094,16.650441305324,
    23.054545452619));
#448 = CARTESIAN_POINT('',(-18.69047048544,33.300503760881,
    22.509090916417));
#449 = CARTESIAN_POINT('',(2.250292590777,42.650790541866,
    21.963636359274));
#450 = CARTESIAN_POINT('',(27.83262751464,37.372426872538,
    21.418181814376));
#451 = CARTESIAN_POINT('',(46.907530941847,15.412432152305,
    20.872727295979));
#452 = CARTESIAN_POINT('',(46.907525532728,-15.41243170846,
    20.327272695731));
#453 = CARTESIAN_POINT('',(27.832630786255,-37.37242754513,
    19.781818212515));
#454 = CARTESIAN_POINT('',(2.250291576084,-42.65079013611,
    19.236363618818));
#455 = CARTESIAN_POINT('',(-18.69047034299,-33.30050389879,
    18.690909101202));
#456 = CARTESIAN_POINT('',(-29.1499997435,-16.6504413177,18.145454543042
    ));
#457 = CARTESIAN_POINT('',(-29.15000022626,-2.750374659898E-08,
    17.600000002247));
#458 = CARTESIAN_POINT('',(-28.1500002206,-4.862684715372E-10,
    22.850000002189));
#459 = CARTESIAN_POINT('',(-28.14999981094,16.079242641094,
    22.304545452617));
#460 = CARTESIAN_POINT('',(-18.04928799799,32.158119376607,
    21.759090916423));
#461 = CARTESIAN_POINT('',(2.17309565498,41.187641764929,21.213636359262
    ));
#462 = CARTESIAN_POINT('',(26.8778202926,36.09035368218,20.66818181439)
  );
#463 = CARTESIAN_POINT('',(45.298353329848,14.883704089389,
    20.122727295975));
#464 = CARTESIAN_POINT('',(45.298347920801,-14.88370364553,
    19.57727269572));
#465 = CARTESIAN_POINT('',(26.877823564171,-36.0903543548,
    19.031818212534));
#466 = CARTESIAN_POINT('',(2.173094640308,-41.18764135914,
    18.486363618803));
#467 = CARTESIAN_POINT('',(-18.04928785554,-32.15811951453,
    17.940909101209));
#468 = CARTESIAN_POINT('',(-28.1499997435,-16.07924265346,17.39545454304
    ));
#469 = CARTESIAN_POINT('',(-28.15000022626,-2.750438056673E-08,
    16.850000002247));
#470 = ADVANCED_FACE('',(#471),#497,.T.);
#471 = FACE_BOUND('',#472,.T.);
#472 = EDGE_LOOP('',(#473,#490,#495,#496));
#473 = ORIENTED_EDGE('',*,*,#474,.F.);
#474 = EDGE_CURVE('',#475,#208,#477,.T.);
#475 = VERTEX_POINT('',#476);
#476 = CARTESIAN_POINT('',(-28.15,8.193987215161E-15,28.850000000035));
#477 = B_SPLINE_CURVE_WITH_KNOTS('',11,(#478,#479,#480,#481,#482,#483,
    #484,#485,#486,#487,#488,#489),.UNSPECIFIED.,.F.,.F.,(12,12),(0.,
    6.29888470037),.PIECEWISE_BEZIER_KNOTS.);
#478 = CARTESIAN_POINT('',(-28.15,8.193987215161E-15,28.850000000035));
#479 = CARTESIAN_POINT('',(-28.15000054265,16.079242649129,
    28.304545459981));
#480 = CARTESIAN_POINT('',(-18.04928601411,32.158119668025,
    27.759090898903));
#481 = CARTESIAN_POINT('',(2.173092249523,41.18764077668,27.213636385327
    ));
#482 = CARTESIAN_POINT('',(26.877824379877,36.090355604446,
    26.668181795429));
#483 = CARTESIAN_POINT('',(45.298350647539,14.883701765308,
    26.12272728973));
#484 = CARTESIAN_POINT('',(45.29834784667,-14.88370212267,
    25.577272728669));
#485 = CARTESIAN_POINT('',(26.877825594263,-36.0903549319,
    25.031818171666));
#486 = CARTESIAN_POINT('',(2.173092466844,-41.18764131243,
    24.486363647481));
#487 = CARTESIAN_POINT('',(-18.04928680192,-32.15811947628,
    23.94090908941));
#488 = CARTESIAN_POINT('',(-28.15000001139,-16.0792426186,
    23.395454545519));
#489 = CARTESIAN_POINT('',(-28.15000022059,-4.845054716824E-10,
    22.850000002189));
#490 = ORIENTED_EDGE('',*,*,#491,.T.);
#491 = EDGE_CURVE('',#475,#284,#492,.T.);
#492 = B_SPLINE_CURVE_WITH_KNOTS('',1,(#493,#494),.UNSPECIFIED.,.F.,.F.,
  (2,2),(0.,1.250000000003),.PIECEWISE_BEZIER_KNOTS.);
#493 = CARTESIAN_POINT('',(-28.15,8.193987215161E-15,28.850000000035));
#494 = CARTESIAN_POINT('',(-29.15,-6.219403204075E-15,28.100000000035));
#495 = ORIENTED_EDGE('',*,*,#291,.T.);
#496 = ORIENTED_EDGE('',*,*,#226,.F.);
#497 = B_SPLINE_SURFACE_WITH_KNOTS('',1,11,(
    (#498,#499,#500,#501,#502,#503,#504,#505,#506,#507,#508,#509)
    ,(#510,#511,#512,#513,#514,#515,#516,#517,#518,#519,#520,#521
  )),.UNSPECIFIED.,.F.,.F.,.F.,(2,2),(12,12),(0.,1.250000000003),(0.,
    6.29888470037),.PIECEWISE_BEZIER_KNOTS.);
#498 = CARTESIAN_POINT('',(-28.15,8.193987215161E-15,28.850000000035));
#499 = CARTESIAN_POINT('',(-28.15000054265,16.079242649129,
    28.304545459981));
#500 = CARTESIAN_POINT('',(-18.04928601411,32.158119668025,
    27.759090898903));
#501 = CARTESIAN_POINT('',(2.173092249523,41.18764077668,27.213636385327
    ));
#502 = CARTESIAN_POINT('',(26.877824379877,36.090355604446,
    26.668181795429));
#503 = CARTESIAN_POINT('',(45.298350647539,14.883701765308,
    26.12272728973));
#504 = CARTESIAN_POINT('',(45.29834784667,-14.88370212267,
    25.577272728669));
#505 = CARTESIAN_POINT('',(26.877825594263,-36.0903549319,
    25.031818171666));
#506 = CARTESIAN_POINT('',(2.173092466844,-41.18764131243,
    24.486363647481));
#507 = CARTESIAN_POINT('',(-18.04928680192,-32.15811947628,
    23.94090908941));
#508 = CARTESIAN_POINT('',(-28.15000001139,-16.0792426186,
    23.395454545519));
#509 = CARTESIAN_POINT('',(-28.15000022059,-4.845054716824E-10,
    22.850000002189));
#510 = CARTESIAN_POINT('',(-29.15,-6.219403204075E-15,28.100000000035));
#511 = CARTESIAN_POINT('',(-29.15000054265,16.650441313355,
    27.554545459979));
#512 = CARTESIAN_POINT('',(-18.69046850157,33.300504052309,
    27.009090898232));
#513 = CARTESIAN_POINT('',(2.250289185319,42.650789553579,
    26.463636386791));
#514 = CARTESIAN_POINT('',(27.832631601921,37.372428794861,
    25.918181793491));
#515 = CARTESIAN_POINT('',(46.907528259517,15.412429828173,
    25.372727290515));
#516 = CARTESIAN_POINT('',(46.907525458626,-15.41243018558,
    24.827272729581));
#517 = CARTESIAN_POINT('',(27.832632816321,-37.37242812222,
    24.281818169635));
#518 = CARTESIAN_POINT('',(2.250289402635,-42.65079008941,
    23.736363648995));
#519 = CARTESIAN_POINT('',(-18.69046928937,-33.30050386053,
    23.190909088722));
#520 = CARTESIAN_POINT('',(-29.15000001139,-16.65044128284,
    22.64545454552));
#521 = CARTESIAN_POINT('',(-29.15000022059,-4.841923378407E-10,
    22.100000002189));
#522 = ADVANCED_FACE('',(#523,#565),#645,.F.);
#523 = FACE_BOUND('',#524,.F.);
#524 = EDGE_LOOP('',(#525,#542,#550,#557,#558,#564));
#525 = ORIENTED_EDGE('',*,*,#526,.F.);
#526 = EDGE_CURVE('',#527,#267,#529,.T.);
#527 = VERTEX_POINT('',#528);
#528 = CARTESIAN_POINT('',(-29.15,2.429704455263E-14,29.600000000035));
#529 = B_SPLINE_CURVE_WITH_KNOTS('',11,(#530,#531,#532,#533,#534,#535,
    #536,#537,#538,#539,#540,#541),.UNSPECIFIED.,.F.,.F.,(12,12),(0.,
    6.29888470037),.PIECEWISE_BEZIER_KNOTS.);
#530 = CARTESIAN_POINT('',(-29.15,2.429704455263E-14,29.600000000035));
#531 = CARTESIAN_POINT('',(-29.15000054266,16.650441313356,
    29.054545459979));
#532 = CARTESIAN_POINT('',(-18.69046850156,33.300504052305,
    28.509090898228));
#533 = CARTESIAN_POINT('',(2.250289185313,42.650789553605,27.9636363868)
  );
#534 = CARTESIAN_POINT('',(27.832631601922,37.372428794803,
    27.418181793475));
#535 = CARTESIAN_POINT('',(46.907528259523,15.412429828262,
    26.872727290536));
#536 = CARTESIAN_POINT('',(46.907525458623,-15.41243018567,
    26.32727272956));
#537 = CARTESIAN_POINT('',(27.832632816319,-37.37242812216,
    25.78181816965));
#538 = CARTESIAN_POINT('',(2.250289402641,-42.65079008944,
    25.236363648986));
#539 = CARTESIAN_POINT('',(-18.69046928938,-33.30050386053,
    24.690909088726));
#540 = CARTESIAN_POINT('',(-29.15000001139,-16.65044128284,
    24.145454545519));
#541 = CARTESIAN_POINT('',(-29.15000022059,-4.842186648118E-10,
    23.600000002189));
#542 = ORIENTED_EDGE('',*,*,#543,.T.);
#543 = EDGE_CURVE('',#527,#544,#546,.T.);
#544 = VERTEX_POINT('',#545);
#545 = CARTESIAN_POINT('',(-29.15,7.327471962526E-15,33.));
#546 = LINE('',#547,#548);
#547 = CARTESIAN_POINT('',(-29.15,0.,0.));
#548 = VECTOR('',#549,1.);
#549 = DIRECTION('',(0.,2.22044604925E-16,1.));
#550 = ORIENTED_EDGE('',*,*,#551,.F.);
#551 = EDGE_CURVE('',#544,#544,#552,.T.);
#552 = CIRCLE('',#553,29.15);
#553 = AXIS2_PLACEMENT_3D('',#554,#555,#556);
#554 = CARTESIAN_POINT('',(0.,7.327471962526E-15,33.));
#555 = DIRECTION('',(0.,2.22044604925E-16,1.));
#556 = DIRECTION('',(-1.,0.,0.));
#557 = ORIENTED_EDGE('',*,*,#543,.F.);
#558 = ORIENTED_EDGE('',*,*,#559,.F.);
#559 = EDGE_CURVE('',#284,#527,#560,.T.);
#560 = LINE('',#561,#562);
#561 = CARTESIAN_POINT('',(-29.15,0.,0.));
#562 = VECTOR('',#563,1.);
#563 = DIRECTION('',(0.,2.22044604925E-16,1.));
#564 = ORIENTED_EDGE('',*,*,#283,.F.);
#565 = FACE_BOUND('',#566,.F.);
#566 = EDGE_LOOP('',(#567,#600,#637));
#567 = ORIENTED_EDGE('',*,*,#568,.F.);
#568 = EDGE_CURVE('',#569,#571,#573,.T.);
#569 = VERTEX_POINT('',#570);
#570 = CARTESIAN_POINT('',(-28.72679390915,-4.949122316228,
    28.850000000035));
#571 = VERTEX_POINT('',#572);
#572 = CARTESIAN_POINT('',(-28.86631420381,-4.056895892984,
    29.032628407669));
#573 = B_SPLINE_CURVE_WITH_KNOTS('',7,(#574,#575,#576,#577,#578,#579,
    #580,#581,#582,#583,#584,#585,#586,#587,#588,#589,#590,#591,#592,
    #593,#594,#595,#596,#597,#598,#599),.UNSPECIFIED.,.F.,.F.,(8,6,6,6,8
    ),(0.,0.450977050176,0.678045563169,0.87854663947,1.),
  .UNSPECIFIED.);
#574 = CARTESIAN_POINT('',(-28.72679390915,-4.949122316228,
    28.850000000035));
#575 = CARTESIAN_POINT('',(-28.73062644788,-4.926876644499,
    28.854818865216));
#576 = CARTESIAN_POINT('',(-28.73490134416,-4.901943091745,
    28.860204442242));
#577 = CARTESIAN_POINT('',(-28.73971223347,-4.873726888562,
    28.866278945642));
#578 = CARTESIAN_POINT('',(-28.74517584084,-4.841466647752,
    28.873196470905));
#579 = CARTESIAN_POINT('',(-28.7514286447,-4.804246811479,
    28.881139404418));
#580 = CARTESIAN_POINT('',(-28.75864744725,-4.760813764104,
    28.890349924501));
#581 = CARTESIAN_POINT('',(-28.77115484389,-4.684423223905,
    28.906407655656));
#582 = CARTESIAN_POINT('',(-28.77561980358,-4.656985949541,
    28.912154626827));
#583 = CARTESIAN_POINT('',(-28.78037233369,-4.627583899147,
    28.91828901397));
#584 = CARTESIAN_POINT('',(-28.78541747411,-4.596131824466,
    28.924822048424));
#585 = CARTESIAN_POINT('',(-28.79075043195,-4.562597376443,
    28.931752963109));
#586 = CARTESIAN_POINT('',(-28.79635288176,-4.527029567006,
    28.939063729868));
#587 = CARTESIAN_POINT('',(-28.80734278188,-4.456525717368,
    28.953468791746));
#588 = CARTESIAN_POINT('',(-28.81268061534,-4.421990933157,
    28.960490801044));
#589 = CARTESIAN_POINT('',(-28.8181792,-4.386087110444,28.967753039367)
  );
#590 = CARTESIAN_POINT('',(-28.82381142719,-4.348944735392,
    28.975223769602));
#591 = CARTESIAN_POINT('',(-28.82954854655,-4.310710412335,
    28.982868614516));
#592 = CARTESIAN_POINT('',(-28.83536206696,-4.271536728033,
    28.990652868395));
#593 = CARTESIAN_POINT('',(-28.84477752262,-4.207363585311,
    29.003323739243));
#594 = CARTESIAN_POINT('',(-28.84834828473,-4.182861207931,
    29.008143527241));
#595 = CARTESIAN_POINT('',(-28.85193257412,-4.158094431524,
    29.012996571435));
#596 = CARTESIAN_POINT('',(-28.85552547001,-4.133090778868,
    29.017876775497));
#597 = CARTESIAN_POINT('',(-28.85912254247,-4.10787541807,
    29.022778617084));
#598 = CARTESIAN_POINT('',(-28.86271989447,-4.082470732879,
    29.027697216884));
#599 = CARTESIAN_POINT('',(-28.86631420381,-4.056895892984,
    29.032628407668));
#600 = ORIENTED_EDGE('',*,*,#601,.F.);
#601 = EDGE_CURVE('',#602,#569,#604,.T.);
#602 = VERTEX_POINT('',#603);
#603 = CARTESIAN_POINT('',(-28.86631420381,-4.056895892986,
    28.667371592401));
#604 = B_SPLINE_CURVE_WITH_KNOTS('',6,(#605,#606,#607,#608,#609,#610,
    #611,#612,#613,#614,#615,#616,#617,#618,#619,#620,#621,#622,#623,
    #624,#625,#626,#627,#628,#629,#630,#631,#632,#633,#634,#635,#636),
  .UNSPECIFIED.,.F.,.F.,(7,5,5,5,5,5,7),(0.,0.123197723062,
    0.322099227727,0.507404476631,0.612882167917,0.890390947472,1.),
  .UNSPECIFIED.);
#605 = CARTESIAN_POINT('',(-28.86631420381,-4.056895892986,
    28.667371592401));
#606 = CARTESIAN_POINT('',(-28.86206183783,-4.087153049131,
    28.673205599971));
#607 = CARTESIAN_POINT('',(-28.85780509234,-4.117165231694,
    28.679021479396));
#608 = CARTESIAN_POINT('',(-28.85355002743,-4.146897474073,
    28.684811629231));
#609 = CARTESIAN_POINT('',(-28.84930412541,-4.176306856105,
    28.690566686155));
#610 = CARTESIAN_POINT('',(-28.84507613052,-4.205344131997,
    28.696275787486));
#611 = CARTESIAN_POINT('',(-28.8340946397,-4.28014789989,28.711050391866
    ));
#612 = CARTESIAN_POINT('',(-28.82738380663,-4.3252432118,28.720025230912
    ));
#613 = CARTESIAN_POINT('',(-28.82078852026,-4.368987199718,
    28.72879529271));
#614 = CARTESIAN_POINT('',(-28.81435865037,-4.411117270912,
    28.737300222085));
#615 = CARTESIAN_POINT('',(-28.80814241786,-4.451396305589,
    28.745483127068));
#616 = CARTESIAN_POINT('',(-28.79662516693,-4.525282284155,
    28.760579328928));
#617 = CARTESIAN_POINT('',(-28.79128865011,-4.55916942512,
    28.767543741207));
#618 = CARTESIAN_POINT('',(-28.7862034573,-4.591161217383,
    28.774153990872));
#619 = CARTESIAN_POINT('',(-28.78138577085,-4.621219569525,
    28.780394611626));
#620 = CARTESIAN_POINT('',(-28.77683900915,-4.649381571181,
    28.786266281644));
#621 = CARTESIAN_POINT('',(-28.77012101784,-4.690721418016,
    28.794918229747));
#622 = CARTESIAN_POINT('',(-28.76776993077,-4.7051298344,28.797940963325
    ));
#623 = CARTESIAN_POINT('',(-28.76550337235,-4.718967550393,
    28.800850416351));
#624 = CARTESIAN_POINT('',(-28.76331916545,-4.732255606165,
    28.803650060744));
#625 = CARTESIAN_POINT('',(-28.76121451538,-4.7450178131,28.806344073852
    ));
#626 = CARTESIAN_POINT('',(-28.75385020327,-4.789537302205,
    28.815758690363));
#627 = CARTESIAN_POINT('',(-28.7490451779,-4.818315442859,
    28.821877913931));
#628 = CARTESIAN_POINT('',(-28.74470999046,-4.844092590551,
    28.827382446706));
#629 = CARTESIAN_POINT('',(-28.74077904302,-4.867327582904,
    28.832361593465));
#630 = CARTESIAN_POINT('',(-28.73719720185,-4.888392041982,
    28.836889187424));
#631 = CARTESIAN_POINT('',(-28.73262042073,-4.915189010072,
    28.84266405645));
#632 = CARTESIAN_POINT('',(-28.73137164574,-4.922486093366,
    28.844238464909));
#633 = CARTESIAN_POINT('',(-28.73016712536,-4.929511622204,
    28.845755946234));
#634 = CARTESIAN_POINT('',(-28.72900423201,-4.936282722558,
    28.847219968076));
#635 = CARTESIAN_POINT('',(-28.72788055672,-4.942814955306,
    28.848633697309));
#636 = CARTESIAN_POINT('',(-28.72679390915,-4.949122316228,
    28.850000000035));
#637 = ORIENTED_EDGE('',*,*,#638,.F.);
#638 = EDGE_CURVE('',#571,#602,#639,.T.);
#639 = B_SPLINE_CURVE_WITH_KNOTS('',4,(#640,#641,#642,#643,#644),
  .UNSPECIFIED.,.F.,.F.,(5,5),(0.,1.),.PIECEWISE_BEZIER_KNOTS.);
#640 = CARTESIAN_POINT('',(-28.86631420381,-4.056895892986,
    29.032628407668));
#641 = CARTESIAN_POINT('',(-28.86631420381,-4.056895892986,
    28.941314203849));
#642 = CARTESIAN_POINT('',(-28.86631420381,-4.056895892986,
    28.850000000029));
#643 = CARTESIAN_POINT('',(-28.86631420381,-4.056895892986,
    28.75868579621));
#644 = CARTESIAN_POINT('',(-28.86631420381,-4.056895892986,
    28.66737159239));
#645 = CYLINDRICAL_SURFACE('',#646,29.15);
#646 = AXIS2_PLACEMENT_3D('',#647,#648,#649);
#647 = CARTESIAN_POINT('',(0.,0.,0.));
#648 = DIRECTION('',(0.,2.22044604925E-16,1.));
#649 = DIRECTION('',(-1.,0.,0.));
#650 = ADVANCED_FACE('',(#651),#661,.T.);
#651 = FACE_BOUND('',#652,.T.);
#652 = EDGE_LOOP('',(#653,#654,#659,#660));
#653 = ORIENTED_EDGE('',*,*,#526,.F.);
#654 = ORIENTED_EDGE('',*,*,#655,.T.);
#655 = EDGE_CURVE('',#527,#475,#656,.T.);
#656 = B_SPLINE_CURVE_WITH_KNOTS('',1,(#657,#658),.UNSPECIFIED.,.F.,.F.,
  (2,2),(0.,1.249999999997),.PIECEWISE_BEZIER_KNOTS.);
#657 = CARTESIAN_POINT('',(-29.15,2.429704455263E-14,29.600000000035));
#658 = CARTESIAN_POINT('',(-28.15,8.193987215161E-15,28.850000000035));
#659 = ORIENTED_EDGE('',*,*,#474,.T.);
#660 = ORIENTED_EDGE('',*,*,#439,.F.);
#661 = B_SPLINE_SURFACE_WITH_KNOTS('',1,11,(
    (#662,#663,#664,#665,#666,#667,#668,#669,#670,#671,#672,#673)
    ,(#674,#675,#676,#677,#678,#679,#680,#681,#682,#683,#684,#685
  )),.UNSPECIFIED.,.F.,.F.,.F.,(2,2),(12,12),(0.,1.249999999997),(0.,
    6.29888470037),.PIECEWISE_BEZIER_KNOTS.);
#662 = CARTESIAN_POINT('',(-29.15,2.429704455263E-14,29.600000000035));
#663 = CARTESIAN_POINT('',(-29.15000054266,16.650441313356,
    29.054545459979));
#664 = CARTESIAN_POINT('',(-18.69046850156,33.300504052305,
    28.509090898228));
#665 = CARTESIAN_POINT('',(2.250289185313,42.650789553605,27.9636363868)
  );
#666 = CARTESIAN_POINT('',(27.832631601922,37.372428794803,
    27.418181793475));
#667 = CARTESIAN_POINT('',(46.907528259523,15.412429828262,
    26.872727290536));
#668 = CARTESIAN_POINT('',(46.907525458623,-15.41243018567,
    26.32727272956));
#669 = CARTESIAN_POINT('',(27.832632816319,-37.37242812216,
    25.78181816965));
#670 = CARTESIAN_POINT('',(2.250289402641,-42.65079008944,
    25.236363648986));
#671 = CARTESIAN_POINT('',(-18.69046928938,-33.30050386053,
    24.690909088726));
#672 = CARTESIAN_POINT('',(-29.15000001139,-16.65044128284,
    24.145454545519));
#673 = CARTESIAN_POINT('',(-29.15000022059,-4.842186648118E-10,
    23.600000002189));
#674 = CARTESIAN_POINT('',(-28.15,8.193987215161E-15,28.850000000035));
#675 = CARTESIAN_POINT('',(-28.15000054265,16.079242649129,
    28.304545459981));
#676 = CARTESIAN_POINT('',(-18.04928601411,32.158119668025,
    27.759090898903));
#677 = CARTESIAN_POINT('',(2.173092249523,41.18764077668,27.213636385327
    ));
#678 = CARTESIAN_POINT('',(26.877824379877,36.090355604446,
    26.668181795429));
#679 = CARTESIAN_POINT('',(45.298350647539,14.883701765308,
    26.12272728973));
#680 = CARTESIAN_POINT('',(45.29834784667,-14.88370212267,
    25.577272728669));
#681 = CARTESIAN_POINT('',(26.877825594263,-36.0903549319,
    25.031818171666));
#682 = CARTESIAN_POINT('',(2.173092466844,-41.18764131243,
    24.486363647481));
#683 = CARTESIAN_POINT('',(-18.04928680192,-32.15811947628,
    23.94090908941));
#684 = CARTESIAN_POINT('',(-28.15000001139,-16.0792426186,
    23.395454545519));
#685 = CARTESIAN_POINT('',(-28.15000022059,-4.845054716824E-10,
    22.850000002189));
#686 = ADVANCED_FACE('',(#687),#701,.F.);
#687 = FACE_BOUND('',#688,.F.);
#688 = EDGE_LOOP('',(#689,#694,#695,#700));
#689 = ORIENTED_EDGE('',*,*,#690,.F.);
#690 = EDGE_CURVE('',#475,#569,#691,.T.);
#691 = B_SPLINE_CURVE_WITH_KNOTS('',1,(#692,#693),.UNSPECIFIED.,.F.,.F.,
  (2,2),(0.,1.),.PIECEWISE_BEZIER_KNOTS.);
#692 = CARTESIAN_POINT('',(-28.15,8.193987215161E-15,28.850000000035));
#693 = CARTESIAN_POINT('',(-28.73272343286,-5.,28.850000000035));
#694 = ORIENTED_EDGE('',*,*,#491,.T.);
#695 = ORIENTED_EDGE('',*,*,#696,.T.);
#696 = EDGE_CURVE('',#284,#602,#697,.T.);
#697 = B_SPLINE_CURVE_WITH_KNOTS('',1,(#698,#699),.UNSPECIFIED.,.F.,.F.,
  (2,2),(0.,1.),.PIECEWISE_BEZIER_KNOTS.);
#698 = CARTESIAN_POINT('',(-29.15,-6.219403204075E-15,28.100000000035));
#699 = CARTESIAN_POINT('',(-28.80036594028,-5.,28.79926811947));
#700 = ORIENTED_EDGE('',*,*,#601,.T.);
#701 = B_SPLINE_SURFACE_WITH_KNOTS('',1,1,(
    (#702,#703)
    ,(#704,#705
    )),.UNSPECIFIED.,.F.,.F.,.F.,(2,2),(2,2),(0.,1.250000000003),(0.,1.)
  ,.PIECEWISE_BEZIER_KNOTS.);
#702 = CARTESIAN_POINT('',(-28.15,8.193987215161E-15,28.850000000035));
#703 = CARTESIAN_POINT('',(-28.73272343286,-5.,28.850000000035));
#704 = CARTESIAN_POINT('',(-29.15,-6.219403204075E-15,28.100000000035));
#705 = CARTESIAN_POINT('',(-28.80036594028,-5.,28.79926811947));
#706 = ADVANCED_FACE('',(#707),#717,.F.);
#707 = FACE_BOUND('',#708,.F.);
#708 = EDGE_LOOP('',(#709,#710,#711,#716));
#709 = ORIENTED_EDGE('',*,*,#696,.F.);
#710 = ORIENTED_EDGE('',*,*,#559,.T.);
#711 = ORIENTED_EDGE('',*,*,#712,.T.);
#712 = EDGE_CURVE('',#527,#571,#713,.T.);
#713 = B_SPLINE_CURVE_WITH_KNOTS('',1,(#714,#715),.UNSPECIFIED.,.F.,.F.,
  (2,2),(0.,1.),.PIECEWISE_BEZIER_KNOTS.);
#714 = CARTESIAN_POINT('',(-29.15,2.429704455263E-14,29.600000000035));
#715 = CARTESIAN_POINT('',(-28.80036594028,-5.,28.9007318806));
#716 = ORIENTED_EDGE('',*,*,#638,.T.);
#717 = B_SPLINE_SURFACE_WITH_KNOTS('',1,1,(
    (#718,#719)
    ,(#720,#721
    )),.UNSPECIFIED.,.F.,.F.,.F.,(2,2),(2,2),(28.099999999977,
    29.600000000035),(0.,1.),.PIECEWISE_BEZIER_KNOTS.);
#718 = CARTESIAN_POINT('',(-29.15,6.239453398388E-15,28.099999999977));
#719 = CARTESIAN_POINT('',(-28.80036594028,-5.,28.79926811947));
#720 = CARTESIAN_POINT('',(-29.15,6.572520305789E-15,29.600000000035));
#721 = CARTESIAN_POINT('',(-28.80036594028,-5.,28.9007318806));
#722 = ADVANCED_FACE('',(#723,#726),#737,.T.);
#723 = FACE_BOUND('',#724,.F.);
#724 = EDGE_LOOP('',(#725));
#725 = ORIENTED_EDGE('',*,*,#551,.T.);
#726 = FACE_BOUND('',#727,.F.);
#727 = EDGE_LOOP('',(#728));
#728 = ORIENTED_EDGE('',*,*,#729,.F.);
#729 = EDGE_CURVE('',#730,#730,#732,.T.);
#730 = VERTEX_POINT('',#731);
#731 = CARTESIAN_POINT('',(-30.4,7.327471962526E-15,33.));
#732 = CIRCLE('',#733,30.4);
#733 = AXIS2_PLACEMENT_3D('',#734,#735,#736);
#734 = CARTESIAN_POINT('',(0.,7.327471962526E-15,33.));
#735 = DIRECTION('',(0.,2.22044604925E-16,1.));
#736 = DIRECTION('',(-1.,0.,0.));
#737 = PLANE('',#738);
#738 = AXIS2_PLACEMENT_3D('',#739,#740,#741);
#739 = CARTESIAN_POINT('',(0.,7.327471962526E-15,33.));
#740 = DIRECTION('',(0.,2.22044604925E-16,1.));
#741 = DIRECTION('',(-1.,-0.,-0.));
#742 = ADVANCED_FACE('',(#743),#749,.F.);
#743 = FACE_BOUND('',#744,.F.);
#744 = EDGE_LOOP('',(#745,#746,#747,#748));
#745 = ORIENTED_EDGE('',*,*,#712,.F.);
#746 = ORIENTED_EDGE('',*,*,#655,.T.);
#747 = ORIENTED_EDGE('',*,*,#690,.T.);
#748 = ORIENTED_EDGE('',*,*,#568,.T.);
#749 = B_SPLINE_SURFACE_WITH_KNOTS('',1,1,(
    (#750,#751)
    ,(#752,#753
    )),.UNSPECIFIED.,.F.,.F.,.F.,(2,2),(2,2),(0.,1.249999999997),(0.,1.)
  ,.PIECEWISE_BEZIER_KNOTS.);
#750 = CARTESIAN_POINT('',(-29.15,2.429704455263E-14,29.600000000035));
#751 = CARTESIAN_POINT('',(-28.80036594028,-5.,28.9007318806));
#752 = CARTESIAN_POINT('',(-28.15,8.193987215161E-15,28.850000000035));
#753 = CARTESIAN_POINT('',(-28.73272343286,-5.,28.850000000035));
#754 = ADVANCED_FACE('',(#755),#774,.T.);
#755 = FACE_BOUND('',#756,.F.);
#756 = EDGE_LOOP('',(#757,#765,#766,#767));
#757 = ORIENTED_EDGE('',*,*,#758,.F.);
#758 = EDGE_CURVE('',#730,#759,#761,.T.);
#759 = VERTEX_POINT('',#760);
#760 = CARTESIAN_POINT('',(-30.4,4.440892098501E-16,2.));
#761 = LINE('',#762,#763);
#762 = CARTESIAN_POINT('',(-30.4,7.327471962526E-15,33.));
#763 = VECTOR('',#764,1.);
#764 = DIRECTION('',(0.,-2.22044604925E-16,-1.));
#765 = ORIENTED_EDGE('',*,*,#729,.T.);
#766 = ORIENTED_EDGE('',*,*,#758,.T.);
#767 = ORIENTED_EDGE('',*,*,#768,.F.);
#768 = EDGE_CURVE('',#759,#759,#769,.T.);
#769 = CIRCLE('',#770,30.4);
#770 = AXIS2_PLACEMENT_3D('',#771,#772,#773);
#771 = CARTESIAN_POINT('',(0.,4.440892098501E-16,2.));
#772 = DIRECTION('',(0.,2.22044604925E-16,1.));
#773 = DIRECTION('',(-1.,0.,0.));
#774 = CYLINDRICAL_SURFACE('',#775,30.4);
#775 = AXIS2_PLACEMENT_3D('',#776,#777,#778);
#776 = CARTESIAN_POINT('',(0.,7.327471962526E-15,33.));
#777 = DIRECTION('',(-0.,-2.22044604925E-16,-1.));
#778 = DIRECTION('',(-1.,0.,0.));
#779 = ADVANCED_FACE('',(#780),#799,.T.);
#780 = FACE_BOUND('',#781,.F.);
#781 = EDGE_LOOP('',(#782,#783,#791,#798));
#782 = ORIENTED_EDGE('',*,*,#768,.T.);
#783 = ORIENTED_EDGE('',*,*,#784,.T.);
#784 = EDGE_CURVE('',#759,#785,#787,.T.);
#785 = VERTEX_POINT('',#786);
#786 = CARTESIAN_POINT('',(-30.4,0.,0.));
#787 = LINE('',#788,#789);
#788 = CARTESIAN_POINT('',(-30.4,7.327471962526E-15,33.));
#789 = VECTOR('',#790,1.);
#790 = DIRECTION('',(0.,-2.22044604925E-16,-1.));
#791 = ORIENTED_EDGE('',*,*,#792,.F.);
#792 = EDGE_CURVE('',#785,#785,#793,.T.);
#793 = CIRCLE('',#794,30.4);
#794 = AXIS2_PLACEMENT_3D('',#795,#796,#797);
#795 = CARTESIAN_POINT('',(0.,0.,0.));
#796 = DIRECTION('',(0.,2.22044604925E-16,1.));
#797 = DIRECTION('',(-1.,0.,0.));
#798 = ORIENTED_EDGE('',*,*,#784,.F.);
#799 = CYLINDRICAL_SURFACE('',#800,30.4);
#800 = AXIS2_PLACEMENT_3D('',#801,#802,#803);
#801 = CARTESIAN_POINT('',(0.,7.327471962526E-15,33.));
#802 = DIRECTION('',(-0.,-2.22044604925E-16,-1.));
#803 = DIRECTION('',(-1.,0.,0.));
#804 = ADVANCED_FACE('',(#805,#808),#819,.F.);
#805 = FACE_BOUND('',#806,.F.);
#806 = EDGE_LOOP('',(#807));
#807 = ORIENTED_EDGE('',*,*,#792,.T.);
#808 = FACE_BOUND('',#809,.F.);
#809 = EDGE_LOOP('',(#810));
#810 = ORIENTED_EDGE('',*,*,#811,.F.);
#811 = EDGE_CURVE('',#812,#812,#814,.T.);
#812 = VERTEX_POINT('',#813);
#813 = CARTESIAN_POINT('',(-29.15,0.,0.));
#814 = CIRCLE('',#815,29.15);
#815 = AXIS2_PLACEMENT_3D('',#816,#817,#818);
#816 = CARTESIAN_POINT('',(0.,0.,0.));
#817 = DIRECTION('',(0.,2.22044604925E-16,1.));
#818 = DIRECTION('',(-1.,0.,0.));
#819 = PLANE('',#820);
#820 = AXIS2_PLACEMENT_3D('',#821,#822,#823);
#821 = CARTESIAN_POINT('',(0.,0.,0.));
#822 = DIRECTION('',(0.,2.22044604925E-16,1.));
#823 = DIRECTION('',(-1.,0.,0.));
#824 = ADVANCED_FACE('',(#825),#828,.F.);
#825 = FACE_BOUND('',#826,.F.);
#826 = EDGE_LOOP('',(#827));
#827 = ORIENTED_EDGE('',*,*,#811,.T.);
#828 = PLANE('',#829);
#829 = AXIS2_PLACEMENT_3D('',#830,#831,#832);
#830 = CARTESIAN_POINT('',(2.878821331662E-15,-1.637845908526E-15,
    3.636748476867E-31));
#831 = DIRECTION('',(0.,2.22044604925E-16,1.));
#832 = DIRECTION('',(0.,1.,-2.22044604925E-16));
#833 = ( GEOMETRIC_REPRESENTATION_CONTEXT(3) 
GLOBAL_UNCERTAINTY_ASSIGNED_CONTEXT((#837)) GLOBAL_UNIT_ASSIGNED_CONTEXT
((#834,#835,#836)) REPRESENTATION_CONTEXT('Context #1',
  '3D Context with UNIT and UNCERTAINTY') );
#834 = ( LENGTH_UNIT() NAMED_UNIT(*) SI_UNIT(.MILLI.,.METRE.) );
#835 = ( NAMED_UNIT(*) PLANE_ANGLE_UNIT() SI_UNIT($,.RADIAN.) );
#836 = ( NAMED_UNIT(*) SI_UNIT($,.STERADIAN.) SOLID_ANGLE_UNIT() );
#837 = UNCERTAINTY_MEASURE_WITH_UNIT(LENGTH_MEASURE(5.E-05),#834,
  'distance_accuracy_value','confusion accuracy');
#838 = PRODUCT_RELATED_PRODUCT_CATEGORY('part',$,(#7));
#839 = MECHANICAL_DESIGN_GEOMETRIC_PRESENTATION_REPRESENTATION('',(#840)
  ,#833);
#840 = STYLED_ITEM('color',(#841),#15);
#841 = PRESENTATION_STYLE_ASSIGNMENT((#842,#848));
#842 = SURFACE_STYLE_USAGE(.BOTH.,#843);
#843 = SURFACE_SIDE_STYLE('',(#844));
#844 = SURFACE_STYLE_FILL_AREA(#845);
#845 = FILL_AREA_STYLE('',(#846));
#846 = FILL_AREA_STYLE_COLOUR('',#847);
#847 = COLOUR_RGB('',0.447058818107,0.474509808674,0.501960817233);
#848 = CURVE_STYLE('',#849,POSITIVE_LENGTH_MEASURE(0.1),#850);
#849 = DRAUGHTING_PRE_DEFINED_CURVE_FONT('continuous');
#850 = DRAUGHTING_PRE_DEFINED_COLOUR('black');
ENDSEC;
END-ISO-10303-21;
