G04 #@! TF.FileFunction,Copper,L1,Top,Signal*
%FSLAX46Y46*%
G04 Gerber Fmt 4.6, Leading zero omitted, Abs format (unit mm)*
G04 Created by KiCad (PCBNEW no-vcs-found-undefined) date Sun Oct 23 13:20:11 2016*
%MOMM*%
%LPD*%
G01*
G04 APERTURE LIST*
%ADD10C,0.100000*%
%ADD11C,3.000000*%
%ADD12R,3.000000X3.000000*%
%ADD13R,2.000000X2.000000*%
%ADD14C,2.000000*%
%ADD15R,0.900000X1.200000*%
%ADD16C,4.064000*%
%ADD17C,0.250000*%
%ADD18C,0.254000*%
G04 APERTURE END LIST*
D10*
D11*
X149280001Y-89075074D03*
D12*
X128790001Y-89075074D03*
D13*
X131440000Y-74375000D03*
D14*
X128900000Y-74375000D03*
D15*
X149860000Y-76030000D03*
X149860000Y-73830000D03*
D16*
X154940000Y-101600000D03*
D17*
X128790001Y-89075074D02*
X128270000Y-88900000D01*
X128270000Y-88900000D02*
X128270000Y-74930000D01*
X128270000Y-74930000D02*
X128900000Y-74375000D01*
X128270000Y-88900000D02*
X128790001Y-89075074D01*
X128900000Y-74375000D02*
X128270000Y-74930000D01*
X149860000Y-73830000D02*
X131985000Y-73830000D01*
X131985000Y-73830000D02*
X131440000Y-74375000D01*
X149860000Y-73660000D02*
X149860000Y-73830000D01*
X149860000Y-73660000D02*
X149860000Y-73830000D01*
D18*
G36*
X157353000Y-100455983D02*
X157202291Y-100091239D01*
X156452707Y-99340345D01*
X155472827Y-98933464D01*
X154411828Y-98932538D01*
X153431239Y-99337709D01*
X152680345Y-100087293D01*
X152273464Y-101067173D01*
X152272538Y-102128172D01*
X152677709Y-103108761D01*
X153427293Y-103859655D01*
X153796589Y-104013000D01*
X124587000Y-104013000D01*
X124587000Y-87575074D01*
X126642561Y-87575074D01*
X126642561Y-90575074D01*
X126691844Y-90822839D01*
X126832192Y-91032883D01*
X127042236Y-91173231D01*
X127290001Y-91222514D01*
X130290001Y-91222514D01*
X130537766Y-91173231D01*
X130747810Y-91032883D01*
X130888158Y-90822839D01*
X130934662Y-90589044D01*
X147945636Y-90589044D01*
X148105419Y-90907813D01*
X148896188Y-91217797D01*
X149745388Y-91201571D01*
X150454583Y-90907813D01*
X150614366Y-90589044D01*
X149280001Y-89254679D01*
X147945636Y-90589044D01*
X130934662Y-90589044D01*
X130937441Y-90575074D01*
X130937441Y-88691261D01*
X147137278Y-88691261D01*
X147153504Y-89540461D01*
X147447262Y-90249656D01*
X147766031Y-90409439D01*
X149100396Y-89075074D01*
X149459606Y-89075074D01*
X150793971Y-90409439D01*
X151112740Y-90249656D01*
X151422724Y-89458887D01*
X151406498Y-88609687D01*
X151112740Y-87900492D01*
X150793971Y-87740709D01*
X149459606Y-89075074D01*
X149100396Y-89075074D01*
X147766031Y-87740709D01*
X147447262Y-87900492D01*
X147137278Y-88691261D01*
X130937441Y-88691261D01*
X130937441Y-87575074D01*
X130934663Y-87561104D01*
X147945636Y-87561104D01*
X149280001Y-88895469D01*
X150614366Y-87561104D01*
X150454583Y-87242335D01*
X149663814Y-86932351D01*
X148814614Y-86948577D01*
X148105419Y-87242335D01*
X147945636Y-87561104D01*
X130934663Y-87561104D01*
X130888158Y-87327309D01*
X130747810Y-87117265D01*
X130537766Y-86976917D01*
X130290001Y-86927634D01*
X129030000Y-86927634D01*
X129030000Y-76315750D01*
X148775000Y-76315750D01*
X148775000Y-76756309D01*
X148871673Y-76989698D01*
X149050301Y-77168327D01*
X149283690Y-77265000D01*
X149574250Y-77265000D01*
X149733000Y-77106250D01*
X149733000Y-76157000D01*
X149987000Y-76157000D01*
X149987000Y-77106250D01*
X150145750Y-77265000D01*
X150436310Y-77265000D01*
X150669699Y-77168327D01*
X150848327Y-76989698D01*
X150945000Y-76756309D01*
X150945000Y-76315750D01*
X150786250Y-76157000D01*
X149987000Y-76157000D01*
X149733000Y-76157000D01*
X148933750Y-76157000D01*
X148775000Y-76315750D01*
X129030000Y-76315750D01*
X129030000Y-76010115D01*
X129223795Y-76010284D01*
X129824943Y-75761894D01*
X129890847Y-75696105D01*
X129982191Y-75832809D01*
X130192235Y-75973157D01*
X130440000Y-76022440D01*
X132440000Y-76022440D01*
X132687765Y-75973157D01*
X132897809Y-75832809D01*
X133038157Y-75622765D01*
X133087440Y-75375000D01*
X133087440Y-74590000D01*
X148794386Y-74590000D01*
X148811843Y-74677765D01*
X148952191Y-74887809D01*
X149013320Y-74928654D01*
X148871673Y-75070302D01*
X148775000Y-75303691D01*
X148775000Y-75744250D01*
X148933750Y-75903000D01*
X149733000Y-75903000D01*
X149733000Y-75883000D01*
X149987000Y-75883000D01*
X149987000Y-75903000D01*
X150786250Y-75903000D01*
X150945000Y-75744250D01*
X150945000Y-75303691D01*
X150848327Y-75070302D01*
X150706680Y-74928654D01*
X150767809Y-74887809D01*
X150908157Y-74677765D01*
X150957440Y-74430000D01*
X150957440Y-73230000D01*
X150908157Y-72982235D01*
X150767809Y-72772191D01*
X150557765Y-72631843D01*
X150310000Y-72582560D01*
X149410000Y-72582560D01*
X149162235Y-72631843D01*
X148952191Y-72772191D01*
X148811843Y-72982235D01*
X148794386Y-73070000D01*
X132999913Y-73070000D01*
X132897809Y-72917191D01*
X132687765Y-72776843D01*
X132440000Y-72727560D01*
X130440000Y-72727560D01*
X130192235Y-72776843D01*
X129982191Y-72917191D01*
X129891079Y-73053549D01*
X129827363Y-72989722D01*
X129226648Y-72740284D01*
X128576205Y-72739716D01*
X127975057Y-72988106D01*
X127514722Y-73447637D01*
X127265284Y-74048352D01*
X127264716Y-74698795D01*
X127510000Y-75292426D01*
X127510000Y-86927634D01*
X127290001Y-86927634D01*
X127042236Y-86976917D01*
X126832192Y-87117265D01*
X126691844Y-87327309D01*
X126642561Y-87575074D01*
X124587000Y-87575074D01*
X124587000Y-69977000D01*
X157353000Y-69977000D01*
X157353000Y-100455983D01*
X157353000Y-100455983D01*
G37*
X157353000Y-100455983D02*
X157202291Y-100091239D01*
X156452707Y-99340345D01*
X155472827Y-98933464D01*
X154411828Y-98932538D01*
X153431239Y-99337709D01*
X152680345Y-100087293D01*
X152273464Y-101067173D01*
X152272538Y-102128172D01*
X152677709Y-103108761D01*
X153427293Y-103859655D01*
X153796589Y-104013000D01*
X124587000Y-104013000D01*
X124587000Y-87575074D01*
X126642561Y-87575074D01*
X126642561Y-90575074D01*
X126691844Y-90822839D01*
X126832192Y-91032883D01*
X127042236Y-91173231D01*
X127290001Y-91222514D01*
X130290001Y-91222514D01*
X130537766Y-91173231D01*
X130747810Y-91032883D01*
X130888158Y-90822839D01*
X130934662Y-90589044D01*
X147945636Y-90589044D01*
X148105419Y-90907813D01*
X148896188Y-91217797D01*
X149745388Y-91201571D01*
X150454583Y-90907813D01*
X150614366Y-90589044D01*
X149280001Y-89254679D01*
X147945636Y-90589044D01*
X130934662Y-90589044D01*
X130937441Y-90575074D01*
X130937441Y-88691261D01*
X147137278Y-88691261D01*
X147153504Y-89540461D01*
X147447262Y-90249656D01*
X147766031Y-90409439D01*
X149100396Y-89075074D01*
X149459606Y-89075074D01*
X150793971Y-90409439D01*
X151112740Y-90249656D01*
X151422724Y-89458887D01*
X151406498Y-88609687D01*
X151112740Y-87900492D01*
X150793971Y-87740709D01*
X149459606Y-89075074D01*
X149100396Y-89075074D01*
X147766031Y-87740709D01*
X147447262Y-87900492D01*
X147137278Y-88691261D01*
X130937441Y-88691261D01*
X130937441Y-87575074D01*
X130934663Y-87561104D01*
X147945636Y-87561104D01*
X149280001Y-88895469D01*
X150614366Y-87561104D01*
X150454583Y-87242335D01*
X149663814Y-86932351D01*
X148814614Y-86948577D01*
X148105419Y-87242335D01*
X147945636Y-87561104D01*
X130934663Y-87561104D01*
X130888158Y-87327309D01*
X130747810Y-87117265D01*
X130537766Y-86976917D01*
X130290001Y-86927634D01*
X129030000Y-86927634D01*
X129030000Y-76315750D01*
X148775000Y-76315750D01*
X148775000Y-76756309D01*
X148871673Y-76989698D01*
X149050301Y-77168327D01*
X149283690Y-77265000D01*
X149574250Y-77265000D01*
X149733000Y-77106250D01*
X149733000Y-76157000D01*
X149987000Y-76157000D01*
X149987000Y-77106250D01*
X150145750Y-77265000D01*
X150436310Y-77265000D01*
X150669699Y-77168327D01*
X150848327Y-76989698D01*
X150945000Y-76756309D01*
X150945000Y-76315750D01*
X150786250Y-76157000D01*
X149987000Y-76157000D01*
X149733000Y-76157000D01*
X148933750Y-76157000D01*
X148775000Y-76315750D01*
X129030000Y-76315750D01*
X129030000Y-76010115D01*
X129223795Y-76010284D01*
X129824943Y-75761894D01*
X129890847Y-75696105D01*
X129982191Y-75832809D01*
X130192235Y-75973157D01*
X130440000Y-76022440D01*
X132440000Y-76022440D01*
X132687765Y-75973157D01*
X132897809Y-75832809D01*
X133038157Y-75622765D01*
X133087440Y-75375000D01*
X133087440Y-74590000D01*
X148794386Y-74590000D01*
X148811843Y-74677765D01*
X148952191Y-74887809D01*
X149013320Y-74928654D01*
X148871673Y-75070302D01*
X148775000Y-75303691D01*
X148775000Y-75744250D01*
X148933750Y-75903000D01*
X149733000Y-75903000D01*
X149733000Y-75883000D01*
X149987000Y-75883000D01*
X149987000Y-75903000D01*
X150786250Y-75903000D01*
X150945000Y-75744250D01*
X150945000Y-75303691D01*
X150848327Y-75070302D01*
X150706680Y-74928654D01*
X150767809Y-74887809D01*
X150908157Y-74677765D01*
X150957440Y-74430000D01*
X150957440Y-73230000D01*
X150908157Y-72982235D01*
X150767809Y-72772191D01*
X150557765Y-72631843D01*
X150310000Y-72582560D01*
X149410000Y-72582560D01*
X149162235Y-72631843D01*
X148952191Y-72772191D01*
X148811843Y-72982235D01*
X148794386Y-73070000D01*
X132999913Y-73070000D01*
X132897809Y-72917191D01*
X132687765Y-72776843D01*
X132440000Y-72727560D01*
X130440000Y-72727560D01*
X130192235Y-72776843D01*
X129982191Y-72917191D01*
X129891079Y-73053549D01*
X129827363Y-72989722D01*
X129226648Y-72740284D01*
X128576205Y-72739716D01*
X127975057Y-72988106D01*
X127514722Y-73447637D01*
X127265284Y-74048352D01*
X127264716Y-74698795D01*
X127510000Y-75292426D01*
X127510000Y-86927634D01*
X127290001Y-86927634D01*
X127042236Y-86976917D01*
X126832192Y-87117265D01*
X126691844Y-87327309D01*
X126642561Y-87575074D01*
X124587000Y-87575074D01*
X124587000Y-69977000D01*
X157353000Y-69977000D01*
X157353000Y-100455983D01*
M02*
