G04 #@! TF.FileFunction,Copper,L2,Bot,Signal*
%FSLAX46Y46*%
G04 Gerber Fmt 4.6, Leading zero omitted, Abs format (unit mm)*
G04 Created by KiCad (PCBNEW no-vcs-found-undefined) date Sun Oct 23 13:20:11 2016*
%MOMM*%
%LPD*%
G01*
G04 APERTURE LIST*
%ADD10C,0.100000*%
%ADD11C,0.300000*%
%ADD12C,3.000000*%
%ADD13R,3.000000X3.000000*%
%ADD14R,2.000000X2.000000*%
%ADD15C,2.000000*%
%ADD16C,4.064000*%
%ADD17C,0.250000*%
G04 APERTURE END LIST*
D10*
D11*
X142334285Y-102278571D02*
X143048571Y-102278571D01*
X143048571Y-100778571D01*
X141834285Y-101492857D02*
X141334285Y-101492857D01*
X141120000Y-102278571D02*
X141834285Y-102278571D01*
X141834285Y-100778571D01*
X141120000Y-100778571D01*
X140477142Y-102278571D02*
X140477142Y-100778571D01*
X140120000Y-100778571D01*
X139905714Y-100850000D01*
X139762857Y-100992857D01*
X139691428Y-101135714D01*
X139620000Y-101421428D01*
X139620000Y-101635714D01*
X139691428Y-101921428D01*
X139762857Y-102064285D01*
X139905714Y-102207142D01*
X140120000Y-102278571D01*
X140477142Y-102278571D01*
X137334285Y-101492857D02*
X137120000Y-101564285D01*
X137048571Y-101635714D01*
X136977142Y-101778571D01*
X136977142Y-101992857D01*
X137048571Y-102135714D01*
X137120000Y-102207142D01*
X137262857Y-102278571D01*
X137834285Y-102278571D01*
X137834285Y-100778571D01*
X137334285Y-100778571D01*
X137191428Y-100850000D01*
X137120000Y-100921428D01*
X137048571Y-101064285D01*
X137048571Y-101207142D01*
X137120000Y-101350000D01*
X137191428Y-101421428D01*
X137334285Y-101492857D01*
X137834285Y-101492857D01*
X136120000Y-102278571D02*
X136262857Y-102207142D01*
X136334285Y-102135714D01*
X136405714Y-101992857D01*
X136405714Y-101564285D01*
X136334285Y-101421428D01*
X136262857Y-101350000D01*
X136120000Y-101278571D01*
X135905714Y-101278571D01*
X135762857Y-101350000D01*
X135691428Y-101421428D01*
X135620000Y-101564285D01*
X135620000Y-101992857D01*
X135691428Y-102135714D01*
X135762857Y-102207142D01*
X135905714Y-102278571D01*
X136120000Y-102278571D01*
X134334285Y-102278571D02*
X134334285Y-101492857D01*
X134405714Y-101350000D01*
X134548571Y-101278571D01*
X134834285Y-101278571D01*
X134977142Y-101350000D01*
X134334285Y-102207142D02*
X134477142Y-102278571D01*
X134834285Y-102278571D01*
X134977142Y-102207142D01*
X135048571Y-102064285D01*
X135048571Y-101921428D01*
X134977142Y-101778571D01*
X134834285Y-101707142D01*
X134477142Y-101707142D01*
X134334285Y-101635714D01*
X133620000Y-102278571D02*
X133620000Y-101278571D01*
X133620000Y-101564285D02*
X133548571Y-101421428D01*
X133477142Y-101350000D01*
X133334285Y-101278571D01*
X133191428Y-101278571D01*
X132048571Y-102278571D02*
X132048571Y-100778571D01*
X132048571Y-102207142D02*
X132191428Y-102278571D01*
X132477142Y-102278571D01*
X132620000Y-102207142D01*
X132691428Y-102135714D01*
X132762857Y-101992857D01*
X132762857Y-101564285D01*
X132691428Y-101421428D01*
X132620000Y-101350000D01*
X132477142Y-101278571D01*
X132191428Y-101278571D01*
X132048571Y-101350000D01*
X130334285Y-101278571D02*
X129977142Y-102278571D01*
X129620000Y-101278571D01*
X128762857Y-100778571D02*
X128620000Y-100778571D01*
X128477142Y-100850000D01*
X128405714Y-100921428D01*
X128334285Y-101064285D01*
X128262857Y-101350000D01*
X128262857Y-101707142D01*
X128334285Y-101992857D01*
X128405714Y-102135714D01*
X128477142Y-102207142D01*
X128620000Y-102278571D01*
X128762857Y-102278571D01*
X128905714Y-102207142D01*
X128977142Y-102135714D01*
X129048571Y-101992857D01*
X129120000Y-101707142D01*
X129120000Y-101350000D01*
X129048571Y-101064285D01*
X128977142Y-100921428D01*
X128905714Y-100850000D01*
X128762857Y-100778571D01*
X127620000Y-102135714D02*
X127548571Y-102207142D01*
X127620000Y-102278571D01*
X127691428Y-102207142D01*
X127620000Y-102135714D01*
X127620000Y-102278571D01*
X126120000Y-102278571D02*
X126977142Y-102278571D01*
X126548571Y-102278571D02*
X126548571Y-100778571D01*
X126691428Y-100992857D01*
X126834285Y-101135714D01*
X126977142Y-101207142D01*
D12*
X149280001Y-89075074D03*
D13*
X128790001Y-89075074D03*
D14*
X131440000Y-74375000D03*
D15*
X128900000Y-74375000D03*
D16*
X154940000Y-101600000D03*
D17*
X131440000Y-74375000D02*
X130810000Y-74930000D01*
X131440000Y-74375000D02*
X130810000Y-74930000D01*
M02*
