G04 #@! TF.GenerationSoftware,KiCad,Pcbnew,no-vcs-found-7545~57~ubuntu16.04.1*
G04 #@! TF.CreationDate,2017-01-29T23:55:35+05:30*
G04 #@! TF.ProjectId,attiny13a,617474696E793133612E6B696361645F,0.1*
G04 #@! TF.FileFunction,Legend,Top*
G04 #@! TF.FilePolarity,Positive*
%FSLAX46Y46*%
G04 Gerber Fmt 4.6, Leading zero omitted, Abs format (unit mm)*
G04 Created by KiCad (PCBNEW no-vcs-found-7545~57~ubuntu16.04.1) date Sun Jan 29 23:55:35 2017*
%MOMM*%
%LPD*%
G01*
G04 APERTURE LIST*
%ADD10C,0.100000*%
%ADD11C,0.200000*%
%ADD12C,0.150000*%
%ADD13C,0.120000*%
G04 APERTURE END LIST*
D10*
D11*
X145454714Y-104425571D02*
X146121380Y-104187476D01*
X145454714Y-103949380D01*
X145121380Y-103377952D02*
X145121380Y-103282714D01*
X145169000Y-103187476D01*
X145216619Y-103139857D01*
X145311857Y-103092238D01*
X145502333Y-103044619D01*
X145740428Y-103044619D01*
X145930904Y-103092238D01*
X146026142Y-103139857D01*
X146073761Y-103187476D01*
X146121380Y-103282714D01*
X146121380Y-103377952D01*
X146073761Y-103473190D01*
X146026142Y-103520809D01*
X145930904Y-103568428D01*
X145740428Y-103616047D01*
X145502333Y-103616047D01*
X145311857Y-103568428D01*
X145216619Y-103520809D01*
X145169000Y-103473190D01*
X145121380Y-103377952D01*
X146026142Y-102616047D02*
X146073761Y-102568428D01*
X146121380Y-102616047D01*
X146073761Y-102663666D01*
X146026142Y-102616047D01*
X146121380Y-102616047D01*
X146121380Y-101616047D02*
X146121380Y-102187476D01*
X146121380Y-101901761D02*
X145121380Y-101901761D01*
X145264238Y-101997000D01*
X145359476Y-102092238D01*
X145407095Y-102187476D01*
X122960904Y-84812214D02*
X123341857Y-84812214D01*
X123103761Y-84478880D02*
X123103761Y-85336023D01*
X123151380Y-85431261D01*
X123246619Y-85478880D01*
X123341857Y-85478880D01*
X124198999Y-85478880D02*
X123627571Y-85478880D01*
X123913285Y-85478880D02*
X123913285Y-84478880D01*
X123818047Y-84621738D01*
X123722809Y-84716976D01*
X123627571Y-84764595D01*
X124532333Y-84478880D02*
X125151380Y-84478880D01*
X124818047Y-84859833D01*
X124960904Y-84859833D01*
X125056142Y-84907452D01*
X125103761Y-84955071D01*
X125151380Y-85050309D01*
X125151380Y-85288404D01*
X125103761Y-85383642D01*
X125056142Y-85431261D01*
X124960904Y-85478880D01*
X124675190Y-85478880D01*
X124579952Y-85431261D01*
X124532333Y-85383642D01*
X126294238Y-84431261D02*
X125437095Y-85716976D01*
X126770428Y-84907452D02*
X126675190Y-84859833D01*
X126627571Y-84812214D01*
X126579952Y-84716976D01*
X126579952Y-84669357D01*
X126627571Y-84574119D01*
X126675190Y-84526500D01*
X126770428Y-84478880D01*
X126960904Y-84478880D01*
X127056142Y-84526500D01*
X127103761Y-84574119D01*
X127151380Y-84669357D01*
X127151380Y-84716976D01*
X127103761Y-84812214D01*
X127056142Y-84859833D01*
X126960904Y-84907452D01*
X126770428Y-84907452D01*
X126675190Y-84955071D01*
X126627571Y-85002690D01*
X126579952Y-85097928D01*
X126579952Y-85288404D01*
X126627571Y-85383642D01*
X126675190Y-85431261D01*
X126770428Y-85478880D01*
X126960904Y-85478880D01*
X127056142Y-85431261D01*
X127103761Y-85383642D01*
X127151380Y-85288404D01*
X127151380Y-85097928D01*
X127103761Y-85002690D01*
X127056142Y-84955071D01*
X126960904Y-84907452D01*
X128056142Y-84478880D02*
X127579952Y-84478880D01*
X127532333Y-84955071D01*
X127579952Y-84907452D01*
X127675190Y-84859833D01*
X127913285Y-84859833D01*
X128008523Y-84907452D01*
X128056142Y-84955071D01*
X128103761Y-85050309D01*
X128103761Y-85288404D01*
X128056142Y-85383642D01*
X128008523Y-85431261D01*
X127913285Y-85478880D01*
X127675190Y-85478880D01*
X127579952Y-85431261D01*
X127532333Y-85383642D01*
X129294238Y-85478880D02*
X129294238Y-84478880D01*
X129294238Y-84859833D02*
X129389476Y-84812214D01*
X129579952Y-84812214D01*
X129675190Y-84859833D01*
X129722809Y-84907452D01*
X129770428Y-85002690D01*
X129770428Y-85288404D01*
X129722809Y-85383642D01*
X129675190Y-85431261D01*
X129579952Y-85478880D01*
X129389476Y-85478880D01*
X129294238Y-85431261D01*
X130198999Y-85478880D02*
X130198999Y-84812214D01*
X130198999Y-85002690D02*
X130246619Y-84907452D01*
X130294238Y-84859833D01*
X130389476Y-84812214D01*
X130484714Y-84812214D01*
X131198999Y-85431261D02*
X131103761Y-85478880D01*
X130913285Y-85478880D01*
X130818047Y-85431261D01*
X130770428Y-85336023D01*
X130770428Y-84955071D01*
X130818047Y-84859833D01*
X130913285Y-84812214D01*
X131103761Y-84812214D01*
X131198999Y-84859833D01*
X131246619Y-84955071D01*
X131246619Y-85050309D01*
X130770428Y-85145547D01*
X132103761Y-85478880D02*
X132103761Y-84955071D01*
X132056142Y-84859833D01*
X131960904Y-84812214D01*
X131770428Y-84812214D01*
X131675190Y-84859833D01*
X132103761Y-85431261D02*
X132008523Y-85478880D01*
X131770428Y-85478880D01*
X131675190Y-85431261D01*
X131627571Y-85336023D01*
X131627571Y-85240785D01*
X131675190Y-85145547D01*
X131770428Y-85097928D01*
X132008523Y-85097928D01*
X132103761Y-85050309D01*
X132579952Y-85478880D02*
X132579952Y-84478880D01*
X132675190Y-85097928D02*
X132960904Y-85478880D01*
X132960904Y-84812214D02*
X132579952Y-85193166D01*
X133532333Y-85478880D02*
X133437095Y-85431261D01*
X133389476Y-85383642D01*
X133341857Y-85288404D01*
X133341857Y-85002690D01*
X133389476Y-84907452D01*
X133437095Y-84859833D01*
X133532333Y-84812214D01*
X133675190Y-84812214D01*
X133770428Y-84859833D01*
X133818047Y-84907452D01*
X133865666Y-85002690D01*
X133865666Y-85288404D01*
X133818047Y-85383642D01*
X133770428Y-85431261D01*
X133675190Y-85478880D01*
X133532333Y-85478880D01*
X134722809Y-84812214D02*
X134722809Y-85478880D01*
X134294238Y-84812214D02*
X134294238Y-85336023D01*
X134341857Y-85431261D01*
X134437095Y-85478880D01*
X134579952Y-85478880D01*
X134675190Y-85431261D01*
X134722809Y-85383642D01*
X135056142Y-84812214D02*
X135437095Y-84812214D01*
X135199000Y-84478880D02*
X135199000Y-85336023D01*
X135246619Y-85431261D01*
X135341857Y-85478880D01*
X135437095Y-85478880D01*
X136532333Y-85478880D02*
X136532333Y-84478880D01*
X136532333Y-84859833D02*
X136627571Y-84812214D01*
X136818047Y-84812214D01*
X136913285Y-84859833D01*
X136960904Y-84907452D01*
X137008523Y-85002690D01*
X137008523Y-85288404D01*
X136960904Y-85383642D01*
X136913285Y-85431261D01*
X136818047Y-85478880D01*
X136627571Y-85478880D01*
X136532333Y-85431261D01*
X137579952Y-85478880D02*
X137484714Y-85431261D01*
X137437095Y-85383642D01*
X137389476Y-85288404D01*
X137389476Y-85002690D01*
X137437095Y-84907452D01*
X137484714Y-84859833D01*
X137579952Y-84812214D01*
X137722809Y-84812214D01*
X137818047Y-84859833D01*
X137865666Y-84907452D01*
X137913285Y-85002690D01*
X137913285Y-85288404D01*
X137865666Y-85383642D01*
X137818047Y-85431261D01*
X137722809Y-85478880D01*
X137579952Y-85478880D01*
X138770428Y-85478880D02*
X138770428Y-84955071D01*
X138722809Y-84859833D01*
X138627571Y-84812214D01*
X138437095Y-84812214D01*
X138341857Y-84859833D01*
X138770428Y-85431261D02*
X138675190Y-85478880D01*
X138437095Y-85478880D01*
X138341857Y-85431261D01*
X138294238Y-85336023D01*
X138294238Y-85240785D01*
X138341857Y-85145547D01*
X138437095Y-85097928D01*
X138675190Y-85097928D01*
X138770428Y-85050309D01*
X139246619Y-85478880D02*
X139246619Y-84812214D01*
X139246619Y-85002690D02*
X139294238Y-84907452D01*
X139341857Y-84859833D01*
X139437095Y-84812214D01*
X139532333Y-84812214D01*
X140294238Y-85478880D02*
X140294238Y-84478880D01*
X140294238Y-85431261D02*
X140199000Y-85478880D01*
X140008523Y-85478880D01*
X139913285Y-85431261D01*
X139865666Y-85383642D01*
X139818047Y-85288404D01*
X139818047Y-85002690D01*
X139865666Y-84907452D01*
X139913285Y-84859833D01*
X140008523Y-84812214D01*
X140199000Y-84812214D01*
X140294238Y-84859833D01*
X141470142Y-85606000D02*
X141374904Y-85558380D01*
X141232047Y-85558380D01*
X141089190Y-85606000D01*
X140993952Y-85701238D01*
X140946333Y-85796476D01*
X140898714Y-85986952D01*
X140898714Y-86129809D01*
X140946333Y-86320285D01*
X140993952Y-86415523D01*
X141089190Y-86510761D01*
X141232047Y-86558380D01*
X141327285Y-86558380D01*
X141470142Y-86510761D01*
X141517761Y-86463142D01*
X141517761Y-86129809D01*
X141327285Y-86129809D01*
X141946333Y-85891714D02*
X141946333Y-86558380D01*
X141946333Y-85986952D02*
X141993952Y-85939333D01*
X142089190Y-85891714D01*
X142232047Y-85891714D01*
X142327285Y-85939333D01*
X142374904Y-86034571D01*
X142374904Y-86558380D01*
X143279666Y-86558380D02*
X143279666Y-85558380D01*
X143279666Y-86510761D02*
X143184428Y-86558380D01*
X142993952Y-86558380D01*
X142898714Y-86510761D01*
X142851095Y-86463142D01*
X142803476Y-86367904D01*
X142803476Y-86082190D01*
X142851095Y-85986952D01*
X142898714Y-85939333D01*
X142993952Y-85891714D01*
X143184428Y-85891714D01*
X143279666Y-85939333D01*
X141303523Y-88352380D02*
X141636857Y-89352380D01*
X141970190Y-88352380D01*
X142732095Y-89304761D02*
X142636857Y-89352380D01*
X142446380Y-89352380D01*
X142351142Y-89304761D01*
X142303523Y-89257142D01*
X142255904Y-89161904D01*
X142255904Y-88876190D01*
X142303523Y-88780952D01*
X142351142Y-88733333D01*
X142446380Y-88685714D01*
X142636857Y-88685714D01*
X142732095Y-88733333D01*
X143589238Y-89304761D02*
X143494000Y-89352380D01*
X143303523Y-89352380D01*
X143208285Y-89304761D01*
X143160666Y-89257142D01*
X143113047Y-89161904D01*
X143113047Y-88876190D01*
X143160666Y-88780952D01*
X143208285Y-88733333D01*
X143303523Y-88685714D01*
X143494000Y-88685714D01*
X143589238Y-88733333D01*
X142240047Y-91638380D02*
X141906714Y-91162190D01*
X141668619Y-91638380D02*
X141668619Y-90638380D01*
X142049571Y-90638380D01*
X142144809Y-90686000D01*
X142192428Y-90733619D01*
X142240047Y-90828857D01*
X142240047Y-90971714D01*
X142192428Y-91066952D01*
X142144809Y-91114571D01*
X142049571Y-91162190D01*
X141668619Y-91162190D01*
X142621000Y-91590761D02*
X142716238Y-91638380D01*
X142906714Y-91638380D01*
X143001952Y-91590761D01*
X143049571Y-91495523D01*
X143049571Y-91447904D01*
X143001952Y-91352666D01*
X142906714Y-91305047D01*
X142763857Y-91305047D01*
X142668619Y-91257428D01*
X142621000Y-91162190D01*
X142621000Y-91114571D01*
X142668619Y-91019333D01*
X142763857Y-90971714D01*
X142906714Y-90971714D01*
X143001952Y-91019333D01*
X143335285Y-90971714D02*
X143716238Y-90971714D01*
X143478142Y-90638380D02*
X143478142Y-91495523D01*
X143525761Y-91590761D01*
X143621000Y-91638380D01*
X143716238Y-91638380D01*
X141374952Y-94130761D02*
X141517809Y-94178380D01*
X141755904Y-94178380D01*
X141851142Y-94130761D01*
X141898761Y-94083142D01*
X141946380Y-93987904D01*
X141946380Y-93892666D01*
X141898761Y-93797428D01*
X141851142Y-93749809D01*
X141755904Y-93702190D01*
X141565428Y-93654571D01*
X141470190Y-93606952D01*
X141422571Y-93559333D01*
X141374952Y-93464095D01*
X141374952Y-93368857D01*
X141422571Y-93273619D01*
X141470190Y-93226000D01*
X141565428Y-93178380D01*
X141803523Y-93178380D01*
X141946380Y-93226000D01*
X142803523Y-94130761D02*
X142708285Y-94178380D01*
X142517809Y-94178380D01*
X142422571Y-94130761D01*
X142374952Y-94083142D01*
X142327333Y-93987904D01*
X142327333Y-93702190D01*
X142374952Y-93606952D01*
X142422571Y-93559333D01*
X142517809Y-93511714D01*
X142708285Y-93511714D01*
X142803523Y-93559333D01*
X143232095Y-94178380D02*
X143232095Y-93178380D01*
X143327333Y-93797428D02*
X143613047Y-94178380D01*
X143613047Y-93511714D02*
X143232095Y-93892666D01*
X140811428Y-96718380D02*
X140811428Y-95718380D01*
X141144761Y-96432666D01*
X141478095Y-95718380D01*
X141478095Y-96718380D01*
X141954285Y-96718380D02*
X141954285Y-96051714D01*
X141954285Y-95718380D02*
X141906666Y-95766000D01*
X141954285Y-95813619D01*
X142001904Y-95766000D01*
X141954285Y-95718380D01*
X141954285Y-95813619D01*
X142382857Y-96670761D02*
X142478095Y-96718380D01*
X142668571Y-96718380D01*
X142763809Y-96670761D01*
X142811428Y-96575523D01*
X142811428Y-96527904D01*
X142763809Y-96432666D01*
X142668571Y-96385047D01*
X142525714Y-96385047D01*
X142430476Y-96337428D01*
X142382857Y-96242190D01*
X142382857Y-96194571D01*
X142430476Y-96099333D01*
X142525714Y-96051714D01*
X142668571Y-96051714D01*
X142763809Y-96099333D01*
X143382857Y-96718380D02*
X143287619Y-96670761D01*
X143240000Y-96623142D01*
X143192380Y-96527904D01*
X143192380Y-96242190D01*
X143240000Y-96146952D01*
X143287619Y-96099333D01*
X143382857Y-96051714D01*
X143525714Y-96051714D01*
X143620952Y-96099333D01*
X143668571Y-96146952D01*
X143716190Y-96242190D01*
X143716190Y-96527904D01*
X143668571Y-96623142D01*
X143620952Y-96670761D01*
X143525714Y-96718380D01*
X143382857Y-96718380D01*
X140303428Y-99258380D02*
X140303428Y-98258380D01*
X140636761Y-98972666D01*
X140970095Y-98258380D01*
X140970095Y-99258380D01*
X141589142Y-99258380D02*
X141493904Y-99210761D01*
X141446285Y-99163142D01*
X141398666Y-99067904D01*
X141398666Y-98782190D01*
X141446285Y-98686952D01*
X141493904Y-98639333D01*
X141589142Y-98591714D01*
X141732000Y-98591714D01*
X141827238Y-98639333D01*
X141874857Y-98686952D01*
X141922476Y-98782190D01*
X141922476Y-99067904D01*
X141874857Y-99163142D01*
X141827238Y-99210761D01*
X141732000Y-99258380D01*
X141589142Y-99258380D01*
X142303428Y-99210761D02*
X142398666Y-99258380D01*
X142589142Y-99258380D01*
X142684380Y-99210761D01*
X142732000Y-99115523D01*
X142732000Y-99067904D01*
X142684380Y-98972666D01*
X142589142Y-98925047D01*
X142446285Y-98925047D01*
X142351047Y-98877428D01*
X142303428Y-98782190D01*
X142303428Y-98734571D01*
X142351047Y-98639333D01*
X142446285Y-98591714D01*
X142589142Y-98591714D01*
X142684380Y-98639333D01*
X143160571Y-99258380D02*
X143160571Y-98591714D01*
X143160571Y-98258380D02*
X143112952Y-98306000D01*
X143160571Y-98353619D01*
X143208190Y-98306000D01*
X143160571Y-98258380D01*
X143160571Y-98353619D01*
X141771809Y-85288380D02*
X141771809Y-84288380D01*
X142200380Y-85240761D02*
X142343238Y-85288380D01*
X142581333Y-85288380D01*
X142676571Y-85240761D01*
X142724190Y-85193142D01*
X142771809Y-85097904D01*
X142771809Y-85002666D01*
X142724190Y-84907428D01*
X142676571Y-84859809D01*
X142581333Y-84812190D01*
X142390857Y-84764571D01*
X142295619Y-84716952D01*
X142248000Y-84669333D01*
X142200380Y-84574095D01*
X142200380Y-84478857D01*
X142248000Y-84383619D01*
X142295619Y-84336000D01*
X142390857Y-84288380D01*
X142628952Y-84288380D01*
X142771809Y-84336000D01*
X143200380Y-85288380D02*
X143200380Y-84288380D01*
X143581333Y-84288380D01*
X143676571Y-84336000D01*
X143724190Y-84383619D01*
X143771809Y-84478857D01*
X143771809Y-84621714D01*
X143724190Y-84716952D01*
X143676571Y-84764571D01*
X143581333Y-84812190D01*
X143200380Y-84812190D01*
X135382000Y-88900000D02*
X135382000Y-89408000D01*
X126746000Y-88900000D02*
X135382000Y-88900000D01*
X126746000Y-89408000D02*
X126746000Y-88900000D01*
X135382000Y-95504000D02*
X135382000Y-95377000D01*
X126746000Y-95504000D02*
X135382000Y-95504000D01*
X126746000Y-89281000D02*
X126746000Y-89408000D01*
X135382000Y-95504000D02*
X135382000Y-89281000D01*
X126746000Y-89408000D02*
X126746000Y-95504000D01*
D12*
X127873000Y-103036000D02*
X132373000Y-103036000D01*
X126623000Y-99036000D02*
X126623000Y-100536000D01*
X132373000Y-96536000D02*
X127873000Y-96536000D01*
X133623000Y-100536000D02*
X133623000Y-99036000D01*
X129023143Y-89718500D02*
X127623143Y-89718500D01*
X129023143Y-94818500D02*
X133173143Y-94818500D01*
X129023143Y-89668500D02*
X133173143Y-89668500D01*
X129023143Y-94818500D02*
X129023143Y-94673500D01*
X133173143Y-94818500D02*
X133173143Y-94673500D01*
X133173143Y-89668500D02*
X133173143Y-89813500D01*
X129023143Y-89668500D02*
X129023143Y-89718500D01*
D13*
X131691000Y-87034000D02*
X130691000Y-87034000D01*
X130691000Y-88734000D02*
X131691000Y-88734000D01*
D12*
X140361000Y-87604000D02*
X137261000Y-87604000D01*
X140361000Y-89154000D02*
X140361000Y-87604000D01*
X137541000Y-90424000D02*
X140081000Y-90424000D01*
X140081000Y-98044000D02*
X137541000Y-98044000D01*
X137261000Y-87604000D02*
X137261000Y-89154000D01*
X137541000Y-90424000D02*
X137541000Y-98044000D01*
X140081000Y-90424000D02*
X140081000Y-98044000D01*
X124206000Y-90424000D02*
X124206000Y-98044000D01*
X121666000Y-90424000D02*
X121666000Y-98044000D01*
X121386000Y-87604000D02*
X121386000Y-89154000D01*
X124206000Y-98044000D02*
X121666000Y-98044000D01*
X121666000Y-90424000D02*
X124206000Y-90424000D01*
X124486000Y-89154000D02*
X124486000Y-87604000D01*
X124486000Y-87604000D02*
X121386000Y-87604000D01*
X143738000Y-100483000D02*
X146838000Y-100483000D01*
X143738000Y-98933000D02*
X143738000Y-100483000D01*
X146558000Y-97663000D02*
X144018000Y-97663000D01*
X146838000Y-100483000D02*
X146838000Y-98933000D01*
X144018000Y-84963000D02*
X144018000Y-97663000D01*
X146558000Y-84963000D02*
X144018000Y-84963000D01*
X146558000Y-97663000D02*
X146558000Y-84963000D01*
X122061000Y-102073000D02*
X122061000Y-100873000D01*
X123811000Y-100873000D02*
X123811000Y-102073000D01*
D13*
X135421000Y-99068000D02*
X135421000Y-100068000D01*
X137121000Y-100068000D02*
X137121000Y-99068000D01*
D12*
X128841666Y-100417261D02*
X128984523Y-100464880D01*
X129222619Y-100464880D01*
X129317857Y-100417261D01*
X129365476Y-100369642D01*
X129413095Y-100274404D01*
X129413095Y-100179166D01*
X129365476Y-100083928D01*
X129317857Y-100036309D01*
X129222619Y-99988690D01*
X129032142Y-99941071D01*
X128936904Y-99893452D01*
X128889285Y-99845833D01*
X128841666Y-99750595D01*
X128841666Y-99655357D01*
X128889285Y-99560119D01*
X128936904Y-99512500D01*
X129032142Y-99464880D01*
X129270238Y-99464880D01*
X129413095Y-99512500D01*
X129746428Y-99464880D02*
X129984523Y-100464880D01*
X130175000Y-99750595D01*
X130365476Y-100464880D01*
X130603571Y-99464880D01*
X131508333Y-100464880D02*
X130936904Y-100464880D01*
X131222619Y-100464880D02*
X131222619Y-99464880D01*
X131127380Y-99607738D01*
X131032142Y-99702976D01*
X130936904Y-99750595D01*
D10*
X127337333Y-95180875D02*
X127337333Y-94942779D01*
X127480190Y-95246351D02*
X126980190Y-95017184D01*
X127480190Y-94913017D01*
X126980190Y-94755279D02*
X126980190Y-94469565D01*
X127480190Y-94674922D02*
X126980190Y-94612422D01*
X126980190Y-94374327D02*
X126980190Y-94088613D01*
X127480190Y-94293970D02*
X126980190Y-94231470D01*
X127480190Y-93984446D02*
X126980190Y-93921946D01*
X127480190Y-93746351D02*
X126980190Y-93683851D01*
X127480190Y-93460636D01*
X126980190Y-93398136D01*
X127242095Y-93097541D02*
X127480190Y-93127303D01*
X126980190Y-93231470D02*
X127242095Y-93097541D01*
X126980190Y-92898136D01*
X127480190Y-92532065D02*
X127480190Y-92817779D01*
X127480190Y-92674922D02*
X126980190Y-92612422D01*
X127051619Y-92668970D01*
X127099238Y-92722541D01*
X127123047Y-92773136D01*
X126980190Y-92302898D02*
X126980190Y-91993375D01*
X127170666Y-92183851D01*
X127170666Y-92112422D01*
X127194476Y-92067779D01*
X127218285Y-92046946D01*
X127265904Y-92029089D01*
X127384952Y-92043970D01*
X127432571Y-92073732D01*
X127456380Y-92100517D01*
X127480190Y-92151113D01*
X127480190Y-92293970D01*
X127456380Y-92338613D01*
X127432571Y-92359446D01*
X127337333Y-91847541D02*
X127337333Y-91609446D01*
X127480190Y-91913017D02*
X126980190Y-91683851D01*
X127480190Y-91579684D01*
X127289714Y-91389208D02*
X127289714Y-91008255D01*
X127456380Y-90814803D02*
X127480190Y-90746351D01*
X127480190Y-90627303D01*
X127456380Y-90576708D01*
X127432571Y-90549922D01*
X127384952Y-90520160D01*
X127337333Y-90514208D01*
X127289714Y-90532065D01*
X127265904Y-90552898D01*
X127242095Y-90597541D01*
X127218285Y-90689803D01*
X127194476Y-90734446D01*
X127170666Y-90755279D01*
X127123047Y-90773136D01*
X127075428Y-90767184D01*
X127027809Y-90737422D01*
X127004000Y-90710636D01*
X126980190Y-90660041D01*
X126980190Y-90540994D01*
X127004000Y-90472541D01*
X127456380Y-90338613D02*
X127480190Y-90270160D01*
X127480190Y-90151113D01*
X127456380Y-90100517D01*
X127432571Y-90073732D01*
X127384952Y-90043970D01*
X127337333Y-90038017D01*
X127289714Y-90055875D01*
X127265904Y-90076708D01*
X127242095Y-90121351D01*
X127218285Y-90213613D01*
X127194476Y-90258255D01*
X127170666Y-90279089D01*
X127123047Y-90296946D01*
X127075428Y-90290994D01*
X127027809Y-90261232D01*
X127004000Y-90234446D01*
X126980190Y-90183851D01*
X126980190Y-90064803D01*
X127004000Y-89996351D01*
X126980190Y-89779089D02*
X127384952Y-89829684D01*
X127432571Y-89811827D01*
X127456380Y-89790994D01*
X127480190Y-89746351D01*
X127480190Y-89651113D01*
X127456380Y-89600517D01*
X127432571Y-89573732D01*
X127384952Y-89543970D01*
X126980190Y-89493375D01*
X121511190Y-101770619D02*
X121511190Y-102056333D01*
X121511190Y-101913476D02*
X121011190Y-101913476D01*
X121082619Y-101961095D01*
X121130238Y-102008714D01*
X121154047Y-102056333D01*
X121011190Y-101461095D02*
X121011190Y-101413476D01*
X121035000Y-101365857D01*
X121058809Y-101342047D01*
X121106428Y-101318238D01*
X121201666Y-101294428D01*
X121320714Y-101294428D01*
X121415952Y-101318238D01*
X121463571Y-101342047D01*
X121487380Y-101365857D01*
X121511190Y-101413476D01*
X121511190Y-101461095D01*
X121487380Y-101508714D01*
X121463571Y-101532523D01*
X121415952Y-101556333D01*
X121320714Y-101580142D01*
X121201666Y-101580142D01*
X121106428Y-101556333D01*
X121058809Y-101532523D01*
X121035000Y-101508714D01*
X121011190Y-101461095D01*
X121511190Y-101080142D02*
X121011190Y-101080142D01*
X121320714Y-101032523D02*
X121511190Y-100889666D01*
X121177857Y-100889666D02*
X121368333Y-101080142D01*
D12*
X138728142Y-99734666D02*
X138775761Y-99782285D01*
X138823380Y-99925142D01*
X138823380Y-100020380D01*
X138775761Y-100163238D01*
X138680523Y-100258476D01*
X138585285Y-100306095D01*
X138394809Y-100353714D01*
X138251952Y-100353714D01*
X138061476Y-100306095D01*
X137966238Y-100258476D01*
X137871000Y-100163238D01*
X137823380Y-100020380D01*
X137823380Y-99925142D01*
X137871000Y-99782285D01*
X137918619Y-99734666D01*
X137918619Y-99353714D02*
X137871000Y-99306095D01*
X137823380Y-99210857D01*
X137823380Y-98972761D01*
X137871000Y-98877523D01*
X137918619Y-98829904D01*
X138013857Y-98782285D01*
X138109095Y-98782285D01*
X138251952Y-98829904D01*
X138823380Y-99401333D01*
X138823380Y-98782285D01*
M02*
