<?xml version="1.0" standalone="no"?>
<!DOCTYPE svg PUBLIC "-//W3C//DTD SVG 1.1//EN"
"http://www.w3.org/Graphics/SVG/1.1/DTD/svg11.dtd">
<svg width="160.819" height="140.031" viewBox="0 0 3350.39 2917.32" version="1.1"
xmlns="http://www.w3.org/2000/svg"
xmlns:xlink="http://www.w3.org/1999/xlink">
<g fill-rule="evenodd"><path d="M 159.487,2748.07 L 159.487,169.25 L 161.037,163.972 L 165.195,160.37 L 169.251,159.486 L 3181.14,159.486 L 3186.42,161.036 L 3190.02,165.194 L 3190.91,169.25 L 3190.91,2748.07 L 3189.36,2753.35 L 3185.2,2756.95 L 3181.14,2757.83 L 169.251,2757.83 L 163.973,2756.28 L 160.369,2752.13 L 159.487,2748.07M 375.983,2433.55 L 378.677,2454.01 L 384.021,2473.96 L 391.921,2493.03 L 402.241,2510.91 L 409.061,2519.79 L 477.234,2451.62 L 474.15,2444.44 L 472.116,2437.52 L 470.885,2430.42 L 470.472,2423.23 L 470.885,2416.03 L 472.116,2408.93 L 474.15,2402.02 L 477.234,2394.84 L 409.061,2326.66 L 402.243,2335.55 L 391.921,2353.43 L 384.021,2372.5 L 378.677,2392.44 L 375.983,2412.9 L 375.983,2433.55M 387.795,2029.34 L 388.625,2041.1 L 393.025,2060.64 L 400.501,2079.21 L 410.859,2096.35 L 423.833,2111.6 L 439.083,2124.57 L 456.219,2134.93 L 474.795,2142.41 L 494.329,2146.81 L 506.095,2147.64 L 541.337,2147.64 L 541.337,2053.15 L 508.405,2052.95 L 502.154,2051.53 L 499.181,2050.31 L 495.679,2048.35 L 491.875,2045.4 L 488.601,2041.87 L 486.34,2038.56 L 484.252,2034.22 L 483.069,2030.39 L 482.417,2026.43 L 482.283,2013.78 L 387.795,2013.78 L 387.795,2029.34M 387.795,1974.41 L 482.283,1974.41 L 482.308,1963.36 L 482.896,1958.59 L 484.869,1952.48 L 488.113,1946.95 L 490.72,1943.9 L 493.089,1941.73 L 498.459,1938.23 L 502.154,1936.66 L 505.241,1935.78 L 511.811,1935.04 L 610.236,1935.04 L 615.627,1935.54 L 621.767,1937.38 L 627.364,1940.51 L 632.153,1944.78 L 635.501,1949.28 L 637.937,1954.34 L 639.371,1959.77 L 639.753,1963.76 L 639.764,1974.41 L 734.251,1974.41 L 734.251,1958.85 L 733.421,1947.08 L 729.021,1927.55 L 721.545,1908.97 L 714.627,1897.53 L 713.221,1892.21 L 714.915,1886.98 L 719.171,1883.49 L 722.981,1882.72 L 929.173,1882.72 L 934.451,1884.27 L 938.053,1888.42 L 938.935,1892.48 L 938.935,1927.8 L 939.771,1937.2 L 944.179,1952.6 L 951.597,1966.8 L 961.723,1979.22 L 974.141,1989.34 L 988.341,1996.76 L 1003.75,2001.17 L 1013.15,2002.01 L 1101.03,2002.01 L 1110.43,2001.17 L 1125.83,1996.76 L 1130.26,1994.45 L 1135.66,1993.38 L 1140.78,1995.39 L 1162.21,2016.72 L 1164.84,2021.55 L 1164.45,2027.03 L 1162.21,2030.52 L 842.089,2350.64 L 837.935,2353.11 L 835.185,2353.5 L 832.619,2353.5 L 827.339,2351.95 L 824.719,2349.48 L 821.635,2345.23 L 808.309,2331.91 L 793.063,2320.83 L 776.273,2312.27 L 758.349,2306.45 L 739.737,2303.5 L 720.891,2303.5 L 702.279,2306.45 L 684.355,2312.27 L 667.565,2320.83 L 652.319,2331.91 L 589.694,2394.84 L 592.779,2402.02 L 594.813,2408.93 L 596.044,2416.03 L 596.457,2423.23 L 596.044,2430.42 L 594.813,2437.52 L 592.779,2444.44 L 589.695,2451.62 L 652.319,2514.55 L 667.565,2525.62 L 684.355,2534.18 L 702.279,2540 L 720.891,2542.95 L 739.737,2542.95 L 758.349,2540 L 776.273,2534.18 L 793.063,2525.62 L 808.309,2514.55 L 821.635,2501.22 L 824.719,2496.98 L 829.075,2493.62 L 832.619,2492.95 L 874.977,2492.95 L 888.447,2490.27 L 901.137,2485.02 L 912.555,2477.39 L 1008.84,2381.1 L 1013.67,2378.46 L 1019.16,2378.85 L 1022.65,2381.1 L 1256.73,2615.18 L 1268.15,2622.81 L 1280.84,2628.07 L 1294.31,2630.75 L 1456.52,2630.75 L 1461.8,2632.3 L 1465.07,2635.25 L 1476.82,2642.5 L 1489.94,2646.85 L 1498.03,2647.68 L 1576.77,2647.68 L 1584.87,2646.85 L 1597.98,2642.5 L 1609.74,2635.25 L 1611.38,2633.61 L 1616.21,2630.97 L 1618.29,2630.75 L 1869.9,2630.75 L 1875.18,2632.3 L 1878.45,2635.25 L 1890.21,2642.5 L 1903.32,2646.85 L 1911.42,2647.68 L 1990.16,2647.68 L 1998.25,2646.85 L 2011.36,2642.5 L 2023.12,2635.25 L 2032.89,2625.48 L 2040.14,2613.73 L 2044.49,2600.61 L 2045.31,2592.52 L 2045.31,2529.53 L 2044.49,2521.43 L 2040.14,2508.32 L 2033.87,2498.15 L 2032.42,2492.85 L 2034.07,2487.6 L 2037.06,2484.72 L 2048.32,2477.77 L 2058.09,2468 L 2065.34,2456.25 L 2069.68,2443.13 L 2070.51,2435.04 L 2070.51,2372.05 L 2069.68,2363.95 L 2065.34,2350.84 L 2058.09,2339.08 L 2048.32,2329.31 L 2036.56,2322.06 L 2027.2,2318.96 L 2022.68,2315.83 L 2020.57,2310.75 L 2020.51,2213 L 2022.06,2207.73 L 2026.22,2204.12 L 2031.66,2203.34 L 2036.67,2205.63 L 2050.35,2219.27 L 2065.6,2230.35 L 2082.39,2238.9 L 2100.31,2244.73 L 2118.92,2247.68 L 2137.77,2247.68 L 2156.38,2244.73 L 2174.3,2238.9 L 2191.1,2230.35 L 2206.34,2219.27 L 2219.67,2205.95 L 2230.74,2190.7 L 2239.3,2173.91 L 2245.12,2155.99 L 2248.07,2137.37 L 2248.07,2118.53 L 2245.12,2099.92 L 2243.01,2093.41 L 2242.85,2087.91 L 2245.69,2083.2 L 2248.34,2081.27 L 2260.72,2068.89 L 2270.62,2054.44 L 2277.69,2038.42 L 2281.7,2021.38 L 2282.2,2014.1 L 2282.2,1947.64 L 2187.72,1947.64 L 2187.72,2008.27 L 2068.98,2008.27 L 2068.98,1847.64 L 2108.66,1847.64 L 2108.66,1753.15 L 2063.14,1753.15 L 2055.87,1753.65 L 2038.82,1757.66 L 2022.8,1764.74 L 2013.35,1771.21 L 2008.12,1772.91 L 2002.8,1771.52 L 1999.08,1767.47 L 1998.07,1763.15 L 1998.07,1454.97 L 1999.62,1449.69 L 2000.93,1448.07 L 2327.99,1121.01 L 2332.82,1118.37 L 2334.89,1118.15 L 2735.81,1118.15 L 2741.09,1119.7 L 2744.7,1123.86 L 2745.48,1129.3 L 2743.56,1133.86 L 2730.33,1151.1 L 2718.87,1170.95 L 2710.1,1192.11 L 2704.17,1214.25 L 2701.18,1236.97 L 2701.18,1259.88 L 2704.17,1282.6 L 2710.1,1304.73 L 2718.87,1325.9 L 2730.33,1345.75 L 2739.23,1357.34 L 2807.01,1289.56 L 2803.62,1283.27 L 2801.08,1277.39 L 2798.78,1270.56 L 2797.26,1264.34 L 2796.15,1257.22 L 2795.71,1250.83 L 2795.77,1244.42 L 2796.34,1238.04 L 2797.59,1230.94 L 2799.24,1224.75 L 2801.37,1218.71 L 2803.97,1212.86 L 2807.04,1207.23 L 2810.54,1201.87 L 2814.46,1196.8 L 2819.33,1191.49 L 2824.05,1187.16 L 2829.1,1183.21 L 2834.45,1179.69 L 2840.78,1176.24 L 2847.39,1173.37 L 2853.46,1171.33 L 2859.68,1169.78 L 2866,1168.73 L 2872.38,1168.19 L 2879.59,1168.19 L 2885.97,1168.73 L 2892.29,1169.78 L 2898.51,1171.33 L 2905.33,1173.66 L 2911.19,1176.24 L 2917.12,1179.45 L 2984.9,1111.67 L 2984.83,1110.62 L 2983.23,1108.43 L 2982.91,1102.94 L 2983.72,1100.7 L 2986.94,1094.38 L 2992.76,1076.46 L 2995.71,1057.85 L 2995.71,1039 L 2992.76,1020.39 L 2986.94,1002.47 L 2978.38,985.674 L 2967.3,970.428 L 2965.58,968.702 L 2962.94,963.874 L 2963.33,958.386 L 2966.63,953.982 L 2969.07,952.65 L 2975.38,950.298 L 2984.45,943.506 L 2991.24,934.434 L 2995.2,923.816 L 2995.71,919.122 L 2995.71,777.724 L 2995.2,773.032 L 2991.24,762.414 L 2984.45,753.342 L 2975.38,746.55 L 2964.76,742.59 L 2960.07,742.086 L 2933.34,742.086 L 2928.91,741.02 L 2921.94,737.47 L 2904.02,731.648 L 2885.41,728.7 L 2413.31,728.7 L 2408.03,727.15 L 2404.43,722.992 L 2403.54,718.936 L 2403.54,198.818 L 1261.81,198.818 L 1261.81,718.936 L 1260.26,724.214 L 1256.1,727.816 L 1252.05,728.7 L 1213.02,728.7 L 1194.41,731.648 L 1176.48,737.47 L 1159.69,746.026 L 1144.45,757.104 L 1115.25,786.3 L 1110.42,788.936 L 1104.93,788.544 L 1101.44,786.3 L 920.387,605.246 L 917.749,600.416 L 918.143,594.93 L 919.867,592 L 931.137,576.528 L 939.693,559.736 L 945.515,541.814 L 948.463,523.2 L 948.463,504.356 L 945.515,485.742 L 939.691,467.82 L 931.137,451.028 L 920.059,435.782 L 906.733,422.456 L 891.489,411.38 L 874.697,402.826 L 856.775,397.002 L 838.161,394.054 L 819.317,394.054 L 800.703,397.002 L 782.781,402.826 L 765.989,411.38 L 750.743,422.458 L 688.119,485.387 L 691.204,492.57 L 693.238,499.484 L 694.47,506.584 L 694.882,513.78 L 694.47,520.975 L 693.238,528.075 L 691.204,534.989 L 688.12,542.171 L 736.067,590.116 L 737.417,591.772 L 756.155,610.206 L 758.791,615.034 L 759.015,619.07 L 761.693,632.54 L 766.949,645.23 L 774.581,656.65 L 974.057,856.126 L 976.693,860.954 L 976.301,866.442 L 973.003,870.846 L 967.153,872.794 L 682.265,872.794 L 665.121,875.51 L 662.831,876.254 L 659.815,876.73 L 606.859,876.73 L 602.165,877.236 L 591.547,881.196 L 582.475,887.988 L 575.685,897.06 L 571.723,907.678 L 571.219,912.372 L 571.219,1053.77 L 571.723,1058.46 L 575.803,1069.4 L 576.197,1074.89 L 573.559,1079.72 L 568.731,1082.35 L 563.243,1081.96 L 559.751,1079.72 L 554.185,1074.15 L 545.287,1085.75 L 533.831,1105.59 L 525.063,1126.76 L 519.131,1148.89 L 516.141,1171.61 L 516.141,1194.53 L 519.131,1217.24 L 525.063,1239.38 L 533.831,1260.55 L 545.289,1280.39 L 554.185,1291.99 L 621.965,1224.21 L 618.935,1218.64 L 616.629,1213.53 L 613.113,1202.89 L 611.113,1191.86 L 610.666,1180.67 L 611.65,1170.31 L 613.741,1160.93 L 617.574,1150.4 L 622.662,1140.79 L 622.237,1140.01 L 622.629,1134.52 L 624.873,1131.03 L 638.905,1117 L 643.733,1114.36 L 648.768,1114.72 L 657.184,1110.2 L 665.366,1106.94 L 675.424,1104.27 L 684.943,1102.98 L 695.348,1102.88 L 704.891,1103.98 L 712.697,1105.76 L 720.287,1108.31 L 727.585,1111.6 L 735.19,1116.04 L 741.644,1120.78 L 748.159,1126.71 L 753.487,1132.68 L 758.193,1139.16 L 763.65,1148.95 L 767.692,1159.4 L 770.239,1170.31 L 771.244,1181.47 L 770.685,1192.66 L 768.575,1203.66 L 764.953,1214.27 L 759.924,1224.21 L 827.701,1291.99 L 836.599,1280.39 L 848.057,1260.55 L 856.825,1239.38 L 862.755,1217.24 L 865.747,1194.53 L 865.747,1171.61 L 862.755,1148.89 L 856.825,1126.76 L 848.577,1106.85 L 847.989,1101.38 L 850.451,1096.46 L 855.183,1093.65 L 857.597,1093.34 L 1008.31,1093.34 L 1013.59,1094.89 L 1017.19,1099.05 L 1018.07,1103.11 L 1018.07,1245.42 L 1016.52,1250.7 L 1015.21,1252.32 L 708.229,1559.3 L 703.401,1561.94 L 701.325,1562.16 L 671.049,1562.16 L 665.771,1560.61 L 663.439,1558.52 L 659.269,1553.33 L 647.581,1543.93 L 634.149,1537.27 L 619.597,1533.65 L 616.229,1533.42 L 505.815,1533.42 L 502.449,1533.65 L 487.897,1537.27 L 474.463,1543.93 L 462.777,1553.33 L 453.383,1565.01 L 446.721,1578.45 L 443.101,1593 L 442.873,1596.37 L 442.873,1667.41 L 443.101,1670.78 L 446.721,1685.33 L 453.383,1698.76 L 462.777,1710.45 L 468.227,1714.83 L 471.369,1719.34 L 471.573,1724.84 L 468.771,1729.58 L 462.777,1734.43 L 453.383,1746.12 L 446.721,1759.55 L 443.101,1774.1 L 442.873,1777.47 L 442.873,1848.51 L 443.375,1852.98 L 443.145,1858.48 L 439.979,1862.98 L 423.833,1876.59 L 410.859,1891.84 L 400.501,1908.98 L 393.025,1927.55 L 388.625,1947.08 L 387.795,1958.85 L 387.795,1974.41M 436.899,2547.63 L 445.785,2554.45 L 463.661,2564.77 L 482.735,2572.67 L 502.675,2578.01 L 523.141,2580.71 L 543.785,2580.71 L 564.251,2578.01 L 584.193,2572.67 L 603.265,2564.77 L 621.141,2554.45 L 630.027,2547.63 L 561.856,2479.46 L 555.051,2482.41 L 548.15,2484.48 L 540.261,2485.85 L 533.064,2486.22 L 525.872,2485.76 L 518.779,2484.48 L 511.878,2482.41 L 505.072,2479.46 L 436.899,2547.63M 436.899,2298.82 L 505.074,2367 L 511.878,2364.05 L 518.779,2361.97 L 525.872,2360.7 L 533.064,2360.24 L 541.057,2360.7 L 548.15,2361.97 L 555.051,2364.05 L 561.854,2367 L 630.027,2298.82 L 621.141,2292.01 L 603.265,2281.68 L 584.193,2273.78 L 564.251,2268.44 L 543.785,2265.75 L 523.141,2265.75 L 502.675,2268.44 L 482.735,2273.78 L 463.661,2281.68 L 445.783,2292.01 L 436.899,2298.82M 474.409,524.1 L 477.103,544.566 L 482.445,564.506 L 490.345,583.578 L 500.667,601.456 L 507.485,610.342 L 575.659,542.17 L 572.576,534.989 L 570.541,528.075 L 569.31,520.975 L 568.898,513.78 L 569.31,506.584 L 570.541,499.484 L 572.576,492.57 L 575.66,485.388 L 507.485,417.214 L 500.667,426.098 L 490.345,443.978 L 482.445,463.05 L 477.103,482.99 L 474.409,503.456 L 474.409,524.1M 535.325,638.182 L 544.209,644.998 L 562.087,655.32 L 581.159,663.22 L 601.099,668.564 L 621.567,671.258 L 642.209,671.258 L 662.677,668.564 L 682.617,663.22 L 701.689,655.32 L 719.567,645 L 728.453,638.182 L 660.281,570.01 L 653.476,572.958 L 646.576,575.036 L 639.483,576.312 L 631.489,576.77 L 624.297,576.312 L 617.204,575.036 L 610.303,572.958 L 603.497,570.009 L 535.325,638.182M 535.325,389.374 L 603.499,457.549 L 610.303,454.602 L 617.204,452.523 L 624.297,451.247 L 631.489,450.789 L 639.483,451.247 L 646.576,452.523 L 653.476,454.602 L 660.279,457.549 L 728.453,389.374 L 719.567,382.556 L 701.689,372.236 L 682.617,364.336 L 662.677,358.992 L 642.211,356.298 L 621.567,356.298 L 601.099,358.992 L 581.159,364.336 L 562.087,372.236 L 544.209,382.558 L 535.325,389.374M 580.707,2147.64 L 615.949,2147.64 L 627.715,2146.81 L 647.251,2142.41 L 665.825,2134.93 L 682.961,2124.57 L 698.213,2111.6 L 711.185,2096.35 L 721.545,2079.21 L 729.021,2060.64 L 733.421,2041.1 L 734.251,2029.34 L 734.251,2013.78 L 639.764,2013.78 L 639.666,2026.03 L 639.067,2030 L 637.937,2033.85 L 635.908,2038.21 L 633.196,2042.19 L 630.467,2045.13 L 626.703,2048.13 L 623.228,2050.14 L 620.272,2051.39 L 617.198,2052.32 L 613.243,2053 L 580.707,2053.15 L 580.707,2147.64M 582.025,1319.83 L 593.619,1328.72 L 613.465,1340.18 L 634.635,1348.95 L 656.769,1354.88 L 679.485,1357.87 L 702.401,1357.87 L 725.119,1354.88 L 747.253,1348.95 L 768.423,1340.18 L 788.267,1328.72 L 799.863,1319.83 L 732.083,1252.05 L 722.511,1256.92 L 711.925,1260.6 L 700.932,1262.76 L 690.544,1263.38 L 679.371,1262.55 L 669.192,1260.38 L 659.379,1256.92 L 649.805,1252.05 L 582.025,1319.83M 2148.03,1847.64 L 2187.72,1847.64 L 2187.72,1908.27 L 2282.2,1908.27 L 2282.2,1841.8 L 2281.7,1834.53 L 2277.69,1817.48 L 2270.62,1801.46 L 2260.72,1787.01 L 2248.34,1774.63 L 2233.89,1764.74 L 2217.87,1757.66 L 2200.83,1753.65 L 2193.55,1753.15 L 2148.03,1753.15 L 2148.03,1847.64M 2767.06,1385.18 L 2778.66,1394.08 L 2798.5,1405.54 L 2819.67,1414.31 L 2841.81,1420.24 L 2864.53,1423.23 L 2887.44,1423.23 L 2910.16,1420.24 L 2932.29,1414.31 L 2953.46,1405.54 L 2973.31,1394.08 L 2984.9,1385.18 L 2917.12,1317.4 L 2907.55,1322.28 L 2896.96,1325.95 L 2886.77,1328.01 L 2875.58,1328.74 L 2864.41,1327.9 L 2854.23,1325.74 L 2844.42,1322.28 L 2834.84,1317.4 L 2767.06,1385.18M 2944.96,1207.28 L 2949.99,1217.23 L 2953.4,1227.06 L 2955.52,1237.25 L 2956.3,1248.43 L 2955.52,1259.6 L 2953.4,1269.79 L 2949.99,1279.62 L 2944.96,1289.56 L 3012.74,1357.34 L 3021.64,1345.75 L 3033.1,1325.9 L 3041.87,1304.73 L 3047.8,1282.6 L 3050.79,1259.88 L 3050.79,1236.97 L 3047.8,1214.25 L 3041.87,1192.11 L 3033.1,1170.94 L 3021.64,1151.1 L 3012.74,1139.5 L 2944.96,1207.28 z " style="fill-opacity:1.000000;fill:rgb(103,198,105);stroke:rgb(0,0,0);stroke-width:2"/></g>
<g fill-rule="evenodd"><path d="M 482.283,1842.52 L 482.352,1781.46 L 483.069,1776.7 L 484.252,1772.86 L 486.34,1768.53 L 488.601,1765.21 L 493.089,1760.63 L 497.748,1757.5 L 502.916,1755.31 L 509.204,1754.05 L 611.641,1753.97 L 617.198,1754.77 L 622.502,1756.61 L 627.364,1759.41 L 631.606,1763.09 L 635.076,1767.5 L 637.649,1772.49 L 639.23,1777.88 L 639.753,1782.68 L 978.346,1782.68 L 978.348,1702.36 L 978.803,1696.78 L 979.611,1692.86 L 980.813,1689.04 L 982.396,1685.37 L 984.343,1681.87 L 986.635,1678.59 L 989.807,1674.99 L 992.769,1672.3 L 995.99,1669.92 L 1000.87,1667.17 L 1005.32,1665.39 L 1009.96,1664.16 L 1015.52,1663.45 L 1096.66,1663.39 L 1103.03,1663.94 L 1108.47,1665.26 L 1113.67,1667.35 L 1118.52,1670.15 L 1122.92,1673.61 L 1126.79,1677.65 L 1130.04,1682.21 L 1132.62,1687.18 L 1134.52,1692.69 L 1330.93,1496.28 L 1335.35,1492.63 L 1338.89,1490.56 L 1342.68,1488.99 L 1345.84,1488.11 L 1349.9,1487.5 L 1411.42,1487.4 L 1411.43,1456.28 L 1412.21,1451.54 L 1414.12,1447.13 L 1417.04,1443.31 L 1420.8,1440.31 L 1425.17,1438.32 L 1430.7,1437.41 L 1486.62,1437.41 L 1492.15,1438.32 L 1497.2,1440.75 L 1500.83,1443.89 L 1503.2,1447.13 L 1505.11,1451.54 L 1505.89,1456.28 L 1505.89,1579.15 L 1505.5,1582.33 L 1504.29,1586.16 L 1502.78,1588.99 L 1500.83,1591.54 L 1497.86,1594.22 L 1494.4,1596.25 L 1490.6,1597.54 L 1487.42,1597.99 L 1430.7,1598.03 L 1425.17,1597.12 L 1420.8,1595.12 L 1417.04,1592.12 L 1414.12,1588.3 L 1412.21,1583.89 L 1411.43,1579.15 L 1411.42,1548.03 L 1364.92,1548.03 L 1135.83,1777.12 L 1135.83,1848.86 L 1384.6,2097.64 L 1453.97,2097.64 L 1458.2,2088.84 L 1463.84,2080.1 L 1470.57,2072.16 L 1477.65,2065.66 L 1485.45,2060.05 L 1494.59,2055.08 L 1503.53,2051.57 L 1513.61,2049 L 1521.55,2047.93 L 1529.55,2047.65 L 1537.54,2048.17 L 1545.44,2049.48 L 1553.17,2051.57 L 1559.91,2054.1 L 1567.11,2057.61 L 1573.92,2061.82 L 1579.66,2066.17 L 1585.56,2071.59 L 1590.38,2076.94 L 1594.71,2082.71 L 1598.49,2088.84 L 1601.72,2095.29 L 1604.35,2101.99 L 1606.37,2108.91 L 1607.76,2115.98 L 1608.52,2123.15 L 1608.63,2130.36 L 1607.99,2138.34 L 1606.74,2145.43 L 1604.85,2152.39 L 1602.35,2159.15 L 1599.26,2165.66 L 1596.03,2171.19 L 1591.88,2177.08 L 1587.22,2182.58 L 1582.09,2187.64 L 1576.52,2192.22 L 1571.25,2195.85 L 1565.7,2199.05 L 1559.17,2202.12 L 1552.4,2204.58 L 1546.22,2206.25 L 1539.13,2207.54 L 1531.95,2208.19 L 1524.74,2208.19 L 1518.36,2207.64 L 1512.04,2206.59 L 1505.06,2204.82 L 1496.78,2201.8 L 1488.88,2197.9 L 1480.82,2192.69 L 1474.01,2187.1 L 1467.86,2180.8 L 1462.44,2173.86 L 1457.81,2166.36 L 1453.97,2158.27 L 1370.46,2158.23 L 1367.3,2157.89 L 1363.44,2157.02 L 1359.72,2155.65 L 1356.89,2154.21 L 1353.59,2152 L 1350.61,2149.39 L 1267.72,2066.49 L 1058.62,2275.59 L 1313.74,2530.71 L 1482.48,2530.71 L 1483.32,2527.15 L 1484.6,2524.21 L 1486.83,2520.88 L 1489.08,2518.59 L 1492.36,2516.28 L 1495.28,2514.95 L 1498.37,2514.11 L 1501.97,2513.78 L 1572.83,2513.78 L 1576.43,2514.11 L 1581.74,2515.91 L 1584.47,2517.59 L 1586.9,2519.69 L 1588.95,2522.16 L 1590.57,2524.92 L 1591.72,2527.92 L 1592.32,2530.71 L 1895.87,2530.71 L 1896.47,2527.92 L 1897.62,2524.92 L 1899.24,2522.16 L 1901.29,2519.69 L 1905.74,2516.28 L 1908.66,2514.95 L 1911.76,2514.11 L 1915.35,2513.78 L 1988.22,2513.88 L 1991.38,2514.47 L 1994.4,2515.56 L 1997.2,2517.12 L 1999.71,2519.13 L 2001.86,2521.51 L 2003.59,2524.21 L 2004.87,2527.15 L 2005.64,2530.27 L 2005.91,2533.46 L 2005.89,2589.39 L 2004.87,2594.89 L 2003.59,2597.84 L 2001.86,2600.54 L 1999.11,2603.46 L 1995.83,2605.76 L 1992.15,2607.35 L 1988.22,2608.17 L 1914.95,2608.26 L 1911.76,2607.94 L 1908.66,2607.1 L 1905.74,2605.76 L 1902.46,2603.46 L 1899.72,2600.54 L 1897.98,2597.84 L 1896.71,2594.89 L 1895.87,2591.34 L 1592.32,2591.34 L 1591.72,2594.13 L 1590.57,2597.12 L 1588.95,2599.89 L 1586.9,2602.36 L 1584.47,2604.46 L 1581.74,2606.14 L 1576.43,2607.94 L 1572.83,2608.27 L 1501.57,2608.26 L 1498.37,2607.94 L 1495.28,2607.1 L 1492.36,2605.76 L 1489.08,2603.46 L 1486.33,2600.54 L 1484.6,2597.84 L 1483.32,2594.89 L 1482.48,2591.34 L 1301.18,2591.34 L 1297.22,2591.08 L 1292.57,2590.09 L 1288.85,2588.72 L 1286.02,2587.28 L 1282.72,2585.07 L 1279.74,2582.46 L 1015.75,2318.46 L 889.545,2444.66 L 885.795,2447.85 L 881.578,2450.38 L 875.425,2452.65 L 869.75,2453.5 L 804.689,2453.54 L 800.463,2462.34 L 794.817,2471.08 L 788.089,2479.02 L 781.014,2485.52 L 772.535,2491.55 L 763.347,2496.44 L 753.605,2500.09 L 744.262,2502.32 L 735.518,2503.37 L 727.512,2503.49 L 718.741,2502.7 L 710.885,2501.16 L 702.47,2498.56 L 695.107,2495.41 L 687.415,2491.13 L 680.868,2486.52 L 674.236,2480.72 L 668.278,2474.24 L 662.632,2466.47 L 658.305,2458.8 L 654.844,2450.7 L 652.29,2442.27 L 650.674,2433.61 L 650.016,2424.83 L 650.323,2416.03 L 651.592,2407.31 L 654.056,2398.03 L 657.273,2389.83 L 661.369,2382.03 L 666.293,2374.73 L 671.988,2368.02 L 678.383,2361.96 L 685.403,2356.64 L 692.963,2352.13 L 700.973,2348.47 L 709.335,2345.7 L 717.949,2343.87 L 726.712,2342.99 L 735.518,2343.08 L 744.262,2344.13 L 754.371,2346.6 L 763.347,2350.02 L 772.535,2354.91 L 781.014,2360.94 L 788.089,2367.44 L 794.817,2375.37 L 800.463,2384.12 L 804.688,2392.91 L 855.552,2392.91 L 1224.84,2023.62 L 1134.52,1933.29 L 1132.62,1938.8 L 1130.04,1943.77 L 1126.79,1948.33 L 1122.92,1952.38 L 1117.85,1956.28 L 1112.94,1958.98 L 1107.71,1960.96 L 1102.24,1962.17 L 1096.66,1962.6 L 1015.52,1962.54 L 1009.96,1961.83 L 1004.57,1960.34 L 999.434,1958.1 L 994.673,1955.15 L 991.552,1952.65 L 988.701,1949.84 L 984.343,1944.11 L 982.396,1940.62 L 980.813,1936.94 L 979.611,1933.13 L 978.803,1929.21 L 978.348,1923.63 L 978.346,1843.31 L 639.753,1843.31 L 639.23,1848.11 L 637.937,1852.74 L 635.908,1857.11 L 632.683,1861.7 L 629.267,1865.1 L 625.346,1867.89 L 620.272,1870.29 L 615.627,1871.55 L 610.236,1872.05 L 511.61,1872.05 L 506.815,1871.62 L 502.154,1870.42 L 498.459,1868.86 L 495.012,1866.8 L 491.29,1863.75 L 488.601,1860.77 L 486.34,1857.46 L 484.55,1853.87 L 483.264,1850.06 L 482.504,1846.12 L 482.283,1842.52 z " style="fill-opacity:1.000000;fill:rgb(115,81,255);stroke:rgb(0,0,0);stroke-width:2"/></g>
<g fill-rule="evenodd"><path d="M 482.286,1661.82 L 482.286,1601.96 L 482.896,1596.38 L 483.974,1592.52 L 485.566,1588.83 L 487.643,1585.4 L 490.166,1582.28 L 493.089,1579.53 L 496.357,1577.2 L 499.911,1575.34 L 503.685,1573.97 L 507.609,1573.14 L 511.61,1572.84 L 610.236,1572.83 L 614.041,1573.08 L 618.748,1574.09 L 623.945,1576.21 L 628.646,1579.28 L 632.153,1582.57 L 635.076,1586.4 L 637.649,1591.39 L 639.23,1596.77 L 639.753,1601.57 L 721.694,1601.57 L 1057.48,1265.79 L 1057.48,1053.94 L 690.142,1053.93 L 684.545,1053.65 L 678.988,1052.92 L 673.506,1051.76 L 667.656,1050 L 610.63,1050 L 610.63,916.142 L 667.654,916.142 L 673.506,914.383 L 678.988,913.22 L 684.545,912.494 L 690.142,912.209 L 1064.79,912.204 L 1066.86,903.802 L 1069.67,896.011 L 805.634,631.83 L 803.196,628.531 L 801.226,624.933 L 799.759,621.103 L 798.824,617.109 L 798.435,613.025 L 798.424,588.152 L 792.1,585.25 L 786.52,582.102 L 781.209,578.519 L 775.597,573.998 L 770.413,568.992 L 766.198,564.168 L 761.933,558.358 L 758.592,552.892 L 754.732,544.977 L 751.993,537.453 L 749.863,528.908 L 748.681,520.181 L 748.461,511.377 L 749.207,502.602 L 750.909,493.961 L 753.546,485.559 L 757.088,477.496 L 761.492,469.869 L 766.704,462.77 L 772.091,456.847 L 778.665,450.987 L 785.841,445.882 L 793.532,441.593 L 801.648,438.172 L 807.76,436.253 L 814.005,434.828 L 820.345,433.905 L 826.738,433.49 L 833.143,433.585 L 839.521,434.191 L 845.83,435.304 L 852.03,436.916 L 858.083,439.016 L 863.948,441.593 L 869.589,444.629 L 874.971,448.104 L 880.058,451.998 L 884.819,456.285 L 889.223,460.937 L 893.242,465.926 L 898.094,473.276 L 902.112,481.112 L 905.247,489.342 L 907.617,498.651 L 908.8,507.378 L 909.019,516.182 L 908.273,524.957 L 906.572,533.598 L 903.649,542.749 L 900.027,550.776 L 895.099,559.023 L 889.223,566.622 L 882.481,573.465 L 875.624,578.99 L 867.502,584.121 L 859.054,588.153 L 859.054,599.648 L 1108.34,848.937 L 1166.22,791.071 L 1170.34,787.301 L 1175.36,783.355 L 1180,780.238 L 1185.55,777.082 L 1195.81,772.654 L 1201.91,770.778 L 1207.36,769.538 L 1213.67,768.589 L 1219.25,768.173 L 2876.79,768.114 L 2883.21,768.435 L 2888.79,769.136 L 2899.73,771.7 L 2910.21,775.767 L 2915.21,778.34 L 2920.38,781.496 L 2956.3,781.496 L 2956.3,915.354 L 2920.38,915.354 L 2911.66,920.383 L 2902.78,924.137 L 2893.52,926.802 L 2883.21,928.414 L 2875.98,928.739 L 1255.71,928.739 L 1199.92,984.521 L 1192.64,990.842 L 1183.97,996.652 L 1174.62,1001.29 L 1164.74,1004.67 L 1154.59,1006.74 L 1151.89,1013.3 L 1148.49,1019.65 L 1144.94,1024.98 L 1140.39,1030.57 L 1135.88,1035.12 L 1130.35,1039.74 L 1124.38,1043.76 L 1118.11,1047.12 L 1118.1,1279.17 L 1117.57,1284.06 L 1116.52,1288.02 L 1114.95,1291.81 L 1112.89,1295.36 L 1109.23,1299.78 L 755.119,1653.88 L 751.422,1656.87 L 746.581,1659.58 L 742.097,1661.17 L 736.63,1662.11 L 639.753,1662.2 L 639.23,1667.01 L 637.649,1672.39 L 635.076,1677.38 L 631.606,1681.79 L 627.364,1685.47 L 622.502,1688.28 L 617.198,1690.11 L 612.443,1690.86 L 511.811,1690.94 L 507.609,1690.64 L 503.685,1689.8 L 499.911,1688.44 L 496.357,1686.58 L 493.089,1684.25 L 490.166,1681.5 L 487.643,1678.38 L 485.566,1674.95 L 483.974,1671.26 L 482.744,1666.61 L 482.286,1661.82 z " style="fill-opacity:1.000000;fill:rgb(74,236,41);stroke:rgb(0,0,0);stroke-width:2"/></g>
<g fill-rule="evenodd"><path d="M 1448.13,1931.96 L 1448.13,1923.95 L 1448.93,1915.98 L 1450.52,1908.13 L 1452.6,1901.24 L 1455.64,1893.83 L 1459.4,1886.76 L 1463.84,1880.1 L 1468.93,1873.91 L 1474.61,1868.27 L 1480.82,1863.21 L 1487.5,1858.8 L 1494.59,1855.08 L 1502.01,1852.08 L 1509.69,1849.83 L 1516.77,1848.48 L 1524.74,1847.72 L 1532.75,1847.76 L 1540.71,1848.6 L 1547.78,1850.02 L 1555.44,1852.35 L 1562.83,1855.42 L 1569.88,1859.21 L 1576.52,1863.69 L 1582.68,1868.81 L 1588.3,1874.51 L 1592.85,1880.1 L 1597.29,1886.76 L 1601.05,1893.83 L 1604.09,1901.24 L 1606.18,1908.13 L 1607.76,1915.98 L 1608.56,1923.95 L 1608.56,1931.96 L 1607.76,1939.92 L 1606.18,1947.77 L 1604.09,1954.67 L 1601.05,1962.08 L 1597.29,1969.15 L 1592.85,1975.81 L 1587.76,1981.99 L 1582.09,1987.64 L 1575.88,1992.69 L 1569.2,1997.1 L 1562.11,2000.83 L 1555.44,2003.56 L 1547.78,2005.88 L 1540.71,2007.31 L 1532.75,2008.15 L 1524.74,2008.19 L 1516.77,2007.43 L 1509.69,2006.07 L 1502.01,2003.83 L 1494.59,2000.83 L 1487.5,1997.1 L 1480.82,1992.69 L 1474.61,1987.64 L 1468.93,1981.99 L 1463.84,1975.81 L 1459.4,1969.15 L 1455.64,1962.08 L 1452.6,1954.67 L 1450.52,1947.77 L 1448.93,1939.92 L 1448.13,1931.96 z " style="fill-opacity:1.000000;fill:rgb(205,186,171);stroke:rgb(0,0,0);stroke-width:2"/></g>
<g fill-rule="evenodd"><path d="M 1457.1,2431.91 L 1457.15,2374.38 L 1457.67,2371.21 L 1458.7,2368.17 L 1460.21,2365.34 L 1462.71,2362.21 L 1465.14,2360.11 L 1468.59,2358.08 L 1472.39,2356.79 L 1475.57,2356.34 L 1541.77,2356.3 L 1696.42,2201.65 L 1688.19,2197.51 L 1680.82,2192.69 L 1674.01,2187.1 L 1667.34,2180.19 L 1661.99,2173.2 L 1657.06,2164.95 L 1653.44,2156.92 L 1650.72,2148.55 L 1648.93,2139.92 L 1648.07,2130.36 L 1648.29,2121.55 L 1649.47,2112.82 L 1651.6,2104.28 L 1654.98,2095.29 L 1659.4,2086.76 L 1664.32,2079.46 L 1668.93,2073.91 L 1673.43,2069.35 L 1678.9,2064.66 L 1684.1,2060.92 L 1689.58,2057.61 L 1696.05,2054.42 L 1702.01,2052.08 L 1708.92,2050.02 L 1715.98,2048.6 L 1722.34,2047.86 L 1728.75,2047.64 L 1735.94,2048 L 1742.29,2048.86 L 1749.33,2050.43 L 1756.19,2052.62 L 1762.11,2055.08 L 1768.5,2058.4 L 1774.58,2062.28 L 1780.28,2066.69 L 1786.12,2072.16 L 1790.89,2077.56 L 1795.59,2084.04 L 1799.63,2090.96 L 1802.66,2097.5 L 1805.09,2104.28 L 1807.07,2112.04 L 1808.26,2119.96 L 1808.66,2127.15 L 1808.41,2134.35 L 1807.37,2142.29 L 1805.55,2150.09 L 1803.25,2156.92 L 1800,2164.24 L 1796.03,2171.19 L 1790.89,2178.34 L 1785.56,2184.32 L 1779.66,2189.73 L 1773.26,2194.54 L 1766.41,2198.68 L 1758.66,2202.33 L 1758.62,2214.24 L 1757.76,2219.91 L 1756.8,2223.05 L 1755.13,2226.8 L 1753.44,2229.61 L 1750.91,2232.84 L 1615.96,2367.86 L 1617.13,2371.21 L 1617.7,2375.18 L 1617.7,2431.91 L 1616.68,2437.41 L 1615.4,2440.36 L 1613.67,2443.06 L 1610.3,2446.49 L 1606.93,2448.66 L 1602.41,2450.29 L 1598.43,2450.78 L 1476.37,2450.78 L 1470.84,2449.87 L 1467.87,2448.66 L 1465.14,2446.98 L 1462.16,2444.29 L 1459.4,2440.36 L 1457.67,2435.87 L 1457.1,2431.91 z " style="fill-opacity:1.000000;fill:rgb(242,251,227);stroke:rgb(0,0,0);stroke-width:2"/></g>
<g fill-rule="evenodd"><path d="M 1568.9,1578.35 L 1568.9,1457.09 L 1569.48,1452.32 L 1571.6,1447.13 L 1574.52,1443.31 L 1578.28,1440.31 L 1582.65,1438.32 L 1586.58,1437.5 L 1644.1,1437.41 L 1648.08,1437.9 L 1652.6,1439.53 L 1656.59,1442.21 L 1659.81,1445.78 L 1662.07,1450.02 L 1663.24,1454.68 L 1663.39,1522.09 L 1898.03,1756.73 L 1898.03,1422.05 L 1898.21,1418.77 L 1898.93,1414.73 L 1899.89,1411.59 L 1901.56,1407.85 L 1904.21,1403.7 L 1906.91,1400.61 L 2283.68,1023.84 L 2287.36,1020.7 L 2290.78,1018.56 L 2295.21,1016.62 L 2299.9,1015.41 L 2304.71,1014.96 L 2308.74,1015.18 L 2311.92,1015.73 L 2315.02,1016.62 L 2318.57,1018.11 L 2801.61,1018.11 L 2803.97,1012.86 L 2806.63,1007.92 L 2812.94,998.663 L 2816.57,994.387 L 2821.06,989.823 L 2829.75,982.75 L 2839.34,976.955 L 2849.65,972.551 L 2860.46,969.624 L 2866,968.734 L 2872.38,968.191 L 2880.39,968.231 L 2888.35,969.068 L 2896.19,970.694 L 2904.58,973.373 L 2911.91,976.593 L 2918.88,980.527 L 2925.43,985.136 L 2932.06,990.93 L 2939.52,999.295 L 2945.74,1008.62 L 2950.6,1018.71 L 2954.01,1029.38 L 2955.9,1040.43 L 2956.24,1051.63 L 2955.01,1062.77 L 2952.24,1073.62 L 2947.99,1083.99 L 2942.34,1093.67 L 2935.4,1102.46 L 2927.3,1110.21 L 2918.2,1116.75 L 2909.02,1121.63 L 2898.51,1125.52 L 2887.56,1127.9 L 2880.39,1128.62 L 2873.98,1128.72 L 2867.59,1128.3 L 2861.25,1127.38 L 2854.23,1125.74 L 2848.14,1123.76 L 2841.5,1120.96 L 2835.83,1117.98 L 2830.41,1114.56 L 2825.28,1110.72 L 2819.91,1105.92 L 2815.5,1101.27 L 2811.48,1096.28 L 2807.45,1090.3 L 2804.33,1084.71 L 2801.61,1078.74 L 2314.52,1078.74 L 1958.66,1434.6 L 1958.66,1853.58 L 1964.27,1856.12 L 1969.2,1858.8 L 1974.58,1862.28 L 1979.05,1865.66 L 1983.85,1869.9 L 1987.76,1873.91 L 1991.39,1878.19 L 1995.15,1883.37 L 1998.49,1888.84 L 2001.05,1893.83 L 2005.09,1904.28 L 2006.74,1910.47 L 2007.76,1915.98 L 2008.47,1922.35 L 2008.66,1927.95 L 2008.41,1934.35 L 2007.76,1939.92 L 2005.33,1950.86 L 2003.25,1956.92 L 2001.05,1962.08 L 1995.59,1971.86 L 1992.37,1976.45 L 1988.3,1981.4 L 1980.28,1989.22 L 1975.88,1992.69 L 1970.57,1996.28 L 1960.65,2001.49 L 1952.4,2004.58 L 1944.65,2006.59 L 1936.74,2007.83 L 1928.75,2008.27 L 1920.75,2007.91 L 1912.83,2006.75 L 1905.06,2004.82 L 1897.52,2002.12 L 1890.29,1998.68 L 1883.43,1994.54 L 1877.03,1989.73 L 1871.13,1984.32 L 1865.8,1978.34 L 1861.1,1971.86 L 1857.06,1964.95 L 1853.73,1957.67 L 1851.14,1950.09 L 1849.47,1943.08 L 1848.35,1935.15 L 1848.03,1927.95 L 1848.35,1920.75 L 1849.47,1912.82 L 1851.14,1905.81 L 1853.44,1898.98 L 1857.06,1890.96 L 1861.1,1884.04 L 1865.8,1877.56 L 1871.13,1871.59 L 1877.03,1866.17 L 1883.43,1861.37 L 1890.29,1857.23 L 1898.03,1853.58 L 1898.03,1842.48 L 1651.83,1596.27 L 1648.08,1597.54 L 1644.1,1598.03 L 1585.78,1597.83 L 1580.41,1596.25 L 1576.31,1593.74 L 1572.95,1590.3 L 1570.51,1586.16 L 1569.31,1582.33 L 1568.9,1578.35 z " style="fill-opacity:1.000000;fill:rgb(70,124,194);stroke:rgb(0,0,0);stroke-width:2"/></g>
<g fill-rule="evenodd"><path d="M 1648.13,1931.96 L 1648.13,1923.95 L 1648.93,1915.98 L 1650.52,1908.13 L 1652.6,1901.24 L 1655.64,1893.83 L 1659.4,1886.76 L 1663.84,1880.1 L 1668.93,1873.91 L 1674.61,1868.27 L 1680.82,1863.21 L 1687.5,1858.8 L 1694.59,1855.08 L 1702.01,1852.08 L 1709.69,1849.83 L 1716.77,1848.48 L 1724.74,1847.72 L 1732.75,1847.76 L 1740.71,1848.6 L 1747.78,1850.02 L 1755.44,1852.35 L 1762.83,1855.42 L 1769.88,1859.21 L 1776.52,1863.69 L 1782.68,1868.81 L 1788.3,1874.51 L 1792.85,1880.1 L 1797.29,1886.76 L 1801.05,1893.83 L 1804.09,1901.24 L 1806.18,1908.13 L 1807.76,1915.98 L 1808.56,1923.95 L 1808.56,1931.96 L 1807.76,1939.92 L 1806.18,1947.77 L 1804.09,1954.67 L 1801.05,1962.08 L 1797.29,1969.15 L 1792.85,1975.81 L 1787.76,1981.99 L 1782.09,1987.64 L 1775.88,1992.69 L 1769.2,1997.1 L 1762.11,2000.83 L 1755.44,2003.56 L 1747.78,2005.88 L 1740.71,2007.31 L 1732.75,2008.15 L 1724.74,2008.19 L 1716.77,2007.43 L 1709.69,2006.07 L 1702.01,2003.83 L 1694.59,2000.83 L 1687.5,1997.1 L 1680.82,1992.69 L 1674.61,1987.64 L 1668.93,1981.99 L 1663.84,1975.81 L 1659.4,1969.15 L 1655.64,1962.08 L 1652.6,1954.67 L 1650.52,1947.77 L 1648.93,1939.92 L 1648.13,1931.96 z " style="fill-opacity:1.000000;fill:rgb(84,248,27);stroke:rgb(0,0,0);stroke-width:2"/></g>
<g fill-rule="evenodd"><path d="M 1848.05,2129.55 L 1848.23,2122.35 L 1849.79,2111.25 L 1852.88,2100.48 L 1855.3,2094.56 L 1857.81,2089.54 L 1863.84,2080.1 L 1871.13,2071.59 L 1879.53,2064.17 L 1888.88,2058 L 1899,2053.19 L 1906.59,2050.64 L 1914.4,2048.86 L 1923.14,2047.81 L 1931.15,2047.69 L 1939.92,2048.48 L 1947.78,2050.02 L 1956.19,2052.62 L 1963.55,2055.77 L 1970.57,2059.63 L 1977.16,2064.17 L 1983.85,2069.9 L 1989.35,2075.72 L 1994.71,2082.71 L 1998.88,2089.54 L 2002.66,2097.5 L 2005.33,2105.05 L 2007.76,2115.98 L 2008.47,2122.35 L 2008.66,2127.95 L 2007.88,2139.13 L 2005.55,2150.09 L 2001.72,2160.62 L 1998.88,2166.36 L 1996.03,2171.19 L 1989.35,2180.19 L 1985.56,2184.32 L 1981.1,2188.51 L 1981.1,2356.3 L 2011.82,2356.3 L 2016.58,2356.99 L 2020.32,2358.43 L 2024.31,2361.11 L 2027.53,2364.68 L 2029.79,2368.92 L 2030.84,2372.79 L 2031.1,2375.98 L 2031.1,2431.1 L 2030.84,2434.3 L 2029.15,2439.64 L 2026.03,2444.29 L 2021.72,2447.88 L 2017.35,2449.87 L 2014.22,2450.59 L 2011.42,2450.79 L 1888.15,2450.69 L 1882.72,2449.33 L 1877.88,2446.49 L 1875.55,2444.29 L 1873.6,2441.74 L 1871.27,2436.65 L 1870.47,2431.1 L 1870.49,2375.18 L 1871.27,2370.44 L 1873.18,2366.03 L 1875.55,2362.79 L 1878.52,2360.11 L 1881.98,2358.08 L 1886.56,2356.63 L 1890.16,2356.3 L 1920.47,2356.3 L 1920.47,2207.88 L 1912.83,2206.75 L 1905.06,2204.82 L 1897.52,2202.12 L 1890.99,2199.05 L 1884.1,2194.98 L 1877.65,2190.24 L 1871.7,2184.89 L 1866.82,2179.58 L 1861.99,2173.2 L 1858.2,2167.07 L 1854.98,2160.62 L 1852.09,2153.15 L 1849.96,2145.43 L 1848.61,2137.54 L 1848.05,2129.55 z " style="fill-opacity:1.000000;fill:rgb(232,231,141);stroke:rgb(0,0,0);stroke-width:2"/></g>
<g fill-rule="evenodd"><path d="M 2048.1,2131.16 L 2048.18,2123.15 L 2049.05,2115.19 L 2050.72,2107.36 L 2053.15,2099.73 L 2056.34,2092.39 L 2060.24,2085.39 L 2064.81,2078.82 L 2069.47,2073.32 L 2075.2,2067.73 L 2081.46,2062.74 L 2087.5,2058.8 L 2094.59,2055.08 L 2102.01,2052.08 L 2109.69,2049.83 L 2117.57,2048.36 L 2125.54,2047.69 L 2133.55,2047.81 L 2140.71,2048.6 L 2148.55,2050.22 L 2156.19,2052.62 L 2163.55,2055.77 L 2170.57,2059.63 L 2177.16,2064.17 L 2183.27,2069.35 L 2188.3,2074.51 L 2192.85,2080.1 L 2197.29,2086.76 L 2201.05,2093.83 L 2204.09,2101.24 L 2206.37,2108.91 L 2207.88,2116.78 L 2208.6,2124.75 L 2208.52,2132.76 L 2207.64,2140.71 L 2205.98,2148.55 L 2203.54,2156.17 L 2200.36,2163.52 L 2196.46,2170.51 L 2192.37,2176.45 L 2187.22,2182.58 L 2181.49,2188.17 L 2175.23,2193.16 L 2168.5,2197.51 L 2162.11,2200.83 L 2154.68,2203.83 L 2147,2206.07 L 2139.13,2207.54 L 2131.15,2208.22 L 2123.14,2208.1 L 2115.19,2207.18 L 2108.14,2205.68 L 2100.5,2203.29 L 2093.14,2200.14 L 2086.13,2196.28 L 2080.17,2192.22 L 2074.01,2187.1 L 2068.39,2181.4 L 2063.37,2175.16 L 2059.4,2169.15 L 2055.64,2162.08 L 2052.6,2154.67 L 2050.32,2146.99 L 2048.81,2139.13 L 2048.1,2131.16 z " style="fill-opacity:1.000000;fill:rgb(118,90,46);stroke:rgb(0,0,0);stroke-width:2"/></g>
</svg>
