<?xml version="1.0" standalone="no"?>
<!DOCTYPE svg PUBLIC "-//W3C//DTD SVG 1.1//EN"
"http://www.w3.org/Graphics/SVG/1.1/DTD/svg11.dtd">
<svg width="160.819" height="140.031" viewBox="0 0 3350.39 2917.32" version="1.1"
xmlns="http://www.w3.org/2000/svg"
xmlns:xlink="http://www.w3.org/1999/xlink">
<g fill-rule="evenodd"><path d="M 0,2917.32 L 0,0 L 3350.39,0 L 3350.39,2917.32 L 0,2917.32 z " style="fill-opacity:0.200000;fill:rgb(103,198,105);"/></g>
<polyline points="80.7051,2757.87 80.7091,2758.67 80.7231,2759.48 80.7431,2760.28 80.7711,2761.08 80.8091,2761.88 80.8531,2762.69 80.9071,2763.49 80.9671,2764.29 81.0371,2765.09 81.1151,2765.89 81.2011,2766.69 81.2951,2767.48 81.3971,2768.28 81.5071,2769.08 81.6251,2769.87 81.7531,2770.66 81.8871,2771.46 82.0291,2772.25 82.1791,2773.04 82.3391,2773.82 82.5051,2774.61 82.6811,2775.39 82.8631,2776.17 83.0531,2776.95 83.2531,2777.73 83.4591,2778.51 83.6731,2779.28 83.8951,2780.05 84.1251,2780.82 84.3631,2781.59 84.6091,2782.36 84.8631,2783.12 85.1251,2783.88 85.3931,2784.63 85.6711,2785.39 85.9551,2786.14 86.2471,2786.89 86.5471,2787.63 86.8551,2788.37 87.1691,2789.11 87.4911,2789.85 87.8211,2790.58 88.1591,2791.31 88.5031,2792.04 88.8551,2792.76 89.2151,2793.48 89.5831,2794.19 89.9571,2794.9 90.3371,2795.61 90.7251,2796.31 91.1211,2797.01 91.5251,2797.7 91.9351,2798.39 92.3511,2799.08 92.7751,2799.76 93.2051,2800.44 93.6431,2801.11 94.0871,2801.78 94.5391,2802.45 94.9971,2803.11 95.4611,2803.76 95.9331,2804.41 96.4111,2805.06 96.8951,2805.7 97.3871,2806.33 97.8851,2806.96 98.3891,2807.59 98.8991,2808.21 99.4151,2808.83 99.9391,2809.43 100.467,2810.04 101.003,2810.64 101.543,2811.23 102.091,2811.82 102.645,2812.4 103.203,2812.98 103.769,2813.55 104.339,2814.11 104.915,2814.67 105.497,2815.23 106.085,2815.77 106.679,2816.31 107.277,2816.85 107.883,2817.38 108.491,2817.9 109.107,2818.42 109.727,2818.93 110.353,2819.43 110.983,2819.93 111.619,2820.42 112.259,2820.91 112.905,2821.38 113.555,2821.86 114.209,2822.32 114.869,2822.78 115.533,2823.23 116.203,2823.67 116.875,2824.11 117.553,2824.54 118.235,2824.97 118.923,2825.38 119.613,2825.79 120.307,2826.2 121.007,2826.59 121.709,2826.98 122.417,2827.36 123.127,2827.73 123.841,2828.1 124.561,2828.46 125.281,2828.81 126.007,2829.16 126.737,2829.5 127.469,2829.83 128.203,2830.15 128.943,2830.46 129.685,2830.77 130.429,2831.07 131.179,2831.36 131.929,2831.65 132.683,2831.92 133.439,2832.19 134.199,2832.45 134.961,2832.71 135.725,2832.95 136.493,2833.19 137.263,2833.42 138.035,2833.64 138.809,2833.86 139.585,2834.06 140.363,2834.26 141.143,2834.45 141.925,2834.64 142.709,2834.81 143.495,2834.98 144.281,2835.14 145.071,2835.29 145.861,2835.43 146.653,2835.56 147.445,2835.69 148.241,2835.81 149.035,2835.92 149.833,2836.02 150.629,2836.12 151.429,2836.2 152.227,2836.28 153.027,2836.35 153.829,2836.41 154.631,2836.46 155.433,2836.51 156.235,2836.55 157.037,2836.57 157.839,2836.59 158.643,2836.61 159.447,2836.61 3190.94,2836.61 3191.75,2836.61 3192.55,2836.59 3193.35,2836.57 3194.15,2836.55 3194.96,2836.51 3195.76,2836.46 3196.56,2836.41 3197.36,2836.35 3198.16,2836.28 3198.96,2836.2 3199.76,2836.12 3200.56,2836.02 3201.35,2835.92 3202.15,2835.81 3202.94,2835.69 3203.74,2835.56 3204.53,2835.43 3205.32,2835.29 3206.11,2835.14 3206.89,2834.98 3207.68,2834.81 3208.46,2834.64 3209.25,2834.45 3210.03,2834.26 3210.8,2834.06 3211.58,2833.86 3212.35,2833.64 3213.13,2833.42 3213.9,2833.19 3214.66,2832.95 3215.43,2832.71 3216.19,2832.45 3216.95,2832.19 3217.71,2831.92 3218.46,2831.65 3219.21,2831.36 3219.96,2831.07 3220.7,2830.77 3221.45,2830.46 3222.19,2830.15 3222.92,2829.83 3223.65,2829.5 3224.38,2829.16 3225.11,2828.81 3225.83,2828.46 3226.55,2828.1 3227.26,2827.73 3227.97,2827.36 3228.68,2826.98 3229.38,2826.59 3230.08,2826.2 3230.78,2825.79 3231.47,2825.38 3232.15,2824.97 3232.84,2824.54 3233.51,2824.11 3234.19,2823.67 3234.86,2823.23 3235.52,2822.78 3236.18,2822.32 3236.83,2821.86 3237.48,2821.38 3238.13,2820.91 3238.77,2820.42 3239.41,2819.93 3240.04,2819.43 3240.66,2818.93 3241.28,2818.42 3241.9,2817.9 3242.51,2817.38 3243.11,2816.85 3243.71,2816.31 3244.3,2815.77 3244.89,2815.23 3245.47,2814.67 3246.05,2814.11 3246.62,2813.55 3247.19,2812.98 3247.74,2812.4 3248.3,2811.82 3248.85,2811.23 3249.39,2810.64 3249.92,2810.04 3250.45,2809.43 3250.97,2808.83 3251.49,2808.21 3252,2807.59 3252.5,2806.96 3253,2806.33 3253.49,2805.7 3253.98,2805.06 3254.46,2804.41 3254.93,2803.76 3255.39,2803.11 3255.85,2802.45 3256.3,2801.78 3256.75,2801.11 3257.18,2800.44 3257.61,2799.76 3258.04,2799.08 3258.45,2798.39 3258.86,2797.7 3259.27,2797.01 3259.66,2796.31 3260.05,2795.61 3260.43,2794.9 3260.81,2794.19 3261.17,2793.48 3261.53,2792.76 3261.89,2792.04 3262.23,2791.31 3262.57,2790.58 3262.9,2789.85 3263.22,2789.11 3263.53,2788.37 3263.84,2787.63 3264.14,2786.89 3264.43,2786.14 3264.72,2785.39 3265,2784.63 3265.26,2783.88 3265.53,2783.12 3265.78,2782.36 3266.03,2781.59 3266.26,2780.82 3266.49,2780.05 3266.72,2779.28 3266.93,2778.51 3267.14,2777.73 3267.34,2776.95 3267.53,2776.17 3267.71,2775.39 3267.88,2774.61 3268.05,2773.82 3268.21,2773.04 3268.36,2772.25 3268.5,2771.46 3268.64,2770.66 3268.76,2769.87 3268.88,2769.08 3268.99,2768.28 3269.09,2767.48 3269.19,2766.69 3269.27,2765.89 3269.35,2765.09 3269.42,2764.29 3269.48,2763.49 3269.54,2762.69 3269.58,2761.88 3269.62,2761.08 3269.65,2760.28 3269.67,2759.48 3269.68,2758.67 3269.68,2757.87 3269.68,159.448 3269.68,158.644 3269.67,157.84 3269.65,157.038 3269.62,156.236 3269.58,155.434 3269.54,154.632 3269.48,153.83 3269.42,153.028 3269.35,152.228 3269.27,151.43 3269.19,150.63 3269.09,149.834 3268.99,149.036 3268.88,148.242 3268.76,147.446 3268.64,146.654 3268.5,145.862 3268.36,145.072 3268.21,144.282 3268.05,143.496 3267.88,142.71 3267.71,141.926 3267.53,141.144 3267.34,140.364 3267.14,139.586 3266.93,138.81 3266.72,138.036 3266.49,137.264 3266.26,136.494 3266.03,135.726 3265.78,134.962 3265.53,134.2 3265.26,133.44 3265,132.684 3264.72,131.93 3264.43,131.18 3264.14,130.43 3263.84,129.686 3263.53,128.944 3263.22,128.204 3262.9,127.47 3262.57,126.738 3262.23,126.008 3261.89,125.282 3261.53,124.562 3261.17,123.842 3260.81,123.128 3260.43,122.418 3260.05,121.71 3259.66,121.008 3259.27,120.308 3258.86,119.614 3258.45,118.924 3258.04,118.236 3257.61,117.554 3257.18,116.876 3256.75,116.204 3256.3,115.534 3255.85,114.87 3255.39,114.21 3254.93,113.556 3254.46,112.906 3253.98,112.26 3253.49,111.62 3253,110.984 3252.5,110.354 3252,109.728 3251.49,109.108 3250.97,108.492 3250.45,107.884 3249.92,107.278 3249.39,106.68 3248.85,106.086 3248.3,105.498 3247.74,104.916 3247.19,104.34 3246.62,103.77 3246.05,103.204 3245.47,102.646 3244.89,102.092 3244.3,101.544 3243.71,101.004 3243.11,100.468 3242.51,99.9405 3241.9,99.4165 3241.28,98.9005 3240.66,98.3905 3240.04,97.8865 3239.41,97.3885 3238.77,96.8965 3238.13,96.4125 3237.48,95.9345 3236.83,95.4625 3236.18,94.9985 3235.52,94.5405 3234.86,94.0885 3234.19,93.6445 3233.51,93.2065 3232.84,92.7765 3232.15,92.3525 3231.47,91.9365 3230.78,91.5265 3230.08,91.1225 3229.38,90.7265 3228.68,90.3385 3227.97,89.9585 3227.26,89.5845 3226.55,89.2165 3225.83,88.8565 3225.11,88.5045 3224.38,88.1605 3223.65,87.8225 3222.92,87.4925 3222.19,87.1705 3221.45,86.8565 3220.7,86.5485 3219.96,86.2485 3219.21,85.9565 3218.46,85.6725 3217.71,85.3945 3216.95,85.1265 3216.19,84.8645 3215.43,84.6105 3214.66,84.3645 3213.9,84.1265 3213.13,83.8965 3212.35,83.6745 3211.58,83.4605 3210.8,83.2545 3210.03,83.0545 3209.25,82.8645 3208.46,82.6825 3207.68,82.5065 3206.89,82.3405 3206.11,82.1805 3205.32,82.0305 3204.53,81.8885 3203.74,81.7545 3202.94,81.6265 3202.15,81.5085 3201.35,81.3985 3200.56,81.2965 3199.76,81.2025 3198.96,81.1165 3198.16,81.0385 3197.36,80.9685 3196.56,80.9085 3195.76,80.8545 3194.96,80.8105 3194.15,80.7725 3193.35,80.7445 3192.55,80.7245 3191.75,80.7105 3190.94,80.7065 159.447,80.7065 158.643,80.7105 157.839,80.7245 157.037,80.7445 156.235,80.7725 155.433,80.8105 154.631,80.8545 153.829,80.9085 153.027,80.9685 152.227,81.0385 151.429,81.1165 150.629,81.2025 149.833,81.2965 149.035,81.3985 148.241,81.5085 147.445,81.6265 146.653,81.7545 145.861,81.8885 145.071,82.0305 144.281,82.1805 143.495,82.3405 142.709,82.5065 141.925,82.6825 141.143,82.8645 140.363,83.0545 139.585,83.2545 138.809,83.4605 138.035,83.6745 137.263,83.8965 136.493,84.1265 135.725,84.3645 134.961,84.6105 134.199,84.8645 133.439,85.1265 132.683,85.3945 131.929,85.6725 131.179,85.9565 130.429,86.2485 129.685,86.5485 128.943,86.8565 128.203,87.1705 127.469,87.4925 126.737,87.8225 126.007,88.1605 125.281,88.5045 124.561,88.8565 123.841,89.2165 123.127,89.5845 122.417,89.9585 121.709,90.3385 121.007,90.7265 120.307,91.1225 119.613,91.5265 118.923,91.9365 118.235,92.3525 117.553,92.7765 116.875,93.2065 116.203,93.6445 115.533,94.0885 114.869,94.5405 114.209,94.9985 113.555,95.4625 112.905,95.9345 112.259,96.4125 111.619,96.8965 110.983,97.3885 110.353,97.8865 109.727,98.3905 109.107,98.9005 108.491,99.4165 107.883,99.9405 107.277,100.468 106.679,101.004 106.085,101.544 105.497,102.092 104.915,102.646 104.339,103.204 103.769,103.77 103.203,104.34 102.645,104.916 102.091,105.498 101.543,106.086 101.003,106.68 100.467,107.278 99.9391,107.884 99.4151,108.492 98.8991,109.108 98.3891,109.728 97.8851,110.354 97.3871,110.984 96.8951,111.62 96.4111,112.26 95.9331,112.906 95.4611,113.556 94.9971,114.21 94.5391,114.87 94.0871,115.534 93.6431,116.204 93.2051,116.876 92.7751,117.554 92.3511,118.236 91.9351,118.924 91.5251,119.614 91.1211,120.308 90.7251,121.008 90.3371,121.71 89.9571,122.418 89.5831,123.128 89.2151,123.842 88.8551,124.562 88.5031,125.282 88.1591,126.008 87.8211,126.738 87.4911,127.47 87.1691,128.204 86.8551,128.944 86.5471,129.686 86.2471,130.43 85.9551,131.18 85.6711,131.93 85.3931,132.684 85.1251,133.44 84.8631,134.2 84.6091,134.962 84.3631,135.726 84.1251,136.494 83.8951,137.264 83.6731,138.036 83.4591,138.81 83.2531,139.586 83.0531,140.364 82.8631,141.144 82.6811,141.926 82.5051,142.71 82.3391,143.496 82.1791,144.282 82.0291,145.072 81.8871,145.862 81.7531,146.654 81.6251,147.446 81.5071,148.242 81.3971,149.036 81.2951,149.834 81.2011,150.63 81.1151,151.43 81.0371,152.228 80.9671,153.028 80.9071,153.83 80.8531,154.632 80.8091,155.434 80.7711,156.236 80.7431,157.038 80.7231,157.84 80.7091,158.644 80.7051,159.448 80.7051,2757.87" style="stroke:rgb(103,198,105);stroke-width:157.480315;fill:none;stroke-opacity:0.5;stroke-linecap:round;stroke-linejoin:round;;fill:none"/>
<polyline points="80.7051,2757.87 80.7091,2758.67 80.7231,2759.48 80.7431,2760.28 80.7711,2761.08 80.8091,2761.88 80.8531,2762.69 80.9071,2763.49 80.9671,2764.29 81.0371,2765.09 81.1151,2765.89 81.2011,2766.69 81.2951,2767.48 81.3971,2768.28 81.5071,2769.08 81.6251,2769.87 81.7531,2770.66 81.8871,2771.46 82.0291,2772.25 82.1791,2773.04 82.3391,2773.82 82.5051,2774.61 82.6811,2775.39 82.8631,2776.17 83.0531,2776.95 83.2531,2777.73 83.4591,2778.51 83.6731,2779.28 83.8951,2780.05 84.1251,2780.82 84.3631,2781.59 84.6091,2782.36 84.8631,2783.12 85.1251,2783.88 85.3931,2784.63 85.6711,2785.39 85.9551,2786.14 86.2471,2786.89 86.5471,2787.63 86.8551,2788.37 87.1691,2789.11 87.4911,2789.85 87.8211,2790.58 88.1591,2791.31 88.5031,2792.04 88.8551,2792.76 89.2151,2793.48 89.5831,2794.19 89.9571,2794.9 90.3371,2795.61 90.7251,2796.31 91.1211,2797.01 91.5251,2797.7 91.9351,2798.39 92.3511,2799.08 92.7751,2799.76 93.2051,2800.44 93.6431,2801.11 94.0871,2801.78 94.5391,2802.45 94.9971,2803.11 95.4611,2803.76 95.9331,2804.41 96.4111,2805.06 96.8951,2805.7 97.3871,2806.33 97.8851,2806.96 98.3891,2807.59 98.8991,2808.21 99.4151,2808.83 99.9391,2809.43 100.467,2810.04 101.003,2810.64 101.543,2811.23 102.091,2811.82 102.645,2812.4 103.203,2812.98 103.769,2813.55 104.339,2814.11 104.915,2814.67 105.497,2815.23 106.085,2815.77 106.679,2816.31 107.277,2816.85 107.883,2817.38 108.491,2817.9 109.107,2818.42 109.727,2818.93 110.353,2819.43 110.983,2819.93 111.619,2820.42 112.259,2820.91 112.905,2821.38 113.555,2821.86 114.209,2822.32 114.869,2822.78 115.533,2823.23 116.203,2823.67 116.875,2824.11 117.553,2824.54 118.235,2824.97 118.923,2825.38 119.613,2825.79 120.307,2826.2 121.007,2826.59 121.709,2826.98 122.417,2827.36 123.127,2827.73 123.841,2828.1 124.561,2828.46 125.281,2828.81 126.007,2829.16 126.737,2829.5 127.469,2829.83 128.203,2830.15 128.943,2830.46 129.685,2830.77 130.429,2831.07 131.179,2831.36 131.929,2831.65 132.683,2831.92 133.439,2832.19 134.199,2832.45 134.961,2832.71 135.725,2832.95 136.493,2833.19 137.263,2833.42 138.035,2833.64 138.809,2833.86 139.585,2834.06 140.363,2834.26 141.143,2834.45 141.925,2834.64 142.709,2834.81 143.495,2834.98 144.281,2835.14 145.071,2835.29 145.861,2835.43 146.653,2835.56 147.445,2835.69 148.241,2835.81 149.035,2835.92 149.833,2836.02 150.629,2836.12 151.429,2836.2 152.227,2836.28 153.027,2836.35 153.829,2836.41 154.631,2836.46 155.433,2836.51 156.235,2836.55 157.037,2836.57 157.839,2836.59 158.643,2836.61 159.447,2836.61 3190.94,2836.61 3191.75,2836.61 3192.55,2836.59 3193.35,2836.57 3194.15,2836.55 3194.96,2836.51 3195.76,2836.46 3196.56,2836.41 3197.36,2836.35 3198.16,2836.28 3198.96,2836.2 3199.76,2836.12 3200.56,2836.02 3201.35,2835.92 3202.15,2835.81 3202.94,2835.69 3203.74,2835.56 3204.53,2835.43 3205.32,2835.29 3206.11,2835.14 3206.89,2834.98 3207.68,2834.81 3208.46,2834.64 3209.25,2834.45 3210.03,2834.26 3210.8,2834.06 3211.58,2833.86 3212.35,2833.64 3213.13,2833.42 3213.9,2833.19 3214.66,2832.95 3215.43,2832.71 3216.19,2832.45 3216.95,2832.19 3217.71,2831.92 3218.46,2831.65 3219.21,2831.36 3219.96,2831.07 3220.7,2830.77 3221.45,2830.46 3222.19,2830.15 3222.92,2829.83 3223.65,2829.5 3224.38,2829.16 3225.11,2828.81 3225.83,2828.46 3226.55,2828.1 3227.26,2827.73 3227.97,2827.36 3228.68,2826.98 3229.38,2826.59 3230.08,2826.2 3230.78,2825.79 3231.47,2825.38 3232.15,2824.97 3232.84,2824.54 3233.51,2824.11 3234.19,2823.67 3234.86,2823.23 3235.52,2822.78 3236.18,2822.32 3236.83,2821.86 3237.48,2821.38 3238.13,2820.91 3238.77,2820.42 3239.41,2819.93 3240.04,2819.43 3240.66,2818.93 3241.28,2818.42 3241.9,2817.9 3242.51,2817.38 3243.11,2816.85 3243.71,2816.31 3244.3,2815.77 3244.89,2815.23 3245.47,2814.67 3246.05,2814.11 3246.62,2813.55 3247.19,2812.98 3247.74,2812.4 3248.3,2811.82 3248.85,2811.23 3249.39,2810.64 3249.92,2810.04 3250.45,2809.43 3250.97,2808.83 3251.49,2808.21 3252,2807.59 3252.5,2806.96 3253,2806.33 3253.49,2805.7 3253.98,2805.06 3254.46,2804.41 3254.93,2803.76 3255.39,2803.11 3255.85,2802.45 3256.3,2801.78 3256.75,2801.11 3257.18,2800.44 3257.61,2799.76 3258.04,2799.08 3258.45,2798.39 3258.86,2797.7 3259.27,2797.01 3259.66,2796.31 3260.05,2795.61 3260.43,2794.9 3260.81,2794.19 3261.17,2793.48 3261.53,2792.76 3261.89,2792.04 3262.23,2791.31 3262.57,2790.58 3262.9,2789.85 3263.22,2789.11 3263.53,2788.37 3263.84,2787.63 3264.14,2786.89 3264.43,2786.14 3264.72,2785.39 3265,2784.63 3265.26,2783.88 3265.53,2783.12 3265.78,2782.36 3266.03,2781.59 3266.26,2780.82 3266.49,2780.05 3266.72,2779.28 3266.93,2778.51 3267.14,2777.73 3267.34,2776.95 3267.53,2776.17 3267.71,2775.39 3267.88,2774.61 3268.05,2773.82 3268.21,2773.04 3268.36,2772.25 3268.5,2771.46 3268.64,2770.66 3268.76,2769.87 3268.88,2769.08 3268.99,2768.28 3269.09,2767.48 3269.19,2766.69 3269.27,2765.89 3269.35,2765.09 3269.42,2764.29 3269.48,2763.49 3269.54,2762.69 3269.58,2761.88 3269.62,2761.08 3269.65,2760.28 3269.67,2759.48 3269.68,2758.67 3269.68,2757.87 3269.68,159.448 3269.68,158.644 3269.67,157.84 3269.65,157.038 3269.62,156.236 3269.58,155.434 3269.54,154.632 3269.48,153.83 3269.42,153.028 3269.35,152.228 3269.27,151.43 3269.19,150.63 3269.09,149.834 3268.99,149.036 3268.88,148.242 3268.76,147.446 3268.64,146.654 3268.5,145.862 3268.36,145.072 3268.21,144.282 3268.05,143.496 3267.88,142.71 3267.71,141.926 3267.53,141.144 3267.34,140.364 3267.14,139.586 3266.93,138.81 3266.72,138.036 3266.49,137.264 3266.26,136.494 3266.03,135.726 3265.78,134.962 3265.53,134.2 3265.26,133.44 3265,132.684 3264.72,131.93 3264.43,131.18 3264.14,130.43 3263.84,129.686 3263.53,128.944 3263.22,128.204 3262.9,127.47 3262.57,126.738 3262.23,126.008 3261.89,125.282 3261.53,124.562 3261.17,123.842 3260.81,123.128 3260.43,122.418 3260.05,121.71 3259.66,121.008 3259.27,120.308 3258.86,119.614 3258.45,118.924 3258.04,118.236 3257.61,117.554 3257.18,116.876 3256.75,116.204 3256.3,115.534 3255.85,114.87 3255.39,114.21 3254.93,113.556 3254.46,112.906 3253.98,112.26 3253.49,111.62 3253,110.984 3252.5,110.354 3252,109.728 3251.49,109.108 3250.97,108.492 3250.45,107.884 3249.92,107.278 3249.39,106.68 3248.85,106.086 3248.3,105.498 3247.74,104.916 3247.19,104.34 3246.62,103.77 3246.05,103.204 3245.47,102.646 3244.89,102.092 3244.3,101.544 3243.71,101.004 3243.11,100.468 3242.51,99.9405 3241.9,99.4165 3241.28,98.9005 3240.66,98.3905 3240.04,97.8865 3239.41,97.3885 3238.77,96.8965 3238.13,96.4125 3237.48,95.9345 3236.83,95.4625 3236.18,94.9985 3235.52,94.5405 3234.86,94.0885 3234.19,93.6445 3233.51,93.2065 3232.84,92.7765 3232.15,92.3525 3231.47,91.9365 3230.78,91.5265 3230.08,91.1225 3229.38,90.7265 3228.68,90.3385 3227.97,89.9585 3227.26,89.5845 3226.55,89.2165 3225.83,88.8565 3225.11,88.5045 3224.38,88.1605 3223.65,87.8225 3222.92,87.4925 3222.19,87.1705 3221.45,86.8565 3220.7,86.5485 3219.96,86.2485 3219.21,85.9565 3218.46,85.6725 3217.71,85.3945 3216.95,85.1265 3216.19,84.8645 3215.43,84.6105 3214.66,84.3645 3213.9,84.1265 3213.13,83.8965 3212.35,83.6745 3211.58,83.4605 3210.8,83.2545 3210.03,83.0545 3209.25,82.8645 3208.46,82.6825 3207.68,82.5065 3206.89,82.3405 3206.11,82.1805 3205.32,82.0305 3204.53,81.8885 3203.74,81.7545 3202.94,81.6265 3202.15,81.5085 3201.35,81.3985 3200.56,81.2965 3199.76,81.2025 3198.96,81.1165 3198.16,81.0385 3197.36,80.9685 3196.56,80.9085 3195.76,80.8545 3194.96,80.8105 3194.15,80.7725 3193.35,80.7445 3192.55,80.7245 3191.75,80.7105 3190.94,80.7065 159.447,80.7065 158.643,80.7105 157.839,80.7245 157.037,80.7445 156.235,80.7725 155.433,80.8105 154.631,80.8545 153.829,80.9085 153.027,80.9685 152.227,81.0385 151.429,81.1165 150.629,81.2025 149.833,81.2965 149.035,81.3985 148.241,81.5085 147.445,81.6265 146.653,81.7545 145.861,81.8885 145.071,82.0305 144.281,82.1805 143.495,82.3405 142.709,82.5065 141.925,82.6825 141.143,82.8645 140.363,83.0545 139.585,83.2545 138.809,83.4605 138.035,83.6745 137.263,83.8965 136.493,84.1265 135.725,84.3645 134.961,84.6105 134.199,84.8645 133.439,85.1265 132.683,85.3945 131.929,85.6725 131.179,85.9565 130.429,86.2485 129.685,86.5485 128.943,86.8565 128.203,87.1705 127.469,87.4925 126.737,87.8225 126.007,88.1605 125.281,88.5045 124.561,88.8565 123.841,89.2165 123.127,89.5845 122.417,89.9585 121.709,90.3385 121.007,90.7265 120.307,91.1225 119.613,91.5265 118.923,91.9365 118.235,92.3525 117.553,92.7765 116.875,93.2065 116.203,93.6445 115.533,94.0885 114.869,94.5405 114.209,94.9985 113.555,95.4625 112.905,95.9345 112.259,96.4125 111.619,96.8965 110.983,97.3885 110.353,97.8865 109.727,98.3905 109.107,98.9005 108.491,99.4165 107.883,99.9405 107.277,100.468 106.679,101.004 106.085,101.544 105.497,102.092 104.915,102.646 104.339,103.204 103.769,103.77 103.203,104.34 102.645,104.916 102.091,105.498 101.543,106.086 101.003,106.68 100.467,107.278 99.9391,107.884 99.4151,108.492 98.8991,109.108 98.3891,109.728 97.8851,110.354 97.3871,110.984 96.8951,111.62 96.4111,112.26 95.9331,112.906 95.4611,113.556 94.9971,114.21 94.5391,114.87 94.0871,115.534 93.6431,116.204 93.2051,116.876 92.7751,117.554 92.3511,118.236 91.9351,118.924 91.5251,119.614 91.1211,120.308 90.7251,121.008 90.3371,121.71 89.9571,122.418 89.5831,123.128 89.2151,123.842 88.8551,124.562 88.5031,125.282 88.1591,126.008 87.8211,126.738 87.4911,127.47 87.1691,128.204 86.8551,128.944 86.5471,129.686 86.2471,130.43 85.9551,131.18 85.6711,131.93 85.3931,132.684 85.1251,133.44 84.8631,134.2 84.6091,134.962 84.3631,135.726 84.1251,136.494 83.8951,137.264 83.6731,138.036 83.4591,138.81 83.2531,139.586 83.0531,140.364 82.8631,141.144 82.6811,141.926 82.5051,142.71 82.3391,143.496 82.1791,144.282 82.0291,145.072 81.8871,145.862 81.7531,146.654 81.6251,147.446 81.5071,148.242 81.3971,149.036 81.2951,149.834 81.2011,150.63 81.1151,151.43 81.0371,152.228 80.9671,153.028 80.9071,153.83 80.8531,154.632 80.8091,155.434 80.7711,156.236 80.7431,157.038 80.7231,157.84 80.7091,158.644 80.7051,159.448 80.7051,2757.87" style="stroke:rgb(0,0,0);stroke-width:1px;fill:none;stroke-opacity:1;stroke-linecap:round;stroke-linejoin:round;;fill:none"/>
<g fill-rule="evenodd"><path d="M 159.447,2757.87 L 159.447,159.448 L 3190.94,159.448 L 3190.94,2757.87 L 159.447,2757.87 z " style="fill-opacity:1.000000;fill:rgb(103,198,105);stroke:rgb(0,0,0);stroke-width:2"/></g>
</svg>
