%TF.GenerationSoftware,KiCad,Pcbnew,9.0.6-9.0.6~ubuntu24.04.1*%
%TF.CreationDate,2025-12-31T19:02:38+05:30*%
%TF.ProjectId,wled-esp01-controller,776c6564-2d65-4737-9030-312d636f6e74,rev?*%
%TF.SameCoordinates,PX5ee3fe0PY57f9f90*%
%TF.FileFunction,Copper,L2,Bot*%
%TF.FilePolarity,Positive*%
%FSLAX46Y46*%
G04 Gerber Fmt 4.6, Leading zero omitted, Abs format (unit mm)*
G04 Created by KiCad (PCBNEW 9.0.6-9.0.6~ubuntu24.04.1) date 2025-12-31 19:02:38*
%MOMM*%
%LPD*%
G01*
G04 APERTURE LIST*
G04 Aperture macros list*
%AMRoundRect*
0 Rectangle with rounded corners*
0 $1 Rounding radius*
0 $2 $3 $4 $5 $6 $7 $8 $9 X,Y pos of 4 corners*
0 Add a 4 corners polygon primitive as box body*
4,1,4,$2,$3,$4,$5,$6,$7,$8,$9,$2,$3,0*
0 Add four circle primitives for the rounded corners*
1,1,$1+$1,$2,$3*
1,1,$1+$1,$4,$5*
1,1,$1+$1,$6,$7*
1,1,$1+$1,$8,$9*
0 Add four rect primitives between the rounded corners*
20,1,$1+$1,$2,$3,$4,$5,0*
20,1,$1+$1,$4,$5,$6,$7,0*
20,1,$1+$1,$6,$7,$8,$9,0*
20,1,$1+$1,$8,$9,$2,$3,0*%
G04 Aperture macros list end*
%TA.AperFunction,SMDPad,CuDef*%
%ADD10RoundRect,0.250000X0.450000X-0.350000X0.450000X0.350000X-0.450000X0.350000X-0.450000X-0.350000X0*%
%TD*%
%TA.AperFunction,SMDPad,CuDef*%
%ADD11RoundRect,0.250000X0.770000X-0.350000X0.770000X0.350000X-0.770000X0.350000X-0.770000X-0.350000X0*%
%TD*%
%TA.AperFunction,ComponentPad*%
%ADD12R,2.040000X1.700000*%
%TD*%
%TA.AperFunction,ComponentPad*%
%ADD13C,2.040000*%
%TD*%
%TA.AperFunction,ComponentPad*%
%ADD14C,1.600000*%
%TD*%
%TA.AperFunction,SMDPad,CuDef*%
%ADD15RoundRect,0.375000X-0.625000X-0.375000X0.625000X-0.375000X0.625000X0.375000X-0.625000X0.375000X0*%
%TD*%
%TA.AperFunction,SMDPad,CuDef*%
%ADD16RoundRect,0.500000X-0.500000X-1.400000X0.500000X-1.400000X0.500000X1.400000X-0.500000X1.400000X0*%
%TD*%
%TA.AperFunction,ComponentPad*%
%ADD17R,1.508000X2.040000*%
%TD*%
%TA.AperFunction,SMDPad,CuDef*%
%ADD18RoundRect,0.250000X0.350000X0.770000X-0.350000X0.770000X-0.350000X-0.770000X0.350000X-0.770000X0*%
%TD*%
%TA.AperFunction,Conductor*%
%ADD19C,2.040000*%
%TD*%
%TA.AperFunction,Conductor*%
%ADD20C,1.800000*%
%TD*%
%TA.AperFunction,Conductor*%
%ADD21C,0.770000*%
%TD*%
G04 APERTURE END LIST*
D10*
%TO.P,R2,1*%
%TO.N,/3.3V*%
X22750000Y2500000D03*
D11*
%TO.P,R2,2*%
%TO.N,Net-(U2-CH_PD)*%
X22750000Y4500000D03*
%TD*%
D10*
%TO.P,R1,1*%
%TO.N,/3.3V*%
X17500000Y2500000D03*
D11*
%TO.P,R1,2*%
%TO.N,Net-(U2-~{RST})*%
X17500000Y4500000D03*
%TD*%
D12*
%TO.P,J2,1,Pin_1*%
%TO.N,+5V*%
X34500000Y24250000D03*
D13*
%TO.P,J2,2,Pin_2*%
%TO.N,WledData*%
X34500000Y21710000D03*
%TO.P,J2,3,Pin_3*%
%TO.N,GND*%
X34500000Y19170000D03*
%TD*%
%TO.P,C1,1*%
%TO.N,+5V*%
X8500000Y28500000D03*
D14*
%TO.P,C1,2*%
%TO.N,GND*%
X6000000Y28500000D03*
%TD*%
D15*
%TO.P,U1,1,GND*%
%TO.N,GND*%
X5100000Y9700000D03*
%TO.P,U1,2,VO*%
%TO.N,/3.3V*%
X5100000Y12000000D03*
D16*
X11400000Y12000000D03*
D15*
%TO.P,U1,3,VI*%
%TO.N,+5V*%
X5100000Y14300000D03*
%TD*%
D17*
%TO.P,U2,1,GND*%
%TO.N,GND*%
X25005000Y10540000D03*
D13*
%TO.P,U2,2,GPIO2*%
%TO.N,WledData*%
X22465000Y10540000D03*
%TO.P,U2,3,GPIO0*%
%TO.N,unconnected-(U2-GPIO0-Pad3)*%
X19925000Y10540000D03*
%TO.P,U2,4,RXD*%
%TO.N,unconnected-(U2-RXD-Pad4)*%
X17385000Y10540000D03*
%TO.P,U2,5,VCC*%
%TO.N,/3.3V*%
X17385000Y8000000D03*
%TO.P,U2,6,~{RST}*%
%TO.N,Net-(U2-~{RST})*%
X19925000Y8000000D03*
%TO.P,U2,7,CH_PD*%
%TO.N,Net-(U2-CH_PD)*%
X22465000Y8000000D03*
%TO.P,U2,8,TXD*%
%TO.N,unconnected-(U2-TXD-Pad8)*%
X25005000Y8000000D03*
%TD*%
D18*
%TO.P,R3,1*%
%TO.N,WledData*%
X18500000Y15750000D03*
%TO.P,R3,2*%
%TO.N,/3.3V*%
X16500000Y15750000D03*
%TD*%
D12*
%TO.P,J1,1,Pin_1*%
%TO.N,+5V*%
X6750000Y22540000D03*
D13*
%TO.P,J1,2,Pin_2*%
%TO.N,GND*%
X6750000Y20000000D03*
%TD*%
%TO.P,C2,1*%
%TO.N,/3.3V*%
X7250000Y4250000D03*
D14*
%TO.P,C2,2*%
%TO.N,GND*%
X4750000Y4250000D03*
%TD*%
D19*
%TO.N,+5V*%
X13500000Y24250000D02*
X34500000Y24250000D01*
D20*
X6750000Y22540000D02*
X11790000Y22540000D01*
D21*
X5100000Y14300000D02*
X7300000Y14300000D01*
X8500000Y27250000D02*
X12500000Y23250000D01*
D19*
X12500000Y23250000D02*
X13500000Y24250000D01*
D21*
X7300000Y14300000D02*
X11790000Y18790000D01*
X8500000Y28500000D02*
X8500000Y27250000D01*
X11790000Y18790000D02*
X11790000Y22540000D01*
X11790000Y22540000D02*
X12500000Y23250000D01*
%TO.N,WledData*%
X27290000Y21710000D02*
X34500000Y21710000D01*
X22465000Y16965000D02*
X27250000Y21750000D01*
X22465000Y10540000D02*
X22465000Y16965000D01*
X27250000Y21750000D02*
X27290000Y21710000D01*
X18500000Y15750000D02*
X22465000Y11785000D01*
X22465000Y11785000D02*
X22465000Y10540000D01*
%TO.N,/3.3V*%
X14500000Y2500000D02*
X10875000Y6125000D01*
X17500000Y2500000D02*
X14500000Y2500000D01*
X15150000Y15750000D02*
X16500000Y15750000D01*
X15400000Y8000000D02*
X14075000Y9325000D01*
X5100000Y12000000D02*
X11400000Y12000000D01*
X7250000Y4250000D02*
X9000000Y4250000D01*
X14075000Y9325000D02*
X11400000Y12000000D01*
X17500000Y2500000D02*
X22750000Y2500000D01*
X11400000Y12000000D02*
X15150000Y15750000D01*
X10875000Y6125000D02*
X14075000Y9325000D01*
X9000000Y4250000D02*
X10875000Y6125000D01*
X17385000Y8000000D02*
X15400000Y8000000D01*
%TO.N,Net-(U2-~{RST})*%
X17500000Y4500000D02*
X19925000Y6925000D01*
X19925000Y6925000D02*
X19925000Y8000000D01*
%TO.N,Net-(U2-CH_PD)*%
X22750000Y4500000D02*
X22750000Y7715000D01*
X22750000Y7715000D02*
X22465000Y8000000D01*
%TD*%
%TA.AperFunction,Conductor*%
%TO.N,GND*%
G36*
X6220111Y20867597D02*
G01*
X6264458Y20839096D01*
X6620591Y20482963D01*
X6557007Y20465925D01*
X6442993Y20400099D01*
X6349901Y20307007D01*
X6284075Y20192993D01*
X6267037Y20129409D01*
X5910904Y20485542D01*
X5877419Y20546865D01*
X5882403Y20616557D01*
X5910904Y20660904D01*
X6089096Y20839096D01*
X6150419Y20872581D01*
X6220111Y20867597D01*
G37*
%TD.AperFunction*%
%TA.AperFunction,Conductor*%
G36*
X38442539Y32979815D02*
G01*
X38488294Y32927011D01*
X38499500Y32875500D01*
X38499500Y124500D01*
X38479815Y57461D01*
X38427011Y11706D01*
X38375500Y500D01*
X124500Y500D01*
X57461Y20185D01*
X11706Y72989D01*
X500Y124500D01*
X500Y4381095D01*
X2750000Y4381095D01*
X2750000Y4118906D01*
X2784220Y3858991D01*
X2784222Y3858980D01*
X2852075Y3605745D01*
X2952404Y3363529D01*
X2952409Y3363518D01*
X3083488Y3136484D01*
X3083494Y3136476D01*
X3170080Y3023635D01*
X4350000Y4203555D01*
X4350000Y4197339D01*
X4377259Y4095606D01*
X4429920Y4004394D01*
X4504394Y3929920D01*
X4595606Y3877259D01*
X4697339Y3850000D01*
X4703553Y3850000D01*
X3523633Y2670083D01*
X3523633Y2670082D01*
X3636475Y2583495D01*
X3636483Y2583489D01*
X3863517Y2452410D01*
X3863528Y2452405D01*
X4105744Y2352076D01*
X4358979Y2284223D01*
X4358990Y2284221D01*
X4618905Y2250001D01*
X4618920Y2250000D01*
X4881080Y2250000D01*
X4881094Y2250001D01*
X5141009Y2284221D01*
X5141020Y2284223D01*
X5394255Y2352076D01*
X5636471Y2452405D01*
X5636482Y2452410D01*
X5863516Y2583489D01*
X5863534Y2583501D01*
X5976365Y2670081D01*
X5976365Y2670083D01*
X4796447Y3850000D01*
X4802661Y3850000D01*
X4904394Y3877259D01*
X4995606Y3929920D01*
X5070080Y4004394D01*
X5122741Y4095606D01*
X5150000Y4197339D01*
X5150000Y4203553D01*
X6073054Y3280499D01*
X6085690Y3265704D01*
X6090222Y3259467D01*
X6090229Y3259458D01*
X6180351Y3169337D01*
X6259461Y3090227D01*
X6259464Y3090225D01*
X6265701Y3085693D01*
X6326009Y3041878D01*
X6453084Y2949552D01*
X6550295Y2900020D01*
X6666325Y2840899D01*
X6666327Y2840899D01*
X6666330Y2840897D01*
X6893949Y2766939D01*
X7015735Y2747651D01*
X7130329Y2729500D01*
X7130334Y2729500D01*
X7369671Y2729500D01*
X7474135Y2746047D01*
X7606051Y2766939D01*
X7833670Y2840897D01*
X8046916Y2949552D01*
X8240539Y3090227D01*
X8409773Y3259461D01*
X8448950Y3313385D01*
X8504279Y3356051D01*
X8549269Y3364500D01*
X8906652Y3364500D01*
X8906672Y3364499D01*
X8912786Y3364499D01*
X9087216Y3364499D01*
X9202307Y3387393D01*
X9258291Y3398529D01*
X9419442Y3465280D01*
X9523507Y3534814D01*
X9525070Y3535858D01*
X9533713Y3541634D01*
X9564474Y3562187D01*
X9687813Y3685526D01*
X9687814Y3685528D01*
X9694880Y3692594D01*
X9694883Y3692598D01*
X10787319Y4785035D01*
X10848640Y4818518D01*
X10918332Y4813534D01*
X10962679Y4785033D01*
X13935522Y1812190D01*
X13935526Y1812187D01*
X14080551Y1715284D01*
X14080557Y1715281D01*
X14080558Y1715280D01*
X14241709Y1648529D01*
X14241713Y1648529D01*
X14241714Y1648528D01*
X14412783Y1614499D01*
X14412786Y1614499D01*
X14593328Y1614499D01*
X14593348Y1614500D01*
X16472770Y1614500D01*
X16539809Y1594815D01*
X16560451Y1578181D01*
X16581344Y1557288D01*
X16730666Y1465186D01*
X16897203Y1410001D01*
X16999991Y1399500D01*
X18000008Y1399501D01*
X18000016Y1399502D01*
X18000019Y1399502D01*
X18056302Y1405252D01*
X18102797Y1410001D01*
X18269334Y1465186D01*
X18418656Y1557288D01*
X18439549Y1578181D01*
X18500872Y1611666D01*
X18527230Y1614500D01*
X21722770Y1614500D01*
X21789809Y1594815D01*
X21810451Y1578181D01*
X21831344Y1557288D01*
X21980666Y1465186D01*
X22147203Y1410001D01*
X22249991Y1399500D01*
X23250008Y1399501D01*
X23250016Y1399502D01*
X23250019Y1399502D01*
X23306302Y1405252D01*
X23352797Y1410001D01*
X23519334Y1465186D01*
X23668656Y1557288D01*
X23792712Y1681344D01*
X23884814Y1830666D01*
X23939999Y1997203D01*
X23950500Y2099991D01*
X23950499Y2900008D01*
X23939999Y3002797D01*
X23884814Y3169334D01*
X23805184Y3298435D01*
X23786745Y3365826D01*
X23807668Y3432489D01*
X23845625Y3469067D01*
X23988656Y3557288D01*
X24112712Y3681344D01*
X24204814Y3830666D01*
X24259999Y3997203D01*
X24270500Y4099991D01*
X24270499Y4900008D01*
X24259999Y5002797D01*
X24204814Y5169334D01*
X24112712Y5318656D01*
X23988656Y5442712D01*
X23839334Y5534814D01*
X23720495Y5574194D01*
X23663051Y5613966D01*
X23636228Y5678482D01*
X23635500Y5691899D01*
X23635500Y6919826D01*
X23655185Y6986865D01*
X23707989Y7032620D01*
X23777147Y7042564D01*
X23840703Y7013539D01*
X23847181Y7007507D01*
X24014462Y6840226D01*
X24014467Y6840222D01*
X24097410Y6779961D01*
X24208084Y6699552D01*
X24343961Y6630319D01*
X24421325Y6590899D01*
X24421327Y6590899D01*
X24421330Y6590897D01*
X24648949Y6516939D01*
X24770735Y6497651D01*
X24885329Y6479500D01*
X24885334Y6479500D01*
X25124671Y6479500D01*
X25229135Y6496047D01*
X25361051Y6516939D01*
X25588670Y6590897D01*
X25801916Y6699552D01*
X25995539Y6840227D01*
X26164773Y7009461D01*
X26305448Y7203084D01*
X26414103Y7416330D01*
X26488061Y7643949D01*
X26515378Y7816424D01*
X26525500Y7880329D01*
X26525500Y8119672D01*
X26488061Y8356052D01*
X26473329Y8401390D01*
X26461222Y8438650D01*
X26459227Y8508489D01*
X26495307Y8568322D01*
X26509081Y8579270D01*
X26528902Y8592847D01*
X26686156Y8750101D01*
X26811839Y8933576D01*
X26901663Y9137009D01*
X26901669Y9137025D01*
X26952582Y9353492D01*
X26952584Y9353508D01*
X26959000Y9445932D01*
X26959000Y10290000D01*
X25438012Y10290000D01*
X25470925Y10347007D01*
X25505000Y10474174D01*
X25505000Y10605826D01*
X25470925Y10732993D01*
X25438012Y10790000D01*
X26958999Y10790000D01*
X26958999Y11634068D01*
X26952584Y11726492D01*
X26952582Y11726508D01*
X26901669Y11942976D01*
X26901663Y11942992D01*
X26811839Y12146425D01*
X26686156Y12329900D01*
X26528899Y12487157D01*
X26345424Y12612840D01*
X26141991Y12702664D01*
X26141975Y12702670D01*
X25925508Y12753583D01*
X25925492Y12753585D01*
X25833069Y12760000D01*
X25255000Y12760000D01*
X25255000Y10973012D01*
X25197993Y11005925D01*
X25070826Y11040000D01*
X24939174Y11040000D01*
X24812007Y11005925D01*
X24755000Y10973012D01*
X24755000Y12760000D01*
X24176932Y12760000D01*
X24084508Y12753585D01*
X24084492Y12753583D01*
X23868024Y12702670D01*
X23868008Y12702664D01*
X23664575Y12612840D01*
X23544577Y12530639D01*
X23478145Y12508993D01*
X23410556Y12526698D01*
X23363269Y12578134D01*
X23350500Y12632939D01*
X23350500Y16546852D01*
X23370185Y16613891D01*
X23386819Y16634533D01*
X27540467Y20788181D01*
X27601790Y20821666D01*
X27628148Y20824500D01*
X32719847Y20824500D01*
X32786886Y20804815D01*
X32832641Y20752011D01*
X32842585Y20682853D01*
X32818223Y20625014D01*
X32650183Y20406021D01*
X32650173Y20406006D01*
X32504672Y20153991D01*
X32504665Y20153977D01*
X32393305Y19885128D01*
X32317984Y19604027D01*
X32280001Y19315516D01*
X32280000Y19315500D01*
X32280000Y19024501D01*
X32280001Y19024485D01*
X32317984Y18735974D01*
X32393305Y18454873D01*
X32504665Y18186024D01*
X32504672Y18186009D01*
X32650176Y17933989D01*
X32763172Y17786729D01*
X32763173Y17786729D01*
X34017037Y19040592D01*
X34034075Y18977007D01*
X34099901Y18862993D01*
X34192993Y18769901D01*
X34307007Y18704075D01*
X34370591Y18687038D01*
X33116727Y17433175D01*
X33116727Y17433174D01*
X33263988Y17320177D01*
X33516008Y17174673D01*
X33516023Y17174666D01*
X33784872Y17063306D01*
X34065973Y16987985D01*
X34354484Y16950002D01*
X34354501Y16950000D01*
X34645499Y16950000D01*
X34645515Y16950002D01*
X34934026Y16987985D01*
X35215127Y17063306D01*
X35483976Y17174666D01*
X35483990Y17174673D01*
X35736005Y17320174D01*
X35736012Y17320179D01*
X35883271Y17433175D01*
X34629408Y18687038D01*
X34692993Y18704075D01*
X34807007Y18769901D01*
X34900099Y18862993D01*
X34965925Y18977007D01*
X34982962Y19040592D01*
X36236825Y17786729D01*
X36349821Y17933988D01*
X36349826Y17933995D01*
X36495327Y18186010D01*
X36495334Y18186024D01*
X36606694Y18454873D01*
X36682015Y18735974D01*
X36719998Y19024485D01*
X36720000Y19024501D01*
X36720000Y19315500D01*
X36719998Y19315516D01*
X36682015Y19604027D01*
X36606694Y19885128D01*
X36495334Y20153977D01*
X36495327Y20153992D01*
X36349823Y20406012D01*
X36236825Y20553273D01*
X34982962Y19299410D01*
X34965925Y19362993D01*
X34900099Y19477007D01*
X34807007Y19570099D01*
X34692993Y19635925D01*
X34629408Y19652963D01*
X35883272Y20906827D01*
X35882405Y20920047D01*
X35862051Y20947922D01*
X35857896Y21017668D01*
X35868250Y21046154D01*
X35909103Y21126330D01*
X35983061Y21353949D01*
X36003953Y21485865D01*
X36020500Y21590329D01*
X36020500Y21829672D01*
X36000644Y21955030D01*
X35983061Y22066051D01*
X35909103Y22293670D01*
X35909101Y22293673D01*
X35909101Y22293675D01*
X35835657Y22437814D01*
X35800448Y22506916D01*
X35665119Y22693181D01*
X35659778Y22700533D01*
X35659774Y22700538D01*
X35637856Y22722456D01*
X35604371Y22783779D01*
X35609355Y22853471D01*
X35651227Y22909404D01*
X35682205Y22926319D01*
X35762326Y22956202D01*
X35762326Y22956203D01*
X35762331Y22956204D01*
X35877546Y23042454D01*
X35963796Y23157669D01*
X36014091Y23292517D01*
X36020500Y23352127D01*
X36020500Y24240539D01*
X36020500Y24369666D01*
X36020500Y24377261D01*
X36020499Y24377279D01*
X36020499Y25147871D01*
X36020498Y25147877D01*
X36014091Y25207484D01*
X35963797Y25342329D01*
X35963793Y25342336D01*
X35877547Y25457545D01*
X35877544Y25457548D01*
X35762335Y25543794D01*
X35762328Y25543798D01*
X35627482Y25594092D01*
X35627483Y25594092D01*
X35567883Y25600499D01*
X35567881Y25600500D01*
X35567873Y25600500D01*
X35567865Y25600500D01*
X35228455Y25600500D01*
X35172160Y25614015D01*
X35083674Y25659102D01*
X34856051Y25733061D01*
X34619671Y25770500D01*
X34619666Y25770500D01*
X28624000Y25770500D01*
X28556961Y25790185D01*
X28511206Y25842989D01*
X28500000Y25894500D01*
X28500000Y32500000D01*
X14000000Y32500000D01*
X14000000Y25894500D01*
X13980315Y25827461D01*
X13927511Y25781706D01*
X13876000Y25770500D01*
X13624802Y25770500D01*
X13624778Y25770501D01*
X13619667Y25770501D01*
X13380334Y25770501D01*
X13301539Y25758021D01*
X13143947Y25733061D01*
X12916333Y25659106D01*
X12916330Y25659105D01*
X12703083Y25550449D01*
X12592614Y25470188D01*
X12509461Y25409773D01*
X12509459Y25409771D01*
X12509458Y25409771D01*
X12138668Y25038980D01*
X12077345Y25005495D01*
X12007653Y25010479D01*
X11963306Y25038980D01*
X9663920Y27338366D01*
X9630435Y27399689D01*
X9635419Y27469381D01*
X9657319Y27506588D01*
X9659778Y27509467D01*
X9735375Y27613518D01*
X9800448Y27703084D01*
X9909103Y27916330D01*
X9983061Y28143949D01*
X10015000Y28345606D01*
X10020500Y28380329D01*
X10020500Y28619672D01*
X9983456Y28853554D01*
X9983061Y28856051D01*
X9909103Y29083670D01*
X9909101Y29083673D01*
X9909101Y29083675D01*
X9869681Y29161039D01*
X9800448Y29296916D01*
X9735374Y29386483D01*
X9659778Y29490533D01*
X9659774Y29490538D01*
X9490537Y29659775D01*
X9490532Y29659779D01*
X9296919Y29800446D01*
X9296918Y29800447D01*
X9296916Y29800448D01*
X9230324Y29834379D01*
X9083674Y29909102D01*
X8856051Y29983061D01*
X8619671Y30020500D01*
X8619666Y30020500D01*
X8380334Y30020500D01*
X8380329Y30020500D01*
X8143948Y29983061D01*
X7916325Y29909102D01*
X7703081Y29800447D01*
X7635628Y29751440D01*
X7515717Y29664321D01*
X7515710Y29664314D01*
X7509462Y29659774D01*
X7509458Y29659771D01*
X7340229Y29490542D01*
X7340226Y29490538D01*
X7335686Y29484290D01*
X7323056Y29469505D01*
X6400000Y28546449D01*
X6400000Y28552661D01*
X6372741Y28654394D01*
X6320080Y28745606D01*
X6245606Y28820080D01*
X6154394Y28872741D01*
X6052661Y28900000D01*
X6046445Y28900000D01*
X7226365Y30079920D01*
X7113524Y30166506D01*
X7113516Y30166512D01*
X6886482Y30297591D01*
X6886471Y30297596D01*
X6644255Y30397925D01*
X6391020Y30465778D01*
X6391009Y30465780D01*
X6131094Y30500000D01*
X5868905Y30500000D01*
X5608990Y30465780D01*
X5608979Y30465778D01*
X5355744Y30397925D01*
X5113528Y30297596D01*
X5113517Y30297591D01*
X4886471Y30166504D01*
X4773633Y30079921D01*
X4773633Y30079920D01*
X5953553Y28900000D01*
X5947339Y28900000D01*
X5845606Y28872741D01*
X5754394Y28820080D01*
X5679920Y28745606D01*
X5627259Y28654394D01*
X5600000Y28552661D01*
X5600000Y28546447D01*
X4420080Y29726367D01*
X4420079Y29726367D01*
X4333496Y29613529D01*
X4202409Y29386483D01*
X4202404Y29386472D01*
X4102075Y29144256D01*
X4034222Y28891021D01*
X4034220Y28891010D01*
X4000000Y28631095D01*
X4000000Y28368906D01*
X4034220Y28108991D01*
X4034222Y28108980D01*
X4102075Y27855745D01*
X4202404Y27613529D01*
X4202409Y27613518D01*
X4333488Y27386484D01*
X4333494Y27386476D01*
X4420080Y27273635D01*
X5600000Y28453555D01*
X5600000Y28447339D01*
X5627259Y28345606D01*
X5679920Y28254394D01*
X5754394Y28179920D01*
X5845606Y28127259D01*
X5947339Y28100000D01*
X5953553Y28100000D01*
X4773633Y26920083D01*
X4773633Y26920082D01*
X4886475Y26833495D01*
X4886483Y26833489D01*
X5113517Y26702410D01*
X5113528Y26702405D01*
X5355744Y26602076D01*
X5608979Y26534223D01*
X5608990Y26534221D01*
X5868905Y26500001D01*
X5868920Y26500000D01*
X6131080Y26500000D01*
X6131094Y26500001D01*
X6391009Y26534221D01*
X6391020Y26534223D01*
X6644255Y26602076D01*
X6886471Y26702405D01*
X6886482Y26702410D01*
X7113516Y26833489D01*
X7113534Y26833501D01*
X7226365Y26920081D01*
X7226365Y26920083D01*
X6046447Y28100000D01*
X6052661Y28100000D01*
X6154394Y28127259D01*
X6245606Y28179920D01*
X6320080Y28254394D01*
X6372741Y28345606D01*
X6400000Y28447339D01*
X6400000Y28453553D01*
X7323054Y27530499D01*
X7335690Y27515704D01*
X7340222Y27509467D01*
X7340229Y27509458D01*
X7449999Y27399689D01*
X7509461Y27340227D01*
X7515703Y27335692D01*
X7530494Y27323058D01*
X7578179Y27275374D01*
X7611665Y27214051D01*
X7614499Y27187692D01*
X7614499Y27162785D01*
X7628799Y27090898D01*
X7628799Y27090896D01*
X7648527Y26991717D01*
X7648529Y26991709D01*
X7715278Y26830561D01*
X7715283Y26830552D01*
X7812186Y26685527D01*
X7812189Y26685523D01*
X7939845Y26557867D01*
X7939867Y26557847D01*
X10345533Y24152181D01*
X10379018Y24090858D01*
X10374034Y24021166D01*
X10332162Y23965233D01*
X10266698Y23940816D01*
X10257852Y23940500D01*
X6639778Y23940500D01*
X6530913Y23923258D01*
X6422048Y23906015D01*
X6392971Y23896568D01*
X6354656Y23890500D01*
X5682129Y23890500D01*
X5682123Y23890499D01*
X5622516Y23884092D01*
X5487671Y23833798D01*
X5487664Y23833794D01*
X5372455Y23747548D01*
X5372452Y23747545D01*
X5286206Y23632336D01*
X5286202Y23632329D01*
X5235908Y23497483D01*
X5229501Y23437884D01*
X5229500Y23437865D01*
X5229500Y21642130D01*
X5229501Y21642124D01*
X5235908Y21582517D01*
X5287720Y21443603D01*
X5292704Y21373911D01*
X5259219Y21312588D01*
X5197895Y21279104D01*
X5128204Y21284089D01*
X5083857Y21312589D01*
X5013173Y21383273D01*
X5013172Y21383273D01*
X4900177Y21236012D01*
X4900170Y21236003D01*
X4754672Y20983992D01*
X4754665Y20983977D01*
X4643305Y20715128D01*
X4567984Y20434027D01*
X4530001Y20145516D01*
X4530000Y20145500D01*
X4530000Y19854501D01*
X4530001Y19854485D01*
X4567984Y19565974D01*
X4643305Y19284873D01*
X4754665Y19016024D01*
X4754672Y19016009D01*
X4900176Y18763989D01*
X5013172Y18616729D01*
X5013173Y18616729D01*
X6267037Y19870592D01*
X6284075Y19807007D01*
X6349901Y19692993D01*
X6442993Y19599901D01*
X6557007Y19534075D01*
X6620591Y19517038D01*
X5366727Y18263175D01*
X5366727Y18263174D01*
X5513988Y18150177D01*
X5766008Y18004673D01*
X5766023Y18004666D01*
X6034872Y17893306D01*
X6315973Y17817985D01*
X6604484Y17780002D01*
X6604501Y17780000D01*
X6895499Y17780000D01*
X6895515Y17780002D01*
X7184026Y17817985D01*
X7465127Y17893306D01*
X7733976Y18004666D01*
X7733990Y18004673D01*
X7986005Y18150174D01*
X7986012Y18150179D01*
X8133271Y18263175D01*
X6879408Y19517038D01*
X6942993Y19534075D01*
X7057007Y19599901D01*
X7150099Y19692993D01*
X7215925Y19807007D01*
X7232962Y19870592D01*
X8486825Y18616729D01*
X8599821Y18763988D01*
X8599826Y18763995D01*
X8745327Y19016010D01*
X8745334Y19016024D01*
X8856694Y19284873D01*
X8932015Y19565974D01*
X8969998Y19854485D01*
X8970000Y19854501D01*
X8970000Y20145500D01*
X8969998Y20145516D01*
X8932015Y20434027D01*
X8856695Y20715125D01*
X8751932Y20968047D01*
X8744463Y21037517D01*
X8775738Y21099996D01*
X8835827Y21135648D01*
X8866493Y21139500D01*
X10780500Y21139500D01*
X10847539Y21119815D01*
X10893294Y21067011D01*
X10904500Y21015500D01*
X10904500Y19208148D01*
X10884815Y19141109D01*
X10868181Y19120467D01*
X6969533Y15221819D01*
X6908210Y15188334D01*
X6881852Y15185500D01*
X6497348Y15185500D01*
X6430309Y15205185D01*
X6400701Y15231813D01*
X6347722Y15297722D01*
X6347721Y15297723D01*
X6199295Y15417031D01*
X6199292Y15417033D01*
X6028697Y15501640D01*
X5843892Y15547600D01*
X5822506Y15549050D01*
X5801123Y15550500D01*
X5801120Y15550500D01*
X4398877Y15550500D01*
X4398874Y15550499D01*
X4356113Y15547601D01*
X4356112Y15547601D01*
X4171303Y15501640D01*
X4000707Y15417033D01*
X4000704Y15417031D01*
X3852278Y15297723D01*
X3852277Y15297722D01*
X3732969Y15149296D01*
X3732967Y15149293D01*
X3648360Y14978698D01*
X3602400Y14793893D01*
X3599500Y14751121D01*
X3599500Y13848878D01*
X3599501Y13848875D01*
X3602399Y13806114D01*
X3602399Y13806113D01*
X3648360Y13621304D01*
X3732967Y13450708D01*
X3732969Y13450705D01*
X3852277Y13302279D01*
X3852278Y13302278D01*
X3921486Y13246647D01*
X3961405Y13189304D01*
X3963985Y13119482D01*
X3928406Y13059349D01*
X3921486Y13053353D01*
X3852278Y12997723D01*
X3852277Y12997722D01*
X3732969Y12849296D01*
X3732967Y12849293D01*
X3648360Y12678698D01*
X3602400Y12493893D01*
X3599500Y12451121D01*
X3599500Y11548878D01*
X3599501Y11548875D01*
X3602399Y11506111D01*
X3605884Y11492097D01*
X3602957Y11422289D01*
X3562754Y11365145D01*
X3555404Y11360030D01*
X3555430Y11359994D01*
X3551385Y11357081D01*
X3357683Y11192317D01*
X3192925Y10998622D01*
X3192918Y10998611D01*
X3061369Y10781003D01*
X3061366Y10780998D01*
X2966423Y10545095D01*
X2966423Y10545093D01*
X2910550Y10297014D01*
X2910549Y10297007D01*
X2900000Y10147581D01*
X2900000Y9950000D01*
X7300000Y9950000D01*
X7300000Y10147578D01*
X7299999Y10147581D01*
X7289450Y10297007D01*
X7289449Y10297014D01*
X7233576Y10545093D01*
X7233576Y10545095D01*
X7138633Y10780998D01*
X7138630Y10781003D01*
X7050765Y10926350D01*
X7032929Y10993905D01*
X7054447Y11060378D01*
X7108487Y11104666D01*
X7156882Y11114500D01*
X9775501Y11114500D01*
X9842540Y11094815D01*
X9888295Y11042011D01*
X9899501Y10990500D01*
X9899501Y10541966D01*
X9910113Y10422585D01*
X9966089Y10226955D01*
X9966090Y10226952D01*
X9966091Y10226951D01*
X10060302Y10046593D01*
X10060304Y10046591D01*
X10188890Y9888891D01*
X10282803Y9812316D01*
X10346593Y9760302D01*
X10526951Y9666091D01*
X10722582Y9610114D01*
X10841963Y9599500D01*
X11958036Y9599501D01*
X12077418Y9610114D01*
X12273049Y9666091D01*
X12329350Y9695501D01*
X12397882Y9709092D01*
X12462885Y9683474D01*
X12474441Y9673273D01*
X12735033Y9412681D01*
X12768518Y9351358D01*
X12763534Y9281666D01*
X12735033Y9237319D01*
X8669533Y5171819D01*
X8642605Y5157116D01*
X8616787Y5140523D01*
X8610586Y5139632D01*
X8608210Y5138334D01*
X8581852Y5135500D01*
X8549269Y5135500D01*
X8482230Y5155185D01*
X8448950Y5186616D01*
X8409776Y5240536D01*
X8240537Y5409775D01*
X8240532Y5409779D01*
X8046919Y5550446D01*
X8046918Y5550447D01*
X8046916Y5550448D01*
X7969293Y5589999D01*
X7833674Y5659102D01*
X7606051Y5733061D01*
X7369671Y5770500D01*
X7369666Y5770500D01*
X7130334Y5770500D01*
X7130329Y5770500D01*
X6893948Y5733061D01*
X6666325Y5659102D01*
X6453081Y5550447D01*
X6385628Y5501440D01*
X6265717Y5414321D01*
X6265710Y5414314D01*
X6259462Y5409774D01*
X6259458Y5409771D01*
X6090229Y5240542D01*
X6090226Y5240538D01*
X6085686Y5234290D01*
X6073056Y5219505D01*
X5150000Y4296449D01*
X5150000Y4302661D01*
X5122741Y4404394D01*
X5070080Y4495606D01*
X4995606Y4570080D01*
X4904394Y4622741D01*
X4802661Y4650000D01*
X4796445Y4650000D01*
X5976365Y5829920D01*
X5863524Y5916506D01*
X5863516Y5916512D01*
X5636482Y6047591D01*
X5636471Y6047596D01*
X5394255Y6147925D01*
X5141020Y6215778D01*
X5141009Y6215780D01*
X4881094Y6250000D01*
X4618905Y6250000D01*
X4358990Y6215780D01*
X4358979Y6215778D01*
X4105744Y6147925D01*
X3863528Y6047596D01*
X3863517Y6047591D01*
X3636471Y5916504D01*
X3523633Y5829921D01*
X3523633Y5829920D01*
X4703553Y4650000D01*
X4697339Y4650000D01*
X4595606Y4622741D01*
X4504394Y4570080D01*
X4429920Y4495606D01*
X4377259Y4404394D01*
X4350000Y4302661D01*
X4350000Y4296447D01*
X3170080Y5476367D01*
X3170079Y5476367D01*
X3083496Y5363529D01*
X2952409Y5136483D01*
X2952404Y5136472D01*
X2852075Y4894256D01*
X2784222Y4641021D01*
X2784220Y4641010D01*
X2750000Y4381095D01*
X500Y4381095D01*
X500Y9252420D01*
X2900000Y9252420D01*
X2910549Y9102994D01*
X2910550Y9102987D01*
X2966423Y8854908D01*
X2966423Y8854906D01*
X3061366Y8619003D01*
X3061369Y8618998D01*
X3192918Y8401390D01*
X3192925Y8401379D01*
X3357683Y8207684D01*
X3551378Y8042926D01*
X3551389Y8042919D01*
X3768997Y7911370D01*
X3769002Y7911367D01*
X4004906Y7816424D01*
X4252986Y7760551D01*
X4252993Y7760550D01*
X4402419Y7750001D01*
X4402422Y7750000D01*
X4850000Y7750000D01*
X5350000Y7750000D01*
X5797578Y7750000D01*
X5797580Y7750001D01*
X5947006Y7760550D01*
X5947013Y7760551D01*
X6195092Y7816424D01*
X6195094Y7816424D01*
X6430997Y7911367D01*
X6431002Y7911370D01*
X6648610Y8042919D01*
X6648621Y8042926D01*
X6842316Y8207684D01*
X7007074Y8401379D01*
X7007081Y8401390D01*
X7138630Y8618998D01*
X7138633Y8619003D01*
X7233576Y8854906D01*
X7233576Y8854908D01*
X7289449Y9102987D01*
X7289450Y9102994D01*
X7299999Y9252420D01*
X7300000Y9252422D01*
X7300000Y9450000D01*
X5350000Y9450000D01*
X5350000Y7750000D01*
X4850000Y7750000D01*
X4850000Y9450000D01*
X2900000Y9450000D01*
X2900000Y9252420D01*
X500Y9252420D01*
X500Y32875500D01*
X20185Y32942539D01*
X72989Y32988294D01*
X124500Y32999500D01*
X38375500Y32999500D01*
X38442539Y32979815D01*
G37*
%TD.AperFunction*%
%TD*%
M02*
