%TF.GenerationSoftware,KiCad,Pcbnew,9.0.6-9.0.6~ubuntu24.04.1*%
%TF.CreationDate,2025-12-31T19:02:38+05:30*%
%TF.ProjectId,wled-esp01-controller,776c6564-2d65-4737-9030-312d636f6e74,rev?*%
%TF.SameCoordinates,PX5ee3fe0PY57f9f90*%
%TF.FileFunction,Legend,Bot*%
%TF.FilePolarity,Positive*%
%FSLAX46Y46*%
G04 Gerber Fmt 4.6, Leading zero omitted, Abs format (unit mm)*
G04 Created by KiCad (PCBNEW 9.0.6-9.0.6~ubuntu24.04.1) date 2025-12-31 19:02:38*
%MOMM*%
%LPD*%
G01*
G04 APERTURE LIST*
%ADD10C,0.150000*%
%ADD11C,0.120000*%
%ADD12C,0.127000*%
%ADD13C,0.200000*%
G04 APERTURE END LIST*
D10*
X24854819Y3666667D02*
X24378628Y4000000D01*
X24854819Y4238095D02*
X23854819Y4238095D01*
X23854819Y4238095D02*
X23854819Y3857143D01*
X23854819Y3857143D02*
X23902438Y3761905D01*
X23902438Y3761905D02*
X23950057Y3714286D01*
X23950057Y3714286D02*
X24045295Y3666667D01*
X24045295Y3666667D02*
X24188152Y3666667D01*
X24188152Y3666667D02*
X24283390Y3714286D01*
X24283390Y3714286D02*
X24331009Y3761905D01*
X24331009Y3761905D02*
X24378628Y3857143D01*
X24378628Y3857143D02*
X24378628Y4238095D01*
X23950057Y3285714D02*
X23902438Y3238095D01*
X23902438Y3238095D02*
X23854819Y3142857D01*
X23854819Y3142857D02*
X23854819Y2904762D01*
X23854819Y2904762D02*
X23902438Y2809524D01*
X23902438Y2809524D02*
X23950057Y2761905D01*
X23950057Y2761905D02*
X24045295Y2714286D01*
X24045295Y2714286D02*
X24140533Y2714286D01*
X24140533Y2714286D02*
X24283390Y2761905D01*
X24283390Y2761905D02*
X24854819Y3333333D01*
X24854819Y3333333D02*
X24854819Y2714286D01*
X19604819Y3666667D02*
X19128628Y4000000D01*
X19604819Y4238095D02*
X18604819Y4238095D01*
X18604819Y4238095D02*
X18604819Y3857143D01*
X18604819Y3857143D02*
X18652438Y3761905D01*
X18652438Y3761905D02*
X18700057Y3714286D01*
X18700057Y3714286D02*
X18795295Y3666667D01*
X18795295Y3666667D02*
X18938152Y3666667D01*
X18938152Y3666667D02*
X19033390Y3714286D01*
X19033390Y3714286D02*
X19081009Y3761905D01*
X19081009Y3761905D02*
X19128628Y3857143D01*
X19128628Y3857143D02*
X19128628Y4238095D01*
X19604819Y2714286D02*
X19604819Y3285714D01*
X19604819Y3000000D02*
X18604819Y3000000D01*
X18604819Y3000000D02*
X18747676Y3095238D01*
X18747676Y3095238D02*
X18842914Y3190476D01*
X18842914Y3190476D02*
X18890533Y3285714D01*
X35083333Y27795181D02*
X35083333Y27080896D01*
X35083333Y27080896D02*
X35130952Y26938039D01*
X35130952Y26938039D02*
X35226190Y26842800D01*
X35226190Y26842800D02*
X35369047Y26795181D01*
X35369047Y26795181D02*
X35464285Y26795181D01*
X34654761Y27699943D02*
X34607142Y27747562D01*
X34607142Y27747562D02*
X34511904Y27795181D01*
X34511904Y27795181D02*
X34273809Y27795181D01*
X34273809Y27795181D02*
X34178571Y27747562D01*
X34178571Y27747562D02*
X34130952Y27699943D01*
X34130952Y27699943D02*
X34083333Y27604705D01*
X34083333Y27604705D02*
X34083333Y27509467D01*
X34083333Y27509467D02*
X34130952Y27366610D01*
X34130952Y27366610D02*
X34702380Y26795181D01*
X34702380Y26795181D02*
X34083333Y26795181D01*
X7416666Y30640420D02*
X7464285Y30592800D01*
X7464285Y30592800D02*
X7607142Y30545181D01*
X7607142Y30545181D02*
X7702380Y30545181D01*
X7702380Y30545181D02*
X7845237Y30592800D01*
X7845237Y30592800D02*
X7940475Y30688039D01*
X7940475Y30688039D02*
X7988094Y30783277D01*
X7988094Y30783277D02*
X8035713Y30973753D01*
X8035713Y30973753D02*
X8035713Y31116610D01*
X8035713Y31116610D02*
X7988094Y31307086D01*
X7988094Y31307086D02*
X7940475Y31402324D01*
X7940475Y31402324D02*
X7845237Y31497562D01*
X7845237Y31497562D02*
X7702380Y31545181D01*
X7702380Y31545181D02*
X7607142Y31545181D01*
X7607142Y31545181D02*
X7464285Y31497562D01*
X7464285Y31497562D02*
X7416666Y31449943D01*
X6464285Y30545181D02*
X7035713Y30545181D01*
X6749999Y30545181D02*
X6749999Y31545181D01*
X6749999Y31545181D02*
X6845237Y31402324D01*
X6845237Y31402324D02*
X6940475Y31307086D01*
X6940475Y31307086D02*
X7035713Y31259467D01*
X9011904Y8045181D02*
X9011904Y7235658D01*
X9011904Y7235658D02*
X8964285Y7140420D01*
X8964285Y7140420D02*
X8916666Y7092800D01*
X8916666Y7092800D02*
X8821428Y7045181D01*
X8821428Y7045181D02*
X8630952Y7045181D01*
X8630952Y7045181D02*
X8535714Y7092800D01*
X8535714Y7092800D02*
X8488095Y7140420D01*
X8488095Y7140420D02*
X8440476Y7235658D01*
X8440476Y7235658D02*
X8440476Y8045181D01*
X7440476Y7045181D02*
X8011904Y7045181D01*
X7726190Y7045181D02*
X7726190Y8045181D01*
X7726190Y8045181D02*
X7821428Y7902324D01*
X7821428Y7902324D02*
X7916666Y7807086D01*
X7916666Y7807086D02*
X8011904Y7759467D01*
X21761904Y28295181D02*
X21761904Y27485658D01*
X21761904Y27485658D02*
X21714285Y27390420D01*
X21714285Y27390420D02*
X21666666Y27342800D01*
X21666666Y27342800D02*
X21571428Y27295181D01*
X21571428Y27295181D02*
X21380952Y27295181D01*
X21380952Y27295181D02*
X21285714Y27342800D01*
X21285714Y27342800D02*
X21238095Y27390420D01*
X21238095Y27390420D02*
X21190476Y27485658D01*
X21190476Y27485658D02*
X21190476Y28295181D01*
X20761904Y28199943D02*
X20714285Y28247562D01*
X20714285Y28247562D02*
X20619047Y28295181D01*
X20619047Y28295181D02*
X20380952Y28295181D01*
X20380952Y28295181D02*
X20285714Y28247562D01*
X20285714Y28247562D02*
X20238095Y28199943D01*
X20238095Y28199943D02*
X20190476Y28104705D01*
X20190476Y28104705D02*
X20190476Y28009467D01*
X20190476Y28009467D02*
X20238095Y27866610D01*
X20238095Y27866610D02*
X20809523Y27295181D01*
X20809523Y27295181D02*
X20190476Y27295181D01*
X17666666Y17795181D02*
X17999999Y18271372D01*
X18238094Y17795181D02*
X18238094Y18795181D01*
X18238094Y18795181D02*
X17857142Y18795181D01*
X17857142Y18795181D02*
X17761904Y18747562D01*
X17761904Y18747562D02*
X17714285Y18699943D01*
X17714285Y18699943D02*
X17666666Y18604705D01*
X17666666Y18604705D02*
X17666666Y18461848D01*
X17666666Y18461848D02*
X17714285Y18366610D01*
X17714285Y18366610D02*
X17761904Y18318991D01*
X17761904Y18318991D02*
X17857142Y18271372D01*
X17857142Y18271372D02*
X18238094Y18271372D01*
X17333332Y18795181D02*
X16714285Y18795181D01*
X16714285Y18795181D02*
X17047618Y18414229D01*
X17047618Y18414229D02*
X16904761Y18414229D01*
X16904761Y18414229D02*
X16809523Y18366610D01*
X16809523Y18366610D02*
X16761904Y18318991D01*
X16761904Y18318991D02*
X16714285Y18223753D01*
X16714285Y18223753D02*
X16714285Y17985658D01*
X16714285Y17985658D02*
X16761904Y17890420D01*
X16761904Y17890420D02*
X16809523Y17842800D01*
X16809523Y17842800D02*
X16904761Y17795181D01*
X16904761Y17795181D02*
X17190475Y17795181D01*
X17190475Y17795181D02*
X17285713Y17842800D01*
X17285713Y17842800D02*
X17333332Y17890420D01*
X3583333Y24045181D02*
X3583333Y23330896D01*
X3583333Y23330896D02*
X3630952Y23188039D01*
X3630952Y23188039D02*
X3726190Y23092800D01*
X3726190Y23092800D02*
X3869047Y23045181D01*
X3869047Y23045181D02*
X3964285Y23045181D01*
X2583333Y23045181D02*
X3154761Y23045181D01*
X2869047Y23045181D02*
X2869047Y24045181D01*
X2869047Y24045181D02*
X2964285Y23902324D01*
X2964285Y23902324D02*
X3059523Y23807086D01*
X3059523Y23807086D02*
X3154761Y23759467D01*
X6166666Y6390420D02*
X6214285Y6342800D01*
X6214285Y6342800D02*
X6357142Y6295181D01*
X6357142Y6295181D02*
X6452380Y6295181D01*
X6452380Y6295181D02*
X6595237Y6342800D01*
X6595237Y6342800D02*
X6690475Y6438039D01*
X6690475Y6438039D02*
X6738094Y6533277D01*
X6738094Y6533277D02*
X6785713Y6723753D01*
X6785713Y6723753D02*
X6785713Y6866610D01*
X6785713Y6866610D02*
X6738094Y7057086D01*
X6738094Y7057086D02*
X6690475Y7152324D01*
X6690475Y7152324D02*
X6595237Y7247562D01*
X6595237Y7247562D02*
X6452380Y7295181D01*
X6452380Y7295181D02*
X6357142Y7295181D01*
X6357142Y7295181D02*
X6214285Y7247562D01*
X6214285Y7247562D02*
X6166666Y7199943D01*
X5785713Y7199943D02*
X5738094Y7247562D01*
X5738094Y7247562D02*
X5642856Y7295181D01*
X5642856Y7295181D02*
X5404761Y7295181D01*
X5404761Y7295181D02*
X5309523Y7247562D01*
X5309523Y7247562D02*
X5261904Y7199943D01*
X5261904Y7199943D02*
X5214285Y7104705D01*
X5214285Y7104705D02*
X5214285Y7009467D01*
X5214285Y7009467D02*
X5261904Y6866610D01*
X5261904Y6866610D02*
X5833332Y6295181D01*
X5833332Y6295181D02*
X5214285Y6295181D01*
D11*
%TO.C,R2*%
X22015000Y3272936D02*
X22015000Y3727064D01*
X23485000Y3272936D02*
X23485000Y3727064D01*
%TO.C,R1*%
X16765000Y3272936D02*
X16765000Y3727064D01*
X18235000Y3272936D02*
X18235000Y3727064D01*
%TO.C,J2*%
X33120000Y22980000D02*
X33120000Y17790000D01*
X35880000Y25630000D02*
X34500000Y25630000D01*
X35880000Y24250000D02*
X35880000Y25630000D01*
X35880000Y22980000D02*
X33120000Y22980000D01*
X35880000Y22980000D02*
X35880000Y17790000D01*
X35880000Y17790000D02*
X33120000Y17790000D01*
%TO.C,C1*%
X5130000Y29870000D02*
X5130000Y29070000D01*
X5130000Y27930000D02*
X5130000Y27130000D01*
X5130000Y27130000D02*
X9370000Y27130000D01*
X9370000Y29870000D02*
X5130000Y29870000D01*
X9370000Y29070000D02*
X9370000Y29870000D01*
X9370000Y27130000D02*
X9370000Y27930000D01*
%TO.C,U1*%
X6400000Y15410000D02*
X10160000Y15410000D01*
X6400000Y8590000D02*
X10160000Y8590000D01*
X10160000Y15410000D02*
X10160000Y14150000D01*
X10160000Y8590000D02*
X10160000Y9850000D01*
X5360000Y8360000D02*
X4880000Y8360000D01*
X5120000Y8690000D01*
X5360000Y8360000D01*
G36*
X5360000Y8360000D02*
G01*
X4880000Y8360000D01*
X5120000Y8690000D01*
X5360000Y8360000D01*
G37*
D12*
%TO.C,U2*%
X14045000Y31300000D02*
X28345000Y31300000D01*
X14045000Y6500000D02*
X14045000Y31300000D01*
X28345000Y31300000D02*
X28345000Y6500000D01*
X28345000Y6500000D02*
X14045000Y6500000D01*
D13*
X29195000Y10540000D02*
G75*
G02*
X28995000Y10540000I-100000J0D01*
G01*
X28995000Y10540000D02*
G75*
G02*
X29195000Y10540000I100000J0D01*
G01*
D11*
%TO.C,R3*%
X17727064Y16485000D02*
X17272936Y16485000D01*
X17727064Y15015000D02*
X17272936Y15015000D01*
%TO.C,J1*%
X5370000Y21270000D02*
X5370000Y18620000D01*
X8130000Y23920000D02*
X6750000Y23920000D01*
X8130000Y22540000D02*
X8130000Y23920000D01*
X8130000Y21270000D02*
X5370000Y21270000D01*
X8130000Y21270000D02*
X8130000Y18620000D01*
X8130000Y18620000D02*
X5370000Y18620000D01*
%TO.C,C2*%
X3880000Y5620000D02*
X3880000Y4820000D01*
X3880000Y3680000D02*
X3880000Y2880000D01*
X3880000Y2880000D02*
X8120000Y2880000D01*
X8120000Y5620000D02*
X3880000Y5620000D01*
X8120000Y4820000D02*
X8120000Y5620000D01*
X8120000Y2880000D02*
X8120000Y3680000D01*
%TD*%
M02*
