%TF.GenerationSoftware,KiCad,Pcbnew,9.0.6-9.0.6~ubuntu24.04.1*%
%TF.CreationDate,2025-12-28T18:57:46+05:30*%
%TF.ProjectId,led,6c65642e-6b69-4636-9164-5f7063625858,rev?*%
%TF.SameCoordinates,PX7270e00PY47c3950*%
%TF.FileFunction,Copper,L2,Bot*%
%TF.FilePolarity,Positive*%
%FSLAX46Y46*%
G04 Gerber Fmt 4.6, Leading zero omitted, Abs format (unit mm)*
G04 Created by KiCad (PCBNEW 9.0.6-9.0.6~ubuntu24.04.1) date 2025-12-28 18:57:46*
%MOMM*%
%LPD*%
G01*
G04 APERTURE LIST*
G04 Aperture macros list*
%AMRoundRect*
0 Rectangle with rounded corners*
0 $1 Rounding radius*
0 $2 $3 $4 $5 $6 $7 $8 $9 X,Y pos of 4 corners*
0 Add a 4 corners polygon primitive as box body*
4,1,4,$2,$3,$4,$5,$6,$7,$8,$9,$2,$3,0*
0 Add four circle primitives for the rounded corners*
1,1,$1+$1,$2,$3*
1,1,$1+$1,$4,$5*
1,1,$1+$1,$6,$7*
1,1,$1+$1,$8,$9*
0 Add four rect primitives between the rounded corners*
20,1,$1+$1,$2,$3,$4,$5,0*
20,1,$1+$1,$4,$5,$6,$7,0*
20,1,$1+$1,$6,$7,$8,$9,0*
20,1,$1+$1,$8,$9,$2,$3,0*%
G04 Aperture macros list end*
%TA.AperFunction,SMDPad,CuDef*%
%ADD10RoundRect,0.243750X-0.243750X-0.456250X0.243750X-0.456250X0.243750X0.456250X-0.243750X0.456250X0*%
%TD*%
%TA.AperFunction,ComponentPad*%
%ADD11RoundRect,0.250000X-0.750000X0.600000X-0.750000X-0.600000X0.750000X-0.600000X0.750000X0.600000X0*%
%TD*%
%TA.AperFunction,ComponentPad*%
%ADD12O,2.000000X1.700000*%
%TD*%
%TA.AperFunction,Conductor*%
%ADD13C,0.500000*%
%TD*%
G04 APERTURE END LIST*
D10*
%TO.P,R1,1*%
%TO.N,Net-(D1-A)*%
X7562500Y6750000D03*
%TO.P,R1,2*%
%TO.N,VCC*%
X9437500Y6750000D03*
%TD*%
D11*
%TO.P,J1,1,Pin_1*%
%TO.N,GND*%
X13750000Y8250000D03*
D12*
%TO.P,J1,2,Pin_2*%
%TO.N,VCC*%
X13750000Y5750000D03*
%TD*%
D10*
%TO.P,D1,1,K*%
%TO.N,GND*%
X2812500Y6750000D03*
%TO.P,D1,2,A*%
%TO.N,Net-(D1-A)*%
X4687500Y6750000D03*
%TD*%
D13*
%TO.N,Net-(D1-A)*%
X7562500Y6750000D02*
X4687500Y6750000D01*
%TO.N,VCC*%
X13750000Y5750000D02*
X10437500Y5750000D01*
X10437500Y5750000D02*
X9437500Y6750000D01*
%TD*%
%TA.AperFunction,Conductor*%
%TO.N,GND*%
G36*
X18192539Y12729815D02*
G01*
X18238294Y12677011D01*
X18249500Y12625500D01*
X18249500Y124500D01*
X18229815Y57461D01*
X18177011Y11706D01*
X18125500Y500D01*
X139863Y500D01*
X72824Y20185D01*
X27069Y72989D01*
X15863Y124500D01*
X15863Y6244185D01*
X1825000Y6244185D01*
X1835407Y6142327D01*
X1890094Y5977291D01*
X1890096Y5977286D01*
X1981370Y5829309D01*
X2104308Y5706371D01*
X2252285Y5615097D01*
X2252290Y5615095D01*
X2417326Y5560408D01*
X2519184Y5550001D01*
X2519197Y5550000D01*
X2562500Y5550000D01*
X2562500Y6500000D01*
X1825000Y6500000D01*
X1825000Y6244185D01*
X15863Y6244185D01*
X15863Y7255816D01*
X1825000Y7255816D01*
X1825000Y7000000D01*
X2562500Y7000000D01*
X2562500Y7950000D01*
X3062500Y7950000D01*
X3062500Y5550000D01*
X3105803Y5550000D01*
X3105815Y5550001D01*
X3207673Y5560408D01*
X3372709Y5615095D01*
X3372714Y5615097D01*
X3520691Y5706371D01*
X3643628Y5829308D01*
X3644159Y5830168D01*
X3644680Y5830637D01*
X3648112Y5834977D01*
X3648853Y5834392D01*
X3696101Y5876898D01*
X3765063Y5888128D01*
X3829148Y5860292D01*
X3851413Y5834602D01*
X3851493Y5834664D01*
X3852890Y5832897D01*
X3855238Y5830188D01*
X3855968Y5829005D01*
X3855974Y5828997D01*
X3978996Y5705975D01*
X3979000Y5705972D01*
X4127066Y5614643D01*
X4127069Y5614642D01*
X4127075Y5614638D01*
X4292225Y5559913D01*
X4394152Y5549500D01*
X4394157Y5549500D01*
X4980843Y5549500D01*
X4980848Y5549500D01*
X5082775Y5559913D01*
X5247925Y5614638D01*
X5396003Y5705974D01*
X5519026Y5828997D01*
X5587863Y5940600D01*
X5639809Y5987321D01*
X5693400Y5999500D01*
X6556600Y5999500D01*
X6623639Y5979815D01*
X6662136Y5940600D01*
X6730969Y5829005D01*
X6730975Y5828996D01*
X6853996Y5705975D01*
X6854000Y5705972D01*
X7002066Y5614643D01*
X7002069Y5614642D01*
X7002075Y5614638D01*
X7167225Y5559913D01*
X7269152Y5549500D01*
X7269157Y5549500D01*
X7855843Y5549500D01*
X7855848Y5549500D01*
X7957775Y5559913D01*
X8122925Y5614638D01*
X8271003Y5705974D01*
X8394026Y5828997D01*
X8394458Y5829699D01*
X8394881Y5830079D01*
X8398507Y5834664D01*
X8399290Y5834045D01*
X8446402Y5876425D01*
X8515364Y5887651D01*
X8579448Y5859812D01*
X8601342Y5834545D01*
X8601493Y5834664D01*
X8604143Y5831313D01*
X8605540Y5829701D01*
X8605969Y5829005D01*
X8605975Y5828996D01*
X8728996Y5705975D01*
X8729000Y5705972D01*
X8877066Y5614643D01*
X8877069Y5614642D01*
X8877075Y5614638D01*
X9042225Y5559913D01*
X9144152Y5549500D01*
X9525271Y5549500D01*
X9592310Y5529815D01*
X9612952Y5513181D01*
X9854549Y5271584D01*
X9959084Y5167049D01*
X9959087Y5167047D01*
X9959088Y5167046D01*
X10082003Y5084917D01*
X10082006Y5084915D01*
X10132165Y5064139D01*
X10138580Y5061482D01*
X10218588Y5028341D01*
X10334741Y5005237D01*
X10357880Y5000635D01*
X10363581Y4999500D01*
X10363582Y4999500D01*
X10363583Y4999500D01*
X10511418Y4999500D01*
X12412779Y4999500D01*
X12479818Y4979815D01*
X12513097Y4948385D01*
X12569892Y4870212D01*
X12720213Y4719891D01*
X12892179Y4594952D01*
X12892181Y4594951D01*
X12892184Y4594949D01*
X13081588Y4498443D01*
X13283757Y4432754D01*
X13493713Y4399500D01*
X13493714Y4399500D01*
X14006286Y4399500D01*
X14006287Y4399500D01*
X14216243Y4432754D01*
X14418412Y4498443D01*
X14607816Y4594949D01*
X14629789Y4610914D01*
X14779786Y4719891D01*
X14779788Y4719894D01*
X14779792Y4719896D01*
X14930104Y4870208D01*
X14930106Y4870212D01*
X14930109Y4870214D01*
X15055048Y5042180D01*
X15055047Y5042180D01*
X15055051Y5042184D01*
X15151557Y5231588D01*
X15217246Y5433757D01*
X15250500Y5643713D01*
X15250500Y5856287D01*
X15217246Y6066243D01*
X15151557Y6268412D01*
X15055051Y6457816D01*
X15055049Y6457819D01*
X15055048Y6457821D01*
X14930109Y6629787D01*
X14790931Y6768965D01*
X14757446Y6830288D01*
X14762430Y6899980D01*
X14804302Y6955913D01*
X14813516Y6962185D01*
X14968343Y7057683D01*
X15092315Y7181655D01*
X15184356Y7330876D01*
X15184358Y7330881D01*
X15239505Y7497303D01*
X15239506Y7497310D01*
X15249999Y7600014D01*
X15250000Y7600027D01*
X15250000Y8000000D01*
X14183012Y8000000D01*
X14215925Y8057007D01*
X14250000Y8184174D01*
X14250000Y8315826D01*
X14215925Y8442993D01*
X14183012Y8500000D01*
X15249999Y8500000D01*
X15249999Y8899972D01*
X15249998Y8899987D01*
X15239505Y9002698D01*
X15184358Y9169120D01*
X15184356Y9169125D01*
X15092315Y9318346D01*
X14968345Y9442316D01*
X14819124Y9534357D01*
X14819119Y9534359D01*
X14652697Y9589506D01*
X14652690Y9589507D01*
X14549986Y9600000D01*
X14000000Y9600000D01*
X14000000Y8683012D01*
X13942993Y8715925D01*
X13815826Y8750000D01*
X13684174Y8750000D01*
X13557007Y8715925D01*
X13500000Y8683012D01*
X13500000Y9600000D01*
X12950028Y9600000D01*
X12950012Y9599999D01*
X12847302Y9589506D01*
X12680880Y9534359D01*
X12680875Y9534357D01*
X12531654Y9442316D01*
X12407684Y9318346D01*
X12315643Y9169125D01*
X12315641Y9169120D01*
X12260494Y9002698D01*
X12260493Y9002691D01*
X12250000Y8899987D01*
X12250000Y8500000D01*
X13316988Y8500000D01*
X13284075Y8442993D01*
X13250000Y8315826D01*
X13250000Y8184174D01*
X13284075Y8057007D01*
X13316988Y8000000D01*
X12250001Y8000000D01*
X12250001Y7600014D01*
X12260494Y7497303D01*
X12315641Y7330881D01*
X12315643Y7330876D01*
X12407684Y7181655D01*
X12531654Y7057685D01*
X12686484Y6962185D01*
X12733208Y6910237D01*
X12744431Y6841274D01*
X12716587Y6777192D01*
X12709069Y6768965D01*
X12569892Y6629788D01*
X12513097Y6551615D01*
X12457767Y6508949D01*
X12412779Y6500500D01*
X10799729Y6500500D01*
X10732690Y6520185D01*
X10712048Y6536819D01*
X10461819Y6787049D01*
X10428334Y6848372D01*
X10425500Y6874730D01*
X10425500Y7255843D01*
X10425499Y7255856D01*
X10415087Y7357775D01*
X10360362Y7522925D01*
X10360358Y7522931D01*
X10360357Y7522934D01*
X10269028Y7671000D01*
X10269025Y7671004D01*
X10146003Y7794026D01*
X10145999Y7794029D01*
X9997933Y7885358D01*
X9997927Y7885361D01*
X9997925Y7885362D01*
X9997922Y7885363D01*
X9832776Y7940087D01*
X9730855Y7950500D01*
X9730848Y7950500D01*
X9144152Y7950500D01*
X9144144Y7950500D01*
X9042223Y7940087D01*
X8877077Y7885363D01*
X8877066Y7885358D01*
X8729000Y7794029D01*
X8728996Y7794026D01*
X8605974Y7671004D01*
X8605971Y7671000D01*
X8605538Y7670297D01*
X8605114Y7669917D01*
X8601493Y7665336D01*
X8600710Y7665955D01*
X8553590Y7623572D01*
X8484628Y7612351D01*
X8420546Y7640194D01*
X8398657Y7665456D01*
X8398507Y7665336D01*
X8395859Y7668685D01*
X8394462Y7670297D01*
X8394028Y7671000D01*
X8394025Y7671004D01*
X8271003Y7794026D01*
X8270999Y7794029D01*
X8122933Y7885358D01*
X8122927Y7885361D01*
X8122925Y7885362D01*
X8122922Y7885363D01*
X7957776Y7940087D01*
X7855855Y7950500D01*
X7855848Y7950500D01*
X7269152Y7950500D01*
X7269144Y7950500D01*
X7167223Y7940087D01*
X7002077Y7885363D01*
X7002066Y7885358D01*
X6854000Y7794029D01*
X6853996Y7794026D01*
X6730975Y7671005D01*
X6727347Y7665123D01*
X6662136Y7559401D01*
X6610191Y7512679D01*
X6556600Y7500500D01*
X5693400Y7500500D01*
X5626361Y7520185D01*
X5587863Y7559401D01*
X5519026Y7671003D01*
X5396003Y7794026D01*
X5395999Y7794029D01*
X5247933Y7885358D01*
X5247927Y7885361D01*
X5247925Y7885362D01*
X5247922Y7885363D01*
X5082776Y7940087D01*
X4980855Y7950500D01*
X4980848Y7950500D01*
X4394152Y7950500D01*
X4394144Y7950500D01*
X4292223Y7940087D01*
X4127077Y7885363D01*
X4127066Y7885358D01*
X3979000Y7794029D01*
X3978996Y7794026D01*
X3855974Y7671004D01*
X3855967Y7670995D01*
X3855234Y7669806D01*
X3854519Y7669164D01*
X3851493Y7665336D01*
X3850838Y7665854D01*
X3803280Y7623089D01*
X3734316Y7611877D01*
X3670238Y7639729D01*
X3648238Y7665123D01*
X3648112Y7665023D01*
X3645885Y7667839D01*
X3644163Y7669827D01*
X3643630Y7670691D01*
X3520691Y7793630D01*
X3372714Y7884904D01*
X3372709Y7884906D01*
X3207673Y7939593D01*
X3105815Y7950000D01*
X3062500Y7950000D01*
X2562500Y7950000D01*
X2519184Y7950000D01*
X2417326Y7939593D01*
X2252290Y7884906D01*
X2252285Y7884904D01*
X2104308Y7793630D01*
X1981370Y7670692D01*
X1890096Y7522715D01*
X1890094Y7522710D01*
X1835407Y7357674D01*
X1825000Y7255816D01*
X15863Y7255816D01*
X15863Y12625500D01*
X35548Y12692539D01*
X88352Y12738294D01*
X139863Y12749500D01*
X18125500Y12749500D01*
X18192539Y12729815D01*
G37*
%TD.AperFunction*%
%TD*%
M02*
