%TF.GenerationSoftware,KiCad,Pcbnew,9.0.6-9.0.6~ubuntu24.04.1*%
%TF.CreationDate,2025-12-28T22:36:25+05:30*%
%TF.ProjectId,led,6c65642e-6b69-4636-9164-5f7063625858,rev?*%
%TF.SameCoordinates,PX87a9010PY4c4b400*%
%TF.FileFunction,Copper,L2,Bot*%
%TF.FilePolarity,Positive*%
%FSLAX46Y46*%
G04 Gerber Fmt 4.6, Leading zero omitted, Abs format (unit mm)*
G04 Created by KiCad (PCBNEW 9.0.6-9.0.6~ubuntu24.04.1) date 2025-12-28 22:36:25*
%MOMM*%
%LPD*%
G01*
G04 APERTURE LIST*
G04 Aperture macros list*
%AMRoundRect*
0 Rectangle with rounded corners*
0 $1 Rounding radius*
0 $2 $3 $4 $5 $6 $7 $8 $9 X,Y pos of 4 corners*
0 Add a 4 corners polygon primitive as box body*
4,1,4,$2,$3,$4,$5,$6,$7,$8,$9,$2,$3,0*
0 Add four circle primitives for the rounded corners*
1,1,$1+$1,$2,$3*
1,1,$1+$1,$4,$5*
1,1,$1+$1,$6,$7*
1,1,$1+$1,$8,$9*
0 Add four rect primitives between the rounded corners*
20,1,$1+$1,$2,$3,$4,$5,0*
20,1,$1+$1,$4,$5,$6,$7,0*
20,1,$1+$1,$6,$7,$8,$9,0*
20,1,$1+$1,$8,$9,$2,$3,0*%
G04 Aperture macros list end*
%TA.AperFunction,ComponentPad*%
%ADD10RoundRect,0.250000X-0.750000X0.600000X-0.750000X-0.600000X0.750000X-0.600000X0.750000X0.600000X0*%
%TD*%
%TA.AperFunction,ComponentPad*%
%ADD11O,2.000000X1.700000*%
%TD*%
%TA.AperFunction,SMDPad,CuDef*%
%ADD12RoundRect,0.243750X-0.243750X-0.776250X0.243750X-0.776250X0.243750X0.776250X-0.243750X0.776250X0*%
%TD*%
%TA.AperFunction,SMDPad,CuDef*%
%ADD13RoundRect,0.243750X-0.243750X-0.456250X0.243750X-0.456250X0.243750X0.456250X-0.243750X0.456250X0*%
%TD*%
%TA.AperFunction,ComponentPad*%
%ADD14C,2.200000*%
%TD*%
%TA.AperFunction,Conductor*%
%ADD15C,0.770000*%
%TD*%
G04 APERTURE END LIST*
D10*
%TO.P,J1,1,Pin_1*%
%TO.N,GND*%
X-7343750Y12250000D03*
D11*
%TO.P,J1,2,Pin_2*%
%TO.N,VCC*%
X-7343750Y9750000D03*
%TD*%
D12*
%TO.P,R1,1*%
%TO.N,Net-(D1-A)*%
X-16031250Y10750000D03*
%TO.P,R1,2*%
%TO.N,VCC*%
X-14156250Y10750000D03*
%TD*%
D13*
%TO.P,D1,1,K*%
%TO.N,GND*%
X-21218750Y10750000D03*
D12*
%TO.P,D1,2,A*%
%TO.N,Net-(D1-A)*%
X-19343750Y10750000D03*
%TD*%
D14*
%TO.P,H2,*%
%TO.N,*%
X-3703104Y3500000D03*
%TD*%
%TO.P,H1,*%
%TO.N,*%
X-23453104Y16953104D03*
%TD*%
D15*
%TO.N,Net-(D1-A)*%
X-19343750Y10750000D02*
X-16031250Y10750000D01*
%TO.N,VCC*%
X-7343750Y9750000D02*
X-13156250Y9750000D01*
X-13156250Y9750000D02*
X-14156250Y10750000D01*
%TD*%
%TA.AperFunction,Conductor*%
%TO.N,GND*%
G36*
X-57461Y20479815D02*
G01*
X-11706Y20427011D01*
X-500Y20375500D01*
X-500Y124500D01*
X-20185Y57461D01*
X-72989Y11706D01*
X-124500Y500D01*
X-27375500Y500D01*
X-27442539Y20185D01*
X-27488294Y72989D01*
X-27499500Y124500D01*
X-27499500Y3625962D01*
X-5303604Y3625962D01*
X-5303604Y3374039D01*
X-5264194Y3125215D01*
X-5186344Y2885617D01*
X-5071972Y2661152D01*
X-4923903Y2457351D01*
X-4923899Y2457346D01*
X-4745759Y2279206D01*
X-4745754Y2279202D01*
X-4567987Y2150048D01*
X-4541949Y2131130D01*
X-4398920Y2058253D01*
X-4317488Y2016761D01*
X-4317486Y2016761D01*
X-4317483Y2016759D01*
X-4077889Y1938910D01*
X-3829066Y1899500D01*
X-3829065Y1899500D01*
X-3577143Y1899500D01*
X-3577142Y1899500D01*
X-3328319Y1938910D01*
X-3088725Y2016759D01*
X-2864259Y2131130D01*
X-2660448Y2279207D01*
X-2482311Y2457344D01*
X-2334234Y2661155D01*
X-2219863Y2885621D01*
X-2142014Y3125215D01*
X-2102604Y3374038D01*
X-2102604Y3625962D01*
X-2142014Y3874785D01*
X-2219863Y4114379D01*
X-2219865Y4114382D01*
X-2219865Y4114384D01*
X-2261357Y4195816D01*
X-2334234Y4338845D01*
X-2353152Y4364883D01*
X-2482306Y4542650D01*
X-2482310Y4542655D01*
X-2660450Y4720795D01*
X-2660455Y4720799D01*
X-2864256Y4868868D01*
X-2864257Y4868869D01*
X-2864259Y4868870D01*
X-2934357Y4904587D01*
X-3088721Y4983240D01*
X-3328319Y5061090D01*
X-3577142Y5100500D01*
X-3829066Y5100500D01*
X-3953478Y5080795D01*
X-4077890Y5061090D01*
X-4317488Y4983240D01*
X-4541953Y4868868D01*
X-4745754Y4720799D01*
X-4745759Y4720795D01*
X-4923899Y4542655D01*
X-4923903Y4542650D01*
X-5071972Y4338849D01*
X-5186344Y4114384D01*
X-5264194Y3874786D01*
X-5303604Y3625962D01*
X-27499500Y3625962D01*
X-27499500Y10244185D01*
X-22206250Y10244185D01*
X-22195843Y10142327D01*
X-22141156Y9977291D01*
X-22141154Y9977286D01*
X-22049880Y9829309D01*
X-21926942Y9706371D01*
X-21778965Y9615097D01*
X-21778960Y9615095D01*
X-21706250Y9591002D01*
X-21706250Y10262500D01*
X-22206250Y10262500D01*
X-22206250Y10244185D01*
X-27499500Y10244185D01*
X-27499500Y11255816D01*
X-22206250Y11255816D01*
X-22206250Y11237500D01*
X-21706250Y11237500D01*
X-21706250Y11909000D01*
X-20731250Y11909000D01*
X-20731250Y9591002D01*
X-20658541Y9615095D01*
X-20658536Y9615097D01*
X-20510562Y9706369D01*
X-20481752Y9735179D01*
X-20420429Y9768665D01*
X-20350737Y9763681D01*
X-20294803Y9721811D01*
X-20276363Y9686503D01*
X-20266613Y9657078D01*
X-20266608Y9657067D01*
X-20175279Y9509001D01*
X-20175276Y9508997D01*
X-20052254Y9385975D01*
X-20052250Y9385972D01*
X-19904184Y9294643D01*
X-19904181Y9294642D01*
X-19904175Y9294638D01*
X-19739025Y9239913D01*
X-19637098Y9229500D01*
X-19637093Y9229500D01*
X-19050407Y9229500D01*
X-19050402Y9229500D01*
X-18948475Y9239913D01*
X-18783325Y9294638D01*
X-18635247Y9385974D01*
X-18512224Y9508997D01*
X-18420888Y9657075D01*
X-18380319Y9779507D01*
X-18340548Y9836949D01*
X-18276032Y9863772D01*
X-18262614Y9864500D01*
X-17112386Y9864500D01*
X-17045347Y9844815D01*
X-16999592Y9792011D01*
X-16994685Y9779517D01*
X-16975563Y9721811D01*
X-16954113Y9657078D01*
X-16954108Y9657067D01*
X-16862779Y9509001D01*
X-16862776Y9508997D01*
X-16739754Y9385975D01*
X-16739750Y9385972D01*
X-16591684Y9294643D01*
X-16591681Y9294642D01*
X-16591675Y9294638D01*
X-16426525Y9239913D01*
X-16324598Y9229500D01*
X-16324593Y9229500D01*
X-15737907Y9229500D01*
X-15737902Y9229500D01*
X-15635975Y9239913D01*
X-15470825Y9294638D01*
X-15322747Y9385974D01*
X-15199724Y9508997D01*
X-15199292Y9509699D01*
X-15198869Y9510079D01*
X-15195243Y9514664D01*
X-15194460Y9514045D01*
X-15147348Y9556425D01*
X-15078386Y9567651D01*
X-15014302Y9539812D01*
X-14992408Y9514545D01*
X-14992257Y9514664D01*
X-14989607Y9511313D01*
X-14988210Y9509701D01*
X-14987778Y9509001D01*
X-14987775Y9508996D01*
X-14864754Y9385975D01*
X-14864750Y9385972D01*
X-14716684Y9294643D01*
X-14716681Y9294642D01*
X-14716675Y9294638D01*
X-14551525Y9239913D01*
X-14449598Y9229500D01*
X-13939398Y9229500D01*
X-13909958Y9220856D01*
X-13879971Y9214332D01*
X-13874956Y9210578D01*
X-13872359Y9209815D01*
X-13851717Y9193181D01*
X-13847189Y9188653D01*
X-13847160Y9188622D01*
X-13720730Y9062192D01*
X-13720727Y9062190D01*
X-13720724Y9062187D01*
X-13690787Y9042184D01*
X-13690786Y9042183D01*
X-13575696Y8965282D01*
X-13575695Y8965282D01*
X-13575691Y8965279D01*
X-13481291Y8926178D01*
X-13414541Y8898529D01*
X-13386157Y8892884D01*
X-13290854Y8873926D01*
X-13243466Y8864499D01*
X-13243464Y8864499D01*
X-13062922Y8864499D01*
X-13062902Y8864500D01*
X-8569508Y8864500D01*
X-8502469Y8844815D01*
X-8481827Y8828181D01*
X-8373537Y8719891D01*
X-8201571Y8594952D01*
X-8201569Y8594951D01*
X-8201566Y8594949D01*
X-8012162Y8498443D01*
X-7809993Y8432754D01*
X-7600037Y8399500D01*
X-7600036Y8399500D01*
X-7087464Y8399500D01*
X-7087463Y8399500D01*
X-6877507Y8432754D01*
X-6675338Y8498443D01*
X-6485934Y8594949D01*
X-6463961Y8610914D01*
X-6313964Y8719891D01*
X-6313962Y8719894D01*
X-6313958Y8719896D01*
X-6163646Y8870208D01*
X-6163644Y8870212D01*
X-6163641Y8870214D01*
X-6038702Y9042180D01*
X-6038700Y9042183D01*
X-6038699Y9042184D01*
X-5942193Y9231588D01*
X-5876504Y9433757D01*
X-5843250Y9643713D01*
X-5843250Y9856287D01*
X-5876504Y10066243D01*
X-5942193Y10268412D01*
X-6038699Y10457816D01*
X-6038701Y10457819D01*
X-6038702Y10457821D01*
X-6163641Y10629787D01*
X-6302819Y10768965D01*
X-6336304Y10830288D01*
X-6331320Y10899980D01*
X-6289448Y10955913D01*
X-6280234Y10962185D01*
X-6125407Y11057683D01*
X-6001435Y11181655D01*
X-5909394Y11330876D01*
X-5909392Y11330881D01*
X-5854245Y11497303D01*
X-5854244Y11497310D01*
X-5843751Y11600014D01*
X-5843750Y11600027D01*
X-5843750Y11650000D01*
X-8843749Y11650000D01*
X-8843749Y11600014D01*
X-8833256Y11497303D01*
X-8778109Y11330881D01*
X-8778107Y11330876D01*
X-8686066Y11181655D01*
X-8562096Y11057685D01*
X-8407266Y10962185D01*
X-8391714Y10944894D01*
X-8373096Y10930957D01*
X-8368787Y10919404D01*
X-8360542Y10910237D01*
X-8356807Y10887284D01*
X-8348679Y10865493D01*
X-8351300Y10853446D01*
X-8349319Y10841274D01*
X-8358587Y10819945D01*
X-8363530Y10797220D01*
X-8375283Y10781521D01*
X-8377163Y10777192D01*
X-8384681Y10768965D01*
X-8481829Y10671818D01*
X-8543149Y10638334D01*
X-8569508Y10635500D01*
X-12738102Y10635500D01*
X-12805141Y10655185D01*
X-12825783Y10671819D01*
X-13131931Y10977967D01*
X-13165416Y11039290D01*
X-13168250Y11065648D01*
X-13168250Y11575843D01*
X-13168251Y11575856D01*
X-13170720Y11600027D01*
X-13178663Y11677775D01*
X-13233388Y11842925D01*
X-13233392Y11842931D01*
X-13233393Y11842934D01*
X-13324722Y11991000D01*
X-13324725Y11991004D01*
X-13447747Y12114026D01*
X-13447751Y12114029D01*
X-13595817Y12205358D01*
X-13595823Y12205361D01*
X-13595825Y12205362D01*
X-13595828Y12205363D01*
X-13760974Y12260087D01*
X-13862895Y12270500D01*
X-13862902Y12270500D01*
X-14449598Y12270500D01*
X-14449606Y12270500D01*
X-14551527Y12260087D01*
X-14716673Y12205363D01*
X-14716684Y12205358D01*
X-14864750Y12114029D01*
X-14864754Y12114026D01*
X-14987776Y11991004D01*
X-14987779Y11991000D01*
X-14988212Y11990297D01*
X-14988636Y11989917D01*
X-14992257Y11985336D01*
X-14993040Y11985955D01*
X-15040160Y11943572D01*
X-15109122Y11932351D01*
X-15173204Y11960194D01*
X-15195093Y11985456D01*
X-15195243Y11985336D01*
X-15197891Y11988685D01*
X-15199288Y11990297D01*
X-15199722Y11991000D01*
X-15199725Y11991004D01*
X-15322747Y12114026D01*
X-15322751Y12114029D01*
X-15470817Y12205358D01*
X-15470823Y12205361D01*
X-15470825Y12205362D01*
X-15470828Y12205363D01*
X-15635974Y12260087D01*
X-15737895Y12270500D01*
X-15737902Y12270500D01*
X-16324598Y12270500D01*
X-16324606Y12270500D01*
X-16426527Y12260087D01*
X-16591673Y12205363D01*
X-16591684Y12205358D01*
X-16739750Y12114029D01*
X-16739754Y12114026D01*
X-16862776Y11991004D01*
X-16862779Y11991000D01*
X-16954108Y11842934D01*
X-16954113Y11842923D01*
X-16966842Y11804511D01*
X-16994682Y11720494D01*
X-17034452Y11663051D01*
X-17098968Y11636228D01*
X-17112386Y11635500D01*
X-18262614Y11635500D01*
X-18329653Y11655185D01*
X-18375408Y11707989D01*
X-18380316Y11720484D01*
X-18420888Y11842925D01*
X-18420892Y11842931D01*
X-18420893Y11842934D01*
X-18512222Y11991000D01*
X-18512225Y11991004D01*
X-18635247Y12114026D01*
X-18635251Y12114029D01*
X-18783317Y12205358D01*
X-18783323Y12205361D01*
X-18783325Y12205362D01*
X-18783328Y12205363D01*
X-18948474Y12260087D01*
X-19050395Y12270500D01*
X-19050402Y12270500D01*
X-19637098Y12270500D01*
X-19637106Y12270500D01*
X-19739027Y12260087D01*
X-19904173Y12205363D01*
X-19904184Y12205358D01*
X-20052250Y12114029D01*
X-20052254Y12114026D01*
X-20175276Y11991004D01*
X-20175279Y11991000D01*
X-20266608Y11842934D01*
X-20266612Y11842925D01*
X-20276363Y11813497D01*
X-20316136Y11756053D01*
X-20380652Y11729230D01*
X-20449428Y11741545D01*
X-20481750Y11764821D01*
X-20510559Y11793630D01*
X-20658539Y11884905D01*
X-20731250Y11909000D01*
X-21706250Y11909000D01*
X-21778962Y11884905D01*
X-21926942Y11793630D01*
X-22049880Y11670692D01*
X-22141154Y11522715D01*
X-22141156Y11522710D01*
X-22195843Y11357674D01*
X-22206250Y11255816D01*
X-27499500Y11255816D01*
X-27499500Y12315826D01*
X-7843750Y12315826D01*
X-7843750Y12184174D01*
X-7809675Y12057007D01*
X-7743849Y11942993D01*
X-7650757Y11849901D01*
X-7536743Y11784075D01*
X-7409576Y11750000D01*
X-7277924Y11750000D01*
X-7150757Y11784075D01*
X-7036743Y11849901D01*
X-6943651Y11942993D01*
X-6877825Y12057007D01*
X-6843750Y12184174D01*
X-6843750Y12315826D01*
X-6877825Y12442993D01*
X-6943651Y12557007D01*
X-7036743Y12650099D01*
X-7150757Y12715925D01*
X-7277924Y12750000D01*
X-7409576Y12750000D01*
X-7536743Y12715925D01*
X-7650757Y12650099D01*
X-7743849Y12557007D01*
X-7809675Y12442993D01*
X-7843750Y12315826D01*
X-27499500Y12315826D01*
X-27499500Y12899987D01*
X-8843750Y12899987D01*
X-8843750Y12850000D01*
X-7943750Y12850000D01*
X-6743750Y12850000D01*
X-5843751Y12850000D01*
X-5843751Y12899972D01*
X-5843752Y12899987D01*
X-5854245Y13002698D01*
X-5909392Y13169120D01*
X-5909394Y13169125D01*
X-6001435Y13318346D01*
X-6125405Y13442316D01*
X-6274626Y13534357D01*
X-6274631Y13534359D01*
X-6441053Y13589506D01*
X-6441060Y13589507D01*
X-6543764Y13600000D01*
X-6743750Y13600000D01*
X-6743750Y12850000D01*
X-7943750Y12850000D01*
X-7943750Y13600000D01*
X-8143721Y13600000D01*
X-8143738Y13599999D01*
X-8246448Y13589506D01*
X-8412870Y13534359D01*
X-8412875Y13534357D01*
X-8562096Y13442316D01*
X-8686066Y13318346D01*
X-8778107Y13169125D01*
X-8778109Y13169120D01*
X-8833256Y13002698D01*
X-8833257Y13002691D01*
X-8843750Y12899987D01*
X-27499500Y12899987D01*
X-27499500Y17079066D01*
X-25053604Y17079066D01*
X-25053604Y16827143D01*
X-25014194Y16578319D01*
X-24936344Y16338721D01*
X-24821972Y16114256D01*
X-24673903Y15910455D01*
X-24673899Y15910450D01*
X-24495759Y15732310D01*
X-24495754Y15732306D01*
X-24317987Y15603152D01*
X-24291949Y15584234D01*
X-24148920Y15511357D01*
X-24067488Y15469865D01*
X-24067486Y15469865D01*
X-24067483Y15469863D01*
X-23827889Y15392014D01*
X-23579066Y15352604D01*
X-23579065Y15352604D01*
X-23327143Y15352604D01*
X-23327142Y15352604D01*
X-23078319Y15392014D01*
X-22838725Y15469863D01*
X-22614259Y15584234D01*
X-22410448Y15732311D01*
X-22232311Y15910448D01*
X-22084234Y16114259D01*
X-21969863Y16338725D01*
X-21892014Y16578319D01*
X-21852604Y16827142D01*
X-21852604Y17079066D01*
X-21892014Y17327889D01*
X-21969863Y17567483D01*
X-21969865Y17567486D01*
X-21969865Y17567488D01*
X-22011357Y17648920D01*
X-22084234Y17791949D01*
X-22103152Y17817987D01*
X-22232306Y17995754D01*
X-22232310Y17995759D01*
X-22410450Y18173899D01*
X-22410455Y18173903D01*
X-22614256Y18321972D01*
X-22614257Y18321973D01*
X-22614259Y18321974D01*
X-22684357Y18357691D01*
X-22838721Y18436344D01*
X-23078319Y18514194D01*
X-23327142Y18553604D01*
X-23579066Y18553604D01*
X-23703478Y18533899D01*
X-23827890Y18514194D01*
X-24067488Y18436344D01*
X-24291953Y18321972D01*
X-24495754Y18173903D01*
X-24495759Y18173899D01*
X-24673899Y17995759D01*
X-24673903Y17995754D01*
X-24821972Y17791953D01*
X-24936344Y17567488D01*
X-25014194Y17327890D01*
X-25053604Y17079066D01*
X-27499500Y17079066D01*
X-27499500Y20375500D01*
X-27479815Y20442539D01*
X-27427011Y20488294D01*
X-27375500Y20499500D01*
X-124500Y20499500D01*
X-57461Y20479815D01*
G37*
%TD.AperFunction*%
%TD*%
M02*
