<?xml version="1.0" standalone="no"?>
<!DOCTYPE svg PUBLIC "-//W3C//DTD SVG 1.1//EN"
"http://www.w3.org/Graphics/SVG/1.1/DTD/svg11.dtd">
<svg width="84.2835" height="63.4961" viewBox="0 0 1755.91 1322.83" version="1.1"
xmlns="http://www.w3.org/2000/svg"
xmlns:xlink="http://www.w3.org/1999/xlink">
<g fill-rule="evenodd"><path d="M 160.697,1153.58 L 160.697,169.254 L 162.247,163.974 L 166.405,160.372 L 170.461,159.49 L 1586.65,159.49 L 1591.93,161.04 L 1595.53,165.198 L 1596.42,169.254 L 1596.42,1153.58 L 1594.87,1158.86 L 1590.71,1162.47 L 1586.65,1163.35 L 170.461,1163.35 L 165.183,1161.8 L 161.579,1157.64 L 160.697,1153.58M 303.149,671.718 L 303.969,679.74 L 308.275,692.734 L 315.461,704.386 L 325.141,714.066 L 336.793,721.254 L 349.789,725.56 L 357.809,726.38 L 361.219,726.38 L 361.219,687 L 355.782,686.069 L 351.429,684.02 L 347.722,680.953 L 344.894,677.061 L 343.339,673.362 L 342.587,669.421 L 342.52,651.576 L 303.149,651.576 L 303.149,671.718M 303.149,612.206 L 342.52,612.206 L 342.587,594.359 L 343.339,590.417 L 344.894,586.718 L 347.722,582.826 L 351.429,579.759 L 355.782,577.711 L 361.219,576.78 L 361.219,537.402 L 357.809,537.402 L 349.789,538.222 L 336.793,542.528 L 325.141,549.716 L 315.461,559.396 L 308.275,571.048 L 303.969,584.042 L 303.149,592.062 L 303.149,612.206M 400.589,726.38 L 403.999,726.38 L 412.021,725.56 L 425.015,721.254 L 436.667,714.066 L 446.701,703.94 L 450.479,700.64 L 455.909,699.754 L 460.955,701.946 L 463.067,704.41 L 472.755,714.098 L 484.413,721.29 L 497.419,725.598 L 505.445,726.418 L 551.641,726.418 L 559.667,725.598 L 572.671,721.29 L 584.331,714.098 L 594.017,704.41 L 599.437,695.624 L 603.527,691.944 L 607.747,690.986 L 675.715,690.986 L 680.995,692.536 L 684.025,695.624 L 689.445,704.41 L 699.133,714.098 L 710.791,721.29 L 723.797,725.598 L 731.823,726.418 L 778.019,726.418 L 786.045,725.598 L 799.049,721.29 L 810.709,714.098 L 820.747,703.964 L 824.519,700.676 L 829.949,699.792 L 834.995,701.984 L 846.771,714.098 L 858.429,721.29 L 871.435,725.598 L 879.459,726.418 L 909.469,726.418 L 914.749,727.968 L 916.373,729.278 L 943.627,756.532 L 953.307,763 L 964.061,767.454 L 975.479,769.726 L 1136.83,769.726 L 1142.11,771.276 L 1144.73,773.75 L 1149.2,779.906 L 1161.04,791.742 L 1174.58,801.58 L 1189.49,809.178 L 1205.41,814.352 L 1221.94,816.97 L 1262.3,816.97 L 1278.84,814.352 L 1294.76,809.178 L 1309.67,801.58 L 1323.21,791.742 L 1335.05,779.906 L 1344.88,766.364 L 1352.48,751.45 L 1357.66,735.532 L 1360.27,719 L 1360.27,702.262 L 1357.66,685.73 L 1352.48,669.812 L 1344.88,654.898 L 1335.05,641.356 L 1324.09,630.398 L 1321.45,625.57 L 1321.84,620.082 L 1325.14,615.678 L 1338.06,607.664 L 1347.82,597.902 L 1355.07,586.152 L 1359.41,573.048 L 1360.23,564.96 L 1360.23,533.466 L 1320.87,533.466 L 1320.85,561.827 L 1320.46,565.012 L 1319.25,568.834 L 1316.32,573.608 L 1312.16,577.363 L 1307.11,579.794 L 1303.98,580.508 L 1301.18,580.709 L 1183.07,580.709 L 1177.91,580.02 L 1173.46,578.204 L 1169.58,575.362 L 1166.09,570.982 L 1164.18,566.57 L 1163.4,561.827 L 1163.39,533.466 L 1124.01,533.466 L 1124.01,564.96 L 1124.84,573.048 L 1129.18,586.152 L 1136.43,597.902 L 1146.19,607.664 L 1158.38,615.184 L 1162.06,619.274 L 1162.95,624.704 L 1160.75,629.75 L 1149.2,641.356 L 1144.73,647.512 L 1140.37,650.872 L 1136.83,651.536 L 1009.82,651.536 L 1004.54,649.986 L 1002.92,648.676 L 983.213,628.974 L 980.577,624.146 L 980.353,622.07 L 980.353,592.06 L 979.533,584.034 L 975.225,571.03 L 968.033,559.37 L 958.345,549.684 L 946.685,542.492 L 933.683,538.184 L 925.657,537.364 L 879.459,537.364 L 871.435,538.184 L 858.429,542.492 L 846.771,549.684 L 836.731,559.818 L 832.959,563.106 L 827.529,563.99 L 822.483,561.796 L 810.707,549.684 L 799.049,542.492 L 786.045,538.184 L 778.019,537.364 L 731.821,537.364 L 723.797,538.184 L 710.791,542.492 L 699.133,549.684 L 689.447,559.37 L 684.025,568.158 L 679.935,571.838 L 675.715,572.796 L 607.747,572.796 L 602.469,571.246 L 599.437,568.158 L 594.017,559.372 L 584.329,549.684 L 572.671,542.492 L 559.667,538.184 L 551.641,537.364 L 505.443,537.364 L 497.419,538.184 L 484.413,542.492 L 472.755,549.684 L 462.715,559.818 L 458.919,563.144 L 453.489,564.026 L 448.443,561.834 L 436.667,549.716 L 425.015,542.528 L 412.021,538.222 L 404.001,537.402 L 400.589,537.402 L 400.589,576.78 L 404.481,577.279 L 408.27,578.598 L 411.702,580.677 L 414.089,582.826 L 416.085,585.343 L 417.944,588.899 L 419.023,592.764 L 419.291,595.965 L 419.14,670.22 L 418.472,673.362 L 417.29,676.349 L 415.14,679.737 L 412.941,682.078 L 410.383,684.02 L 407.536,685.508 L 404.481,686.501 L 400.589,687 L 400.589,726.38M 1124.01,494.096 L 1163.39,494.096 L 1163.39,466.535 L 1163.97,461.765 L 1165.7,457.278 L 1167.93,453.951 L 1171.44,450.657 L 1174.89,448.629 L 1178.69,447.344 L 1182.67,446.854 L 1222.44,446.85 L 1222.44,407.482 L 1179.13,407.482 L 1171.05,408.308 L 1157.94,412.65 L 1146.19,419.898 L 1136.43,429.658 L 1129.18,441.41 L 1124.84,454.514 L 1124.01,462.6 L 1124.01,494.096M 1261.81,446.85 L 1301.58,446.854 L 1305.56,447.344 L 1309.36,448.629 L 1313.45,451.145 L 1316.32,453.951 L 1318.92,457.994 L 1320.28,461.765 L 1320.87,466.535 L 1320.87,494.096 L 1360.23,494.096 L 1360.23,462.6 L 1359.41,454.514 L 1355.07,441.408 L 1347.82,429.658 L 1338.06,419.898 L 1326.31,412.65 L 1313.2,408.308 L 1305.12,407.482 L 1261.81,407.482 L 1261.81,446.85 z " style="fill-opacity:1.000000;fill:rgb(103,198,105);stroke:rgb(0,0,0);stroke-width:2"/></g>
<g fill-rule="evenodd"><path d="M 490.157,667.815 L 490.309,593.559 L 490.76,591.191 L 491.817,588.158 L 492.933,586.022 L 494.821,583.424 L 496.508,581.701 L 499.066,579.759 L 501.913,578.271 L 504.189,577.479 L 508.948,576.776 L 548.138,576.776 L 552.898,577.479 L 557.333,579.343 L 560.579,581.701 L 562.778,584.043 L 564.928,587.431 L 566.11,590.417 L 566.912,595.161 L 566.929,612.205 L 716.535,612.205 L 716.603,594.359 L 717.138,591.191 L 718.537,587.431 L 721.199,583.424 L 724.775,580.204 L 729.038,577.975 L 733.722,576.877 L 774.114,576.772 L 778.497,577.279 L 783.006,578.956 L 785.718,580.677 L 787.543,582.252 L 789.156,584.043 L 790.933,586.718 L 792.704,591.191 L 793.307,595.965 L 793.156,670.22 L 792.488,673.362 L 791.648,675.621 L 790.1,678.436 L 788.643,680.356 L 786.957,682.078 L 784.398,684.02 L 782.286,685.181 L 779.276,686.301 L 774.516,687.004 L 735.326,687.004 L 730.567,686.301 L 726.132,684.437 L 722.886,682.078 L 720.687,679.737 L 718.909,677.061 L 717.355,673.362 L 716.552,668.619 L 716.535,651.575 L 566.929,651.575 L 566.862,669.421 L 566.11,673.362 L 564.928,676.349 L 562.265,680.356 L 558.69,683.575 L 554.426,685.804 L 549.742,686.903 L 509.35,687.008 L 504.968,686.501 L 500.458,684.824 L 498.397,683.575 L 495.922,681.528 L 492.933,677.757 L 491.505,674.88 L 490.76,672.588 L 490.157,667.815 z " style="fill-opacity:1.000000;fill:rgb(115,81,255);stroke:rgb(0,0,0);stroke-width:2"/></g>
<g fill-rule="evenodd"><path d="M 864.19,668.619 L 864.325,593.559 L 864.992,590.417 L 866.175,587.431 L 867.38,585.343 L 869.375,582.826 L 871.762,580.677 L 874.474,578.956 L 877.435,577.711 L 879.77,577.112 L 883.366,576.772 L 922.957,576.81 L 925.348,577.112 L 928.442,577.975 L 930.644,578.956 L 933.356,580.677 L 935.743,582.826 L 938.169,586.022 L 939.877,589.653 L 940.794,593.559 L 940.945,642.438 L 989.453,690.947 L 1166.35,690.947 L 1168.71,684.468 L 1172.02,677.756 L 1176.05,671.455 L 1180.76,665.644 L 1186.09,660.394 L 1191.97,655.772 L 1198.33,651.836 L 1204.47,648.894 L 1210.22,646.79 L 1216.13,645.22 L 1222.17,644.198 L 1228.27,643.732 L 1258.02,643.825 L 1265.45,644.698 L 1273.39,646.589 L 1279.16,648.634 L 1285.32,651.514 L 1290.59,654.628 L 1296.08,658.638 L 1300.66,662.706 L 1305.28,667.696 L 1309.37,673.128 L 1312.89,678.949 L 1315.8,685.096 L 1318.08,691.507 L 1319.56,697.448 L 1320.55,704.176 L 1320.87,710.29 L 1320.55,717.084 L 1319.56,723.812 L 1318.08,729.753 L 1316.06,735.534 L 1313.21,741.71 L 1309.75,747.566 L 1305.71,753.04 L 1301.62,757.594 L 1296.61,762.191 L 1291.16,766.256 L 1285.92,769.424 L 1281.04,771.828 L 1275.33,774.048 L 1269.45,775.737 L 1263.43,776.882 L 1255.3,777.545 L 1230.31,777.559 L 1220.15,776.782 L 1214.81,775.737 L 1209.57,774.262 L 1204.47,772.366 L 1199.54,770.062 L 1194.81,767.365 L 1190.32,764.293 L 1182.63,757.594 L 1178.97,753.564 L 1175.65,749.251 L 1172.7,744.682 L 1170.12,739.888 L 1166.35,730.317 L 981.299,730.317 L 978.059,730.048 L 975.682,729.498 L 971.222,727.542 L 967.966,725.114 L 928.579,685.75 L 925.348,686.668 L 922.154,687.004 L 881.36,686.903 L 878.205,686.301 L 874.474,684.824 L 871.132,682.603 L 868.325,679.737 L 866.949,677.757 L 865.521,674.88 L 864.593,671.805 L 864.19,668.619 z " style="fill-opacity:1.000000;fill:rgb(74,236,41);stroke:rgb(0,0,0);stroke-width:2"/></g>
</svg>
