<?xml version="1.0" standalone="no"?>
<!DOCTYPE svg PUBLIC "-//W3C//DTD SVG 1.1//EN"
"http://www.w3.org/Graphics/SVG/1.1/DTD/svg11.dtd">
<svg width="119.244" height="92.7874" viewBox="0 0 2484.25 1933.07" version="1.1"
xmlns="http://www.w3.org/2000/svg"
xmlns:xlink="http://www.w3.org/1999/xlink">
<g fill-rule="evenodd"><path d="M 159.489,1763.82 L 159.489,169.252 L 161.039,163.974 L 165.197,160.372 L 169.253,159.49 L 2315,159.49 L 2320.28,161.04 L 2323.88,165.196 L 2324.77,169.252 L 2324.77,1763.82 L 2323.22,1769.1 L 2319.06,1772.7 L 2315,1773.58 L 169.253,1773.58 L 163.975,1772.03 L 160.371,1767.88 L 159.489,1763.82M 352.079,448.652 L 355.183,468.244 L 361.313,487.11 L 370.319,504.784 L 381.977,520.832 L 396.005,534.858 L 410.001,545.028 L 412.053,546.518 L 429.727,555.524 L 448.593,561.654 L 468.185,564.756 L 488.021,564.756 L 507.613,561.654 L 526.479,555.524 L 544.153,546.518 L 560.201,534.858 L 574.229,520.832 L 585.887,504.784 L 594.893,487.11 L 601.023,468.244 L 604.127,448.652 L 604.127,428.814 L 601.023,409.222 L 594.893,390.356 L 585.887,372.682 L 574.229,356.634 L 560.201,342.608 L 544.153,330.948 L 526.479,321.942 L 507.613,315.812 L 488.021,312.71 L 468.185,312.71 L 458.389,314.26 L 448.593,315.812 L 429.727,321.942 L 412.051,330.948 L 396.005,342.608 L 381.977,356.634 L 370.319,372.682 L 361.313,390.356 L 355.183,409.222 L 352.079,428.814 L 352.079,448.652M 576.281,965.552 L 577.099,975.014 L 581.405,988.01 L 588.593,999.662 L 598.273,1009.34 L 609.925,1016.53 L 615.651,1018.43 L 615.651,965.552 L 576.281,965.552M 576.281,888.78 L 615.651,888.78 L 615.651,835.906 L 609.925,837.804 L 598.273,844.99 L 588.593,854.67 L 581.405,866.322 L 577.099,879.318 L 576.281,888.78M 692.423,1018.43 L 698.147,1016.53 L 709.799,1009.34 L 712.067,1007.07 L 716.897,1004.44 L 722.383,1004.83 L 726.789,1008.13 L 728.239,1010.91 L 729.007,1013.22 L 736.199,1024.88 L 745.887,1034.57 L 757.545,1041.76 L 770.551,1046.07 L 778.575,1046.89 L 824.771,1046.89 L 832.799,1046.07 L 845.803,1041.76 L 857.461,1034.57 L 867.149,1024.88 L 874.341,1013.22 L 877.535,1003.58 L 880.667,999.06 L 885.747,996.948 L 977.373,996.89 L 982.651,998.44 L 986.253,1002.6 L 989.835,1013.22 L 997.027,1024.88 L 1006.71,1034.57 L 1018.37,1041.76 L 1031.38,1046.07 L 1039.4,1046.89 L 1085.6,1046.89 L 1093.63,1046.07 L 1106.63,1041.76 L 1118.29,1034.57 L 1128.33,1024.44 L 1132.1,1021.15 L 1137.53,1020.26 L 1142.58,1022.46 L 1154.35,1034.57 L 1166.01,1041.76 L 1179.02,1046.07 L 1187.04,1046.89 L 1227.21,1046.89 L 1231.89,1048.09 L 1234.12,1049.75 L 1244.43,1060.06 L 1255.85,1067.7 L 1268.54,1072.95 L 1282.01,1075.63 L 1650.04,1075.63 L 1655.32,1077.18 L 1665.47,1087.02 L 1679.01,1096.86 L 1693.93,1104.45 L 1709.84,1109.63 L 1726.38,1112.25 L 1766.74,1112.25 L 1783.27,1109.63 L 1799.19,1104.45 L 1814.1,1096.86 L 1827.64,1087.02 L 1839.48,1075.18 L 1849.32,1061.64 L 1856.92,1046.73 L 1862.09,1030.81 L 1864.71,1014.28 L 1864.71,997.538 L 1862.09,981.006 L 1856.92,965.086 L 1849.32,950.172 L 1839.48,936.632 L 1828.52,925.672 L 1825.88,920.844 L 1826.28,915.356 L 1829.57,910.952 L 1842.49,902.94 L 1852.25,893.178 L 1859.5,881.428 L 1863.84,868.324 L 1864.67,860.236 L 1864.67,856.3 L 1825.3,856.3 L 1824.89,860.287 L 1823.68,864.11 L 1822.17,866.942 L 1819.67,870.076 L 1816.59,872.639 L 1813.05,874.524 L 1809.2,875.653 L 1805.61,875.984 L 1685.5,875.882 L 1682.34,875.296 L 1678.6,873.857 L 1675.23,871.69 L 1672.89,869.491 L 1670.94,866.942 L 1669.13,863.366 L 1668.22,860.287 L 1667.81,856.3 L 1628.45,856.3 L 1628.45,860.236 L 1629.27,868.324 L 1633.62,881.428 L 1640.86,893.178 L 1650.62,902.94 L 1662.82,910.458 L 1665.51,912.918 L 1666.49,914.55 L 1667.43,918.072 L 1667.38,919.98 L 1666.26,923.448 L 1664.59,925.672 L 1656.94,933.322 L 1652.12,935.958 L 1650.04,936.182 L 1321.8,936.182 L 1316.53,934.632 L 1314.9,933.322 L 1290.79,909.216 L 1288.16,904.388 L 1287.93,902.312 L 1287.93,862.138 L 1287.11,854.114 L 1282.81,841.108 L 1275.61,829.45 L 1265.93,819.762 L 1254.27,812.57 L 1241.26,808.262 L 1233.24,807.442 L 1187.04,807.442 L 1179.02,808.262 L 1166.01,812.572 L 1154.35,819.762 L 1144.31,829.896 L 1140.54,833.184 L 1135.11,834.068 L 1130.06,831.876 L 1118.29,819.762 L 1106.63,812.57 L 1093.63,808.262 L 1085.6,807.442 L 1039.4,807.442 L 1031.38,808.262 L 1018.37,812.572 L 1006.71,819.762 L 997.027,829.45 L 989.835,841.11 L 986.641,850.75 L 983.509,855.272 L 978.429,857.384 L 977.373,857.442 L 886.803,857.442 L 881.525,855.892 L 877.921,851.734 L 874.339,841.108 L 867.149,829.45 L 857.461,819.762 L 845.801,812.57 L 832.799,808.262 L 824.773,807.442 L 778.575,807.442 L 770.549,808.262 L 757.545,812.572 L 745.887,819.762 L 736.199,829.45 L 729.007,841.11 L 728.239,843.426 L 725.109,847.95 L 720.029,850.062 L 714.613,849.092 L 712.067,847.26 L 709.799,844.99 L 698.147,837.804 L 692.423,835.906 L 692.423,1018.43M 1628.45,761.812 L 1667.81,761.812 L 1668.4,757.04 L 1670.13,752.554 L 1672.89,748.619 L 1677.2,745.037 L 1680.81,743.298 L 1684.7,742.326 L 1699.31,742.126 L 1699.31,702.756 L 1683.57,702.756 L 1675.48,703.584 L 1662.37,707.926 L 1650.62,715.172 L 1640.86,724.934 L 1633.62,736.684 L 1629.27,749.79 L 1628.45,757.876 L 1628.45,761.812M 1793.8,742.126 L 1808.41,742.326 L 1812.3,743.298 L 1815.91,745.037 L 1820.22,748.619 L 1822.98,752.554 L 1824.71,757.04 L 1825.3,761.812 L 1864.67,761.812 L 1864.67,757.876 L 1863.84,749.788 L 1859.5,736.684 L 1852.25,724.934 L 1842.49,715.172 L 1830.74,707.926 L 1817.63,703.584 L 1809.55,702.756 L 1793.8,702.756 L 1793.8,742.126M 1907.2,1507.95 L 1910.3,1527.54 L 1916.43,1546.41 L 1925.44,1564.08 L 1937.1,1580.13 L 1951.12,1594.16 L 1965.12,1604.33 L 1967.17,1605.82 L 1984.85,1614.82 L 2003.71,1620.95 L 2023.3,1624.06 L 2043.14,1624.06 L 2062.73,1620.95 L 2081.6,1614.82 L 2099.27,1605.82 L 2115.32,1594.16 L 2129.35,1580.13 L 2141.01,1564.08 L 2150.01,1546.41 L 2156.14,1527.54 L 2159.25,1507.95 L 2159.25,1488.11 L 2156.14,1468.52 L 2150.01,1449.66 L 2141.01,1431.98 L 2129.35,1415.93 L 2115.32,1401.91 L 2099.27,1390.25 L 2081.6,1381.24 L 2062.73,1375.11 L 2043.14,1372.01 L 2023.3,1372.01 L 2003.71,1375.11 L 1984.85,1381.24 L 1967.17,1390.25 L 1951.12,1401.91 L 1937.1,1415.93 L 1925.44,1431.98 L 1916.43,1449.66 L 1910.3,1468.52 L 1907.2,1488.11 L 1907.2,1507.95 z " style="fill-opacity:1.000000;fill:rgb(103,198,105);stroke:rgb(0,0,0);stroke-width:2"/></g>
<g fill-rule="evenodd"><path d="M 391.521,436.331 L 392.112,428.353 L 393.609,419.681 L 395.978,411.207 L 399.195,403.016 L 402.827,395.888 L 407.562,388.471 L 412.501,382.177 L 418.578,375.813 L 425.269,370.098 L 432.506,365.091 L 440.213,360.845 L 447.561,357.681 L 455.17,355.209 L 463.763,353.313 L 472.504,352.299 L 480.503,352.151 L 488.481,352.742 L 497.153,354.239 L 505.627,356.608 L 513.087,359.498 L 520.946,363.457 L 528.363,368.192 L 534.657,373.131 L 541.021,379.208 L 546.736,385.899 L 551.743,393.135 L 555.989,400.843 L 559.153,408.191 L 561.834,416.572 L 563.521,424.393 L 564.535,433.134 L 564.683,441.133 L 563.993,449.905 L 562.416,458.562 L 560.226,466.257 L 557.01,474.448 L 553.377,481.576 L 548.642,488.993 L 543.703,495.287 L 537.626,501.651 L 530.935,507.366 L 523.699,512.373 L 515.991,516.619 L 508.643,519.783 L 501.034,522.255 L 492.441,524.151 L 483.7,525.165 L 475.701,525.313 L 466.929,524.622 L 458.272,523.046 L 450.577,520.856 L 442.386,517.639 L 434.564,513.608 L 427.841,509.272 L 421.547,504.333 L 415.183,498.256 L 409.468,491.565 L 404.461,484.328 L 400.215,476.621 L 397.051,469.273 L 394.579,461.664 L 392.683,453.071 L 391.724,445.129 L 391.521,436.331 z " style="fill-opacity:1.000000;fill:rgb(115,81,255);stroke:rgb(0,0,0);stroke-width:2"/></g>
<g fill-rule="evenodd"><path d="M 763.287,988.287 L 763.355,864.437 L 764.355,859.731 L 765.289,857.509 L 766.953,854.762 L 770.246,851.255 L 772.196,849.838 L 775.043,848.35 L 778.098,847.357 L 782.078,846.855 L 821.268,846.855 L 824.463,847.19 L 827.556,848.054 L 830.463,849.422 L 832.47,850.756 L 835.395,853.502 L 837.283,856.101 L 838.991,859.731 L 839.79,862.843 L 840.059,866.043 L 840.059,896.851 L 1024.11,896.851 L 1024.11,866.043 L 1024.53,862.053 L 1025.77,858.237 L 1028.27,854.122 L 1031.07,851.255 L 1034.42,849.034 L 1038.92,847.357 L 1042.91,846.855 L 1084.5,847.056 L 1089.13,848.35 L 1092.65,850.283 L 1096.22,853.502 L 1098.88,857.509 L 1100.47,862.053 L 1100.89,866.043 L 1100.82,989.893 L 1100.47,992.278 L 1099.54,995.353 L 1097.22,999.569 L 1093.93,1003.08 L 1091.98,1004.49 L 1089.13,1005.98 L 1085.29,1007.14 L 1082.09,1007.48 L 1042.91,1007.48 L 1039.71,1007.14 L 1036.62,1006.28 L 1034.42,1005.3 L 1031.7,1003.58 L 1028.78,1000.83 L 1026.89,998.23 L 1025.46,995.353 L 1024.38,991.488 L 1024.11,988.287 L 1024.11,957.481 L 840.059,957.481 L 840.059,988.287 L 839.64,992.278 L 838.4,996.094 L 836.394,999.569 L 833.1,1003.08 L 829.758,1005.3 L 826.027,1006.77 L 821.268,1007.48 L 779.677,1007.27 L 775.043,1005.98 L 772.196,1004.49 L 770.246,1003.08 L 766.953,999.569 L 764.635,995.353 L 763.556,991.488 L 763.287,988.287 z " style="fill-opacity:1.000000;fill:rgb(74,236,41);stroke:rgb(0,0,0);stroke-width:2"/></g>
<g fill-rule="evenodd"><path d="M 1171.75,988.287 L 1171.75,866.043 L 1172.17,862.053 L 1172.82,859.731 L 1174.13,856.797 L 1175.9,854.122 L 1177.52,852.33 L 1179.99,850.283 L 1182.77,848.677 L 1185.78,847.557 L 1188.14,847.056 L 1231.34,846.956 L 1233.71,847.357 L 1236.77,848.35 L 1239.61,849.838 L 1242.17,851.78 L 1244.37,854.122 L 1246.52,857.509 L 1247.92,861.27 L 1248.46,864.437 L 1248.52,922.679 L 1301.44,975.591 L 1675.07,975.591 L 1677.83,970.689 L 1681.29,965.636 L 1684.73,961.425 L 1689.01,957.042 L 1693.66,953.067 L 1698.66,949.534 L 1703.36,946.789 L 1708.9,944.169 L 1718.57,940.959 L 1728.63,939.256 L 1734.74,938.976 L 1762.45,939.101 L 1768.53,939.753 L 1774.54,940.959 L 1780.4,942.708 L 1786.7,945.271 L 1792.12,948.114 L 1797.26,951.441 L 1802.59,955.67 L 1807,959.921 L 1811,964.557 L 1814.55,969.539 L 1817.95,975.429 L 1820.49,981.002 L 1822.51,986.782 L 1824.11,993.391 L 1825.05,1000.13 L 1825.29,1006.25 L 1824.98,1012.36 L 1823.98,1019.09 L 1822.51,1025.03 L 1820.49,1030.81 L 1817.95,1036.38 L 1814.55,1042.27 L 1811,1047.25 L 1806.53,1052.38 L 1802.08,1056.59 L 1797.26,1060.37 L 1792.12,1063.7 L 1786.09,1066.82 L 1780.4,1069.1 L 1773.87,1071.01 L 1767.86,1072.16 L 1761.77,1072.75 L 1734.06,1072.83 L 1728.63,1072.55 L 1718.57,1070.85 L 1708.9,1067.64 L 1703.36,1065.02 L 1698.66,1062.28 L 1693.66,1058.74 L 1689.01,1054.77 L 1684.73,1050.39 L 1681.29,1046.18 L 1677.83,1041.12 L 1675.08,1036.22 L 1288.88,1036.22 L 1282.36,1035.51 L 1279.2,1034.63 L 1275.41,1033.06 L 1272.55,1031.45 L 1269.25,1029.01 L 1242.42,1002.32 L 1240.28,1004.05 L 1237.5,1005.65 L 1234.49,1006.77 L 1231.34,1007.38 L 1189.74,1007.44 L 1185.78,1006.77 L 1181.35,1004.91 L 1177.52,1002 L 1174.96,998.909 L 1173.75,996.821 L 1172.57,993.835 L 1171.9,990.693 L 1171.75,988.287 z " style="fill-opacity:1.000000;fill:rgb(205,186,171);stroke:rgb(0,0,0);stroke-width:2"/></g>
<g fill-rule="evenodd"><path d="M 1946.67,1494.83 L 1947.44,1486.07 L 1948.91,1478.2 L 1951.35,1469.75 L 1954.65,1461.59 L 1958.34,1454.49 L 1963.15,1447.12 L 1968.14,1440.87 L 1974.28,1434.56 L 1981.02,1428.91 L 1988.31,1423.97 L 1995.33,1420.14 L 2003.43,1416.7 L 2011.06,1414.3 L 2019.67,1412.48 L 2027.62,1411.6 L 2036.42,1411.48 L 2045.19,1412.25 L 2053.05,1413.72 L 2060.75,1415.91 L 2068.94,1419.12 L 2076.06,1422.76 L 2083.48,1427.49 L 2090.38,1432.96 L 2096.69,1439.09 L 2101.85,1445.2 L 2106.86,1452.44 L 2111.11,1460.14 L 2114.55,1468.24 L 2116.95,1475.87 L 2118.77,1484.48 L 2119.65,1492.43 L 2119.78,1501.23 L 2119.11,1509.2 L 2117.53,1517.86 L 2115.09,1526.31 L 2111.79,1534.47 L 2108.1,1541.57 L 2103.29,1548.94 L 2098.3,1555.19 L 2092.16,1561.5 L 2085.42,1567.15 L 2078.13,1572.09 L 2071.11,1575.92 L 2063.01,1579.36 L 2055.38,1581.76 L 2046.77,1583.58 L 2038.82,1584.46 L 2030.02,1584.59 L 2021.25,1583.82 L 2013.39,1582.35 L 2005.69,1580.16 L 1997.5,1576.94 L 1989.68,1572.91 L 1982.31,1568.1 L 1976.06,1563.11 L 1969.75,1556.97 L 1964.59,1550.86 L 1959.58,1543.63 L 1955.69,1536.64 L 1952.17,1528.57 L 1949.49,1520.19 L 1947.67,1511.58 L 1946.79,1503.63 L 1946.67,1494.83 z " style="fill-opacity:1.000000;fill:rgb(242,251,227);stroke:rgb(0,0,0);stroke-width:2"/></g>
</svg>
