<?xml version="1.0" standalone="no"?>
<!DOCTYPE svg PUBLIC "-//W3C//DTD SVG 1.1//EN"
"http://www.w3.org/Graphics/SVG/1.1/DTD/svg11.dtd">
<svg width="119.244" height="92.7874" viewBox="0 0 2484.25 1933.07" version="1.1"
xmlns="http://www.w3.org/2000/svg"
xmlns:xlink="http://www.w3.org/1999/xlink">
<g fill-rule="evenodd"><path d="M 0,1933.07 L 0,2.27374e-13 L 2484.25,2.27374e-13 L 2484.25,1933.07 L 0,1933.07M 371.803,436.789 L 371.905,445.59 L 371.95,447.088 L 372.007,447.509 L 373.112,455.433 L 373.422,457.321 L 374.608,463.58 L 375.247,465.931 L 375.796,467.769 L 378.268,475.377 L 378.872,477.102 L 379.764,479.467 L 382.092,484.426 L 382.947,486.139 L 387.07,493.916 L 387.315,494.37 L 388.159,495.61 L 393.248,502.788 L 394.448,504.392 L 397.175,507.852 L 400.162,511.084 L 401.563,512.524 L 407.857,518.673 L 408.95,519.701 L 409.288,519.96 L 415.673,524.782 L 417.15,525.844 L 421.681,528.949 L 422.481,529.497 L 423.819,530.266 L 425.51,531.185 L 433.341,535.198 L 435.147,536.066 L 437.372,537.068 L 443.364,539.216 L 445.186,539.82 L 452.842,542.151 L 453.246,542.271 L 454.717,542.551 L 463.392,544.028 L 465.381,544.315 L 469.753,544.832 L 474.155,545.005 L 476.068,545.033 L 484.067,544.959 L 485.99,544.895 L 486.456,544.868 L 494.715,543.736 L 496.693,543.413 L 502.95,542.228 L 505.301,541.589 L 507.139,541.041 L 514.747,538.569 L 516.469,537.964 L 518.836,537.073 L 523.795,534.745 L 525.508,533.889 L 533.283,529.768 L 533.738,529.523 L 534.977,528.68 L 542.156,523.589 L 543.767,522.384 L 547.222,519.66 L 550.458,516.669 L 551.891,515.275 L 558.042,508.981 L 559.072,507.887 L 559.331,507.547 L 564.153,501.162 L 565.267,499.61 L 568.854,494.347 L 570.064,492.233 L 570.978,490.543 L 574.61,483.413 L 575.439,481.684 L 576.437,479.465 L 578.587,473.467 L 579.187,471.655 L 581.519,464.001 L 581.642,463.59 L 581.922,462.114 L 583.399,453.438 L 583.685,451.455 L 584.202,447.083 L 584.375,442.683 L 584.403,440.769 L 584.329,432.768 L 584.265,430.845 L 584.238,430.38 L 583.105,422.122 L 582.8,420.237 L 581.613,413.883 L 581.212,412.396 L 580.666,410.549 L 577.965,402.173 L 577.334,400.368 L 576.442,397.999 L 574.117,393.044 L 573.259,391.327 L 569.136,383.55 L 568.892,383.096 L 568.047,381.857 L 562.958,374.678 L 561.758,373.074 L 559.031,369.614 L 556.044,366.382 L 554.641,364.94 L 548.346,358.79 L 547.256,357.765 L 546.917,357.506 L 540.531,352.684 L 538.979,351.57 L 533.715,347.981 L 531.603,346.773 L 529.836,345.82 L 521.987,341.842 L 520.25,341.015 L 518.84,340.384 L 512.753,338.218 L 510.934,337.62 L 502.956,335.211 L 502.497,335.111 L 500.523,334.732 L 491.84,333.295 L 489.939,333.028 L 486.454,332.624 L 481.96,332.458 L 480.138,332.433 L 472.139,332.507 L 470.217,332.571 L 469.749,332.598 L 461.492,333.73 L 461.472,333.733 L 459.513,334.053 L 453.257,335.237 L 450.905,335.877 L 449.069,336.425 L 441.459,338.897 L 439.733,339.503 L 437.37,340.393 L 432.409,342.722 L 430.698,343.577 L 422.923,347.698 L 422.467,347.944 L 421.23,348.786 L 414.05,353.876 L 412.439,355.082 L 408.985,357.805 L 405.749,360.797 L 404.315,362.191 L 398.164,368.485 L 397.134,369.579 L 396.875,369.919 L 392.054,376.304 L 390.94,377.856 L 387.352,383.119 L 386.142,385.233 L 385.229,386.923 L 381.596,394.053 L 380.768,395.782 L 379.769,398.001 L 377.62,403.999 L 376.993,405.898 L 374.581,413.88 L 374.482,414.333 L 374.102,416.317 L 372.665,424.999 L 372.399,426.891 L 371.994,430.382 L 371.827,434.871 L 371.803,436.789M 727.861,969.818 L 737.708,984.344 L 739.675,988.275 L 740.482,989.822 L 740.677,990.181 L 742.218,993.276 L 743.896,996.985 L 744.666,998.802 L 745.426,1000.72 L 745.838,1001.73 L 747.092,1004.66 L 747.139,1004.77 L 747.226,1004.92 L 749.648,1009.08 L 751.877,1012.48 L 752.503,1013.15 L 755.852,1016.6 L 758.278,1018.9 L 758.587,1019.11 L 760.591,1020.45 L 763.055,1021.98 L 765.849,1023.57 L 765.991,1023.65 L 769.733,1025 L 774.336,1026.4 L 774.735,1026.52 L 779.581,1027.08 L 779.585,1027.08 L 821.173,1027.18 L 823.763,1027.11 L 824.165,1027.06 L 828.611,1026.5 L 828.935,1026.42 L 833.289,1025.12 L 837.061,1023.75 L 837.354,1023.64 L 840.685,1021.73 L 844.065,1019.57 L 845.071,1018.9 L 847.497,1016.6 L 850.846,1013.15 L 851.471,1012.49 L 853.489,1009.44 L 855.546,1005.99 L 856.237,1004.78 L 857.186,1002.2 L 858.437,998.386 L 858.758,997.363 L 859.649,994.374 L 860.511,991.798 L 860.999,990.482 L 861.747,988.288 L 862.344,986.375 L 864.135,981.558 L 872.368,979.099 L 877.87,978.001 L 885.735,977.215 L 977.361,977.186 L 983.04,977.593 L 988.541,978.385 L 999.973,981.624 L 1000.5,982.978 L 1002.48,988.288 L 1002.55,988.479 L 1003.14,990.043 L 1004.19,993.18 L 1005.09,996.249 L 1005.26,996.834 L 1006.44,1000.67 L 1007.71,1004.17 L 1007.94,1004.73 L 1009.2,1007.01 L 1010.92,1009.82 L 1012.71,1012.48 L 1012.72,1012.49 L 1015.27,1015.22 L 1018.15,1018.01 L 1019.1,1018.9 L 1021.12,1020.25 L 1023.84,1021.95 L 1026.36,1023.4 L 1026.82,1023.65 L 1028.58,1024.33 L 1031.31,1025.27 L 1034.39,1026.21 L 1035.56,1026.55 L 1037.64,1026.82 L 1040.41,1027.11 L 1040.84,1027.13 L 1042.91,1027.18 L 1082.1,1027.18 L 1084.16,1027.13 L 1084.59,1027.11 L 1087.36,1026.82 L 1089.45,1026.55 L 1091.01,1026.09 L 1094.84,1024.88 L 1098.18,1023.65 L 1098.33,1023.57 L 1101.12,1021.98 L 1103.58,1020.45 L 1105.59,1019.11 L 1105.86,1018.93 L 1108.31,1016.59 L 1111.65,1013.13 L 1114.1,1010.34 L 1114.93,1009.31 L 1115.03,1009.19 L 1118,1005.5 L 1118.21,1005.23 L 1120.92,1001.81 L 1123.2,999.136 L 1126.01,996.05 L 1127.72,994.253 L 1128.05,993.915 L 1131.71,989.911 L 1132.45,989.048 L 1136.29,984.82 L 1139.7,988.288 L 1141.49,990.2 L 1143.54,992.486 L 1146.61,996.056 L 1147.56,997.182 L 1148.92,998.85 L 1151.54,1001.82 L 1151.78,1002.08 L 1154.05,1004.64 L 1156.03,1007.04 L 1157.07,1008.36 L 1157.53,1008.96 L 1159.67,1011.56 L 1162.35,1014.55 L 1165.57,1017.75 L 1166.9,1018.93 L 1169.41,1020.65 L 1173.67,1023.19 L 1174.48,1023.61 L 1178.14,1024.98 L 1182.47,1026.33 L 1183.2,1026.51 L 1186.44,1026.95 L 1188.05,1027.13 L 1189.77,1027.17 L 1227.21,1027.14 L 1231.37,1027.35 L 1232.18,1027.44 L 1235.2,1027.64 L 1237.1,1027.7 L 1237.88,1027.73 L 1243.9,1032.04 L 1246,1033.87 L 1248.08,1035.79 L 1255.32,1043.02 L 1257.07,1044.66 L 1257.48,1044.95 L 1260.83,1047.31 L 1262.84,1048.63 L 1265.25,1050.11 L 1265.66,1050.31 L 1267.86,1051.3 L 1271.65,1052.87 L 1273.9,1053.73 L 1274.33,1053.87 L 1277.08,1054.53 L 1280.23,1055.14 L 1283.97,1055.72 L 1286.74,1055.87 L 1288.88,1055.93 L 1650.04,1055.93 L 1655.7,1056.33 L 1661.21,1057.12 L 1663.27,1057.47 L 1663.95,1058.03 L 1665.36,1059.22 L 1669.19,1062.87 L 1669.32,1063.01 L 1670.51,1064.25 L 1674.85,1068.57 L 1676.16,1069.82 L 1678.3,1071.76 L 1680.84,1073.77 L 1682.28,1074.85 L 1687.26,1078.42 L 1688.67,1079.39 L 1689.42,1079.87 L 1693.41,1082.06 L 1694.93,1082.84 L 1700.42,1085.54 L 1701.54,1086.07 L 1702.65,1086.45 L 1712.34,1089.63 L 1714.49,1090.27 L 1715.27,1090.41 L 1725.33,1092.06 L 1727.62,1092.36 L 1727.94,1092.4 L 1733.07,1092.53 L 1734.12,1092.54 L 1761.83,1092.5 L 1763.68,1092.45 L 1765.17,1092.38 L 1769.77,1091.79 L 1771.55,1091.52 L 1777.58,1090.47 L 1778.62,1090.28 L 1779.44,1090.03 L 1785.94,1088.03 L 1787.75,1087.42 L 1791.56,1086.04 L 1793.44,1085.18 L 1795.16,1084.35 L 1801.21,1081.25 L 1802.89,1080.33 L 1803.69,1079.87 L 1807.98,1076.93 L 1809.44,1075.87 L 1814.33,1072.18 L 1814.72,1071.89 L 1815.68,1070.98 L 1820.07,1066.71 L 1821.41,1065.34 L 1824.31,1062.23 L 1825.9,1060.24 L 1827.05,1058.73 L 1830.62,1053.76 L 1831.71,1052.17 L 1832.32,1051.23 L 1835.03,1046.24 L 1835.9,1044.55 L 1838.52,1039.11 L 1838.55,1039.03 L 1839.17,1037.32 L 1841.12,1031.52 L 1841.66,1029.79 L 1842.7,1026.16 L 1843.17,1023.86 L 1843.5,1021.99 L 1844.54,1015.27 L 1844.78,1013.36 L 1844.85,1012.71 L 1844.99,1007.24 L 1844.99,1005.45 L 1844.87,999.326 L 1844.86,999.099 L 1844.65,997.419 L 1843.65,990.69 L 1843.31,988.721 L 1842.7,985.661 L 1841.69,982.116 L 1841.12,980.293 L 1839.17,974.489 L 1838.55,972.782 L 1838.52,972.705 L 1835.9,967.263 L 1835.03,965.572 L 1832.32,960.585 L 1831.71,959.638 L 1830.63,958.056 L 1827.05,953.088 L 1825.96,951.651 L 1824.32,949.578 L 1821.95,947.027 L 1820.69,945.736 L 1816.33,941.445 L 1814.92,940.131 L 1814.47,939.723 L 1810.42,935.554 L 1810.14,935.22 L 1808.77,933.673 L 1806.62,931.36 L 1804.54,928.947 L 1803.1,927.173 L 1799.13,921.567 L 1797.44,918.863 L 1797.41,918.81 L 1793.82,913.038 L 1793.01,911.711 L 1792.22,910.389 L 1790.15,910.053 L 1784.03,909.156 L 1781,908.784 L 1774.88,908.172 L 1771.94,907.946 L 1765.82,907.617 L 1762.59,907.526 L 1734.89,907.452 L 1733.3,907.467 L 1727.18,907.605 L 1723.31,907.81 L 1713.11,908.663 L 1708.07,909.279 L 1701.07,910.406 L 1698.91,914.048 L 1696.47,917.92 L 1695.89,918.818 L 1694.67,920.695 L 1692.49,923.827 L 1691.06,925.745 L 1689.9,927.242 L 1687.46,930.283 L 1687.43,930.318 L 1686.18,931.868 L 1682.67,935.739 L 1681.93,936.455 L 1680.68,937.723 L 1680.62,937.786 L 1678.66,939.734 L 1676.18,942.017 L 1674.89,943.273 L 1670.92,947.294 L 1670.58,947.628 L 1669.36,948.835 L 1666.72,951.227 L 1665.22,952.474 L 1663.81,953.688 L 1663.21,954.234 L 1662.23,954.484 L 1654.25,955.718 L 1652.16,955.83 L 1650.04,955.887 L 1321.81,955.887 L 1316.14,955.48 L 1310.64,954.689 L 1310.13,954.612 L 1304.05,950.099 L 1302.49,948.703 L 1300.97,947.256 L 1276.86,923.15 L 1273.14,918.854 L 1269.81,914.405 L 1269.5,913.979 L 1268.39,906.521 L 1268.28,904.433 L 1268.22,902.312 L 1268.2,864.415 L 1268.17,863.145 L 1267.95,861.137 L 1267.57,858.297 L 1267.48,857.96 L 1266.42,854.398 L 1265.09,850.611 L 1264.7,849.551 L 1263.2,846.93 L 1261.07,843.528 L 1259.95,841.838 L 1258.79,840.585 L 1256.55,838.279 L 1254.15,836 L 1253.52,835.451 L 1251.55,834.104 L 1248.76,832.355 L 1245.96,830.766 L 1245.82,830.684 L 1242.88,829.586 L 1239.83,828.584 L 1237.08,827.792 L 1237.02,827.784 L 1234.63,827.46 L 1232.23,827.209 L 1231.29,827.199 L 1188.09,827.25 L 1188.05,827.25 L 1184.03,827.671 L 1183.2,827.801 L 1181.68,828.213 L 1178.91,829.073 L 1175.88,830.139 L 1174.45,830.672 L 1172.88,831.56 L 1170.13,833.206 L 1167.36,835.016 L 1166.79,835.424 L 1164.94,837.122 L 1162.88,839.148 L 1161.22,840.9 L 1159.3,843.09 L 1158.55,844.007 L 1157.6,845.138 L 1157.22,845.566 L 1155.02,848.295 L 1154.42,849.111 L 1153.01,850.916 L 1150.81,853.591 L 1149.07,855.606 L 1145.72,859.27 L 1144.93,860.129 L 1142.27,862.94 L 1140.18,865.238 L 1139.48,866.044 L 1136.32,869.481 L 1132.95,866.062 L 1130.07,862.972 L 1126.85,859.277 L 1125.1,857.111 L 1122.68,854.319 L 1121.07,852.579 L 1119.2,850.438 L 1115.78,846.283 L 1115.54,845.989 L 1112.75,842.524 L 1109.4,838.87 L 1105.93,835.531 L 1105.76,835.372 L 1102.15,832.991 L 1098.68,830.97 L 1098.18,830.684 L 1094.44,829.334 L 1089.84,827.929 L 1089.44,827.81 L 1084.59,827.25 L 1084.59,827.25 L 1043,827.149 L 1040.43,827.227 L 1040.41,827.228 L 1036.44,827.681 L 1035.56,827.792 L 1032.04,828.849 L 1027.5,830.445 L 1026.82,830.69 L 1023.5,832.598 L 1020.12,834.761 L 1019.1,835.432 L 1016.96,837.441 L 1014.14,840.292 L 1012.69,841.836 L 1011.35,843.882 L 1008.85,847.988 L 1007.94,849.551 L 1006.99,852.134 L 1005.74,855.946 L 1005.42,856.971 L 1004.53,859.948 L 1003.66,862.54 L 1003.18,863.84 L 1002.43,866.044 L 1001.83,867.961 L 1000.04,872.776 L 991.808,875.234 L 986.307,876.332 L 979.512,877.103 L 978.455,877.132 L 977.373,877.147 L 886.803,877.147 L 881.136,876.74 L 875.635,875.949 L 864.202,872.709 L 863.678,871.362 L 861.694,866.044 L 861.625,865.859 L 861.031,864.288 L 859.982,861.153 L 859.087,858.083 L 859.036,857.909 L 858.123,854.827 L 856.894,851.3 L 856.216,849.616 L 855.166,847.678 L 853.247,844.501 L 851.468,841.848 L 851.455,841.833 L 848.911,839.123 L 846.03,836.329 L 845.072,835.431 L 843.403,834.301 L 841.372,833.001 L 838.874,831.528 L 837.347,830.701 L 835.973,830.153 L 832.862,829.06 L 829.788,828.122 L 828.62,827.785 L 826.533,827.513 L 823.765,827.226 L 823.337,827.203 L 821.269,827.149 L 782.079,827.149 L 779.603,827.227 L 779.583,827.228 L 775.617,827.681 L 774.731,827.792 L 771.992,828.583 L 768.939,829.586 L 765.992,830.685 L 765.849,830.766 L 763.055,832.355 L 760.602,833.872 L 758.598,835.214 L 758.277,835.432 L 755.852,837.731 L 752.503,841.186 L 751.877,841.847 L 750.074,844.541 L 748.399,847.283 L 747.112,849.555 L 747.068,849.67 L 747.008,849.826 L 746.084,852.052 L 744.804,854.887 L 744.525,855.518 L 742.581,860.024 L 742.576,860.035 L 740.683,864.426 L 735.717,873.466 L 732.046,878.965 L 727.884,884.642 L 727.861,969.818M 1926.93,1495.11 L 1926.99,1503.9 L 1927.05,1505.83 L 1927.08,1506.38 L 1928.08,1513.77 L 1928.38,1515.65 L 1929.71,1522.88 L 1930.09,1524.28 L 1930.66,1526.22 L 1933.36,1534.59 L 1934.02,1536.48 L 1934.89,1538.76 L 1937.61,1544.52 L 1938.47,1546.24 L 1942.23,1553.3 L 1942.43,1553.67 L 1943.28,1554.91 L 1948.37,1562.09 L 1949.51,1563.62 L 1952.29,1567.16 L 1954.67,1569.74 L 1955.99,1571.12 L 1962.26,1577.3 L 1963.66,1578.62 L 1964.08,1578.99 L 1970,1583.5 L 1971.55,1584.62 L 1976.8,1588.24 L 1977.6,1588.79 L 1978.86,1589.52 L 1980.62,1590.48 L 1988.46,1594.5 L 1990.27,1595.37 L 1992.49,1596.37 L 1998.49,1598.52 L 2000.3,1599.12 L 2007.96,1601.45 L 2008.36,1601.57 L 2009.75,1601.83 L 2017.63,1603.2 L 2019.52,1603.48 L 2024.87,1604.13 L 2028.29,1604.28 L 2030.29,1604.32 L 2039.09,1604.26 L 2041.02,1604.2 L 2041.57,1604.17 L 2048.95,1603.17 L 2050.84,1602.87 L 2058.07,1601.54 L 2059.47,1601.16 L 2061.32,1600.62 L 2068.94,1598.19 L 2070.74,1597.56 L 2073.95,1596.36 L 2078.83,1594.08 L 2080.55,1593.23 L 2087.62,1589.5 L 2088.86,1588.82 L 2089.28,1588.53 L 2096.49,1583.47 L 2098.09,1582.28 L 2102.34,1578.96 L 2104.86,1576.65 L 2106.31,1575.26 L 2112.49,1569 L 2113.81,1567.59 L 2114.18,1567.18 L 2118.69,1561.25 L 2119.81,1559.71 L 2123.98,1553.65 L 2124.71,1552.4 L 2125.63,1550.71 L 2129.29,1543.6 L 2130.13,1541.87 L 2131.55,1538.76 L 2133.39,1533.7 L 2134.03,1531.8 L 2136.61,1523.39 L 2136.76,1522.89 L 2137.04,1521.41 L 2138.52,1512.74 L 2138.79,1510.85 L 2139.33,1506.38 L 2139.48,1502.88 L 2139.51,1500.96 L 2139.45,1492.16 L 2139.39,1490.23 L 2139.36,1489.68 L 2138.36,1482.3 L 2138.06,1480.42 L 2136.73,1473.18 L 2136.35,1471.78 L 2135.81,1469.94 L 2133.37,1462.32 L 2132.75,1460.51 L 2131.55,1457.3 L 2129.27,1452.42 L 2128.38,1450.63 L 2124.25,1442.85 L 2124.01,1442.4 L 2123.17,1441.16 L 2118.08,1433.98 L 2116.93,1432.44 L 2114.16,1428.91 L 2111.78,1426.32 L 2110.45,1424.95 L 2104.18,1418.77 L 2102.71,1417.39 L 2102.36,1417.08 L 2095.72,1412.04 L 2094.09,1410.87 L 2088.83,1407.28 L 2086.72,1406.07 L 2085.04,1405.16 L 2077.91,1401.53 L 2076.17,1400.7 L 2073.95,1399.7 L 2067.96,1397.55 L 2066.14,1396.95 L 2058.49,1394.62 L 2058.08,1394.49 L 2056.69,1394.23 L 2048.81,1392.87 L 2046.91,1392.59 L 2041.57,1391.93 L 2038.15,1391.78 L 2036.15,1391.74 L 2027.35,1391.8 L 2025.43,1391.86 L 2024.87,1391.9 L 2017.49,1392.89 L 2015.6,1393.19 L 2008.37,1394.53 L 2006.97,1394.9 L 2005.12,1395.44 L 1997.51,1397.88 L 1995.69,1398.51 L 1992.49,1399.7 L 1987.61,1401.98 L 1985.9,1402.83 L 1978.82,1406.56 L 1977.58,1407.24 L 1977.16,1407.54 L 1969.96,1412.59 L 1968.35,1413.79 L 1964.1,1417.1 L 1961.58,1419.41 L 1960.13,1420.81 L 1953.95,1427.07 L 1952.64,1428.47 L 1952.26,1428.89 L 1947.75,1434.81 L 1946.63,1436.36 L 1942.46,1442.41 L 1941.73,1443.67 L 1940.81,1445.35 L 1937.15,1452.47 L 1936.31,1454.19 L 1934.89,1457.3 L 1933.05,1462.37 L 1932.42,1464.26 L 1929.83,1472.68 L 1929.68,1473.18 L 1929.42,1474.56 L 1928.06,1482.44 L 1927.78,1484.33 L 1927.12,1489.68 L 1926.97,1493.1 L 1926.93,1495.11 z " style="fill-opacity:0.200000;fill:rgb(103,198,105);"/></g>
<g fill-rule="evenodd"><path d="M 371.803,436.789 L 371.827,434.871 L 371.994,430.382 L 372.399,426.891 L 372.665,424.999 L 374.102,416.317 L 374.482,414.333 L 374.581,413.88 L 376.993,405.898 L 377.62,403.999 L 379.769,398.001 L 380.768,395.782 L 381.596,394.053 L 385.229,386.923 L 386.142,385.233 L 387.352,383.119 L 390.94,377.856 L 392.054,376.304 L 396.875,369.919 L 397.134,369.579 L 398.164,368.485 L 404.315,362.191 L 405.749,360.797 L 408.985,357.805 L 412.439,355.082 L 414.05,353.876 L 421.23,348.786 L 422.467,347.944 L 422.923,347.698 L 430.698,343.577 L 432.409,342.722 L 437.37,340.393 L 439.733,339.503 L 441.459,338.897 L 449.069,336.425 L 450.905,335.877 L 453.257,335.237 L 459.513,334.053 L 461.472,333.733 L 461.492,333.73 L 469.749,332.598 L 470.217,332.571 L 472.139,332.507 L 480.138,332.433 L 481.96,332.458 L 486.454,332.624 L 489.939,333.028 L 491.84,333.295 L 500.523,334.732 L 502.497,335.111 L 502.956,335.211 L 510.934,337.62 L 512.753,338.218 L 518.84,340.384 L 520.25,341.015 L 521.987,341.842 L 529.836,345.82 L 531.603,346.773 L 533.715,347.981 L 538.979,351.57 L 540.531,352.684 L 546.917,357.506 L 547.256,357.765 L 548.346,358.79 L 554.641,364.94 L 556.044,366.382 L 559.031,369.614 L 561.758,373.074 L 562.958,374.678 L 568.047,381.857 L 568.892,383.096 L 569.136,383.55 L 573.259,391.327 L 574.117,393.044 L 576.442,397.999 L 577.334,400.368 L 577.965,402.173 L 580.666,410.549 L 581.212,412.396 L 581.613,413.883 L 582.8,420.237 L 583.105,422.122 L 584.238,430.38 L 584.265,430.845 L 584.329,432.768 L 584.403,440.769 L 584.375,442.683 L 584.202,447.083 L 583.685,451.455 L 583.399,453.438 L 581.922,462.114 L 581.642,463.59 L 581.519,464.001 L 579.187,471.655 L 578.587,473.467 L 576.437,479.465 L 575.439,481.684 L 574.61,483.413 L 570.978,490.543 L 570.064,492.233 L 568.854,494.347 L 565.267,499.61 L 564.153,501.162 L 559.331,507.547 L 559.072,507.887 L 558.042,508.981 L 551.891,515.275 L 550.458,516.669 L 547.222,519.66 L 543.767,522.384 L 542.156,523.589 L 534.977,528.68 L 533.738,529.523 L 533.283,529.768 L 525.508,533.889 L 523.795,534.745 L 518.836,537.073 L 516.469,537.964 L 514.747,538.569 L 507.139,541.041 L 505.301,541.589 L 502.95,542.228 L 496.693,543.413 L 494.715,543.736 L 486.456,544.868 L 485.99,544.895 L 484.067,544.959 L 476.068,545.033 L 474.155,545.005 L 469.753,544.832 L 465.381,544.315 L 463.392,544.028 L 454.717,542.551 L 453.246,542.271 L 452.842,542.151 L 445.186,539.82 L 443.364,539.216 L 437.372,537.068 L 435.147,536.066 L 433.341,535.198 L 425.51,531.185 L 423.819,530.266 L 422.481,529.497 L 421.681,528.949 L 417.15,525.844 L 415.673,524.782 L 409.288,519.96 L 408.95,519.701 L 407.857,518.673 L 401.563,512.524 L 400.162,511.084 L 397.175,507.852 L 394.448,504.392 L 393.248,502.788 L 388.159,495.61 L 387.315,494.37 L 387.07,493.916 L 382.947,486.139 L 382.092,484.426 L 379.764,479.467 L 378.872,477.102 L 378.268,475.377 L 375.796,467.769 L 375.247,465.931 L 374.608,463.58 L 373.422,457.321 L 373.112,455.433 L 372.007,447.509 L 371.95,447.088 L 371.905,445.59 L 371.803,436.789 z " style="fill-opacity:0.200000;fill:rgb(115,81,255);"/></g>
<g fill-rule="evenodd"><path d="M 727.861,969.818 L 727.884,884.642 L 732.046,878.965 L 735.717,873.466 L 740.683,864.426 L 742.576,860.035 L 742.581,860.024 L 744.525,855.518 L 744.804,854.887 L 746.084,852.052 L 747.008,849.826 L 747.068,849.67 L 747.112,849.555 L 748.399,847.283 L 750.074,844.541 L 751.877,841.847 L 752.503,841.186 L 755.852,837.731 L 758.277,835.432 L 758.598,835.214 L 760.602,833.872 L 763.055,832.355 L 765.849,830.766 L 765.992,830.685 L 768.939,829.586 L 771.992,828.583 L 774.731,827.792 L 775.617,827.681 L 779.583,827.228 L 779.603,827.227 L 782.079,827.149 L 821.269,827.149 L 823.337,827.203 L 823.765,827.226 L 826.533,827.513 L 828.62,827.785 L 829.788,828.122 L 832.862,829.06 L 835.973,830.153 L 837.347,830.701 L 838.874,831.528 L 841.372,833.001 L 843.403,834.301 L 845.072,835.431 L 846.03,836.329 L 848.911,839.123 L 851.455,841.833 L 851.468,841.848 L 853.247,844.501 L 855.166,847.678 L 856.216,849.616 L 856.894,851.3 L 858.123,854.827 L 859.036,857.909 L 859.087,858.083 L 859.982,861.153 L 861.031,864.288 L 861.625,865.859 L 861.694,866.044 L 863.678,871.362 L 864.202,872.709 L 875.635,875.949 L 881.136,876.74 L 886.803,877.147 L 977.373,877.147 L 978.455,877.132 L 979.512,877.103 L 986.307,876.332 L 991.808,875.234 L 1000.04,872.776 L 1001.83,867.961 L 1002.43,866.044 L 1003.18,863.84 L 1003.66,862.54 L 1004.53,859.948 L 1005.42,856.971 L 1005.74,855.946 L 1006.99,852.134 L 1007.94,849.551 L 1008.85,847.988 L 1011.35,843.882 L 1012.69,841.836 L 1014.14,840.292 L 1016.96,837.441 L 1019.1,835.432 L 1020.12,834.761 L 1023.5,832.598 L 1026.82,830.69 L 1027.5,830.445 L 1032.04,828.849 L 1035.56,827.792 L 1036.44,827.681 L 1040.41,827.228 L 1040.43,827.227 L 1043,827.149 L 1084.59,827.25 L 1084.59,827.25 L 1089.44,827.81 L 1089.84,827.929 L 1094.44,829.334 L 1098.18,830.684 L 1098.68,830.97 L 1102.15,832.991 L 1105.76,835.372 L 1105.93,835.531 L 1109.4,838.87 L 1112.75,842.524 L 1115.54,845.989 L 1115.78,846.283 L 1119.2,850.438 L 1121.07,852.579 L 1122.68,854.319 L 1125.1,857.111 L 1126.85,859.277 L 1130.07,862.972 L 1132.95,866.062 L 1136.32,869.481 L 1136.29,984.82 L 1132.45,989.048 L 1131.71,989.911 L 1128.05,993.915 L 1127.72,994.253 L 1126.01,996.05 L 1123.2,999.136 L 1120.92,1001.81 L 1118.21,1005.23 L 1118,1005.5 L 1115.03,1009.19 L 1114.93,1009.31 L 1114.1,1010.34 L 1111.65,1013.13 L 1108.31,1016.59 L 1105.86,1018.93 L 1105.59,1019.11 L 1103.58,1020.45 L 1101.12,1021.98 L 1098.33,1023.57 L 1098.18,1023.65 L 1094.84,1024.88 L 1091.01,1026.09 L 1089.45,1026.55 L 1087.36,1026.82 L 1084.59,1027.11 L 1084.16,1027.13 L 1082.1,1027.18 L 1042.91,1027.18 L 1040.84,1027.13 L 1040.41,1027.11 L 1037.64,1026.82 L 1035.56,1026.55 L 1034.39,1026.21 L 1031.31,1025.27 L 1028.58,1024.33 L 1026.82,1023.65 L 1026.36,1023.4 L 1023.84,1021.95 L 1021.12,1020.25 L 1019.1,1018.9 L 1018.15,1018.01 L 1015.27,1015.22 L 1012.72,1012.49 L 1012.71,1012.48 L 1010.92,1009.82 L 1009.2,1007.01 L 1007.94,1004.73 L 1007.71,1004.17 L 1006.44,1000.67 L 1005.26,996.834 L 1005.09,996.249 L 1004.19,993.18 L 1003.14,990.043 L 1002.55,988.479 L 1002.48,988.288 L 1000.5,982.978 L 999.973,981.624 L 988.541,978.385 L 983.04,977.593 L 977.361,977.186 L 885.735,977.215 L 877.87,978.001 L 872.368,979.099 L 864.135,981.558 L 862.344,986.375 L 861.747,988.288 L 860.999,990.482 L 860.511,991.798 L 859.649,994.374 L 858.758,997.363 L 858.437,998.386 L 857.186,1002.2 L 856.237,1004.78 L 855.546,1005.99 L 853.489,1009.44 L 851.471,1012.49 L 850.846,1013.15 L 847.497,1016.6 L 845.071,1018.9 L 844.065,1019.57 L 840.685,1021.73 L 837.354,1023.64 L 837.061,1023.75 L 833.289,1025.12 L 828.935,1026.42 L 828.611,1026.5 L 824.165,1027.06 L 823.763,1027.11 L 821.173,1027.18 L 779.585,1027.08 L 779.581,1027.08 L 774.735,1026.52 L 774.336,1026.4 L 769.733,1025 L 765.991,1023.65 L 765.849,1023.57 L 763.055,1021.98 L 760.591,1020.45 L 758.587,1019.11 L 758.278,1018.9 L 755.852,1016.6 L 752.503,1013.15 L 751.877,1012.48 L 749.648,1009.08 L 747.226,1004.92 L 747.139,1004.77 L 747.092,1004.66 L 745.838,1001.73 L 745.426,1000.72 L 744.666,998.802 L 743.896,996.985 L 742.218,993.276 L 740.677,990.181 L 740.482,989.822 L 739.675,988.275 L 737.708,984.344 L 727.861,969.818 z " style="fill-opacity:0.200000;fill:rgb(74,236,41);"/></g>
<g fill-rule="evenodd"><path d="M 1136.29,984.82 L 1136.32,869.481 L 1139.48,866.044 L 1140.18,865.238 L 1142.27,862.94 L 1144.93,860.129 L 1145.72,859.27 L 1149.07,855.606 L 1150.81,853.591 L 1153.01,850.916 L 1154.42,849.111 L 1155.02,848.295 L 1157.22,845.566 L 1157.6,845.138 L 1158.55,844.007 L 1159.3,843.09 L 1161.22,840.9 L 1162.88,839.148 L 1164.94,837.122 L 1166.79,835.424 L 1167.36,835.016 L 1170.13,833.206 L 1172.88,831.56 L 1174.45,830.672 L 1175.88,830.139 L 1178.91,829.073 L 1181.68,828.213 L 1183.2,827.801 L 1184.03,827.671 L 1188.05,827.25 L 1188.09,827.25 L 1231.29,827.199 L 1232.23,827.209 L 1234.63,827.46 L 1237.02,827.784 L 1237.08,827.792 L 1239.83,828.584 L 1242.88,829.586 L 1245.82,830.684 L 1245.96,830.766 L 1248.76,832.355 L 1251.55,834.104 L 1253.52,835.451 L 1254.15,836 L 1256.55,838.279 L 1258.79,840.585 L 1259.95,841.838 L 1261.07,843.528 L 1263.2,846.93 L 1264.7,849.551 L 1265.09,850.611 L 1266.42,854.398 L 1267.48,857.96 L 1267.57,858.297 L 1267.95,861.137 L 1268.17,863.145 L 1268.2,864.415 L 1268.22,902.312 L 1268.28,904.433 L 1268.39,906.521 L 1269.5,913.979 L 1269.81,914.405 L 1273.14,918.854 L 1276.86,923.15 L 1300.97,947.256 L 1302.49,948.703 L 1304.05,950.099 L 1310.13,954.612 L 1310.64,954.689 L 1316.14,955.48 L 1321.81,955.887 L 1650.04,955.887 L 1652.16,955.83 L 1654.25,955.718 L 1662.23,954.484 L 1663.21,954.234 L 1663.81,953.688 L 1665.22,952.474 L 1666.72,951.227 L 1669.36,948.835 L 1670.58,947.628 L 1670.92,947.294 L 1674.89,943.273 L 1676.18,942.017 L 1678.66,939.734 L 1680.62,937.786 L 1680.68,937.723 L 1681.93,936.455 L 1682.67,935.739 L 1686.18,931.868 L 1687.43,930.318 L 1687.46,930.283 L 1689.9,927.242 L 1691.06,925.745 L 1692.49,923.827 L 1694.67,920.695 L 1695.89,918.818 L 1696.47,917.92 L 1698.91,914.048 L 1701.07,910.406 L 1708.07,909.279 L 1713.11,908.663 L 1723.31,907.81 L 1727.18,907.605 L 1733.3,907.467 L 1734.89,907.452 L 1762.59,907.526 L 1765.82,907.617 L 1771.94,907.946 L 1774.88,908.172 L 1781,908.784 L 1784.03,909.156 L 1790.15,910.053 L 1792.22,910.389 L 1793.01,911.711 L 1793.82,913.038 L 1797.41,918.81 L 1797.44,918.863 L 1799.13,921.567 L 1803.1,927.173 L 1804.54,928.947 L 1806.62,931.36 L 1808.77,933.673 L 1810.14,935.22 L 1810.42,935.554 L 1814.47,939.723 L 1814.92,940.131 L 1816.33,941.445 L 1820.69,945.736 L 1821.95,947.027 L 1824.32,949.578 L 1825.96,951.651 L 1827.05,953.088 L 1830.63,958.056 L 1831.71,959.638 L 1832.32,960.585 L 1835.03,965.572 L 1835.9,967.263 L 1838.52,972.705 L 1838.55,972.782 L 1839.17,974.489 L 1841.12,980.293 L 1841.69,982.116 L 1842.7,985.661 L 1843.31,988.721 L 1843.65,990.69 L 1844.65,997.419 L 1844.86,999.099 L 1844.87,999.326 L 1844.99,1005.45 L 1844.99,1007.24 L 1844.85,1012.71 L 1844.78,1013.36 L 1844.54,1015.27 L 1843.5,1021.99 L 1843.17,1023.86 L 1842.7,1026.16 L 1841.66,1029.79 L 1841.12,1031.52 L 1839.17,1037.32 L 1838.55,1039.03 L 1838.52,1039.11 L 1835.9,1044.55 L 1835.03,1046.24 L 1832.32,1051.23 L 1831.71,1052.17 L 1830.62,1053.76 L 1827.05,1058.73 L 1825.9,1060.24 L 1824.31,1062.23 L 1821.41,1065.34 L 1820.07,1066.71 L 1815.68,1070.98 L 1814.72,1071.89 L 1814.33,1072.18 L 1809.44,1075.87 L 1807.98,1076.93 L 1803.69,1079.87 L 1802.89,1080.33 L 1801.21,1081.25 L 1795.16,1084.35 L 1793.44,1085.18 L 1791.56,1086.04 L 1787.75,1087.42 L 1785.94,1088.03 L 1779.44,1090.03 L 1778.62,1090.28 L 1777.58,1090.47 L 1771.55,1091.52 L 1769.77,1091.79 L 1765.17,1092.38 L 1763.68,1092.45 L 1761.83,1092.5 L 1734.12,1092.54 L 1733.07,1092.53 L 1727.94,1092.4 L 1727.62,1092.36 L 1725.33,1092.06 L 1715.27,1090.41 L 1714.49,1090.27 L 1712.34,1089.63 L 1702.65,1086.45 L 1701.54,1086.07 L 1700.42,1085.54 L 1694.93,1082.84 L 1693.41,1082.06 L 1689.42,1079.87 L 1688.67,1079.39 L 1687.26,1078.42 L 1682.28,1074.85 L 1680.84,1073.77 L 1678.3,1071.76 L 1676.16,1069.82 L 1674.85,1068.57 L 1670.51,1064.25 L 1669.32,1063.01 L 1669.19,1062.87 L 1665.36,1059.22 L 1663.95,1058.03 L 1663.27,1057.47 L 1661.21,1057.12 L 1655.7,1056.33 L 1650.04,1055.93 L 1288.88,1055.93 L 1286.74,1055.87 L 1283.97,1055.72 L 1280.23,1055.14 L 1277.08,1054.53 L 1274.33,1053.87 L 1273.9,1053.73 L 1271.65,1052.87 L 1267.86,1051.3 L 1265.66,1050.31 L 1265.25,1050.11 L 1262.84,1048.63 L 1260.83,1047.31 L 1257.48,1044.95 L 1257.07,1044.66 L 1255.32,1043.02 L 1248.08,1035.79 L 1246,1033.87 L 1243.9,1032.04 L 1237.88,1027.73 L 1237.1,1027.7 L 1235.2,1027.64 L 1232.18,1027.44 L 1231.37,1027.35 L 1227.21,1027.14 L 1189.77,1027.17 L 1188.05,1027.13 L 1186.44,1026.95 L 1183.2,1026.51 L 1182.47,1026.33 L 1178.14,1024.98 L 1174.48,1023.61 L 1173.67,1023.19 L 1169.41,1020.65 L 1166.9,1018.93 L 1165.57,1017.75 L 1162.35,1014.55 L 1159.67,1011.56 L 1157.53,1008.96 L 1157.07,1008.36 L 1156.03,1007.04 L 1154.05,1004.64 L 1151.78,1002.08 L 1151.54,1001.82 L 1148.92,998.85 L 1147.56,997.182 L 1146.61,996.056 L 1143.54,992.486 L 1141.49,990.2 L 1139.7,988.288 L 1136.29,984.82 z " style="fill-opacity:0.200000;fill:rgb(205,186,171);"/></g>
<g fill-rule="evenodd"><path d="M 1926.93,1495.11 L 1926.97,1493.1 L 1927.12,1489.68 L 1927.78,1484.33 L 1928.06,1482.44 L 1929.42,1474.56 L 1929.68,1473.18 L 1929.83,1472.68 L 1932.42,1464.26 L 1933.05,1462.37 L 1934.89,1457.3 L 1936.31,1454.19 L 1937.15,1452.47 L 1940.81,1445.35 L 1941.73,1443.67 L 1942.46,1442.41 L 1946.63,1436.36 L 1947.75,1434.81 L 1952.26,1428.89 L 1952.64,1428.47 L 1953.95,1427.07 L 1960.13,1420.81 L 1961.58,1419.41 L 1964.1,1417.1 L 1968.35,1413.79 L 1969.96,1412.59 L 1977.16,1407.54 L 1977.58,1407.24 L 1978.82,1406.56 L 1985.9,1402.83 L 1987.61,1401.98 L 1992.49,1399.7 L 1995.69,1398.51 L 1997.51,1397.88 L 2005.12,1395.44 L 2006.97,1394.9 L 2008.37,1394.53 L 2015.6,1393.19 L 2017.49,1392.89 L 2024.87,1391.9 L 2025.43,1391.86 L 2027.35,1391.8 L 2036.15,1391.74 L 2038.15,1391.78 L 2041.57,1391.93 L 2046.91,1392.59 L 2048.81,1392.87 L 2056.69,1394.23 L 2058.08,1394.49 L 2058.49,1394.62 L 2066.14,1396.95 L 2067.96,1397.55 L 2073.95,1399.7 L 2076.17,1400.7 L 2077.91,1401.53 L 2085.04,1405.16 L 2086.72,1406.07 L 2088.83,1407.28 L 2094.09,1410.87 L 2095.72,1412.04 L 2102.36,1417.08 L 2102.71,1417.39 L 2104.18,1418.77 L 2110.45,1424.95 L 2111.78,1426.32 L 2114.16,1428.91 L 2116.93,1432.44 L 2118.08,1433.98 L 2123.17,1441.16 L 2124.01,1442.4 L 2124.25,1442.85 L 2128.38,1450.63 L 2129.27,1452.42 L 2131.55,1457.3 L 2132.75,1460.51 L 2133.37,1462.32 L 2135.81,1469.94 L 2136.35,1471.78 L 2136.73,1473.18 L 2138.06,1480.42 L 2138.36,1482.3 L 2139.36,1489.68 L 2139.39,1490.23 L 2139.45,1492.16 L 2139.51,1500.96 L 2139.48,1502.88 L 2139.33,1506.38 L 2138.79,1510.85 L 2138.52,1512.74 L 2137.04,1521.41 L 2136.76,1522.89 L 2136.61,1523.39 L 2134.03,1531.8 L 2133.39,1533.7 L 2131.55,1538.76 L 2130.13,1541.87 L 2129.29,1543.6 L 2125.63,1550.71 L 2124.71,1552.4 L 2123.98,1553.65 L 2119.81,1559.71 L 2118.69,1561.25 L 2114.18,1567.18 L 2113.81,1567.59 L 2112.49,1569 L 2106.31,1575.26 L 2104.86,1576.65 L 2102.34,1578.96 L 2098.09,1582.28 L 2096.49,1583.47 L 2089.28,1588.53 L 2088.86,1588.82 L 2087.62,1589.5 L 2080.55,1593.23 L 2078.83,1594.08 L 2073.95,1596.36 L 2070.74,1597.56 L 2068.94,1598.19 L 2061.32,1600.62 L 2059.47,1601.16 L 2058.07,1601.54 L 2050.84,1602.87 L 2048.95,1603.17 L 2041.57,1604.17 L 2041.02,1604.2 L 2039.09,1604.26 L 2030.29,1604.32 L 2028.29,1604.28 L 2024.87,1604.13 L 2019.52,1603.48 L 2017.63,1603.2 L 2009.75,1601.83 L 2008.36,1601.57 L 2007.96,1601.45 L 2000.3,1599.12 L 1998.49,1598.52 L 1992.49,1596.37 L 1990.27,1595.37 L 1988.46,1594.5 L 1980.62,1590.48 L 1978.86,1589.52 L 1977.6,1588.79 L 1976.8,1588.24 L 1971.55,1584.62 L 1970,1583.5 L 1964.08,1578.99 L 1963.66,1578.62 L 1962.26,1577.3 L 1955.99,1571.12 L 1954.67,1569.74 L 1952.29,1567.16 L 1949.51,1563.62 L 1948.37,1562.09 L 1943.28,1554.91 L 1942.43,1553.67 L 1942.23,1553.3 L 1938.47,1546.24 L 1937.61,1544.52 L 1934.89,1538.76 L 1934.02,1536.48 L 1933.36,1534.59 L 1930.66,1526.22 L 1930.09,1524.28 L 1929.71,1522.88 L 1928.38,1515.65 L 1928.08,1513.77 L 1927.08,1506.38 L 1927.05,1505.83 L 1926.99,1503.9 L 1926.93,1495.11 z " style="fill-opacity:0.200000;fill:rgb(242,251,227);"/></g>
<polyline points="1926.93,1495.11 1927.12,1489.68 1927.78,1484.34 1929.68,1473.18 1933.05,1462.37 1936.31,1454.19 1942.46,1442.41 1947.75,1434.81 1952.64,1428.47 1964.1,1417.1 1977.59,1407.24 1987.61,1401.98 1992.49,1399.71 1997.51,1397.88 2008.37,1394.53 2017.49,1392.89 2025.43,1391.87 2041.57,1391.93 2058.08,1394.49 2067.96,1397.55 2073.95,1399.7 2077.91,1401.53 2088.84,1407.28 2095.72,1412.04 2102.71,1417.39 2114.16,1428.91 2124.01,1442.4 2129.27,1452.42 2131.55,1457.3 2133.38,1462.32 2136.73,1473.18 2138.36,1482.3 2139.39,1490.24 2139.33,1506.38 2136.76,1522.89 2133.39,1533.7 2131.55,1538.76 2129.3,1543.6 2123.98,1553.65 2118.7,1561.25 2113.81,1567.59 2102.34,1578.96 2088.86,1588.82 2078.83,1594.08 2073.95,1596.36 2068.94,1598.19 2058.07,1601.54 2041.58,1604.17 2024.87,1604.13 2008.37,1601.57 1998.49,1598.52 1992.49,1596.37 1988.46,1594.5 1977.6,1588.79 1970,1583.5 1963.66,1578.62 1952.29,1567.16 1942.43,1553.67 1937.61,1544.52 1934.02,1536.49 1930.09,1524.28 1928.38,1515.65 1927.09,1506.39 1926.93,1495.11" style="stroke:rgb(103,198,105);stroke-width:3.937008;fill:none;stroke-opacity:0.5;stroke-linecap:round;stroke-linejoin:round;;fill:none"/>
<polyline points="1926.93,1495.11 1927.12,1489.68 1927.78,1484.34 1929.68,1473.18 1933.05,1462.37 1936.31,1454.19 1942.46,1442.41 1947.75,1434.81 1952.64,1428.47 1964.1,1417.1 1977.59,1407.24 1987.61,1401.98 1992.49,1399.71 1997.51,1397.88 2008.37,1394.53 2017.49,1392.89 2025.43,1391.87 2041.57,1391.93 2058.08,1394.49 2067.96,1397.55 2073.95,1399.7 2077.91,1401.53 2088.84,1407.28 2095.72,1412.04 2102.71,1417.39 2114.16,1428.91 2124.01,1442.4 2129.27,1452.42 2131.55,1457.3 2133.38,1462.32 2136.73,1473.18 2138.36,1482.3 2139.39,1490.24 2139.33,1506.38 2136.76,1522.89 2133.39,1533.7 2131.55,1538.76 2129.3,1543.6 2123.98,1553.65 2118.7,1561.25 2113.81,1567.59 2102.34,1578.96 2088.86,1588.82 2078.83,1594.08 2073.95,1596.36 2068.94,1598.19 2058.07,1601.54 2041.58,1604.17 2024.87,1604.13 2008.37,1601.57 1998.49,1598.52 1992.49,1596.37 1988.46,1594.5 1977.6,1588.79 1970,1583.5 1963.66,1578.62 1952.29,1567.16 1942.43,1553.67 1937.61,1544.52 1934.02,1536.49 1930.09,1524.28 1928.38,1515.65 1927.09,1506.39 1926.93,1495.11" style="stroke:rgb(0,0,0);stroke-width:1px;fill:none;stroke-opacity:1;stroke-linecap:round;stroke-linejoin:round;;fill:none"/>
<polyline points="1795.77,740.186 1808.89,740.418 1812.78,741.39 1816.77,743.264 1821.48,747.106 1824.6,751.426 1826.55,756.334 1827.04,759.844 1862.7,759.844 1861.9,750.206 1857.7,737.522 1850.7,726.164 1841.26,716.728 1829.9,709.724 1817.22,705.522 1809.45,704.726 1795.77,704.726 1795.77,740.186" style="stroke:rgb(103,198,105);stroke-width:3.937008;fill:none;stroke-opacity:0.5;stroke-linecap:round;stroke-linejoin:round;;fill:none"/>
<polyline points="1795.77,740.186 1808.89,740.418 1812.78,741.39 1816.77,743.264 1821.48,747.106 1824.6,751.426 1826.55,756.334 1827.04,759.844 1862.7,759.844 1861.9,750.206 1857.7,737.522 1850.7,726.164 1841.26,716.728 1829.9,709.724 1817.22,705.522 1809.45,704.726 1795.77,704.726 1795.77,740.186" style="stroke:rgb(0,0,0);stroke-width:1px;fill:none;stroke-opacity:1;stroke-linecap:round;stroke-linejoin:round;;fill:none"/>
<polyline points="1630.42,759.844 1666.08,759.844 1666.57,756.334 1668.52,751.426 1671.63,747.106 1676.35,743.264 1680.33,741.39 1684.22,740.418 1697.34,740.186 1697.34,704.726 1683.67,704.726 1675.89,705.522 1663.21,709.724 1651.85,716.728 1642.42,726.164 1635.41,737.522 1631.21,750.206 1630.42,759.844" style="stroke:rgb(103,198,105);stroke-width:3.937008;fill:none;stroke-opacity:0.5;stroke-linecap:round;stroke-linejoin:round;;fill:none"/>
<polyline points="1630.42,759.844 1666.08,759.844 1666.57,756.334 1668.52,751.426 1671.63,747.106 1676.35,743.264 1680.33,741.39 1684.22,740.418 1697.34,740.186 1697.34,704.726 1683.67,704.726 1675.89,705.522 1663.21,709.724 1651.85,716.728 1642.42,726.164 1635.41,737.522 1631.21,750.206 1630.42,759.844" style="stroke:rgb(0,0,0);stroke-width:1px;fill:none;stroke-opacity:1;stroke-linecap:round;stroke-linejoin:round;;fill:none"/>
<polyline points="1136.32,869.482 1136.29,984.822 1123.2,999.136 1111.66,1013.13 1105.86,1018.93 1098.19,1023.65 1089.45,1026.55 1082.1,1027.19 1040.84,1027.13 1035.56,1026.55 1026.82,1023.65 1019.11,1018.9 1012.71,1012.49 1010.93,1009.83 1007.71,1004.17 1003.15,990.044 999.975,981.624 988.541,978.386 983.041,977.594 977.361,977.188 885.735,977.216 877.871,978.002 872.369,979.1 864.135,981.558 856.239,1004.78 853.491,1009.44 851.473,1012.49 845.073,1018.9 837.355,1023.64 828.937,1026.43 823.765,1027.11 779.581,1027.08 774.735,1026.52 765.993,1023.65 763.057,1021.98 758.279,1018.9 751.877,1012.49 747.139,1004.77 742.219,993.278 737.709,984.346 727.861,969.82 727.885,884.642 735.719,873.466 740.685,864.426 747.113,849.556 751.879,841.848 758.277,835.434 763.057,832.356 765.993,830.686 774.731,827.792 782.079,827.15 823.337,827.204 828.621,827.786 837.347,830.702 845.073,835.432 851.457,841.834 853.247,844.502 856.895,851.3 861.031,864.288 864.203,872.71 875.635,875.95 886.803,877.148 977.373,877.148 986.307,876.332 991.809,875.234 1000.04,872.778 1007.94,849.552 1012.7,841.838 1019.11,835.434 1023.5,832.598 1026.82,830.69 1035.56,827.792 1043,827.15 1084.59,827.252 1089.44,827.812 1098.18,830.686 1105.77,835.372 1109.4,838.872 1130.07,862.974 1136.32,869.482 1149.07,855.606 1157.22,845.568 1162.88,839.15 1166.8,835.426 1174.45,830.674 1183.2,827.802 1188.05,827.252 1232.23,827.21 1237.08,827.792 1242.88,829.588 1245.82,830.686 1251.55,834.104 1254.15,836 1259.95,841.838 1263.2,846.93 1264.7,849.552 1266.42,854.398 1267.57,858.298 1268.18,863.146 1268.22,902.314 1268.39,906.522 1269.5,913.98 1273.14,918.854 1276.86,923.15 1302.5,948.704 1310.13,954.614 1316.14,955.48 1321.81,955.888 1654.25,955.718 1663.21,954.236 1669.36,948.836 1682.67,935.74 1686.19,931.87 1694.67,920.696 1701.08,910.406 1713.11,908.664 1723.31,907.812 1733.3,907.468 1762.59,907.526 1771.94,907.948 1781,908.784 1792.22,910.39 1799.13,921.568 1803.1,927.174 1810.42,935.556 1824.32,949.578 1832.33,960.586 1838.52,972.706 1842.7,985.662 1844.86,999.1 1844.85,1012.71 1843.17,1023.86 1841.13,1031.52 1838.52,1039.11 1832.33,1051.23 1825.9,1060.24 1820.07,1066.71 1814.72,1071.89 1803.7,1079.87 1791.56,1086.04 1778.62,1090.28 1771.55,1091.53 1765.17,1092.38 1761.83,1092.5 1727.94,1092.4 1714.49,1090.27 1701.54,1086.07 1694.93,1082.84 1688.67,1079.39 1678.3,1071.76 1663.27,1057.47 1655.71,1056.33 1650.04,1055.93 1288.88,1055.93 1283.98,1055.72 1280.23,1055.14 1273.9,1053.73 1265.66,1050.31 1262.84,1048.63 1257.08,1044.66 1246,1033.87 1237.88,1027.73 1227.21,1027.14 1188.05,1027.13 1182.48,1026.33 1174.48,1023.61 1166.9,1018.93 1162.35,1014.55 1143.54,992.486 1136.29,984.822" style="stroke:rgb(103,198,105);stroke-width:3.937008;fill:none;stroke-opacity:0.5;stroke-linecap:round;stroke-linejoin:round;;fill:none"/>
<polyline points="1136.32,869.482 1136.29,984.822 1123.2,999.136 1111.66,1013.13 1105.86,1018.93 1098.19,1023.65 1089.45,1026.55 1082.1,1027.19 1040.84,1027.13 1035.56,1026.55 1026.82,1023.65 1019.11,1018.9 1012.71,1012.49 1010.93,1009.83 1007.71,1004.17 1003.15,990.044 999.975,981.624 988.541,978.386 983.041,977.594 977.361,977.188 885.735,977.216 877.871,978.002 872.369,979.1 864.135,981.558 856.239,1004.78 853.491,1009.44 851.473,1012.49 845.073,1018.9 837.355,1023.64 828.937,1026.43 823.765,1027.11 779.581,1027.08 774.735,1026.52 765.993,1023.65 763.057,1021.98 758.279,1018.9 751.877,1012.49 747.139,1004.77 742.219,993.278 737.709,984.346 727.861,969.82 727.885,884.642 735.719,873.466 740.685,864.426 747.113,849.556 751.879,841.848 758.277,835.434 763.057,832.356 765.993,830.686 774.731,827.792 782.079,827.15 823.337,827.204 828.621,827.786 837.347,830.702 845.073,835.432 851.457,841.834 853.247,844.502 856.895,851.3 861.031,864.288 864.203,872.71 875.635,875.95 886.803,877.148 977.373,877.148 986.307,876.332 991.809,875.234 1000.04,872.778 1007.94,849.552 1012.7,841.838 1019.11,835.434 1023.5,832.598 1026.82,830.69 1035.56,827.792 1043,827.15 1084.59,827.252 1089.44,827.812 1098.18,830.686 1105.77,835.372 1109.4,838.872 1130.07,862.974 1136.32,869.482 1149.07,855.606 1157.22,845.568 1162.88,839.15 1166.8,835.426 1174.45,830.674 1183.2,827.802 1188.05,827.252 1232.23,827.21 1237.08,827.792 1242.88,829.588 1245.82,830.686 1251.55,834.104 1254.15,836 1259.95,841.838 1263.2,846.93 1264.7,849.552 1266.42,854.398 1267.57,858.298 1268.18,863.146 1268.22,902.314 1268.39,906.522 1269.5,913.98 1273.14,918.854 1276.86,923.15 1302.5,948.704 1310.13,954.614 1316.14,955.48 1321.81,955.888 1654.25,955.718 1663.21,954.236 1669.36,948.836 1682.67,935.74 1686.19,931.87 1694.67,920.696 1701.08,910.406 1713.11,908.664 1723.31,907.812 1733.3,907.468 1762.59,907.526 1771.94,907.948 1781,908.784 1792.22,910.39 1799.13,921.568 1803.1,927.174 1810.42,935.556 1824.32,949.578 1832.33,960.586 1838.52,972.706 1842.7,985.662 1844.86,999.1 1844.85,1012.71 1843.17,1023.86 1841.13,1031.52 1838.52,1039.11 1832.33,1051.23 1825.9,1060.24 1820.07,1066.71 1814.72,1071.89 1803.7,1079.87 1791.56,1086.04 1778.62,1090.28 1771.55,1091.53 1765.17,1092.38 1761.83,1092.5 1727.94,1092.4 1714.49,1090.27 1701.54,1086.07 1694.93,1082.84 1688.67,1079.39 1678.3,1071.76 1663.27,1057.47 1655.71,1056.33 1650.04,1055.93 1288.88,1055.93 1283.98,1055.72 1280.23,1055.14 1273.9,1053.73 1265.66,1050.31 1262.84,1048.63 1257.08,1044.66 1246,1033.87 1237.88,1027.73 1227.21,1027.14 1188.05,1027.13 1182.48,1026.33 1174.48,1023.61 1166.9,1018.93 1162.35,1014.55 1143.54,992.486 1136.29,984.822" style="stroke:rgb(0,0,0);stroke-width:1px;fill:none;stroke-opacity:1;stroke-linecap:round;stroke-linejoin:round;;fill:none"/>
<polyline points="371.803,436.79 371.951,447.088 373.423,457.322 375.249,465.932 379.765,479.468 387.315,494.37 394.449,504.392 400.163,511.084 408.951,519.702 417.151,525.846 423.821,530.268 435.149,536.068 443.365,539.216 453.247,542.272 465.381,544.316 474.155,545.006 486.457,544.868 496.695,543.414 505.303,541.59 516.471,537.966 523.797,534.746 533.739,529.524 543.769,522.386 550.459,516.67 559.073,507.888 565.267,499.612 570.065,492.234 575.439,481.686 578.587,473.468 581.643,463.592 583.685,451.456 584.375,442.684 584.239,430.38 582.801,420.238 581.213,412.398 577.335,400.37 574.117,393.046 568.893,383.098 561.759,373.076 556.045,366.384 547.257,357.766 538.981,351.572 531.603,346.774 520.251,341.016 512.755,338.22 502.957,335.212 489.939,333.028 481.961,332.458 469.749,332.6 459.513,334.054 450.905,335.878 439.735,339.504 432.409,342.722 422.467,347.944 412.439,355.082 405.749,360.798 397.135,369.58 390.941,377.856 386.143,385.234 379.771,398.002 376.993,405.898 374.483,414.334 372.399,426.892 371.803,436.79" style="stroke:rgb(103,198,105);stroke-width:3.937008;fill:none;stroke-opacity:0.5;stroke-linecap:round;stroke-linejoin:round;;fill:none"/>
<polyline points="371.803,436.79 371.951,447.088 373.423,457.322 375.249,465.932 379.765,479.468 387.315,494.37 394.449,504.392 400.163,511.084 408.951,519.702 417.151,525.846 423.821,530.268 435.149,536.068 443.365,539.216 453.247,542.272 465.381,544.316 474.155,545.006 486.457,544.868 496.695,543.414 505.303,541.59 516.471,537.966 523.797,534.746 533.739,529.524 543.769,522.386 550.459,516.67 559.073,507.888 565.267,499.612 570.065,492.234 575.439,481.686 578.587,473.468 581.643,463.592 583.685,451.456 584.375,442.684 584.239,430.38 582.801,420.238 581.213,412.398 577.335,400.37 574.117,393.046 568.893,383.098 561.759,373.076 556.045,366.384 547.257,357.766 538.981,351.572 531.603,346.774 520.251,341.016 512.755,338.22 502.957,335.212 489.939,333.028 481.961,332.458 469.749,332.6 459.513,334.054 450.905,335.878 439.735,339.504 432.409,342.722 422.467,347.944 412.439,355.082 405.749,360.798 397.135,369.58 390.941,377.856 386.143,385.234 379.771,398.002 376.993,405.898 374.483,414.334 372.399,426.892 371.803,436.79" style="stroke:rgb(0,0,0);stroke-width:1px;fill:none;stroke-opacity:1;stroke-linecap:round;stroke-linejoin:round;;fill:none"/>
<polyline points="578.429,886.812 613.683,886.812 613.683,838.634 610.763,839.602 599.503,846.546 590.149,855.9 583.203,867.16 579.041,879.718 578.429,886.812" style="stroke:rgb(103,198,105);stroke-width:3.937008;fill:none;stroke-opacity:0.5;stroke-linecap:round;stroke-linejoin:round;;fill:none"/>
<polyline points="578.429,886.812 613.683,886.812 613.683,838.634 610.763,839.602 599.503,846.546 590.149,855.9 583.203,867.16 579.041,879.718 578.429,886.812" style="stroke:rgb(0,0,0);stroke-width:1px;fill:none;stroke-opacity:1;stroke-linecap:round;stroke-linejoin:round;;fill:none"/>
<polyline points="578.429,967.522 613.683,967.522 613.683,1015.7 610.763,1014.73 599.503,1007.79 590.149,998.434 583.203,987.174 579.041,974.616 578.429,967.522" style="stroke:rgb(103,198,105);stroke-width:3.937008;fill:none;stroke-opacity:0.5;stroke-linecap:round;stroke-linejoin:round;;fill:none"/>
<polyline points="578.429,967.522 613.683,967.522 613.683,1015.7 610.763,1014.73 599.503,1007.79 590.149,998.434 583.203,987.174 579.041,974.616 578.429,967.522" style="stroke:rgb(0,0,0);stroke-width:1px;fill:none;stroke-opacity:1;stroke-linecap:round;stroke-linejoin:round;;fill:none"/>
<polyline points="159.449,1773.62 159.449,159.45 2324.8,159.45 2324.8,1773.62 159.449,1773.62" style="stroke:rgb(103,198,105);stroke-width:3.937008;fill:none;stroke-opacity:0.5;stroke-linecap:round;stroke-linejoin:round;;fill:none"/>
<polyline points="159.449,1773.62 159.449,159.45 2324.8,159.45 2324.8,1773.62 159.449,1773.62" style="stroke:rgb(0,0,0);stroke-width:1px;fill:none;stroke-opacity:1;stroke-linecap:round;stroke-linejoin:round;;fill:none"/>
<g fill-rule="evenodd"><path d="M 159.489,1763.82 L 159.489,169.252 L 161.039,163.974 L 165.197,160.372 L 169.253,159.49 L 2315,159.49 L 2320.28,161.04 L 2323.88,165.196 L 2324.77,169.252 L 2324.77,1763.82 L 2323.22,1769.1 L 2319.06,1772.7 L 2315,1773.58 L 169.253,1773.58 L 163.975,1772.03 L 160.371,1767.88 L 159.489,1763.82M 352.079,448.652 L 355.183,468.244 L 361.313,487.11 L 370.319,504.784 L 381.977,520.832 L 396.005,534.858 L 410.001,545.028 L 412.053,546.518 L 429.727,555.524 L 448.593,561.654 L 468.185,564.756 L 488.021,564.756 L 507.613,561.654 L 526.479,555.524 L 544.153,546.518 L 560.201,534.858 L 574.229,520.832 L 585.887,504.784 L 594.893,487.11 L 601.023,468.244 L 604.127,448.652 L 604.127,428.814 L 601.023,409.222 L 594.893,390.356 L 585.887,372.682 L 574.229,356.634 L 560.201,342.608 L 544.153,330.948 L 526.479,321.942 L 507.613,315.812 L 488.021,312.71 L 468.185,312.71 L 458.389,314.26 L 448.593,315.812 L 429.727,321.942 L 412.051,330.948 L 396.005,342.608 L 381.977,356.634 L 370.319,372.682 L 361.313,390.356 L 355.183,409.222 L 352.079,428.814 L 352.079,448.652M 576.281,965.552 L 577.099,975.014 L 581.405,988.01 L 588.593,999.662 L 598.273,1009.34 L 609.925,1016.53 L 615.651,1018.43 L 615.651,965.552 L 576.281,965.552M 576.281,888.78 L 615.651,888.78 L 615.651,835.906 L 609.925,837.804 L 598.273,844.99 L 588.593,854.67 L 581.405,866.322 L 577.099,879.318 L 576.281,888.78M 692.423,1018.43 L 698.147,1016.53 L 709.799,1009.34 L 712.067,1007.07 L 716.897,1004.44 L 722.383,1004.83 L 726.789,1008.13 L 728.239,1010.91 L 729.007,1013.22 L 736.199,1024.88 L 745.887,1034.57 L 757.545,1041.76 L 770.551,1046.07 L 778.575,1046.89 L 824.771,1046.89 L 832.799,1046.07 L 845.803,1041.76 L 857.461,1034.57 L 867.149,1024.88 L 874.341,1013.22 L 877.535,1003.58 L 880.667,999.06 L 885.747,996.948 L 977.373,996.89 L 982.651,998.44 L 986.253,1002.6 L 989.835,1013.22 L 997.027,1024.88 L 1006.71,1034.57 L 1018.37,1041.76 L 1031.38,1046.07 L 1039.4,1046.89 L 1085.6,1046.89 L 1093.63,1046.07 L 1106.63,1041.76 L 1118.29,1034.57 L 1128.33,1024.44 L 1132.1,1021.15 L 1137.53,1020.26 L 1142.58,1022.46 L 1154.35,1034.57 L 1166.01,1041.76 L 1179.02,1046.07 L 1187.04,1046.89 L 1227.21,1046.89 L 1231.89,1048.09 L 1234.12,1049.75 L 1244.43,1060.06 L 1255.85,1067.7 L 1268.54,1072.95 L 1282.01,1075.63 L 1650.04,1075.63 L 1655.32,1077.18 L 1665.47,1087.02 L 1679.01,1096.86 L 1693.93,1104.45 L 1709.84,1109.63 L 1726.38,1112.25 L 1766.74,1112.25 L 1783.27,1109.63 L 1799.19,1104.45 L 1814.1,1096.86 L 1827.64,1087.02 L 1839.48,1075.18 L 1849.32,1061.64 L 1856.92,1046.73 L 1862.09,1030.81 L 1864.71,1014.28 L 1864.71,997.538 L 1862.09,981.006 L 1856.92,965.086 L 1849.32,950.172 L 1839.48,936.632 L 1828.52,925.672 L 1825.88,920.844 L 1826.28,915.356 L 1829.57,910.952 L 1842.49,902.94 L 1852.25,893.178 L 1859.5,881.428 L 1863.84,868.324 L 1864.67,860.236 L 1864.67,856.3 L 1825.3,856.3 L 1824.89,860.287 L 1823.68,864.11 L 1822.17,866.942 L 1819.67,870.076 L 1816.59,872.639 L 1813.05,874.524 L 1809.2,875.653 L 1805.61,875.984 L 1685.5,875.882 L 1682.34,875.296 L 1678.6,873.857 L 1675.23,871.69 L 1672.89,869.491 L 1670.94,866.942 L 1669.13,863.366 L 1668.22,860.287 L 1667.81,856.3 L 1628.45,856.3 L 1628.45,860.236 L 1629.27,868.324 L 1633.62,881.428 L 1640.86,893.178 L 1650.62,902.94 L 1662.82,910.458 L 1665.51,912.918 L 1666.49,914.55 L 1667.43,918.072 L 1667.38,919.98 L 1666.26,923.448 L 1664.59,925.672 L 1656.94,933.322 L 1652.12,935.958 L 1650.04,936.182 L 1321.8,936.182 L 1316.53,934.632 L 1314.9,933.322 L 1290.79,909.216 L 1288.16,904.388 L 1287.93,902.312 L 1287.93,862.138 L 1287.11,854.114 L 1282.81,841.108 L 1275.61,829.45 L 1265.93,819.762 L 1254.27,812.57 L 1241.26,808.262 L 1233.24,807.442 L 1187.04,807.442 L 1179.02,808.262 L 1166.01,812.572 L 1154.35,819.762 L 1144.31,829.896 L 1140.54,833.184 L 1135.11,834.068 L 1130.06,831.876 L 1118.29,819.762 L 1106.63,812.57 L 1093.63,808.262 L 1085.6,807.442 L 1039.4,807.442 L 1031.38,808.262 L 1018.37,812.572 L 1006.71,819.762 L 997.027,829.45 L 989.835,841.11 L 986.641,850.75 L 983.509,855.272 L 978.429,857.384 L 977.373,857.442 L 886.803,857.442 L 881.525,855.892 L 877.921,851.734 L 874.339,841.108 L 867.149,829.45 L 857.461,819.762 L 845.801,812.57 L 832.799,808.262 L 824.773,807.442 L 778.575,807.442 L 770.549,808.262 L 757.545,812.572 L 745.887,819.762 L 736.199,829.45 L 729.007,841.11 L 728.239,843.426 L 725.109,847.95 L 720.029,850.062 L 714.613,849.092 L 712.067,847.26 L 709.799,844.99 L 698.147,837.804 L 692.423,835.906 L 692.423,1018.43M 1628.45,761.812 L 1667.81,761.812 L 1668.4,757.04 L 1670.13,752.554 L 1672.89,748.619 L 1677.2,745.037 L 1680.81,743.298 L 1684.7,742.326 L 1699.31,742.126 L 1699.31,702.756 L 1683.57,702.756 L 1675.48,703.584 L 1662.37,707.926 L 1650.62,715.172 L 1640.86,724.934 L 1633.62,736.684 L 1629.27,749.79 L 1628.45,757.876 L 1628.45,761.812M 1793.8,742.126 L 1808.41,742.326 L 1812.3,743.298 L 1815.91,745.037 L 1820.22,748.619 L 1822.98,752.554 L 1824.71,757.04 L 1825.3,761.812 L 1864.67,761.812 L 1864.67,757.876 L 1863.84,749.788 L 1859.5,736.684 L 1852.25,724.934 L 1842.49,715.172 L 1830.74,707.926 L 1817.63,703.584 L 1809.55,702.756 L 1793.8,702.756 L 1793.8,742.126M 1907.2,1507.95 L 1910.3,1527.54 L 1916.43,1546.41 L 1925.44,1564.08 L 1937.1,1580.13 L 1951.12,1594.16 L 1965.12,1604.33 L 1967.17,1605.82 L 1984.85,1614.82 L 2003.71,1620.95 L 2023.3,1624.06 L 2043.14,1624.06 L 2062.73,1620.95 L 2081.6,1614.82 L 2099.27,1605.82 L 2115.32,1594.16 L 2129.35,1580.13 L 2141.01,1564.08 L 2150.01,1546.41 L 2156.14,1527.54 L 2159.25,1507.95 L 2159.25,1488.11 L 2156.14,1468.52 L 2150.01,1449.66 L 2141.01,1431.98 L 2129.35,1415.93 L 2115.32,1401.91 L 2099.27,1390.25 L 2081.6,1381.24 L 2062.73,1375.11 L 2043.14,1372.01 L 2023.3,1372.01 L 2003.71,1375.11 L 1984.85,1381.24 L 1967.17,1390.25 L 1951.12,1401.91 L 1937.1,1415.93 L 1925.44,1431.98 L 1916.43,1449.66 L 1910.3,1468.52 L 1907.2,1488.11 L 1907.2,1507.95 z " style="fill-opacity:1.000000;fill:rgb(103,198,105);stroke:rgb(0,0,0);stroke-width:2"/></g>
<g fill-rule="evenodd"><path d="M 391.521,436.331 L 392.112,428.353 L 393.609,419.681 L 395.978,411.207 L 399.195,403.016 L 402.827,395.888 L 407.562,388.471 L 412.501,382.177 L 418.578,375.813 L 425.269,370.098 L 432.506,365.091 L 440.213,360.845 L 447.561,357.681 L 455.17,355.209 L 463.763,353.313 L 472.504,352.299 L 480.503,352.151 L 488.481,352.742 L 497.153,354.239 L 505.627,356.608 L 513.087,359.498 L 520.946,363.457 L 528.363,368.192 L 534.657,373.131 L 541.021,379.208 L 546.736,385.899 L 551.743,393.135 L 555.989,400.843 L 559.153,408.191 L 561.834,416.572 L 563.521,424.393 L 564.535,433.134 L 564.683,441.133 L 563.993,449.905 L 562.416,458.562 L 560.226,466.257 L 557.01,474.448 L 553.377,481.576 L 548.642,488.993 L 543.703,495.287 L 537.626,501.651 L 530.935,507.366 L 523.699,512.373 L 515.991,516.619 L 508.643,519.783 L 501.034,522.255 L 492.441,524.151 L 483.7,525.165 L 475.701,525.313 L 466.929,524.622 L 458.272,523.046 L 450.577,520.856 L 442.386,517.639 L 434.564,513.608 L 427.841,509.272 L 421.547,504.333 L 415.183,498.256 L 409.468,491.565 L 404.461,484.328 L 400.215,476.621 L 397.051,469.273 L 394.579,461.664 L 392.683,453.071 L 391.724,445.129 L 391.521,436.331 z " style="fill-opacity:1.000000;fill:rgb(115,81,255);stroke:rgb(0,0,0);stroke-width:2"/></g>
<g fill-rule="evenodd"><path d="M 763.287,988.287 L 763.355,864.437 L 764.355,859.731 L 765.289,857.509 L 766.953,854.762 L 770.246,851.255 L 772.196,849.838 L 775.043,848.35 L 778.098,847.357 L 782.078,846.855 L 821.268,846.855 L 824.463,847.19 L 827.556,848.054 L 830.463,849.422 L 832.47,850.756 L 835.395,853.502 L 837.283,856.101 L 838.991,859.731 L 839.79,862.843 L 840.059,866.043 L 840.059,896.851 L 1024.11,896.851 L 1024.11,866.043 L 1024.53,862.053 L 1025.77,858.237 L 1028.27,854.122 L 1031.07,851.255 L 1034.42,849.034 L 1038.92,847.357 L 1042.91,846.855 L 1084.5,847.056 L 1089.13,848.35 L 1092.65,850.283 L 1096.22,853.502 L 1098.88,857.509 L 1100.47,862.053 L 1100.89,866.043 L 1100.82,989.893 L 1100.47,992.278 L 1099.54,995.353 L 1097.22,999.569 L 1093.93,1003.08 L 1091.98,1004.49 L 1089.13,1005.98 L 1085.29,1007.14 L 1082.09,1007.48 L 1042.91,1007.48 L 1039.71,1007.14 L 1036.62,1006.28 L 1034.42,1005.3 L 1031.7,1003.58 L 1028.78,1000.83 L 1026.89,998.23 L 1025.46,995.353 L 1024.38,991.488 L 1024.11,988.287 L 1024.11,957.481 L 840.059,957.481 L 840.059,988.287 L 839.64,992.278 L 838.4,996.094 L 836.394,999.569 L 833.1,1003.08 L 829.758,1005.3 L 826.027,1006.77 L 821.268,1007.48 L 779.677,1007.27 L 775.043,1005.98 L 772.196,1004.49 L 770.246,1003.08 L 766.953,999.569 L 764.635,995.353 L 763.556,991.488 L 763.287,988.287 z " style="fill-opacity:1.000000;fill:rgb(74,236,41);stroke:rgb(0,0,0);stroke-width:2"/></g>
<g fill-rule="evenodd"><path d="M 1171.75,988.287 L 1171.75,866.043 L 1172.17,862.053 L 1172.82,859.731 L 1174.13,856.797 L 1175.9,854.122 L 1177.52,852.33 L 1179.99,850.283 L 1182.77,848.677 L 1185.78,847.557 L 1188.14,847.056 L 1231.34,846.956 L 1233.71,847.357 L 1236.77,848.35 L 1239.61,849.838 L 1242.17,851.78 L 1244.37,854.122 L 1246.52,857.509 L 1247.92,861.27 L 1248.46,864.437 L 1248.52,922.679 L 1301.44,975.591 L 1675.07,975.591 L 1677.83,970.689 L 1681.29,965.636 L 1684.73,961.425 L 1689.01,957.042 L 1693.66,953.067 L 1698.66,949.534 L 1703.36,946.789 L 1708.9,944.169 L 1718.57,940.959 L 1728.63,939.256 L 1734.74,938.976 L 1762.45,939.101 L 1768.53,939.753 L 1774.54,940.959 L 1780.4,942.708 L 1786.7,945.271 L 1792.12,948.114 L 1797.26,951.441 L 1802.59,955.67 L 1807,959.921 L 1811,964.557 L 1814.55,969.539 L 1817.95,975.429 L 1820.49,981.002 L 1822.51,986.782 L 1824.11,993.391 L 1825.05,1000.13 L 1825.29,1006.25 L 1824.98,1012.36 L 1823.98,1019.09 L 1822.51,1025.03 L 1820.49,1030.81 L 1817.95,1036.38 L 1814.55,1042.27 L 1811,1047.25 L 1806.53,1052.38 L 1802.08,1056.59 L 1797.26,1060.37 L 1792.12,1063.7 L 1786.09,1066.82 L 1780.4,1069.1 L 1773.87,1071.01 L 1767.86,1072.16 L 1761.77,1072.75 L 1734.06,1072.83 L 1728.63,1072.55 L 1718.57,1070.85 L 1708.9,1067.64 L 1703.36,1065.02 L 1698.66,1062.28 L 1693.66,1058.74 L 1689.01,1054.77 L 1684.73,1050.39 L 1681.29,1046.18 L 1677.83,1041.12 L 1675.08,1036.22 L 1288.88,1036.22 L 1282.36,1035.51 L 1279.2,1034.63 L 1275.41,1033.06 L 1272.55,1031.45 L 1269.25,1029.01 L 1242.42,1002.32 L 1240.28,1004.05 L 1237.5,1005.65 L 1234.49,1006.77 L 1231.34,1007.38 L 1189.74,1007.44 L 1185.78,1006.77 L 1181.35,1004.91 L 1177.52,1002 L 1174.96,998.909 L 1173.75,996.821 L 1172.57,993.835 L 1171.9,990.693 L 1171.75,988.287 z " style="fill-opacity:1.000000;fill:rgb(205,186,171);stroke:rgb(0,0,0);stroke-width:2"/></g>
<g fill-rule="evenodd"><path d="M 1946.67,1494.83 L 1947.44,1486.07 L 1948.91,1478.2 L 1951.35,1469.75 L 1954.65,1461.59 L 1958.34,1454.49 L 1963.15,1447.12 L 1968.14,1440.87 L 1974.28,1434.56 L 1981.02,1428.91 L 1988.31,1423.97 L 1995.33,1420.14 L 2003.43,1416.7 L 2011.06,1414.3 L 2019.67,1412.48 L 2027.62,1411.6 L 2036.42,1411.48 L 2045.19,1412.25 L 2053.05,1413.72 L 2060.75,1415.91 L 2068.94,1419.12 L 2076.06,1422.76 L 2083.48,1427.49 L 2090.38,1432.96 L 2096.69,1439.09 L 2101.85,1445.2 L 2106.86,1452.44 L 2111.11,1460.14 L 2114.55,1468.24 L 2116.95,1475.87 L 2118.77,1484.48 L 2119.65,1492.43 L 2119.78,1501.23 L 2119.11,1509.2 L 2117.53,1517.86 L 2115.09,1526.31 L 2111.79,1534.47 L 2108.1,1541.57 L 2103.29,1548.94 L 2098.3,1555.19 L 2092.16,1561.5 L 2085.42,1567.15 L 2078.13,1572.09 L 2071.11,1575.92 L 2063.01,1579.36 L 2055.38,1581.76 L 2046.77,1583.58 L 2038.82,1584.46 L 2030.02,1584.59 L 2021.25,1583.82 L 2013.39,1582.35 L 2005.69,1580.16 L 1997.5,1576.94 L 1989.68,1572.91 L 1982.31,1568.1 L 1976.06,1563.11 L 1969.75,1556.97 L 1964.59,1550.86 L 1959.58,1543.63 L 1955.69,1536.64 L 1952.17,1528.57 L 1949.49,1520.19 L 1947.67,1511.58 L 1946.79,1503.63 L 1946.67,1494.83 z " style="fill-opacity:1.000000;fill:rgb(242,251,227);stroke:rgb(0,0,0);stroke-width:2"/></g>
</svg>
