<?xml version="1.0" standalone="no"?>
<!DOCTYPE svg PUBLIC "-//W3C//DTD SVG 1.1//EN"
"http://www.w3.org/Graphics/SVG/1.1/DTD/svg11.dtd">
<svg width="119.244" height="92.7874" viewBox="0 0 2484.25 1933.07" version="1.1"
xmlns="http://www.w3.org/2000/svg"
xmlns:xlink="http://www.w3.org/1999/xlink">
<g fill-rule="evenodd"><path d="M 0,1933.07 L 0,2.27374e-13 L 2484.25,2.27374e-13 L 2484.25,1933.07 L 0,1933.07 z " style="fill-opacity:0.200000;fill:rgb(103,198,105);"/></g>
<polyline points="80.7091,1773.62 80.7131,1774.42 80.7271,1775.23 80.7471,1776.03 80.7751,1776.83 80.8131,1777.63 80.8571,1778.44 80.9111,1779.24 80.9711,1780.04 81.0411,1780.84 81.1191,1781.64 81.2051,1782.44 81.2991,1783.23 81.4011,1784.03 81.5111,1784.83 81.6291,1785.62 81.7571,1786.41 81.8911,1787.21 82.0331,1788 82.1831,1788.79 82.3431,1789.57 82.5091,1790.36 82.6851,1791.14 82.8671,1791.92 83.0571,1792.7 83.2571,1793.48 83.4631,1794.26 83.6771,1795.03 83.8991,1795.8 84.1291,1796.57 84.3671,1797.34 84.6131,1798.11 84.8671,1798.87 85.1291,1799.63 85.3971,1800.38 85.6751,1801.14 85.9591,1801.89 86.2511,1802.64 86.5511,1803.38 86.8591,1804.12 87.1731,1804.86 87.4951,1805.6 87.8251,1806.33 88.1631,1807.06 88.5071,1807.79 88.8591,1808.51 89.2191,1809.23 89.5871,1809.94 89.9611,1810.65 90.3411,1811.36 90.7291,1812.06 91.1251,1812.76 91.5291,1813.45 91.9391,1814.14 92.3551,1814.83 92.7791,1815.51 93.2091,1816.19 93.6471,1816.86 94.0911,1817.53 94.5431,1818.2 95.0011,1818.86 95.4651,1819.51 95.9371,1820.16 96.4151,1820.81 96.8991,1821.45 97.3911,1822.08 97.8891,1822.71 98.3931,1823.34 98.9031,1823.96 99.4191,1824.58 99.9431,1825.18 100.471,1825.79 101.007,1826.39 101.547,1826.98 102.095,1827.57 102.649,1828.15 103.207,1828.73 103.773,1829.3 104.343,1829.86 104.919,1830.42 105.501,1830.98 106.089,1831.52 106.683,1832.06 107.281,1832.6 107.887,1833.13 108.495,1833.65 109.111,1834.17 109.731,1834.68 110.357,1835.18 110.987,1835.68 111.623,1836.17 112.263,1836.66 112.909,1837.13 113.559,1837.61 114.213,1838.07 114.873,1838.53 115.537,1838.98 116.207,1839.42 116.879,1839.86 117.557,1840.29 118.239,1840.72 118.927,1841.13 119.617,1841.54 120.311,1841.95 121.011,1842.34 121.713,1842.73 122.421,1843.11 123.131,1843.48 123.845,1843.85 124.565,1844.21 125.285,1844.56 126.011,1844.91 126.741,1845.25 127.473,1845.58 128.207,1845.9 128.947,1846.21 129.689,1846.52 130.433,1846.82 131.183,1847.11 131.933,1847.4 132.687,1847.67 133.443,1847.94 134.203,1848.2 134.965,1848.46 135.729,1848.7 136.497,1848.94 137.267,1849.17 138.039,1849.39 138.813,1849.61 139.589,1849.81 140.367,1850.01 141.147,1850.2 141.929,1850.39 142.713,1850.56 143.499,1850.73 144.285,1850.89 145.075,1851.04 145.865,1851.18 146.657,1851.31 147.449,1851.44 148.245,1851.56 149.039,1851.67 149.837,1851.77 150.633,1851.87 151.433,1851.95 152.231,1852.03 153.031,1852.1 153.833,1852.16 154.635,1852.21 155.437,1852.26 156.239,1852.3 157.041,1852.32 157.843,1852.34 158.647,1852.36 159.449,1852.36 2324.8,1852.36 2325.61,1852.36 2326.41,1852.34 2327.21,1852.32 2328.01,1852.3 2328.82,1852.26 2329.62,1852.21 2330.42,1852.16 2331.22,1852.1 2332.02,1852.03 2332.82,1851.95 2333.62,1851.87 2334.42,1851.77 2335.21,1851.67 2336.01,1851.56 2336.8,1851.44 2337.6,1851.31 2338.39,1851.18 2339.18,1851.04 2339.97,1850.89 2340.75,1850.73 2341.54,1850.56 2342.32,1850.39 2343.11,1850.2 2343.89,1850.01 2344.66,1849.81 2345.44,1849.61 2346.21,1849.39 2346.99,1849.17 2347.76,1848.94 2348.52,1848.7 2349.29,1848.46 2350.05,1848.2 2350.81,1847.94 2351.57,1847.67 2352.32,1847.4 2353.07,1847.11 2353.82,1846.82 2354.56,1846.52 2355.31,1846.21 2356.05,1845.9 2356.78,1845.58 2357.51,1845.25 2358.24,1844.91 2358.97,1844.56 2359.69,1844.21 2360.41,1843.85 2361.12,1843.48 2361.83,1843.11 2362.54,1842.73 2363.24,1842.34 2363.94,1841.95 2364.64,1841.54 2365.33,1841.13 2366.01,1840.72 2366.7,1840.29 2367.37,1839.86 2368.05,1839.42 2368.72,1838.98 2369.38,1838.53 2370.04,1838.07 2370.69,1837.61 2371.34,1837.13 2371.99,1836.66 2372.63,1836.17 2373.27,1835.68 2373.9,1835.18 2374.52,1834.68 2375.14,1834.17 2375.76,1833.65 2376.37,1833.13 2376.97,1832.6 2377.57,1832.06 2378.16,1831.52 2378.75,1830.98 2379.33,1830.42 2379.91,1829.86 2380.48,1829.3 2381.05,1828.73 2381.6,1828.15 2382.16,1827.57 2382.71,1826.98 2383.25,1826.39 2383.78,1825.79 2384.31,1825.18 2384.83,1824.58 2385.35,1823.96 2385.86,1823.34 2386.36,1822.71 2386.86,1822.08 2387.35,1821.45 2387.84,1820.81 2388.32,1820.16 2388.79,1819.51 2389.25,1818.86 2389.71,1818.2 2390.16,1817.53 2390.61,1816.86 2391.04,1816.19 2391.47,1815.51 2391.9,1814.83 2392.31,1814.14 2392.72,1813.45 2393.13,1812.76 2393.52,1812.06 2393.91,1811.36 2394.29,1810.65 2394.67,1809.94 2395.03,1809.23 2395.39,1808.51 2395.75,1807.79 2396.09,1807.06 2396.43,1806.33 2396.76,1805.6 2397.08,1804.86 2397.39,1804.12 2397.7,1803.38 2398,1802.64 2398.29,1801.89 2398.58,1801.14 2398.86,1800.38 2399.12,1799.63 2399.39,1798.87 2399.64,1798.11 2399.89,1797.34 2400.12,1796.57 2400.35,1795.8 2400.58,1795.03 2400.79,1794.26 2401,1793.48 2401.2,1792.7 2401.39,1791.92 2401.57,1791.14 2401.74,1790.36 2401.91,1789.57 2402.07,1788.79 2402.22,1788 2402.36,1787.21 2402.5,1786.41 2402.62,1785.62 2402.74,1784.83 2402.85,1784.03 2402.95,1783.23 2403.05,1782.44 2403.13,1781.64 2403.21,1780.84 2403.28,1780.04 2403.34,1779.24 2403.4,1778.44 2403.44,1777.63 2403.48,1776.83 2403.51,1776.03 2403.53,1775.23 2403.54,1774.42 2403.54,1773.62 2403.54,159.45 2403.54,158.648 2403.53,157.844 2403.51,157.042 2403.48,156.24 2403.44,155.438 2403.4,154.636 2403.34,153.834 2403.28,153.032 2403.21,152.232 2403.13,151.434 2403.05,150.634 2402.95,149.838 2402.85,149.04 2402.74,148.246 2402.62,147.45 2402.5,146.658 2402.36,145.866 2402.22,145.076 2402.07,144.286 2401.91,143.5 2401.74,142.714 2401.57,141.93 2401.39,141.148 2401.2,140.368 2401,139.59 2400.79,138.814 2400.58,138.04 2400.35,137.268 2400.12,136.498 2399.89,135.73 2399.64,134.966 2399.39,134.204 2399.12,133.444 2398.86,132.688 2398.58,131.934 2398.29,131.184 2398,130.434 2397.7,129.69 2397.39,128.948 2397.08,128.208 2396.76,127.474 2396.43,126.742 2396.09,126.012 2395.75,125.286 2395.39,124.566 2395.03,123.846 2394.67,123.132 2394.29,122.422 2393.91,121.714 2393.52,121.012 2393.13,120.312 2392.72,119.618 2392.31,118.928 2391.9,118.24 2391.47,117.558 2391.04,116.88 2390.61,116.208 2390.16,115.538 2389.71,114.874 2389.25,114.214 2388.79,113.56 2388.32,112.91 2387.84,112.264 2387.35,111.624 2386.86,110.988 2386.36,110.358 2385.86,109.732 2385.35,109.112 2384.83,108.496 2384.31,107.888 2383.78,107.282 2383.25,106.684 2382.71,106.09 2382.16,105.502 2381.6,104.92 2381.05,104.344 2380.48,103.774 2379.91,103.208 2379.33,102.65 2378.75,102.096 2378.16,101.548 2377.57,101.008 2376.97,100.472 2376.37,99.944 2375.76,99.42 2375.14,98.904 2374.52,98.394 2373.9,97.89 2373.27,97.392 2372.63,96.9 2371.99,96.416 2371.34,95.938 2370.69,95.466 2370.04,95.002 2369.38,94.544 2368.72,94.092 2368.05,93.648 2367.37,93.21 2366.7,92.78 2366.01,92.356 2365.33,91.94 2364.64,91.53 2363.94,91.126 2363.24,90.73 2362.54,90.342 2361.83,89.962 2361.12,89.588 2360.41,89.22 2359.69,88.86 2358.97,88.508 2358.24,88.164 2357.51,87.826 2356.78,87.496 2356.05,87.174 2355.31,86.86 2354.56,86.552 2353.82,86.252 2353.07,85.96 2352.32,85.676 2351.57,85.398 2350.81,85.13 2350.05,84.868 2349.29,84.614 2348.52,84.368 2347.76,84.13 2346.99,83.9 2346.21,83.678 2345.44,83.464 2344.66,83.258 2343.89,83.058 2343.11,82.868 2342.32,82.686 2341.54,82.51 2340.75,82.344 2339.97,82.184 2339.18,82.034 2338.39,81.892 2337.6,81.758 2336.8,81.63 2336.01,81.512 2335.21,81.402 2334.42,81.3 2333.62,81.206 2332.82,81.12 2332.02,81.042 2331.22,80.972 2330.42,80.912 2329.62,80.858 2328.82,80.814 2328.01,80.776 2327.21,80.748 2326.41,80.728 2325.61,80.714 2324.8,80.71 159.449,80.71 158.647,80.714 157.843,80.728 157.041,80.748 156.239,80.776 155.437,80.814 154.635,80.858 153.833,80.912 153.031,80.972 152.231,81.042 151.433,81.12 150.633,81.206 149.837,81.3 149.039,81.402 148.245,81.512 147.449,81.63 146.657,81.758 145.865,81.892 145.075,82.034 144.285,82.184 143.499,82.344 142.713,82.51 141.929,82.686 141.147,82.868 140.367,83.058 139.589,83.258 138.813,83.464 138.039,83.678 137.267,83.9 136.497,84.13 135.729,84.368 134.965,84.614 134.203,84.868 133.443,85.13 132.687,85.398 131.933,85.676 131.183,85.96 130.433,86.252 129.689,86.552 128.947,86.86 128.207,87.174 127.473,87.496 126.741,87.826 126.011,88.164 125.285,88.508 124.565,88.86 123.845,89.22 123.131,89.588 122.421,89.962 121.713,90.342 121.011,90.73 120.311,91.126 119.617,91.53 118.927,91.94 118.239,92.356 117.557,92.78 116.879,93.21 116.207,93.648 115.537,94.092 114.873,94.544 114.213,95.002 113.559,95.466 112.909,95.938 112.263,96.416 111.623,96.9 110.987,97.392 110.357,97.89 109.731,98.394 109.111,98.904 108.495,99.42 107.887,99.944 107.281,100.472 106.683,101.008 106.089,101.548 105.501,102.096 104.919,102.65 104.343,103.208 103.773,103.774 103.207,104.344 102.649,104.92 102.095,105.502 101.547,106.09 101.007,106.684 100.471,107.282 99.9431,107.888 99.4191,108.496 98.9031,109.112 98.3931,109.732 97.8891,110.358 97.3911,110.988 96.8991,111.624 96.4151,112.264 95.9371,112.91 95.4651,113.56 95.0011,114.214 94.5431,114.874 94.0911,115.538 93.6471,116.208 93.2091,116.88 92.7791,117.558 92.3551,118.24 91.9391,118.928 91.5291,119.618 91.1251,120.312 90.7291,121.012 90.3411,121.714 89.9611,122.422 89.5871,123.132 89.2191,123.846 88.8591,124.566 88.5071,125.286 88.1631,126.012 87.8251,126.742 87.4951,127.474 87.1731,128.208 86.8591,128.948 86.5511,129.69 86.2511,130.434 85.9591,131.184 85.6751,131.934 85.3971,132.688 85.1291,133.444 84.8671,134.204 84.6131,134.966 84.3671,135.73 84.1291,136.498 83.8991,137.268 83.6771,138.04 83.4631,138.814 83.2571,139.59 83.0571,140.368 82.8671,141.148 82.6851,141.93 82.5091,142.714 82.3431,143.5 82.1831,144.286 82.0331,145.076 81.8911,145.866 81.7571,146.658 81.6291,147.45 81.5111,148.246 81.4011,149.04 81.2991,149.838 81.2051,150.634 81.1191,151.434 81.0411,152.232 80.9711,153.032 80.9111,153.834 80.8571,154.636 80.8131,155.438 80.7751,156.24 80.7471,157.042 80.7271,157.844 80.7131,158.648 80.7091,159.45 80.7091,1773.62" style="stroke:rgb(103,198,105);stroke-width:157.480315;fill:none;stroke-opacity:0.5;stroke-linecap:round;stroke-linejoin:round;;fill:none"/>
<polyline points="80.7091,1773.62 80.7131,1774.42 80.7271,1775.23 80.7471,1776.03 80.7751,1776.83 80.8131,1777.63 80.8571,1778.44 80.9111,1779.24 80.9711,1780.04 81.0411,1780.84 81.1191,1781.64 81.2051,1782.44 81.2991,1783.23 81.4011,1784.03 81.5111,1784.83 81.6291,1785.62 81.7571,1786.41 81.8911,1787.21 82.0331,1788 82.1831,1788.79 82.3431,1789.57 82.5091,1790.36 82.6851,1791.14 82.8671,1791.92 83.0571,1792.7 83.2571,1793.48 83.4631,1794.26 83.6771,1795.03 83.8991,1795.8 84.1291,1796.57 84.3671,1797.34 84.6131,1798.11 84.8671,1798.87 85.1291,1799.63 85.3971,1800.38 85.6751,1801.14 85.9591,1801.89 86.2511,1802.64 86.5511,1803.38 86.8591,1804.12 87.1731,1804.86 87.4951,1805.6 87.8251,1806.33 88.1631,1807.06 88.5071,1807.79 88.8591,1808.51 89.2191,1809.23 89.5871,1809.94 89.9611,1810.65 90.3411,1811.36 90.7291,1812.06 91.1251,1812.76 91.5291,1813.45 91.9391,1814.14 92.3551,1814.83 92.7791,1815.51 93.2091,1816.19 93.6471,1816.86 94.0911,1817.53 94.5431,1818.2 95.0011,1818.86 95.4651,1819.51 95.9371,1820.16 96.4151,1820.81 96.8991,1821.45 97.3911,1822.08 97.8891,1822.71 98.3931,1823.34 98.9031,1823.96 99.4191,1824.58 99.9431,1825.18 100.471,1825.79 101.007,1826.39 101.547,1826.98 102.095,1827.57 102.649,1828.15 103.207,1828.73 103.773,1829.3 104.343,1829.86 104.919,1830.42 105.501,1830.98 106.089,1831.52 106.683,1832.06 107.281,1832.6 107.887,1833.13 108.495,1833.65 109.111,1834.17 109.731,1834.68 110.357,1835.18 110.987,1835.68 111.623,1836.17 112.263,1836.66 112.909,1837.13 113.559,1837.61 114.213,1838.07 114.873,1838.53 115.537,1838.98 116.207,1839.42 116.879,1839.86 117.557,1840.29 118.239,1840.72 118.927,1841.13 119.617,1841.54 120.311,1841.95 121.011,1842.34 121.713,1842.73 122.421,1843.11 123.131,1843.48 123.845,1843.85 124.565,1844.21 125.285,1844.56 126.011,1844.91 126.741,1845.25 127.473,1845.58 128.207,1845.9 128.947,1846.21 129.689,1846.52 130.433,1846.82 131.183,1847.11 131.933,1847.4 132.687,1847.67 133.443,1847.94 134.203,1848.2 134.965,1848.46 135.729,1848.7 136.497,1848.94 137.267,1849.17 138.039,1849.39 138.813,1849.61 139.589,1849.81 140.367,1850.01 141.147,1850.2 141.929,1850.39 142.713,1850.56 143.499,1850.73 144.285,1850.89 145.075,1851.04 145.865,1851.18 146.657,1851.31 147.449,1851.44 148.245,1851.56 149.039,1851.67 149.837,1851.77 150.633,1851.87 151.433,1851.95 152.231,1852.03 153.031,1852.1 153.833,1852.16 154.635,1852.21 155.437,1852.26 156.239,1852.3 157.041,1852.32 157.843,1852.34 158.647,1852.36 159.449,1852.36 2324.8,1852.36 2325.61,1852.36 2326.41,1852.34 2327.21,1852.32 2328.01,1852.3 2328.82,1852.26 2329.62,1852.21 2330.42,1852.16 2331.22,1852.1 2332.02,1852.03 2332.82,1851.95 2333.62,1851.87 2334.42,1851.77 2335.21,1851.67 2336.01,1851.56 2336.8,1851.44 2337.6,1851.31 2338.39,1851.18 2339.18,1851.04 2339.97,1850.89 2340.75,1850.73 2341.54,1850.56 2342.32,1850.39 2343.11,1850.2 2343.89,1850.01 2344.66,1849.81 2345.44,1849.61 2346.21,1849.39 2346.99,1849.17 2347.76,1848.94 2348.52,1848.7 2349.29,1848.46 2350.05,1848.2 2350.81,1847.94 2351.57,1847.67 2352.32,1847.4 2353.07,1847.11 2353.82,1846.82 2354.56,1846.52 2355.31,1846.21 2356.05,1845.9 2356.78,1845.58 2357.51,1845.25 2358.24,1844.91 2358.97,1844.56 2359.69,1844.21 2360.41,1843.85 2361.12,1843.48 2361.83,1843.11 2362.54,1842.73 2363.24,1842.34 2363.94,1841.95 2364.64,1841.54 2365.33,1841.13 2366.01,1840.72 2366.7,1840.29 2367.37,1839.86 2368.05,1839.42 2368.72,1838.98 2369.38,1838.53 2370.04,1838.07 2370.69,1837.61 2371.34,1837.13 2371.99,1836.66 2372.63,1836.17 2373.27,1835.68 2373.9,1835.18 2374.52,1834.68 2375.14,1834.17 2375.76,1833.65 2376.37,1833.13 2376.97,1832.6 2377.57,1832.06 2378.16,1831.52 2378.75,1830.98 2379.33,1830.42 2379.91,1829.86 2380.48,1829.3 2381.05,1828.73 2381.6,1828.15 2382.16,1827.57 2382.71,1826.98 2383.25,1826.39 2383.78,1825.79 2384.31,1825.18 2384.83,1824.58 2385.35,1823.96 2385.86,1823.34 2386.36,1822.71 2386.86,1822.08 2387.35,1821.45 2387.84,1820.81 2388.32,1820.16 2388.79,1819.51 2389.25,1818.86 2389.71,1818.2 2390.16,1817.53 2390.61,1816.86 2391.04,1816.19 2391.47,1815.51 2391.9,1814.83 2392.31,1814.14 2392.72,1813.45 2393.13,1812.76 2393.52,1812.06 2393.91,1811.36 2394.29,1810.65 2394.67,1809.94 2395.03,1809.23 2395.39,1808.51 2395.75,1807.79 2396.09,1807.06 2396.43,1806.33 2396.76,1805.6 2397.08,1804.86 2397.39,1804.12 2397.7,1803.38 2398,1802.64 2398.29,1801.89 2398.58,1801.14 2398.86,1800.38 2399.12,1799.63 2399.39,1798.87 2399.64,1798.11 2399.89,1797.34 2400.12,1796.57 2400.35,1795.8 2400.58,1795.03 2400.79,1794.26 2401,1793.48 2401.2,1792.7 2401.39,1791.92 2401.57,1791.14 2401.74,1790.36 2401.91,1789.57 2402.07,1788.79 2402.22,1788 2402.36,1787.21 2402.5,1786.41 2402.62,1785.62 2402.74,1784.83 2402.85,1784.03 2402.95,1783.23 2403.05,1782.44 2403.13,1781.64 2403.21,1780.84 2403.28,1780.04 2403.34,1779.24 2403.4,1778.44 2403.44,1777.63 2403.48,1776.83 2403.51,1776.03 2403.53,1775.23 2403.54,1774.42 2403.54,1773.62 2403.54,159.45 2403.54,158.648 2403.53,157.844 2403.51,157.042 2403.48,156.24 2403.44,155.438 2403.4,154.636 2403.34,153.834 2403.28,153.032 2403.21,152.232 2403.13,151.434 2403.05,150.634 2402.95,149.838 2402.85,149.04 2402.74,148.246 2402.62,147.45 2402.5,146.658 2402.36,145.866 2402.22,145.076 2402.07,144.286 2401.91,143.5 2401.74,142.714 2401.57,141.93 2401.39,141.148 2401.2,140.368 2401,139.59 2400.79,138.814 2400.58,138.04 2400.35,137.268 2400.12,136.498 2399.89,135.73 2399.64,134.966 2399.39,134.204 2399.12,133.444 2398.86,132.688 2398.58,131.934 2398.29,131.184 2398,130.434 2397.7,129.69 2397.39,128.948 2397.08,128.208 2396.76,127.474 2396.43,126.742 2396.09,126.012 2395.75,125.286 2395.39,124.566 2395.03,123.846 2394.67,123.132 2394.29,122.422 2393.91,121.714 2393.52,121.012 2393.13,120.312 2392.72,119.618 2392.31,118.928 2391.9,118.24 2391.47,117.558 2391.04,116.88 2390.61,116.208 2390.16,115.538 2389.71,114.874 2389.25,114.214 2388.79,113.56 2388.32,112.91 2387.84,112.264 2387.35,111.624 2386.86,110.988 2386.36,110.358 2385.86,109.732 2385.35,109.112 2384.83,108.496 2384.31,107.888 2383.78,107.282 2383.25,106.684 2382.71,106.09 2382.16,105.502 2381.6,104.92 2381.05,104.344 2380.48,103.774 2379.91,103.208 2379.33,102.65 2378.75,102.096 2378.16,101.548 2377.57,101.008 2376.97,100.472 2376.37,99.944 2375.76,99.42 2375.14,98.904 2374.52,98.394 2373.9,97.89 2373.27,97.392 2372.63,96.9 2371.99,96.416 2371.34,95.938 2370.69,95.466 2370.04,95.002 2369.38,94.544 2368.72,94.092 2368.05,93.648 2367.37,93.21 2366.7,92.78 2366.01,92.356 2365.33,91.94 2364.64,91.53 2363.94,91.126 2363.24,90.73 2362.54,90.342 2361.83,89.962 2361.12,89.588 2360.41,89.22 2359.69,88.86 2358.97,88.508 2358.24,88.164 2357.51,87.826 2356.78,87.496 2356.05,87.174 2355.31,86.86 2354.56,86.552 2353.82,86.252 2353.07,85.96 2352.32,85.676 2351.57,85.398 2350.81,85.13 2350.05,84.868 2349.29,84.614 2348.52,84.368 2347.76,84.13 2346.99,83.9 2346.21,83.678 2345.44,83.464 2344.66,83.258 2343.89,83.058 2343.11,82.868 2342.32,82.686 2341.54,82.51 2340.75,82.344 2339.97,82.184 2339.18,82.034 2338.39,81.892 2337.6,81.758 2336.8,81.63 2336.01,81.512 2335.21,81.402 2334.42,81.3 2333.62,81.206 2332.82,81.12 2332.02,81.042 2331.22,80.972 2330.42,80.912 2329.62,80.858 2328.82,80.814 2328.01,80.776 2327.21,80.748 2326.41,80.728 2325.61,80.714 2324.8,80.71 159.449,80.71 158.647,80.714 157.843,80.728 157.041,80.748 156.239,80.776 155.437,80.814 154.635,80.858 153.833,80.912 153.031,80.972 152.231,81.042 151.433,81.12 150.633,81.206 149.837,81.3 149.039,81.402 148.245,81.512 147.449,81.63 146.657,81.758 145.865,81.892 145.075,82.034 144.285,82.184 143.499,82.344 142.713,82.51 141.929,82.686 141.147,82.868 140.367,83.058 139.589,83.258 138.813,83.464 138.039,83.678 137.267,83.9 136.497,84.13 135.729,84.368 134.965,84.614 134.203,84.868 133.443,85.13 132.687,85.398 131.933,85.676 131.183,85.96 130.433,86.252 129.689,86.552 128.947,86.86 128.207,87.174 127.473,87.496 126.741,87.826 126.011,88.164 125.285,88.508 124.565,88.86 123.845,89.22 123.131,89.588 122.421,89.962 121.713,90.342 121.011,90.73 120.311,91.126 119.617,91.53 118.927,91.94 118.239,92.356 117.557,92.78 116.879,93.21 116.207,93.648 115.537,94.092 114.873,94.544 114.213,95.002 113.559,95.466 112.909,95.938 112.263,96.416 111.623,96.9 110.987,97.392 110.357,97.89 109.731,98.394 109.111,98.904 108.495,99.42 107.887,99.944 107.281,100.472 106.683,101.008 106.089,101.548 105.501,102.096 104.919,102.65 104.343,103.208 103.773,103.774 103.207,104.344 102.649,104.92 102.095,105.502 101.547,106.09 101.007,106.684 100.471,107.282 99.9431,107.888 99.4191,108.496 98.9031,109.112 98.3931,109.732 97.8891,110.358 97.3911,110.988 96.8991,111.624 96.4151,112.264 95.9371,112.91 95.4651,113.56 95.0011,114.214 94.5431,114.874 94.0911,115.538 93.6471,116.208 93.2091,116.88 92.7791,117.558 92.3551,118.24 91.9391,118.928 91.5291,119.618 91.1251,120.312 90.7291,121.012 90.3411,121.714 89.9611,122.422 89.5871,123.132 89.2191,123.846 88.8591,124.566 88.5071,125.286 88.1631,126.012 87.8251,126.742 87.4951,127.474 87.1731,128.208 86.8591,128.948 86.5511,129.69 86.2511,130.434 85.9591,131.184 85.6751,131.934 85.3971,132.688 85.1291,133.444 84.8671,134.204 84.6131,134.966 84.3671,135.73 84.1291,136.498 83.8991,137.268 83.6771,138.04 83.4631,138.814 83.2571,139.59 83.0571,140.368 82.8671,141.148 82.6851,141.93 82.5091,142.714 82.3431,143.5 82.1831,144.286 82.0331,145.076 81.8911,145.866 81.7571,146.658 81.6291,147.45 81.5111,148.246 81.4011,149.04 81.2991,149.838 81.2051,150.634 81.1191,151.434 81.0411,152.232 80.9711,153.032 80.9111,153.834 80.8571,154.636 80.8131,155.438 80.7751,156.24 80.7471,157.042 80.7271,157.844 80.7131,158.648 80.7091,159.45 80.7091,1773.62" style="stroke:rgb(0,0,0);stroke-width:1px;fill:none;stroke-opacity:1;stroke-linecap:round;stroke-linejoin:round;;fill:none"/>
<g fill-rule="evenodd"><path d="M 159.449,1773.62 L 159.449,159.45 L 2324.8,159.45 L 2324.8,1773.62 L 159.449,1773.62 z " style="fill-opacity:1.000000;fill:rgb(103,198,105);stroke:rgb(0,0,0);stroke-width:2"/></g>
</svg>
