<?xml version="1.0" standalone="no"?>
<!DOCTYPE svg PUBLIC "-//W3C//DTD SVG 1.1//EN"
"http://www.w3.org/Graphics/SVG/1.1/DTD/svg11.dtd">
<svg width="84.2835" height="63.4961" viewBox="0 0 1755.91 1322.83" version="1.1"
xmlns="http://www.w3.org/2000/svg"
xmlns:xlink="http://www.w3.org/1999/xlink">
<g fill-rule="evenodd"><path d="M -8.52651e-14,1322.83 L -8.52651e-14,0 L 1755.91,0 L 1755.91,1322.83 L -8.52651e-14,1322.83 z " style="fill-opacity:0.200000;fill:rgb(103,198,105);"/></g>
<polyline points="80.7088,1163.39 80.7128,1164.19 80.7268,1164.99 80.7468,1165.79 80.7748,1166.6 80.8128,1167.4 80.8568,1168.2 80.9108,1169 80.9708,1169.8 81.0408,1170.6 81.1188,1171.4 81.2048,1172.2 81.2988,1173 81.4008,1173.8 81.5108,1174.59 81.6288,1175.39 81.7568,1176.18 81.8908,1176.97 82.0328,1177.76 82.1828,1178.55 82.3428,1179.34 82.5088,1180.12 82.6848,1180.91 82.8668,1181.69 83.0568,1182.47 83.2568,1183.25 83.4628,1184.02 83.6768,1184.8 83.8988,1185.57 84.1288,1186.34 84.3668,1187.11 84.6128,1187.87 84.8668,1188.63 85.1288,1189.39 85.3968,1190.15 85.6748,1190.9 85.9588,1191.65 86.2508,1192.4 86.5508,1193.15 86.8588,1193.89 87.1728,1194.63 87.4948,1195.36 87.8248,1196.09 88.1628,1196.82 88.5068,1197.55 88.8588,1198.27 89.2188,1198.99 89.5868,1199.7 89.9608,1200.41 90.3408,1201.12 90.7288,1201.82 91.1248,1202.52 91.5288,1203.22 91.9388,1203.91 92.3548,1204.6 92.7788,1205.28 93.2088,1205.96 93.6468,1206.63 94.0908,1207.3 94.5428,1207.96 95.0008,1208.62 95.4648,1209.28 95.9368,1209.93 96.4148,1210.57 96.8988,1211.21 97.3908,1211.85 97.8888,1212.48 98.3928,1213.1 98.9028,1213.72 99.4188,1214.34 99.9428,1214.95 100.471,1215.55 101.007,1216.15 101.547,1216.75 102.095,1217.33 102.649,1217.92 103.207,1218.49 103.773,1219.06 104.343,1219.63 104.919,1220.19 105.501,1220.74 106.089,1221.29 106.683,1221.83 107.281,1222.36 107.887,1222.89 108.495,1223.42 109.111,1223.93 109.731,1224.44 110.357,1224.95 110.987,1225.44 111.623,1225.94 112.263,1226.42 112.909,1226.9 113.559,1227.37 114.213,1227.83 114.873,1228.29 115.537,1228.74 116.207,1229.19 116.879,1229.63 117.557,1230.06 118.239,1230.48 118.927,1230.9 119.617,1231.31 120.311,1231.71 121.011,1232.11 121.713,1232.49 122.421,1232.87 123.131,1233.25 123.845,1233.62 124.565,1233.98 125.285,1234.33 126.011,1234.67 126.741,1235.01 127.473,1235.34 128.207,1235.66 128.947,1235.98 129.689,1236.28 130.433,1236.58 131.183,1236.88 131.933,1237.16 132.687,1237.44 133.443,1237.71 134.203,1237.97 134.965,1238.22 135.729,1238.47 136.497,1238.71 137.267,1238.94 138.039,1239.16 138.813,1239.37 139.589,1239.58 140.367,1239.78 141.147,1239.97 141.929,1240.15 142.713,1240.33 143.499,1240.49 144.285,1240.65 145.075,1240.8 145.865,1240.94 146.657,1241.08 147.449,1241.21 148.245,1241.32 149.039,1241.43 149.837,1241.54 150.633,1241.63 151.433,1241.72 152.231,1241.79 153.031,1241.86 153.833,1241.92 154.635,1241.98 155.437,1242.02 156.239,1242.06 157.041,1242.09 157.843,1242.11 158.647,1242.12 159.449,1242.13 1596.45,1242.13 1597.26,1242.12 1598.06,1242.11 1598.86,1242.09 1599.66,1242.06 1600.47,1242.02 1601.27,1241.98 1602.07,1241.92 1602.87,1241.86 1603.67,1241.79 1604.47,1241.72 1605.27,1241.63 1606.07,1241.54 1606.86,1241.43 1607.66,1241.32 1608.45,1241.21 1609.25,1241.08 1610.04,1240.94 1610.83,1240.8 1611.62,1240.65 1612.4,1240.49 1613.19,1240.33 1613.97,1240.15 1614.76,1239.97 1615.54,1239.78 1616.31,1239.58 1617.09,1239.37 1617.86,1239.16 1618.64,1238.94 1619.41,1238.71 1620.17,1238.47 1620.94,1238.22 1621.7,1237.97 1622.46,1237.71 1623.22,1237.44 1623.97,1237.16 1624.72,1236.88 1625.47,1236.58 1626.21,1236.28 1626.96,1235.98 1627.7,1235.66 1628.43,1235.34 1629.16,1235.01 1629.89,1234.67 1630.62,1234.33 1631.34,1233.98 1632.06,1233.62 1632.77,1233.25 1633.48,1232.87 1634.19,1232.49 1634.89,1232.11 1635.59,1231.71 1636.29,1231.31 1636.98,1230.9 1637.66,1230.48 1638.35,1230.06 1639.02,1229.63 1639.7,1229.19 1640.37,1228.74 1641.03,1228.29 1641.69,1227.83 1642.34,1227.37 1642.99,1226.9 1643.64,1226.42 1644.28,1225.94 1644.92,1225.44 1645.55,1224.95 1646.17,1224.44 1646.79,1223.93 1647.41,1223.42 1648.02,1222.89 1648.62,1222.36 1649.22,1221.83 1649.81,1221.29 1650.4,1220.74 1650.98,1220.19 1651.56,1219.63 1652.13,1219.06 1652.7,1218.49 1653.25,1217.92 1653.81,1217.33 1654.36,1216.75 1654.9,1216.15 1655.43,1215.55 1655.96,1214.95 1656.48,1214.34 1657,1213.72 1657.51,1213.1 1658.01,1212.48 1658.51,1211.85 1659,1211.21 1659.49,1210.57 1659.97,1209.93 1660.44,1209.28 1660.9,1208.62 1661.36,1207.96 1661.81,1207.3 1662.26,1206.63 1662.69,1205.96 1663.12,1205.28 1663.55,1204.6 1663.96,1203.91 1664.37,1203.22 1664.78,1202.52 1665.17,1201.82 1665.56,1201.12 1665.94,1200.41 1666.32,1199.7 1666.68,1198.99 1667.04,1198.27 1667.4,1197.55 1667.74,1196.82 1668.08,1196.09 1668.41,1195.36 1668.73,1194.63 1669.04,1193.89 1669.35,1193.15 1669.65,1192.4 1669.94,1191.65 1670.23,1190.9 1670.51,1190.15 1670.77,1189.39 1671.04,1188.63 1671.29,1187.87 1671.54,1187.11 1671.77,1186.34 1672,1185.57 1672.23,1184.8 1672.44,1184.02 1672.65,1183.25 1672.85,1182.47 1673.04,1181.69 1673.22,1180.91 1673.39,1180.12 1673.56,1179.34 1673.72,1178.55 1673.87,1177.76 1674.01,1176.97 1674.15,1176.18 1674.27,1175.39 1674.39,1174.59 1674.5,1173.8 1674.6,1173 1674.7,1172.2 1674.78,1171.4 1674.86,1170.6 1674.93,1169.8 1674.99,1169 1675.05,1168.2 1675.09,1167.4 1675.13,1166.6 1675.16,1165.79 1675.18,1164.99 1675.19,1164.19 1675.19,1163.39 1675.19,159.452 1675.19,158.648 1675.18,157.844 1675.16,157.042 1675.13,156.24 1675.09,155.438 1675.05,154.636 1674.99,153.834 1674.93,153.032 1674.86,152.232 1674.78,151.434 1674.7,150.634 1674.6,149.838 1674.5,149.04 1674.39,148.246 1674.27,147.45 1674.15,146.658 1674.01,145.866 1673.87,145.076 1673.72,144.286 1673.56,143.5 1673.39,142.714 1673.22,141.93 1673.04,141.148 1672.85,140.368 1672.65,139.59 1672.44,138.814 1672.23,138.04 1672,137.268 1671.77,136.498 1671.54,135.73 1671.29,134.966 1671.04,134.204 1670.77,133.444 1670.51,132.688 1670.23,131.934 1669.94,131.184 1669.65,130.434 1669.35,129.69 1669.04,128.948 1668.73,128.208 1668.41,127.474 1668.08,126.742 1667.74,126.012 1667.4,125.286 1667.04,124.566 1666.68,123.846 1666.32,123.132 1665.94,122.422 1665.56,121.714 1665.17,121.012 1664.78,120.312 1664.37,119.618 1663.96,118.928 1663.55,118.24 1663.12,117.558 1662.69,116.88 1662.26,116.208 1661.81,115.538 1661.36,114.874 1660.9,114.214 1660.44,113.56 1659.97,112.91 1659.49,112.264 1659,111.624 1658.51,110.988 1658.01,110.358 1657.51,109.732 1657,109.112 1656.48,108.496 1655.96,107.888 1655.43,107.282 1654.9,106.684 1654.36,106.09 1653.81,105.502 1653.25,104.92 1652.7,104.344 1652.13,103.774 1651.56,103.208 1650.98,102.65 1650.4,102.096 1649.81,101.548 1649.22,101.008 1648.62,100.472 1648.02,99.9438 1647.41,99.4198 1646.79,98.9038 1646.17,98.3938 1645.55,97.8898 1644.92,97.3918 1644.28,96.8998 1643.64,96.4158 1642.99,95.9378 1642.34,95.4658 1641.69,95.0018 1641.03,94.5438 1640.37,94.0918 1639.7,93.6478 1639.02,93.2098 1638.35,92.7798 1637.66,92.3558 1636.98,91.9398 1636.29,91.5298 1635.59,91.1258 1634.89,90.7298 1634.19,90.3418 1633.48,89.9618 1632.77,89.5878 1632.06,89.2198 1631.34,88.8598 1630.62,88.5078 1629.89,88.1638 1629.16,87.8258 1628.43,87.4958 1627.7,87.1738 1626.96,86.8598 1626.21,86.5518 1625.47,86.2518 1624.72,85.9598 1623.97,85.6758 1623.22,85.3978 1622.46,85.1298 1621.7,84.8678 1620.94,84.6138 1620.17,84.3678 1619.41,84.1298 1618.64,83.8998 1617.86,83.6778 1617.09,83.4638 1616.31,83.2578 1615.54,83.0578 1614.76,82.8678 1613.97,82.6858 1613.19,82.5098 1612.4,82.3438 1611.62,82.1838 1610.83,82.0338 1610.04,81.8918 1609.25,81.7578 1608.45,81.6298 1607.66,81.5118 1606.86,81.4018 1606.07,81.2998 1605.27,81.2058 1604.47,81.1198 1603.67,81.0418 1602.87,80.9718 1602.07,80.9118 1601.27,80.8578 1600.47,80.8138 1599.66,80.7758 1598.86,80.7478 1598.06,80.7278 1597.26,80.7138 1596.45,80.7098 159.449,80.7098 158.647,80.7138 157.843,80.7278 157.041,80.7478 156.239,80.7758 155.437,80.8138 154.635,80.8578 153.833,80.9118 153.031,80.9718 152.231,81.0418 151.433,81.1198 150.633,81.2058 149.837,81.2998 149.039,81.4018 148.245,81.5118 147.449,81.6298 146.657,81.7578 145.865,81.8918 145.075,82.0338 144.285,82.1838 143.499,82.3438 142.713,82.5098 141.929,82.6858 141.147,82.8678 140.367,83.0578 139.589,83.2578 138.813,83.4638 138.039,83.6778 137.267,83.8998 136.497,84.1298 135.729,84.3678 134.965,84.6138 134.203,84.8678 133.443,85.1298 132.687,85.3978 131.933,85.6758 131.183,85.9598 130.433,86.2518 129.689,86.5518 128.947,86.8598 128.207,87.1738 127.473,87.4958 126.741,87.8258 126.011,88.1638 125.285,88.5078 124.565,88.8598 123.845,89.2198 123.131,89.5878 122.421,89.9618 121.713,90.3418 121.011,90.7298 120.311,91.1258 119.617,91.5298 118.927,91.9398 118.239,92.3558 117.557,92.7798 116.879,93.2098 116.207,93.6478 115.537,94.0918 114.873,94.5438 114.213,95.0018 113.559,95.4658 112.909,95.9378 112.263,96.4158 111.623,96.8998 110.987,97.3918 110.357,97.8898 109.731,98.3938 109.111,98.9038 108.495,99.4198 107.887,99.9438 107.281,100.472 106.683,101.008 106.089,101.548 105.501,102.096 104.919,102.65 104.343,103.208 103.773,103.774 103.207,104.344 102.649,104.92 102.095,105.502 101.547,106.09 101.007,106.684 100.471,107.282 99.9428,107.888 99.4188,108.496 98.9028,109.112 98.3928,109.732 97.8888,110.358 97.3908,110.988 96.8988,111.624 96.4148,112.264 95.9368,112.91 95.4648,113.56 95.0008,114.214 94.5428,114.874 94.0908,115.538 93.6468,116.208 93.2088,116.88 92.7788,117.558 92.3548,118.24 91.9388,118.928 91.5288,119.618 91.1248,120.312 90.7288,121.012 90.3408,121.714 89.9608,122.422 89.5868,123.132 89.2188,123.846 88.8588,124.566 88.5068,125.286 88.1628,126.012 87.8248,126.742 87.4948,127.474 87.1728,128.208 86.8588,128.948 86.5508,129.69 86.2508,130.434 85.9588,131.184 85.6748,131.934 85.3968,132.688 85.1288,133.444 84.8668,134.204 84.6128,134.966 84.3668,135.73 84.1288,136.498 83.8988,137.268 83.6768,138.04 83.4628,138.814 83.2568,139.59 83.0568,140.368 82.8668,141.148 82.6848,141.93 82.5088,142.714 82.3428,143.5 82.1828,144.286 82.0328,145.076 81.8908,145.866 81.7568,146.658 81.6288,147.45 81.5108,148.246 81.4008,149.04 81.2988,149.838 81.2048,150.634 81.1188,151.434 81.0408,152.232 80.9708,153.032 80.9108,153.834 80.8568,154.636 80.8128,155.438 80.7748,156.24 80.7468,157.042 80.7268,157.844 80.7128,158.648 80.7088,159.452 80.7088,1163.39" style="stroke:rgb(103,198,105);stroke-width:157.480315;fill:none;stroke-opacity:0.5;stroke-linecap:round;stroke-linejoin:round;;fill:none"/>
<polyline points="80.7088,1163.39 80.7128,1164.19 80.7268,1164.99 80.7468,1165.79 80.7748,1166.6 80.8128,1167.4 80.8568,1168.2 80.9108,1169 80.9708,1169.8 81.0408,1170.6 81.1188,1171.4 81.2048,1172.2 81.2988,1173 81.4008,1173.8 81.5108,1174.59 81.6288,1175.39 81.7568,1176.18 81.8908,1176.97 82.0328,1177.76 82.1828,1178.55 82.3428,1179.34 82.5088,1180.12 82.6848,1180.91 82.8668,1181.69 83.0568,1182.47 83.2568,1183.25 83.4628,1184.02 83.6768,1184.8 83.8988,1185.57 84.1288,1186.34 84.3668,1187.11 84.6128,1187.87 84.8668,1188.63 85.1288,1189.39 85.3968,1190.15 85.6748,1190.9 85.9588,1191.65 86.2508,1192.4 86.5508,1193.15 86.8588,1193.89 87.1728,1194.63 87.4948,1195.36 87.8248,1196.09 88.1628,1196.82 88.5068,1197.55 88.8588,1198.27 89.2188,1198.99 89.5868,1199.7 89.9608,1200.41 90.3408,1201.12 90.7288,1201.82 91.1248,1202.52 91.5288,1203.22 91.9388,1203.91 92.3548,1204.6 92.7788,1205.28 93.2088,1205.96 93.6468,1206.63 94.0908,1207.3 94.5428,1207.96 95.0008,1208.62 95.4648,1209.28 95.9368,1209.93 96.4148,1210.57 96.8988,1211.21 97.3908,1211.85 97.8888,1212.48 98.3928,1213.1 98.9028,1213.72 99.4188,1214.34 99.9428,1214.95 100.471,1215.55 101.007,1216.15 101.547,1216.75 102.095,1217.33 102.649,1217.92 103.207,1218.49 103.773,1219.06 104.343,1219.63 104.919,1220.19 105.501,1220.74 106.089,1221.29 106.683,1221.83 107.281,1222.36 107.887,1222.89 108.495,1223.42 109.111,1223.93 109.731,1224.44 110.357,1224.95 110.987,1225.44 111.623,1225.94 112.263,1226.42 112.909,1226.9 113.559,1227.37 114.213,1227.83 114.873,1228.29 115.537,1228.74 116.207,1229.19 116.879,1229.63 117.557,1230.06 118.239,1230.48 118.927,1230.9 119.617,1231.31 120.311,1231.71 121.011,1232.11 121.713,1232.49 122.421,1232.87 123.131,1233.25 123.845,1233.62 124.565,1233.98 125.285,1234.33 126.011,1234.67 126.741,1235.01 127.473,1235.34 128.207,1235.66 128.947,1235.98 129.689,1236.28 130.433,1236.58 131.183,1236.88 131.933,1237.16 132.687,1237.44 133.443,1237.71 134.203,1237.97 134.965,1238.22 135.729,1238.47 136.497,1238.71 137.267,1238.94 138.039,1239.16 138.813,1239.37 139.589,1239.58 140.367,1239.78 141.147,1239.97 141.929,1240.15 142.713,1240.33 143.499,1240.49 144.285,1240.65 145.075,1240.8 145.865,1240.94 146.657,1241.08 147.449,1241.21 148.245,1241.32 149.039,1241.43 149.837,1241.54 150.633,1241.63 151.433,1241.72 152.231,1241.79 153.031,1241.86 153.833,1241.92 154.635,1241.98 155.437,1242.02 156.239,1242.06 157.041,1242.09 157.843,1242.11 158.647,1242.12 159.449,1242.13 1596.45,1242.13 1597.26,1242.12 1598.06,1242.11 1598.86,1242.09 1599.66,1242.06 1600.47,1242.02 1601.27,1241.98 1602.07,1241.92 1602.87,1241.86 1603.67,1241.79 1604.47,1241.72 1605.27,1241.63 1606.07,1241.54 1606.86,1241.43 1607.66,1241.32 1608.45,1241.21 1609.25,1241.08 1610.04,1240.94 1610.83,1240.8 1611.62,1240.65 1612.4,1240.49 1613.19,1240.33 1613.97,1240.15 1614.76,1239.97 1615.54,1239.78 1616.31,1239.58 1617.09,1239.37 1617.86,1239.16 1618.64,1238.94 1619.41,1238.71 1620.17,1238.47 1620.94,1238.22 1621.7,1237.97 1622.46,1237.71 1623.22,1237.44 1623.97,1237.16 1624.72,1236.88 1625.47,1236.58 1626.21,1236.28 1626.96,1235.98 1627.7,1235.66 1628.43,1235.34 1629.16,1235.01 1629.89,1234.67 1630.62,1234.33 1631.34,1233.98 1632.06,1233.62 1632.77,1233.25 1633.48,1232.87 1634.19,1232.49 1634.89,1232.11 1635.59,1231.71 1636.29,1231.31 1636.98,1230.9 1637.66,1230.48 1638.35,1230.06 1639.02,1229.63 1639.7,1229.19 1640.37,1228.74 1641.03,1228.29 1641.69,1227.83 1642.34,1227.37 1642.99,1226.9 1643.64,1226.42 1644.28,1225.94 1644.92,1225.44 1645.55,1224.95 1646.17,1224.44 1646.79,1223.93 1647.41,1223.42 1648.02,1222.89 1648.62,1222.36 1649.22,1221.83 1649.81,1221.29 1650.4,1220.74 1650.98,1220.19 1651.56,1219.63 1652.13,1219.06 1652.7,1218.49 1653.25,1217.92 1653.81,1217.33 1654.36,1216.75 1654.9,1216.15 1655.43,1215.55 1655.96,1214.95 1656.48,1214.34 1657,1213.72 1657.51,1213.1 1658.01,1212.48 1658.51,1211.85 1659,1211.21 1659.49,1210.57 1659.97,1209.93 1660.44,1209.28 1660.9,1208.62 1661.36,1207.96 1661.81,1207.3 1662.26,1206.63 1662.69,1205.96 1663.12,1205.28 1663.55,1204.6 1663.96,1203.91 1664.37,1203.22 1664.78,1202.52 1665.17,1201.82 1665.56,1201.12 1665.94,1200.41 1666.32,1199.7 1666.68,1198.99 1667.04,1198.27 1667.4,1197.55 1667.74,1196.82 1668.08,1196.09 1668.41,1195.36 1668.73,1194.63 1669.04,1193.89 1669.35,1193.15 1669.65,1192.4 1669.94,1191.65 1670.23,1190.9 1670.51,1190.15 1670.77,1189.39 1671.04,1188.63 1671.29,1187.87 1671.54,1187.11 1671.77,1186.34 1672,1185.57 1672.23,1184.8 1672.44,1184.02 1672.65,1183.25 1672.85,1182.47 1673.04,1181.69 1673.22,1180.91 1673.39,1180.12 1673.56,1179.34 1673.72,1178.55 1673.87,1177.76 1674.01,1176.97 1674.15,1176.18 1674.27,1175.39 1674.39,1174.59 1674.5,1173.8 1674.6,1173 1674.7,1172.2 1674.78,1171.4 1674.86,1170.6 1674.93,1169.8 1674.99,1169 1675.05,1168.2 1675.09,1167.4 1675.13,1166.6 1675.16,1165.79 1675.18,1164.99 1675.19,1164.19 1675.19,1163.39 1675.19,159.452 1675.19,158.648 1675.18,157.844 1675.16,157.042 1675.13,156.24 1675.09,155.438 1675.05,154.636 1674.99,153.834 1674.93,153.032 1674.86,152.232 1674.78,151.434 1674.7,150.634 1674.6,149.838 1674.5,149.04 1674.39,148.246 1674.27,147.45 1674.15,146.658 1674.01,145.866 1673.87,145.076 1673.72,144.286 1673.56,143.5 1673.39,142.714 1673.22,141.93 1673.04,141.148 1672.85,140.368 1672.65,139.59 1672.44,138.814 1672.23,138.04 1672,137.268 1671.77,136.498 1671.54,135.73 1671.29,134.966 1671.04,134.204 1670.77,133.444 1670.51,132.688 1670.23,131.934 1669.94,131.184 1669.65,130.434 1669.35,129.69 1669.04,128.948 1668.73,128.208 1668.41,127.474 1668.08,126.742 1667.74,126.012 1667.4,125.286 1667.04,124.566 1666.68,123.846 1666.32,123.132 1665.94,122.422 1665.56,121.714 1665.17,121.012 1664.78,120.312 1664.37,119.618 1663.96,118.928 1663.55,118.24 1663.12,117.558 1662.69,116.88 1662.26,116.208 1661.81,115.538 1661.36,114.874 1660.9,114.214 1660.44,113.56 1659.97,112.91 1659.49,112.264 1659,111.624 1658.51,110.988 1658.01,110.358 1657.51,109.732 1657,109.112 1656.48,108.496 1655.96,107.888 1655.43,107.282 1654.9,106.684 1654.36,106.09 1653.81,105.502 1653.25,104.92 1652.7,104.344 1652.13,103.774 1651.56,103.208 1650.98,102.65 1650.4,102.096 1649.81,101.548 1649.22,101.008 1648.62,100.472 1648.02,99.9438 1647.41,99.4198 1646.79,98.9038 1646.17,98.3938 1645.55,97.8898 1644.92,97.3918 1644.28,96.8998 1643.64,96.4158 1642.99,95.9378 1642.34,95.4658 1641.69,95.0018 1641.03,94.5438 1640.37,94.0918 1639.7,93.6478 1639.02,93.2098 1638.35,92.7798 1637.66,92.3558 1636.98,91.9398 1636.29,91.5298 1635.59,91.1258 1634.89,90.7298 1634.19,90.3418 1633.48,89.9618 1632.77,89.5878 1632.06,89.2198 1631.34,88.8598 1630.62,88.5078 1629.89,88.1638 1629.16,87.8258 1628.43,87.4958 1627.7,87.1738 1626.96,86.8598 1626.21,86.5518 1625.47,86.2518 1624.72,85.9598 1623.97,85.6758 1623.22,85.3978 1622.46,85.1298 1621.7,84.8678 1620.94,84.6138 1620.17,84.3678 1619.41,84.1298 1618.64,83.8998 1617.86,83.6778 1617.09,83.4638 1616.31,83.2578 1615.54,83.0578 1614.76,82.8678 1613.97,82.6858 1613.19,82.5098 1612.4,82.3438 1611.62,82.1838 1610.83,82.0338 1610.04,81.8918 1609.25,81.7578 1608.45,81.6298 1607.66,81.5118 1606.86,81.4018 1606.07,81.2998 1605.27,81.2058 1604.47,81.1198 1603.67,81.0418 1602.87,80.9718 1602.07,80.9118 1601.27,80.8578 1600.47,80.8138 1599.66,80.7758 1598.86,80.7478 1598.06,80.7278 1597.26,80.7138 1596.45,80.7098 159.449,80.7098 158.647,80.7138 157.843,80.7278 157.041,80.7478 156.239,80.7758 155.437,80.8138 154.635,80.8578 153.833,80.9118 153.031,80.9718 152.231,81.0418 151.433,81.1198 150.633,81.2058 149.837,81.2998 149.039,81.4018 148.245,81.5118 147.449,81.6298 146.657,81.7578 145.865,81.8918 145.075,82.0338 144.285,82.1838 143.499,82.3438 142.713,82.5098 141.929,82.6858 141.147,82.8678 140.367,83.0578 139.589,83.2578 138.813,83.4638 138.039,83.6778 137.267,83.8998 136.497,84.1298 135.729,84.3678 134.965,84.6138 134.203,84.8678 133.443,85.1298 132.687,85.3978 131.933,85.6758 131.183,85.9598 130.433,86.2518 129.689,86.5518 128.947,86.8598 128.207,87.1738 127.473,87.4958 126.741,87.8258 126.011,88.1638 125.285,88.5078 124.565,88.8598 123.845,89.2198 123.131,89.5878 122.421,89.9618 121.713,90.3418 121.011,90.7298 120.311,91.1258 119.617,91.5298 118.927,91.9398 118.239,92.3558 117.557,92.7798 116.879,93.2098 116.207,93.6478 115.537,94.0918 114.873,94.5438 114.213,95.0018 113.559,95.4658 112.909,95.9378 112.263,96.4158 111.623,96.8998 110.987,97.3918 110.357,97.8898 109.731,98.3938 109.111,98.9038 108.495,99.4198 107.887,99.9438 107.281,100.472 106.683,101.008 106.089,101.548 105.501,102.096 104.919,102.65 104.343,103.208 103.773,103.774 103.207,104.344 102.649,104.92 102.095,105.502 101.547,106.09 101.007,106.684 100.471,107.282 99.9428,107.888 99.4188,108.496 98.9028,109.112 98.3928,109.732 97.8888,110.358 97.3908,110.988 96.8988,111.624 96.4148,112.264 95.9368,112.91 95.4648,113.56 95.0008,114.214 94.5428,114.874 94.0908,115.538 93.6468,116.208 93.2088,116.88 92.7788,117.558 92.3548,118.24 91.9388,118.928 91.5288,119.618 91.1248,120.312 90.7288,121.012 90.3408,121.714 89.9608,122.422 89.5868,123.132 89.2188,123.846 88.8588,124.566 88.5068,125.286 88.1628,126.012 87.8248,126.742 87.4948,127.474 87.1728,128.208 86.8588,128.948 86.5508,129.69 86.2508,130.434 85.9588,131.184 85.6748,131.934 85.3968,132.688 85.1288,133.444 84.8668,134.204 84.6128,134.966 84.3668,135.73 84.1288,136.498 83.8988,137.268 83.6768,138.04 83.4628,138.814 83.2568,139.59 83.0568,140.368 82.8668,141.148 82.6848,141.93 82.5088,142.714 82.3428,143.5 82.1828,144.286 82.0328,145.076 81.8908,145.866 81.7568,146.658 81.6288,147.45 81.5108,148.246 81.4008,149.04 81.2988,149.838 81.2048,150.634 81.1188,151.434 81.0408,152.232 80.9708,153.032 80.9108,153.834 80.8568,154.636 80.8128,155.438 80.7748,156.24 80.7468,157.042 80.7268,157.844 80.7128,158.648 80.7088,159.452 80.7088,1163.39" style="stroke:rgb(0,0,0);stroke-width:1px;fill:none;stroke-opacity:1;stroke-linecap:round;stroke-linejoin:round;;fill:none"/>
<g fill-rule="evenodd"><path d="M 159.449,1163.39 L 159.449,159.45 L 1596.45,159.45 L 1596.45,1163.39 L 159.449,1163.39 z " style="fill-opacity:1.000000;fill:rgb(103,198,105);stroke:rgb(0,0,0);stroke-width:2"/></g>
</svg>
