<?xml version="1.0" standalone="no"?>
<!DOCTYPE svg PUBLIC "-//W3C//DTD SVG 1.1//EN"
"http://www.w3.org/Graphics/SVG/1.1/DTD/svg11.dtd">
<svg width="119.244" height="92.7874" viewBox="0 0 2484.25 1933.07" version="1.1"
xmlns="http://www.w3.org/2000/svg"
xmlns:xlink="http://www.w3.org/1999/xlink">
<polyline points="1926.93,1495.11 1927.12,1489.68 1927.78,1484.34 1929.68,1473.18 1933.05,1462.37 1936.31,1454.19 1942.46,1442.41 1947.75,1434.81 1952.64,1428.47 1964.1,1417.1 1977.59,1407.24 1987.61,1401.98 1992.49,1399.71 1997.51,1397.88 2008.37,1394.53 2017.49,1392.89 2025.43,1391.87 2041.57,1391.93 2058.08,1394.49 2067.96,1397.55 2073.95,1399.7 2077.91,1401.53 2088.84,1407.28 2095.72,1412.04 2102.71,1417.39 2114.16,1428.91 2124.01,1442.4 2129.27,1452.42 2131.55,1457.3 2133.38,1462.32 2136.73,1473.18 2138.36,1482.3 2139.39,1490.24 2139.33,1506.38 2136.76,1522.89 2133.39,1533.7 2131.55,1538.76 2129.3,1543.6 2123.98,1553.65 2118.7,1561.25 2113.81,1567.59 2102.34,1578.96 2088.86,1588.82 2078.83,1594.08 2073.95,1596.36 2068.94,1598.19 2058.07,1601.54 2041.58,1604.17 2024.87,1604.13 2008.37,1601.57 1998.49,1598.52 1992.49,1596.37 1988.46,1594.5 1977.6,1588.79 1970,1583.5 1963.66,1578.62 1952.29,1567.16 1942.43,1553.67 1937.61,1544.52 1934.02,1536.49 1930.09,1524.28 1928.38,1515.65 1927.09,1506.39 1926.93,1495.11" style="stroke:rgb(103,198,105);stroke-width:3.937008;fill:none;stroke-opacity:0.5;stroke-linecap:round;stroke-linejoin:round;;fill:none"/>
<polyline points="1926.93,1495.11 1927.12,1489.68 1927.78,1484.34 1929.68,1473.18 1933.05,1462.37 1936.31,1454.19 1942.46,1442.41 1947.75,1434.81 1952.64,1428.47 1964.1,1417.1 1977.59,1407.24 1987.61,1401.98 1992.49,1399.71 1997.51,1397.88 2008.37,1394.53 2017.49,1392.89 2025.43,1391.87 2041.57,1391.93 2058.08,1394.49 2067.96,1397.55 2073.95,1399.7 2077.91,1401.53 2088.84,1407.28 2095.72,1412.04 2102.71,1417.39 2114.16,1428.91 2124.01,1442.4 2129.27,1452.42 2131.55,1457.3 2133.38,1462.32 2136.73,1473.18 2138.36,1482.3 2139.39,1490.24 2139.33,1506.38 2136.76,1522.89 2133.39,1533.7 2131.55,1538.76 2129.3,1543.6 2123.98,1553.65 2118.7,1561.25 2113.81,1567.59 2102.34,1578.96 2088.86,1588.82 2078.83,1594.08 2073.95,1596.36 2068.94,1598.19 2058.07,1601.54 2041.58,1604.17 2024.87,1604.13 2008.37,1601.57 1998.49,1598.52 1992.49,1596.37 1988.46,1594.5 1977.6,1588.79 1970,1583.5 1963.66,1578.62 1952.29,1567.16 1942.43,1553.67 1937.61,1544.52 1934.02,1536.49 1930.09,1524.28 1928.38,1515.65 1927.09,1506.39 1926.93,1495.11" style="stroke:rgb(0,0,0);stroke-width:1px;fill:none;stroke-opacity:1;stroke-linecap:round;stroke-linejoin:round;;fill:none"/>
<polyline points="1795.77,740.186 1808.89,740.418 1812.78,741.39 1816.77,743.264 1821.48,747.106 1824.6,751.426 1826.55,756.334 1827.04,759.844 1862.7,759.844 1861.9,750.206 1857.7,737.522 1850.7,726.164 1841.26,716.728 1829.9,709.724 1817.22,705.522 1809.45,704.726 1795.77,704.726 1795.77,740.186" style="stroke:rgb(103,198,105);stroke-width:3.937008;fill:none;stroke-opacity:0.5;stroke-linecap:round;stroke-linejoin:round;;fill:none"/>
<polyline points="1795.77,740.186 1808.89,740.418 1812.78,741.39 1816.77,743.264 1821.48,747.106 1824.6,751.426 1826.55,756.334 1827.04,759.844 1862.7,759.844 1861.9,750.206 1857.7,737.522 1850.7,726.164 1841.26,716.728 1829.9,709.724 1817.22,705.522 1809.45,704.726 1795.77,704.726 1795.77,740.186" style="stroke:rgb(0,0,0);stroke-width:1px;fill:none;stroke-opacity:1;stroke-linecap:round;stroke-linejoin:round;;fill:none"/>
<polyline points="1630.42,759.844 1666.08,759.844 1666.57,756.334 1668.52,751.426 1671.63,747.106 1676.35,743.264 1680.33,741.39 1684.22,740.418 1697.34,740.186 1697.34,704.726 1683.67,704.726 1675.89,705.522 1663.21,709.724 1651.85,716.728 1642.42,726.164 1635.41,737.522 1631.21,750.206 1630.42,759.844" style="stroke:rgb(103,198,105);stroke-width:3.937008;fill:none;stroke-opacity:0.5;stroke-linecap:round;stroke-linejoin:round;;fill:none"/>
<polyline points="1630.42,759.844 1666.08,759.844 1666.57,756.334 1668.52,751.426 1671.63,747.106 1676.35,743.264 1680.33,741.39 1684.22,740.418 1697.34,740.186 1697.34,704.726 1683.67,704.726 1675.89,705.522 1663.21,709.724 1651.85,716.728 1642.42,726.164 1635.41,737.522 1631.21,750.206 1630.42,759.844" style="stroke:rgb(0,0,0);stroke-width:1px;fill:none;stroke-opacity:1;stroke-linecap:round;stroke-linejoin:round;;fill:none"/>
<polyline points="1136.32,869.482 1136.29,984.822 1123.2,999.136 1111.66,1013.13 1105.86,1018.93 1098.19,1023.65 1089.45,1026.55 1082.1,1027.19 1040.84,1027.13 1035.56,1026.55 1026.82,1023.65 1019.11,1018.9 1012.71,1012.49 1010.93,1009.83 1007.71,1004.17 1003.15,990.044 999.975,981.624 988.541,978.386 983.041,977.594 977.361,977.188 885.735,977.216 877.871,978.002 872.369,979.1 864.135,981.558 856.239,1004.78 853.491,1009.44 851.473,1012.49 845.073,1018.9 837.355,1023.64 828.937,1026.43 823.765,1027.11 779.581,1027.08 774.735,1026.52 765.993,1023.65 763.057,1021.98 758.279,1018.9 751.877,1012.49 747.139,1004.77 742.219,993.278 737.709,984.346 727.861,969.82 727.885,884.642 735.719,873.466 740.685,864.426 747.113,849.556 751.879,841.848 758.277,835.434 763.057,832.356 765.993,830.686 774.731,827.792 782.079,827.15 823.337,827.204 828.621,827.786 837.347,830.702 845.073,835.432 851.457,841.834 853.247,844.502 856.895,851.3 861.031,864.288 864.203,872.71 875.635,875.95 886.803,877.148 977.373,877.148 986.307,876.332 991.809,875.234 1000.04,872.778 1007.94,849.552 1012.7,841.838 1019.11,835.434 1023.5,832.598 1026.82,830.69 1035.56,827.792 1043,827.15 1084.59,827.252 1089.44,827.812 1098.18,830.686 1105.77,835.372 1109.4,838.872 1130.07,862.974 1136.32,869.482 1149.07,855.606 1157.22,845.568 1162.88,839.15 1166.8,835.426 1174.45,830.674 1183.2,827.802 1188.05,827.252 1232.23,827.21 1237.08,827.792 1242.88,829.588 1245.82,830.686 1251.55,834.104 1254.15,836 1259.95,841.838 1263.2,846.93 1264.7,849.552 1266.42,854.398 1267.57,858.298 1268.18,863.146 1268.22,902.314 1268.39,906.522 1269.5,913.98 1273.14,918.854 1276.86,923.15 1302.5,948.704 1310.13,954.614 1316.14,955.48 1321.81,955.888 1654.25,955.718 1663.21,954.236 1669.36,948.836 1682.67,935.74 1686.19,931.87 1694.67,920.696 1701.08,910.406 1713.11,908.664 1723.31,907.812 1733.3,907.468 1762.59,907.526 1771.94,907.948 1781,908.784 1792.22,910.39 1799.13,921.568 1803.1,927.174 1810.42,935.556 1824.32,949.578 1832.33,960.586 1838.52,972.706 1842.7,985.662 1844.86,999.1 1844.85,1012.71 1843.17,1023.86 1841.13,1031.52 1838.52,1039.11 1832.33,1051.23 1825.9,1060.24 1820.07,1066.71 1814.72,1071.89 1803.7,1079.87 1791.56,1086.04 1778.62,1090.28 1771.55,1091.53 1765.17,1092.38 1761.83,1092.5 1727.94,1092.4 1714.49,1090.27 1701.54,1086.07 1694.93,1082.84 1688.67,1079.39 1678.3,1071.76 1663.27,1057.47 1655.71,1056.33 1650.04,1055.93 1288.88,1055.93 1283.98,1055.72 1280.23,1055.14 1273.9,1053.73 1265.66,1050.31 1262.84,1048.63 1257.08,1044.66 1246,1033.87 1237.88,1027.73 1227.21,1027.14 1188.05,1027.13 1182.48,1026.33 1174.48,1023.61 1166.9,1018.93 1162.35,1014.55 1143.54,992.486 1136.29,984.822" style="stroke:rgb(103,198,105);stroke-width:3.937008;fill:none;stroke-opacity:0.5;stroke-linecap:round;stroke-linejoin:round;;fill:none"/>
<polyline points="1136.32,869.482 1136.29,984.822 1123.2,999.136 1111.66,1013.13 1105.86,1018.93 1098.19,1023.65 1089.45,1026.55 1082.1,1027.19 1040.84,1027.13 1035.56,1026.55 1026.82,1023.65 1019.11,1018.9 1012.71,1012.49 1010.93,1009.83 1007.71,1004.17 1003.15,990.044 999.975,981.624 988.541,978.386 983.041,977.594 977.361,977.188 885.735,977.216 877.871,978.002 872.369,979.1 864.135,981.558 856.239,1004.78 853.491,1009.44 851.473,1012.49 845.073,1018.9 837.355,1023.64 828.937,1026.43 823.765,1027.11 779.581,1027.08 774.735,1026.52 765.993,1023.65 763.057,1021.98 758.279,1018.9 751.877,1012.49 747.139,1004.77 742.219,993.278 737.709,984.346 727.861,969.82 727.885,884.642 735.719,873.466 740.685,864.426 747.113,849.556 751.879,841.848 758.277,835.434 763.057,832.356 765.993,830.686 774.731,827.792 782.079,827.15 823.337,827.204 828.621,827.786 837.347,830.702 845.073,835.432 851.457,841.834 853.247,844.502 856.895,851.3 861.031,864.288 864.203,872.71 875.635,875.95 886.803,877.148 977.373,877.148 986.307,876.332 991.809,875.234 1000.04,872.778 1007.94,849.552 1012.7,841.838 1019.11,835.434 1023.5,832.598 1026.82,830.69 1035.56,827.792 1043,827.15 1084.59,827.252 1089.44,827.812 1098.18,830.686 1105.77,835.372 1109.4,838.872 1130.07,862.974 1136.32,869.482 1149.07,855.606 1157.22,845.568 1162.88,839.15 1166.8,835.426 1174.45,830.674 1183.2,827.802 1188.05,827.252 1232.23,827.21 1237.08,827.792 1242.88,829.588 1245.82,830.686 1251.55,834.104 1254.15,836 1259.95,841.838 1263.2,846.93 1264.7,849.552 1266.42,854.398 1267.57,858.298 1268.18,863.146 1268.22,902.314 1268.39,906.522 1269.5,913.98 1273.14,918.854 1276.86,923.15 1302.5,948.704 1310.13,954.614 1316.14,955.48 1321.81,955.888 1654.25,955.718 1663.21,954.236 1669.36,948.836 1682.67,935.74 1686.19,931.87 1694.67,920.696 1701.08,910.406 1713.11,908.664 1723.31,907.812 1733.3,907.468 1762.59,907.526 1771.94,907.948 1781,908.784 1792.22,910.39 1799.13,921.568 1803.1,927.174 1810.42,935.556 1824.32,949.578 1832.33,960.586 1838.52,972.706 1842.7,985.662 1844.86,999.1 1844.85,1012.71 1843.17,1023.86 1841.13,1031.52 1838.52,1039.11 1832.33,1051.23 1825.9,1060.24 1820.07,1066.71 1814.72,1071.89 1803.7,1079.87 1791.56,1086.04 1778.62,1090.28 1771.55,1091.53 1765.17,1092.38 1761.83,1092.5 1727.94,1092.4 1714.49,1090.27 1701.54,1086.07 1694.93,1082.84 1688.67,1079.39 1678.3,1071.76 1663.27,1057.47 1655.71,1056.33 1650.04,1055.93 1288.88,1055.93 1283.98,1055.72 1280.23,1055.14 1273.9,1053.73 1265.66,1050.31 1262.84,1048.63 1257.08,1044.66 1246,1033.87 1237.88,1027.73 1227.21,1027.14 1188.05,1027.13 1182.48,1026.33 1174.48,1023.61 1166.9,1018.93 1162.35,1014.55 1143.54,992.486 1136.29,984.822" style="stroke:rgb(0,0,0);stroke-width:1px;fill:none;stroke-opacity:1;stroke-linecap:round;stroke-linejoin:round;;fill:none"/>
<polyline points="371.803,436.79 371.951,447.088 373.423,457.322 375.249,465.932 379.765,479.468 387.315,494.37 394.449,504.392 400.163,511.084 408.951,519.702 417.151,525.846 423.821,530.268 435.149,536.068 443.365,539.216 453.247,542.272 465.381,544.316 474.155,545.006 486.457,544.868 496.695,543.414 505.303,541.59 516.471,537.966 523.797,534.746 533.739,529.524 543.769,522.386 550.459,516.67 559.073,507.888 565.267,499.612 570.065,492.234 575.439,481.686 578.587,473.468 581.643,463.592 583.685,451.456 584.375,442.684 584.239,430.38 582.801,420.238 581.213,412.398 577.335,400.37 574.117,393.046 568.893,383.098 561.759,373.076 556.045,366.384 547.257,357.766 538.981,351.572 531.603,346.774 520.251,341.016 512.755,338.22 502.957,335.212 489.939,333.028 481.961,332.458 469.749,332.6 459.513,334.054 450.905,335.878 439.735,339.504 432.409,342.722 422.467,347.944 412.439,355.082 405.749,360.798 397.135,369.58 390.941,377.856 386.143,385.234 379.771,398.002 376.993,405.898 374.483,414.334 372.399,426.892 371.803,436.79" style="stroke:rgb(103,198,105);stroke-width:3.937008;fill:none;stroke-opacity:0.5;stroke-linecap:round;stroke-linejoin:round;;fill:none"/>
<polyline points="371.803,436.79 371.951,447.088 373.423,457.322 375.249,465.932 379.765,479.468 387.315,494.37 394.449,504.392 400.163,511.084 408.951,519.702 417.151,525.846 423.821,530.268 435.149,536.068 443.365,539.216 453.247,542.272 465.381,544.316 474.155,545.006 486.457,544.868 496.695,543.414 505.303,541.59 516.471,537.966 523.797,534.746 533.739,529.524 543.769,522.386 550.459,516.67 559.073,507.888 565.267,499.612 570.065,492.234 575.439,481.686 578.587,473.468 581.643,463.592 583.685,451.456 584.375,442.684 584.239,430.38 582.801,420.238 581.213,412.398 577.335,400.37 574.117,393.046 568.893,383.098 561.759,373.076 556.045,366.384 547.257,357.766 538.981,351.572 531.603,346.774 520.251,341.016 512.755,338.22 502.957,335.212 489.939,333.028 481.961,332.458 469.749,332.6 459.513,334.054 450.905,335.878 439.735,339.504 432.409,342.722 422.467,347.944 412.439,355.082 405.749,360.798 397.135,369.58 390.941,377.856 386.143,385.234 379.771,398.002 376.993,405.898 374.483,414.334 372.399,426.892 371.803,436.79" style="stroke:rgb(0,0,0);stroke-width:1px;fill:none;stroke-opacity:1;stroke-linecap:round;stroke-linejoin:round;;fill:none"/>
<polyline points="578.429,886.812 613.683,886.812 613.683,838.634 610.763,839.602 599.503,846.546 590.149,855.9 583.203,867.16 579.041,879.718 578.429,886.812" style="stroke:rgb(103,198,105);stroke-width:3.937008;fill:none;stroke-opacity:0.5;stroke-linecap:round;stroke-linejoin:round;;fill:none"/>
<polyline points="578.429,886.812 613.683,886.812 613.683,838.634 610.763,839.602 599.503,846.546 590.149,855.9 583.203,867.16 579.041,879.718 578.429,886.812" style="stroke:rgb(0,0,0);stroke-width:1px;fill:none;stroke-opacity:1;stroke-linecap:round;stroke-linejoin:round;;fill:none"/>
<polyline points="578.429,967.522 613.683,967.522 613.683,1015.7 610.763,1014.73 599.503,1007.79 590.149,998.434 583.203,987.174 579.041,974.616 578.429,967.522" style="stroke:rgb(103,198,105);stroke-width:3.937008;fill:none;stroke-opacity:0.5;stroke-linecap:round;stroke-linejoin:round;;fill:none"/>
<polyline points="578.429,967.522 613.683,967.522 613.683,1015.7 610.763,1014.73 599.503,1007.79 590.149,998.434 583.203,987.174 579.041,974.616 578.429,967.522" style="stroke:rgb(0,0,0);stroke-width:1px;fill:none;stroke-opacity:1;stroke-linecap:round;stroke-linejoin:round;;fill:none"/>
<polyline points="159.449,1773.62 159.449,159.45 2324.8,159.45 2324.8,1773.62 159.449,1773.62" style="stroke:rgb(103,198,105);stroke-width:3.937008;fill:none;stroke-opacity:0.5;stroke-linecap:round;stroke-linejoin:round;;fill:none"/>
<polyline points="159.449,1773.62 159.449,159.45 2324.8,159.45 2324.8,1773.62 159.449,1773.62" style="stroke:rgb(0,0,0);stroke-width:1px;fill:none;stroke-opacity:1;stroke-linecap:round;stroke-linejoin:round;;fill:none"/>
</svg>
