<?xml version="1.0" standalone="no"?>
<!DOCTYPE svg PUBLIC "-//W3C//DTD SVG 1.1//EN"
"http://www.w3.org/Graphics/SVG/1.1/DTD/svg11.dtd">
<svg width="84.2835" height="63.4961" viewBox="0 0 1755.91 1322.83" version="1.1"
xmlns="http://www.w3.org/2000/svg"
xmlns:xlink="http://www.w3.org/1999/xlink">
<polyline points="828.681,664.3 832.827,668.566 836.105,672.164 838.613,675.084 839.957,676.75 841.647,678.744 843.961,681.342 844.003,681.388 846.577,684.288 848.669,686.836 849.479,687.904 850.489,689.182 852.025,691.048 854.249,693.528 857.051,696.398 859.277,698.51 860.173,699.1 863.553,701.264 866.877,703.172 867.161,703.276 870.933,704.648 874.491,705.754 875.619,706.046 877.651,706.342 880.465,706.652 881.309,706.662 909.469,706.696 915.137,707.11 920.637,707.908 921.141,707.984 927.225,712.5 928.781,713.896 930.307,715.344 954.029,739.06 956.119,741.002 956.267,741.13 959.425,743.362 962.693,745.436 963.265,745.686 967.745,747.596 969.835,748.418 971.225,748.742 973.611,749.256 976.427,749.756 977.431,749.898 979.671,749.99 981.299,750.024 1136.83,750.024 1142.5,750.43 1148,751.222 1152.01,751.996 1154.39,754.52 1155.51,755.81 1156.08,756.478 1158.4,759.268 1159.02,760.024 1160.01,761.28 1160.69,762.156 1163.29,765.63 1164.28,766.906 1164.34,766.978 1168.03,770.852 1169.66,772.468 1174.02,776.538 1177.34,779.182 1179.19,780.566 1183.64,783.702 1184.97,784.602 1189.76,787.188 1191.19,787.922 1196.08,790.31 1197.11,790.794 1197.56,790.954 1202.7,792.744 1204.23,793.24 1209.43,794.82 1210.06,795.002 1211,795.18 1216.36,796.13 1218.64,796.466 1223.51,797.036 1228.81,797.238 1230.32,797.266 1255.31,797.258 1256.9,797.226 1260.74,797.07 1265.03,796.556 1267.12,796.25 1273.15,795.198 1274.19,795.002 1274.91,794.79 1280.76,793 1282.48,792.432 1287.13,790.772 1288.21,790.286 1289.76,789.554 1294.63,787.116 1296.14,786.318 1299.25,784.584 1301.39,783.166 1302.94,782.078 1308.42,778.048 1310.02,776.81 1310.27,776.598 1314.95,772.124 1316.28,770.778 1319.9,766.97 1320.45,766.29 1321.61,764.774 1325.63,759.286 1326.78,757.632 1327.88,755.948 1330.19,751.748 1331.11,749.966 1334.08,743.844 1334.74,742.05 1336.69,736.248 1337.23,734.528 1338.27,730.878 1338.74,728.594 1339.07,726.71 1340.1,719.988 1340.36,717.996 1340.41,717.438 1340.56,711.196 1340.56,709.286 1340.42,703.826 1340.35,703.166 1340.1,701.276 1339.07,694.554 1338.74,692.67 1338.27,690.386 1337.23,686.736 1336.66,684.922 1334.47,678.482 1334.1,677.428 1333.71,676.622 1330.71,670.516 1329.78,668.736 1327.88,665.318 1326.28,662.906 1325.13,661.262 1321.08,655.792 1319.91,654.286 1319.83,654.21 1315.12,649.31 1313.77,647.974 1310.03,644.452 1309.32,643.76 1307.93,642.386 1305.97,640.298 1303.28,637.228 1302.23,636.074 1301.81,635.638 1297.68,630.602 1296.11,628.41 1292.94,623.524 1291.79,621.576 1289.86,618.456 1289.4,617.754 1287.76,615.15 1284.72,614.626 1281.12,614.106 1272.96,613.148 1269.2,612.816 1261.71,612.378 1258.11,612.27 1228.37,612.224 1225.87,612.268 1219.75,612.502 1216.83,612.68 1210.71,613.194 1207.72,613.516 1201.6,614.314 1198.51,614.788 1196.31,615.178 1193.74,619.57 1193.67,619.692 1191.91,622.722 1187.52,629.298 1185.78,631.562 1183.94,633.826 1180.7,637.57 1180.18,638.188 1179.13,639.438 1174.89,643.824 1173.82,644.78 1172.2,646.296 1166.9,651.572 1165.38,653.174 1164.38,654.286 1160.73,659.04 1160.68,659.1 1159.38,660.798 1157.09,663.536 1154.39,666.484 1153.34,667.678 1152.81,668.3 1152,669.224 1144.1,670.738 1140.49,671.072 1136.83,671.244 1009.82,671.244 1004.16,670.836 998.659,670.046 998.141,669.97 992.051,665.446 990.497,664.048 988.983,662.612 969.279,642.91 965.559,638.612 962.229,634.164 961.901,633.72 960.793,626.282 960.677,624.194 960.617,622.072 960.571,593.5 960.569,593.068 960.103,589.032 959.967,588.222 959.099,585.146 957.771,581.236 957.075,579.494 956.055,577.608 953.901,574.084 952.327,571.79 951.515,570.856 948.939,568.172 946.607,565.958 945.955,565.354 943.941,564.006 941.217,562.302 938.699,560.852 938.237,560.608 936.473,559.926 933.745,558.982 930.671,558.044 929.503,557.708 927.827,557.48 925.433,557.206 924.649,557.124 922.975,557.088 883.383,557.07 881.505,557.112 880.467,557.162 877.905,557.414 875.613,557.708 874.835,557.926 872.523,558.606 869.793,559.518 866.877,560.612 866.787,560.658 863.897,562.302 861.173,564.006 859.197,565.326 858.507,565.97 856.181,568.188 853.899,570.554 851.765,572.96 850.951,573.908 850.003,575.046 849.845,575.236 848.293,577.122 846.823,579.014 846.401,579.592 844.319,582.222 841.575,585.44 839.069,588.192 837.333,589.98 834.129,593.508 832.621,595.276 828.805,599.474 828.681,664.3" style="stroke:rgb(103,198,105);stroke-width:3.937008;fill:none;stroke-opacity:0.5;stroke-linecap:round;stroke-linejoin:round;;fill:none"/>
<polyline points="828.681,664.3 832.827,668.566 836.105,672.164 838.613,675.084 839.957,676.75 841.647,678.744 843.961,681.342 844.003,681.388 846.577,684.288 848.669,686.836 849.479,687.904 850.489,689.182 852.025,691.048 854.249,693.528 857.051,696.398 859.277,698.51 860.173,699.1 863.553,701.264 866.877,703.172 867.161,703.276 870.933,704.648 874.491,705.754 875.619,706.046 877.651,706.342 880.465,706.652 881.309,706.662 909.469,706.696 915.137,707.11 920.637,707.908 921.141,707.984 927.225,712.5 928.781,713.896 930.307,715.344 954.029,739.06 956.119,741.002 956.267,741.13 959.425,743.362 962.693,745.436 963.265,745.686 967.745,747.596 969.835,748.418 971.225,748.742 973.611,749.256 976.427,749.756 977.431,749.898 979.671,749.99 981.299,750.024 1136.83,750.024 1142.5,750.43 1148,751.222 1152.01,751.996 1154.39,754.52 1155.51,755.81 1156.08,756.478 1158.4,759.268 1159.02,760.024 1160.01,761.28 1160.69,762.156 1163.29,765.63 1164.28,766.906 1164.34,766.978 1168.03,770.852 1169.66,772.468 1174.02,776.538 1177.34,779.182 1179.19,780.566 1183.64,783.702 1184.97,784.602 1189.76,787.188 1191.19,787.922 1196.08,790.31 1197.11,790.794 1197.56,790.954 1202.7,792.744 1204.23,793.24 1209.43,794.82 1210.06,795.002 1211,795.18 1216.36,796.13 1218.64,796.466 1223.51,797.036 1228.81,797.238 1230.32,797.266 1255.31,797.258 1256.9,797.226 1260.74,797.07 1265.03,796.556 1267.12,796.25 1273.15,795.198 1274.19,795.002 1274.91,794.79 1280.76,793 1282.48,792.432 1287.13,790.772 1288.21,790.286 1289.76,789.554 1294.63,787.116 1296.14,786.318 1299.25,784.584 1301.39,783.166 1302.94,782.078 1308.42,778.048 1310.02,776.81 1310.27,776.598 1314.95,772.124 1316.28,770.778 1319.9,766.97 1320.45,766.29 1321.61,764.774 1325.63,759.286 1326.78,757.632 1327.88,755.948 1330.19,751.748 1331.11,749.966 1334.08,743.844 1334.74,742.05 1336.69,736.248 1337.23,734.528 1338.27,730.878 1338.74,728.594 1339.07,726.71 1340.1,719.988 1340.36,717.996 1340.41,717.438 1340.56,711.196 1340.56,709.286 1340.42,703.826 1340.35,703.166 1340.1,701.276 1339.07,694.554 1338.74,692.67 1338.27,690.386 1337.23,686.736 1336.66,684.922 1334.47,678.482 1334.1,677.428 1333.71,676.622 1330.71,670.516 1329.78,668.736 1327.88,665.318 1326.28,662.906 1325.13,661.262 1321.08,655.792 1319.91,654.286 1319.83,654.21 1315.12,649.31 1313.77,647.974 1310.03,644.452 1309.32,643.76 1307.93,642.386 1305.97,640.298 1303.28,637.228 1302.23,636.074 1301.81,635.638 1297.68,630.602 1296.11,628.41 1292.94,623.524 1291.79,621.576 1289.86,618.456 1289.4,617.754 1287.76,615.15 1284.72,614.626 1281.12,614.106 1272.96,613.148 1269.2,612.816 1261.71,612.378 1258.11,612.27 1228.37,612.224 1225.87,612.268 1219.75,612.502 1216.83,612.68 1210.71,613.194 1207.72,613.516 1201.6,614.314 1198.51,614.788 1196.31,615.178 1193.74,619.57 1193.67,619.692 1191.91,622.722 1187.52,629.298 1185.78,631.562 1183.94,633.826 1180.7,637.57 1180.18,638.188 1179.13,639.438 1174.89,643.824 1173.82,644.78 1172.2,646.296 1166.9,651.572 1165.38,653.174 1164.38,654.286 1160.73,659.04 1160.68,659.1 1159.38,660.798 1157.09,663.536 1154.39,666.484 1153.34,667.678 1152.81,668.3 1152,669.224 1144.1,670.738 1140.49,671.072 1136.83,671.244 1009.82,671.244 1004.16,670.836 998.659,670.046 998.141,669.97 992.051,665.446 990.497,664.048 988.983,662.612 969.279,642.91 965.559,638.612 962.229,634.164 961.901,633.72 960.793,626.282 960.677,624.194 960.617,622.072 960.571,593.5 960.569,593.068 960.103,589.032 959.967,588.222 959.099,585.146 957.771,581.236 957.075,579.494 956.055,577.608 953.901,574.084 952.327,571.79 951.515,570.856 948.939,568.172 946.607,565.958 945.955,565.354 943.941,564.006 941.217,562.302 938.699,560.852 938.237,560.608 936.473,559.926 933.745,558.982 930.671,558.044 929.503,557.708 927.827,557.48 925.433,557.206 924.649,557.124 922.975,557.088 883.383,557.07 881.505,557.112 880.467,557.162 877.905,557.414 875.613,557.708 874.835,557.926 872.523,558.606 869.793,559.518 866.877,560.612 866.787,560.658 863.897,562.302 861.173,564.006 859.197,565.326 858.507,565.97 856.181,568.188 853.899,570.554 851.765,572.96 850.951,573.908 850.003,575.046 849.845,575.236 848.293,577.122 846.823,579.014 846.401,579.592 844.319,582.222 841.575,585.44 839.069,588.192 837.333,589.98 834.129,593.508 832.621,595.276 828.805,599.474 828.681,664.3" style="stroke:rgb(0,0,0);stroke-width:1px;fill:none;stroke-opacity:1;stroke-linecap:round;stroke-linejoin:round;;fill:none"/>
<polyline points="159.449,1163.39 1596.45,1163.39 1596.45,159.452 159.449,159.452 159.449,1163.39" style="stroke:rgb(115,81,255);stroke-width:3.937008;fill:none;stroke-opacity:0.5;stroke-linecap:round;stroke-linejoin:round;;fill:none"/>
<polyline points="159.449,1163.39 1596.45,1163.39 1596.45,159.452 159.449,159.452 159.449,1163.39" style="stroke:rgb(0,0,0);stroke-width:1px;fill:none;stroke-opacity:1;stroke-linecap:round;stroke-linejoin:round;;fill:none"/>
<polyline points="454.657,664.27 454.789,599.51 458.575,595.346 460.149,593.5 463.287,590.042 464.609,588.678 466.539,586.59 469.123,583.658 471.291,581.012 472.815,579.006 473.251,578.444 474.767,576.518 476.019,575.004 476.689,574.23 476.951,573.924 478.777,571.776 480.735,569.636 482.427,567.918 484.533,565.932 485.199,565.348 487.121,564.03 489.927,562.274 492.723,560.684 492.859,560.606 495.427,559.634 497.709,558.86 501.289,557.83 501.607,557.754 506.057,557.198 506.451,557.152 508.947,557.072 548.137,557.072 550.631,557.152 551.023,557.198 555.477,557.754 555.795,557.828 560.549,559.278 564.203,560.65 565.013,561.066 568.931,563.376 571.917,565.38 572.237,565.652 574.951,568.2 577.187,570.508 578.351,571.76 579.469,573.452 581.599,576.852 582.599,578.546 583.465,580.094 584.885,582.446 585.163,582.876 587.159,586.278 587.441,586.812 588.977,589.506 596.577,591.304 602.079,592.094 607.747,592.502 675.715,592.502 680.131,592.254 684.459,591.77 694.349,589.45 694.901,588.474 695.425,587.52 697.625,583.928 697.877,583.556 699.795,580.454 700.861,578.546 702.083,576.506 704.677,572.452 705.125,571.77 707.987,568.752 711.477,565.44 711.541,565.378 715.621,562.712 719.253,560.644 719.841,560.396 724.529,558.748 727.989,557.772 729.193,557.57 732.827,557.132 733.669,557.122 774.061,557.07 776.387,557.134 777.009,557.17 780.779,557.582 781.863,557.714 785.379,558.77 789.917,560.364 790.599,560.612 793.579,562.302 796.303,564.006 798.201,565.272 798.651,565.69 800.407,567.344 802.151,569.094 803.799,570.854 805.705,573.048 807.731,575.56 807.991,575.886 810.449,578.996 813.493,582.47 813.839,582.828 817.503,587.05 818.217,587.964 821.967,592.34 825.417,596.032 828.805,599.474 832.621,595.276 834.129,593.508 837.333,589.98 839.069,588.192 841.575,585.44 844.319,582.222 846.401,579.592 846.823,579.014 848.293,577.122 849.845,575.236 850.003,575.046 850.951,573.908 851.765,572.96 853.899,570.554 856.181,568.188 858.507,565.97 859.197,565.326 861.173,564.006 863.897,562.302 866.787,560.658 866.877,560.612 869.793,559.518 872.523,558.606 874.835,557.926 875.613,557.708 877.905,557.414 880.467,557.162 881.505,557.112 883.383,557.07 922.975,557.088 924.649,557.124 925.433,557.206 927.827,557.48 929.503,557.708 930.671,558.044 933.745,558.982 936.473,559.926 938.237,560.608 938.699,560.852 941.217,562.302 943.941,564.006 945.955,565.354 946.607,565.958 948.939,568.172 951.515,570.856 952.327,571.79 953.901,574.084 956.055,577.608 957.075,579.494 957.771,581.236 959.099,585.146 959.967,588.222 960.103,589.032 960.569,593.068 960.571,593.5 960.617,622.072 960.677,624.194 960.793,626.282 961.901,633.72 962.229,634.164 965.559,638.612 969.279,642.91 988.983,662.612 990.497,664.048 992.051,665.446 998.141,669.97 998.659,670.046 1004.16,670.836 1009.82,671.244 1136.83,671.244 1140.49,671.072 1144.1,670.738 1152,669.224 1152.81,668.3 1153.34,667.678 1154.39,666.484 1157.09,663.536 1159.38,660.798 1160.68,659.1 1160.73,659.04 1164.38,654.286 1165.38,653.174 1166.9,651.572 1172.2,646.296 1173.82,644.78 1174.89,643.824 1179.13,639.438 1180.18,638.188 1180.7,637.57 1183.94,633.826 1185.78,631.562 1187.52,629.298 1191.91,622.722 1193.67,619.692 1193.74,619.57 1196.31,615.178 1198.51,614.788 1201.6,614.314 1207.72,613.516 1210.71,613.194 1216.83,612.68 1219.75,612.502 1225.87,612.268 1228.37,612.224 1258.11,612.27 1261.71,612.378 1269.2,612.816 1272.96,613.148 1281.12,614.106 1284.72,614.626 1287.76,615.15 1289.4,617.754 1289.86,618.456 1291.79,621.576 1292.94,623.524 1296.11,628.41 1297.68,630.602 1301.81,635.638 1302.23,636.074 1303.28,637.228 1305.97,640.298 1307.93,642.386 1309.32,643.76 1310.03,644.452 1313.77,647.974 1315.12,649.31 1319.83,654.21 1319.91,654.286 1321.08,655.792 1325.13,661.262 1326.28,662.906 1327.88,665.318 1329.78,668.736 1330.71,670.516 1333.71,676.622 1334.1,677.428 1334.47,678.482 1336.66,684.922 1337.23,686.736 1338.27,690.386 1338.74,692.67 1339.07,694.554 1340.1,701.276 1340.35,703.166 1340.42,703.826 1340.56,709.286 1340.56,711.196 1340.41,717.438 1340.36,717.996 1340.1,719.988 1339.07,726.71 1338.74,728.594 1338.27,730.878 1337.23,734.528 1336.69,736.248 1334.74,742.05 1334.08,743.844 1331.11,749.966 1330.19,751.748 1327.88,755.948 1326.78,757.632 1325.63,759.286 1321.61,764.774 1320.45,766.29 1319.9,766.97 1316.28,770.778 1314.95,772.124 1310.27,776.598 1310.02,776.81 1308.42,778.048 1302.94,782.078 1301.39,783.166 1299.25,784.584 1296.14,786.318 1294.63,787.116 1289.76,789.554 1288.21,790.286 1287.13,790.772 1282.48,792.432 1280.76,793 1274.91,794.79 1274.19,795.002 1273.15,795.198 1267.12,796.25 1265.03,796.556 1260.74,797.07 1256.9,797.226 1255.31,797.258 1230.32,797.266 1228.81,797.238 1223.51,797.036 1218.64,796.466 1216.36,796.13 1211,795.18 1210.06,795.002 1209.43,794.82 1204.23,793.24 1202.7,792.744 1197.56,790.954 1197.11,790.794 1196.08,790.31 1191.19,787.922 1189.76,787.188 1184.97,784.602 1183.64,783.702 1179.19,780.566 1177.34,779.182 1174.02,776.538 1169.66,772.468 1168.03,770.852 1164.34,766.978 1164.28,766.906 1163.29,765.63 1160.69,762.156 1160.01,761.28 1159.02,760.024 1158.4,759.268 1156.08,756.478 1155.51,755.81 1154.39,754.52 1152.01,751.996 1148,751.222 1142.5,750.43 1136.83,750.024 981.299,750.024 979.671,749.99 977.431,749.898 976.427,749.756 973.611,749.256 971.225,748.742 969.835,748.418 967.745,747.596 963.265,745.686 962.693,745.436 959.425,743.362 956.267,741.13 956.119,741.002 954.029,739.06 930.307,715.344 928.781,713.896 927.225,712.5 921.141,707.984 920.637,707.908 915.137,707.11 909.469,706.696 881.309,706.662 880.465,706.652 877.651,706.342 875.619,706.046 874.491,705.754 870.933,704.648 867.161,703.276 866.877,703.172 863.553,701.264 860.173,699.1 859.277,698.51 857.051,696.398 854.249,693.528 852.025,691.048 850.489,689.182 849.479,687.904 848.669,686.836 846.577,684.288 844.003,681.388 843.961,681.342 841.647,678.744 839.957,676.75 838.613,675.084 836.105,672.164 832.827,668.566 828.681,664.3 824.855,668.508 823.341,670.284 820.143,673.804 818.407,675.592 815.901,678.344 813.485,681.176 811.889,683.154 810.655,684.774 809.943,685.682 807.897,688.222 807.473,688.738 806.525,689.878 805.999,690.496 804.415,692.32 802.717,694.156 801.025,695.874 798.927,697.852 798.263,698.436 796.339,699.754 793.889,701.306 791.805,702.52 790.607,703.19 789.183,703.722 786.151,704.788 782.173,705.956 781.855,706.03 777.401,706.586 777.009,706.632 774.515,706.712 735.325,706.712 732.831,706.634 732.435,706.586 727.985,706.03 727.667,705.954 722.917,704.506 719.257,703.134 718.449,702.718 714.529,700.408 711.543,698.404 711.223,698.132 708.503,695.578 706.267,693.27 705.111,692.024 704.213,690.684 702.481,687.978 700.873,685.23 700.621,684.758 698.577,681.336 698.541,681.28 696.301,677.506 696.019,676.972 694.483,674.278 686.883,672.48 681.381,671.69 675.715,671.282 607.747,671.282 603.329,671.53 599.001,672.014 589.095,674.34 588.543,675.294 587.347,677.416 585.605,680.254 585.167,680.91 583.465,683.69 582.599,685.238 581.379,687.278 578.783,691.33 578.337,692.014 575.471,695.036 571.979,698.348 571.919,698.404 567.839,701.074 564.207,703.14 563.619,703.388 558.931,705.036 555.473,706.012 554.267,706.214 550.633,706.652 549.791,706.662 509.399,706.714 507.071,706.65 506.453,706.614 502.683,706.202 501.597,706.068 498.079,705.014 493.539,703.416 492.861,703.172 490.241,701.704 488.183,700.448 485.759,698.84 485.159,698.41 483.327,696.742 480.425,693.81 477.753,690.81 477.245,690.192 476.203,688.876 474.659,686.832 472.569,684.284 470.343,681.77 469.923,681.302 468.569,679.814 465.933,676.678 465.253,675.808 461.509,671.43 458.079,667.752 454.657,664.27" style="stroke:rgb(115,81,255);stroke-width:3.937008;fill:none;stroke-opacity:0.5;stroke-linecap:round;stroke-linejoin:round;;fill:none"/>
<polyline points="454.657,664.27 454.789,599.51 458.575,595.346 460.149,593.5 463.287,590.042 464.609,588.678 466.539,586.59 469.123,583.658 471.291,581.012 472.815,579.006 473.251,578.444 474.767,576.518 476.019,575.004 476.689,574.23 476.951,573.924 478.777,571.776 480.735,569.636 482.427,567.918 484.533,565.932 485.199,565.348 487.121,564.03 489.927,562.274 492.723,560.684 492.859,560.606 495.427,559.634 497.709,558.86 501.289,557.83 501.607,557.754 506.057,557.198 506.451,557.152 508.947,557.072 548.137,557.072 550.631,557.152 551.023,557.198 555.477,557.754 555.795,557.828 560.549,559.278 564.203,560.65 565.013,561.066 568.931,563.376 571.917,565.38 572.237,565.652 574.951,568.2 577.187,570.508 578.351,571.76 579.469,573.452 581.599,576.852 582.599,578.546 583.465,580.094 584.885,582.446 585.163,582.876 587.159,586.278 587.441,586.812 588.977,589.506 596.577,591.304 602.079,592.094 607.747,592.502 675.715,592.502 680.131,592.254 684.459,591.77 694.349,589.45 694.901,588.474 695.425,587.52 697.625,583.928 697.877,583.556 699.795,580.454 700.861,578.546 702.083,576.506 704.677,572.452 705.125,571.77 707.987,568.752 711.477,565.44 711.541,565.378 715.621,562.712 719.253,560.644 719.841,560.396 724.529,558.748 727.989,557.772 729.193,557.57 732.827,557.132 733.669,557.122 774.061,557.07 776.387,557.134 777.009,557.17 780.779,557.582 781.863,557.714 785.379,558.77 789.917,560.364 790.599,560.612 793.579,562.302 796.303,564.006 798.201,565.272 798.651,565.69 800.407,567.344 802.151,569.094 803.799,570.854 805.705,573.048 807.731,575.56 807.991,575.886 810.449,578.996 813.493,582.47 813.839,582.828 817.503,587.05 818.217,587.964 821.967,592.34 825.417,596.032 828.805,599.474 832.621,595.276 834.129,593.508 837.333,589.98 839.069,588.192 841.575,585.44 844.319,582.222 846.401,579.592 846.823,579.014 848.293,577.122 849.845,575.236 850.003,575.046 850.951,573.908 851.765,572.96 853.899,570.554 856.181,568.188 858.507,565.97 859.197,565.326 861.173,564.006 863.897,562.302 866.787,560.658 866.877,560.612 869.793,559.518 872.523,558.606 874.835,557.926 875.613,557.708 877.905,557.414 880.467,557.162 881.505,557.112 883.383,557.07 922.975,557.088 924.649,557.124 925.433,557.206 927.827,557.48 929.503,557.708 930.671,558.044 933.745,558.982 936.473,559.926 938.237,560.608 938.699,560.852 941.217,562.302 943.941,564.006 945.955,565.354 946.607,565.958 948.939,568.172 951.515,570.856 952.327,571.79 953.901,574.084 956.055,577.608 957.075,579.494 957.771,581.236 959.099,585.146 959.967,588.222 960.103,589.032 960.569,593.068 960.571,593.5 960.617,622.072 960.677,624.194 960.793,626.282 961.901,633.72 962.229,634.164 965.559,638.612 969.279,642.91 988.983,662.612 990.497,664.048 992.051,665.446 998.141,669.97 998.659,670.046 1004.16,670.836 1009.82,671.244 1136.83,671.244 1140.49,671.072 1144.1,670.738 1152,669.224 1152.81,668.3 1153.34,667.678 1154.39,666.484 1157.09,663.536 1159.38,660.798 1160.68,659.1 1160.73,659.04 1164.38,654.286 1165.38,653.174 1166.9,651.572 1172.2,646.296 1173.82,644.78 1174.89,643.824 1179.13,639.438 1180.18,638.188 1180.7,637.57 1183.94,633.826 1185.78,631.562 1187.52,629.298 1191.91,622.722 1193.67,619.692 1193.74,619.57 1196.31,615.178 1198.51,614.788 1201.6,614.314 1207.72,613.516 1210.71,613.194 1216.83,612.68 1219.75,612.502 1225.87,612.268 1228.37,612.224 1258.11,612.27 1261.71,612.378 1269.2,612.816 1272.96,613.148 1281.12,614.106 1284.72,614.626 1287.76,615.15 1289.4,617.754 1289.86,618.456 1291.79,621.576 1292.94,623.524 1296.11,628.41 1297.68,630.602 1301.81,635.638 1302.23,636.074 1303.28,637.228 1305.97,640.298 1307.93,642.386 1309.32,643.76 1310.03,644.452 1313.77,647.974 1315.12,649.31 1319.83,654.21 1319.91,654.286 1321.08,655.792 1325.13,661.262 1326.28,662.906 1327.88,665.318 1329.78,668.736 1330.71,670.516 1333.71,676.622 1334.1,677.428 1334.47,678.482 1336.66,684.922 1337.23,686.736 1338.27,690.386 1338.74,692.67 1339.07,694.554 1340.1,701.276 1340.35,703.166 1340.42,703.826 1340.56,709.286 1340.56,711.196 1340.41,717.438 1340.36,717.996 1340.1,719.988 1339.07,726.71 1338.74,728.594 1338.27,730.878 1337.23,734.528 1336.69,736.248 1334.74,742.05 1334.08,743.844 1331.11,749.966 1330.19,751.748 1327.88,755.948 1326.78,757.632 1325.63,759.286 1321.61,764.774 1320.45,766.29 1319.9,766.97 1316.28,770.778 1314.95,772.124 1310.27,776.598 1310.02,776.81 1308.42,778.048 1302.94,782.078 1301.39,783.166 1299.25,784.584 1296.14,786.318 1294.63,787.116 1289.76,789.554 1288.21,790.286 1287.13,790.772 1282.48,792.432 1280.76,793 1274.91,794.79 1274.19,795.002 1273.15,795.198 1267.12,796.25 1265.03,796.556 1260.74,797.07 1256.9,797.226 1255.31,797.258 1230.32,797.266 1228.81,797.238 1223.51,797.036 1218.64,796.466 1216.36,796.13 1211,795.18 1210.06,795.002 1209.43,794.82 1204.23,793.24 1202.7,792.744 1197.56,790.954 1197.11,790.794 1196.08,790.31 1191.19,787.922 1189.76,787.188 1184.97,784.602 1183.64,783.702 1179.19,780.566 1177.34,779.182 1174.02,776.538 1169.66,772.468 1168.03,770.852 1164.34,766.978 1164.28,766.906 1163.29,765.63 1160.69,762.156 1160.01,761.28 1159.02,760.024 1158.4,759.268 1156.08,756.478 1155.51,755.81 1154.39,754.52 1152.01,751.996 1148,751.222 1142.5,750.43 1136.83,750.024 981.299,750.024 979.671,749.99 977.431,749.898 976.427,749.756 973.611,749.256 971.225,748.742 969.835,748.418 967.745,747.596 963.265,745.686 962.693,745.436 959.425,743.362 956.267,741.13 956.119,741.002 954.029,739.06 930.307,715.344 928.781,713.896 927.225,712.5 921.141,707.984 920.637,707.908 915.137,707.11 909.469,706.696 881.309,706.662 880.465,706.652 877.651,706.342 875.619,706.046 874.491,705.754 870.933,704.648 867.161,703.276 866.877,703.172 863.553,701.264 860.173,699.1 859.277,698.51 857.051,696.398 854.249,693.528 852.025,691.048 850.489,689.182 849.479,687.904 848.669,686.836 846.577,684.288 844.003,681.388 843.961,681.342 841.647,678.744 839.957,676.75 838.613,675.084 836.105,672.164 832.827,668.566 828.681,664.3 824.855,668.508 823.341,670.284 820.143,673.804 818.407,675.592 815.901,678.344 813.485,681.176 811.889,683.154 810.655,684.774 809.943,685.682 807.897,688.222 807.473,688.738 806.525,689.878 805.999,690.496 804.415,692.32 802.717,694.156 801.025,695.874 798.927,697.852 798.263,698.436 796.339,699.754 793.889,701.306 791.805,702.52 790.607,703.19 789.183,703.722 786.151,704.788 782.173,705.956 781.855,706.03 777.401,706.586 777.009,706.632 774.515,706.712 735.325,706.712 732.831,706.634 732.435,706.586 727.985,706.03 727.667,705.954 722.917,704.506 719.257,703.134 718.449,702.718 714.529,700.408 711.543,698.404 711.223,698.132 708.503,695.578 706.267,693.27 705.111,692.024 704.213,690.684 702.481,687.978 700.873,685.23 700.621,684.758 698.577,681.336 698.541,681.28 696.301,677.506 696.019,676.972 694.483,674.278 686.883,672.48 681.381,671.69 675.715,671.282 607.747,671.282 603.329,671.53 599.001,672.014 589.095,674.34 588.543,675.294 587.347,677.416 585.605,680.254 585.167,680.91 583.465,683.69 582.599,685.238 581.379,687.278 578.783,691.33 578.337,692.014 575.471,695.036 571.979,698.348 571.919,698.404 567.839,701.074 564.207,703.14 563.619,703.388 558.931,705.036 555.473,706.012 554.267,706.214 550.633,706.652 549.791,706.662 509.399,706.714 507.071,706.65 506.453,706.614 502.683,706.202 501.597,706.068 498.079,705.014 493.539,703.416 492.861,703.172 490.241,701.704 488.183,700.448 485.759,698.84 485.159,698.41 483.327,696.742 480.425,693.81 477.753,690.81 477.245,690.192 476.203,688.876 474.659,686.832 472.569,684.284 470.343,681.77 469.923,681.302 468.569,679.814 465.933,676.678 465.253,675.808 461.509,671.43 458.079,667.752 454.657,664.27" style="stroke:rgb(0,0,0);stroke-width:1px;fill:none;stroke-opacity:1;stroke-linecap:round;stroke-linejoin:round;;fill:none"/>
<polyline points="454.657,664.27 458.079,667.752 461.509,671.43 465.253,675.808 465.933,676.678 468.569,679.814 469.923,681.302 470.343,681.77 472.569,684.284 474.659,686.832 476.203,688.876 477.245,690.192 477.753,690.81 480.425,693.81 483.327,696.742 485.159,698.41 485.759,698.84 488.183,700.448 490.241,701.704 492.861,703.172 493.539,703.416 498.079,705.014 501.597,706.068 502.683,706.202 506.453,706.614 507.071,706.65 509.399,706.714 549.791,706.662 550.633,706.652 554.267,706.214 555.473,706.012 558.931,705.036 563.619,703.388 564.207,703.14 567.839,701.074 571.919,698.404 571.979,698.348 575.471,695.036 578.337,692.014 578.783,691.33 581.379,687.278 582.599,685.238 583.465,683.69 585.167,680.91 585.605,680.254 587.347,677.416 588.543,675.294 589.095,674.34 599.001,672.014 603.329,671.53 607.747,671.282 675.715,671.282 681.381,671.69 686.883,672.48 694.483,674.278 696.019,676.972 696.301,677.506 698.541,681.28 698.577,681.336 700.621,684.758 700.873,685.23 702.481,687.978 704.213,690.684 705.111,692.024 706.267,693.27 708.503,695.578 711.223,698.132 711.543,698.404 714.529,700.408 718.449,702.718 719.257,703.134 722.917,704.506 727.667,705.954 727.985,706.03 732.435,706.586 732.831,706.634 735.325,706.712 774.515,706.712 777.009,706.632 777.401,706.586 781.855,706.03 782.173,705.956 786.151,704.788 789.183,703.722 790.607,703.19 791.805,702.52 793.889,701.306 796.339,699.754 798.263,698.436 798.927,697.852 801.025,695.874 802.717,694.156 804.415,692.32 805.999,690.496 806.525,689.878 807.473,688.738 807.897,688.222 809.943,685.682 810.655,684.774 811.889,683.154 813.485,681.176 815.901,678.344 818.407,675.592 820.143,673.804 823.341,670.284 824.855,668.508 828.681,664.3 828.805,599.474 825.417,596.032 821.967,592.34 818.217,587.964 817.503,587.05 813.839,582.828 813.493,582.47 810.449,578.996 807.991,575.886 807.731,575.56 805.705,573.048 803.799,570.854 802.151,569.094 800.407,567.344 798.651,565.69 798.201,565.272 796.303,564.006 793.579,562.302 790.599,560.612 789.917,560.364 785.379,558.77 781.863,557.714 780.779,557.582 777.009,557.17 776.387,557.134 774.061,557.07 733.669,557.122 732.827,557.132 729.193,557.57 727.989,557.772 724.529,558.748 719.841,560.396 719.253,560.644 715.621,562.712 711.541,565.378 711.477,565.44 707.987,568.752 705.125,571.77 704.677,572.452 702.083,576.506 700.861,578.546 699.795,580.454 697.877,583.556 697.625,583.928 695.425,587.52 694.901,588.474 694.349,589.45 684.459,591.77 680.131,592.254 675.715,592.502 607.747,592.502 602.079,592.094 596.577,591.304 588.977,589.506 587.441,586.812 587.159,586.278 585.163,582.876 584.885,582.446 583.465,580.094 582.599,578.546 581.599,576.852 579.469,573.452 578.351,571.76 577.187,570.508 574.951,568.2 572.237,565.652 571.917,565.38 568.931,563.376 565.013,561.066 564.203,560.65 560.549,559.278 555.795,557.828 555.477,557.754 551.023,557.198 550.631,557.152 548.137,557.072 508.947,557.072 506.451,557.152 506.057,557.198 501.607,557.754 501.289,557.83 497.709,558.86 495.427,559.634 492.859,560.606 492.723,560.684 489.927,562.274 487.121,564.03 485.199,565.348 484.533,565.932 482.427,567.918 480.735,569.636 478.777,571.776 476.951,573.924 476.689,574.23 476.019,575.004 474.767,576.518 473.251,578.444 472.815,579.006 471.291,581.012 469.123,583.658 466.539,586.59 464.609,588.678 463.287,590.042 460.149,593.5 458.575,595.346 454.789,599.51 454.657,664.27" style="stroke:rgb(74,236,41);stroke-width:3.937008;fill:none;stroke-opacity:0.5;stroke-linecap:round;stroke-linejoin:round;;fill:none"/>
<polyline points="454.657,664.27 458.079,667.752 461.509,671.43 465.253,675.808 465.933,676.678 468.569,679.814 469.923,681.302 470.343,681.77 472.569,684.284 474.659,686.832 476.203,688.876 477.245,690.192 477.753,690.81 480.425,693.81 483.327,696.742 485.159,698.41 485.759,698.84 488.183,700.448 490.241,701.704 492.861,703.172 493.539,703.416 498.079,705.014 501.597,706.068 502.683,706.202 506.453,706.614 507.071,706.65 509.399,706.714 549.791,706.662 550.633,706.652 554.267,706.214 555.473,706.012 558.931,705.036 563.619,703.388 564.207,703.14 567.839,701.074 571.919,698.404 571.979,698.348 575.471,695.036 578.337,692.014 578.783,691.33 581.379,687.278 582.599,685.238 583.465,683.69 585.167,680.91 585.605,680.254 587.347,677.416 588.543,675.294 589.095,674.34 599.001,672.014 603.329,671.53 607.747,671.282 675.715,671.282 681.381,671.69 686.883,672.48 694.483,674.278 696.019,676.972 696.301,677.506 698.541,681.28 698.577,681.336 700.621,684.758 700.873,685.23 702.481,687.978 704.213,690.684 705.111,692.024 706.267,693.27 708.503,695.578 711.223,698.132 711.543,698.404 714.529,700.408 718.449,702.718 719.257,703.134 722.917,704.506 727.667,705.954 727.985,706.03 732.435,706.586 732.831,706.634 735.325,706.712 774.515,706.712 777.009,706.632 777.401,706.586 781.855,706.03 782.173,705.956 786.151,704.788 789.183,703.722 790.607,703.19 791.805,702.52 793.889,701.306 796.339,699.754 798.263,698.436 798.927,697.852 801.025,695.874 802.717,694.156 804.415,692.32 805.999,690.496 806.525,689.878 807.473,688.738 807.897,688.222 809.943,685.682 810.655,684.774 811.889,683.154 813.485,681.176 815.901,678.344 818.407,675.592 820.143,673.804 823.341,670.284 824.855,668.508 828.681,664.3 828.805,599.474 825.417,596.032 821.967,592.34 818.217,587.964 817.503,587.05 813.839,582.828 813.493,582.47 810.449,578.996 807.991,575.886 807.731,575.56 805.705,573.048 803.799,570.854 802.151,569.094 800.407,567.344 798.651,565.69 798.201,565.272 796.303,564.006 793.579,562.302 790.599,560.612 789.917,560.364 785.379,558.77 781.863,557.714 780.779,557.582 777.009,557.17 776.387,557.134 774.061,557.07 733.669,557.122 732.827,557.132 729.193,557.57 727.989,557.772 724.529,558.748 719.841,560.396 719.253,560.644 715.621,562.712 711.541,565.378 711.477,565.44 707.987,568.752 705.125,571.77 704.677,572.452 702.083,576.506 700.861,578.546 699.795,580.454 697.877,583.556 697.625,583.928 695.425,587.52 694.901,588.474 694.349,589.45 684.459,591.77 680.131,592.254 675.715,592.502 607.747,592.502 602.079,592.094 596.577,591.304 588.977,589.506 587.441,586.812 587.159,586.278 585.163,582.876 584.885,582.446 583.465,580.094 582.599,578.546 581.599,576.852 579.469,573.452 578.351,571.76 577.187,570.508 574.951,568.2 572.237,565.652 571.917,565.38 568.931,563.376 565.013,561.066 564.203,560.65 560.549,559.278 555.795,557.828 555.477,557.754 551.023,557.198 550.631,557.152 548.137,557.072 508.947,557.072 506.451,557.152 506.057,557.198 501.607,557.754 501.289,557.83 497.709,558.86 495.427,559.634 492.859,560.606 492.723,560.684 489.927,562.274 487.121,564.03 485.199,565.348 484.533,565.932 482.427,567.918 480.735,569.636 478.777,571.776 476.951,573.924 476.689,574.23 476.019,575.004 474.767,576.518 473.251,578.444 472.815,579.006 471.291,581.012 469.123,583.658 466.539,586.59 464.609,588.678 463.287,590.042 460.149,593.5 458.575,595.346 454.789,599.51 454.657,664.27" style="stroke:rgb(0,0,0);stroke-width:1px;fill:none;stroke-opacity:1;stroke-linecap:round;stroke-linejoin:round;;fill:none"/>
<polyline points="305.117,671.618 305.905,679.326 310.071,691.898 317.015,703.158 326.369,712.512 337.629,719.458 350.203,723.624 357.909,724.412 359.249,724.412 359.249,688.66 355.449,688.01 354.943,687.85 350.589,685.802 350.173,685.538 346.465,682.472 346.129,682.112 343.301,678.22 343.079,677.826 341.523,674.126 341.405,673.732 340.653,669.792 340.617,669.43 340.557,653.546 305.117,653.546 305.117,671.618" style="stroke:rgb(205,186,171);stroke-width:3.937008;fill:none;stroke-opacity:0.5;stroke-linecap:round;stroke-linejoin:round;;fill:none"/>
<polyline points="305.117,671.618 305.905,679.326 310.071,691.898 317.015,703.158 326.369,712.512 337.629,719.458 350.203,723.624 357.909,724.412 359.249,724.412 359.249,688.66 355.449,688.01 354.943,687.85 350.589,685.802 350.173,685.538 346.465,682.472 346.129,682.112 343.301,678.22 343.079,677.826 341.523,674.126 341.405,673.732 340.653,669.792 340.617,669.43 340.557,653.546 305.117,653.546 305.117,671.618" style="stroke:rgb(0,0,0);stroke-width:1px;fill:none;stroke-opacity:1;stroke-linecap:round;stroke-linejoin:round;;fill:none"/>
<polyline points="305.117,610.238 305.117,592.164 305.905,584.458 310.071,571.886 317.015,560.626 326.369,551.272 337.629,544.326 350.203,540.16 357.909,539.372 359.249,539.372 359.249,575.12 355.449,575.772 354.943,575.932 350.589,577.98 350.173,578.244 346.465,581.31 346.129,581.67 343.301,585.562 343.079,585.956 341.523,589.656 341.405,590.05 340.653,593.99 340.617,594.352 340.557,610.238 305.117,610.238" style="stroke:rgb(242,251,227);stroke-width:3.937008;fill:none;stroke-opacity:0.5;stroke-linecap:round;stroke-linejoin:round;;fill:none"/>
<polyline points="305.117,610.238 305.117,592.164 305.905,584.458 310.071,571.886 317.015,560.626 326.369,551.272 337.629,544.326 350.203,540.16 357.909,539.372 359.249,539.372 359.249,575.12 355.449,575.772 354.943,575.932 350.589,577.98 350.173,578.244 346.465,581.31 346.129,581.67 343.301,585.562 343.079,585.956 341.523,589.656 341.405,590.05 340.653,593.99 340.617,594.352 340.557,610.238 305.117,610.238" style="stroke:rgb(0,0,0);stroke-width:1px;fill:none;stroke-opacity:1;stroke-linecap:round;stroke-linejoin:round;;fill:none"/>
<polyline points="1263.78,444.884 1301.58,444.888 1301.82,444.902 1305.8,445.392 1306.19,445.48 1309.99,446.766 1310.39,446.954 1314.48,449.468 1314.83,449.74 1317.69,452.546 1317.97,452.888 1320.57,456.932 1320.77,457.326 1322.13,461.096 1322.23,461.526 1322.82,466.296 1322.83,466.536 1322.83,492.128 1358.26,492.128 1358.26,462.702 1357.47,454.93 1353.27,442.246 1346.26,430.888 1336.83,421.454 1325.47,414.448 1312.79,410.246 1305.01,409.452 1263.78,409.452 1263.78,444.884" style="stroke:rgb(70,124,194);stroke-width:3.937008;fill:none;stroke-opacity:0.5;stroke-linecap:round;stroke-linejoin:round;;fill:none"/>
<polyline points="1263.78,444.884 1301.58,444.888 1301.82,444.902 1305.8,445.392 1306.19,445.48 1309.99,446.766 1310.39,446.954 1314.48,449.468 1314.83,449.74 1317.69,452.546 1317.97,452.888 1320.57,456.932 1320.77,457.326 1322.13,461.096 1322.23,461.526 1322.82,466.296 1322.83,466.536 1322.83,492.128 1358.26,492.128 1358.26,462.702 1357.47,454.93 1353.27,442.246 1346.26,430.888 1336.83,421.454 1325.47,414.448 1312.79,410.246 1305.01,409.452 1263.78,409.452 1263.78,444.884" style="stroke:rgb(0,0,0);stroke-width:1px;fill:none;stroke-opacity:1;stroke-linecap:round;stroke-linejoin:round;;fill:none"/>
<polyline points="1125.98,492.128 1125.98,462.702 1126.78,454.93 1130.98,442.248 1137.98,430.888 1147.42,421.454 1158.78,414.448 1171.46,410.246 1179.23,409.452 1220.47,409.452 1220.47,444.884 1182.67,444.888 1182.43,444.902 1178.45,445.392 1178.06,445.48 1174.26,446.766 1173.9,446.932 1170.44,448.96 1170.08,449.224 1166.58,452.518 1166.3,452.854 1164.06,456.182 1163.86,456.572 1162.13,461.06 1162.02,461.526 1161.43,466.296 1161.42,466.536 1161.42,492.128 1125.98,492.128" style="stroke:rgb(84,248,27);stroke-width:3.937008;fill:none;stroke-opacity:0.5;stroke-linecap:round;stroke-linejoin:round;;fill:none"/>
<polyline points="1125.98,492.128 1125.98,462.702 1126.78,454.93 1130.98,442.248 1137.98,430.888 1147.42,421.454 1158.78,414.448 1171.46,410.246 1179.23,409.452 1220.47,409.452 1220.47,444.884 1182.67,444.888 1182.43,444.902 1178.45,445.392 1178.06,445.48 1174.26,446.766 1173.9,446.932 1170.44,448.96 1170.08,449.224 1166.58,452.518 1166.3,452.854 1164.06,456.182 1163.86,456.572 1162.13,461.06 1162.02,461.526 1161.43,466.296 1161.42,466.536 1161.42,492.128 1125.98,492.128" style="stroke:rgb(0,0,0);stroke-width:1px;fill:none;stroke-opacity:1;stroke-linecap:round;stroke-linejoin:round;;fill:none"/>
</svg>
