<?xml version="1.0" standalone="no"?>
<!DOCTYPE svg PUBLIC "-//W3C//DTD SVG 1.1//EN"
"http://www.w3.org/Graphics/SVG/1.1/DTD/svg11.dtd">
<svg width="119.244" height="92.7874" viewBox="0 0 2484.25 1933.07" version="1.1"
xmlns="http://www.w3.org/2000/svg"
xmlns:xlink="http://www.w3.org/1999/xlink">
<polyline points="727.861,969.82 737.709,984.346 739.675,988.276 740.483,989.822 740.677,990.182 742.219,993.278 743.897,996.986 744.667,998.802 745.427,1000.72 745.839,1001.73 747.093,1004.66 747.139,1004.77 747.227,1004.92 749.649,1009.08 751.877,1012.49 752.505,1013.15 755.853,1016.6 758.279,1018.9 758.589,1019.11 760.593,1020.46 763.057,1021.98 765.849,1023.57 765.993,1023.65 769.733,1025 774.337,1026.4 774.735,1026.52 779.581,1027.08 821.175,1027.18 823.765,1027.11 824.165,1027.06 828.611,1026.5 828.937,1026.43 833.291,1025.12 837.063,1023.75 837.355,1023.64 840.687,1021.73 844.067,1019.57 845.073,1018.9 847.497,1016.6 850.847,1013.15 851.473,1012.49 853.491,1009.44 855.547,1005.99 856.239,1004.78 857.187,1002.2 858.439,998.386 858.759,997.364 859.651,994.376 860.511,991.798 860.999,990.482 861.747,988.288 862.345,986.376 864.135,981.558 872.369,979.1 877.871,978.002 885.735,977.216 977.361,977.188 983.041,977.594 988.541,978.386 999.975,981.624 1000.5,982.978 1002.48,988.288 1002.55,988.48 1003.15,990.044 1004.19,993.18 1005.09,996.25 1005.26,996.836 1006.45,1000.67 1007.71,1004.17 1007.94,1004.73 1009.21,1007.01 1010.93,1009.83 1012.71,1012.49 1015.27,1015.22 1018.15,1018.01 1019.11,1018.9 1021.12,1020.25 1023.84,1021.95 1026.36,1023.4 1026.82,1023.65 1028.59,1024.33 1031.31,1025.27 1034.39,1026.21 1035.56,1026.55 1037.64,1026.82 1040.41,1027.11 1040.84,1027.13 1042.91,1027.19 1082.1,1027.19 1084.16,1027.13 1084.59,1027.11 1087.36,1026.82 1089.45,1026.55 1091.02,1026.09 1094.84,1024.88 1098.19,1023.65 1098.33,1023.57 1101.12,1021.98 1103.59,1020.46 1105.59,1019.11 1105.86,1018.93 1108.32,1016.59 1111.66,1013.13 1114.1,1010.34 1114.93,1009.31 1115.03,1009.19 1118,1005.5 1118.22,1005.23 1120.93,1001.81 1123.2,999.136 1126.02,996.052 1127.72,994.254 1128.05,993.916 1131.71,989.912 1132.45,989.048 1136.29,984.822 1136.32,869.482 1132.96,866.062 1130.07,862.974 1126.85,859.278 1125.1,857.112 1122.69,854.32 1121.07,852.58 1119.2,850.44 1115.78,846.284 1115.54,845.99 1112.75,842.526 1109.4,838.872 1105.93,835.532 1105.77,835.372 1102.15,832.992 1098.68,830.972 1098.18,830.686 1094.44,829.334 1089.84,827.93 1089.44,827.812 1084.59,827.252 1043,827.15 1040.41,827.23 1036.45,827.682 1035.56,827.792 1032.04,828.85 1027.5,830.446 1026.82,830.69 1023.5,832.598 1020.12,834.762 1019.11,835.434 1016.96,837.442 1014.14,840.294 1012.7,841.838 1011.36,843.884 1008.85,847.99 1007.94,849.552 1006.99,852.134 1005.74,855.948 1005.42,856.972 1004.53,859.95 1003.67,862.54 1003.18,863.842 1002.43,866.044 1001.83,867.962 1000.04,872.778 991.809,875.234 986.307,876.332 979.513,877.104 978.455,877.134 977.373,877.148 886.803,877.148 881.137,876.74 875.635,875.95 864.203,872.71 863.679,871.362 861.695,866.044 861.625,865.86 861.031,864.288 859.983,861.154 859.089,858.084 859.037,857.91 858.123,854.828 856.895,851.3 856.217,849.616 855.167,847.678 853.247,844.502 851.469,841.85 851.457,841.834 848.911,839.124 846.031,836.33 845.073,835.432 843.403,834.302 841.373,833.002 838.875,831.53 837.347,830.702 835.973,830.154 832.863,829.06 829.789,828.124 828.621,827.786 826.535,827.514 823.765,827.226 823.337,827.204 821.269,827.15 782.079,827.15 779.605,827.228 779.585,827.23 775.619,827.682 774.731,827.792 771.993,828.584 768.939,829.586 765.993,830.686 765.849,830.768 763.057,832.356 760.603,833.872 758.599,835.216 758.277,835.434 755.853,837.732 752.505,841.186 751.879,841.848 750.075,844.542 748.399,847.284 747.113,849.556 747.069,849.67 747.009,849.826 746.085,852.052 744.805,854.888 744.525,855.52 742.577,860.036 740.685,864.426 735.719,873.466 732.047,878.966 727.885,884.642 727.861,969.82" style="stroke:rgb(103,198,105);stroke-width:3.937008;fill:none;stroke-opacity:0.5;stroke-linecap:round;stroke-linejoin:round;;fill:none"/>
<polyline points="727.861,969.82 737.709,984.346 739.675,988.276 740.483,989.822 740.677,990.182 742.219,993.278 743.897,996.986 744.667,998.802 745.427,1000.72 745.839,1001.73 747.093,1004.66 747.139,1004.77 747.227,1004.92 749.649,1009.08 751.877,1012.49 752.505,1013.15 755.853,1016.6 758.279,1018.9 758.589,1019.11 760.593,1020.46 763.057,1021.98 765.849,1023.57 765.993,1023.65 769.733,1025 774.337,1026.4 774.735,1026.52 779.581,1027.08 821.175,1027.18 823.765,1027.11 824.165,1027.06 828.611,1026.5 828.937,1026.43 833.291,1025.12 837.063,1023.75 837.355,1023.64 840.687,1021.73 844.067,1019.57 845.073,1018.9 847.497,1016.6 850.847,1013.15 851.473,1012.49 853.491,1009.44 855.547,1005.99 856.239,1004.78 857.187,1002.2 858.439,998.386 858.759,997.364 859.651,994.376 860.511,991.798 860.999,990.482 861.747,988.288 862.345,986.376 864.135,981.558 872.369,979.1 877.871,978.002 885.735,977.216 977.361,977.188 983.041,977.594 988.541,978.386 999.975,981.624 1000.5,982.978 1002.48,988.288 1002.55,988.48 1003.15,990.044 1004.19,993.18 1005.09,996.25 1005.26,996.836 1006.45,1000.67 1007.71,1004.17 1007.94,1004.73 1009.21,1007.01 1010.93,1009.83 1012.71,1012.49 1015.27,1015.22 1018.15,1018.01 1019.11,1018.9 1021.12,1020.25 1023.84,1021.95 1026.36,1023.4 1026.82,1023.65 1028.59,1024.33 1031.31,1025.27 1034.39,1026.21 1035.56,1026.55 1037.64,1026.82 1040.41,1027.11 1040.84,1027.13 1042.91,1027.19 1082.1,1027.19 1084.16,1027.13 1084.59,1027.11 1087.36,1026.82 1089.45,1026.55 1091.02,1026.09 1094.84,1024.88 1098.19,1023.65 1098.33,1023.57 1101.12,1021.98 1103.59,1020.46 1105.59,1019.11 1105.86,1018.93 1108.32,1016.59 1111.66,1013.13 1114.1,1010.34 1114.93,1009.31 1115.03,1009.19 1118,1005.5 1118.22,1005.23 1120.93,1001.81 1123.2,999.136 1126.02,996.052 1127.72,994.254 1128.05,993.916 1131.71,989.912 1132.45,989.048 1136.29,984.822 1136.32,869.482 1132.96,866.062 1130.07,862.974 1126.85,859.278 1125.1,857.112 1122.69,854.32 1121.07,852.58 1119.2,850.44 1115.78,846.284 1115.54,845.99 1112.75,842.526 1109.4,838.872 1105.93,835.532 1105.77,835.372 1102.15,832.992 1098.68,830.972 1098.18,830.686 1094.44,829.334 1089.84,827.93 1089.44,827.812 1084.59,827.252 1043,827.15 1040.41,827.23 1036.45,827.682 1035.56,827.792 1032.04,828.85 1027.5,830.446 1026.82,830.69 1023.5,832.598 1020.12,834.762 1019.11,835.434 1016.96,837.442 1014.14,840.294 1012.7,841.838 1011.36,843.884 1008.85,847.99 1007.94,849.552 1006.99,852.134 1005.74,855.948 1005.42,856.972 1004.53,859.95 1003.67,862.54 1003.18,863.842 1002.43,866.044 1001.83,867.962 1000.04,872.778 991.809,875.234 986.307,876.332 979.513,877.104 978.455,877.134 977.373,877.148 886.803,877.148 881.137,876.74 875.635,875.95 864.203,872.71 863.679,871.362 861.695,866.044 861.625,865.86 861.031,864.288 859.983,861.154 859.089,858.084 859.037,857.91 858.123,854.828 856.895,851.3 856.217,849.616 855.167,847.678 853.247,844.502 851.469,841.85 851.457,841.834 848.911,839.124 846.031,836.33 845.073,835.432 843.403,834.302 841.373,833.002 838.875,831.53 837.347,830.702 835.973,830.154 832.863,829.06 829.789,828.124 828.621,827.786 826.535,827.514 823.765,827.226 823.337,827.204 821.269,827.15 782.079,827.15 779.605,827.228 779.585,827.23 775.619,827.682 774.731,827.792 771.993,828.584 768.939,829.586 765.993,830.686 765.849,830.768 763.057,832.356 760.603,833.872 758.599,835.216 758.277,835.434 755.853,837.732 752.505,841.186 751.879,841.848 750.075,844.542 748.399,847.284 747.113,849.556 747.069,849.67 747.009,849.826 746.085,852.052 744.805,854.888 744.525,855.52 742.577,860.036 740.685,864.426 735.719,873.466 732.047,878.966 727.885,884.642 727.861,969.82" style="stroke:rgb(0,0,0);stroke-width:1px;fill:none;stroke-opacity:1;stroke-linecap:round;stroke-linejoin:round;;fill:none"/>
<polyline points="1136.29,984.822 1139.71,988.288 1141.49,990.2 1143.54,992.486 1146.61,996.056 1147.56,997.184 1148.92,998.85 1151.54,1001.82 1151.79,1002.08 1154.05,1004.64 1156.03,1007.04 1157.07,1008.36 1157.53,1008.96 1159.67,1011.56 1162.35,1014.55 1165.57,1017.75 1166.9,1018.93 1169.41,1020.65 1173.67,1023.19 1174.48,1023.61 1178.14,1024.98 1182.48,1026.33 1183.2,1026.51 1186.44,1026.95 1188.05,1027.13 1189.78,1027.17 1227.21,1027.14 1231.37,1027.35 1232.19,1027.44 1235.2,1027.64 1237.11,1027.7 1237.88,1027.73 1243.9,1032.05 1246,1033.87 1248.08,1035.79 1255.33,1043.02 1257.08,1044.66 1257.48,1044.95 1260.83,1047.31 1262.84,1048.63 1265.25,1050.11 1265.66,1050.31 1267.86,1051.3 1271.65,1052.87 1273.9,1053.73 1274.33,1053.87 1277.09,1054.53 1280.23,1055.14 1283.97,1055.72 1286.75,1055.87 1288.88,1055.93 1650.04,1055.93 1655.71,1056.33 1661.21,1057.13 1663.27,1057.47 1663.95,1058.04 1665.37,1059.22 1669.19,1062.87 1669.32,1063.01 1670.52,1064.25 1674.85,1068.57 1676.16,1069.82 1678.3,1071.76 1680.84,1073.77 1682.28,1074.85 1687.26,1078.42 1688.67,1079.39 1689.42,1079.87 1693.42,1082.06 1694.93,1082.84 1700.43,1085.54 1701.54,1086.07 1702.66,1086.45 1712.34,1089.63 1714.49,1090.27 1715.27,1090.41 1725.33,1092.06 1727.63,1092.36 1727.94,1092.4 1733.07,1092.53 1734.13,1092.54 1761.83,1092.5 1763.68,1092.45 1765.17,1092.38 1769.77,1091.79 1771.55,1091.53 1777.58,1090.47 1778.62,1090.28 1779.44,1090.03 1785.94,1088.03 1787.75,1087.42 1791.56,1086.04 1793.45,1085.18 1795.16,1084.35 1801.21,1081.25 1802.89,1080.33 1803.69,1079.87 1807.98,1076.93 1809.45,1075.87 1814.33,1072.18 1814.72,1071.89 1815.68,1070.98 1820.07,1066.71 1821.41,1065.35 1824.32,1062.23 1825.9,1060.24 1827.05,1058.73 1830.63,1053.76 1831.71,1052.17 1832.33,1051.23 1835.04,1046.24 1835.9,1044.55 1838.52,1039.11 1838.55,1039.03 1839.17,1037.33 1841.13,1031.52 1841.66,1029.8 1842.71,1026.16 1843.17,1023.86 1843.51,1021.99 1844.54,1015.27 1844.78,1013.36 1844.85,1012.71 1844.99,1007.25 1844.99,1005.45 1844.87,999.328 1844.86,999.1 1844.65,997.42 1843.65,990.69 1843.31,988.722 1842.7,985.662 1841.69,982.118 1841.13,980.294 1839.17,974.49 1838.55,972.784 1838.52,972.706 1835.9,967.264 1835.03,965.574 1832.33,960.586 1831.71,959.638 1830.63,958.056 1827.05,953.088 1825.96,951.652 1824.32,949.578 1821.95,947.028 1820.7,945.736 1816.33,941.446 1814.93,940.132 1814.47,939.724 1810.42,935.556 1810.14,935.222 1808.77,933.674 1806.63,931.36 1804.54,928.948 1803.1,927.174 1799.13,921.568 1797.44,918.864 1797.41,918.812 1793.82,913.038 1793.01,911.712 1792.22,910.39 1790.15,910.054 1784.03,909.158 1781,908.784 1774.88,908.174 1771.94,907.948 1765.82,907.618 1762.59,907.526 1734.89,907.452 1733.3,907.468 1727.18,907.606 1723.31,907.812 1713.11,908.664 1708.07,909.28 1701.08,910.406 1698.91,914.05 1696.47,917.922 1695.9,918.82 1694.67,920.696 1692.49,923.828 1691.06,925.746 1689.91,927.244 1687.46,930.284 1687.43,930.32 1686.19,931.87 1682.67,935.74 1681.93,936.456 1680.68,937.724 1680.62,937.788 1678.66,939.734 1676.19,942.018 1674.89,943.274 1670.92,947.296 1670.58,947.63 1669.36,948.836 1666.72,951.228 1665.22,952.474 1663.82,953.688 1663.21,954.236 1662.23,954.486 1654.25,955.718 1652.16,955.83 1650.04,955.888 1321.81,955.888 1316.14,955.48 1310.64,954.69 1310.13,954.614 1304.05,950.1 1302.5,948.704 1300.97,947.258 1276.86,923.15 1273.14,918.854 1269.81,914.406 1269.5,913.98 1268.39,906.522 1268.28,904.434 1268.22,902.314 1268.2,864.416 1268.18,863.146 1267.96,861.138 1267.57,858.298 1267.49,857.96 1266.42,854.398 1265.09,850.612 1264.7,849.552 1263.2,846.93 1261.07,843.53 1259.95,841.838 1258.79,840.586 1256.55,838.28 1254.15,836 1253.52,835.452 1251.55,834.104 1248.76,832.356 1245.97,830.766 1245.82,830.686 1242.88,829.588 1239.83,828.586 1237.08,827.792 1237.03,827.784 1234.63,827.462 1232.23,827.21 1231.29,827.2 1188.1,827.252 1188.05,827.252 1184.03,827.672 1183.2,827.802 1181.68,828.214 1178.91,829.074 1175.88,830.14 1174.45,830.674 1172.89,831.56 1170.13,833.206 1167.37,835.016 1166.8,835.426 1164.94,837.124 1162.88,839.15 1161.22,840.9 1159.3,843.09 1158.56,844.008 1157.6,845.14 1157.22,845.568 1155.03,848.296 1154.42,849.112 1153.02,850.916 1150.82,853.592 1149.07,855.606 1145.73,859.27 1144.93,860.13 1142.27,862.942 1140.19,865.238 1139.48,866.044 1136.32,869.482 1136.29,984.822" style="stroke:rgb(115,81,255);stroke-width:3.937008;fill:none;stroke-opacity:0.5;stroke-linecap:round;stroke-linejoin:round;;fill:none"/>
<polyline points="1136.29,984.822 1139.71,988.288 1141.49,990.2 1143.54,992.486 1146.61,996.056 1147.56,997.184 1148.92,998.85 1151.54,1001.82 1151.79,1002.08 1154.05,1004.64 1156.03,1007.04 1157.07,1008.36 1157.53,1008.96 1159.67,1011.56 1162.35,1014.55 1165.57,1017.75 1166.9,1018.93 1169.41,1020.65 1173.67,1023.19 1174.48,1023.61 1178.14,1024.98 1182.48,1026.33 1183.2,1026.51 1186.44,1026.95 1188.05,1027.13 1189.78,1027.17 1227.21,1027.14 1231.37,1027.35 1232.19,1027.44 1235.2,1027.64 1237.11,1027.7 1237.88,1027.73 1243.9,1032.05 1246,1033.87 1248.08,1035.79 1255.33,1043.02 1257.08,1044.66 1257.48,1044.95 1260.83,1047.31 1262.84,1048.63 1265.25,1050.11 1265.66,1050.31 1267.86,1051.3 1271.65,1052.87 1273.9,1053.73 1274.33,1053.87 1277.09,1054.53 1280.23,1055.14 1283.97,1055.72 1286.75,1055.87 1288.88,1055.93 1650.04,1055.93 1655.71,1056.33 1661.21,1057.13 1663.27,1057.47 1663.95,1058.04 1665.37,1059.22 1669.19,1062.87 1669.32,1063.01 1670.52,1064.25 1674.85,1068.57 1676.16,1069.82 1678.3,1071.76 1680.84,1073.77 1682.28,1074.85 1687.26,1078.42 1688.67,1079.39 1689.42,1079.87 1693.42,1082.06 1694.93,1082.84 1700.43,1085.54 1701.54,1086.07 1702.66,1086.45 1712.34,1089.63 1714.49,1090.27 1715.27,1090.41 1725.33,1092.06 1727.63,1092.36 1727.94,1092.4 1733.07,1092.53 1734.13,1092.54 1761.83,1092.5 1763.68,1092.45 1765.17,1092.38 1769.77,1091.79 1771.55,1091.53 1777.58,1090.47 1778.62,1090.28 1779.44,1090.03 1785.94,1088.03 1787.75,1087.42 1791.56,1086.04 1793.45,1085.18 1795.16,1084.35 1801.21,1081.25 1802.89,1080.33 1803.69,1079.87 1807.98,1076.93 1809.45,1075.87 1814.33,1072.18 1814.72,1071.89 1815.68,1070.98 1820.07,1066.71 1821.41,1065.35 1824.32,1062.23 1825.9,1060.24 1827.05,1058.73 1830.63,1053.76 1831.71,1052.17 1832.33,1051.23 1835.04,1046.24 1835.9,1044.55 1838.52,1039.11 1838.55,1039.03 1839.17,1037.33 1841.13,1031.52 1841.66,1029.8 1842.71,1026.16 1843.17,1023.86 1843.51,1021.99 1844.54,1015.27 1844.78,1013.36 1844.85,1012.71 1844.99,1007.25 1844.99,1005.45 1844.87,999.328 1844.86,999.1 1844.65,997.42 1843.65,990.69 1843.31,988.722 1842.7,985.662 1841.69,982.118 1841.13,980.294 1839.17,974.49 1838.55,972.784 1838.52,972.706 1835.9,967.264 1835.03,965.574 1832.33,960.586 1831.71,959.638 1830.63,958.056 1827.05,953.088 1825.96,951.652 1824.32,949.578 1821.95,947.028 1820.7,945.736 1816.33,941.446 1814.93,940.132 1814.47,939.724 1810.42,935.556 1810.14,935.222 1808.77,933.674 1806.63,931.36 1804.54,928.948 1803.1,927.174 1799.13,921.568 1797.44,918.864 1797.41,918.812 1793.82,913.038 1793.01,911.712 1792.22,910.39 1790.15,910.054 1784.03,909.158 1781,908.784 1774.88,908.174 1771.94,907.948 1765.82,907.618 1762.59,907.526 1734.89,907.452 1733.3,907.468 1727.18,907.606 1723.31,907.812 1713.11,908.664 1708.07,909.28 1701.08,910.406 1698.91,914.05 1696.47,917.922 1695.9,918.82 1694.67,920.696 1692.49,923.828 1691.06,925.746 1689.91,927.244 1687.46,930.284 1687.43,930.32 1686.19,931.87 1682.67,935.74 1681.93,936.456 1680.68,937.724 1680.62,937.788 1678.66,939.734 1676.19,942.018 1674.89,943.274 1670.92,947.296 1670.58,947.63 1669.36,948.836 1666.72,951.228 1665.22,952.474 1663.82,953.688 1663.21,954.236 1662.23,954.486 1654.25,955.718 1652.16,955.83 1650.04,955.888 1321.81,955.888 1316.14,955.48 1310.64,954.69 1310.13,954.614 1304.05,950.1 1302.5,948.704 1300.97,947.258 1276.86,923.15 1273.14,918.854 1269.81,914.406 1269.5,913.98 1268.39,906.522 1268.28,904.434 1268.22,902.314 1268.2,864.416 1268.18,863.146 1267.96,861.138 1267.57,858.298 1267.49,857.96 1266.42,854.398 1265.09,850.612 1264.7,849.552 1263.2,846.93 1261.07,843.53 1259.95,841.838 1258.79,840.586 1256.55,838.28 1254.15,836 1253.52,835.452 1251.55,834.104 1248.76,832.356 1245.97,830.766 1245.82,830.686 1242.88,829.588 1239.83,828.586 1237.08,827.792 1237.03,827.784 1234.63,827.462 1232.23,827.21 1231.29,827.2 1188.1,827.252 1188.05,827.252 1184.03,827.672 1183.2,827.802 1181.68,828.214 1178.91,829.074 1175.88,830.14 1174.45,830.674 1172.89,831.56 1170.13,833.206 1167.37,835.016 1166.8,835.426 1164.94,837.124 1162.88,839.15 1161.22,840.9 1159.3,843.09 1158.56,844.008 1157.6,845.14 1157.22,845.568 1155.03,848.296 1154.42,849.112 1153.02,850.916 1150.82,853.592 1149.07,855.606 1145.73,859.27 1144.93,860.13 1142.27,862.942 1140.19,865.238 1139.48,866.044 1136.32,869.482 1136.29,984.822" style="stroke:rgb(0,0,0);stroke-width:1px;fill:none;stroke-opacity:1;stroke-linecap:round;stroke-linejoin:round;;fill:none"/>
<polyline points="371.803,436.79 371.829,434.872 371.995,430.382 372.399,426.892 372.665,425 374.103,416.318 374.483,414.334 374.581,413.88 376.993,405.898 377.621,404 379.771,398.002 380.769,395.782 381.597,394.054 385.229,386.924 386.143,385.234 387.353,383.12 390.941,377.856 392.055,376.304 396.877,369.92 397.135,369.58 398.165,368.486 404.317,362.192 405.749,360.798 408.985,357.806 412.439,355.082 414.051,353.878 421.231,348.788 422.467,347.944 422.923,347.698 430.699,343.578 432.409,342.722 437.371,340.394 439.735,339.504 441.461,338.898 449.069,336.426 450.905,335.878 453.259,335.238 459.513,334.054 461.473,333.734 469.749,332.6 470.217,332.572 472.139,332.508 480.139,332.434 481.961,332.458 486.455,332.624 489.939,333.028 491.841,333.296 500.523,334.734 502.499,335.112 502.957,335.212 510.935,337.622 512.755,338.22 518.841,340.386 520.251,341.016 521.987,341.844 529.837,345.82 531.603,346.774 533.715,347.982 538.981,351.572 540.533,352.686 546.917,357.506 547.257,357.766 548.347,358.792 554.641,364.942 556.045,366.384 559.033,369.616 561.759,373.076 562.959,374.68 568.049,381.858 568.893,383.098 569.137,383.552 573.259,391.328 574.117,393.046 576.443,398 577.335,400.37 577.965,402.174 580.667,410.55 581.213,412.398 581.613,413.884 582.801,420.238 583.107,422.122 584.239,430.38 584.265,430.846 584.331,432.768 584.405,440.77 584.375,442.684 584.203,447.084 583.685,451.456 583.399,453.44 581.923,462.116 581.643,463.592 581.519,464.002 579.189,471.656 578.587,473.468 576.437,479.466 575.439,481.686 574.611,483.414 570.979,490.544 570.065,492.234 568.855,494.348 565.267,499.612 564.153,501.164 559.331,507.548 559.073,507.888 558.043,508.982 551.891,515.276 550.459,516.67 547.223,519.662 543.769,522.386 542.157,523.59 534.977,528.68 533.739,529.524 533.283,529.768 525.509,533.89 523.797,534.746 518.837,537.074 516.471,537.966 514.747,538.57 507.139,541.042 505.303,541.59 502.951,542.23 496.695,543.414 494.715,543.736 486.457,544.868 485.991,544.896 484.069,544.96 476.069,545.034 474.155,545.006 469.753,544.832 465.381,544.316 463.393,544.028 454.719,542.552 453.247,542.272 452.843,542.152 445.187,539.82 443.365,539.216 437.373,537.068 435.149,536.068 433.341,535.198 425.511,531.186 423.821,530.268 422.481,529.498 421.681,528.95 417.151,525.846 415.673,524.782 409.289,519.96 408.951,519.702 407.857,518.674 401.563,512.524 400.163,511.084 397.175,507.852 394.449,504.392 393.249,502.788 388.159,495.61 387.315,494.37 387.071,493.916 382.949,486.14 382.093,484.426 379.765,479.468 378.873,477.102 378.269,475.378 375.797,467.77 375.249,465.932 374.609,463.582 373.423,457.322 373.113,455.434 372.007,447.51 371.951,447.088 371.905,445.59 371.803,436.79" style="stroke:rgb(74,236,41);stroke-width:3.937008;fill:none;stroke-opacity:0.5;stroke-linecap:round;stroke-linejoin:round;;fill:none"/>
<polyline points="371.803,436.79 371.829,434.872 371.995,430.382 372.399,426.892 372.665,425 374.103,416.318 374.483,414.334 374.581,413.88 376.993,405.898 377.621,404 379.771,398.002 380.769,395.782 381.597,394.054 385.229,386.924 386.143,385.234 387.353,383.12 390.941,377.856 392.055,376.304 396.877,369.92 397.135,369.58 398.165,368.486 404.317,362.192 405.749,360.798 408.985,357.806 412.439,355.082 414.051,353.878 421.231,348.788 422.467,347.944 422.923,347.698 430.699,343.578 432.409,342.722 437.371,340.394 439.735,339.504 441.461,338.898 449.069,336.426 450.905,335.878 453.259,335.238 459.513,334.054 461.473,333.734 469.749,332.6 470.217,332.572 472.139,332.508 480.139,332.434 481.961,332.458 486.455,332.624 489.939,333.028 491.841,333.296 500.523,334.734 502.499,335.112 502.957,335.212 510.935,337.622 512.755,338.22 518.841,340.386 520.251,341.016 521.987,341.844 529.837,345.82 531.603,346.774 533.715,347.982 538.981,351.572 540.533,352.686 546.917,357.506 547.257,357.766 548.347,358.792 554.641,364.942 556.045,366.384 559.033,369.616 561.759,373.076 562.959,374.68 568.049,381.858 568.893,383.098 569.137,383.552 573.259,391.328 574.117,393.046 576.443,398 577.335,400.37 577.965,402.174 580.667,410.55 581.213,412.398 581.613,413.884 582.801,420.238 583.107,422.122 584.239,430.38 584.265,430.846 584.331,432.768 584.405,440.77 584.375,442.684 584.203,447.084 583.685,451.456 583.399,453.44 581.923,462.116 581.643,463.592 581.519,464.002 579.189,471.656 578.587,473.468 576.437,479.466 575.439,481.686 574.611,483.414 570.979,490.544 570.065,492.234 568.855,494.348 565.267,499.612 564.153,501.164 559.331,507.548 559.073,507.888 558.043,508.982 551.891,515.276 550.459,516.67 547.223,519.662 543.769,522.386 542.157,523.59 534.977,528.68 533.739,529.524 533.283,529.768 525.509,533.89 523.797,534.746 518.837,537.074 516.471,537.966 514.747,538.57 507.139,541.042 505.303,541.59 502.951,542.23 496.695,543.414 494.715,543.736 486.457,544.868 485.991,544.896 484.069,544.96 476.069,545.034 474.155,545.006 469.753,544.832 465.381,544.316 463.393,544.028 454.719,542.552 453.247,542.272 452.843,542.152 445.187,539.82 443.365,539.216 437.373,537.068 435.149,536.068 433.341,535.198 425.511,531.186 423.821,530.268 422.481,529.498 421.681,528.95 417.151,525.846 415.673,524.782 409.289,519.96 408.951,519.702 407.857,518.674 401.563,512.524 400.163,511.084 397.175,507.852 394.449,504.392 393.249,502.788 388.159,495.61 387.315,494.37 387.071,493.916 382.949,486.14 382.093,484.426 379.765,479.468 378.873,477.102 378.269,475.378 375.797,467.77 375.249,465.932 374.609,463.582 373.423,457.322 373.113,455.434 372.007,447.51 371.951,447.088 371.905,445.59 371.803,436.79" style="stroke:rgb(0,0,0);stroke-width:1px;fill:none;stroke-opacity:1;stroke-linecap:round;stroke-linejoin:round;;fill:none"/>
<polyline points="1926.93,1495.11 1926.97,1493.1 1927.12,1489.68 1927.78,1484.34 1928.06,1482.44 1929.42,1474.56 1929.68,1473.18 1929.83,1472.68 1932.42,1464.27 1933.05,1462.37 1934.9,1457.3 1936.31,1454.19 1937.15,1452.47 1940.81,1445.36 1941.74,1443.67 1942.46,1442.41 1946.63,1436.36 1947.75,1434.81 1952.27,1428.89 1952.64,1428.47 1953.96,1427.07 1960.14,1420.81 1961.58,1419.41 1964.1,1417.1 1968.35,1413.79 1969.96,1412.59 1977.16,1407.54 1977.59,1407.24 1978.82,1406.57 1985.9,1402.84 1987.61,1401.98 1992.49,1399.71 1995.7,1398.51 1997.51,1397.88 2005.13,1395.44 2006.97,1394.9 2008.37,1394.53 2015.6,1393.19 2017.49,1392.89 2024.87,1391.9 2025.43,1391.87 2027.35,1391.81 2036.15,1391.74 2038.15,1391.78 2041.57,1391.93 2046.92,1392.59 2048.81,1392.87 2056.7,1394.23 2058.08,1394.49 2058.49,1394.62 2066.14,1396.95 2067.96,1397.55 2073.95,1399.7 2076.17,1400.7 2077.91,1401.53 2085.04,1405.16 2086.72,1406.07 2088.84,1407.28 2094.1,1410.87 2095.72,1412.04 2102.36,1417.08 2102.71,1417.39 2104.18,1418.77 2110.45,1424.95 2111.78,1426.32 2114.16,1428.91 2116.93,1432.44 2118.08,1433.98 2123.17,1441.16 2124.01,1442.4 2124.26,1442.85 2128.38,1450.63 2129.27,1452.42 2131.55,1457.3 2132.75,1460.51 2133.38,1462.32 2135.81,1469.94 2136.36,1471.78 2136.73,1473.18 2138.06,1480.42 2138.36,1482.3 2139.36,1489.68 2139.39,1490.24 2139.45,1492.16 2139.51,1500.96 2139.48,1502.88 2139.33,1506.38 2138.79,1510.85 2138.52,1512.74 2137.04,1521.41 2136.76,1522.89 2136.61,1523.39 2134.03,1531.8 2133.39,1533.7 2131.55,1538.76 2130.13,1541.87 2129.3,1543.6 2125.63,1550.71 2124.71,1552.4 2123.98,1553.65 2119.82,1559.71 2118.7,1561.25 2114.18,1567.18 2113.81,1567.59 2112.49,1569 2106.31,1575.26 2104.86,1576.66 2102.34,1578.96 2098.1,1582.28 2096.49,1583.47 2089.29,1588.53 2088.86,1588.82 2087.62,1589.5 2080.55,1593.23 2078.83,1594.08 2073.95,1596.36 2070.75,1597.56 2068.94,1598.19 2061.32,1600.62 2059.47,1601.16 2058.07,1601.54 2050.84,1602.87 2048.96,1603.17 2041.58,1604.17 2041.02,1604.2 2039.1,1604.26 2030.3,1604.32 2028.29,1604.28 2024.87,1604.13 2019.53,1603.48 2017.63,1603.2 2009.75,1601.84 2008.37,1601.57 2007.96,1601.45 2000.3,1599.12 1998.49,1598.52 1992.49,1596.37 1990.27,1595.37 1988.46,1594.5 1980.63,1590.48 1978.86,1589.52 1977.6,1588.79 1976.8,1588.24 1971.55,1584.62 1970,1583.5 1964.08,1578.99 1963.66,1578.62 1962.26,1577.3 1956,1571.12 1954.67,1569.74 1952.29,1567.16 1949.52,1563.63 1948.37,1562.09 1943.28,1554.91 1942.43,1553.67 1942.23,1553.3 1938.47,1546.24 1937.61,1544.52 1934.89,1538.77 1934.02,1536.49 1933.36,1534.59 1930.66,1526.22 1930.09,1524.28 1929.72,1522.88 1928.38,1515.65 1928.08,1513.77 1927.09,1506.39 1927.06,1505.83 1926.99,1503.91 1926.93,1495.11" style="stroke:rgb(205,186,171);stroke-width:3.937008;fill:none;stroke-opacity:0.5;stroke-linecap:round;stroke-linejoin:round;;fill:none"/>
<polyline points="1926.93,1495.11 1926.97,1493.1 1927.12,1489.68 1927.78,1484.34 1928.06,1482.44 1929.42,1474.56 1929.68,1473.18 1929.83,1472.68 1932.42,1464.27 1933.05,1462.37 1934.9,1457.3 1936.31,1454.19 1937.15,1452.47 1940.81,1445.36 1941.74,1443.67 1942.46,1442.41 1946.63,1436.36 1947.75,1434.81 1952.27,1428.89 1952.64,1428.47 1953.96,1427.07 1960.14,1420.81 1961.58,1419.41 1964.1,1417.1 1968.35,1413.79 1969.96,1412.59 1977.16,1407.54 1977.59,1407.24 1978.82,1406.57 1985.9,1402.84 1987.61,1401.98 1992.49,1399.71 1995.7,1398.51 1997.51,1397.88 2005.13,1395.44 2006.97,1394.9 2008.37,1394.53 2015.6,1393.19 2017.49,1392.89 2024.87,1391.9 2025.43,1391.87 2027.35,1391.81 2036.15,1391.74 2038.15,1391.78 2041.57,1391.93 2046.92,1392.59 2048.81,1392.87 2056.7,1394.23 2058.08,1394.49 2058.49,1394.62 2066.14,1396.95 2067.96,1397.55 2073.95,1399.7 2076.17,1400.7 2077.91,1401.53 2085.04,1405.16 2086.72,1406.07 2088.84,1407.28 2094.1,1410.87 2095.72,1412.04 2102.36,1417.08 2102.71,1417.39 2104.18,1418.77 2110.45,1424.95 2111.78,1426.32 2114.16,1428.91 2116.93,1432.44 2118.08,1433.98 2123.17,1441.16 2124.01,1442.4 2124.26,1442.85 2128.38,1450.63 2129.27,1452.42 2131.55,1457.3 2132.75,1460.51 2133.38,1462.32 2135.81,1469.94 2136.36,1471.78 2136.73,1473.18 2138.06,1480.42 2138.36,1482.3 2139.36,1489.68 2139.39,1490.24 2139.45,1492.16 2139.51,1500.96 2139.48,1502.88 2139.33,1506.38 2138.79,1510.85 2138.52,1512.74 2137.04,1521.41 2136.76,1522.89 2136.61,1523.39 2134.03,1531.8 2133.39,1533.7 2131.55,1538.76 2130.13,1541.87 2129.3,1543.6 2125.63,1550.71 2124.71,1552.4 2123.98,1553.65 2119.82,1559.71 2118.7,1561.25 2114.18,1567.18 2113.81,1567.59 2112.49,1569 2106.31,1575.26 2104.86,1576.66 2102.34,1578.96 2098.1,1582.28 2096.49,1583.47 2089.29,1588.53 2088.86,1588.82 2087.62,1589.5 2080.55,1593.23 2078.83,1594.08 2073.95,1596.36 2070.75,1597.56 2068.94,1598.19 2061.32,1600.62 2059.47,1601.16 2058.07,1601.54 2050.84,1602.87 2048.96,1603.17 2041.58,1604.17 2041.02,1604.2 2039.1,1604.26 2030.3,1604.32 2028.29,1604.28 2024.87,1604.13 2019.53,1603.48 2017.63,1603.2 2009.75,1601.84 2008.37,1601.57 2007.96,1601.45 2000.3,1599.12 1998.49,1598.52 1992.49,1596.37 1990.27,1595.37 1988.46,1594.5 1980.63,1590.48 1978.86,1589.52 1977.6,1588.79 1976.8,1588.24 1971.55,1584.62 1970,1583.5 1964.08,1578.99 1963.66,1578.62 1962.26,1577.3 1956,1571.12 1954.67,1569.74 1952.29,1567.16 1949.52,1563.63 1948.37,1562.09 1943.28,1554.91 1942.43,1553.67 1942.23,1553.3 1938.47,1546.24 1937.61,1544.52 1934.89,1538.77 1934.02,1536.49 1933.36,1534.59 1930.66,1526.22 1930.09,1524.28 1929.72,1522.88 1928.38,1515.65 1928.08,1513.77 1927.09,1506.39 1927.06,1505.83 1926.99,1503.91 1926.93,1495.11" style="stroke:rgb(0,0,0);stroke-width:1px;fill:none;stroke-opacity:1;stroke-linecap:round;stroke-linejoin:round;;fill:none"/>
<polyline points="159.449,1773.62 2324.8,1773.62 2324.8,159.45 159.449,159.45 159.449,1773.62" style="stroke:rgb(242,251,227);stroke-width:3.937008;fill:none;stroke-opacity:0.5;stroke-linecap:round;stroke-linejoin:round;;fill:none"/>
<polyline points="159.449,1773.62 2324.8,1773.62 2324.8,159.45 159.449,159.45 159.449,1773.62" style="stroke:rgb(0,0,0);stroke-width:1px;fill:none;stroke-opacity:1;stroke-linecap:round;stroke-linejoin:round;;fill:none"/>
<polyline points="371.803,436.79 371.829,434.872 371.995,430.382 372.399,426.892 372.665,425 374.103,416.318 374.483,414.334 374.581,413.88 376.993,405.898 377.621,404 379.771,398.002 380.769,395.782 381.597,394.054 385.229,386.924 386.143,385.234 387.353,383.12 390.941,377.856 392.055,376.304 396.877,369.92 397.135,369.58 398.165,368.486 404.317,362.192 405.749,360.798 408.985,357.806 412.439,355.082 414.051,353.878 421.231,348.788 422.467,347.944 422.923,347.698 430.699,343.578 432.409,342.722 437.371,340.394 439.735,339.504 441.461,338.898 449.069,336.426 450.905,335.878 453.259,335.238 459.513,334.054 461.473,333.734 469.749,332.6 470.217,332.572 472.139,332.508 480.139,332.434 481.961,332.458 486.455,332.624 489.939,333.028 491.841,333.296 500.523,334.734 502.499,335.112 502.957,335.212 510.935,337.622 512.755,338.22 518.841,340.386 520.251,341.016 521.987,341.844 529.837,345.82 531.603,346.774 533.715,347.982 538.981,351.572 540.533,352.686 546.917,357.506 547.257,357.766 548.347,358.792 554.641,364.942 556.045,366.384 559.033,369.616 561.759,373.076 562.959,374.68 568.049,381.858 568.893,383.098 569.137,383.552 573.259,391.328 574.117,393.046 576.443,398 577.335,400.37 577.965,402.174 580.667,410.55 581.213,412.398 581.613,413.884 582.801,420.238 583.107,422.122 584.239,430.38 584.265,430.846 584.331,432.768 584.405,440.77 584.375,442.684 584.203,447.084 583.685,451.456 583.399,453.44 581.923,462.116 581.643,463.592 581.519,464.002 579.189,471.656 578.587,473.468 576.437,479.466 575.439,481.686 574.611,483.414 570.979,490.544 570.065,492.234 568.855,494.348 565.267,499.612 564.153,501.164 559.331,507.548 559.073,507.888 558.043,508.982 551.891,515.276 550.459,516.67 547.223,519.662 543.769,522.386 542.157,523.59 534.977,528.68 533.739,529.524 533.283,529.768 525.509,533.89 523.797,534.746 518.837,537.074 516.471,537.966 514.747,538.57 507.139,541.042 505.303,541.59 502.951,542.23 496.695,543.414 494.715,543.736 486.457,544.868 485.991,544.896 484.069,544.96 476.069,545.034 474.155,545.006 469.753,544.832 465.381,544.316 463.393,544.028 454.719,542.552 453.247,542.272 452.843,542.152 445.187,539.82 443.365,539.216 437.373,537.068 435.149,536.068 433.341,535.198 425.511,531.186 423.821,530.268 422.481,529.498 421.681,528.95 417.151,525.846 415.673,524.782 409.289,519.96 408.951,519.702 407.857,518.674 401.563,512.524 400.163,511.084 397.175,507.852 394.449,504.392 393.249,502.788 388.159,495.61 387.315,494.37 387.071,493.916 382.949,486.14 382.093,484.426 379.765,479.468 378.873,477.102 378.269,475.378 375.797,467.77 375.249,465.932 374.609,463.582 373.423,457.322 373.113,455.434 372.007,447.51 371.951,447.088 371.905,445.59 371.803,436.79" style="stroke:rgb(242,251,227);stroke-width:3.937008;fill:none;stroke-opacity:0.5;stroke-linecap:round;stroke-linejoin:round;;fill:none"/>
<polyline points="371.803,436.79 371.829,434.872 371.995,430.382 372.399,426.892 372.665,425 374.103,416.318 374.483,414.334 374.581,413.88 376.993,405.898 377.621,404 379.771,398.002 380.769,395.782 381.597,394.054 385.229,386.924 386.143,385.234 387.353,383.12 390.941,377.856 392.055,376.304 396.877,369.92 397.135,369.58 398.165,368.486 404.317,362.192 405.749,360.798 408.985,357.806 412.439,355.082 414.051,353.878 421.231,348.788 422.467,347.944 422.923,347.698 430.699,343.578 432.409,342.722 437.371,340.394 439.735,339.504 441.461,338.898 449.069,336.426 450.905,335.878 453.259,335.238 459.513,334.054 461.473,333.734 469.749,332.6 470.217,332.572 472.139,332.508 480.139,332.434 481.961,332.458 486.455,332.624 489.939,333.028 491.841,333.296 500.523,334.734 502.499,335.112 502.957,335.212 510.935,337.622 512.755,338.22 518.841,340.386 520.251,341.016 521.987,341.844 529.837,345.82 531.603,346.774 533.715,347.982 538.981,351.572 540.533,352.686 546.917,357.506 547.257,357.766 548.347,358.792 554.641,364.942 556.045,366.384 559.033,369.616 561.759,373.076 562.959,374.68 568.049,381.858 568.893,383.098 569.137,383.552 573.259,391.328 574.117,393.046 576.443,398 577.335,400.37 577.965,402.174 580.667,410.55 581.213,412.398 581.613,413.884 582.801,420.238 583.107,422.122 584.239,430.38 584.265,430.846 584.331,432.768 584.405,440.77 584.375,442.684 584.203,447.084 583.685,451.456 583.399,453.44 581.923,462.116 581.643,463.592 581.519,464.002 579.189,471.656 578.587,473.468 576.437,479.466 575.439,481.686 574.611,483.414 570.979,490.544 570.065,492.234 568.855,494.348 565.267,499.612 564.153,501.164 559.331,507.548 559.073,507.888 558.043,508.982 551.891,515.276 550.459,516.67 547.223,519.662 543.769,522.386 542.157,523.59 534.977,528.68 533.739,529.524 533.283,529.768 525.509,533.89 523.797,534.746 518.837,537.074 516.471,537.966 514.747,538.57 507.139,541.042 505.303,541.59 502.951,542.23 496.695,543.414 494.715,543.736 486.457,544.868 485.991,544.896 484.069,544.96 476.069,545.034 474.155,545.006 469.753,544.832 465.381,544.316 463.393,544.028 454.719,542.552 453.247,542.272 452.843,542.152 445.187,539.82 443.365,539.216 437.373,537.068 435.149,536.068 433.341,535.198 425.511,531.186 423.821,530.268 422.481,529.498 421.681,528.95 417.151,525.846 415.673,524.782 409.289,519.96 408.951,519.702 407.857,518.674 401.563,512.524 400.163,511.084 397.175,507.852 394.449,504.392 393.249,502.788 388.159,495.61 387.315,494.37 387.071,493.916 382.949,486.14 382.093,484.426 379.765,479.468 378.873,477.102 378.269,475.378 375.797,467.77 375.249,465.932 374.609,463.582 373.423,457.322 373.113,455.434 372.007,447.51 371.951,447.088 371.905,445.59 371.803,436.79" style="stroke:rgb(0,0,0);stroke-width:1px;fill:none;stroke-opacity:1;stroke-linecap:round;stroke-linejoin:round;;fill:none"/>
<polyline points="727.861,969.82 727.885,884.642 732.047,878.966 735.719,873.466 740.685,864.426 742.577,860.036 744.525,855.52 744.805,854.888 746.085,852.052 747.009,849.826 747.069,849.67 747.113,849.556 748.399,847.284 750.075,844.542 751.879,841.848 752.505,841.186 755.853,837.732 758.277,835.434 758.599,835.216 760.603,833.872 763.057,832.356 765.849,830.768 765.993,830.686 768.939,829.586 771.993,828.584 774.731,827.792 775.619,827.682 779.585,827.23 779.605,827.228 782.079,827.15 821.269,827.15 823.337,827.204 823.765,827.226 826.535,827.514 828.621,827.786 829.789,828.124 832.863,829.06 835.973,830.154 837.347,830.702 838.875,831.53 841.373,833.002 843.403,834.302 845.073,835.432 846.031,836.33 848.911,839.124 851.457,841.834 851.469,841.85 853.247,844.502 855.167,847.678 856.217,849.616 856.895,851.3 858.123,854.828 859.037,857.91 859.089,858.084 859.983,861.154 861.031,864.288 861.625,865.86 861.695,866.044 863.679,871.362 864.203,872.71 875.635,875.95 881.137,876.74 886.803,877.148 977.373,877.148 978.455,877.134 979.513,877.104 986.307,876.332 991.809,875.234 1000.04,872.778 1001.83,867.962 1002.43,866.044 1003.18,863.842 1003.67,862.54 1004.53,859.95 1005.42,856.972 1005.74,855.948 1006.99,852.134 1007.94,849.552 1008.85,847.99 1011.36,843.884 1012.7,841.838 1014.14,840.294 1016.96,837.442 1019.11,835.434 1020.12,834.762 1023.5,832.598 1026.82,830.69 1027.5,830.446 1032.04,828.85 1035.56,827.792 1036.45,827.682 1040.41,827.23 1043,827.15 1084.59,827.252 1089.44,827.812 1089.84,827.93 1094.44,829.334 1098.18,830.686 1098.68,830.972 1102.15,832.992 1105.77,835.372 1105.93,835.532 1109.4,838.872 1112.75,842.526 1115.54,845.99 1115.78,846.284 1119.2,850.44 1121.07,852.58 1122.69,854.32 1125.1,857.112 1126.85,859.278 1130.07,862.974 1132.96,866.062 1136.32,869.482 1139.48,866.044 1140.19,865.238 1142.27,862.942 1144.93,860.13 1145.73,859.27 1149.07,855.606 1150.82,853.592 1153.02,850.916 1154.42,849.112 1155.03,848.296 1157.22,845.568 1157.6,845.14 1158.56,844.008 1159.3,843.09 1161.22,840.9 1162.88,839.15 1164.94,837.124 1166.8,835.426 1167.37,835.016 1170.13,833.206 1172.89,831.56 1174.45,830.674 1175.88,830.14 1178.91,829.074 1181.68,828.214 1183.2,827.802 1184.03,827.672 1188.05,827.252 1188.1,827.252 1231.29,827.2 1232.23,827.21 1234.63,827.462 1237.03,827.784 1237.08,827.792 1239.83,828.586 1242.88,829.588 1245.82,830.686 1245.97,830.766 1248.76,832.356 1251.55,834.104 1253.52,835.452 1254.15,836 1256.55,838.28 1258.79,840.586 1259.95,841.838 1261.07,843.53 1263.2,846.93 1264.7,849.552 1265.09,850.612 1266.42,854.398 1267.49,857.96 1267.57,858.298 1267.96,861.138 1268.18,863.146 1268.2,864.416 1268.22,902.314 1268.28,904.434 1268.39,906.522 1269.5,913.98 1269.81,914.406 1273.14,918.854 1276.86,923.15 1300.97,947.258 1302.5,948.704 1304.05,950.1 1310.13,954.614 1310.64,954.69 1316.14,955.48 1321.81,955.888 1650.04,955.888 1652.16,955.83 1654.25,955.718 1662.23,954.486 1663.21,954.236 1663.82,953.688 1665.22,952.474 1666.72,951.228 1669.36,948.836 1670.58,947.63 1670.92,947.296 1674.89,943.274 1676.19,942.018 1678.66,939.734 1680.62,937.788 1680.68,937.724 1681.93,936.456 1682.67,935.74 1686.19,931.87 1687.43,930.32 1687.46,930.284 1689.91,927.244 1691.06,925.746 1692.49,923.828 1694.67,920.696 1695.9,918.82 1696.47,917.922 1698.91,914.05 1701.08,910.406 1708.07,909.28 1713.11,908.664 1723.31,907.812 1727.18,907.606 1733.3,907.468 1734.89,907.452 1762.59,907.526 1765.82,907.618 1771.94,907.948 1774.88,908.174 1781,908.784 1784.03,909.158 1790.15,910.054 1792.22,910.39 1793.01,911.712 1793.82,913.038 1797.41,918.812 1797.44,918.864 1799.13,921.568 1803.1,927.174 1804.54,928.948 1806.63,931.36 1808.77,933.674 1810.14,935.222 1810.42,935.556 1814.47,939.724 1814.93,940.132 1816.33,941.446 1820.7,945.736 1821.95,947.028 1824.32,949.578 1825.96,951.652 1827.05,953.088 1830.63,958.056 1831.71,959.638 1832.33,960.586 1835.03,965.574 1835.9,967.264 1838.52,972.706 1838.55,972.784 1839.17,974.49 1841.13,980.294 1841.69,982.118 1842.7,985.662 1843.31,988.722 1843.65,990.69 1844.65,997.42 1844.86,999.1 1844.87,999.328 1844.99,1005.45 1844.99,1007.25 1844.85,1012.71 1844.78,1013.36 1844.54,1015.27 1843.51,1021.99 1843.17,1023.86 1842.71,1026.16 1841.66,1029.8 1841.13,1031.52 1839.17,1037.33 1838.55,1039.03 1838.52,1039.11 1835.9,1044.55 1835.04,1046.24 1832.33,1051.23 1831.71,1052.17 1830.63,1053.76 1827.05,1058.73 1825.9,1060.24 1824.32,1062.23 1821.41,1065.35 1820.07,1066.71 1815.68,1070.98 1814.72,1071.89 1814.33,1072.18 1809.45,1075.87 1807.98,1076.93 1803.69,1079.87 1802.89,1080.33 1801.21,1081.25 1795.16,1084.35 1793.45,1085.18 1791.56,1086.04 1787.75,1087.42 1785.94,1088.03 1779.44,1090.03 1778.62,1090.28 1777.58,1090.47 1771.55,1091.53 1769.77,1091.79 1765.17,1092.38 1763.68,1092.45 1761.83,1092.5 1734.13,1092.54 1733.07,1092.53 1727.94,1092.4 1727.63,1092.36 1725.33,1092.06 1715.27,1090.41 1714.49,1090.27 1712.34,1089.63 1702.66,1086.45 1701.54,1086.07 1700.43,1085.54 1694.93,1082.84 1693.42,1082.06 1689.42,1079.87 1688.67,1079.39 1687.26,1078.42 1682.28,1074.85 1680.84,1073.77 1678.3,1071.76 1676.16,1069.82 1674.85,1068.57 1670.52,1064.25 1669.32,1063.01 1669.19,1062.87 1665.37,1059.22 1663.95,1058.04 1663.27,1057.47 1661.21,1057.13 1655.71,1056.33 1650.04,1055.93 1288.88,1055.93 1286.75,1055.87 1283.97,1055.72 1280.23,1055.14 1277.09,1054.53 1274.33,1053.87 1273.9,1053.73 1271.65,1052.87 1267.86,1051.3 1265.66,1050.31 1265.25,1050.11 1262.84,1048.63 1260.83,1047.31 1257.48,1044.95 1257.08,1044.66 1255.33,1043.02 1248.08,1035.79 1246,1033.87 1243.9,1032.05 1237.88,1027.73 1237.11,1027.7 1235.2,1027.64 1232.19,1027.44 1231.37,1027.35 1227.21,1027.14 1189.78,1027.17 1188.05,1027.13 1186.44,1026.95 1183.2,1026.51 1182.48,1026.33 1178.14,1024.98 1174.48,1023.61 1173.67,1023.19 1169.41,1020.65 1166.9,1018.93 1165.57,1017.75 1162.35,1014.55 1159.67,1011.56 1157.53,1008.96 1157.07,1008.36 1156.03,1007.04 1154.05,1004.64 1151.79,1002.08 1151.54,1001.82 1148.92,998.85 1147.56,997.184 1146.61,996.056 1143.54,992.486 1141.49,990.2 1139.71,988.288 1136.29,984.822 1132.45,989.048 1131.71,989.912 1128.05,993.916 1127.72,994.254 1126.02,996.052 1123.2,999.136 1120.93,1001.81 1118.22,1005.23 1118,1005.5 1115.03,1009.19 1114.93,1009.31 1114.1,1010.34 1111.66,1013.13 1108.32,1016.59 1105.86,1018.93 1105.59,1019.11 1103.59,1020.46 1101.12,1021.98 1098.33,1023.57 1098.19,1023.65 1094.84,1024.88 1091.02,1026.09 1089.45,1026.55 1087.36,1026.82 1084.59,1027.11 1084.16,1027.13 1082.1,1027.19 1042.91,1027.19 1040.84,1027.13 1040.41,1027.11 1037.64,1026.82 1035.56,1026.55 1034.39,1026.21 1031.31,1025.27 1028.59,1024.33 1026.82,1023.65 1026.36,1023.4 1023.84,1021.95 1021.12,1020.25 1019.11,1018.9 1018.15,1018.01 1015.27,1015.22 1012.71,1012.49 1010.93,1009.83 1009.21,1007.01 1007.94,1004.73 1007.71,1004.17 1006.45,1000.67 1005.26,996.836 1005.09,996.25 1004.19,993.18 1003.15,990.044 1002.55,988.48 1002.48,988.288 1000.5,982.978 999.975,981.624 988.541,978.386 983.041,977.594 977.361,977.188 885.735,977.216 877.871,978.002 872.369,979.1 864.135,981.558 862.345,986.376 861.747,988.288 860.999,990.482 860.511,991.798 859.651,994.376 858.759,997.364 858.439,998.386 857.187,1002.2 856.239,1004.78 855.547,1005.99 853.491,1009.44 851.473,1012.49 850.847,1013.15 847.497,1016.6 845.073,1018.9 844.067,1019.57 840.687,1021.73 837.355,1023.64 837.063,1023.75 833.291,1025.12 828.937,1026.43 828.611,1026.5 824.165,1027.06 823.765,1027.11 821.175,1027.18 779.581,1027.08 774.735,1026.52 774.337,1026.4 769.733,1025 765.993,1023.65 765.849,1023.57 763.057,1021.98 760.593,1020.46 758.589,1019.11 758.279,1018.9 755.853,1016.6 752.505,1013.15 751.877,1012.49 749.649,1009.08 747.227,1004.92 747.139,1004.77 747.093,1004.66 745.839,1001.73 745.427,1000.72 744.667,998.802 743.897,996.986 742.219,993.278 740.677,990.182 740.483,989.822 739.675,988.276 737.709,984.346 727.861,969.82" style="stroke:rgb(242,251,227);stroke-width:3.937008;fill:none;stroke-opacity:0.5;stroke-linecap:round;stroke-linejoin:round;;fill:none"/>
<polyline points="727.861,969.82 727.885,884.642 732.047,878.966 735.719,873.466 740.685,864.426 742.577,860.036 744.525,855.52 744.805,854.888 746.085,852.052 747.009,849.826 747.069,849.67 747.113,849.556 748.399,847.284 750.075,844.542 751.879,841.848 752.505,841.186 755.853,837.732 758.277,835.434 758.599,835.216 760.603,833.872 763.057,832.356 765.849,830.768 765.993,830.686 768.939,829.586 771.993,828.584 774.731,827.792 775.619,827.682 779.585,827.23 779.605,827.228 782.079,827.15 821.269,827.15 823.337,827.204 823.765,827.226 826.535,827.514 828.621,827.786 829.789,828.124 832.863,829.06 835.973,830.154 837.347,830.702 838.875,831.53 841.373,833.002 843.403,834.302 845.073,835.432 846.031,836.33 848.911,839.124 851.457,841.834 851.469,841.85 853.247,844.502 855.167,847.678 856.217,849.616 856.895,851.3 858.123,854.828 859.037,857.91 859.089,858.084 859.983,861.154 861.031,864.288 861.625,865.86 861.695,866.044 863.679,871.362 864.203,872.71 875.635,875.95 881.137,876.74 886.803,877.148 977.373,877.148 978.455,877.134 979.513,877.104 986.307,876.332 991.809,875.234 1000.04,872.778 1001.83,867.962 1002.43,866.044 1003.18,863.842 1003.67,862.54 1004.53,859.95 1005.42,856.972 1005.74,855.948 1006.99,852.134 1007.94,849.552 1008.85,847.99 1011.36,843.884 1012.7,841.838 1014.14,840.294 1016.96,837.442 1019.11,835.434 1020.12,834.762 1023.5,832.598 1026.82,830.69 1027.5,830.446 1032.04,828.85 1035.56,827.792 1036.45,827.682 1040.41,827.23 1043,827.15 1084.59,827.252 1089.44,827.812 1089.84,827.93 1094.44,829.334 1098.18,830.686 1098.68,830.972 1102.15,832.992 1105.77,835.372 1105.93,835.532 1109.4,838.872 1112.75,842.526 1115.54,845.99 1115.78,846.284 1119.2,850.44 1121.07,852.58 1122.69,854.32 1125.1,857.112 1126.85,859.278 1130.07,862.974 1132.96,866.062 1136.32,869.482 1139.48,866.044 1140.19,865.238 1142.27,862.942 1144.93,860.13 1145.73,859.27 1149.07,855.606 1150.82,853.592 1153.02,850.916 1154.42,849.112 1155.03,848.296 1157.22,845.568 1157.6,845.14 1158.56,844.008 1159.3,843.09 1161.22,840.9 1162.88,839.15 1164.94,837.124 1166.8,835.426 1167.37,835.016 1170.13,833.206 1172.89,831.56 1174.45,830.674 1175.88,830.14 1178.91,829.074 1181.68,828.214 1183.2,827.802 1184.03,827.672 1188.05,827.252 1188.1,827.252 1231.29,827.2 1232.23,827.21 1234.63,827.462 1237.03,827.784 1237.08,827.792 1239.83,828.586 1242.88,829.588 1245.82,830.686 1245.97,830.766 1248.76,832.356 1251.55,834.104 1253.52,835.452 1254.15,836 1256.55,838.28 1258.79,840.586 1259.95,841.838 1261.07,843.53 1263.2,846.93 1264.7,849.552 1265.09,850.612 1266.42,854.398 1267.49,857.96 1267.57,858.298 1267.96,861.138 1268.18,863.146 1268.2,864.416 1268.22,902.314 1268.28,904.434 1268.39,906.522 1269.5,913.98 1269.81,914.406 1273.14,918.854 1276.86,923.15 1300.97,947.258 1302.5,948.704 1304.05,950.1 1310.13,954.614 1310.64,954.69 1316.14,955.48 1321.81,955.888 1650.04,955.888 1652.16,955.83 1654.25,955.718 1662.23,954.486 1663.21,954.236 1663.82,953.688 1665.22,952.474 1666.72,951.228 1669.36,948.836 1670.58,947.63 1670.92,947.296 1674.89,943.274 1676.19,942.018 1678.66,939.734 1680.62,937.788 1680.68,937.724 1681.93,936.456 1682.67,935.74 1686.19,931.87 1687.43,930.32 1687.46,930.284 1689.91,927.244 1691.06,925.746 1692.49,923.828 1694.67,920.696 1695.9,918.82 1696.47,917.922 1698.91,914.05 1701.08,910.406 1708.07,909.28 1713.11,908.664 1723.31,907.812 1727.18,907.606 1733.3,907.468 1734.89,907.452 1762.59,907.526 1765.82,907.618 1771.94,907.948 1774.88,908.174 1781,908.784 1784.03,909.158 1790.15,910.054 1792.22,910.39 1793.01,911.712 1793.82,913.038 1797.41,918.812 1797.44,918.864 1799.13,921.568 1803.1,927.174 1804.54,928.948 1806.63,931.36 1808.77,933.674 1810.14,935.222 1810.42,935.556 1814.47,939.724 1814.93,940.132 1816.33,941.446 1820.7,945.736 1821.95,947.028 1824.32,949.578 1825.96,951.652 1827.05,953.088 1830.63,958.056 1831.71,959.638 1832.33,960.586 1835.03,965.574 1835.9,967.264 1838.52,972.706 1838.55,972.784 1839.17,974.49 1841.13,980.294 1841.69,982.118 1842.7,985.662 1843.31,988.722 1843.65,990.69 1844.65,997.42 1844.86,999.1 1844.87,999.328 1844.99,1005.45 1844.99,1007.25 1844.85,1012.71 1844.78,1013.36 1844.54,1015.27 1843.51,1021.99 1843.17,1023.86 1842.71,1026.16 1841.66,1029.8 1841.13,1031.52 1839.17,1037.33 1838.55,1039.03 1838.52,1039.11 1835.9,1044.55 1835.04,1046.24 1832.33,1051.23 1831.71,1052.17 1830.63,1053.76 1827.05,1058.73 1825.9,1060.24 1824.32,1062.23 1821.41,1065.35 1820.07,1066.71 1815.68,1070.98 1814.72,1071.89 1814.33,1072.18 1809.45,1075.87 1807.98,1076.93 1803.69,1079.87 1802.89,1080.33 1801.21,1081.25 1795.16,1084.35 1793.45,1085.18 1791.56,1086.04 1787.75,1087.42 1785.94,1088.03 1779.44,1090.03 1778.62,1090.28 1777.58,1090.47 1771.55,1091.53 1769.77,1091.79 1765.17,1092.38 1763.68,1092.45 1761.83,1092.5 1734.13,1092.54 1733.07,1092.53 1727.94,1092.4 1727.63,1092.36 1725.33,1092.06 1715.27,1090.41 1714.49,1090.27 1712.34,1089.63 1702.66,1086.45 1701.54,1086.07 1700.43,1085.54 1694.93,1082.84 1693.42,1082.06 1689.42,1079.87 1688.67,1079.39 1687.26,1078.42 1682.28,1074.85 1680.84,1073.77 1678.3,1071.76 1676.16,1069.82 1674.85,1068.57 1670.52,1064.25 1669.32,1063.01 1669.19,1062.87 1665.37,1059.22 1663.95,1058.04 1663.27,1057.47 1661.21,1057.13 1655.71,1056.33 1650.04,1055.93 1288.88,1055.93 1286.75,1055.87 1283.97,1055.72 1280.23,1055.14 1277.09,1054.53 1274.33,1053.87 1273.9,1053.73 1271.65,1052.87 1267.86,1051.3 1265.66,1050.31 1265.25,1050.11 1262.84,1048.63 1260.83,1047.31 1257.48,1044.95 1257.08,1044.66 1255.33,1043.02 1248.08,1035.79 1246,1033.87 1243.9,1032.05 1237.88,1027.73 1237.11,1027.7 1235.2,1027.64 1232.19,1027.44 1231.37,1027.35 1227.21,1027.14 1189.78,1027.17 1188.05,1027.13 1186.44,1026.95 1183.2,1026.51 1182.48,1026.33 1178.14,1024.98 1174.48,1023.61 1173.67,1023.19 1169.41,1020.65 1166.9,1018.93 1165.57,1017.75 1162.35,1014.55 1159.67,1011.56 1157.53,1008.96 1157.07,1008.36 1156.03,1007.04 1154.05,1004.64 1151.79,1002.08 1151.54,1001.82 1148.92,998.85 1147.56,997.184 1146.61,996.056 1143.54,992.486 1141.49,990.2 1139.71,988.288 1136.29,984.822 1132.45,989.048 1131.71,989.912 1128.05,993.916 1127.72,994.254 1126.02,996.052 1123.2,999.136 1120.93,1001.81 1118.22,1005.23 1118,1005.5 1115.03,1009.19 1114.93,1009.31 1114.1,1010.34 1111.66,1013.13 1108.32,1016.59 1105.86,1018.93 1105.59,1019.11 1103.59,1020.46 1101.12,1021.98 1098.33,1023.57 1098.19,1023.65 1094.84,1024.88 1091.02,1026.09 1089.45,1026.55 1087.36,1026.82 1084.59,1027.11 1084.16,1027.13 1082.1,1027.19 1042.91,1027.19 1040.84,1027.13 1040.41,1027.11 1037.64,1026.82 1035.56,1026.55 1034.39,1026.21 1031.31,1025.27 1028.59,1024.33 1026.82,1023.65 1026.36,1023.4 1023.84,1021.95 1021.12,1020.25 1019.11,1018.9 1018.15,1018.01 1015.27,1015.22 1012.71,1012.49 1010.93,1009.83 1009.21,1007.01 1007.94,1004.73 1007.71,1004.17 1006.45,1000.67 1005.26,996.836 1005.09,996.25 1004.19,993.18 1003.15,990.044 1002.55,988.48 1002.48,988.288 1000.5,982.978 999.975,981.624 988.541,978.386 983.041,977.594 977.361,977.188 885.735,977.216 877.871,978.002 872.369,979.1 864.135,981.558 862.345,986.376 861.747,988.288 860.999,990.482 860.511,991.798 859.651,994.376 858.759,997.364 858.439,998.386 857.187,1002.2 856.239,1004.78 855.547,1005.99 853.491,1009.44 851.473,1012.49 850.847,1013.15 847.497,1016.6 845.073,1018.9 844.067,1019.57 840.687,1021.73 837.355,1023.64 837.063,1023.75 833.291,1025.12 828.937,1026.43 828.611,1026.5 824.165,1027.06 823.765,1027.11 821.175,1027.18 779.581,1027.08 774.735,1026.52 774.337,1026.4 769.733,1025 765.993,1023.65 765.849,1023.57 763.057,1021.98 760.593,1020.46 758.589,1019.11 758.279,1018.9 755.853,1016.6 752.505,1013.15 751.877,1012.49 749.649,1009.08 747.227,1004.92 747.139,1004.77 747.093,1004.66 745.839,1001.73 745.427,1000.72 744.667,998.802 743.897,996.986 742.219,993.278 740.677,990.182 740.483,989.822 739.675,988.276 737.709,984.346 727.861,969.82" style="stroke:rgb(0,0,0);stroke-width:1px;fill:none;stroke-opacity:1;stroke-linecap:round;stroke-linejoin:round;;fill:none"/>
<polyline points="1926.93,1495.11 1926.97,1493.1 1927.12,1489.68 1927.78,1484.34 1928.06,1482.44 1929.42,1474.56 1929.68,1473.18 1929.83,1472.68 1932.42,1464.27 1933.05,1462.37 1934.9,1457.3 1936.31,1454.19 1937.15,1452.47 1940.81,1445.36 1941.74,1443.67 1942.46,1442.41 1946.63,1436.36 1947.75,1434.81 1952.27,1428.89 1952.64,1428.47 1953.96,1427.07 1960.14,1420.81 1961.58,1419.41 1964.1,1417.1 1968.35,1413.79 1969.96,1412.59 1977.16,1407.54 1977.59,1407.24 1978.82,1406.57 1985.9,1402.84 1987.61,1401.98 1992.49,1399.71 1995.7,1398.51 1997.51,1397.88 2005.13,1395.44 2006.97,1394.9 2008.37,1394.53 2015.6,1393.19 2017.49,1392.89 2024.87,1391.9 2025.43,1391.87 2027.35,1391.81 2036.15,1391.74 2038.15,1391.78 2041.57,1391.93 2046.92,1392.59 2048.81,1392.87 2056.7,1394.23 2058.08,1394.49 2058.49,1394.62 2066.14,1396.95 2067.96,1397.55 2073.95,1399.7 2076.17,1400.7 2077.91,1401.53 2085.04,1405.16 2086.72,1406.07 2088.84,1407.28 2094.1,1410.87 2095.72,1412.04 2102.36,1417.08 2102.71,1417.39 2104.18,1418.77 2110.45,1424.95 2111.78,1426.32 2114.16,1428.91 2116.93,1432.44 2118.08,1433.98 2123.17,1441.16 2124.01,1442.4 2124.26,1442.85 2128.38,1450.63 2129.27,1452.42 2131.55,1457.3 2132.75,1460.51 2133.38,1462.32 2135.81,1469.94 2136.36,1471.78 2136.73,1473.18 2138.06,1480.42 2138.36,1482.3 2139.36,1489.68 2139.39,1490.24 2139.45,1492.16 2139.51,1500.96 2139.48,1502.88 2139.33,1506.38 2138.79,1510.85 2138.52,1512.74 2137.04,1521.41 2136.76,1522.89 2136.61,1523.39 2134.03,1531.8 2133.39,1533.7 2131.55,1538.76 2130.13,1541.87 2129.3,1543.6 2125.63,1550.71 2124.71,1552.4 2123.98,1553.65 2119.82,1559.71 2118.7,1561.25 2114.18,1567.18 2113.81,1567.59 2112.49,1569 2106.31,1575.26 2104.86,1576.66 2102.34,1578.96 2098.1,1582.28 2096.49,1583.47 2089.29,1588.53 2088.86,1588.82 2087.62,1589.5 2080.55,1593.23 2078.83,1594.08 2073.95,1596.36 2070.75,1597.56 2068.94,1598.19 2061.32,1600.62 2059.47,1601.16 2058.07,1601.54 2050.84,1602.87 2048.96,1603.17 2041.58,1604.17 2041.02,1604.2 2039.1,1604.26 2030.3,1604.32 2028.29,1604.28 2024.87,1604.13 2019.53,1603.48 2017.63,1603.2 2009.75,1601.84 2008.37,1601.57 2007.96,1601.45 2000.3,1599.12 1998.49,1598.52 1992.49,1596.37 1990.27,1595.37 1988.46,1594.5 1980.63,1590.48 1978.86,1589.52 1977.6,1588.79 1976.8,1588.24 1971.55,1584.62 1970,1583.5 1964.08,1578.99 1963.66,1578.62 1962.26,1577.3 1956,1571.12 1954.67,1569.74 1952.29,1567.16 1949.52,1563.63 1948.37,1562.09 1943.28,1554.91 1942.43,1553.67 1942.23,1553.3 1938.47,1546.24 1937.61,1544.52 1934.89,1538.77 1934.02,1536.49 1933.36,1534.59 1930.66,1526.22 1930.09,1524.28 1929.72,1522.88 1928.38,1515.65 1928.08,1513.77 1927.09,1506.39 1927.06,1505.83 1926.99,1503.91 1926.93,1495.11" style="stroke:rgb(242,251,227);stroke-width:3.937008;fill:none;stroke-opacity:0.5;stroke-linecap:round;stroke-linejoin:round;;fill:none"/>
<polyline points="1926.93,1495.11 1926.97,1493.1 1927.12,1489.68 1927.78,1484.34 1928.06,1482.44 1929.42,1474.56 1929.68,1473.18 1929.83,1472.68 1932.42,1464.27 1933.05,1462.37 1934.9,1457.3 1936.31,1454.19 1937.15,1452.47 1940.81,1445.36 1941.74,1443.67 1942.46,1442.41 1946.63,1436.36 1947.75,1434.81 1952.27,1428.89 1952.64,1428.47 1953.96,1427.07 1960.14,1420.81 1961.58,1419.41 1964.1,1417.1 1968.35,1413.79 1969.96,1412.59 1977.16,1407.54 1977.59,1407.24 1978.82,1406.57 1985.9,1402.84 1987.61,1401.98 1992.49,1399.71 1995.7,1398.51 1997.51,1397.88 2005.13,1395.44 2006.97,1394.9 2008.37,1394.53 2015.6,1393.19 2017.49,1392.89 2024.87,1391.9 2025.43,1391.87 2027.35,1391.81 2036.15,1391.74 2038.15,1391.78 2041.57,1391.93 2046.92,1392.59 2048.81,1392.87 2056.7,1394.23 2058.08,1394.49 2058.49,1394.62 2066.14,1396.95 2067.96,1397.55 2073.95,1399.7 2076.17,1400.7 2077.91,1401.53 2085.04,1405.16 2086.72,1406.07 2088.84,1407.28 2094.1,1410.87 2095.72,1412.04 2102.36,1417.08 2102.71,1417.39 2104.18,1418.77 2110.45,1424.95 2111.78,1426.32 2114.16,1428.91 2116.93,1432.44 2118.08,1433.98 2123.17,1441.16 2124.01,1442.4 2124.26,1442.85 2128.38,1450.63 2129.27,1452.42 2131.55,1457.3 2132.75,1460.51 2133.38,1462.32 2135.81,1469.94 2136.36,1471.78 2136.73,1473.18 2138.06,1480.42 2138.36,1482.3 2139.36,1489.68 2139.39,1490.24 2139.45,1492.16 2139.51,1500.96 2139.48,1502.88 2139.33,1506.38 2138.79,1510.85 2138.52,1512.74 2137.04,1521.41 2136.76,1522.89 2136.61,1523.39 2134.03,1531.8 2133.39,1533.7 2131.55,1538.76 2130.13,1541.87 2129.3,1543.6 2125.63,1550.71 2124.71,1552.4 2123.98,1553.65 2119.82,1559.71 2118.7,1561.25 2114.18,1567.18 2113.81,1567.59 2112.49,1569 2106.31,1575.26 2104.86,1576.66 2102.34,1578.96 2098.1,1582.28 2096.49,1583.47 2089.29,1588.53 2088.86,1588.82 2087.62,1589.5 2080.55,1593.23 2078.83,1594.08 2073.95,1596.36 2070.75,1597.56 2068.94,1598.19 2061.32,1600.62 2059.47,1601.16 2058.07,1601.54 2050.84,1602.87 2048.96,1603.17 2041.58,1604.17 2041.02,1604.2 2039.1,1604.26 2030.3,1604.32 2028.29,1604.28 2024.87,1604.13 2019.53,1603.48 2017.63,1603.2 2009.75,1601.84 2008.37,1601.57 2007.96,1601.45 2000.3,1599.12 1998.49,1598.52 1992.49,1596.37 1990.27,1595.37 1988.46,1594.5 1980.63,1590.48 1978.86,1589.52 1977.6,1588.79 1976.8,1588.24 1971.55,1584.62 1970,1583.5 1964.08,1578.99 1963.66,1578.62 1962.26,1577.3 1956,1571.12 1954.67,1569.74 1952.29,1567.16 1949.52,1563.63 1948.37,1562.09 1943.28,1554.91 1942.43,1553.67 1942.23,1553.3 1938.47,1546.24 1937.61,1544.52 1934.89,1538.77 1934.02,1536.49 1933.36,1534.59 1930.66,1526.22 1930.09,1524.28 1929.72,1522.88 1928.38,1515.65 1928.08,1513.77 1927.09,1506.39 1927.06,1505.83 1926.99,1503.91 1926.93,1495.11" style="stroke:rgb(0,0,0);stroke-width:1px;fill:none;stroke-opacity:1;stroke-linecap:round;stroke-linejoin:round;;fill:none"/>
<polyline points="578.429,967.522 613.683,967.522 613.683,1015.7 610.763,1014.73 599.503,1007.79 590.149,998.434 583.203,987.174 579.041,974.616 578.429,967.522" style="stroke:rgb(70,124,194);stroke-width:3.937008;fill:none;stroke-opacity:0.5;stroke-linecap:round;stroke-linejoin:round;;fill:none"/>
<polyline points="578.429,967.522 613.683,967.522 613.683,1015.7 610.763,1014.73 599.503,1007.79 590.149,998.434 583.203,987.174 579.041,974.616 578.429,967.522" style="stroke:rgb(0,0,0);stroke-width:1px;fill:none;stroke-opacity:1;stroke-linecap:round;stroke-linejoin:round;;fill:none"/>
<polyline points="578.429,886.812 579.041,879.718 583.203,867.16 590.149,855.9 599.503,846.546 610.763,839.602 613.683,838.634 613.683,886.812 578.429,886.812" style="stroke:rgb(84,248,27);stroke-width:3.937008;fill:none;stroke-opacity:0.5;stroke-linecap:round;stroke-linejoin:round;;fill:none"/>
<polyline points="578.429,886.812 579.041,879.718 583.203,867.16 590.149,855.9 599.503,846.546 610.763,839.602 613.683,838.634 613.683,886.812 578.429,886.812" style="stroke:rgb(0,0,0);stroke-width:1px;fill:none;stroke-opacity:1;stroke-linecap:round;stroke-linejoin:round;;fill:none"/>
<polyline points="1630.42,759.844 1666.08,759.844 1666.45,756.8 1666.57,756.334 1668.29,751.848 1668.52,751.424 1671.28,747.49 1671.63,747.106 1675.94,743.524 1676.35,743.264 1679.96,741.526 1680.33,741.39 1684.22,740.418 1684.67,740.358 1697.34,740.186 1697.34,704.726 1683.67,704.726 1675.89,705.522 1663.21,709.724 1651.85,716.728 1642.42,726.164 1635.41,737.522 1631.21,750.206 1630.42,757.978 1630.42,759.844" style="stroke:rgb(232,231,141);stroke-width:3.937008;fill:none;stroke-opacity:0.5;stroke-linecap:round;stroke-linejoin:round;;fill:none"/>
<polyline points="1630.42,759.844 1666.08,759.844 1666.45,756.8 1666.57,756.334 1668.29,751.848 1668.52,751.424 1671.28,747.49 1671.63,747.106 1675.94,743.524 1676.35,743.264 1679.96,741.526 1680.33,741.39 1684.22,740.418 1684.67,740.358 1697.34,740.186 1697.34,704.726 1683.67,704.726 1675.89,705.522 1663.21,709.724 1651.85,716.728 1642.42,726.164 1635.41,737.522 1631.21,750.206 1630.42,757.978 1630.42,759.844" style="stroke:rgb(0,0,0);stroke-width:1px;fill:none;stroke-opacity:1;stroke-linecap:round;stroke-linejoin:round;;fill:none"/>
<polyline points="1795.77,740.186 1808.44,740.358 1808.89,740.418 1812.78,741.39 1813.16,741.526 1816.77,743.264 1817.17,743.524 1821.48,747.106 1821.83,747.49 1824.6,751.424 1824.82,751.848 1826.55,756.334 1826.66,756.8 1827.04,759.844 1862.7,759.844 1862.7,757.978 1861.9,750.204 1857.7,737.522 1850.7,726.164 1841.26,716.728 1829.9,709.724 1817.22,705.522 1809.45,704.726 1795.77,704.726 1795.77,740.186" style="stroke:rgb(118,90,46);stroke-width:3.937008;fill:none;stroke-opacity:0.5;stroke-linecap:round;stroke-linejoin:round;;fill:none"/>
<polyline points="1795.77,740.186 1808.44,740.358 1808.89,740.418 1812.78,741.39 1813.16,741.526 1816.77,743.264 1817.17,743.524 1821.48,747.106 1821.83,747.49 1824.6,751.424 1824.82,751.848 1826.55,756.334 1826.66,756.8 1827.04,759.844 1862.7,759.844 1862.7,757.978 1861.9,750.204 1857.7,737.522 1850.7,726.164 1841.26,716.728 1829.9,709.724 1817.22,705.522 1809.45,704.726 1795.77,704.726 1795.77,740.186" style="stroke:rgb(0,0,0);stroke-width:1px;fill:none;stroke-opacity:1;stroke-linecap:round;stroke-linejoin:round;;fill:none"/>
</svg>
