<?xml version="1.0" standalone="no"?>
<!DOCTYPE svg PUBLIC "-//W3C//DTD SVG 1.1//EN"
"http://www.w3.org/Graphics/SVG/1.1/DTD/svg11.dtd">
<svg width="84.2835" height="63.4961" viewBox="0 0 1755.91 1322.83" version="1.1"
xmlns="http://www.w3.org/2000/svg"
xmlns:xlink="http://www.w3.org/1999/xlink">
<polyline points="159.449,1163.39 159.449,159.452 1596.45,159.452 1596.45,1163.39 159.449,1163.39" style="stroke:rgb(103,198,105);stroke-width:3.937008;fill:none;stroke-opacity:0.5;stroke-linecap:round;stroke-linejoin:round;;fill:none"/>
<polyline points="159.449,1163.39 159.449,159.452 1596.45,159.452 1596.45,1163.39 159.449,1163.39" style="stroke:rgb(0,0,0);stroke-width:1px;fill:none;stroke-opacity:1;stroke-linecap:round;stroke-linejoin:round;;fill:none"/>
<polyline points="305.117,671.618 305.117,653.548 340.557,653.548 340.653,669.792 341.523,674.126 343.079,677.826 346.129,682.112 350.173,685.538 354.943,687.85 359.249,688.66 359.249,724.412 350.203,723.624 337.629,719.458 326.369,712.512 317.015,703.158 310.071,691.898 305.905,679.326 305.117,671.618" style="stroke:rgb(103,198,105);stroke-width:3.937008;fill:none;stroke-opacity:0.5;stroke-linecap:round;stroke-linejoin:round;;fill:none"/>
<polyline points="305.117,671.618 305.117,653.548 340.557,653.548 340.653,669.792 341.523,674.126 343.079,677.826 346.129,682.112 350.173,685.538 354.943,687.85 359.249,688.66 359.249,724.412 350.203,723.624 337.629,719.458 326.369,712.512 317.015,703.158 310.071,691.898 305.905,679.326 305.117,671.618" style="stroke:rgb(0,0,0);stroke-width:1px;fill:none;stroke-opacity:1;stroke-linecap:round;stroke-linejoin:round;;fill:none"/>
<polyline points="305.117,610.238 305.117,592.164 305.905,584.458 310.071,571.886 317.015,560.626 326.369,551.272 337.629,544.326 350.203,540.16 359.249,539.372 359.249,575.12 354.943,575.932 350.173,578.244 346.129,581.67 343.079,585.956 341.523,589.656 340.653,593.99 340.557,610.238 305.117,610.238" style="stroke:rgb(103,198,105);stroke-width:3.937008;fill:none;stroke-opacity:0.5;stroke-linecap:round;stroke-linejoin:round;;fill:none"/>
<polyline points="305.117,610.238 305.117,592.164 305.905,584.458 310.071,571.886 317.015,560.626 326.369,551.272 337.629,544.326 350.203,540.16 359.249,539.372 359.249,575.12 354.943,575.932 350.173,578.244 346.129,581.67 343.079,585.956 341.523,589.656 340.653,593.99 340.557,610.238 305.117,610.238" style="stroke:rgb(0,0,0);stroke-width:1px;fill:none;stroke-opacity:1;stroke-linecap:round;stroke-linejoin:round;;fill:none"/>
<polyline points="828.681,664.3 836.105,672.164 854.249,693.528 859.277,698.51 863.553,701.264 866.877,703.172 870.933,704.648 875.619,706.046 877.651,706.342 881.309,706.662 909.469,706.696 915.137,707.11 921.141,707.984 928.781,713.896 956.267,741.13 962.693,745.436 969.835,748.418 977.431,749.898 981.299,750.024 1136.83,750.024 1142.5,750.43 1148,751.222 1152.01,751.996 1158.4,759.268 1164.34,766.978 1168.03,770.852 1174.02,776.538 1184.97,784.602 1197.11,790.794 1204.23,793.24 1210.06,795.002 1223.51,797.036 1256.9,797.226 1265.03,796.556 1273.15,795.198 1280.76,793 1287.13,790.772 1296.14,786.318 1301.39,783.166 1310.27,776.598 1316.28,770.778 1320.45,766.29 1327.88,755.948 1334.08,743.844 1336.69,736.248 1338.74,728.594 1340.36,717.996 1340.42,703.826 1338.27,690.386 1334.1,677.428 1327.88,665.318 1319.91,654.286 1305.97,640.298 1297.68,630.602 1287.76,615.15 1281.12,614.106 1272.96,613.148 1261.71,612.378 1228.37,612.224 1210.71,613.194 1196.31,615.178 1191.91,622.722 1187.52,629.298 1183.94,633.826 1179.13,639.44 1165.37,653.174 1159.38,660.798 1152,669.224 1144.1,670.738 1136.83,671.244 1009.82,671.244 1004.16,670.836 998.141,669.97 990.497,664.048 969.279,642.91 965.559,638.612 961.901,633.72 960.677,624.194 960.569,593.068 960.103,589.032 959.099,585.146 957.075,579.494 953.901,574.084 951.515,570.856 946.607,565.958 941.217,562.302 938.237,560.608 933.745,558.982 929.503,557.708 924.649,557.124 880.467,557.162 875.613,557.708 866.877,560.612 859.197,565.326 856.181,568.188 850.951,573.908 841.575,585.44 828.805,599.474 821.967,592.34 803.799,570.854 798.201,565.272 790.599,560.612 781.863,557.714 774.061,557.07 732.827,557.132 727.989,557.772 724.529,558.748 719.253,560.644 715.621,562.712 711.541,565.378 707.987,568.752 705.125,571.77 694.349,589.45 684.459,591.77 675.715,592.502 607.747,592.502 596.577,591.304 588.977,589.506 581.599,576.852 578.351,571.76 577.187,570.508 571.917,565.38 565.013,561.066 560.549,559.278 555.477,557.754 548.137,557.072 508.947,557.072 501.607,557.754 492.859,560.606 487.121,564.03 484.533,565.932 478.777,571.776 469.123,583.658 454.789,599.51 454.657,664.27 461.509,671.43 480.425,693.81 485.159,698.41 492.861,703.172 501.597,706.068 509.399,706.714 550.633,706.652 555.473,706.012 558.931,705.036 564.207,703.14 567.839,701.074 571.919,698.404 575.471,695.036 578.337,692.014 589.095,674.34 599.001,672.014 607.747,671.282 675.715,671.282 686.883,672.48 694.483,674.278 702.481,687.978 705.111,692.024 706.267,693.27 711.543,698.404 718.449,702.718 722.917,704.506 727.985,706.03 735.325,706.712 774.515,706.712 781.855,706.03 790.607,703.19 796.339,699.754 798.927,697.852 804.415,692.32 815.901,678.344 828.681,664.3 828.805,599.474" style="stroke:rgb(103,198,105);stroke-width:3.937008;fill:none;stroke-opacity:0.5;stroke-linecap:round;stroke-linejoin:round;;fill:none"/>
<polyline points="828.681,664.3 836.105,672.164 854.249,693.528 859.277,698.51 863.553,701.264 866.877,703.172 870.933,704.648 875.619,706.046 877.651,706.342 881.309,706.662 909.469,706.696 915.137,707.11 921.141,707.984 928.781,713.896 956.267,741.13 962.693,745.436 969.835,748.418 977.431,749.898 981.299,750.024 1136.83,750.024 1142.5,750.43 1148,751.222 1152.01,751.996 1158.4,759.268 1164.34,766.978 1168.03,770.852 1174.02,776.538 1184.97,784.602 1197.11,790.794 1204.23,793.24 1210.06,795.002 1223.51,797.036 1256.9,797.226 1265.03,796.556 1273.15,795.198 1280.76,793 1287.13,790.772 1296.14,786.318 1301.39,783.166 1310.27,776.598 1316.28,770.778 1320.45,766.29 1327.88,755.948 1334.08,743.844 1336.69,736.248 1338.74,728.594 1340.36,717.996 1340.42,703.826 1338.27,690.386 1334.1,677.428 1327.88,665.318 1319.91,654.286 1305.97,640.298 1297.68,630.602 1287.76,615.15 1281.12,614.106 1272.96,613.148 1261.71,612.378 1228.37,612.224 1210.71,613.194 1196.31,615.178 1191.91,622.722 1187.52,629.298 1183.94,633.826 1179.13,639.44 1165.37,653.174 1159.38,660.798 1152,669.224 1144.1,670.738 1136.83,671.244 1009.82,671.244 1004.16,670.836 998.141,669.97 990.497,664.048 969.279,642.91 965.559,638.612 961.901,633.72 960.677,624.194 960.569,593.068 960.103,589.032 959.099,585.146 957.075,579.494 953.901,574.084 951.515,570.856 946.607,565.958 941.217,562.302 938.237,560.608 933.745,558.982 929.503,557.708 924.649,557.124 880.467,557.162 875.613,557.708 866.877,560.612 859.197,565.326 856.181,568.188 850.951,573.908 841.575,585.44 828.805,599.474 821.967,592.34 803.799,570.854 798.201,565.272 790.599,560.612 781.863,557.714 774.061,557.07 732.827,557.132 727.989,557.772 724.529,558.748 719.253,560.644 715.621,562.712 711.541,565.378 707.987,568.752 705.125,571.77 694.349,589.45 684.459,591.77 675.715,592.502 607.747,592.502 596.577,591.304 588.977,589.506 581.599,576.852 578.351,571.76 577.187,570.508 571.917,565.38 565.013,561.066 560.549,559.278 555.477,557.754 548.137,557.072 508.947,557.072 501.607,557.754 492.859,560.606 487.121,564.03 484.533,565.932 478.777,571.776 469.123,583.658 454.789,599.51 454.657,664.27 461.509,671.43 480.425,693.81 485.159,698.41 492.861,703.172 501.597,706.068 509.399,706.714 550.633,706.652 555.473,706.012 558.931,705.036 564.207,703.14 567.839,701.074 571.919,698.404 575.471,695.036 578.337,692.014 589.095,674.34 599.001,672.014 607.747,671.282 675.715,671.282 686.883,672.48 694.483,674.278 702.481,687.978 705.111,692.024 706.267,693.27 711.543,698.404 718.449,702.718 722.917,704.506 727.985,706.03 735.325,706.712 774.515,706.712 781.855,706.03 790.607,703.19 796.339,699.754 798.927,697.852 804.415,692.32 815.901,678.344 828.681,664.3 828.805,599.474" style="stroke:rgb(0,0,0);stroke-width:1px;fill:none;stroke-opacity:1;stroke-linecap:round;stroke-linejoin:round;;fill:none"/>
<polyline points="1125.98,492.128 1125.98,462.702 1126.78,454.93 1130.98,442.248 1137.98,430.888 1147.42,421.454 1158.78,414.448 1171.46,410.246 1179.23,409.452 1220.47,409.452 1220.47,444.884 1182.67,444.888 1178.06,445.48 1173.9,446.932 1170.08,449.224 1166.3,452.854 1163.86,456.572 1162.13,461.06 1161.42,466.536 1161.42,492.128 1125.98,492.128" style="stroke:rgb(103,198,105);stroke-width:3.937008;fill:none;stroke-opacity:0.5;stroke-linecap:round;stroke-linejoin:round;;fill:none"/>
<polyline points="1125.98,492.128 1125.98,462.702 1126.78,454.93 1130.98,442.248 1137.98,430.888 1147.42,421.454 1158.78,414.448 1171.46,410.246 1179.23,409.452 1220.47,409.452 1220.47,444.884 1182.67,444.888 1178.06,445.48 1173.9,446.932 1170.08,449.224 1166.3,452.854 1163.86,456.572 1162.13,461.06 1161.42,466.536 1161.42,492.128 1125.98,492.128" style="stroke:rgb(0,0,0);stroke-width:1px;fill:none;stroke-opacity:1;stroke-linecap:round;stroke-linejoin:round;;fill:none"/>
<polyline points="1263.78,444.884 1263.78,409.452 1305.01,409.452 1312.79,410.246 1325.47,414.448 1336.83,421.454 1346.26,430.888 1353.27,442.246 1357.47,454.93 1358.26,462.702 1358.26,492.128 1322.83,492.128 1322.83,466.536 1322.13,461.096 1320.57,456.932 1317.69,452.546 1314.48,449.468 1310.39,446.954 1306.19,445.48 1301.58,444.888 1263.78,444.884" style="stroke:rgb(103,198,105);stroke-width:3.937008;fill:none;stroke-opacity:0.5;stroke-linecap:round;stroke-linejoin:round;;fill:none"/>
<polyline points="1263.78,444.884 1263.78,409.452 1305.01,409.452 1312.79,410.246 1325.47,414.448 1336.83,421.454 1346.26,430.888 1353.27,442.246 1357.47,454.93 1358.26,462.702 1358.26,492.128 1322.83,492.128 1322.83,466.536 1322.13,461.096 1320.57,456.932 1317.69,452.546 1314.48,449.468 1310.39,446.954 1306.19,445.48 1301.58,444.888 1263.78,444.884" style="stroke:rgb(0,0,0);stroke-width:1px;fill:none;stroke-opacity:1;stroke-linecap:round;stroke-linejoin:round;;fill:none"/>
</svg>
