<?xml version="1.0" standalone="no"?>
 <!DOCTYPE svg PUBLIC "-//W3C//DTD SVG 1.1//EN" 
 "http://www.w3.org/Graphics/SVG/1.1/DTD/svg11.dtd"> 
<svg
  xmlns:svg="http://www.w3.org/2000/svg"
  xmlns="http://www.w3.org/2000/svg"
  xmlns:xlink="http://www.w3.org/1999/xlink"
  version="1.1"
  width="29.700220cm" height="21.000720cm" viewBox="0 0 297002 210007">
<title>SVG Picture created as stlinkv2withtrace-F_Silkscreen.svg date 2022/05/17 19:50:02 </title>
  <desc>Picture generated by PCBNEW </desc>
<g style="fill:#000000; fill-opacity:1.000000;stroke:#000000; stroke-opacity:1.000000;
stroke-linecap:round; stroke-linejoin:round;"
 transform="translate(0 0) scale(1 1)">
</g>
<g style="fill:#000000; fill-opacity:0.0; 
stroke:#000000; stroke-width:0.000000; stroke-opacity:1; 
stroke-linecap:round; stroke-linejoin:round;">
</g>
<g style="fill:#000000; fill-opacity:0.0; 
stroke:#000000; stroke-width:100.000000; stroke-opacity:1; 
stroke-linecap:round; stroke-linejoin:round;">
<path d="M141072 133850
L181922 133850
" />
<path d="M181922 133850
L181922 64560
" />
<path d="M181922 64560
L141072 64560
" />
<path d="M141072 64560
L141072 133850
" />
</g>
<g style="fill:#000000; fill-opacity:0.0; 
stroke:#000000; stroke-width:150.000000; stroke-opacity:1; 
stroke-linecap:round; stroke-linejoin:round;">
<g transform="rotate(-45.000000 172971.002000 125321.199000)">
<text x="172971.002000" y="125821.199000"
textLength="2342.381000" font-size="1333.333000" lengthAdjust="spacingAndGlyphs"
text-anchor="middle" opacity="0">C1</text>
</g>
<g class="stroked-text"><desc>C1</desc>
<path d="M172836 125691
L172836 125758
L172903 125893
L172971 125960
L173105 126028
L173240 126028
L173341 125994
L173509 125893
L173610 125792
L173711 125624
L173745 125523
L173745 125388
L173678 125253
L173610 125186
L173476 125119
L173408 125119
" />
<path d="M172095 125085
L172499 125489
" />
<path d="M172297 125287
L173004 124580
L172971 124748
L172971 124883
L173004 124984
" />
</g><g transform="rotate(-90.000000 161302.200000 112430.000000)">
<text x="161302.200000" y="112930.000000"
textLength="2147.381000" font-size="1333.333000" lengthAdjust="spacingAndGlyphs"
text-anchor="middle" opacity="0">R2</text>
</g>
<g class="stroked-text"><desc>R2</desc>
<path d="M160849 112596
L161326 112930
" />
<path d="M160849 113168
L161849 113168
L161849 112787
L161802 112691
L161754 112644
L161659 112596
L161516 112596
L161421 112644
L161373 112691
L161326 112787
L161326 113168
" />
<path d="M161754 112215
L161802 112168
L161849 112072
L161849 111834
L161802 111739
L161754 111691
L161659 111644
L161564 111644
L161421 111691
L160849 112263
L160849 111644
" />
</g><text x="173697.200000" y="111875.000000"
textLength="1909.286000" font-size="1333.333000" lengthAdjust="spacingAndGlyphs"
text-anchor="middle" opacity="0">J1</text>
<g class="stroked-text"><desc>J1</desc>
<path d="M174030 110827
L174030 111541
L174078 111684
L174173 111779
L174316 111827
L174411 111827
" />
<path d="M173030 111827
L173601 111827
" />
<path d="M173316 111827
L173316 110827
L173411 110970
L173506 111065
L173601 111113
" />
</g><g transform="rotate(-90.000000 163192.200000 131010.000000)">
<text x="163192.200000" y="131510.000000"
textLength="1909.286000" font-size="1333.333000" lengthAdjust="spacingAndGlyphs"
text-anchor="middle" opacity="0">J3</text>
</g>
<g class="stroked-text"><desc>J3</desc>
<path d="M163739 131343
L163025 131343
L162882 131390
L162787 131486
L162739 131629
L162739 131724
" />
<path d="M163739 130962
L163739 130343
L163358 130676
L163358 130533
L163311 130438
L163263 130390
L163168 130343
L162930 130343
L162835 130390
L162787 130438
L162739 130533
L162739 130819
L162787 130914
L162835 130962
" />
</g><g transform="rotate(-90.000000 175732.200000 89990.000000)">
<text x="175732.200000" y="90490.000000"
textLength="2147.381000" font-size="1333.333000" lengthAdjust="spacingAndGlyphs"
text-anchor="middle" opacity="0">R1</text>
</g>
<g class="stroked-text"><desc>R1</desc>
<path d="M175279 90156
L175756 90490
" />
<path d="M175279 90728
L176279 90728
L176279 90347
L176232 90251
L176184 90204
L176089 90156
L175946 90156
L175851 90204
L175803 90251
L175756 90347
L175756 90728
" />
<path d="M175279 89204
L175279 89775
" />
<path d="M175279 89490
L176279 89490
L176136 89585
L176041 89680
L175994 89775
" />
</g><g transform="rotate(-90.000000 156632.200000 96050.000000)">
<text x="156632.200000" y="96550.000000"
textLength="2147.381000" font-size="1333.333000" lengthAdjust="spacingAndGlyphs"
text-anchor="middle" opacity="0">R3</text>
</g>
<g class="stroked-text"><desc>R3</desc>
<path d="M156179 96216
L156656 96550
" />
<path d="M156179 96788
L157179 96788
L157179 96407
L157132 96311
L157084 96264
L156989 96216
L156846 96216
L156751 96264
L156703 96311
L156656 96407
L156656 96788
" />
<path d="M157179 95883
L157179 95264
L156798 95597
L156798 95454
L156751 95359
L156703 95311
L156608 95264
L156370 95264
L156275 95311
L156227 95359
L156179 95454
L156179 95740
L156227 95835
L156275 95883
" />
</g><text x="156402.200000" y="67660.000000"
textLength="2195.000000" font-size="1333.333000" lengthAdjust="spacingAndGlyphs"
text-anchor="middle" opacity="0">U1</text>
<g class="stroked-text"><desc>U1</desc>
<path d="M157164 66612
L157164 67421
L157116 67517
L157068 67564
L156973 67612
L156783 67612
L156687 67564
L156640 67517
L156592 67421
L156592 66612
" />
<path d="M155592 67612
L156164 67612
" />
<path d="M155878 67612
L155878 66612
L155973 66755
L156068 66850
L156164 66898
" />
</g><text x="173397.200000" y="97085.000000"
textLength="1909.286000" font-size="1333.333000" lengthAdjust="spacingAndGlyphs"
text-anchor="middle" opacity="0">J2</text>
<g class="stroked-text"><desc>J2</desc>
<path d="M173730 96037
L173730 96751
L173778 96894
L173873 96989
L174016 97037
L174111 97037
" />
<path d="M173301 96132
L173254 96085
L173159 96037
L172921 96037
L172825 96085
L172778 96132
L172730 96227
L172730 96323
L172778 96465
L173349 97037
L172730 97037
" />
</g></g>
<g style="fill:#000000; fill-opacity:0.0; 
stroke:#000000; stroke-width:120.000000; stroke-opacity:1; 
stroke-linecap:round; stroke-linejoin:round;">
<path d="M175106 126042
L172249 123185
" />
<path d="M177114 124034
L175106 126042
" />
<path d="M172249 123185
L174257 121177
" />
<path d="M176598 125526
L176110 125038
" />
<path d="M174257 121177
L177114 124034
" />
<path d="M172765 121693
L173253 122181
" />
<path d="M160302 109160
L159972 109160
" />
<path d="M160302 115700
L160302 109160
" />
<path d="M159972 115700
L160302 115700
" />
<path d="M157892 115700
L157562 115700
" />
<path d="M157562 115700
L157562 109160
" />
<path d="M157562 109160
L157892 109160
" />
<path d="M172367 115355
L172367 115475
" />
<path d="M173697 112815
L172367 112815
" />
<path d="M172367 112815
L172367 114145
" />
<path d="M175027 115475
L172367 115475
" />
<path d="M175027 115355
L175027 115475
" />
<path d="M159270 136720
L159270 128090
" />
<path d="M159978 136720
L159978 128090
" />
<path d="M160096 136720
L160096 128090
" />
<path d="M161752 136720
L161752 128090
" />
<path d="M159506 136720
L159506 128090
" />
<path d="M161752 136720
L151472 136720
" />
<path d="M154072 136720
L154072 128090
" />
<path d="M155702 128090
L155702 127680
" />
<path d="M158242 128090
L158242 127680
" />
<path d="M159388 136720
L159388 128090
" />
<path d="M160569 136720
L160569 128090
" />
<path d="M161752 126630
L161752 125520
" />
<path d="M159742 136720
L159742 128090
" />
<path d="M160451 136720
L160451 128090
" />
<path d="M157522 128090
L157522 127680
" />
<path d="M161514 136720
L161514 128090
" />
<path d="M152442 128090
L152442 127680
" />
<path d="M151472 136720
L151472 128090
" />
<path d="M160687 136720
L160687 128090
" />
<path d="M154982 128090
L154982 127680
" />
<path d="M156612 136720
L156612 128090
" />
<path d="M161277 136720
L161277 128090
" />
<path d="M161041 136720
L161041 128090
" />
<path d="M160333 136720
L160333 128090
" />
<path d="M161396 136720
L161396 128090
" />
<path d="M161752 125520
L160422 125520
" />
<path d="M160062 128090
L160062 127740
" />
<path d="M160923 136720
L160923 128090
" />
<path d="M153162 128090
L153162 127680
" />
<path d="M160782 128090
L160782 127740
" />
<path d="M161159 136720
L161159 128090
" />
<path d="M161752 128090
L151472 128090
" />
<path d="M160215 136720
L160215 128090
" />
<path d="M159152 136720
L159152 128090
" />
<path d="M159860 136720
L159860 128090
" />
<path d="M160805 136720
L160805 128090
" />
<path d="M161632 136720
L161632 128090
" />
<path d="M159624 136720
L159624 128090
" />
<path d="M171992 93260
L171992 86720
" />
<path d="M172322 93260
L171992 93260
" />
<path d="M171992 86720
L172322 86720
" />
<path d="M174402 93260
L174732 93260
" />
<path d="M174732 93260
L174732 86720
" />
<path d="M174732 86720
L174402 86720
" />
<path d="M155632 92780
L155302 92780
" />
<path d="M155632 99320
L155632 92780
" />
<path d="M152892 99320
L152892 92780
" />
<path d="M153222 99320
L152892 99320
" />
<path d="M155302 99320
L155632 99320
" />
<path d="M152892 92780
L153222 92780
" />
<path d="M162692 120560
L165352 120560
" />
<path d="M150052 120500
L150052 69700
" />
<path d="M147512 120500
L150052 120500
" />
<path d="M165352 72240
L162692 72240
" />
<path d="M147512 69700
L147512 120500
" />
<path d="M165352 69640
L164022 69640
" />
<path d="M165352 120560
L165352 72240
" />
<path d="M162692 72240
L162692 120560
" />
<path d="M165352 70970
L165352 69640
" />
<path d="M145027 121675
L167777 121675
" />
<path d="M150052 69700
L147512 69700
" />
<path d="M145027 68525
L145027 121675
" />
<path d="M167777 121675
L167777 68525
" />
<path d="M167777 68525
L145027 68525
" />
<path d="M174727 100565
L174727 100685
" />
<path d="M172067 98025
L172067 99355
" />
<path d="M172067 100565
L172067 100685
" />
<path d="M173397 98025
L172067 98025
" />
<path d="M174727 100685
L172067 100685
" />
<g >
</g>
<g >
</g>
<g >
</g>
<g >
</g>
<g >
</g>
<g >
</g>
<g >
</g>
<g >
</g>
<g >
</g>
<g >
</g>
<g >
</g>
</g>
<g style="fill:#FFFFFF; fill-opacity:0.0; 
stroke:#FFFFFF; stroke-width:120.000000; stroke-opacity:1; 
stroke-linecap:round; stroke-linejoin:round;">
</g>
<g style="fill:#FFFFFF; fill-opacity:1.0; 
stroke:#FFFFFF; stroke-width:0.001000; stroke-opacity:1; 
stroke-linecap:round; stroke-linejoin:round;">
<circle cx="172030.550000" cy="120958.350000" r="400.000000" /> 
</g>
<g style="fill:#FFFFFF; fill-opacity:1.0; 
stroke:#FFFFFF; stroke-width:21.200000; stroke-opacity:1; 
stroke-linecap:round; stroke-linejoin:round;">
</g>
<g style="fill:#FFFFFF; fill-opacity:1.0; 
stroke:#FFFFFF; stroke-width:0.001000; stroke-opacity:1; 
stroke-linecap:round; stroke-linejoin:round;">
<circle cx="177333.851000" cy="126261.651000" r="400.000000" /> 
</g>
<g style="fill:#FFFFFF; fill-opacity:1.0; 
stroke:#FFFFFF; stroke-width:21.200000; stroke-opacity:1; 
stroke-linecap:round; stroke-linejoin:round;">
</g>
<g style="fill:#FFFFFF; fill-opacity:1.0; 
stroke:#FFFFFF; stroke-width:0.001000; stroke-opacity:1; 
stroke-linecap:round; stroke-linejoin:round;">
<circle cx="158932.200000" cy="116240.000000" r="400.000000" /> 
</g>
<g style="fill:#FFFFFF; fill-opacity:1.0; 
stroke:#FFFFFF; stroke-width:21.200000; stroke-opacity:1; 
stroke-linecap:round; stroke-linejoin:round;">
</g>
<g style="fill:#FFFFFF; fill-opacity:1.0; 
stroke:#FFFFFF; stroke-width:0.001000; stroke-opacity:1; 
stroke-linecap:round; stroke-linejoin:round;">
<circle cx="158932.200000" cy="108620.000000" r="400.000000" /> 
</g>
<g style="fill:#FFFFFF; fill-opacity:1.0; 
stroke:#FFFFFF; stroke-width:21.200000; stroke-opacity:1; 
stroke-linecap:round; stroke-linejoin:round;">
</g>
<g style="fill:#FFFFFF; fill-opacity:1.0; 
stroke:#FFFFFF; stroke-width:0.001000; stroke-opacity:1; 
stroke-linecap:round; stroke-linejoin:round;">
<circle cx="173697.200000" cy="114145.000000" r="500.000000" /> 
</g>
<g style="fill:#FFFFFF; fill-opacity:1.0; 
stroke:#FFFFFF; stroke-width:21.200000; stroke-opacity:1; 
stroke-linecap:round; stroke-linejoin:round;">
</g>
<g style="fill:#FFFFFF; fill-opacity:1.0; 
stroke:#FFFFFF; stroke-width:0.001000; stroke-opacity:1; 
stroke-linecap:round; stroke-linejoin:round;">
<circle cx="152802.200000" cy="126630.000000" r="500.000000" /> 
</g>
<g style="fill:#FFFFFF; fill-opacity:1.0; 
stroke:#FFFFFF; stroke-width:21.200000; stroke-opacity:1; 
stroke-linecap:round; stroke-linejoin:round;">
</g>
<g style="fill:#FFFFFF; fill-opacity:1.0; 
stroke:#FFFFFF; stroke-width:0.001000; stroke-opacity:1; 
stroke-linecap:round; stroke-linejoin:round;">
<circle cx="155342.200000" cy="126630.000000" r="500.000000" /> 
</g>
<g style="fill:#FFFFFF; fill-opacity:1.0; 
stroke:#FFFFFF; stroke-width:21.200000; stroke-opacity:1; 
stroke-linecap:round; stroke-linejoin:round;">
</g>
<g style="fill:#FFFFFF; fill-opacity:1.0; 
stroke:#FFFFFF; stroke-width:0.001000; stroke-opacity:1; 
stroke-linecap:round; stroke-linejoin:round;">
<circle cx="157882.200000" cy="126630.000000" r="500.000000" /> 
</g>
<g style="fill:#FFFFFF; fill-opacity:1.0; 
stroke:#FFFFFF; stroke-width:21.200000; stroke-opacity:1; 
stroke-linecap:round; stroke-linejoin:round;">
</g>
<g style="fill:#FFFFFF; fill-opacity:1.0; 
stroke:#FFFFFF; stroke-width:0.001000; stroke-opacity:1; 
stroke-linecap:round; stroke-linejoin:round;">
<circle cx="160422.200000" cy="126630.000000" r="500.000000" /> 
</g>
<g style="fill:#FFFFFF; fill-opacity:1.0; 
stroke:#FFFFFF; stroke-width:21.200000; stroke-opacity:1; 
stroke-linecap:round; stroke-linejoin:round;">
</g>
<g style="fill:#FFFFFF; fill-opacity:1.0; 
stroke:#FFFFFF; stroke-width:0.001000; stroke-opacity:1; 
stroke-linecap:round; stroke-linejoin:round;">
<circle cx="173362.200000" cy="93800.000000" r="400.000000" /> 
</g>
<g style="fill:#FFFFFF; fill-opacity:1.0; 
stroke:#FFFFFF; stroke-width:21.200000; stroke-opacity:1; 
stroke-linecap:round; stroke-linejoin:round;">
</g>
<g style="fill:#FFFFFF; fill-opacity:1.0; 
stroke:#FFFFFF; stroke-width:0.001000; stroke-opacity:1; 
stroke-linecap:round; stroke-linejoin:round;">
<circle cx="173362.200000" cy="86180.000000" r="400.000000" /> 
</g>
<g style="fill:#FFFFFF; fill-opacity:1.0; 
stroke:#FFFFFF; stroke-width:21.200000; stroke-opacity:1; 
stroke-linecap:round; stroke-linejoin:round;">
</g>
<g style="fill:#FFFFFF; fill-opacity:1.0; 
stroke:#FFFFFF; stroke-width:0.001000; stroke-opacity:1; 
stroke-linecap:round; stroke-linejoin:round;">
<circle cx="154262.200000" cy="99860.000000" r="400.000000" /> 
</g>
<g style="fill:#FFFFFF; fill-opacity:1.0; 
stroke:#FFFFFF; stroke-width:21.200000; stroke-opacity:1; 
stroke-linecap:round; stroke-linejoin:round;">
</g>
<g style="fill:#FFFFFF; fill-opacity:1.0; 
stroke:#FFFFFF; stroke-width:0.001000; stroke-opacity:1; 
stroke-linecap:round; stroke-linejoin:round;">
<circle cx="154262.200000" cy="92240.000000" r="400.000000" /> 
</g>
<g style="fill:#FFFFFF; fill-opacity:1.0; 
stroke:#FFFFFF; stroke-width:21.200000; stroke-opacity:1; 
stroke-linecap:round; stroke-linejoin:round;">
</g>
<g style="fill:#FFFFFF; fill-opacity:1.0; 
stroke:#FFFFFF; stroke-width:0.001000; stroke-opacity:1; 
stroke-linecap:round; stroke-linejoin:round;">
<circle cx="164022.200000" cy="70970.000000" r="500.000000" /> 
</g>
<g style="fill:#FFFFFF; fill-opacity:1.0; 
stroke:#FFFFFF; stroke-width:21.200000; stroke-opacity:1; 
stroke-linecap:round; stroke-linejoin:round;">
</g>
<g style="fill:#FFFFFF; fill-opacity:1.0; 
stroke:#FFFFFF; stroke-width:0.001000; stroke-opacity:1; 
stroke-linecap:round; stroke-linejoin:round;">
<circle cx="164022.200000" cy="73510.000000" r="500.000000" /> 
</g>
<g style="fill:#FFFFFF; fill-opacity:1.0; 
stroke:#FFFFFF; stroke-width:21.200000; stroke-opacity:1; 
stroke-linecap:round; stroke-linejoin:round;">
</g>
<g style="fill:#FFFFFF; fill-opacity:1.0; 
stroke:#FFFFFF; stroke-width:0.001000; stroke-opacity:1; 
stroke-linecap:round; stroke-linejoin:round;">
<circle cx="164022.200000" cy="76050.000000" r="500.000000" /> 
</g>
<g style="fill:#FFFFFF; fill-opacity:1.0; 
stroke:#FFFFFF; stroke-width:21.200000; stroke-opacity:1; 
stroke-linecap:round; stroke-linejoin:round;">
</g>
<g style="fill:#FFFFFF; fill-opacity:1.0; 
stroke:#FFFFFF; stroke-width:0.001000; stroke-opacity:1; 
stroke-linecap:round; stroke-linejoin:round;">
<circle cx="164022.200000" cy="78590.000000" r="500.000000" /> 
</g>
<g style="fill:#FFFFFF; fill-opacity:1.0; 
stroke:#FFFFFF; stroke-width:21.200000; stroke-opacity:1; 
stroke-linecap:round; stroke-linejoin:round;">
</g>
<g style="fill:#FFFFFF; fill-opacity:1.0; 
stroke:#FFFFFF; stroke-width:0.001000; stroke-opacity:1; 
stroke-linecap:round; stroke-linejoin:round;">
<circle cx="164022.200000" cy="81130.000000" r="500.000000" /> 
</g>
<g style="fill:#FFFFFF; fill-opacity:1.0; 
stroke:#FFFFFF; stroke-width:21.200000; stroke-opacity:1; 
stroke-linecap:round; stroke-linejoin:round;">
</g>
<g style="fill:#FFFFFF; fill-opacity:1.0; 
stroke:#FFFFFF; stroke-width:0.001000; stroke-opacity:1; 
stroke-linecap:round; stroke-linejoin:round;">
<circle cx="164022.200000" cy="83670.000000" r="500.000000" /> 
</g>
<g style="fill:#FFFFFF; fill-opacity:1.0; 
stroke:#FFFFFF; stroke-width:21.200000; stroke-opacity:1; 
stroke-linecap:round; stroke-linejoin:round;">
</g>
<g style="fill:#FFFFFF; fill-opacity:1.0; 
stroke:#FFFFFF; stroke-width:0.001000; stroke-opacity:1; 
stroke-linecap:round; stroke-linejoin:round;">
<circle cx="164022.200000" cy="86210.000000" r="500.000000" /> 
</g>
<g style="fill:#FFFFFF; fill-opacity:1.0; 
stroke:#FFFFFF; stroke-width:21.200000; stroke-opacity:1; 
stroke-linecap:round; stroke-linejoin:round;">
</g>
<g style="fill:#FFFFFF; fill-opacity:1.0; 
stroke:#FFFFFF; stroke-width:0.001000; stroke-opacity:1; 
stroke-linecap:round; stroke-linejoin:round;">
<circle cx="164022.200000" cy="88750.000000" r="500.000000" /> 
</g>
<g style="fill:#FFFFFF; fill-opacity:1.0; 
stroke:#FFFFFF; stroke-width:21.200000; stroke-opacity:1; 
stroke-linecap:round; stroke-linejoin:round;">
</g>
<g style="fill:#FFFFFF; fill-opacity:1.0; 
stroke:#FFFFFF; stroke-width:0.001000; stroke-opacity:1; 
stroke-linecap:round; stroke-linejoin:round;">
<circle cx="164022.200000" cy="91290.000000" r="500.000000" /> 
</g>
<g style="fill:#FFFFFF; fill-opacity:1.0; 
stroke:#FFFFFF; stroke-width:21.200000; stroke-opacity:1; 
stroke-linecap:round; stroke-linejoin:round;">
</g>
<g style="fill:#FFFFFF; fill-opacity:1.0; 
stroke:#FFFFFF; stroke-width:0.001000; stroke-opacity:1; 
stroke-linecap:round; stroke-linejoin:round;">
<circle cx="164022.200000" cy="93830.000000" r="500.000000" /> 
</g>
<g style="fill:#FFFFFF; fill-opacity:1.0; 
stroke:#FFFFFF; stroke-width:21.200000; stroke-opacity:1; 
stroke-linecap:round; stroke-linejoin:round;">
</g>
<g style="fill:#FFFFFF; fill-opacity:1.0; 
stroke:#FFFFFF; stroke-width:0.001000; stroke-opacity:1; 
stroke-linecap:round; stroke-linejoin:round;">
<circle cx="164022.200000" cy="96370.000000" r="500.000000" /> 
</g>
<g style="fill:#FFFFFF; fill-opacity:1.0; 
stroke:#FFFFFF; stroke-width:21.200000; stroke-opacity:1; 
stroke-linecap:round; stroke-linejoin:round;">
</g>
<g style="fill:#FFFFFF; fill-opacity:1.0; 
stroke:#FFFFFF; stroke-width:0.001000; stroke-opacity:1; 
stroke-linecap:round; stroke-linejoin:round;">
<circle cx="164022.200000" cy="98910.000000" r="500.000000" /> 
</g>
<g style="fill:#FFFFFF; fill-opacity:1.0; 
stroke:#FFFFFF; stroke-width:21.200000; stroke-opacity:1; 
stroke-linecap:round; stroke-linejoin:round;">
</g>
<g style="fill:#FFFFFF; fill-opacity:1.0; 
stroke:#FFFFFF; stroke-width:0.001000; stroke-opacity:1; 
stroke-linecap:round; stroke-linejoin:round;">
<circle cx="164022.200000" cy="101450.000000" r="500.000000" /> 
</g>
<g style="fill:#FFFFFF; fill-opacity:1.0; 
stroke:#FFFFFF; stroke-width:21.200000; stroke-opacity:1; 
stroke-linecap:round; stroke-linejoin:round;">
</g>
<g style="fill:#FFFFFF; fill-opacity:1.0; 
stroke:#FFFFFF; stroke-width:0.001000; stroke-opacity:1; 
stroke-linecap:round; stroke-linejoin:round;">
<circle cx="164022.200000" cy="103990.000000" r="500.000000" /> 
</g>
<g style="fill:#FFFFFF; fill-opacity:1.0; 
stroke:#FFFFFF; stroke-width:21.200000; stroke-opacity:1; 
stroke-linecap:round; stroke-linejoin:round;">
</g>
<g style="fill:#FFFFFF; fill-opacity:1.0; 
stroke:#FFFFFF; stroke-width:0.001000; stroke-opacity:1; 
stroke-linecap:round; stroke-linejoin:round;">
<circle cx="164022.200000" cy="106530.000000" r="500.000000" /> 
</g>
<g style="fill:#FFFFFF; fill-opacity:1.0; 
stroke:#FFFFFF; stroke-width:21.200000; stroke-opacity:1; 
stroke-linecap:round; stroke-linejoin:round;">
</g>
<g style="fill:#FFFFFF; fill-opacity:1.0; 
stroke:#FFFFFF; stroke-width:0.001000; stroke-opacity:1; 
stroke-linecap:round; stroke-linejoin:round;">
<circle cx="164022.200000" cy="109070.000000" r="500.000000" /> 
</g>
<g style="fill:#FFFFFF; fill-opacity:1.0; 
stroke:#FFFFFF; stroke-width:21.200000; stroke-opacity:1; 
stroke-linecap:round; stroke-linejoin:round;">
</g>
<g style="fill:#FFFFFF; fill-opacity:1.0; 
stroke:#FFFFFF; stroke-width:0.001000; stroke-opacity:1; 
stroke-linecap:round; stroke-linejoin:round;">
<circle cx="164022.200000" cy="111610.000000" r="500.000000" /> 
</g>
<g style="fill:#FFFFFF; fill-opacity:1.0; 
stroke:#FFFFFF; stroke-width:21.200000; stroke-opacity:1; 
stroke-linecap:round; stroke-linejoin:round;">
</g>
<g style="fill:#FFFFFF; fill-opacity:1.0; 
stroke:#FFFFFF; stroke-width:0.001000; stroke-opacity:1; 
stroke-linecap:round; stroke-linejoin:round;">
<circle cx="164022.200000" cy="114150.000000" r="500.000000" /> 
</g>
<g style="fill:#FFFFFF; fill-opacity:1.0; 
stroke:#FFFFFF; stroke-width:21.200000; stroke-opacity:1; 
stroke-linecap:round; stroke-linejoin:round;">
</g>
<g style="fill:#FFFFFF; fill-opacity:1.0; 
stroke:#FFFFFF; stroke-width:0.001000; stroke-opacity:1; 
stroke-linecap:round; stroke-linejoin:round;">
<circle cx="164022.200000" cy="116690.000000" r="500.000000" /> 
</g>
<g style="fill:#FFFFFF; fill-opacity:1.0; 
stroke:#FFFFFF; stroke-width:21.200000; stroke-opacity:1; 
stroke-linecap:round; stroke-linejoin:round;">
</g>
<g style="fill:#FFFFFF; fill-opacity:1.0; 
stroke:#FFFFFF; stroke-width:0.001000; stroke-opacity:1; 
stroke-linecap:round; stroke-linejoin:round;">
<circle cx="164022.200000" cy="119230.000000" r="500.000000" /> 
</g>
<g style="fill:#FFFFFF; fill-opacity:1.0; 
stroke:#FFFFFF; stroke-width:21.200000; stroke-opacity:1; 
stroke-linecap:round; stroke-linejoin:round;">
</g>
<g style="fill:#FFFFFF; fill-opacity:1.0; 
stroke:#FFFFFF; stroke-width:0.001000; stroke-opacity:1; 
stroke-linecap:round; stroke-linejoin:round;">
<circle cx="148782.200000" cy="119230.000000" r="500.000000" /> 
</g>
<g style="fill:#FFFFFF; fill-opacity:1.0; 
stroke:#FFFFFF; stroke-width:21.200000; stroke-opacity:1; 
stroke-linecap:round; stroke-linejoin:round;">
</g>
<g style="fill:#FFFFFF; fill-opacity:1.0; 
stroke:#FFFFFF; stroke-width:0.001000; stroke-opacity:1; 
stroke-linecap:round; stroke-linejoin:round;">
<circle cx="148782.200000" cy="116690.000000" r="500.000000" /> 
</g>
<g style="fill:#FFFFFF; fill-opacity:1.0; 
stroke:#FFFFFF; stroke-width:21.200000; stroke-opacity:1; 
stroke-linecap:round; stroke-linejoin:round;">
</g>
<g style="fill:#FFFFFF; fill-opacity:1.0; 
stroke:#FFFFFF; stroke-width:0.001000; stroke-opacity:1; 
stroke-linecap:round; stroke-linejoin:round;">
<circle cx="148782.200000" cy="114150.000000" r="500.000000" /> 
</g>
<g style="fill:#FFFFFF; fill-opacity:1.0; 
stroke:#FFFFFF; stroke-width:21.200000; stroke-opacity:1; 
stroke-linecap:round; stroke-linejoin:round;">
</g>
<g style="fill:#FFFFFF; fill-opacity:1.0; 
stroke:#FFFFFF; stroke-width:0.001000; stroke-opacity:1; 
stroke-linecap:round; stroke-linejoin:round;">
<circle cx="148782.200000" cy="111610.000000" r="500.000000" /> 
</g>
<g style="fill:#FFFFFF; fill-opacity:1.0; 
stroke:#FFFFFF; stroke-width:21.200000; stroke-opacity:1; 
stroke-linecap:round; stroke-linejoin:round;">
</g>
<g style="fill:#FFFFFF; fill-opacity:1.0; 
stroke:#FFFFFF; stroke-width:0.001000; stroke-opacity:1; 
stroke-linecap:round; stroke-linejoin:round;">
<circle cx="148782.200000" cy="109070.000000" r="500.000000" /> 
</g>
<g style="fill:#FFFFFF; fill-opacity:1.0; 
stroke:#FFFFFF; stroke-width:21.200000; stroke-opacity:1; 
stroke-linecap:round; stroke-linejoin:round;">
</g>
<g style="fill:#FFFFFF; fill-opacity:1.0; 
stroke:#FFFFFF; stroke-width:0.001000; stroke-opacity:1; 
stroke-linecap:round; stroke-linejoin:round;">
<circle cx="148782.200000" cy="106530.000000" r="500.000000" /> 
</g>
<g style="fill:#FFFFFF; fill-opacity:1.0; 
stroke:#FFFFFF; stroke-width:21.200000; stroke-opacity:1; 
stroke-linecap:round; stroke-linejoin:round;">
</g>
<g style="fill:#FFFFFF; fill-opacity:1.0; 
stroke:#FFFFFF; stroke-width:0.001000; stroke-opacity:1; 
stroke-linecap:round; stroke-linejoin:round;">
<circle cx="148782.200000" cy="103990.000000" r="500.000000" /> 
</g>
<g style="fill:#FFFFFF; fill-opacity:1.0; 
stroke:#FFFFFF; stroke-width:21.200000; stroke-opacity:1; 
stroke-linecap:round; stroke-linejoin:round;">
</g>
<g style="fill:#FFFFFF; fill-opacity:1.0; 
stroke:#FFFFFF; stroke-width:0.001000; stroke-opacity:1; 
stroke-linecap:round; stroke-linejoin:round;">
<circle cx="148782.200000" cy="101450.000000" r="500.000000" /> 
</g>
<g style="fill:#FFFFFF; fill-opacity:1.0; 
stroke:#FFFFFF; stroke-width:21.200000; stroke-opacity:1; 
stroke-linecap:round; stroke-linejoin:round;">
</g>
<g style="fill:#FFFFFF; fill-opacity:1.0; 
stroke:#FFFFFF; stroke-width:0.001000; stroke-opacity:1; 
stroke-linecap:round; stroke-linejoin:round;">
<circle cx="148782.200000" cy="98910.000000" r="500.000000" /> 
</g>
<g style="fill:#FFFFFF; fill-opacity:1.0; 
stroke:#FFFFFF; stroke-width:21.200000; stroke-opacity:1; 
stroke-linecap:round; stroke-linejoin:round;">
</g>
<g style="fill:#FFFFFF; fill-opacity:1.0; 
stroke:#FFFFFF; stroke-width:0.001000; stroke-opacity:1; 
stroke-linecap:round; stroke-linejoin:round;">
<circle cx="148782.200000" cy="96370.000000" r="500.000000" /> 
</g>
<g style="fill:#FFFFFF; fill-opacity:1.0; 
stroke:#FFFFFF; stroke-width:21.200000; stroke-opacity:1; 
stroke-linecap:round; stroke-linejoin:round;">
</g>
<g style="fill:#FFFFFF; fill-opacity:1.0; 
stroke:#FFFFFF; stroke-width:0.001000; stroke-opacity:1; 
stroke-linecap:round; stroke-linejoin:round;">
<circle cx="148782.200000" cy="93830.000000" r="500.000000" /> 
</g>
<g style="fill:#FFFFFF; fill-opacity:1.0; 
stroke:#FFFFFF; stroke-width:21.200000; stroke-opacity:1; 
stroke-linecap:round; stroke-linejoin:round;">
</g>
<g style="fill:#FFFFFF; fill-opacity:1.0; 
stroke:#FFFFFF; stroke-width:0.001000; stroke-opacity:1; 
stroke-linecap:round; stroke-linejoin:round;">
<circle cx="148782.200000" cy="91290.000000" r="500.000000" /> 
</g>
<g style="fill:#FFFFFF; fill-opacity:1.0; 
stroke:#FFFFFF; stroke-width:21.200000; stroke-opacity:1; 
stroke-linecap:round; stroke-linejoin:round;">
</g>
<g style="fill:#FFFFFF; fill-opacity:1.0; 
stroke:#FFFFFF; stroke-width:0.001000; stroke-opacity:1; 
stroke-linecap:round; stroke-linejoin:round;">
<circle cx="148782.200000" cy="88750.000000" r="500.000000" /> 
</g>
<g style="fill:#FFFFFF; fill-opacity:1.0; 
stroke:#FFFFFF; stroke-width:21.200000; stroke-opacity:1; 
stroke-linecap:round; stroke-linejoin:round;">
</g>
<g style="fill:#FFFFFF; fill-opacity:1.0; 
stroke:#FFFFFF; stroke-width:0.001000; stroke-opacity:1; 
stroke-linecap:round; stroke-linejoin:round;">
<circle cx="148782.200000" cy="86210.000000" r="500.000000" /> 
</g>
<g style="fill:#FFFFFF; fill-opacity:1.0; 
stroke:#FFFFFF; stroke-width:21.200000; stroke-opacity:1; 
stroke-linecap:round; stroke-linejoin:round;">
</g>
<g style="fill:#FFFFFF; fill-opacity:1.0; 
stroke:#FFFFFF; stroke-width:0.001000; stroke-opacity:1; 
stroke-linecap:round; stroke-linejoin:round;">
<circle cx="148782.200000" cy="83670.000000" r="500.000000" /> 
</g>
<g style="fill:#FFFFFF; fill-opacity:1.0; 
stroke:#FFFFFF; stroke-width:21.200000; stroke-opacity:1; 
stroke-linecap:round; stroke-linejoin:round;">
</g>
<g style="fill:#FFFFFF; fill-opacity:1.0; 
stroke:#FFFFFF; stroke-width:0.001000; stroke-opacity:1; 
stroke-linecap:round; stroke-linejoin:round;">
<circle cx="148782.200000" cy="81130.000000" r="500.000000" /> 
</g>
<g style="fill:#FFFFFF; fill-opacity:1.0; 
stroke:#FFFFFF; stroke-width:21.200000; stroke-opacity:1; 
stroke-linecap:round; stroke-linejoin:round;">
</g>
<g style="fill:#FFFFFF; fill-opacity:1.0; 
stroke:#FFFFFF; stroke-width:0.001000; stroke-opacity:1; 
stroke-linecap:round; stroke-linejoin:round;">
<circle cx="148782.200000" cy="78590.000000" r="500.000000" /> 
</g>
<g style="fill:#FFFFFF; fill-opacity:1.0; 
stroke:#FFFFFF; stroke-width:21.200000; stroke-opacity:1; 
stroke-linecap:round; stroke-linejoin:round;">
</g>
<g style="fill:#FFFFFF; fill-opacity:1.0; 
stroke:#FFFFFF; stroke-width:0.001000; stroke-opacity:1; 
stroke-linecap:round; stroke-linejoin:round;">
<circle cx="148782.200000" cy="76050.000000" r="500.000000" /> 
</g>
<g style="fill:#FFFFFF; fill-opacity:1.0; 
stroke:#FFFFFF; stroke-width:21.200000; stroke-opacity:1; 
stroke-linecap:round; stroke-linejoin:round;">
</g>
<g style="fill:#FFFFFF; fill-opacity:1.0; 
stroke:#FFFFFF; stroke-width:0.001000; stroke-opacity:1; 
stroke-linecap:round; stroke-linejoin:round;">
<circle cx="148782.200000" cy="73510.000000" r="500.000000" /> 
</g>
<g style="fill:#FFFFFF; fill-opacity:1.0; 
stroke:#FFFFFF; stroke-width:21.200000; stroke-opacity:1; 
stroke-linecap:round; stroke-linejoin:round;">
</g>
<g style="fill:#FFFFFF; fill-opacity:1.0; 
stroke:#FFFFFF; stroke-width:0.001000; stroke-opacity:1; 
stroke-linecap:round; stroke-linejoin:round;">
<circle cx="148782.200000" cy="70970.000000" r="500.000000" /> 
</g>
<g style="fill:#FFFFFF; fill-opacity:1.0; 
stroke:#FFFFFF; stroke-width:21.200000; stroke-opacity:1; 
stroke-linecap:round; stroke-linejoin:round;">
</g>
<g style="fill:#FFFFFF; fill-opacity:1.0; 
stroke:#FFFFFF; stroke-width:0.001000; stroke-opacity:1; 
stroke-linecap:round; stroke-linejoin:round;">
<circle cx="173397.200000" cy="99355.000000" r="500.000000" /> 
</g>
<g style="fill:#FFFFFF; fill-opacity:1.0; 
stroke:#FFFFFF; stroke-width:21.200000; stroke-opacity:1; 
stroke-linecap:round; stroke-linejoin:round;">
</g>
<g style="fill:#000000; fill-opacity:1.0; 
stroke:#000000; stroke-width:21.200000; stroke-opacity:1; 
stroke-linecap:round; stroke-linejoin:round;">
</g> 
</svg>
