G04 #@! TF.GenerationSoftware,KiCad,Pcbnew,(2017-01-24 revision 0b6147e)-makepkg*
G04 #@! TF.CreationDate,2017-01-27T23:50:26+05:30*
G04 #@! TF.ProjectId,7segment,377365676D656E742E6B696361645F70,0.01*
G04 #@! TF.FileFunction,Copper,L1,Top,Signal*
G04 #@! TF.FilePolarity,Positive*
%FSLAX46Y46*%
G04 Gerber Fmt 4.6, Leading zero omitted, Abs format (unit mm)*
G04 Created by KiCad (PCBNEW (2017-01-24 revision 0b6147e)-makepkg) date 01/27/17 23:50:26*
%MOMM*%
%LPD*%
G01*
G04 APERTURE LIST*
%ADD10C,0.100000*%
%ADD11O,1.524000X2.524000*%
%ADD12O,1.600000X1.600000*%
%ADD13R,1.600000X1.600000*%
%ADD14O,2.032000X1.727200*%
%ADD15R,2.032000X1.727200*%
%ADD16R,0.700000X1.300000*%
%ADD17C,0.800000*%
%ADD18C,0.250000*%
%ADD19C,0.254000*%
G04 APERTURE END LIST*
D10*
D11*
X144780000Y-83185000D03*
X147320000Y-83185000D03*
X149860000Y-83185000D03*
X152400000Y-83185000D03*
X154940000Y-83185000D03*
X154940000Y-98425000D03*
X152400000Y-98425000D03*
X149860000Y-98425000D03*
X147320000Y-98425000D03*
X144780000Y-98425000D03*
D12*
X121285000Y-100330000D03*
X128905000Y-82550000D03*
X121285000Y-97790000D03*
X128905000Y-85090000D03*
X121285000Y-95250000D03*
X128905000Y-87630000D03*
X121285000Y-92710000D03*
X128905000Y-90170000D03*
X121285000Y-90170000D03*
X128905000Y-92710000D03*
X121285000Y-87630000D03*
X128905000Y-95250000D03*
X121285000Y-85090000D03*
X128905000Y-97790000D03*
X121285000Y-82550000D03*
D13*
X128905000Y-100330000D03*
D14*
X113030000Y-86360000D03*
X113030000Y-88900000D03*
X113030000Y-91440000D03*
X113030000Y-93980000D03*
D15*
X113030000Y-96520000D03*
D16*
X137856000Y-80772000D03*
X135956000Y-80772000D03*
X135956000Y-83312000D03*
X137856000Y-83312000D03*
X137856000Y-86106000D03*
X135956000Y-86106000D03*
X135956000Y-89662000D03*
X137856000Y-89662000D03*
X137856000Y-92964000D03*
X135956000Y-92964000D03*
X135956000Y-96012000D03*
X137856000Y-96012000D03*
X137856000Y-99060000D03*
X135956000Y-99060000D03*
X135956000Y-102108000D03*
X137856000Y-102108000D03*
D17*
X123952000Y-99060000D03*
X123952000Y-96520000D03*
X148082000Y-80772000D03*
X143002000Y-92964000D03*
X148590000Y-101600000D03*
X151638000Y-87376000D03*
X140716000Y-97536000D03*
X148844000Y-103124000D03*
D18*
X113030000Y-86360000D02*
X120015000Y-86360000D01*
X120015000Y-86360000D02*
X121285000Y-87630000D01*
X113030000Y-88900000D02*
X120015000Y-88900000D01*
X120015000Y-88900000D02*
X121285000Y-90170000D01*
X113030000Y-91440000D02*
X113665000Y-91440000D01*
X113030000Y-93980000D02*
X120015000Y-93980000D01*
X120015000Y-93980000D02*
X121285000Y-92710000D01*
X129032000Y-78740000D02*
X149860000Y-78740000D01*
X149860000Y-78740000D02*
X149860000Y-83185000D01*
X110744000Y-78740000D02*
X129032000Y-78740000D01*
X128905000Y-78867000D02*
X128905000Y-82550000D01*
X129032000Y-78740000D02*
X128905000Y-78867000D01*
X113030000Y-93980000D02*
X110744000Y-93980000D01*
X110744000Y-93980000D02*
X110744000Y-78740000D01*
X121285000Y-85090000D02*
X123952000Y-85090000D01*
X123952000Y-99060000D02*
X123952000Y-104648000D01*
X123952000Y-85090000D02*
X123952000Y-96520000D01*
X116840000Y-100330000D02*
X116840000Y-104648000D01*
X149860000Y-104648000D02*
X149860000Y-98425000D01*
X116840000Y-104648000D02*
X123952000Y-104648000D01*
X123952000Y-104648000D02*
X149860000Y-104648000D01*
X121285000Y-100330000D02*
X116840000Y-100330000D01*
X116840000Y-100330000D02*
X113030000Y-96520000D01*
X138110000Y-80772000D02*
X148082000Y-80772000D01*
X128905000Y-85090000D02*
X129286000Y-85090000D01*
X129286000Y-85090000D02*
X133604000Y-80772000D01*
X133604000Y-80772000D02*
X136210000Y-80772000D01*
X128905000Y-85090000D02*
X129032000Y-85090000D01*
X128905000Y-87630000D02*
X129032000Y-87630000D01*
X129032000Y-87630000D02*
X133350000Y-83312000D01*
X133350000Y-83312000D02*
X135956000Y-83312000D01*
X128905000Y-87630000D02*
X128905000Y-86995000D01*
X136525000Y-83185000D02*
X136210000Y-83185000D01*
X144780000Y-83185000D02*
X138110000Y-83185000D01*
X147320000Y-83185000D02*
X147320000Y-86106000D01*
X147320000Y-86106000D02*
X137856000Y-86106000D01*
X128905000Y-90170000D02*
X129032000Y-90170000D01*
X129032000Y-90170000D02*
X133096000Y-86106000D01*
X133096000Y-86106000D02*
X135956000Y-86106000D01*
X128905000Y-92710000D02*
X129032000Y-92710000D01*
X129032000Y-92710000D02*
X132080000Y-89662000D01*
X132080000Y-89662000D02*
X135956000Y-89662000D01*
X137856000Y-89662000D02*
X144780000Y-89662000D01*
X144780000Y-89662000D02*
X144780000Y-98425000D01*
X138110000Y-89535000D02*
X137795000Y-89535000D01*
X137856000Y-92964000D02*
X143002000Y-92964000D01*
X137795000Y-92710000D02*
X138110000Y-92710000D01*
X128905000Y-95250000D02*
X129540000Y-95250000D01*
X129540000Y-95250000D02*
X131826000Y-92964000D01*
X131826000Y-92964000D02*
X135956000Y-92964000D01*
X136525000Y-92710000D02*
X136210000Y-92710000D01*
X128905000Y-97790000D02*
X129540000Y-97790000D01*
X129540000Y-97790000D02*
X131318000Y-96012000D01*
X131318000Y-96012000D02*
X135956000Y-96012000D01*
X137856000Y-96012000D02*
X142748000Y-96012000D01*
X142748000Y-101600000D02*
X148590000Y-101600000D01*
X142748000Y-96012000D02*
X142748000Y-101600000D01*
X137795000Y-95885000D02*
X138110000Y-95885000D01*
X140716000Y-99060000D02*
X140716000Y-97536000D01*
X137856000Y-99060000D02*
X140716000Y-99060000D01*
X154940000Y-87376000D02*
X154940000Y-83185000D01*
X151638000Y-87376000D02*
X154940000Y-87376000D01*
X137795000Y-99060000D02*
X138110000Y-99060000D01*
X128905000Y-100330000D02*
X134686000Y-100330000D01*
X134686000Y-100330000D02*
X135956000Y-99060000D01*
X135890000Y-98425000D02*
X136525000Y-99060000D01*
X136525000Y-99060000D02*
X136210000Y-99060000D01*
X121285000Y-97790000D02*
X124968000Y-97790000D01*
X125476000Y-102108000D02*
X135956000Y-102108000D01*
X125222000Y-101854000D02*
X125476000Y-102108000D01*
X125222000Y-98044000D02*
X125222000Y-101854000D01*
X124968000Y-97790000D02*
X125222000Y-98044000D01*
X136525000Y-102235000D02*
X136210000Y-102235000D01*
X137856000Y-102108000D02*
X140462000Y-102108000D01*
X141478000Y-103124000D02*
X148844000Y-103124000D01*
X140462000Y-102108000D02*
X141478000Y-103124000D01*
D19*
G36*
X157861000Y-105970000D02*
X109930000Y-105970000D01*
X109930000Y-100679039D01*
X119893096Y-100679039D01*
X120053959Y-101067423D01*
X120429866Y-101482389D01*
X120935959Y-101721914D01*
X121158000Y-101600629D01*
X121158000Y-100457000D01*
X121412000Y-100457000D01*
X121412000Y-101600629D01*
X121634041Y-101721914D01*
X122140134Y-101482389D01*
X122516041Y-101067423D01*
X122676904Y-100679039D01*
X122554915Y-100457000D01*
X121412000Y-100457000D01*
X121158000Y-100457000D01*
X120015085Y-100457000D01*
X119893096Y-100679039D01*
X109930000Y-100679039D01*
X109930000Y-96805750D01*
X111379000Y-96805750D01*
X111379000Y-97509909D01*
X111475673Y-97743298D01*
X111654301Y-97921927D01*
X111887690Y-98018600D01*
X112744250Y-98018600D01*
X112903000Y-97859850D01*
X112903000Y-96647000D01*
X113157000Y-96647000D01*
X113157000Y-97859850D01*
X113315750Y-98018600D01*
X114172310Y-98018600D01*
X114405699Y-97921927D01*
X114584327Y-97743298D01*
X114681000Y-97509909D01*
X114681000Y-96805750D01*
X114522250Y-96647000D01*
X113157000Y-96647000D01*
X112903000Y-96647000D01*
X111537750Y-96647000D01*
X111379000Y-96805750D01*
X109930000Y-96805750D01*
X109930000Y-78740000D01*
X109984000Y-78740000D01*
X109984000Y-93980000D01*
X110041852Y-94270839D01*
X110206599Y-94517401D01*
X110453161Y-94682148D01*
X110744000Y-94740000D01*
X111585352Y-94740000D01*
X111785585Y-95039670D01*
X111807780Y-95054500D01*
X111654301Y-95118073D01*
X111475673Y-95296702D01*
X111379000Y-95530091D01*
X111379000Y-96234250D01*
X111537750Y-96393000D01*
X112903000Y-96393000D01*
X112903000Y-96373000D01*
X113157000Y-96373000D01*
X113157000Y-96393000D01*
X114522250Y-96393000D01*
X114681000Y-96234250D01*
X114681000Y-95530091D01*
X114584327Y-95296702D01*
X114405699Y-95118073D01*
X114252220Y-95054500D01*
X114274415Y-95039670D01*
X114474648Y-94740000D01*
X119923332Y-94740000D01*
X119821887Y-95250000D01*
X119931120Y-95799151D01*
X120242189Y-96264698D01*
X120624275Y-96520000D01*
X120242189Y-96775302D01*
X119931120Y-97240849D01*
X119821887Y-97790000D01*
X119931120Y-98339151D01*
X120242189Y-98804698D01*
X120646703Y-99074986D01*
X120429866Y-99177611D01*
X120053959Y-99592577D01*
X119893096Y-99980961D01*
X120015085Y-100203000D01*
X121158000Y-100203000D01*
X121158000Y-100183000D01*
X121412000Y-100183000D01*
X121412000Y-100203000D01*
X122554915Y-100203000D01*
X122676904Y-99980961D01*
X122516041Y-99592577D01*
X122140134Y-99177611D01*
X121923297Y-99074986D01*
X122327811Y-98804698D01*
X122497995Y-98550000D01*
X124462000Y-98550000D01*
X124462000Y-101854000D01*
X124519852Y-102144839D01*
X124684599Y-102391401D01*
X124938599Y-102645401D01*
X125185160Y-102810148D01*
X125476000Y-102868000D01*
X134980440Y-102868000D01*
X135007843Y-103005765D01*
X135148191Y-103215809D01*
X135358235Y-103356157D01*
X135606000Y-103405440D01*
X136306000Y-103405440D01*
X136553765Y-103356157D01*
X136763809Y-103215809D01*
X136904157Y-103005765D01*
X136906000Y-102996500D01*
X136907843Y-103005765D01*
X137048191Y-103215809D01*
X137258235Y-103356157D01*
X137506000Y-103405440D01*
X138206000Y-103405440D01*
X138453765Y-103356157D01*
X138663809Y-103215809D01*
X138804157Y-103005765D01*
X138831560Y-102868000D01*
X140147198Y-102868000D01*
X140940599Y-103661401D01*
X141187161Y-103826148D01*
X141478000Y-103884000D01*
X148140239Y-103884000D01*
X148256954Y-104000919D01*
X148637223Y-104158820D01*
X149048971Y-104159179D01*
X149429515Y-104001942D01*
X149720919Y-103711046D01*
X149878820Y-103330777D01*
X149879179Y-102919029D01*
X149721942Y-102538485D01*
X149431046Y-102247081D01*
X149413908Y-102239965D01*
X149466919Y-102187046D01*
X149624820Y-101806777D01*
X149625179Y-101395029D01*
X149467942Y-101014485D01*
X149177046Y-100723081D01*
X148796777Y-100565180D01*
X148385029Y-100564821D01*
X148004485Y-100722058D01*
X147886337Y-100840000D01*
X143508000Y-100840000D01*
X143508000Y-99524700D01*
X143792172Y-99949992D01*
X144245391Y-100252824D01*
X144780000Y-100359164D01*
X145314609Y-100252824D01*
X145767828Y-99949992D01*
X146050000Y-99527693D01*
X146332172Y-99949992D01*
X146785391Y-100252824D01*
X147320000Y-100359164D01*
X147854609Y-100252824D01*
X148307828Y-99949992D01*
X148599298Y-99513778D01*
X148617941Y-99576941D01*
X148961974Y-100002630D01*
X149442723Y-100264260D01*
X149516930Y-100279220D01*
X149733000Y-100156720D01*
X149733000Y-98552000D01*
X149713000Y-98552000D01*
X149713000Y-98298000D01*
X149733000Y-98298000D01*
X149733000Y-96693280D01*
X149987000Y-96693280D01*
X149987000Y-98298000D01*
X150007000Y-98298000D01*
X150007000Y-98552000D01*
X149987000Y-98552000D01*
X149987000Y-100156720D01*
X150203070Y-100279220D01*
X150277277Y-100264260D01*
X150758026Y-100002630D01*
X151102059Y-99576941D01*
X151120702Y-99513778D01*
X151412172Y-99949992D01*
X151865391Y-100252824D01*
X152400000Y-100359164D01*
X152934609Y-100252824D01*
X153387828Y-99949992D01*
X153670000Y-99527693D01*
X153952172Y-99949992D01*
X154405391Y-100252824D01*
X154940000Y-100359164D01*
X155474609Y-100252824D01*
X155927828Y-99949992D01*
X156230660Y-99496773D01*
X156337000Y-98962164D01*
X156337000Y-97887836D01*
X156230660Y-97353227D01*
X155927828Y-96900008D01*
X155474609Y-96597176D01*
X154940000Y-96490836D01*
X154405391Y-96597176D01*
X153952172Y-96900008D01*
X153670000Y-97322307D01*
X153387828Y-96900008D01*
X152934609Y-96597176D01*
X152400000Y-96490836D01*
X151865391Y-96597176D01*
X151412172Y-96900008D01*
X151120702Y-97336222D01*
X151102059Y-97273059D01*
X150758026Y-96847370D01*
X150277277Y-96585740D01*
X150203070Y-96570780D01*
X149987000Y-96693280D01*
X149733000Y-96693280D01*
X149516930Y-96570780D01*
X149442723Y-96585740D01*
X148961974Y-96847370D01*
X148617941Y-97273059D01*
X148599298Y-97336222D01*
X148307828Y-96900008D01*
X147854609Y-96597176D01*
X147320000Y-96490836D01*
X146785391Y-96597176D01*
X146332172Y-96900008D01*
X146050000Y-97322307D01*
X145767828Y-96900008D01*
X145540000Y-96747778D01*
X145540000Y-89662000D01*
X145482148Y-89371161D01*
X145317401Y-89124599D01*
X145070839Y-88959852D01*
X144780000Y-88902000D01*
X138831560Y-88902000D01*
X138804157Y-88764235D01*
X138663809Y-88554191D01*
X138453765Y-88413843D01*
X138206000Y-88364560D01*
X137506000Y-88364560D01*
X137258235Y-88413843D01*
X137048191Y-88554191D01*
X136907843Y-88764235D01*
X136906000Y-88773500D01*
X136904157Y-88764235D01*
X136763809Y-88554191D01*
X136553765Y-88413843D01*
X136306000Y-88364560D01*
X135606000Y-88364560D01*
X135358235Y-88413843D01*
X135148191Y-88554191D01*
X135007843Y-88764235D01*
X134980440Y-88902000D01*
X132080000Y-88902000D01*
X131789161Y-88959852D01*
X131542599Y-89124599D01*
X130336061Y-90331137D01*
X130368113Y-90170000D01*
X130324759Y-89952043D01*
X133410802Y-86866000D01*
X134980440Y-86866000D01*
X135007843Y-87003765D01*
X135148191Y-87213809D01*
X135358235Y-87354157D01*
X135606000Y-87403440D01*
X136306000Y-87403440D01*
X136553765Y-87354157D01*
X136763809Y-87213809D01*
X136904157Y-87003765D01*
X136906000Y-86994500D01*
X136907843Y-87003765D01*
X137048191Y-87213809D01*
X137258235Y-87354157D01*
X137506000Y-87403440D01*
X138206000Y-87403440D01*
X138453765Y-87354157D01*
X138663809Y-87213809D01*
X138804157Y-87003765D01*
X138831560Y-86866000D01*
X147320000Y-86866000D01*
X147610839Y-86808148D01*
X147857401Y-86643401D01*
X148022148Y-86396839D01*
X148080000Y-86106000D01*
X148080000Y-84862222D01*
X148307828Y-84709992D01*
X148590000Y-84287693D01*
X148872172Y-84709992D01*
X149325391Y-85012824D01*
X149860000Y-85119164D01*
X150394609Y-85012824D01*
X150847828Y-84709992D01*
X151130000Y-84287693D01*
X151412172Y-84709992D01*
X151865391Y-85012824D01*
X152400000Y-85119164D01*
X152934609Y-85012824D01*
X153387828Y-84709992D01*
X153670000Y-84287693D01*
X153952172Y-84709992D01*
X154180000Y-84862222D01*
X154180000Y-86616000D01*
X152341761Y-86616000D01*
X152225046Y-86499081D01*
X151844777Y-86341180D01*
X151433029Y-86340821D01*
X151052485Y-86498058D01*
X150761081Y-86788954D01*
X150603180Y-87169223D01*
X150602821Y-87580971D01*
X150760058Y-87961515D01*
X151050954Y-88252919D01*
X151431223Y-88410820D01*
X151842971Y-88411179D01*
X152223515Y-88253942D01*
X152341663Y-88136000D01*
X154940000Y-88136000D01*
X155230839Y-88078148D01*
X155477401Y-87913401D01*
X155642148Y-87666839D01*
X155700000Y-87376000D01*
X155700000Y-84862222D01*
X155927828Y-84709992D01*
X156230660Y-84256773D01*
X156337000Y-83722164D01*
X156337000Y-82647836D01*
X156230660Y-82113227D01*
X155927828Y-81660008D01*
X155474609Y-81357176D01*
X154940000Y-81250836D01*
X154405391Y-81357176D01*
X153952172Y-81660008D01*
X153670000Y-82082307D01*
X153387828Y-81660008D01*
X152934609Y-81357176D01*
X152400000Y-81250836D01*
X151865391Y-81357176D01*
X151412172Y-81660008D01*
X151130000Y-82082307D01*
X150847828Y-81660008D01*
X150620000Y-81507778D01*
X150620000Y-78740000D01*
X150562148Y-78449161D01*
X150397401Y-78202599D01*
X150150839Y-78037852D01*
X149860000Y-77980000D01*
X110744000Y-77980000D01*
X110453161Y-78037852D01*
X110206599Y-78202599D01*
X110041852Y-78449161D01*
X109984000Y-78740000D01*
X109930000Y-78740000D01*
X109930000Y-76910000D01*
X157861000Y-76910000D01*
X157861000Y-105970000D01*
X157861000Y-105970000D01*
G37*
X157861000Y-105970000D02*
X109930000Y-105970000D01*
X109930000Y-100679039D01*
X119893096Y-100679039D01*
X120053959Y-101067423D01*
X120429866Y-101482389D01*
X120935959Y-101721914D01*
X121158000Y-101600629D01*
X121158000Y-100457000D01*
X121412000Y-100457000D01*
X121412000Y-101600629D01*
X121634041Y-101721914D01*
X122140134Y-101482389D01*
X122516041Y-101067423D01*
X122676904Y-100679039D01*
X122554915Y-100457000D01*
X121412000Y-100457000D01*
X121158000Y-100457000D01*
X120015085Y-100457000D01*
X119893096Y-100679039D01*
X109930000Y-100679039D01*
X109930000Y-96805750D01*
X111379000Y-96805750D01*
X111379000Y-97509909D01*
X111475673Y-97743298D01*
X111654301Y-97921927D01*
X111887690Y-98018600D01*
X112744250Y-98018600D01*
X112903000Y-97859850D01*
X112903000Y-96647000D01*
X113157000Y-96647000D01*
X113157000Y-97859850D01*
X113315750Y-98018600D01*
X114172310Y-98018600D01*
X114405699Y-97921927D01*
X114584327Y-97743298D01*
X114681000Y-97509909D01*
X114681000Y-96805750D01*
X114522250Y-96647000D01*
X113157000Y-96647000D01*
X112903000Y-96647000D01*
X111537750Y-96647000D01*
X111379000Y-96805750D01*
X109930000Y-96805750D01*
X109930000Y-78740000D01*
X109984000Y-78740000D01*
X109984000Y-93980000D01*
X110041852Y-94270839D01*
X110206599Y-94517401D01*
X110453161Y-94682148D01*
X110744000Y-94740000D01*
X111585352Y-94740000D01*
X111785585Y-95039670D01*
X111807780Y-95054500D01*
X111654301Y-95118073D01*
X111475673Y-95296702D01*
X111379000Y-95530091D01*
X111379000Y-96234250D01*
X111537750Y-96393000D01*
X112903000Y-96393000D01*
X112903000Y-96373000D01*
X113157000Y-96373000D01*
X113157000Y-96393000D01*
X114522250Y-96393000D01*
X114681000Y-96234250D01*
X114681000Y-95530091D01*
X114584327Y-95296702D01*
X114405699Y-95118073D01*
X114252220Y-95054500D01*
X114274415Y-95039670D01*
X114474648Y-94740000D01*
X119923332Y-94740000D01*
X119821887Y-95250000D01*
X119931120Y-95799151D01*
X120242189Y-96264698D01*
X120624275Y-96520000D01*
X120242189Y-96775302D01*
X119931120Y-97240849D01*
X119821887Y-97790000D01*
X119931120Y-98339151D01*
X120242189Y-98804698D01*
X120646703Y-99074986D01*
X120429866Y-99177611D01*
X120053959Y-99592577D01*
X119893096Y-99980961D01*
X120015085Y-100203000D01*
X121158000Y-100203000D01*
X121158000Y-100183000D01*
X121412000Y-100183000D01*
X121412000Y-100203000D01*
X122554915Y-100203000D01*
X122676904Y-99980961D01*
X122516041Y-99592577D01*
X122140134Y-99177611D01*
X121923297Y-99074986D01*
X122327811Y-98804698D01*
X122497995Y-98550000D01*
X124462000Y-98550000D01*
X124462000Y-101854000D01*
X124519852Y-102144839D01*
X124684599Y-102391401D01*
X124938599Y-102645401D01*
X125185160Y-102810148D01*
X125476000Y-102868000D01*
X134980440Y-102868000D01*
X135007843Y-103005765D01*
X135148191Y-103215809D01*
X135358235Y-103356157D01*
X135606000Y-103405440D01*
X136306000Y-103405440D01*
X136553765Y-103356157D01*
X136763809Y-103215809D01*
X136904157Y-103005765D01*
X136906000Y-102996500D01*
X136907843Y-103005765D01*
X137048191Y-103215809D01*
X137258235Y-103356157D01*
X137506000Y-103405440D01*
X138206000Y-103405440D01*
X138453765Y-103356157D01*
X138663809Y-103215809D01*
X138804157Y-103005765D01*
X138831560Y-102868000D01*
X140147198Y-102868000D01*
X140940599Y-103661401D01*
X141187161Y-103826148D01*
X141478000Y-103884000D01*
X148140239Y-103884000D01*
X148256954Y-104000919D01*
X148637223Y-104158820D01*
X149048971Y-104159179D01*
X149429515Y-104001942D01*
X149720919Y-103711046D01*
X149878820Y-103330777D01*
X149879179Y-102919029D01*
X149721942Y-102538485D01*
X149431046Y-102247081D01*
X149413908Y-102239965D01*
X149466919Y-102187046D01*
X149624820Y-101806777D01*
X149625179Y-101395029D01*
X149467942Y-101014485D01*
X149177046Y-100723081D01*
X148796777Y-100565180D01*
X148385029Y-100564821D01*
X148004485Y-100722058D01*
X147886337Y-100840000D01*
X143508000Y-100840000D01*
X143508000Y-99524700D01*
X143792172Y-99949992D01*
X144245391Y-100252824D01*
X144780000Y-100359164D01*
X145314609Y-100252824D01*
X145767828Y-99949992D01*
X146050000Y-99527693D01*
X146332172Y-99949992D01*
X146785391Y-100252824D01*
X147320000Y-100359164D01*
X147854609Y-100252824D01*
X148307828Y-99949992D01*
X148599298Y-99513778D01*
X148617941Y-99576941D01*
X148961974Y-100002630D01*
X149442723Y-100264260D01*
X149516930Y-100279220D01*
X149733000Y-100156720D01*
X149733000Y-98552000D01*
X149713000Y-98552000D01*
X149713000Y-98298000D01*
X149733000Y-98298000D01*
X149733000Y-96693280D01*
X149987000Y-96693280D01*
X149987000Y-98298000D01*
X150007000Y-98298000D01*
X150007000Y-98552000D01*
X149987000Y-98552000D01*
X149987000Y-100156720D01*
X150203070Y-100279220D01*
X150277277Y-100264260D01*
X150758026Y-100002630D01*
X151102059Y-99576941D01*
X151120702Y-99513778D01*
X151412172Y-99949992D01*
X151865391Y-100252824D01*
X152400000Y-100359164D01*
X152934609Y-100252824D01*
X153387828Y-99949992D01*
X153670000Y-99527693D01*
X153952172Y-99949992D01*
X154405391Y-100252824D01*
X154940000Y-100359164D01*
X155474609Y-100252824D01*
X155927828Y-99949992D01*
X156230660Y-99496773D01*
X156337000Y-98962164D01*
X156337000Y-97887836D01*
X156230660Y-97353227D01*
X155927828Y-96900008D01*
X155474609Y-96597176D01*
X154940000Y-96490836D01*
X154405391Y-96597176D01*
X153952172Y-96900008D01*
X153670000Y-97322307D01*
X153387828Y-96900008D01*
X152934609Y-96597176D01*
X152400000Y-96490836D01*
X151865391Y-96597176D01*
X151412172Y-96900008D01*
X151120702Y-97336222D01*
X151102059Y-97273059D01*
X150758026Y-96847370D01*
X150277277Y-96585740D01*
X150203070Y-96570780D01*
X149987000Y-96693280D01*
X149733000Y-96693280D01*
X149516930Y-96570780D01*
X149442723Y-96585740D01*
X148961974Y-96847370D01*
X148617941Y-97273059D01*
X148599298Y-97336222D01*
X148307828Y-96900008D01*
X147854609Y-96597176D01*
X147320000Y-96490836D01*
X146785391Y-96597176D01*
X146332172Y-96900008D01*
X146050000Y-97322307D01*
X145767828Y-96900008D01*
X145540000Y-96747778D01*
X145540000Y-89662000D01*
X145482148Y-89371161D01*
X145317401Y-89124599D01*
X145070839Y-88959852D01*
X144780000Y-88902000D01*
X138831560Y-88902000D01*
X138804157Y-88764235D01*
X138663809Y-88554191D01*
X138453765Y-88413843D01*
X138206000Y-88364560D01*
X137506000Y-88364560D01*
X137258235Y-88413843D01*
X137048191Y-88554191D01*
X136907843Y-88764235D01*
X136906000Y-88773500D01*
X136904157Y-88764235D01*
X136763809Y-88554191D01*
X136553765Y-88413843D01*
X136306000Y-88364560D01*
X135606000Y-88364560D01*
X135358235Y-88413843D01*
X135148191Y-88554191D01*
X135007843Y-88764235D01*
X134980440Y-88902000D01*
X132080000Y-88902000D01*
X131789161Y-88959852D01*
X131542599Y-89124599D01*
X130336061Y-90331137D01*
X130368113Y-90170000D01*
X130324759Y-89952043D01*
X133410802Y-86866000D01*
X134980440Y-86866000D01*
X135007843Y-87003765D01*
X135148191Y-87213809D01*
X135358235Y-87354157D01*
X135606000Y-87403440D01*
X136306000Y-87403440D01*
X136553765Y-87354157D01*
X136763809Y-87213809D01*
X136904157Y-87003765D01*
X136906000Y-86994500D01*
X136907843Y-87003765D01*
X137048191Y-87213809D01*
X137258235Y-87354157D01*
X137506000Y-87403440D01*
X138206000Y-87403440D01*
X138453765Y-87354157D01*
X138663809Y-87213809D01*
X138804157Y-87003765D01*
X138831560Y-86866000D01*
X147320000Y-86866000D01*
X147610839Y-86808148D01*
X147857401Y-86643401D01*
X148022148Y-86396839D01*
X148080000Y-86106000D01*
X148080000Y-84862222D01*
X148307828Y-84709992D01*
X148590000Y-84287693D01*
X148872172Y-84709992D01*
X149325391Y-85012824D01*
X149860000Y-85119164D01*
X150394609Y-85012824D01*
X150847828Y-84709992D01*
X151130000Y-84287693D01*
X151412172Y-84709992D01*
X151865391Y-85012824D01*
X152400000Y-85119164D01*
X152934609Y-85012824D01*
X153387828Y-84709992D01*
X153670000Y-84287693D01*
X153952172Y-84709992D01*
X154180000Y-84862222D01*
X154180000Y-86616000D01*
X152341761Y-86616000D01*
X152225046Y-86499081D01*
X151844777Y-86341180D01*
X151433029Y-86340821D01*
X151052485Y-86498058D01*
X150761081Y-86788954D01*
X150603180Y-87169223D01*
X150602821Y-87580971D01*
X150760058Y-87961515D01*
X151050954Y-88252919D01*
X151431223Y-88410820D01*
X151842971Y-88411179D01*
X152223515Y-88253942D01*
X152341663Y-88136000D01*
X154940000Y-88136000D01*
X155230839Y-88078148D01*
X155477401Y-87913401D01*
X155642148Y-87666839D01*
X155700000Y-87376000D01*
X155700000Y-84862222D01*
X155927828Y-84709992D01*
X156230660Y-84256773D01*
X156337000Y-83722164D01*
X156337000Y-82647836D01*
X156230660Y-82113227D01*
X155927828Y-81660008D01*
X155474609Y-81357176D01*
X154940000Y-81250836D01*
X154405391Y-81357176D01*
X153952172Y-81660008D01*
X153670000Y-82082307D01*
X153387828Y-81660008D01*
X152934609Y-81357176D01*
X152400000Y-81250836D01*
X151865391Y-81357176D01*
X151412172Y-81660008D01*
X151130000Y-82082307D01*
X150847828Y-81660008D01*
X150620000Y-81507778D01*
X150620000Y-78740000D01*
X150562148Y-78449161D01*
X150397401Y-78202599D01*
X150150839Y-78037852D01*
X149860000Y-77980000D01*
X110744000Y-77980000D01*
X110453161Y-78037852D01*
X110206599Y-78202599D01*
X110041852Y-78449161D01*
X109984000Y-78740000D01*
X109930000Y-78740000D01*
X109930000Y-76910000D01*
X157861000Y-76910000D01*
X157861000Y-105970000D01*
G36*
X128145000Y-81346333D02*
X127862189Y-81535302D01*
X127551120Y-82000849D01*
X127441887Y-82550000D01*
X127551120Y-83099151D01*
X127862189Y-83564698D01*
X128244275Y-83820000D01*
X127862189Y-84075302D01*
X127551120Y-84540849D01*
X127441887Y-85090000D01*
X127551120Y-85639151D01*
X127862189Y-86104698D01*
X128244275Y-86360000D01*
X127862189Y-86615302D01*
X127551120Y-87080849D01*
X127441887Y-87630000D01*
X127551120Y-88179151D01*
X127862189Y-88644698D01*
X128244275Y-88900000D01*
X127862189Y-89155302D01*
X127551120Y-89620849D01*
X127441887Y-90170000D01*
X127551120Y-90719151D01*
X127862189Y-91184698D01*
X128244275Y-91440000D01*
X127862189Y-91695302D01*
X127551120Y-92160849D01*
X127441887Y-92710000D01*
X127551120Y-93259151D01*
X127862189Y-93724698D01*
X128244275Y-93980000D01*
X127862189Y-94235302D01*
X127551120Y-94700849D01*
X127441887Y-95250000D01*
X127551120Y-95799151D01*
X127862189Y-96264698D01*
X128244275Y-96520000D01*
X127862189Y-96775302D01*
X127551120Y-97240849D01*
X127441887Y-97790000D01*
X127551120Y-98339151D01*
X127862189Y-98804698D01*
X128007687Y-98901917D01*
X127857235Y-98931843D01*
X127647191Y-99072191D01*
X127506843Y-99282235D01*
X127457560Y-99530000D01*
X127457560Y-101130000D01*
X127500922Y-101348000D01*
X125982000Y-101348000D01*
X125982000Y-98044000D01*
X125924148Y-97753161D01*
X125924148Y-97753160D01*
X125759401Y-97506599D01*
X125505401Y-97252599D01*
X125258839Y-97087852D01*
X124968000Y-97030000D01*
X122497995Y-97030000D01*
X122327811Y-96775302D01*
X121945725Y-96520000D01*
X122327811Y-96264698D01*
X122638880Y-95799151D01*
X122748113Y-95250000D01*
X122638880Y-94700849D01*
X122327811Y-94235302D01*
X121945725Y-93980000D01*
X122327811Y-93724698D01*
X122638880Y-93259151D01*
X122748113Y-92710000D01*
X122638880Y-92160849D01*
X122327811Y-91695302D01*
X121945725Y-91440000D01*
X122327811Y-91184698D01*
X122638880Y-90719151D01*
X122748113Y-90170000D01*
X122638880Y-89620849D01*
X122327811Y-89155302D01*
X121945725Y-88900000D01*
X122327811Y-88644698D01*
X122638880Y-88179151D01*
X122748113Y-87630000D01*
X122638880Y-87080849D01*
X122327811Y-86615302D01*
X121923297Y-86345014D01*
X122140134Y-86242389D01*
X122516041Y-85827423D01*
X122676904Y-85439039D01*
X122554915Y-85217000D01*
X121412000Y-85217000D01*
X121412000Y-85237000D01*
X121158000Y-85237000D01*
X121158000Y-85217000D01*
X120015085Y-85217000D01*
X119893096Y-85439039D01*
X119959764Y-85600000D01*
X114474648Y-85600000D01*
X114274415Y-85300330D01*
X113788234Y-84975474D01*
X113214745Y-84861400D01*
X112845255Y-84861400D01*
X112271766Y-84975474D01*
X111785585Y-85300330D01*
X111504000Y-85721751D01*
X111504000Y-82550000D01*
X119821887Y-82550000D01*
X119931120Y-83099151D01*
X120242189Y-83564698D01*
X120646703Y-83834986D01*
X120429866Y-83937611D01*
X120053959Y-84352577D01*
X119893096Y-84740961D01*
X120015085Y-84963000D01*
X121158000Y-84963000D01*
X121158000Y-84943000D01*
X121412000Y-84943000D01*
X121412000Y-84963000D01*
X122554915Y-84963000D01*
X122676904Y-84740961D01*
X122516041Y-84352577D01*
X122140134Y-83937611D01*
X121923297Y-83834986D01*
X122327811Y-83564698D01*
X122638880Y-83099151D01*
X122748113Y-82550000D01*
X122638880Y-82000849D01*
X122327811Y-81535302D01*
X121862264Y-81224233D01*
X121313113Y-81115000D01*
X121256887Y-81115000D01*
X120707736Y-81224233D01*
X120242189Y-81535302D01*
X119931120Y-82000849D01*
X119821887Y-82550000D01*
X111504000Y-82550000D01*
X111504000Y-79500000D01*
X128145000Y-79500000D01*
X128145000Y-81346333D01*
X128145000Y-81346333D01*
G37*
X128145000Y-81346333D02*
X127862189Y-81535302D01*
X127551120Y-82000849D01*
X127441887Y-82550000D01*
X127551120Y-83099151D01*
X127862189Y-83564698D01*
X128244275Y-83820000D01*
X127862189Y-84075302D01*
X127551120Y-84540849D01*
X127441887Y-85090000D01*
X127551120Y-85639151D01*
X127862189Y-86104698D01*
X128244275Y-86360000D01*
X127862189Y-86615302D01*
X127551120Y-87080849D01*
X127441887Y-87630000D01*
X127551120Y-88179151D01*
X127862189Y-88644698D01*
X128244275Y-88900000D01*
X127862189Y-89155302D01*
X127551120Y-89620849D01*
X127441887Y-90170000D01*
X127551120Y-90719151D01*
X127862189Y-91184698D01*
X128244275Y-91440000D01*
X127862189Y-91695302D01*
X127551120Y-92160849D01*
X127441887Y-92710000D01*
X127551120Y-93259151D01*
X127862189Y-93724698D01*
X128244275Y-93980000D01*
X127862189Y-94235302D01*
X127551120Y-94700849D01*
X127441887Y-95250000D01*
X127551120Y-95799151D01*
X127862189Y-96264698D01*
X128244275Y-96520000D01*
X127862189Y-96775302D01*
X127551120Y-97240849D01*
X127441887Y-97790000D01*
X127551120Y-98339151D01*
X127862189Y-98804698D01*
X128007687Y-98901917D01*
X127857235Y-98931843D01*
X127647191Y-99072191D01*
X127506843Y-99282235D01*
X127457560Y-99530000D01*
X127457560Y-101130000D01*
X127500922Y-101348000D01*
X125982000Y-101348000D01*
X125982000Y-98044000D01*
X125924148Y-97753161D01*
X125924148Y-97753160D01*
X125759401Y-97506599D01*
X125505401Y-97252599D01*
X125258839Y-97087852D01*
X124968000Y-97030000D01*
X122497995Y-97030000D01*
X122327811Y-96775302D01*
X121945725Y-96520000D01*
X122327811Y-96264698D01*
X122638880Y-95799151D01*
X122748113Y-95250000D01*
X122638880Y-94700849D01*
X122327811Y-94235302D01*
X121945725Y-93980000D01*
X122327811Y-93724698D01*
X122638880Y-93259151D01*
X122748113Y-92710000D01*
X122638880Y-92160849D01*
X122327811Y-91695302D01*
X121945725Y-91440000D01*
X122327811Y-91184698D01*
X122638880Y-90719151D01*
X122748113Y-90170000D01*
X122638880Y-89620849D01*
X122327811Y-89155302D01*
X121945725Y-88900000D01*
X122327811Y-88644698D01*
X122638880Y-88179151D01*
X122748113Y-87630000D01*
X122638880Y-87080849D01*
X122327811Y-86615302D01*
X121923297Y-86345014D01*
X122140134Y-86242389D01*
X122516041Y-85827423D01*
X122676904Y-85439039D01*
X122554915Y-85217000D01*
X121412000Y-85217000D01*
X121412000Y-85237000D01*
X121158000Y-85237000D01*
X121158000Y-85217000D01*
X120015085Y-85217000D01*
X119893096Y-85439039D01*
X119959764Y-85600000D01*
X114474648Y-85600000D01*
X114274415Y-85300330D01*
X113788234Y-84975474D01*
X113214745Y-84861400D01*
X112845255Y-84861400D01*
X112271766Y-84975474D01*
X111785585Y-85300330D01*
X111504000Y-85721751D01*
X111504000Y-82550000D01*
X119821887Y-82550000D01*
X119931120Y-83099151D01*
X120242189Y-83564698D01*
X120646703Y-83834986D01*
X120429866Y-83937611D01*
X120053959Y-84352577D01*
X119893096Y-84740961D01*
X120015085Y-84963000D01*
X121158000Y-84963000D01*
X121158000Y-84943000D01*
X121412000Y-84943000D01*
X121412000Y-84963000D01*
X122554915Y-84963000D01*
X122676904Y-84740961D01*
X122516041Y-84352577D01*
X122140134Y-83937611D01*
X121923297Y-83834986D01*
X122327811Y-83564698D01*
X122638880Y-83099151D01*
X122748113Y-82550000D01*
X122638880Y-82000849D01*
X122327811Y-81535302D01*
X121862264Y-81224233D01*
X121313113Y-81115000D01*
X121256887Y-81115000D01*
X120707736Y-81224233D01*
X120242189Y-81535302D01*
X119931120Y-82000849D01*
X119821887Y-82550000D01*
X111504000Y-82550000D01*
X111504000Y-79500000D01*
X128145000Y-79500000D01*
X128145000Y-81346333D01*
M02*
