G04 #@! TF.GenerationSoftware,KiCad,Pcbnew,(2017-01-24 revision 0b6147e)-makepkg*
G04 #@! TF.CreationDate,2017-01-27T23:50:26+05:30*
G04 #@! TF.ProjectId,7segment,377365676D656E742E6B696361645F70,0.01*
G04 #@! TF.FileFunction,Other,User*
%FSLAX46Y46*%
G04 Gerber Fmt 4.6, Leading zero omitted, Abs format (unit mm)*
G04 Created by KiCad (PCBNEW (2017-01-24 revision 0b6147e)-makepkg) date 01/27/17 23:50:26*
%MOMM*%
%LPD*%
G01*
G04 APERTURE LIST*
%ADD10C,0.100000*%
%ADD11C,0.050000*%
G04 APERTURE END LIST*
D10*
D11*
X120205000Y-101930000D02*
X130005000Y-101930000D01*
X120205000Y-81030000D02*
X120205000Y-101930000D01*
X130005000Y-81030000D02*
X120205000Y-81030000D01*
X130005000Y-101930000D02*
X130005000Y-81030000D01*
X114780000Y-98270000D02*
X114780000Y-84570000D01*
X111280000Y-98270000D02*
X111280000Y-84570000D01*
X111280000Y-84570000D02*
X114780000Y-84570000D01*
X111280000Y-98270000D02*
X114780000Y-98270000D01*
X138506000Y-79772000D02*
X138506000Y-81772000D01*
X135306000Y-79772000D02*
X135306000Y-81772000D01*
X135306000Y-81772000D02*
X138506000Y-81772000D01*
X135306000Y-79772000D02*
X138506000Y-79772000D01*
X135306000Y-82312000D02*
X138506000Y-82312000D01*
X135306000Y-84312000D02*
X138506000Y-84312000D01*
X135306000Y-82312000D02*
X135306000Y-84312000D01*
X138506000Y-82312000D02*
X138506000Y-84312000D01*
X138506000Y-85106000D02*
X138506000Y-87106000D01*
X135306000Y-85106000D02*
X135306000Y-87106000D01*
X135306000Y-87106000D02*
X138506000Y-87106000D01*
X135306000Y-85106000D02*
X138506000Y-85106000D01*
X135306000Y-88662000D02*
X138506000Y-88662000D01*
X135306000Y-90662000D02*
X138506000Y-90662000D01*
X135306000Y-88662000D02*
X135306000Y-90662000D01*
X138506000Y-88662000D02*
X138506000Y-90662000D01*
X138506000Y-91964000D02*
X138506000Y-93964000D01*
X135306000Y-91964000D02*
X135306000Y-93964000D01*
X135306000Y-93964000D02*
X138506000Y-93964000D01*
X135306000Y-91964000D02*
X138506000Y-91964000D01*
X135306000Y-95012000D02*
X138506000Y-95012000D01*
X135306000Y-97012000D02*
X138506000Y-97012000D01*
X135306000Y-95012000D02*
X135306000Y-97012000D01*
X138506000Y-95012000D02*
X138506000Y-97012000D01*
X138506000Y-98060000D02*
X138506000Y-100060000D01*
X135306000Y-98060000D02*
X135306000Y-100060000D01*
X135306000Y-100060000D02*
X138506000Y-100060000D01*
X135306000Y-98060000D02*
X138506000Y-98060000D01*
X135306000Y-101108000D02*
X138506000Y-101108000D01*
X135306000Y-103108000D02*
X138506000Y-103108000D01*
X135306000Y-101108000D02*
X135306000Y-103108000D01*
X138506000Y-101108000D02*
X138506000Y-103108000D01*
M02*
