G04 #@! TF.GenerationSoftware,KiCad,Pcbnew,(2017-01-24 revision 0b6147e)-makepkg*
G04 #@! TF.CreationDate,2017-01-29T23:02:28+05:30*
G04 #@! TF.ProjectId,attiny13a,617474696E793133612E6B696361645F,0.1*
G04 #@! TF.FileFunction,Copper,L2,Bot,Signal*
G04 #@! TF.FilePolarity,Positive*
%FSLAX46Y46*%
G04 Gerber Fmt 4.6, Leading zero omitted, Abs format (unit mm)*
G04 Created by KiCad (PCBNEW (2017-01-24 revision 0b6147e)-makepkg) date 01/29/17 23:02:28*
%MOMM*%
%LPD*%
G01*
G04 APERTURE LIST*
%ADD10C,0.100000*%
%ADD11C,2.000000*%
%ADD12O,2.032000X1.727200*%
%ADD13R,2.032000X1.727200*%
%ADD14C,0.800000*%
%ADD15C,0.250000*%
%ADD16C,0.254000*%
G04 APERTURE END LIST*
D10*
D11*
X126873000Y-102036000D03*
X126873000Y-97536000D03*
X133373000Y-102036000D03*
X133373000Y-97536000D03*
D12*
X138811000Y-96774000D03*
X138811000Y-94234000D03*
X138811000Y-91694000D03*
D13*
X138811000Y-89154000D03*
X122936000Y-89154000D03*
D12*
X122936000Y-91694000D03*
X122936000Y-94234000D03*
X122936000Y-96774000D03*
X145288000Y-86233000D03*
X145288000Y-88773000D03*
X145288000Y-91313000D03*
X145288000Y-93853000D03*
X145288000Y-96393000D03*
D13*
X145288000Y-98933000D03*
D14*
X127254000Y-86741000D03*
D15*
X145288000Y-91313000D02*
X142367000Y-91313000D01*
X128016000Y-86741000D02*
X127254000Y-86741000D01*
X141097000Y-86741000D02*
X128016000Y-86741000D01*
X142240000Y-86741000D02*
X141097000Y-86741000D01*
X142240000Y-91186000D02*
X142240000Y-86741000D01*
X142367000Y-91313000D02*
X142240000Y-91186000D01*
X126873000Y-97536000D02*
X133373000Y-97536000D01*
D16*
G36*
X147193000Y-104192000D02*
X120344000Y-104192000D01*
X120344000Y-102359795D01*
X125237716Y-102359795D01*
X125486106Y-102960943D01*
X125945637Y-103421278D01*
X126546352Y-103670716D01*
X127196795Y-103671284D01*
X127797943Y-103422894D01*
X128258278Y-102963363D01*
X128507716Y-102362648D01*
X128507718Y-102359795D01*
X131737716Y-102359795D01*
X131986106Y-102960943D01*
X132445637Y-103421278D01*
X133046352Y-103670716D01*
X133696795Y-103671284D01*
X134297943Y-103422894D01*
X134758278Y-102963363D01*
X135007716Y-102362648D01*
X135008284Y-101712205D01*
X134759894Y-101111057D01*
X134300363Y-100650722D01*
X133699648Y-100401284D01*
X133049205Y-100400716D01*
X132448057Y-100649106D01*
X131987722Y-101108637D01*
X131738284Y-101709352D01*
X131737716Y-102359795D01*
X128507718Y-102359795D01*
X128508284Y-101712205D01*
X128259894Y-101111057D01*
X127800363Y-100650722D01*
X127199648Y-100401284D01*
X126549205Y-100400716D01*
X125948057Y-100649106D01*
X125487722Y-101108637D01*
X125238284Y-101709352D01*
X125237716Y-102359795D01*
X120344000Y-102359795D01*
X120344000Y-97133026D01*
X121328642Y-97133026D01*
X121331291Y-97148791D01*
X121585268Y-97676036D01*
X122021680Y-98065954D01*
X122574087Y-98259184D01*
X122809000Y-98114924D01*
X122809000Y-96901000D01*
X123063000Y-96901000D01*
X123063000Y-98114924D01*
X123297913Y-98259184D01*
X123850320Y-98065954D01*
X124081061Y-97859795D01*
X125237716Y-97859795D01*
X125486106Y-98460943D01*
X125945637Y-98921278D01*
X126546352Y-99170716D01*
X127196795Y-99171284D01*
X127797943Y-98922894D01*
X128258278Y-98463363D01*
X128327773Y-98296000D01*
X131917953Y-98296000D01*
X131986106Y-98460943D01*
X132445637Y-98921278D01*
X133046352Y-99170716D01*
X133696795Y-99171284D01*
X134297943Y-98922894D01*
X134758278Y-98463363D01*
X135007716Y-97862648D01*
X135008284Y-97212205D01*
X134759894Y-96611057D01*
X134300363Y-96150722D01*
X133699648Y-95901284D01*
X133049205Y-95900716D01*
X132448057Y-96149106D01*
X131987722Y-96608637D01*
X131918227Y-96776000D01*
X128328047Y-96776000D01*
X128259894Y-96611057D01*
X127800363Y-96150722D01*
X127199648Y-95901284D01*
X126549205Y-95900716D01*
X125948057Y-96149106D01*
X125487722Y-96608637D01*
X125238284Y-97209352D01*
X125237716Y-97859795D01*
X124081061Y-97859795D01*
X124286732Y-97676036D01*
X124540709Y-97148791D01*
X124543358Y-97133026D01*
X124422217Y-96901000D01*
X123063000Y-96901000D01*
X122809000Y-96901000D01*
X121449783Y-96901000D01*
X121328642Y-97133026D01*
X120344000Y-97133026D01*
X120344000Y-91694000D01*
X121252655Y-91694000D01*
X121366729Y-92267489D01*
X121691585Y-92753670D01*
X122006366Y-92964000D01*
X121691585Y-93174330D01*
X121366729Y-93660511D01*
X121252655Y-94234000D01*
X121366729Y-94807489D01*
X121691585Y-95293670D01*
X122001069Y-95500461D01*
X121585268Y-95871964D01*
X121331291Y-96399209D01*
X121328642Y-96414974D01*
X121449783Y-96647000D01*
X122809000Y-96647000D01*
X122809000Y-96627000D01*
X123063000Y-96627000D01*
X123063000Y-96647000D01*
X124422217Y-96647000D01*
X124543358Y-96414974D01*
X124540709Y-96399209D01*
X124286732Y-95871964D01*
X123870931Y-95500461D01*
X124180415Y-95293670D01*
X124505271Y-94807489D01*
X124619345Y-94234000D01*
X124505271Y-93660511D01*
X124180415Y-93174330D01*
X123865634Y-92964000D01*
X124180415Y-92753670D01*
X124505271Y-92267489D01*
X124619345Y-91694000D01*
X137127655Y-91694000D01*
X137241729Y-92267489D01*
X137566585Y-92753670D01*
X137881366Y-92964000D01*
X137566585Y-93174330D01*
X137241729Y-93660511D01*
X137127655Y-94234000D01*
X137241729Y-94807489D01*
X137566585Y-95293670D01*
X137881366Y-95504000D01*
X137566585Y-95714330D01*
X137241729Y-96200511D01*
X137127655Y-96774000D01*
X137241729Y-97347489D01*
X137566585Y-97833670D01*
X138052766Y-98158526D01*
X138626255Y-98272600D01*
X138995745Y-98272600D01*
X139569234Y-98158526D01*
X140055415Y-97833670D01*
X140380271Y-97347489D01*
X140494345Y-96774000D01*
X140380271Y-96200511D01*
X140055415Y-95714330D01*
X139740634Y-95504000D01*
X140055415Y-95293670D01*
X140380271Y-94807489D01*
X140494345Y-94234000D01*
X140380271Y-93660511D01*
X140055415Y-93174330D01*
X139740634Y-92964000D01*
X140055415Y-92753670D01*
X140380271Y-92267489D01*
X140494345Y-91694000D01*
X140380271Y-91120511D01*
X140055415Y-90634330D01*
X140038434Y-90622984D01*
X140074765Y-90615757D01*
X140284809Y-90475409D01*
X140425157Y-90265365D01*
X140474440Y-90017600D01*
X140474440Y-88290400D01*
X140425157Y-88042635D01*
X140284809Y-87832591D01*
X140074765Y-87692243D01*
X139827000Y-87642960D01*
X137795000Y-87642960D01*
X137547235Y-87692243D01*
X137337191Y-87832591D01*
X137196843Y-88042635D01*
X137147560Y-88290400D01*
X137147560Y-90017600D01*
X137196843Y-90265365D01*
X137337191Y-90475409D01*
X137547235Y-90615757D01*
X137583566Y-90622984D01*
X137566585Y-90634330D01*
X137241729Y-91120511D01*
X137127655Y-91694000D01*
X124619345Y-91694000D01*
X124505271Y-91120511D01*
X124180415Y-90634330D01*
X124163434Y-90622984D01*
X124199765Y-90615757D01*
X124409809Y-90475409D01*
X124550157Y-90265365D01*
X124599440Y-90017600D01*
X124599440Y-88290400D01*
X124550157Y-88042635D01*
X124409809Y-87832591D01*
X124199765Y-87692243D01*
X123952000Y-87642960D01*
X121920000Y-87642960D01*
X121672235Y-87692243D01*
X121462191Y-87832591D01*
X121321843Y-88042635D01*
X121272560Y-88290400D01*
X121272560Y-90017600D01*
X121321843Y-90265365D01*
X121462191Y-90475409D01*
X121672235Y-90615757D01*
X121708566Y-90622984D01*
X121691585Y-90634330D01*
X121366729Y-91120511D01*
X121252655Y-91694000D01*
X120344000Y-91694000D01*
X120344000Y-86945971D01*
X126218821Y-86945971D01*
X126376058Y-87326515D01*
X126666954Y-87617919D01*
X127047223Y-87775820D01*
X127458971Y-87776179D01*
X127839515Y-87618942D01*
X127957663Y-87501000D01*
X141480000Y-87501000D01*
X141480000Y-91186000D01*
X141537852Y-91476839D01*
X141702599Y-91723401D01*
X141829599Y-91850401D01*
X142076161Y-92015148D01*
X142367000Y-92073000D01*
X143843352Y-92073000D01*
X144043585Y-92372670D01*
X144358366Y-92583000D01*
X144043585Y-92793330D01*
X143718729Y-93279511D01*
X143604655Y-93853000D01*
X143718729Y-94426489D01*
X144043585Y-94912670D01*
X144358366Y-95123000D01*
X144043585Y-95333330D01*
X143718729Y-95819511D01*
X143604655Y-96393000D01*
X143718729Y-96966489D01*
X144043585Y-97452670D01*
X144060566Y-97464016D01*
X144024235Y-97471243D01*
X143814191Y-97611591D01*
X143673843Y-97821635D01*
X143624560Y-98069400D01*
X143624560Y-99796600D01*
X143673843Y-100044365D01*
X143814191Y-100254409D01*
X144024235Y-100394757D01*
X144272000Y-100444040D01*
X146304000Y-100444040D01*
X146551765Y-100394757D01*
X146761809Y-100254409D01*
X146902157Y-100044365D01*
X146951440Y-99796600D01*
X146951440Y-98069400D01*
X146902157Y-97821635D01*
X146761809Y-97611591D01*
X146551765Y-97471243D01*
X146515434Y-97464016D01*
X146532415Y-97452670D01*
X146857271Y-96966489D01*
X146971345Y-96393000D01*
X146857271Y-95819511D01*
X146532415Y-95333330D01*
X146217634Y-95123000D01*
X146532415Y-94912670D01*
X146857271Y-94426489D01*
X146971345Y-93853000D01*
X146857271Y-93279511D01*
X146532415Y-92793330D01*
X146217634Y-92583000D01*
X146532415Y-92372670D01*
X146857271Y-91886489D01*
X146971345Y-91313000D01*
X146857271Y-90739511D01*
X146532415Y-90253330D01*
X146217634Y-90043000D01*
X146532415Y-89832670D01*
X146857271Y-89346489D01*
X146971345Y-88773000D01*
X146857271Y-88199511D01*
X146532415Y-87713330D01*
X146222931Y-87506539D01*
X146638732Y-87135036D01*
X146892709Y-86607791D01*
X146895358Y-86592026D01*
X146774217Y-86360000D01*
X145415000Y-86360000D01*
X145415000Y-86380000D01*
X145161000Y-86380000D01*
X145161000Y-86360000D01*
X143801783Y-86360000D01*
X143680642Y-86592026D01*
X143683291Y-86607791D01*
X143937268Y-87135036D01*
X144353069Y-87506539D01*
X144043585Y-87713330D01*
X143718729Y-88199511D01*
X143604655Y-88773000D01*
X143718729Y-89346489D01*
X144043585Y-89832670D01*
X144358366Y-90043000D01*
X144043585Y-90253330D01*
X143843352Y-90553000D01*
X143000000Y-90553000D01*
X143000000Y-86741000D01*
X142942148Y-86450161D01*
X142777401Y-86203599D01*
X142530839Y-86038852D01*
X142240000Y-85981000D01*
X127957761Y-85981000D01*
X127850922Y-85873974D01*
X143680642Y-85873974D01*
X143801783Y-86106000D01*
X145161000Y-86106000D01*
X145161000Y-84892076D01*
X145415000Y-84892076D01*
X145415000Y-86106000D01*
X146774217Y-86106000D01*
X146895358Y-85873974D01*
X146892709Y-85858209D01*
X146638732Y-85330964D01*
X146202320Y-84941046D01*
X145649913Y-84747816D01*
X145415000Y-84892076D01*
X145161000Y-84892076D01*
X144926087Y-84747816D01*
X144373680Y-84941046D01*
X143937268Y-85330964D01*
X143683291Y-85858209D01*
X143680642Y-85873974D01*
X127850922Y-85873974D01*
X127841046Y-85864081D01*
X127460777Y-85706180D01*
X127049029Y-85705821D01*
X126668485Y-85863058D01*
X126377081Y-86153954D01*
X126219180Y-86534223D01*
X126218821Y-86945971D01*
X120344000Y-86945971D01*
X120344000Y-84276000D01*
X147193000Y-84276000D01*
X147193000Y-104192000D01*
X147193000Y-104192000D01*
G37*
X147193000Y-104192000D02*
X120344000Y-104192000D01*
X120344000Y-102359795D01*
X125237716Y-102359795D01*
X125486106Y-102960943D01*
X125945637Y-103421278D01*
X126546352Y-103670716D01*
X127196795Y-103671284D01*
X127797943Y-103422894D01*
X128258278Y-102963363D01*
X128507716Y-102362648D01*
X128507718Y-102359795D01*
X131737716Y-102359795D01*
X131986106Y-102960943D01*
X132445637Y-103421278D01*
X133046352Y-103670716D01*
X133696795Y-103671284D01*
X134297943Y-103422894D01*
X134758278Y-102963363D01*
X135007716Y-102362648D01*
X135008284Y-101712205D01*
X134759894Y-101111057D01*
X134300363Y-100650722D01*
X133699648Y-100401284D01*
X133049205Y-100400716D01*
X132448057Y-100649106D01*
X131987722Y-101108637D01*
X131738284Y-101709352D01*
X131737716Y-102359795D01*
X128507718Y-102359795D01*
X128508284Y-101712205D01*
X128259894Y-101111057D01*
X127800363Y-100650722D01*
X127199648Y-100401284D01*
X126549205Y-100400716D01*
X125948057Y-100649106D01*
X125487722Y-101108637D01*
X125238284Y-101709352D01*
X125237716Y-102359795D01*
X120344000Y-102359795D01*
X120344000Y-97133026D01*
X121328642Y-97133026D01*
X121331291Y-97148791D01*
X121585268Y-97676036D01*
X122021680Y-98065954D01*
X122574087Y-98259184D01*
X122809000Y-98114924D01*
X122809000Y-96901000D01*
X123063000Y-96901000D01*
X123063000Y-98114924D01*
X123297913Y-98259184D01*
X123850320Y-98065954D01*
X124081061Y-97859795D01*
X125237716Y-97859795D01*
X125486106Y-98460943D01*
X125945637Y-98921278D01*
X126546352Y-99170716D01*
X127196795Y-99171284D01*
X127797943Y-98922894D01*
X128258278Y-98463363D01*
X128327773Y-98296000D01*
X131917953Y-98296000D01*
X131986106Y-98460943D01*
X132445637Y-98921278D01*
X133046352Y-99170716D01*
X133696795Y-99171284D01*
X134297943Y-98922894D01*
X134758278Y-98463363D01*
X135007716Y-97862648D01*
X135008284Y-97212205D01*
X134759894Y-96611057D01*
X134300363Y-96150722D01*
X133699648Y-95901284D01*
X133049205Y-95900716D01*
X132448057Y-96149106D01*
X131987722Y-96608637D01*
X131918227Y-96776000D01*
X128328047Y-96776000D01*
X128259894Y-96611057D01*
X127800363Y-96150722D01*
X127199648Y-95901284D01*
X126549205Y-95900716D01*
X125948057Y-96149106D01*
X125487722Y-96608637D01*
X125238284Y-97209352D01*
X125237716Y-97859795D01*
X124081061Y-97859795D01*
X124286732Y-97676036D01*
X124540709Y-97148791D01*
X124543358Y-97133026D01*
X124422217Y-96901000D01*
X123063000Y-96901000D01*
X122809000Y-96901000D01*
X121449783Y-96901000D01*
X121328642Y-97133026D01*
X120344000Y-97133026D01*
X120344000Y-91694000D01*
X121252655Y-91694000D01*
X121366729Y-92267489D01*
X121691585Y-92753670D01*
X122006366Y-92964000D01*
X121691585Y-93174330D01*
X121366729Y-93660511D01*
X121252655Y-94234000D01*
X121366729Y-94807489D01*
X121691585Y-95293670D01*
X122001069Y-95500461D01*
X121585268Y-95871964D01*
X121331291Y-96399209D01*
X121328642Y-96414974D01*
X121449783Y-96647000D01*
X122809000Y-96647000D01*
X122809000Y-96627000D01*
X123063000Y-96627000D01*
X123063000Y-96647000D01*
X124422217Y-96647000D01*
X124543358Y-96414974D01*
X124540709Y-96399209D01*
X124286732Y-95871964D01*
X123870931Y-95500461D01*
X124180415Y-95293670D01*
X124505271Y-94807489D01*
X124619345Y-94234000D01*
X124505271Y-93660511D01*
X124180415Y-93174330D01*
X123865634Y-92964000D01*
X124180415Y-92753670D01*
X124505271Y-92267489D01*
X124619345Y-91694000D01*
X137127655Y-91694000D01*
X137241729Y-92267489D01*
X137566585Y-92753670D01*
X137881366Y-92964000D01*
X137566585Y-93174330D01*
X137241729Y-93660511D01*
X137127655Y-94234000D01*
X137241729Y-94807489D01*
X137566585Y-95293670D01*
X137881366Y-95504000D01*
X137566585Y-95714330D01*
X137241729Y-96200511D01*
X137127655Y-96774000D01*
X137241729Y-97347489D01*
X137566585Y-97833670D01*
X138052766Y-98158526D01*
X138626255Y-98272600D01*
X138995745Y-98272600D01*
X139569234Y-98158526D01*
X140055415Y-97833670D01*
X140380271Y-97347489D01*
X140494345Y-96774000D01*
X140380271Y-96200511D01*
X140055415Y-95714330D01*
X139740634Y-95504000D01*
X140055415Y-95293670D01*
X140380271Y-94807489D01*
X140494345Y-94234000D01*
X140380271Y-93660511D01*
X140055415Y-93174330D01*
X139740634Y-92964000D01*
X140055415Y-92753670D01*
X140380271Y-92267489D01*
X140494345Y-91694000D01*
X140380271Y-91120511D01*
X140055415Y-90634330D01*
X140038434Y-90622984D01*
X140074765Y-90615757D01*
X140284809Y-90475409D01*
X140425157Y-90265365D01*
X140474440Y-90017600D01*
X140474440Y-88290400D01*
X140425157Y-88042635D01*
X140284809Y-87832591D01*
X140074765Y-87692243D01*
X139827000Y-87642960D01*
X137795000Y-87642960D01*
X137547235Y-87692243D01*
X137337191Y-87832591D01*
X137196843Y-88042635D01*
X137147560Y-88290400D01*
X137147560Y-90017600D01*
X137196843Y-90265365D01*
X137337191Y-90475409D01*
X137547235Y-90615757D01*
X137583566Y-90622984D01*
X137566585Y-90634330D01*
X137241729Y-91120511D01*
X137127655Y-91694000D01*
X124619345Y-91694000D01*
X124505271Y-91120511D01*
X124180415Y-90634330D01*
X124163434Y-90622984D01*
X124199765Y-90615757D01*
X124409809Y-90475409D01*
X124550157Y-90265365D01*
X124599440Y-90017600D01*
X124599440Y-88290400D01*
X124550157Y-88042635D01*
X124409809Y-87832591D01*
X124199765Y-87692243D01*
X123952000Y-87642960D01*
X121920000Y-87642960D01*
X121672235Y-87692243D01*
X121462191Y-87832591D01*
X121321843Y-88042635D01*
X121272560Y-88290400D01*
X121272560Y-90017600D01*
X121321843Y-90265365D01*
X121462191Y-90475409D01*
X121672235Y-90615757D01*
X121708566Y-90622984D01*
X121691585Y-90634330D01*
X121366729Y-91120511D01*
X121252655Y-91694000D01*
X120344000Y-91694000D01*
X120344000Y-86945971D01*
X126218821Y-86945971D01*
X126376058Y-87326515D01*
X126666954Y-87617919D01*
X127047223Y-87775820D01*
X127458971Y-87776179D01*
X127839515Y-87618942D01*
X127957663Y-87501000D01*
X141480000Y-87501000D01*
X141480000Y-91186000D01*
X141537852Y-91476839D01*
X141702599Y-91723401D01*
X141829599Y-91850401D01*
X142076161Y-92015148D01*
X142367000Y-92073000D01*
X143843352Y-92073000D01*
X144043585Y-92372670D01*
X144358366Y-92583000D01*
X144043585Y-92793330D01*
X143718729Y-93279511D01*
X143604655Y-93853000D01*
X143718729Y-94426489D01*
X144043585Y-94912670D01*
X144358366Y-95123000D01*
X144043585Y-95333330D01*
X143718729Y-95819511D01*
X143604655Y-96393000D01*
X143718729Y-96966489D01*
X144043585Y-97452670D01*
X144060566Y-97464016D01*
X144024235Y-97471243D01*
X143814191Y-97611591D01*
X143673843Y-97821635D01*
X143624560Y-98069400D01*
X143624560Y-99796600D01*
X143673843Y-100044365D01*
X143814191Y-100254409D01*
X144024235Y-100394757D01*
X144272000Y-100444040D01*
X146304000Y-100444040D01*
X146551765Y-100394757D01*
X146761809Y-100254409D01*
X146902157Y-100044365D01*
X146951440Y-99796600D01*
X146951440Y-98069400D01*
X146902157Y-97821635D01*
X146761809Y-97611591D01*
X146551765Y-97471243D01*
X146515434Y-97464016D01*
X146532415Y-97452670D01*
X146857271Y-96966489D01*
X146971345Y-96393000D01*
X146857271Y-95819511D01*
X146532415Y-95333330D01*
X146217634Y-95123000D01*
X146532415Y-94912670D01*
X146857271Y-94426489D01*
X146971345Y-93853000D01*
X146857271Y-93279511D01*
X146532415Y-92793330D01*
X146217634Y-92583000D01*
X146532415Y-92372670D01*
X146857271Y-91886489D01*
X146971345Y-91313000D01*
X146857271Y-90739511D01*
X146532415Y-90253330D01*
X146217634Y-90043000D01*
X146532415Y-89832670D01*
X146857271Y-89346489D01*
X146971345Y-88773000D01*
X146857271Y-88199511D01*
X146532415Y-87713330D01*
X146222931Y-87506539D01*
X146638732Y-87135036D01*
X146892709Y-86607791D01*
X146895358Y-86592026D01*
X146774217Y-86360000D01*
X145415000Y-86360000D01*
X145415000Y-86380000D01*
X145161000Y-86380000D01*
X145161000Y-86360000D01*
X143801783Y-86360000D01*
X143680642Y-86592026D01*
X143683291Y-86607791D01*
X143937268Y-87135036D01*
X144353069Y-87506539D01*
X144043585Y-87713330D01*
X143718729Y-88199511D01*
X143604655Y-88773000D01*
X143718729Y-89346489D01*
X144043585Y-89832670D01*
X144358366Y-90043000D01*
X144043585Y-90253330D01*
X143843352Y-90553000D01*
X143000000Y-90553000D01*
X143000000Y-86741000D01*
X142942148Y-86450161D01*
X142777401Y-86203599D01*
X142530839Y-86038852D01*
X142240000Y-85981000D01*
X127957761Y-85981000D01*
X127850922Y-85873974D01*
X143680642Y-85873974D01*
X143801783Y-86106000D01*
X145161000Y-86106000D01*
X145161000Y-84892076D01*
X145415000Y-84892076D01*
X145415000Y-86106000D01*
X146774217Y-86106000D01*
X146895358Y-85873974D01*
X146892709Y-85858209D01*
X146638732Y-85330964D01*
X146202320Y-84941046D01*
X145649913Y-84747816D01*
X145415000Y-84892076D01*
X145161000Y-84892076D01*
X144926087Y-84747816D01*
X144373680Y-84941046D01*
X143937268Y-85330964D01*
X143683291Y-85858209D01*
X143680642Y-85873974D01*
X127850922Y-85873974D01*
X127841046Y-85864081D01*
X127460777Y-85706180D01*
X127049029Y-85705821D01*
X126668485Y-85863058D01*
X126377081Y-86153954D01*
X126219180Y-86534223D01*
X126218821Y-86945971D01*
X120344000Y-86945971D01*
X120344000Y-84276000D01*
X147193000Y-84276000D01*
X147193000Y-104192000D01*
M02*
