M48
;DRILL file {KiCad no-vcs-found-7545~57~ubuntu16.04.1} date Sun Jan 29 23:55:30 2017
;FORMAT={-:-/ absolute / inch / decimal}
FMAT,2
INCH,TZ
T1C0.016
T2C0.040
T3C0.043
T4C0.087
%
G90
G05
M72
T1
X5.01Y-3.415
T2
X4.84Y-3.51
X4.84Y-3.61
X4.84Y-3.71
X4.84Y-3.81
X5.465Y-3.51
X5.465Y-3.61
X5.465Y-3.71
X5.465Y-3.81
X5.72Y-3.395
X5.72Y-3.495
X5.72Y-3.595
X5.72Y-3.695
X5.72Y-3.795
X5.72Y-3.895
T3
X4.995Y-3.84
X4.995Y-4.0172
X5.2509Y-3.84
X5.2509Y-4.0172
T4
X5.525Y-4.04
T0
M30
