G04 #@! TF.GenerationSoftware,KiCad,Pcbnew,(2017-01-24 revision 0b6147e)-makepkg*
G04 #@! TF.CreationDate,2017-01-29T22:57:48+05:30*
G04 #@! TF.ProjectId,attiny13a,617474696E793133612E6B696361645F,0.1*
G04 #@! TF.FileFunction,Legend,Top*
G04 #@! TF.FilePolarity,Positive*
%FSLAX46Y46*%
G04 Gerber Fmt 4.6, Leading zero omitted, Abs format (unit mm)*
G04 Created by KiCad (PCBNEW (2017-01-24 revision 0b6147e)-makepkg) date 01/29/17 22:57:48*
%MOMM*%
%LPD*%
G01*
G04 APERTURE LIST*
%ADD10C,0.100000*%
%ADD11C,0.300000*%
%ADD12C,0.200000*%
%ADD13C,0.150000*%
%ADD14C,0.120000*%
G04 APERTURE END LIST*
D10*
D11*
X142637142Y-102294571D02*
X142994285Y-103294571D01*
X143351428Y-102294571D01*
X144208571Y-101794571D02*
X144351428Y-101794571D01*
X144494285Y-101866000D01*
X144565714Y-101937428D01*
X144637142Y-102080285D01*
X144708571Y-102366000D01*
X144708571Y-102723142D01*
X144637142Y-103008857D01*
X144565714Y-103151714D01*
X144494285Y-103223142D01*
X144351428Y-103294571D01*
X144208571Y-103294571D01*
X144065714Y-103223142D01*
X143994285Y-103151714D01*
X143922857Y-103008857D01*
X143851428Y-102723142D01*
X143851428Y-102366000D01*
X143922857Y-102080285D01*
X143994285Y-101937428D01*
X144065714Y-101866000D01*
X144208571Y-101794571D01*
X145351428Y-103151714D02*
X145422857Y-103223142D01*
X145351428Y-103294571D01*
X145280000Y-103223142D01*
X145351428Y-103151714D01*
X145351428Y-103294571D01*
X146851428Y-103294571D02*
X145994285Y-103294571D01*
X146422857Y-103294571D02*
X146422857Y-101794571D01*
X146280000Y-102008857D01*
X146137142Y-102151714D01*
X145994285Y-102223142D01*
D12*
X121436904Y-85002714D02*
X121817857Y-85002714D01*
X121579761Y-84669380D02*
X121579761Y-85526523D01*
X121627380Y-85621761D01*
X121722619Y-85669380D01*
X121817857Y-85669380D01*
X122674999Y-85669380D02*
X122103571Y-85669380D01*
X122389285Y-85669380D02*
X122389285Y-84669380D01*
X122294047Y-84812238D01*
X122198809Y-84907476D01*
X122103571Y-84955095D01*
X123008333Y-84669380D02*
X123627380Y-84669380D01*
X123294047Y-85050333D01*
X123436904Y-85050333D01*
X123532142Y-85097952D01*
X123579761Y-85145571D01*
X123627380Y-85240809D01*
X123627380Y-85478904D01*
X123579761Y-85574142D01*
X123532142Y-85621761D01*
X123436904Y-85669380D01*
X123151190Y-85669380D01*
X123055952Y-85621761D01*
X123008333Y-85574142D01*
X124770238Y-84621761D02*
X123913095Y-85907476D01*
X125246428Y-85097952D02*
X125151190Y-85050333D01*
X125103571Y-85002714D01*
X125055952Y-84907476D01*
X125055952Y-84859857D01*
X125103571Y-84764619D01*
X125151190Y-84717000D01*
X125246428Y-84669380D01*
X125436904Y-84669380D01*
X125532142Y-84717000D01*
X125579761Y-84764619D01*
X125627380Y-84859857D01*
X125627380Y-84907476D01*
X125579761Y-85002714D01*
X125532142Y-85050333D01*
X125436904Y-85097952D01*
X125246428Y-85097952D01*
X125151190Y-85145571D01*
X125103571Y-85193190D01*
X125055952Y-85288428D01*
X125055952Y-85478904D01*
X125103571Y-85574142D01*
X125151190Y-85621761D01*
X125246428Y-85669380D01*
X125436904Y-85669380D01*
X125532142Y-85621761D01*
X125579761Y-85574142D01*
X125627380Y-85478904D01*
X125627380Y-85288428D01*
X125579761Y-85193190D01*
X125532142Y-85145571D01*
X125436904Y-85097952D01*
X126532142Y-84669380D02*
X126055952Y-84669380D01*
X126008333Y-85145571D01*
X126055952Y-85097952D01*
X126151190Y-85050333D01*
X126389285Y-85050333D01*
X126484523Y-85097952D01*
X126532142Y-85145571D01*
X126579761Y-85240809D01*
X126579761Y-85478904D01*
X126532142Y-85574142D01*
X126484523Y-85621761D01*
X126389285Y-85669380D01*
X126151190Y-85669380D01*
X126055952Y-85621761D01*
X126008333Y-85574142D01*
X127770238Y-85669380D02*
X127770238Y-84669380D01*
X127770238Y-85050333D02*
X127865476Y-85002714D01*
X128055952Y-85002714D01*
X128151190Y-85050333D01*
X128198809Y-85097952D01*
X128246428Y-85193190D01*
X128246428Y-85478904D01*
X128198809Y-85574142D01*
X128151190Y-85621761D01*
X128055952Y-85669380D01*
X127865476Y-85669380D01*
X127770238Y-85621761D01*
X128674999Y-85669380D02*
X128674999Y-85002714D01*
X128674999Y-85193190D02*
X128722619Y-85097952D01*
X128770238Y-85050333D01*
X128865476Y-85002714D01*
X128960714Y-85002714D01*
X129674999Y-85621761D02*
X129579761Y-85669380D01*
X129389285Y-85669380D01*
X129294047Y-85621761D01*
X129246428Y-85526523D01*
X129246428Y-85145571D01*
X129294047Y-85050333D01*
X129389285Y-85002714D01*
X129579761Y-85002714D01*
X129674999Y-85050333D01*
X129722619Y-85145571D01*
X129722619Y-85240809D01*
X129246428Y-85336047D01*
X130579761Y-85669380D02*
X130579761Y-85145571D01*
X130532142Y-85050333D01*
X130436904Y-85002714D01*
X130246428Y-85002714D01*
X130151190Y-85050333D01*
X130579761Y-85621761D02*
X130484523Y-85669380D01*
X130246428Y-85669380D01*
X130151190Y-85621761D01*
X130103571Y-85526523D01*
X130103571Y-85431285D01*
X130151190Y-85336047D01*
X130246428Y-85288428D01*
X130484523Y-85288428D01*
X130579761Y-85240809D01*
X131055952Y-85669380D02*
X131055952Y-84669380D01*
X131151190Y-85288428D02*
X131436904Y-85669380D01*
X131436904Y-85002714D02*
X131055952Y-85383666D01*
X132008333Y-85669380D02*
X131913095Y-85621761D01*
X131865476Y-85574142D01*
X131817857Y-85478904D01*
X131817857Y-85193190D01*
X131865476Y-85097952D01*
X131913095Y-85050333D01*
X132008333Y-85002714D01*
X132151190Y-85002714D01*
X132246428Y-85050333D01*
X132294047Y-85097952D01*
X132341666Y-85193190D01*
X132341666Y-85478904D01*
X132294047Y-85574142D01*
X132246428Y-85621761D01*
X132151190Y-85669380D01*
X132008333Y-85669380D01*
X133198809Y-85002714D02*
X133198809Y-85669380D01*
X132770238Y-85002714D02*
X132770238Y-85526523D01*
X132817857Y-85621761D01*
X132913095Y-85669380D01*
X133055952Y-85669380D01*
X133151190Y-85621761D01*
X133198809Y-85574142D01*
X133532142Y-85002714D02*
X133913095Y-85002714D01*
X133674999Y-84669380D02*
X133674999Y-85526523D01*
X133722619Y-85621761D01*
X133817857Y-85669380D01*
X133913095Y-85669380D01*
X135008333Y-85669380D02*
X135008333Y-84669380D01*
X135008333Y-85050333D02*
X135103571Y-85002714D01*
X135294047Y-85002714D01*
X135389285Y-85050333D01*
X135436904Y-85097952D01*
X135484523Y-85193190D01*
X135484523Y-85478904D01*
X135436904Y-85574142D01*
X135389285Y-85621761D01*
X135294047Y-85669380D01*
X135103571Y-85669380D01*
X135008333Y-85621761D01*
X136055952Y-85669380D02*
X135960714Y-85621761D01*
X135913095Y-85574142D01*
X135865476Y-85478904D01*
X135865476Y-85193190D01*
X135913095Y-85097952D01*
X135960714Y-85050333D01*
X136055952Y-85002714D01*
X136198809Y-85002714D01*
X136294047Y-85050333D01*
X136341666Y-85097952D01*
X136389285Y-85193190D01*
X136389285Y-85478904D01*
X136341666Y-85574142D01*
X136294047Y-85621761D01*
X136198809Y-85669380D01*
X136055952Y-85669380D01*
X137246428Y-85669380D02*
X137246428Y-85145571D01*
X137198809Y-85050333D01*
X137103571Y-85002714D01*
X136913095Y-85002714D01*
X136817857Y-85050333D01*
X137246428Y-85621761D02*
X137151190Y-85669380D01*
X136913095Y-85669380D01*
X136817857Y-85621761D01*
X136770238Y-85526523D01*
X136770238Y-85431285D01*
X136817857Y-85336047D01*
X136913095Y-85288428D01*
X137151190Y-85288428D01*
X137246428Y-85240809D01*
X137722619Y-85669380D02*
X137722619Y-85002714D01*
X137722619Y-85193190D02*
X137770238Y-85097952D01*
X137817857Y-85050333D01*
X137913095Y-85002714D01*
X138008333Y-85002714D01*
X138770238Y-85669380D02*
X138770238Y-84669380D01*
X138770238Y-85621761D02*
X138675000Y-85669380D01*
X138484523Y-85669380D01*
X138389285Y-85621761D01*
X138341666Y-85574142D01*
X138294047Y-85478904D01*
X138294047Y-85193190D01*
X138341666Y-85097952D01*
X138389285Y-85050333D01*
X138484523Y-85002714D01*
X138675000Y-85002714D01*
X138770238Y-85050333D01*
X141470142Y-85606000D02*
X141374904Y-85558380D01*
X141232047Y-85558380D01*
X141089190Y-85606000D01*
X140993952Y-85701238D01*
X140946333Y-85796476D01*
X140898714Y-85986952D01*
X140898714Y-86129809D01*
X140946333Y-86320285D01*
X140993952Y-86415523D01*
X141089190Y-86510761D01*
X141232047Y-86558380D01*
X141327285Y-86558380D01*
X141470142Y-86510761D01*
X141517761Y-86463142D01*
X141517761Y-86129809D01*
X141327285Y-86129809D01*
X141946333Y-85891714D02*
X141946333Y-86558380D01*
X141946333Y-85986952D02*
X141993952Y-85939333D01*
X142089190Y-85891714D01*
X142232047Y-85891714D01*
X142327285Y-85939333D01*
X142374904Y-86034571D01*
X142374904Y-86558380D01*
X143279666Y-86558380D02*
X143279666Y-85558380D01*
X143279666Y-86510761D02*
X143184428Y-86558380D01*
X142993952Y-86558380D01*
X142898714Y-86510761D01*
X142851095Y-86463142D01*
X142803476Y-86367904D01*
X142803476Y-86082190D01*
X142851095Y-85986952D01*
X142898714Y-85939333D01*
X142993952Y-85891714D01*
X143184428Y-85891714D01*
X143279666Y-85939333D01*
X141303523Y-88352380D02*
X141636857Y-89352380D01*
X141970190Y-88352380D01*
X142732095Y-89304761D02*
X142636857Y-89352380D01*
X142446380Y-89352380D01*
X142351142Y-89304761D01*
X142303523Y-89257142D01*
X142255904Y-89161904D01*
X142255904Y-88876190D01*
X142303523Y-88780952D01*
X142351142Y-88733333D01*
X142446380Y-88685714D01*
X142636857Y-88685714D01*
X142732095Y-88733333D01*
X143589238Y-89304761D02*
X143494000Y-89352380D01*
X143303523Y-89352380D01*
X143208285Y-89304761D01*
X143160666Y-89257142D01*
X143113047Y-89161904D01*
X143113047Y-88876190D01*
X143160666Y-88780952D01*
X143208285Y-88733333D01*
X143303523Y-88685714D01*
X143494000Y-88685714D01*
X143589238Y-88733333D01*
X142240047Y-91638380D02*
X141906714Y-91162190D01*
X141668619Y-91638380D02*
X141668619Y-90638380D01*
X142049571Y-90638380D01*
X142144809Y-90686000D01*
X142192428Y-90733619D01*
X142240047Y-90828857D01*
X142240047Y-90971714D01*
X142192428Y-91066952D01*
X142144809Y-91114571D01*
X142049571Y-91162190D01*
X141668619Y-91162190D01*
X142621000Y-91590761D02*
X142716238Y-91638380D01*
X142906714Y-91638380D01*
X143001952Y-91590761D01*
X143049571Y-91495523D01*
X143049571Y-91447904D01*
X143001952Y-91352666D01*
X142906714Y-91305047D01*
X142763857Y-91305047D01*
X142668619Y-91257428D01*
X142621000Y-91162190D01*
X142621000Y-91114571D01*
X142668619Y-91019333D01*
X142763857Y-90971714D01*
X142906714Y-90971714D01*
X143001952Y-91019333D01*
X143335285Y-90971714D02*
X143716238Y-90971714D01*
X143478142Y-90638380D02*
X143478142Y-91495523D01*
X143525761Y-91590761D01*
X143621000Y-91638380D01*
X143716238Y-91638380D01*
X141374952Y-94130761D02*
X141517809Y-94178380D01*
X141755904Y-94178380D01*
X141851142Y-94130761D01*
X141898761Y-94083142D01*
X141946380Y-93987904D01*
X141946380Y-93892666D01*
X141898761Y-93797428D01*
X141851142Y-93749809D01*
X141755904Y-93702190D01*
X141565428Y-93654571D01*
X141470190Y-93606952D01*
X141422571Y-93559333D01*
X141374952Y-93464095D01*
X141374952Y-93368857D01*
X141422571Y-93273619D01*
X141470190Y-93226000D01*
X141565428Y-93178380D01*
X141803523Y-93178380D01*
X141946380Y-93226000D01*
X142803523Y-94130761D02*
X142708285Y-94178380D01*
X142517809Y-94178380D01*
X142422571Y-94130761D01*
X142374952Y-94083142D01*
X142327333Y-93987904D01*
X142327333Y-93702190D01*
X142374952Y-93606952D01*
X142422571Y-93559333D01*
X142517809Y-93511714D01*
X142708285Y-93511714D01*
X142803523Y-93559333D01*
X143232095Y-94178380D02*
X143232095Y-93178380D01*
X143327333Y-93797428D02*
X143613047Y-94178380D01*
X143613047Y-93511714D02*
X143232095Y-93892666D01*
X140811428Y-96718380D02*
X140811428Y-95718380D01*
X141144761Y-96432666D01*
X141478095Y-95718380D01*
X141478095Y-96718380D01*
X141954285Y-96718380D02*
X141954285Y-96051714D01*
X141954285Y-95718380D02*
X141906666Y-95766000D01*
X141954285Y-95813619D01*
X142001904Y-95766000D01*
X141954285Y-95718380D01*
X141954285Y-95813619D01*
X142382857Y-96670761D02*
X142478095Y-96718380D01*
X142668571Y-96718380D01*
X142763809Y-96670761D01*
X142811428Y-96575523D01*
X142811428Y-96527904D01*
X142763809Y-96432666D01*
X142668571Y-96385047D01*
X142525714Y-96385047D01*
X142430476Y-96337428D01*
X142382857Y-96242190D01*
X142382857Y-96194571D01*
X142430476Y-96099333D01*
X142525714Y-96051714D01*
X142668571Y-96051714D01*
X142763809Y-96099333D01*
X143382857Y-96718380D02*
X143287619Y-96670761D01*
X143240000Y-96623142D01*
X143192380Y-96527904D01*
X143192380Y-96242190D01*
X143240000Y-96146952D01*
X143287619Y-96099333D01*
X143382857Y-96051714D01*
X143525714Y-96051714D01*
X143620952Y-96099333D01*
X143668571Y-96146952D01*
X143716190Y-96242190D01*
X143716190Y-96527904D01*
X143668571Y-96623142D01*
X143620952Y-96670761D01*
X143525714Y-96718380D01*
X143382857Y-96718380D01*
X140303428Y-99258380D02*
X140303428Y-98258380D01*
X140636761Y-98972666D01*
X140970095Y-98258380D01*
X140970095Y-99258380D01*
X141589142Y-99258380D02*
X141493904Y-99210761D01*
X141446285Y-99163142D01*
X141398666Y-99067904D01*
X141398666Y-98782190D01*
X141446285Y-98686952D01*
X141493904Y-98639333D01*
X141589142Y-98591714D01*
X141732000Y-98591714D01*
X141827238Y-98639333D01*
X141874857Y-98686952D01*
X141922476Y-98782190D01*
X141922476Y-99067904D01*
X141874857Y-99163142D01*
X141827238Y-99210761D01*
X141732000Y-99258380D01*
X141589142Y-99258380D01*
X142303428Y-99210761D02*
X142398666Y-99258380D01*
X142589142Y-99258380D01*
X142684380Y-99210761D01*
X142732000Y-99115523D01*
X142732000Y-99067904D01*
X142684380Y-98972666D01*
X142589142Y-98925047D01*
X142446285Y-98925047D01*
X142351047Y-98877428D01*
X142303428Y-98782190D01*
X142303428Y-98734571D01*
X142351047Y-98639333D01*
X142446285Y-98591714D01*
X142589142Y-98591714D01*
X142684380Y-98639333D01*
X143160571Y-99258380D02*
X143160571Y-98591714D01*
X143160571Y-98258380D02*
X143112952Y-98306000D01*
X143160571Y-98353619D01*
X143208190Y-98306000D01*
X143160571Y-98258380D01*
X143160571Y-98353619D01*
X141009809Y-85161380D02*
X141009809Y-84161380D01*
X141438380Y-85113761D02*
X141581238Y-85161380D01*
X141819333Y-85161380D01*
X141914571Y-85113761D01*
X141962190Y-85066142D01*
X142009809Y-84970904D01*
X142009809Y-84875666D01*
X141962190Y-84780428D01*
X141914571Y-84732809D01*
X141819333Y-84685190D01*
X141628857Y-84637571D01*
X141533619Y-84589952D01*
X141486000Y-84542333D01*
X141438380Y-84447095D01*
X141438380Y-84351857D01*
X141486000Y-84256619D01*
X141533619Y-84209000D01*
X141628857Y-84161380D01*
X141866952Y-84161380D01*
X142009809Y-84209000D01*
X142438380Y-85161380D02*
X142438380Y-84161380D01*
X142819333Y-84161380D01*
X142914571Y-84209000D01*
X142962190Y-84256619D01*
X143009809Y-84351857D01*
X143009809Y-84494714D01*
X142962190Y-84589952D01*
X142914571Y-84637571D01*
X142819333Y-84685190D01*
X142438380Y-84685190D01*
X135382000Y-88900000D02*
X135382000Y-89408000D01*
X126746000Y-88900000D02*
X135382000Y-88900000D01*
X126746000Y-89408000D02*
X126746000Y-88900000D01*
X135382000Y-95504000D02*
X135382000Y-95377000D01*
X126746000Y-95504000D02*
X135382000Y-95504000D01*
X126746000Y-89281000D02*
X126746000Y-89408000D01*
X135382000Y-95504000D02*
X135382000Y-89281000D01*
X126746000Y-89408000D02*
X126746000Y-95504000D01*
D13*
X127873000Y-103036000D02*
X132373000Y-103036000D01*
X126623000Y-99036000D02*
X126623000Y-100536000D01*
X132373000Y-96536000D02*
X127873000Y-96536000D01*
X133623000Y-100536000D02*
X133623000Y-99036000D01*
X129023143Y-89718500D02*
X127623143Y-89718500D01*
X129023143Y-94818500D02*
X133173143Y-94818500D01*
X129023143Y-89668500D02*
X133173143Y-89668500D01*
X129023143Y-94818500D02*
X129023143Y-94673500D01*
X133173143Y-94818500D02*
X133173143Y-94673500D01*
X133173143Y-89668500D02*
X133173143Y-89813500D01*
X129023143Y-89668500D02*
X129023143Y-89718500D01*
D14*
X131691000Y-87034000D02*
X130691000Y-87034000D01*
X130691000Y-88734000D02*
X131691000Y-88734000D01*
D13*
X140361000Y-87604000D02*
X137261000Y-87604000D01*
X140361000Y-89154000D02*
X140361000Y-87604000D01*
X137541000Y-90424000D02*
X140081000Y-90424000D01*
X140081000Y-98044000D02*
X137541000Y-98044000D01*
X137261000Y-87604000D02*
X137261000Y-89154000D01*
X137541000Y-90424000D02*
X137541000Y-98044000D01*
X140081000Y-90424000D02*
X140081000Y-98044000D01*
X124206000Y-90424000D02*
X124206000Y-98044000D01*
X121666000Y-90424000D02*
X121666000Y-98044000D01*
X121386000Y-87604000D02*
X121386000Y-89154000D01*
X124206000Y-98044000D02*
X121666000Y-98044000D01*
X121666000Y-90424000D02*
X124206000Y-90424000D01*
X124486000Y-89154000D02*
X124486000Y-87604000D01*
X124486000Y-87604000D02*
X121386000Y-87604000D01*
X143738000Y-100483000D02*
X146838000Y-100483000D01*
X143738000Y-98933000D02*
X143738000Y-100483000D01*
X146558000Y-97663000D02*
X144018000Y-97663000D01*
X146838000Y-100483000D02*
X146838000Y-98933000D01*
X144018000Y-84963000D02*
X144018000Y-97663000D01*
X146558000Y-84963000D02*
X144018000Y-84963000D01*
X146558000Y-97663000D02*
X146558000Y-84963000D01*
X122061000Y-102073000D02*
X122061000Y-100873000D01*
X123811000Y-100873000D02*
X123811000Y-102073000D01*
D14*
X135421000Y-99068000D02*
X135421000Y-100068000D01*
X137121000Y-100068000D02*
X137121000Y-99068000D01*
D13*
X128789666Y-95940761D02*
X128932523Y-95988380D01*
X129170619Y-95988380D01*
X129265857Y-95940761D01*
X129313476Y-95893142D01*
X129361095Y-95797904D01*
X129361095Y-95702666D01*
X129313476Y-95607428D01*
X129265857Y-95559809D01*
X129170619Y-95512190D01*
X128980142Y-95464571D01*
X128884904Y-95416952D01*
X128837285Y-95369333D01*
X128789666Y-95274095D01*
X128789666Y-95178857D01*
X128837285Y-95083619D01*
X128884904Y-95036000D01*
X128980142Y-94988380D01*
X129218238Y-94988380D01*
X129361095Y-95036000D01*
X129694428Y-94988380D02*
X129932523Y-95988380D01*
X130123000Y-95274095D01*
X130313476Y-95988380D01*
X130551571Y-94988380D01*
X131456333Y-95988380D02*
X130884904Y-95988380D01*
X131170619Y-95988380D02*
X131170619Y-94988380D01*
X131075380Y-95131238D01*
X130980142Y-95226476D01*
X130884904Y-95274095D01*
D10*
X127337333Y-95180875D02*
X127337333Y-94942779D01*
X127480190Y-95246351D02*
X126980190Y-95017184D01*
X127480190Y-94913017D01*
X126980190Y-94755279D02*
X126980190Y-94469565D01*
X127480190Y-94674922D02*
X126980190Y-94612422D01*
X126980190Y-94374327D02*
X126980190Y-94088613D01*
X127480190Y-94293970D02*
X126980190Y-94231470D01*
X127480190Y-93984446D02*
X126980190Y-93921946D01*
X127480190Y-93746351D02*
X126980190Y-93683851D01*
X127480190Y-93460636D01*
X126980190Y-93398136D01*
X127242095Y-93097541D02*
X127480190Y-93127303D01*
X126980190Y-93231470D02*
X127242095Y-93097541D01*
X126980190Y-92898136D01*
X127480190Y-92532065D02*
X127480190Y-92817779D01*
X127480190Y-92674922D02*
X126980190Y-92612422D01*
X127051619Y-92668970D01*
X127099238Y-92722541D01*
X127123047Y-92773136D01*
X126980190Y-92302898D02*
X126980190Y-91993375D01*
X127170666Y-92183851D01*
X127170666Y-92112422D01*
X127194476Y-92067779D01*
X127218285Y-92046946D01*
X127265904Y-92029089D01*
X127384952Y-92043970D01*
X127432571Y-92073732D01*
X127456380Y-92100517D01*
X127480190Y-92151113D01*
X127480190Y-92293970D01*
X127456380Y-92338613D01*
X127432571Y-92359446D01*
X127337333Y-91847541D02*
X127337333Y-91609446D01*
X127480190Y-91913017D02*
X126980190Y-91683851D01*
X127480190Y-91579684D01*
X127289714Y-91389208D02*
X127289714Y-91008255D01*
X127456380Y-90814803D02*
X127480190Y-90746351D01*
X127480190Y-90627303D01*
X127456380Y-90576708D01*
X127432571Y-90549922D01*
X127384952Y-90520160D01*
X127337333Y-90514208D01*
X127289714Y-90532065D01*
X127265904Y-90552898D01*
X127242095Y-90597541D01*
X127218285Y-90689803D01*
X127194476Y-90734446D01*
X127170666Y-90755279D01*
X127123047Y-90773136D01*
X127075428Y-90767184D01*
X127027809Y-90737422D01*
X127004000Y-90710636D01*
X126980190Y-90660041D01*
X126980190Y-90540994D01*
X127004000Y-90472541D01*
X127456380Y-90338613D02*
X127480190Y-90270160D01*
X127480190Y-90151113D01*
X127456380Y-90100517D01*
X127432571Y-90073732D01*
X127384952Y-90043970D01*
X127337333Y-90038017D01*
X127289714Y-90055875D01*
X127265904Y-90076708D01*
X127242095Y-90121351D01*
X127218285Y-90213613D01*
X127194476Y-90258255D01*
X127170666Y-90279089D01*
X127123047Y-90296946D01*
X127075428Y-90290994D01*
X127027809Y-90261232D01*
X127004000Y-90234446D01*
X126980190Y-90183851D01*
X126980190Y-90064803D01*
X127004000Y-89996351D01*
X126980190Y-89779089D02*
X127384952Y-89829684D01*
X127432571Y-89811827D01*
X127456380Y-89790994D01*
X127480190Y-89746351D01*
X127480190Y-89651113D01*
X127456380Y-89600517D01*
X127432571Y-89573732D01*
X127384952Y-89543970D01*
X126980190Y-89493375D01*
X121511190Y-101770619D02*
X121511190Y-102056333D01*
X121511190Y-101913476D02*
X121011190Y-101913476D01*
X121082619Y-101961095D01*
X121130238Y-102008714D01*
X121154047Y-102056333D01*
X121011190Y-101461095D02*
X121011190Y-101413476D01*
X121035000Y-101365857D01*
X121058809Y-101342047D01*
X121106428Y-101318238D01*
X121201666Y-101294428D01*
X121320714Y-101294428D01*
X121415952Y-101318238D01*
X121463571Y-101342047D01*
X121487380Y-101365857D01*
X121511190Y-101413476D01*
X121511190Y-101461095D01*
X121487380Y-101508714D01*
X121463571Y-101532523D01*
X121415952Y-101556333D01*
X121320714Y-101580142D01*
X121201666Y-101580142D01*
X121106428Y-101556333D01*
X121058809Y-101532523D01*
X121035000Y-101508714D01*
X121011190Y-101461095D01*
X121511190Y-101080142D02*
X121011190Y-101080142D01*
X121320714Y-101032523D02*
X121511190Y-100889666D01*
X121177857Y-100889666D02*
X121368333Y-101080142D01*
D13*
X138728142Y-99734666D02*
X138775761Y-99782285D01*
X138823380Y-99925142D01*
X138823380Y-100020380D01*
X138775761Y-100163238D01*
X138680523Y-100258476D01*
X138585285Y-100306095D01*
X138394809Y-100353714D01*
X138251952Y-100353714D01*
X138061476Y-100306095D01*
X137966238Y-100258476D01*
X137871000Y-100163238D01*
X137823380Y-100020380D01*
X137823380Y-99925142D01*
X137871000Y-99782285D01*
X137918619Y-99734666D01*
X137918619Y-99353714D02*
X137871000Y-99306095D01*
X137823380Y-99210857D01*
X137823380Y-98972761D01*
X137871000Y-98877523D01*
X137918619Y-98829904D01*
X138013857Y-98782285D01*
X138109095Y-98782285D01*
X138251952Y-98829904D01*
X138823380Y-99401333D01*
X138823380Y-98782285D01*
M02*
