G04 #@! TF.GenerationSoftware,KiCad,Pcbnew,(2017-01-24 revision 0b6147e)-makepkg*
G04 #@! TF.CreationDate,2017-01-29T22:57:48+05:30*
G04 #@! TF.ProjectId,attiny13a,617474696E793133612E6B696361645F,0.1*
G04 #@! TF.FileFunction,Copper,L1,Top,Signal*
G04 #@! TF.FilePolarity,Positive*
%FSLAX46Y46*%
G04 Gerber Fmt 4.6, Leading zero omitted, Abs format (unit mm)*
G04 Created by KiCad (PCBNEW (2017-01-24 revision 0b6147e)-makepkg) date 01/29/17 22:57:48*
%MOMM*%
%LPD*%
G01*
G04 APERTURE LIST*
%ADD10C,0.100000*%
%ADD11C,2.000000*%
%ADD12R,1.550000X0.600000*%
%ADD13R,1.500000X1.250000*%
%ADD14O,2.032000X1.727200*%
%ADD15R,2.032000X1.727200*%
%ADD16R,1.300000X1.500000*%
%ADD17R,1.250000X1.500000*%
%ADD18C,0.800000*%
%ADD19C,0.500000*%
%ADD20C,0.250000*%
%ADD21C,0.254000*%
G04 APERTURE END LIST*
D10*
D11*
X126873000Y-102036000D03*
X126873000Y-97536000D03*
X133373000Y-102036000D03*
X133373000Y-97536000D03*
D12*
X133798143Y-90338500D03*
X133798143Y-91608500D03*
X133798143Y-92878500D03*
X133798143Y-94148500D03*
X128398143Y-94148500D03*
X128398143Y-92878500D03*
X128398143Y-91608500D03*
X128398143Y-90338500D03*
D13*
X129941000Y-87884000D03*
X132441000Y-87884000D03*
D14*
X138811000Y-96774000D03*
X138811000Y-94234000D03*
X138811000Y-91694000D03*
D15*
X138811000Y-89154000D03*
X122936000Y-89154000D03*
D14*
X122936000Y-91694000D03*
X122936000Y-94234000D03*
X122936000Y-96774000D03*
X145288000Y-86233000D03*
X145288000Y-88773000D03*
X145288000Y-91313000D03*
X145288000Y-93853000D03*
X145288000Y-96393000D03*
D15*
X145288000Y-98933000D03*
D16*
X122936000Y-100123000D03*
X122936000Y-102823000D03*
D17*
X136271000Y-100818000D03*
X136271000Y-98318000D03*
D18*
X127254000Y-86741000D03*
D19*
X133798143Y-89213857D02*
X133798143Y-87943857D01*
X133798143Y-87943857D02*
X133738286Y-87884000D01*
X133738286Y-87884000D02*
X132441000Y-87884000D01*
X138811000Y-89154000D02*
X144907000Y-89154000D01*
D20*
X144907000Y-89154000D02*
X145288000Y-88773000D01*
X138811000Y-89154000D02*
X144272000Y-89154000D01*
D19*
X138811000Y-89154000D02*
X133858000Y-89154000D01*
X133858000Y-89154000D02*
X133798143Y-89213857D01*
X133798143Y-89213857D02*
X133798143Y-90338500D01*
D20*
X145288000Y-98933000D02*
X140970000Y-98933000D01*
X140970000Y-98933000D02*
X138811000Y-96774000D01*
X138811000Y-96774000D02*
X136423643Y-96774000D01*
X136423643Y-96774000D02*
X133798143Y-94148500D01*
X145288000Y-96393000D02*
X140970000Y-96393000D01*
X140970000Y-96393000D02*
X138811000Y-94234000D01*
X138811000Y-94234000D02*
X137541000Y-94234000D01*
X136185500Y-92878500D02*
X133798143Y-92878500D01*
X137541000Y-94234000D02*
X136185500Y-92878500D01*
X145288000Y-93853000D02*
X140970000Y-93853000D01*
X140970000Y-93853000D02*
X138811000Y-91694000D01*
X138811000Y-91694000D02*
X133883643Y-91694000D01*
X133883643Y-91694000D02*
X133798143Y-91608500D01*
X127213643Y-86781357D02*
X127213643Y-89154000D01*
X127254000Y-86741000D02*
X127213643Y-86781357D01*
X126873000Y-102036000D02*
X131199500Y-102036000D01*
X131199500Y-102036000D02*
X131318000Y-101917500D01*
X131318000Y-101917500D02*
X131318000Y-102036000D01*
X128398143Y-90338500D02*
X131086000Y-90338500D01*
X131086000Y-90338500D02*
X131191000Y-90443500D01*
X131191000Y-90443500D02*
X131191000Y-102044500D01*
X131191000Y-102044500D02*
X131199500Y-102036000D01*
X131199500Y-102036000D02*
X131318000Y-102036000D01*
X131318000Y-102036000D02*
X133373000Y-102036000D01*
X126873000Y-102036000D02*
X126873000Y-101600000D01*
X136271000Y-100818000D02*
X134591000Y-100818000D01*
X134591000Y-100818000D02*
X133373000Y-102036000D01*
X122936000Y-89154000D02*
X127213643Y-89154000D01*
X127213643Y-89154000D02*
X128398143Y-90338500D01*
X122936000Y-91694000D02*
X128312643Y-91694000D01*
X128312643Y-91694000D02*
X128398143Y-91608500D01*
X122936000Y-94234000D02*
X123317000Y-94234000D01*
X123317000Y-94234000D02*
X124672500Y-92878500D01*
X124672500Y-92878500D02*
X128398143Y-92878500D01*
X136271000Y-98318000D02*
X134155000Y-98318000D01*
X134155000Y-98318000D02*
X133373000Y-97536000D01*
X126873000Y-97536000D02*
X125523000Y-97536000D01*
X125523000Y-97536000D02*
X122936000Y-100123000D01*
D21*
G36*
X147193000Y-104192000D02*
X123750937Y-104192000D01*
X123945699Y-104111327D01*
X124124327Y-103932698D01*
X124221000Y-103699309D01*
X124221000Y-103108750D01*
X124062250Y-102950000D01*
X123063000Y-102950000D01*
X123063000Y-102970000D01*
X122809000Y-102970000D01*
X122809000Y-102950000D01*
X121809750Y-102950000D01*
X121651000Y-103108750D01*
X121651000Y-103699309D01*
X121747673Y-103932698D01*
X121926301Y-104111327D01*
X122121063Y-104192000D01*
X120344000Y-104192000D01*
X120344000Y-99373000D01*
X121638560Y-99373000D01*
X121638560Y-100873000D01*
X121687843Y-101120765D01*
X121828191Y-101330809D01*
X122038235Y-101471157D01*
X122066209Y-101476721D01*
X121926301Y-101534673D01*
X121747673Y-101713302D01*
X121651000Y-101946691D01*
X121651000Y-102537250D01*
X121809750Y-102696000D01*
X122809000Y-102696000D01*
X122809000Y-102676000D01*
X123063000Y-102676000D01*
X123063000Y-102696000D01*
X124062250Y-102696000D01*
X124221000Y-102537250D01*
X124221000Y-101946691D01*
X124124327Y-101713302D01*
X123945699Y-101534673D01*
X123805791Y-101476721D01*
X123833765Y-101471157D01*
X124043809Y-101330809D01*
X124184157Y-101120765D01*
X124233440Y-100873000D01*
X124233440Y-99900362D01*
X125579401Y-98554401D01*
X125945637Y-98921278D01*
X126546352Y-99170716D01*
X127196795Y-99171284D01*
X127797943Y-98922894D01*
X128258278Y-98463363D01*
X128507716Y-97862648D01*
X128508284Y-97212205D01*
X128259894Y-96611057D01*
X127800363Y-96150722D01*
X127199648Y-95901284D01*
X126549205Y-95900716D01*
X125948057Y-96149106D01*
X125487722Y-96608637D01*
X125408794Y-96798717D01*
X125232161Y-96833852D01*
X125232159Y-96833853D01*
X125232160Y-96833853D01*
X124985599Y-96998599D01*
X123258638Y-98725560D01*
X122286000Y-98725560D01*
X122038235Y-98774843D01*
X121828191Y-98915191D01*
X121687843Y-99125235D01*
X121638560Y-99373000D01*
X120344000Y-99373000D01*
X120344000Y-97133026D01*
X121328642Y-97133026D01*
X121331291Y-97148791D01*
X121585268Y-97676036D01*
X122021680Y-98065954D01*
X122574087Y-98259184D01*
X122809000Y-98114924D01*
X122809000Y-96901000D01*
X123063000Y-96901000D01*
X123063000Y-98114924D01*
X123297913Y-98259184D01*
X123850320Y-98065954D01*
X124286732Y-97676036D01*
X124540709Y-97148791D01*
X124543358Y-97133026D01*
X124422217Y-96901000D01*
X123063000Y-96901000D01*
X122809000Y-96901000D01*
X121449783Y-96901000D01*
X121328642Y-97133026D01*
X120344000Y-97133026D01*
X120344000Y-91694000D01*
X121252655Y-91694000D01*
X121366729Y-92267489D01*
X121691585Y-92753670D01*
X122006366Y-92964000D01*
X121691585Y-93174330D01*
X121366729Y-93660511D01*
X121252655Y-94234000D01*
X121366729Y-94807489D01*
X121691585Y-95293670D01*
X122001069Y-95500461D01*
X121585268Y-95871964D01*
X121331291Y-96399209D01*
X121328642Y-96414974D01*
X121449783Y-96647000D01*
X122809000Y-96647000D01*
X122809000Y-96627000D01*
X123063000Y-96627000D01*
X123063000Y-96647000D01*
X124422217Y-96647000D01*
X124543358Y-96414974D01*
X124540709Y-96399209D01*
X124286732Y-95871964D01*
X123870931Y-95500461D01*
X124180415Y-95293670D01*
X124505271Y-94807489D01*
X124579512Y-94434250D01*
X126988143Y-94434250D01*
X126988143Y-94574810D01*
X127084816Y-94808199D01*
X127263445Y-94986827D01*
X127496834Y-95083500D01*
X128112393Y-95083500D01*
X128271143Y-94924750D01*
X128271143Y-94275500D01*
X128525143Y-94275500D01*
X128525143Y-94924750D01*
X128683893Y-95083500D01*
X129299452Y-95083500D01*
X129532841Y-94986827D01*
X129711470Y-94808199D01*
X129808143Y-94574810D01*
X129808143Y-94434250D01*
X129649393Y-94275500D01*
X128525143Y-94275500D01*
X128271143Y-94275500D01*
X127146893Y-94275500D01*
X126988143Y-94434250D01*
X124579512Y-94434250D01*
X124619345Y-94234000D01*
X124581593Y-94044209D01*
X124987302Y-93638500D01*
X127022809Y-93638500D01*
X126988143Y-93722190D01*
X126988143Y-93862750D01*
X127146893Y-94021500D01*
X128271143Y-94021500D01*
X128271143Y-94001500D01*
X128525143Y-94001500D01*
X128525143Y-94021500D01*
X129649393Y-94021500D01*
X129808143Y-93862750D01*
X129808143Y-93722190D01*
X129718375Y-93505472D01*
X129771300Y-93426265D01*
X129820583Y-93178500D01*
X129820583Y-92578500D01*
X129771300Y-92330735D01*
X129713011Y-92243500D01*
X129771300Y-92156265D01*
X129820583Y-91908500D01*
X129820583Y-91308500D01*
X129778812Y-91098500D01*
X130431000Y-91098500D01*
X130431000Y-101276000D01*
X128328047Y-101276000D01*
X128259894Y-101111057D01*
X127800363Y-100650722D01*
X127199648Y-100401284D01*
X126549205Y-100400716D01*
X125948057Y-100649106D01*
X125487722Y-101108637D01*
X125238284Y-101709352D01*
X125237716Y-102359795D01*
X125486106Y-102960943D01*
X125945637Y-103421278D01*
X126546352Y-103670716D01*
X127196795Y-103671284D01*
X127797943Y-103422894D01*
X128258278Y-102963363D01*
X128327773Y-102796000D01*
X131148268Y-102796000D01*
X131191000Y-102804500D01*
X131233732Y-102796000D01*
X131917953Y-102796000D01*
X131986106Y-102960943D01*
X132445637Y-103421278D01*
X133046352Y-103670716D01*
X133696795Y-103671284D01*
X134297943Y-103422894D01*
X134758278Y-102963363D01*
X135007716Y-102362648D01*
X135008284Y-101712205D01*
X134952831Y-101578000D01*
X135000549Y-101578000D01*
X135047843Y-101815765D01*
X135188191Y-102025809D01*
X135398235Y-102166157D01*
X135646000Y-102215440D01*
X136896000Y-102215440D01*
X137143765Y-102166157D01*
X137353809Y-102025809D01*
X137494157Y-101815765D01*
X137543440Y-101568000D01*
X137543440Y-100068000D01*
X137494157Y-99820235D01*
X137353809Y-99610191D01*
X137290666Y-99568000D01*
X137353809Y-99525809D01*
X137494157Y-99315765D01*
X137543440Y-99068000D01*
X137543440Y-97799031D01*
X137566585Y-97833670D01*
X138052766Y-98158526D01*
X138626255Y-98272600D01*
X138995745Y-98272600D01*
X139195137Y-98232939D01*
X140432599Y-99470401D01*
X140679161Y-99635148D01*
X140970000Y-99693000D01*
X143624560Y-99693000D01*
X143624560Y-99796600D01*
X143673843Y-100044365D01*
X143814191Y-100254409D01*
X144024235Y-100394757D01*
X144272000Y-100444040D01*
X146304000Y-100444040D01*
X146551765Y-100394757D01*
X146761809Y-100254409D01*
X146902157Y-100044365D01*
X146951440Y-99796600D01*
X146951440Y-98069400D01*
X146902157Y-97821635D01*
X146761809Y-97611591D01*
X146551765Y-97471243D01*
X146515434Y-97464016D01*
X146532415Y-97452670D01*
X146857271Y-96966489D01*
X146971345Y-96393000D01*
X146857271Y-95819511D01*
X146532415Y-95333330D01*
X146217634Y-95123000D01*
X146532415Y-94912670D01*
X146857271Y-94426489D01*
X146971345Y-93853000D01*
X146857271Y-93279511D01*
X146532415Y-92793330D01*
X146217634Y-92583000D01*
X146532415Y-92372670D01*
X146857271Y-91886489D01*
X146971345Y-91313000D01*
X146857271Y-90739511D01*
X146532415Y-90253330D01*
X146217634Y-90043000D01*
X146532415Y-89832670D01*
X146857271Y-89346489D01*
X146971345Y-88773000D01*
X146857271Y-88199511D01*
X146532415Y-87713330D01*
X146222931Y-87506539D01*
X146638732Y-87135036D01*
X146892709Y-86607791D01*
X146895358Y-86592026D01*
X146774217Y-86360000D01*
X145415000Y-86360000D01*
X145415000Y-86380000D01*
X145161000Y-86380000D01*
X145161000Y-86360000D01*
X143801783Y-86360000D01*
X143680642Y-86592026D01*
X143683291Y-86607791D01*
X143937268Y-87135036D01*
X144353069Y-87506539D01*
X144043585Y-87713330D01*
X143718729Y-88199511D01*
X143704907Y-88269000D01*
X140470183Y-88269000D01*
X140425157Y-88042635D01*
X140284809Y-87832591D01*
X140074765Y-87692243D01*
X139827000Y-87642960D01*
X137795000Y-87642960D01*
X137547235Y-87692243D01*
X137337191Y-87832591D01*
X137196843Y-88042635D01*
X137151817Y-88269000D01*
X134683143Y-88269000D01*
X134683143Y-87943862D01*
X134683144Y-87943857D01*
X134615777Y-87605183D01*
X134470977Y-87388474D01*
X134423933Y-87318067D01*
X134423930Y-87318065D01*
X134364076Y-87258210D01*
X134076961Y-87066367D01*
X134020770Y-87055190D01*
X133787526Y-87008794D01*
X133648809Y-86801191D01*
X133438765Y-86660843D01*
X133191000Y-86611560D01*
X131691000Y-86611560D01*
X131443235Y-86660843D01*
X131233191Y-86801191D01*
X131192346Y-86862320D01*
X131050698Y-86720673D01*
X130817309Y-86624000D01*
X130226750Y-86624000D01*
X130068000Y-86782750D01*
X130068000Y-87757000D01*
X130088000Y-87757000D01*
X130088000Y-88011000D01*
X130068000Y-88011000D01*
X130068000Y-88985250D01*
X130226750Y-89144000D01*
X130817309Y-89144000D01*
X131050698Y-89047327D01*
X131192346Y-88905680D01*
X131233191Y-88966809D01*
X131443235Y-89107157D01*
X131691000Y-89156440D01*
X132913143Y-89156440D01*
X132913143Y-89213852D01*
X132913142Y-89213857D01*
X132913143Y-89213862D01*
X132913143Y-89412940D01*
X132775378Y-89440343D01*
X132565334Y-89580691D01*
X132424986Y-89790735D01*
X132375703Y-90038500D01*
X132375703Y-90638500D01*
X132424986Y-90886265D01*
X132483275Y-90973500D01*
X132424986Y-91060735D01*
X132375703Y-91308500D01*
X132375703Y-91908500D01*
X132424986Y-92156265D01*
X132483275Y-92243500D01*
X132424986Y-92330735D01*
X132375703Y-92578500D01*
X132375703Y-93178500D01*
X132424986Y-93426265D01*
X132483275Y-93513500D01*
X132424986Y-93600735D01*
X132375703Y-93848500D01*
X132375703Y-94448500D01*
X132424986Y-94696265D01*
X132565334Y-94906309D01*
X132775378Y-95046657D01*
X133023143Y-95095940D01*
X133670781Y-95095940D01*
X135520387Y-96945546D01*
X135398235Y-96969843D01*
X135188191Y-97110191D01*
X135047843Y-97320235D01*
X135008015Y-97520467D01*
X135008284Y-97212205D01*
X134759894Y-96611057D01*
X134300363Y-96150722D01*
X133699648Y-95901284D01*
X133049205Y-95900716D01*
X132448057Y-96149106D01*
X131987722Y-96608637D01*
X131951000Y-96697074D01*
X131951000Y-90443500D01*
X131893148Y-90152661D01*
X131893148Y-90152660D01*
X131728401Y-89906099D01*
X131623401Y-89801099D01*
X131376839Y-89636352D01*
X131086000Y-89578500D01*
X129627673Y-89578500D01*
X129420908Y-89440343D01*
X129173143Y-89391060D01*
X128525505Y-89391060D01*
X127973643Y-88839198D01*
X127973643Y-88169750D01*
X128556000Y-88169750D01*
X128556000Y-88635310D01*
X128652673Y-88868699D01*
X128831302Y-89047327D01*
X129064691Y-89144000D01*
X129655250Y-89144000D01*
X129814000Y-88985250D01*
X129814000Y-88011000D01*
X128714750Y-88011000D01*
X128556000Y-88169750D01*
X127973643Y-88169750D01*
X127973643Y-87485048D01*
X128130919Y-87328046D01*
X128212037Y-87132690D01*
X128556000Y-87132690D01*
X128556000Y-87598250D01*
X128714750Y-87757000D01*
X129814000Y-87757000D01*
X129814000Y-86782750D01*
X129655250Y-86624000D01*
X129064691Y-86624000D01*
X128831302Y-86720673D01*
X128652673Y-86899301D01*
X128556000Y-87132690D01*
X128212037Y-87132690D01*
X128288820Y-86947777D01*
X128289179Y-86536029D01*
X128131942Y-86155485D01*
X127850922Y-85873974D01*
X143680642Y-85873974D01*
X143801783Y-86106000D01*
X145161000Y-86106000D01*
X145161000Y-84892076D01*
X145415000Y-84892076D01*
X145415000Y-86106000D01*
X146774217Y-86106000D01*
X146895358Y-85873974D01*
X146892709Y-85858209D01*
X146638732Y-85330964D01*
X146202320Y-84941046D01*
X145649913Y-84747816D01*
X145415000Y-84892076D01*
X145161000Y-84892076D01*
X144926087Y-84747816D01*
X144373680Y-84941046D01*
X143937268Y-85330964D01*
X143683291Y-85858209D01*
X143680642Y-85873974D01*
X127850922Y-85873974D01*
X127841046Y-85864081D01*
X127460777Y-85706180D01*
X127049029Y-85705821D01*
X126668485Y-85863058D01*
X126377081Y-86153954D01*
X126219180Y-86534223D01*
X126218821Y-86945971D01*
X126376058Y-87326515D01*
X126453643Y-87404235D01*
X126453643Y-88394000D01*
X124599440Y-88394000D01*
X124599440Y-88290400D01*
X124550157Y-88042635D01*
X124409809Y-87832591D01*
X124199765Y-87692243D01*
X123952000Y-87642960D01*
X121920000Y-87642960D01*
X121672235Y-87692243D01*
X121462191Y-87832591D01*
X121321843Y-88042635D01*
X121272560Y-88290400D01*
X121272560Y-90017600D01*
X121321843Y-90265365D01*
X121462191Y-90475409D01*
X121672235Y-90615757D01*
X121708566Y-90622984D01*
X121691585Y-90634330D01*
X121366729Y-91120511D01*
X121252655Y-91694000D01*
X120344000Y-91694000D01*
X120344000Y-84276000D01*
X147193000Y-84276000D01*
X147193000Y-104192000D01*
X147193000Y-104192000D01*
G37*
X147193000Y-104192000D02*
X123750937Y-104192000D01*
X123945699Y-104111327D01*
X124124327Y-103932698D01*
X124221000Y-103699309D01*
X124221000Y-103108750D01*
X124062250Y-102950000D01*
X123063000Y-102950000D01*
X123063000Y-102970000D01*
X122809000Y-102970000D01*
X122809000Y-102950000D01*
X121809750Y-102950000D01*
X121651000Y-103108750D01*
X121651000Y-103699309D01*
X121747673Y-103932698D01*
X121926301Y-104111327D01*
X122121063Y-104192000D01*
X120344000Y-104192000D01*
X120344000Y-99373000D01*
X121638560Y-99373000D01*
X121638560Y-100873000D01*
X121687843Y-101120765D01*
X121828191Y-101330809D01*
X122038235Y-101471157D01*
X122066209Y-101476721D01*
X121926301Y-101534673D01*
X121747673Y-101713302D01*
X121651000Y-101946691D01*
X121651000Y-102537250D01*
X121809750Y-102696000D01*
X122809000Y-102696000D01*
X122809000Y-102676000D01*
X123063000Y-102676000D01*
X123063000Y-102696000D01*
X124062250Y-102696000D01*
X124221000Y-102537250D01*
X124221000Y-101946691D01*
X124124327Y-101713302D01*
X123945699Y-101534673D01*
X123805791Y-101476721D01*
X123833765Y-101471157D01*
X124043809Y-101330809D01*
X124184157Y-101120765D01*
X124233440Y-100873000D01*
X124233440Y-99900362D01*
X125579401Y-98554401D01*
X125945637Y-98921278D01*
X126546352Y-99170716D01*
X127196795Y-99171284D01*
X127797943Y-98922894D01*
X128258278Y-98463363D01*
X128507716Y-97862648D01*
X128508284Y-97212205D01*
X128259894Y-96611057D01*
X127800363Y-96150722D01*
X127199648Y-95901284D01*
X126549205Y-95900716D01*
X125948057Y-96149106D01*
X125487722Y-96608637D01*
X125408794Y-96798717D01*
X125232161Y-96833852D01*
X125232159Y-96833853D01*
X125232160Y-96833853D01*
X124985599Y-96998599D01*
X123258638Y-98725560D01*
X122286000Y-98725560D01*
X122038235Y-98774843D01*
X121828191Y-98915191D01*
X121687843Y-99125235D01*
X121638560Y-99373000D01*
X120344000Y-99373000D01*
X120344000Y-97133026D01*
X121328642Y-97133026D01*
X121331291Y-97148791D01*
X121585268Y-97676036D01*
X122021680Y-98065954D01*
X122574087Y-98259184D01*
X122809000Y-98114924D01*
X122809000Y-96901000D01*
X123063000Y-96901000D01*
X123063000Y-98114924D01*
X123297913Y-98259184D01*
X123850320Y-98065954D01*
X124286732Y-97676036D01*
X124540709Y-97148791D01*
X124543358Y-97133026D01*
X124422217Y-96901000D01*
X123063000Y-96901000D01*
X122809000Y-96901000D01*
X121449783Y-96901000D01*
X121328642Y-97133026D01*
X120344000Y-97133026D01*
X120344000Y-91694000D01*
X121252655Y-91694000D01*
X121366729Y-92267489D01*
X121691585Y-92753670D01*
X122006366Y-92964000D01*
X121691585Y-93174330D01*
X121366729Y-93660511D01*
X121252655Y-94234000D01*
X121366729Y-94807489D01*
X121691585Y-95293670D01*
X122001069Y-95500461D01*
X121585268Y-95871964D01*
X121331291Y-96399209D01*
X121328642Y-96414974D01*
X121449783Y-96647000D01*
X122809000Y-96647000D01*
X122809000Y-96627000D01*
X123063000Y-96627000D01*
X123063000Y-96647000D01*
X124422217Y-96647000D01*
X124543358Y-96414974D01*
X124540709Y-96399209D01*
X124286732Y-95871964D01*
X123870931Y-95500461D01*
X124180415Y-95293670D01*
X124505271Y-94807489D01*
X124579512Y-94434250D01*
X126988143Y-94434250D01*
X126988143Y-94574810D01*
X127084816Y-94808199D01*
X127263445Y-94986827D01*
X127496834Y-95083500D01*
X128112393Y-95083500D01*
X128271143Y-94924750D01*
X128271143Y-94275500D01*
X128525143Y-94275500D01*
X128525143Y-94924750D01*
X128683893Y-95083500D01*
X129299452Y-95083500D01*
X129532841Y-94986827D01*
X129711470Y-94808199D01*
X129808143Y-94574810D01*
X129808143Y-94434250D01*
X129649393Y-94275500D01*
X128525143Y-94275500D01*
X128271143Y-94275500D01*
X127146893Y-94275500D01*
X126988143Y-94434250D01*
X124579512Y-94434250D01*
X124619345Y-94234000D01*
X124581593Y-94044209D01*
X124987302Y-93638500D01*
X127022809Y-93638500D01*
X126988143Y-93722190D01*
X126988143Y-93862750D01*
X127146893Y-94021500D01*
X128271143Y-94021500D01*
X128271143Y-94001500D01*
X128525143Y-94001500D01*
X128525143Y-94021500D01*
X129649393Y-94021500D01*
X129808143Y-93862750D01*
X129808143Y-93722190D01*
X129718375Y-93505472D01*
X129771300Y-93426265D01*
X129820583Y-93178500D01*
X129820583Y-92578500D01*
X129771300Y-92330735D01*
X129713011Y-92243500D01*
X129771300Y-92156265D01*
X129820583Y-91908500D01*
X129820583Y-91308500D01*
X129778812Y-91098500D01*
X130431000Y-91098500D01*
X130431000Y-101276000D01*
X128328047Y-101276000D01*
X128259894Y-101111057D01*
X127800363Y-100650722D01*
X127199648Y-100401284D01*
X126549205Y-100400716D01*
X125948057Y-100649106D01*
X125487722Y-101108637D01*
X125238284Y-101709352D01*
X125237716Y-102359795D01*
X125486106Y-102960943D01*
X125945637Y-103421278D01*
X126546352Y-103670716D01*
X127196795Y-103671284D01*
X127797943Y-103422894D01*
X128258278Y-102963363D01*
X128327773Y-102796000D01*
X131148268Y-102796000D01*
X131191000Y-102804500D01*
X131233732Y-102796000D01*
X131917953Y-102796000D01*
X131986106Y-102960943D01*
X132445637Y-103421278D01*
X133046352Y-103670716D01*
X133696795Y-103671284D01*
X134297943Y-103422894D01*
X134758278Y-102963363D01*
X135007716Y-102362648D01*
X135008284Y-101712205D01*
X134952831Y-101578000D01*
X135000549Y-101578000D01*
X135047843Y-101815765D01*
X135188191Y-102025809D01*
X135398235Y-102166157D01*
X135646000Y-102215440D01*
X136896000Y-102215440D01*
X137143765Y-102166157D01*
X137353809Y-102025809D01*
X137494157Y-101815765D01*
X137543440Y-101568000D01*
X137543440Y-100068000D01*
X137494157Y-99820235D01*
X137353809Y-99610191D01*
X137290666Y-99568000D01*
X137353809Y-99525809D01*
X137494157Y-99315765D01*
X137543440Y-99068000D01*
X137543440Y-97799031D01*
X137566585Y-97833670D01*
X138052766Y-98158526D01*
X138626255Y-98272600D01*
X138995745Y-98272600D01*
X139195137Y-98232939D01*
X140432599Y-99470401D01*
X140679161Y-99635148D01*
X140970000Y-99693000D01*
X143624560Y-99693000D01*
X143624560Y-99796600D01*
X143673843Y-100044365D01*
X143814191Y-100254409D01*
X144024235Y-100394757D01*
X144272000Y-100444040D01*
X146304000Y-100444040D01*
X146551765Y-100394757D01*
X146761809Y-100254409D01*
X146902157Y-100044365D01*
X146951440Y-99796600D01*
X146951440Y-98069400D01*
X146902157Y-97821635D01*
X146761809Y-97611591D01*
X146551765Y-97471243D01*
X146515434Y-97464016D01*
X146532415Y-97452670D01*
X146857271Y-96966489D01*
X146971345Y-96393000D01*
X146857271Y-95819511D01*
X146532415Y-95333330D01*
X146217634Y-95123000D01*
X146532415Y-94912670D01*
X146857271Y-94426489D01*
X146971345Y-93853000D01*
X146857271Y-93279511D01*
X146532415Y-92793330D01*
X146217634Y-92583000D01*
X146532415Y-92372670D01*
X146857271Y-91886489D01*
X146971345Y-91313000D01*
X146857271Y-90739511D01*
X146532415Y-90253330D01*
X146217634Y-90043000D01*
X146532415Y-89832670D01*
X146857271Y-89346489D01*
X146971345Y-88773000D01*
X146857271Y-88199511D01*
X146532415Y-87713330D01*
X146222931Y-87506539D01*
X146638732Y-87135036D01*
X146892709Y-86607791D01*
X146895358Y-86592026D01*
X146774217Y-86360000D01*
X145415000Y-86360000D01*
X145415000Y-86380000D01*
X145161000Y-86380000D01*
X145161000Y-86360000D01*
X143801783Y-86360000D01*
X143680642Y-86592026D01*
X143683291Y-86607791D01*
X143937268Y-87135036D01*
X144353069Y-87506539D01*
X144043585Y-87713330D01*
X143718729Y-88199511D01*
X143704907Y-88269000D01*
X140470183Y-88269000D01*
X140425157Y-88042635D01*
X140284809Y-87832591D01*
X140074765Y-87692243D01*
X139827000Y-87642960D01*
X137795000Y-87642960D01*
X137547235Y-87692243D01*
X137337191Y-87832591D01*
X137196843Y-88042635D01*
X137151817Y-88269000D01*
X134683143Y-88269000D01*
X134683143Y-87943862D01*
X134683144Y-87943857D01*
X134615777Y-87605183D01*
X134470977Y-87388474D01*
X134423933Y-87318067D01*
X134423930Y-87318065D01*
X134364076Y-87258210D01*
X134076961Y-87066367D01*
X134020770Y-87055190D01*
X133787526Y-87008794D01*
X133648809Y-86801191D01*
X133438765Y-86660843D01*
X133191000Y-86611560D01*
X131691000Y-86611560D01*
X131443235Y-86660843D01*
X131233191Y-86801191D01*
X131192346Y-86862320D01*
X131050698Y-86720673D01*
X130817309Y-86624000D01*
X130226750Y-86624000D01*
X130068000Y-86782750D01*
X130068000Y-87757000D01*
X130088000Y-87757000D01*
X130088000Y-88011000D01*
X130068000Y-88011000D01*
X130068000Y-88985250D01*
X130226750Y-89144000D01*
X130817309Y-89144000D01*
X131050698Y-89047327D01*
X131192346Y-88905680D01*
X131233191Y-88966809D01*
X131443235Y-89107157D01*
X131691000Y-89156440D01*
X132913143Y-89156440D01*
X132913143Y-89213852D01*
X132913142Y-89213857D01*
X132913143Y-89213862D01*
X132913143Y-89412940D01*
X132775378Y-89440343D01*
X132565334Y-89580691D01*
X132424986Y-89790735D01*
X132375703Y-90038500D01*
X132375703Y-90638500D01*
X132424986Y-90886265D01*
X132483275Y-90973500D01*
X132424986Y-91060735D01*
X132375703Y-91308500D01*
X132375703Y-91908500D01*
X132424986Y-92156265D01*
X132483275Y-92243500D01*
X132424986Y-92330735D01*
X132375703Y-92578500D01*
X132375703Y-93178500D01*
X132424986Y-93426265D01*
X132483275Y-93513500D01*
X132424986Y-93600735D01*
X132375703Y-93848500D01*
X132375703Y-94448500D01*
X132424986Y-94696265D01*
X132565334Y-94906309D01*
X132775378Y-95046657D01*
X133023143Y-95095940D01*
X133670781Y-95095940D01*
X135520387Y-96945546D01*
X135398235Y-96969843D01*
X135188191Y-97110191D01*
X135047843Y-97320235D01*
X135008015Y-97520467D01*
X135008284Y-97212205D01*
X134759894Y-96611057D01*
X134300363Y-96150722D01*
X133699648Y-95901284D01*
X133049205Y-95900716D01*
X132448057Y-96149106D01*
X131987722Y-96608637D01*
X131951000Y-96697074D01*
X131951000Y-90443500D01*
X131893148Y-90152661D01*
X131893148Y-90152660D01*
X131728401Y-89906099D01*
X131623401Y-89801099D01*
X131376839Y-89636352D01*
X131086000Y-89578500D01*
X129627673Y-89578500D01*
X129420908Y-89440343D01*
X129173143Y-89391060D01*
X128525505Y-89391060D01*
X127973643Y-88839198D01*
X127973643Y-88169750D01*
X128556000Y-88169750D01*
X128556000Y-88635310D01*
X128652673Y-88868699D01*
X128831302Y-89047327D01*
X129064691Y-89144000D01*
X129655250Y-89144000D01*
X129814000Y-88985250D01*
X129814000Y-88011000D01*
X128714750Y-88011000D01*
X128556000Y-88169750D01*
X127973643Y-88169750D01*
X127973643Y-87485048D01*
X128130919Y-87328046D01*
X128212037Y-87132690D01*
X128556000Y-87132690D01*
X128556000Y-87598250D01*
X128714750Y-87757000D01*
X129814000Y-87757000D01*
X129814000Y-86782750D01*
X129655250Y-86624000D01*
X129064691Y-86624000D01*
X128831302Y-86720673D01*
X128652673Y-86899301D01*
X128556000Y-87132690D01*
X128212037Y-87132690D01*
X128288820Y-86947777D01*
X128289179Y-86536029D01*
X128131942Y-86155485D01*
X127850922Y-85873974D01*
X143680642Y-85873974D01*
X143801783Y-86106000D01*
X145161000Y-86106000D01*
X145161000Y-84892076D01*
X145415000Y-84892076D01*
X145415000Y-86106000D01*
X146774217Y-86106000D01*
X146895358Y-85873974D01*
X146892709Y-85858209D01*
X146638732Y-85330964D01*
X146202320Y-84941046D01*
X145649913Y-84747816D01*
X145415000Y-84892076D01*
X145161000Y-84892076D01*
X144926087Y-84747816D01*
X144373680Y-84941046D01*
X143937268Y-85330964D01*
X143683291Y-85858209D01*
X143680642Y-85873974D01*
X127850922Y-85873974D01*
X127841046Y-85864081D01*
X127460777Y-85706180D01*
X127049029Y-85705821D01*
X126668485Y-85863058D01*
X126377081Y-86153954D01*
X126219180Y-86534223D01*
X126218821Y-86945971D01*
X126376058Y-87326515D01*
X126453643Y-87404235D01*
X126453643Y-88394000D01*
X124599440Y-88394000D01*
X124599440Y-88290400D01*
X124550157Y-88042635D01*
X124409809Y-87832591D01*
X124199765Y-87692243D01*
X123952000Y-87642960D01*
X121920000Y-87642960D01*
X121672235Y-87692243D01*
X121462191Y-87832591D01*
X121321843Y-88042635D01*
X121272560Y-88290400D01*
X121272560Y-90017600D01*
X121321843Y-90265365D01*
X121462191Y-90475409D01*
X121672235Y-90615757D01*
X121708566Y-90622984D01*
X121691585Y-90634330D01*
X121366729Y-91120511D01*
X121252655Y-91694000D01*
X120344000Y-91694000D01*
X120344000Y-84276000D01*
X147193000Y-84276000D01*
X147193000Y-104192000D01*
M02*
