ISO-10303-21;
HEADER;
FILE_DESCRIPTION(('FreeCAD Model'),'2;1');
FILE_NAME('Open CASCADE Shape Model','2026-09-25T07:19:20',(''),(''),
  'Open CASCADE STEP processor 7.8','FreeCAD','Unknown');
FILE_SCHEMA(('AUTOMOTIVE_DESIGN { 1 0 10303 214 1 1 1 1 }'));
ENDSEC;
DATA;
#1 = APPLICATION_PROTOCOL_DEFINITION('international standard',
  'automotive_design',2000,#2);
#2 = APPLICATION_CONTEXT(
  'core data for automotive mechanical design processes');
#3 = SHAPE_DEFINITION_REPRESENTATION(#4,#10);
#4 = PRODUCT_DEFINITION_SHAPE('','',#5);
#5 = PRODUCT_DEFINITION('design','',#6,#9);
#6 = PRODUCT_DEFINITION_FORMATION('','',#7);
#7 = PRODUCT('Cover','Cover','',(#8));
#8 = PRODUCT_CONTEXT('',#2,'mechanical');
#9 = PRODUCT_DEFINITION_CONTEXT('part definition',#2,'design');
#10 = ADVANCED_BREP_SHAPE_REPRESENTATION('',(#11,#15),#799);
#11 = AXIS2_PLACEMENT_3D('',#12,#13,#14);
#12 = CARTESIAN_POINT('',(0.,0.,0.));
#13 = DIRECTION('',(0.,0.,1.));
#14 = DIRECTION('',(1.,0.,-0.));
#15 = MANIFOLD_SOLID_BREP('',#16);
#16 = CLOSED_SHELL('',(#17,#173,#204,#229,#254,#271,#296,#327,#352,#377,
    #401,#425,#450,#475,#492,#517,#542,#567,#598,#623,#648,#665,#690,
    #748,#765,#782));
#17 = ADVANCED_FACE('',(#18,#54,#65,#135,#146,#157),#168,.T.);
#18 = FACE_BOUND('',#19,.T.);
#19 = EDGE_LOOP('',(#20,#30,#39,#47));
#20 = ORIENTED_EDGE('',*,*,#21,.T.);
#21 = EDGE_CURVE('',#22,#24,#26,.T.);
#22 = VERTEX_POINT('',#23);
#23 = CARTESIAN_POINT('',(-30.25,11.25,99.));
#24 = VERTEX_POINT('',#25);
#25 = CARTESIAN_POINT('',(30.25,11.25,99.));
#26 = LINE('',#27,#28);
#27 = CARTESIAN_POINT('',(-30.25,11.25,99.));
#28 = VECTOR('',#29,1.);
#29 = DIRECTION('',(1.,0.,0.));
#30 = ORIENTED_EDGE('',*,*,#31,.T.);
#31 = EDGE_CURVE('',#24,#32,#34,.T.);
#32 = VERTEX_POINT('',#33);
#33 = CARTESIAN_POINT('',(30.249999987845,-11.25,99.));
#34 = CIRCLE('',#35,11.25);
#35 = AXIS2_PLACEMENT_3D('',#36,#37,#38);
#36 = CARTESIAN_POINT('',(30.25,-2.009255805285E-16,99.));
#37 = DIRECTION('',(0.,0.,-1.));
#38 = DIRECTION('',(3.466062125659E-16,1.,0.));
#39 = ORIENTED_EDGE('',*,*,#40,.T.);
#40 = EDGE_CURVE('',#32,#41,#43,.T.);
#41 = VERTEX_POINT('',#42);
#42 = CARTESIAN_POINT('',(-30.25,-11.25,99.));
#43 = LINE('',#44,#45);
#44 = CARTESIAN_POINT('',(30.25,-11.25,99.));
#45 = VECTOR('',#46,1.);
#46 = DIRECTION('',(-1.,-0.,-0.));
#47 = ORIENTED_EDGE('',*,*,#48,.T.);
#48 = EDGE_CURVE('',#41,#22,#49,.T.);
#49 = CIRCLE('',#50,11.25);
#50 = AXIS2_PLACEMENT_3D('',#51,#52,#53);
#51 = CARTESIAN_POINT('',(-30.25,0.,99.));
#52 = DIRECTION('',(-0.,0.,-1.));
#53 = DIRECTION('',(-3.466062125659E-16,-1.,0.));
#54 = FACE_BOUND('',#55,.T.);
#55 = EDGE_LOOP('',(#56));
#56 = ORIENTED_EDGE('',*,*,#57,.T.);
#57 = EDGE_CURVE('',#58,#58,#60,.T.);
#58 = VERTEX_POINT('',#59);
#59 = CARTESIAN_POINT('',(-36.45,-15.,99.));
#60 = CIRCLE('',#61,3.55);
#61 = AXIS2_PLACEMENT_3D('',#62,#63,#64);
#62 = CARTESIAN_POINT('',(-40.,-15.,99.));
#63 = DIRECTION('',(0.,0.,-1.));
#64 = DIRECTION('',(1.,0.,0.));
#65 = FACE_BOUND('',#66,.T.);
#66 = EDGE_LOOP('',(#67,#77,#86,#94,#103,#111,#120,#128));
#67 = ORIENTED_EDGE('',*,*,#68,.T.);
#68 = EDGE_CURVE('',#69,#71,#73,.T.);
#69 = VERTEX_POINT('',#70);
#70 = CARTESIAN_POINT('',(40.000000005342,20.,99.));
#71 = VERTEX_POINT('',#72);
#72 = CARTESIAN_POINT('',(-40.00000000534,20.,99.));
#73 = LINE('',#74,#75);
#74 = CARTESIAN_POINT('',(40.,20.,99.));
#75 = VECTOR('',#76,1.);
#76 = DIRECTION('',(-1.,0.,0.));
#77 = ORIENTED_EDGE('',*,*,#78,.T.);
#78 = EDGE_CURVE('',#71,#79,#81,.T.);
#79 = VERTEX_POINT('',#80);
#80 = CARTESIAN_POINT('',(-45.,15.,99.));
#81 = CIRCLE('',#82,5.);
#82 = AXIS2_PLACEMENT_3D('',#83,#84,#85);
#83 = CARTESIAN_POINT('',(-40.,15.,99.));
#84 = DIRECTION('',(0.,0.,1.));
#85 = DIRECTION('',(1.,0.,0.));
#86 = ORIENTED_EDGE('',*,*,#87,.T.);
#87 = EDGE_CURVE('',#79,#88,#90,.T.);
#88 = VERTEX_POINT('',#89);
#89 = CARTESIAN_POINT('',(-45.,-15.,99.));
#90 = LINE('',#91,#92);
#91 = CARTESIAN_POINT('',(-45.,15.,99.));
#92 = VECTOR('',#93,1.);
#93 = DIRECTION('',(0.,-1.,0.));
#94 = ORIENTED_EDGE('',*,*,#95,.T.);
#95 = EDGE_CURVE('',#88,#96,#98,.T.);
#96 = VERTEX_POINT('',#97);
#97 = CARTESIAN_POINT('',(-40.00000000534,-20.,99.));
#98 = CIRCLE('',#99,5.);
#99 = AXIS2_PLACEMENT_3D('',#100,#101,#102);
#100 = CARTESIAN_POINT('',(-40.,-15.,99.));
#101 = DIRECTION('',(0.,0.,1.));
#102 = DIRECTION('',(1.,0.,0.));
#103 = ORIENTED_EDGE('',*,*,#104,.T.);
#104 = EDGE_CURVE('',#96,#105,#107,.T.);
#105 = VERTEX_POINT('',#106);
#106 = CARTESIAN_POINT('',(40.000000005342,-20.,99.));
#107 = LINE('',#108,#109);
#108 = CARTESIAN_POINT('',(-40.,-20.,99.));
#109 = VECTOR('',#110,1.);
#110 = DIRECTION('',(1.,0.,0.));
#111 = ORIENTED_EDGE('',*,*,#112,.T.);
#112 = EDGE_CURVE('',#105,#113,#115,.T.);
#113 = VERTEX_POINT('',#114);
#114 = CARTESIAN_POINT('',(45.,-15.,99.));
#115 = CIRCLE('',#116,5.);
#116 = AXIS2_PLACEMENT_3D('',#117,#118,#119);
#117 = CARTESIAN_POINT('',(40.,-15.,99.));
#118 = DIRECTION('',(0.,0.,1.));
#119 = DIRECTION('',(1.,0.,0.));
#120 = ORIENTED_EDGE('',*,*,#121,.T.);
#121 = EDGE_CURVE('',#113,#122,#124,.T.);
#122 = VERTEX_POINT('',#123);
#123 = CARTESIAN_POINT('',(45.,15.,99.));
#124 = LINE('',#125,#126);
#125 = CARTESIAN_POINT('',(45.,-15.,99.));
#126 = VECTOR('',#127,1.);
#127 = DIRECTION('',(0.,1.,0.));
#128 = ORIENTED_EDGE('',*,*,#129,.T.);
#129 = EDGE_CURVE('',#122,#69,#130,.T.);
#130 = CIRCLE('',#131,5.);
#131 = AXIS2_PLACEMENT_3D('',#132,#133,#134);
#132 = CARTESIAN_POINT('',(40.,15.,99.));
#133 = DIRECTION('',(0.,0.,1.));
#134 = DIRECTION('',(1.,0.,0.));
#135 = FACE_BOUND('',#136,.T.);
#136 = EDGE_LOOP('',(#137));
#137 = ORIENTED_EDGE('',*,*,#138,.F.);
#138 = EDGE_CURVE('',#139,#139,#141,.T.);
#139 = VERTEX_POINT('',#140);
#140 = CARTESIAN_POINT('',(-36.45,15.,99.));
#141 = CIRCLE('',#142,3.55);
#142 = AXIS2_PLACEMENT_3D('',#143,#144,#145);
#143 = CARTESIAN_POINT('',(-40.,15.,99.));
#144 = DIRECTION('',(0.,0.,1.));
#145 = DIRECTION('',(1.,0.,0.));
#146 = FACE_BOUND('',#147,.T.);
#147 = EDGE_LOOP('',(#148));
#148 = ORIENTED_EDGE('',*,*,#149,.F.);
#149 = EDGE_CURVE('',#150,#150,#152,.T.);
#150 = VERTEX_POINT('',#151);
#151 = CARTESIAN_POINT('',(36.45,-15.,99.));
#152 = CIRCLE('',#153,3.55);
#153 = AXIS2_PLACEMENT_3D('',#154,#155,#156);
#154 = CARTESIAN_POINT('',(40.,-15.,99.));
#155 = DIRECTION('',(0.,0.,1.));
#156 = DIRECTION('',(-1.,0.,0.));
#157 = FACE_BOUND('',#158,.T.);
#158 = EDGE_LOOP('',(#159));
#159 = ORIENTED_EDGE('',*,*,#160,.T.);
#160 = EDGE_CURVE('',#161,#161,#163,.T.);
#161 = VERTEX_POINT('',#162);
#162 = CARTESIAN_POINT('',(36.45,15.,99.));
#163 = CIRCLE('',#164,3.55);
#164 = AXIS2_PLACEMENT_3D('',#165,#166,#167);
#165 = CARTESIAN_POINT('',(40.,15.,99.));
#166 = DIRECTION('',(0.,0.,-1.));
#167 = DIRECTION('',(-1.,0.,0.));
#168 = PLANE('',#169);
#169 = AXIS2_PLACEMENT_3D('',#170,#171,#172);
#170 = CARTESIAN_POINT('',(-1.26E-15,1.05E-15,99.));
#171 = DIRECTION('',(0.,0.,1.));
#172 = DIRECTION('',(1.,0.,0.));
#173 = ADVANCED_FACE('',(#174),#199,.T.);
#174 = FACE_BOUND('',#175,.F.);
#175 = EDGE_LOOP('',(#176,#184,#185,#193));
#176 = ORIENTED_EDGE('',*,*,#177,.F.);
#177 = EDGE_CURVE('',#22,#178,#180,.T.);
#178 = VERTEX_POINT('',#179);
#179 = CARTESIAN_POINT('',(-30.25,10.25,98.));
#180 = LINE('',#181,#182);
#181 = CARTESIAN_POINT('',(-30.25,10.75,98.5));
#182 = VECTOR('',#183,1.);
#183 = DIRECTION('',(0.,-0.707106781187,-0.707106781187));
#184 = ORIENTED_EDGE('',*,*,#21,.T.);
#185 = ORIENTED_EDGE('',*,*,#186,.T.);
#186 = EDGE_CURVE('',#24,#187,#189,.T.);
#187 = VERTEX_POINT('',#188);
#188 = CARTESIAN_POINT('',(30.25,10.25,98.));
#189 = LINE('',#190,#191);
#190 = CARTESIAN_POINT('',(30.25,10.75,98.5));
#191 = VECTOR('',#192,1.);
#192 = DIRECTION('',(0.,-0.707106781187,-0.707106781187));
#193 = ORIENTED_EDGE('',*,*,#194,.F.);
#194 = EDGE_CURVE('',#178,#187,#195,.T.);
#195 = LINE('',#196,#197);
#196 = CARTESIAN_POINT('',(-30.25,10.25,98.));
#197 = VECTOR('',#198,1.);
#198 = DIRECTION('',(1.,0.,0.));
#199 = PLANE('',#200);
#200 = AXIS2_PLACEMENT_3D('',#201,#202,#203);
#201 = CARTESIAN_POINT('',(-30.25,10.75,98.5));
#202 = DIRECTION('',(0.,-0.707106781187,0.707106781187));
#203 = DIRECTION('',(-1.,-0.,-0.));
#204 = ADVANCED_FACE('',(#205),#224,.F.);
#205 = FACE_BOUND('',#206,.F.);
#206 = EDGE_LOOP('',(#207,#215,#216,#217));
#207 = ORIENTED_EDGE('',*,*,#208,.F.);
#208 = EDGE_CURVE('',#41,#209,#211,.T.);
#209 = VERTEX_POINT('',#210);
#210 = CARTESIAN_POINT('',(-30.25,-10.25,98.));
#211 = LINE('',#212,#213);
#212 = CARTESIAN_POINT('',(-30.25,-10.75,98.5));
#213 = VECTOR('',#214,1.);
#214 = DIRECTION('',(0.,0.707106781187,-0.707106781187));
#215 = ORIENTED_EDGE('',*,*,#48,.T.);
#216 = ORIENTED_EDGE('',*,*,#177,.T.);
#217 = ORIENTED_EDGE('',*,*,#218,.F.);
#218 = EDGE_CURVE('',#209,#178,#219,.T.);
#219 = CIRCLE('',#220,10.25);
#220 = AXIS2_PLACEMENT_3D('',#221,#222,#223);
#221 = CARTESIAN_POINT('',(-30.25,0.,98.));
#222 = DIRECTION('',(-0.,0.,-1.));
#223 = DIRECTION('',(-3.466062125659E-16,-1.,0.));
#224 = CONICAL_SURFACE('',#225,10.25,0.785398163397);
#225 = AXIS2_PLACEMENT_3D('',#226,#227,#228);
#226 = CARTESIAN_POINT('',(-30.25,0.,98.));
#227 = DIRECTION('',(0.,0.,1.));
#228 = DIRECTION('',(-3.466062125659E-16,-1.,0.));
#229 = ADVANCED_FACE('',(#230),#249,.F.);
#230 = FACE_BOUND('',#231,.F.);
#231 = EDGE_LOOP('',(#232,#233,#234,#242));
#232 = ORIENTED_EDGE('',*,*,#186,.F.);
#233 = ORIENTED_EDGE('',*,*,#31,.T.);
#234 = ORIENTED_EDGE('',*,*,#235,.T.);
#235 = EDGE_CURVE('',#32,#236,#238,.T.);
#236 = VERTEX_POINT('',#237);
#237 = CARTESIAN_POINT('',(30.249999988925,-10.25,98.));
#238 = LINE('',#239,#240);
#239 = CARTESIAN_POINT('',(30.249999988925,-10.25,98.));
#240 = VECTOR('',#241,1.);
#241 = DIRECTION('',(7.640171974793E-10,0.707106781187,-0.707106781187)
  );
#242 = ORIENTED_EDGE('',*,*,#243,.F.);
#243 = EDGE_CURVE('',#187,#236,#244,.T.);
#244 = CIRCLE('',#245,10.25);
#245 = AXIS2_PLACEMENT_3D('',#246,#247,#248);
#246 = CARTESIAN_POINT('',(30.25,-2.009255805285E-16,98.));
#247 = DIRECTION('',(0.,0.,-1.));
#248 = DIRECTION('',(3.466062125659E-16,1.,0.));
#249 = CONICAL_SURFACE('',#250,10.25,0.785398163397);
#250 = AXIS2_PLACEMENT_3D('',#251,#252,#253);
#251 = CARTESIAN_POINT('',(30.25,-2.009255805285E-16,98.));
#252 = DIRECTION('',(0.,0.,1.));
#253 = DIRECTION('',(3.466062125659E-16,1.,0.));
#254 = ADVANCED_FACE('',(#255),#266,.F.);
#255 = FACE_BOUND('',#256,.F.);
#256 = EDGE_LOOP('',(#257,#258,#259,#260));
#257 = ORIENTED_EDGE('',*,*,#235,.F.);
#258 = ORIENTED_EDGE('',*,*,#40,.T.);
#259 = ORIENTED_EDGE('',*,*,#208,.T.);
#260 = ORIENTED_EDGE('',*,*,#261,.F.);
#261 = EDGE_CURVE('',#236,#209,#262,.T.);
#262 = LINE('',#263,#264);
#263 = CARTESIAN_POINT('',(30.25,-10.25,98.));
#264 = VECTOR('',#265,1.);
#265 = DIRECTION('',(-1.,-0.,-0.));
#266 = PLANE('',#267);
#267 = AXIS2_PLACEMENT_3D('',#268,#269,#270);
#268 = CARTESIAN_POINT('',(30.25,-10.75,98.5));
#269 = DIRECTION('',(0.,-0.707106781187,-0.707106781187));
#270 = DIRECTION('',(-1.,0.,0.));
#271 = ADVANCED_FACE('',(#272),#291,.F.);
#272 = FACE_BOUND('',#273,.F.);
#273 = EDGE_LOOP('',(#274,#282,#283,#284));
#274 = ORIENTED_EDGE('',*,*,#275,.F.);
#275 = EDGE_CURVE('',#58,#276,#278,.T.);
#276 = VERTEX_POINT('',#277);
#277 = CARTESIAN_POINT('',(-37.95,-15.,97.5));
#278 = LINE('',#279,#280);
#279 = CARTESIAN_POINT('',(-37.95,-15.,97.5));
#280 = VECTOR('',#281,1.);
#281 = DIRECTION('',(-0.707106781187,0.,-0.707106781187));
#282 = ORIENTED_EDGE('',*,*,#57,.T.);
#283 = ORIENTED_EDGE('',*,*,#275,.T.);
#284 = ORIENTED_EDGE('',*,*,#285,.F.);
#285 = EDGE_CURVE('',#276,#276,#286,.T.);
#286 = CIRCLE('',#287,2.05);
#287 = AXIS2_PLACEMENT_3D('',#288,#289,#290);
#288 = CARTESIAN_POINT('',(-40.,-15.,97.5));
#289 = DIRECTION('',(0.,0.,-1.));
#290 = DIRECTION('',(1.,0.,0.));
#291 = CONICAL_SURFACE('',#292,2.05,0.785398163397);
#292 = AXIS2_PLACEMENT_3D('',#293,#294,#295);
#293 = CARTESIAN_POINT('',(-40.,-15.,97.5));
#294 = DIRECTION('',(0.,0.,1.));
#295 = DIRECTION('',(1.,0.,0.));
#296 = ADVANCED_FACE('',(#297),#322,.F.);
#297 = FACE_BOUND('',#298,.F.);
#298 = EDGE_LOOP('',(#299,#307,#308,#316));
#299 = ORIENTED_EDGE('',*,*,#300,.T.);
#300 = EDGE_CURVE('',#301,#69,#303,.T.);
#301 = VERTEX_POINT('',#302);
#302 = CARTESIAN_POINT('',(40.000000005342,20.,95.));
#303 = LINE('',#304,#305);
#304 = CARTESIAN_POINT('',(40.000000005342,20.,95.));
#305 = VECTOR('',#306,1.);
#306 = DIRECTION('',(0.,0.,1.));
#307 = ORIENTED_EDGE('',*,*,#68,.T.);
#308 = ORIENTED_EDGE('',*,*,#309,.F.);
#309 = EDGE_CURVE('',#310,#71,#312,.T.);
#310 = VERTEX_POINT('',#311);
#311 = CARTESIAN_POINT('',(-40.00000000534,20.,95.));
#312 = LINE('',#313,#314);
#313 = CARTESIAN_POINT('',(-40.00000000534,20.,95.));
#314 = VECTOR('',#315,1.);
#315 = DIRECTION('',(0.,0.,1.));
#316 = ORIENTED_EDGE('',*,*,#317,.F.);
#317 = EDGE_CURVE('',#301,#310,#318,.T.);
#318 = LINE('',#319,#320);
#319 = CARTESIAN_POINT('',(40.,20.,95.));
#320 = VECTOR('',#321,1.);
#321 = DIRECTION('',(-1.,0.,0.));
#322 = PLANE('',#323);
#323 = AXIS2_PLACEMENT_3D('',#324,#325,#326);
#324 = CARTESIAN_POINT('',(40.,20.,95.));
#325 = DIRECTION('',(0.,-1.,0.));
#326 = DIRECTION('',(-1.,0.,0.));
#327 = ADVANCED_FACE('',(#328),#347,.T.);
#328 = FACE_BOUND('',#329,.F.);
#329 = EDGE_LOOP('',(#330,#338,#339,#340));
#330 = ORIENTED_EDGE('',*,*,#331,.T.);
#331 = EDGE_CURVE('',#332,#122,#334,.T.);
#332 = VERTEX_POINT('',#333);
#333 = CARTESIAN_POINT('',(45.,15.,95.));
#334 = LINE('',#335,#336);
#335 = CARTESIAN_POINT('',(45.,15.,95.));
#336 = VECTOR('',#337,1.);
#337 = DIRECTION('',(0.,0.,1.));
#338 = ORIENTED_EDGE('',*,*,#129,.T.);
#339 = ORIENTED_EDGE('',*,*,#300,.F.);
#340 = ORIENTED_EDGE('',*,*,#341,.F.);
#341 = EDGE_CURVE('',#332,#301,#342,.T.);
#342 = CIRCLE('',#343,5.);
#343 = AXIS2_PLACEMENT_3D('',#344,#345,#346);
#344 = CARTESIAN_POINT('',(40.,15.,95.));
#345 = DIRECTION('',(0.,0.,1.));
#346 = DIRECTION('',(1.,0.,0.));
#347 = CYLINDRICAL_SURFACE('',#348,5.);
#348 = AXIS2_PLACEMENT_3D('',#349,#350,#351);
#349 = CARTESIAN_POINT('',(40.,15.,95.));
#350 = DIRECTION('',(-0.,-0.,-1.));
#351 = DIRECTION('',(1.,0.,0.));
#352 = ADVANCED_FACE('',(#353),#372,.T.);
#353 = FACE_BOUND('',#354,.F.);
#354 = EDGE_LOOP('',(#355,#356,#357,#365));
#355 = ORIENTED_EDGE('',*,*,#309,.T.);
#356 = ORIENTED_EDGE('',*,*,#78,.T.);
#357 = ORIENTED_EDGE('',*,*,#358,.F.);
#358 = EDGE_CURVE('',#359,#79,#361,.T.);
#359 = VERTEX_POINT('',#360);
#360 = CARTESIAN_POINT('',(-45.,15.,95.));
#361 = LINE('',#362,#363);
#362 = CARTESIAN_POINT('',(-45.,15.,95.));
#363 = VECTOR('',#364,1.);
#364 = DIRECTION('',(0.,0.,1.));
#365 = ORIENTED_EDGE('',*,*,#366,.F.);
#366 = EDGE_CURVE('',#310,#359,#367,.T.);
#367 = CIRCLE('',#368,5.);
#368 = AXIS2_PLACEMENT_3D('',#369,#370,#371);
#369 = CARTESIAN_POINT('',(-40.,15.,95.));
#370 = DIRECTION('',(0.,0.,1.));
#371 = DIRECTION('',(1.,0.,0.));
#372 = CYLINDRICAL_SURFACE('',#373,5.);
#373 = AXIS2_PLACEMENT_3D('',#374,#375,#376);
#374 = CARTESIAN_POINT('',(-40.,15.,95.));
#375 = DIRECTION('',(-0.,-0.,-1.));
#376 = DIRECTION('',(1.,0.,0.));
#377 = ADVANCED_FACE('',(#378),#396,.F.);
#378 = FACE_BOUND('',#379,.F.);
#379 = EDGE_LOOP('',(#380,#388,#389,#390));
#380 = ORIENTED_EDGE('',*,*,#381,.T.);
#381 = EDGE_CURVE('',#382,#113,#384,.T.);
#382 = VERTEX_POINT('',#383);
#383 = CARTESIAN_POINT('',(45.,-15.,95.));
#384 = LINE('',#385,#386);
#385 = CARTESIAN_POINT('',(45.,-15.,95.));
#386 = VECTOR('',#387,1.);
#387 = DIRECTION('',(0.,0.,1.));
#388 = ORIENTED_EDGE('',*,*,#121,.T.);
#389 = ORIENTED_EDGE('',*,*,#331,.F.);
#390 = ORIENTED_EDGE('',*,*,#391,.F.);
#391 = EDGE_CURVE('',#382,#332,#392,.T.);
#392 = LINE('',#393,#394);
#393 = CARTESIAN_POINT('',(45.,-15.,95.));
#394 = VECTOR('',#395,1.);
#395 = DIRECTION('',(0.,1.,0.));
#396 = PLANE('',#397);
#397 = AXIS2_PLACEMENT_3D('',#398,#399,#400);
#398 = CARTESIAN_POINT('',(45.,-15.,95.));
#399 = DIRECTION('',(-1.,0.,0.));
#400 = DIRECTION('',(0.,1.,0.));
#401 = ADVANCED_FACE('',(#402),#420,.F.);
#402 = FACE_BOUND('',#403,.F.);
#403 = EDGE_LOOP('',(#404,#405,#406,#414));
#404 = ORIENTED_EDGE('',*,*,#358,.T.);
#405 = ORIENTED_EDGE('',*,*,#87,.T.);
#406 = ORIENTED_EDGE('',*,*,#407,.F.);
#407 = EDGE_CURVE('',#408,#88,#410,.T.);
#408 = VERTEX_POINT('',#409);
#409 = CARTESIAN_POINT('',(-45.,-15.,95.));
#410 = LINE('',#411,#412);
#411 = CARTESIAN_POINT('',(-45.,-15.,95.));
#412 = VECTOR('',#413,1.);
#413 = DIRECTION('',(0.,0.,1.));
#414 = ORIENTED_EDGE('',*,*,#415,.F.);
#415 = EDGE_CURVE('',#359,#408,#416,.T.);
#416 = LINE('',#417,#418);
#417 = CARTESIAN_POINT('',(-45.,15.,95.));
#418 = VECTOR('',#419,1.);
#419 = DIRECTION('',(0.,-1.,0.));
#420 = PLANE('',#421);
#421 = AXIS2_PLACEMENT_3D('',#422,#423,#424);
#422 = CARTESIAN_POINT('',(-45.,15.,95.));
#423 = DIRECTION('',(1.,0.,0.));
#424 = DIRECTION('',(0.,-1.,0.));
#425 = ADVANCED_FACE('',(#426),#445,.T.);
#426 = FACE_BOUND('',#427,.F.);
#427 = EDGE_LOOP('',(#428,#436,#437,#438));
#428 = ORIENTED_EDGE('',*,*,#429,.T.);
#429 = EDGE_CURVE('',#430,#105,#432,.T.);
#430 = VERTEX_POINT('',#431);
#431 = CARTESIAN_POINT('',(40.000000005342,-20.,95.));
#432 = LINE('',#433,#434);
#433 = CARTESIAN_POINT('',(40.000000005342,-20.,95.));
#434 = VECTOR('',#435,1.);
#435 = DIRECTION('',(0.,0.,1.));
#436 = ORIENTED_EDGE('',*,*,#112,.T.);
#437 = ORIENTED_EDGE('',*,*,#381,.F.);
#438 = ORIENTED_EDGE('',*,*,#439,.F.);
#439 = EDGE_CURVE('',#430,#382,#440,.T.);
#440 = CIRCLE('',#441,5.);
#441 = AXIS2_PLACEMENT_3D('',#442,#443,#444);
#442 = CARTESIAN_POINT('',(40.,-15.,95.));
#443 = DIRECTION('',(0.,0.,1.));
#444 = DIRECTION('',(1.,0.,0.));
#445 = CYLINDRICAL_SURFACE('',#446,5.);
#446 = AXIS2_PLACEMENT_3D('',#447,#448,#449);
#447 = CARTESIAN_POINT('',(40.,-15.,95.));
#448 = DIRECTION('',(-0.,-0.,-1.));
#449 = DIRECTION('',(1.,0.,0.));
#450 = ADVANCED_FACE('',(#451),#470,.T.);
#451 = FACE_BOUND('',#452,.F.);
#452 = EDGE_LOOP('',(#453,#454,#455,#463));
#453 = ORIENTED_EDGE('',*,*,#407,.T.);
#454 = ORIENTED_EDGE('',*,*,#95,.T.);
#455 = ORIENTED_EDGE('',*,*,#456,.F.);
#456 = EDGE_CURVE('',#457,#96,#459,.T.);
#457 = VERTEX_POINT('',#458);
#458 = CARTESIAN_POINT('',(-40.00000000534,-20.,95.));
#459 = LINE('',#460,#461);
#460 = CARTESIAN_POINT('',(-40.00000000534,-20.,95.));
#461 = VECTOR('',#462,1.);
#462 = DIRECTION('',(0.,0.,1.));
#463 = ORIENTED_EDGE('',*,*,#464,.F.);
#464 = EDGE_CURVE('',#408,#457,#465,.T.);
#465 = CIRCLE('',#466,5.);
#466 = AXIS2_PLACEMENT_3D('',#467,#468,#469);
#467 = CARTESIAN_POINT('',(-40.,-15.,95.));
#468 = DIRECTION('',(0.,0.,1.));
#469 = DIRECTION('',(1.,0.,0.));
#470 = CYLINDRICAL_SURFACE('',#471,5.);
#471 = AXIS2_PLACEMENT_3D('',#472,#473,#474);
#472 = CARTESIAN_POINT('',(-40.,-15.,95.));
#473 = DIRECTION('',(-0.,-0.,-1.));
#474 = DIRECTION('',(1.,0.,0.));
#475 = ADVANCED_FACE('',(#476),#487,.F.);
#476 = FACE_BOUND('',#477,.F.);
#477 = EDGE_LOOP('',(#478,#479,#480,#481));
#478 = ORIENTED_EDGE('',*,*,#456,.T.);
#479 = ORIENTED_EDGE('',*,*,#104,.T.);
#480 = ORIENTED_EDGE('',*,*,#429,.F.);
#481 = ORIENTED_EDGE('',*,*,#482,.F.);
#482 = EDGE_CURVE('',#457,#430,#483,.T.);
#483 = LINE('',#484,#485);
#484 = CARTESIAN_POINT('',(-40.,-20.,95.));
#485 = VECTOR('',#486,1.);
#486 = DIRECTION('',(1.,0.,0.));
#487 = PLANE('',#488);
#488 = AXIS2_PLACEMENT_3D('',#489,#490,#491);
#489 = CARTESIAN_POINT('',(-40.,-20.,95.));
#490 = DIRECTION('',(0.,1.,0.));
#491 = DIRECTION('',(1.,0.,0.));
#492 = ADVANCED_FACE('',(#493),#512,.F.);
#493 = FACE_BOUND('',#494,.T.);
#494 = EDGE_LOOP('',(#495,#503,#504,#505));
#495 = ORIENTED_EDGE('',*,*,#496,.F.);
#496 = EDGE_CURVE('',#139,#497,#499,.T.);
#497 = VERTEX_POINT('',#498);
#498 = CARTESIAN_POINT('',(-37.95,15.,97.5));
#499 = LINE('',#500,#501);
#500 = CARTESIAN_POINT('',(-37.95,15.,97.5));
#501 = VECTOR('',#502,1.);
#502 = DIRECTION('',(-0.707106781187,-0.,-0.707106781187));
#503 = ORIENTED_EDGE('',*,*,#138,.T.);
#504 = ORIENTED_EDGE('',*,*,#496,.T.);
#505 = ORIENTED_EDGE('',*,*,#506,.F.);
#506 = EDGE_CURVE('',#497,#497,#507,.T.);
#507 = CIRCLE('',#508,2.05);
#508 = AXIS2_PLACEMENT_3D('',#509,#510,#511);
#509 = CARTESIAN_POINT('',(-40.,15.,97.5));
#510 = DIRECTION('',(0.,0.,1.));
#511 = DIRECTION('',(1.,0.,0.));
#512 = CONICAL_SURFACE('',#513,2.05,0.785398163397);
#513 = AXIS2_PLACEMENT_3D('',#514,#515,#516);
#514 = CARTESIAN_POINT('',(-40.,15.,97.5));
#515 = DIRECTION('',(0.,0.,1.));
#516 = DIRECTION('',(1.,0.,0.));
#517 = ADVANCED_FACE('',(#518),#537,.F.);
#518 = FACE_BOUND('',#519,.T.);
#519 = EDGE_LOOP('',(#520,#528,#529,#530));
#520 = ORIENTED_EDGE('',*,*,#521,.F.);
#521 = EDGE_CURVE('',#150,#522,#524,.T.);
#522 = VERTEX_POINT('',#523);
#523 = CARTESIAN_POINT('',(37.95,-15.,97.5));
#524 = LINE('',#525,#526);
#525 = CARTESIAN_POINT('',(37.95,-15.,97.5));
#526 = VECTOR('',#527,1.);
#527 = DIRECTION('',(0.707106781187,0.,-0.707106781187));
#528 = ORIENTED_EDGE('',*,*,#149,.T.);
#529 = ORIENTED_EDGE('',*,*,#521,.T.);
#530 = ORIENTED_EDGE('',*,*,#531,.F.);
#531 = EDGE_CURVE('',#522,#522,#532,.T.);
#532 = CIRCLE('',#533,2.05);
#533 = AXIS2_PLACEMENT_3D('',#534,#535,#536);
#534 = CARTESIAN_POINT('',(40.,-15.,97.5));
#535 = DIRECTION('',(0.,0.,1.));
#536 = DIRECTION('',(-1.,0.,0.));
#537 = CONICAL_SURFACE('',#538,2.05,0.785398163397);
#538 = AXIS2_PLACEMENT_3D('',#539,#540,#541);
#539 = CARTESIAN_POINT('',(40.,-15.,97.5));
#540 = DIRECTION('',(0.,0.,1.));
#541 = DIRECTION('',(-1.,0.,0.));
#542 = ADVANCED_FACE('',(#543),#562,.F.);
#543 = FACE_BOUND('',#544,.F.);
#544 = EDGE_LOOP('',(#545,#553,#554,#555));
#545 = ORIENTED_EDGE('',*,*,#546,.F.);
#546 = EDGE_CURVE('',#161,#547,#549,.T.);
#547 = VERTEX_POINT('',#548);
#548 = CARTESIAN_POINT('',(37.95,15.,97.5));
#549 = LINE('',#550,#551);
#550 = CARTESIAN_POINT('',(37.95,15.,97.5));
#551 = VECTOR('',#552,1.);
#552 = DIRECTION('',(0.707106781187,0.,-0.707106781187));
#553 = ORIENTED_EDGE('',*,*,#160,.T.);
#554 = ORIENTED_EDGE('',*,*,#546,.T.);
#555 = ORIENTED_EDGE('',*,*,#556,.F.);
#556 = EDGE_CURVE('',#547,#547,#557,.T.);
#557 = CIRCLE('',#558,2.05);
#558 = AXIS2_PLACEMENT_3D('',#559,#560,#561);
#559 = CARTESIAN_POINT('',(40.,15.,97.5));
#560 = DIRECTION('',(0.,0.,-1.));
#561 = DIRECTION('',(-1.,0.,0.));
#562 = CONICAL_SURFACE('',#563,2.05,0.785398163397);
#563 = AXIS2_PLACEMENT_3D('',#564,#565,#566);
#564 = CARTESIAN_POINT('',(40.,15.,97.5));
#565 = DIRECTION('',(0.,0.,1.));
#566 = DIRECTION('',(-1.,0.,0.));
#567 = ADVANCED_FACE('',(#568),#593,.T.);
#568 = FACE_BOUND('',#569,.T.);
#569 = EDGE_LOOP('',(#570,#578,#579,#587));
#570 = ORIENTED_EDGE('',*,*,#571,.F.);
#571 = EDGE_CURVE('',#187,#572,#574,.T.);
#572 = VERTEX_POINT('',#573);
#573 = CARTESIAN_POINT('',(30.25,10.25,95.));
#574 = LINE('',#575,#576);
#575 = CARTESIAN_POINT('',(30.25,10.25,99.));
#576 = VECTOR('',#577,1.);
#577 = DIRECTION('',(-0.,-0.,-1.));
#578 = ORIENTED_EDGE('',*,*,#194,.F.);
#579 = ORIENTED_EDGE('',*,*,#580,.T.);
#580 = EDGE_CURVE('',#178,#581,#583,.T.);
#581 = VERTEX_POINT('',#582);
#582 = CARTESIAN_POINT('',(-30.25,10.25,95.));
#583 = LINE('',#584,#585);
#584 = CARTESIAN_POINT('',(-30.25,10.25,99.));
#585 = VECTOR('',#586,1.);
#586 = DIRECTION('',(-0.,-0.,-1.));
#587 = ORIENTED_EDGE('',*,*,#588,.T.);
#588 = EDGE_CURVE('',#581,#572,#589,.T.);
#589 = LINE('',#590,#591);
#590 = CARTESIAN_POINT('',(-15.125,10.25,95.));
#591 = VECTOR('',#592,1.);
#592 = DIRECTION('',(1.,0.,0.));
#593 = PLANE('',#594);
#594 = AXIS2_PLACEMENT_3D('',#595,#596,#597);
#595 = CARTESIAN_POINT('',(-30.25,10.25,99.));
#596 = DIRECTION('',(0.,-1.,0.));
#597 = DIRECTION('',(1.,0.,0.));
#598 = ADVANCED_FACE('',(#599),#618,.F.);
#599 = FACE_BOUND('',#600,.F.);
#600 = EDGE_LOOP('',(#601,#609,#610,#611));
#601 = ORIENTED_EDGE('',*,*,#602,.F.);
#602 = EDGE_CURVE('',#209,#603,#605,.T.);
#603 = VERTEX_POINT('',#604);
#604 = CARTESIAN_POINT('',(-30.25,-10.25,95.));
#605 = LINE('',#606,#607);
#606 = CARTESIAN_POINT('',(-30.25,-10.25,99.));
#607 = VECTOR('',#608,1.);
#608 = DIRECTION('',(-0.,-0.,-1.));
#609 = ORIENTED_EDGE('',*,*,#218,.T.);
#610 = ORIENTED_EDGE('',*,*,#580,.T.);
#611 = ORIENTED_EDGE('',*,*,#612,.T.);
#612 = EDGE_CURVE('',#581,#603,#613,.T.);
#613 = CIRCLE('',#614,10.25);
#614 = AXIS2_PLACEMENT_3D('',#615,#616,#617);
#615 = CARTESIAN_POINT('',(-30.25,0.,95.));
#616 = DIRECTION('',(0.,0.,1.));
#617 = DIRECTION('',(1.,0.,0.));
#618 = CYLINDRICAL_SURFACE('',#619,10.25);
#619 = AXIS2_PLACEMENT_3D('',#620,#621,#622);
#620 = CARTESIAN_POINT('',(-30.25,0.,99.));
#621 = DIRECTION('',(0.,0.,1.));
#622 = DIRECTION('',(1.,0.,0.));
#623 = ADVANCED_FACE('',(#624),#643,.F.);
#624 = FACE_BOUND('',#625,.F.);
#625 = EDGE_LOOP('',(#626,#627,#628,#636));
#626 = ORIENTED_EDGE('',*,*,#571,.F.);
#627 = ORIENTED_EDGE('',*,*,#243,.T.);
#628 = ORIENTED_EDGE('',*,*,#629,.T.);
#629 = EDGE_CURVE('',#236,#630,#632,.T.);
#630 = VERTEX_POINT('',#631);
#631 = CARTESIAN_POINT('',(30.249999994463,-10.25,95.));
#632 = LINE('',#633,#634);
#633 = CARTESIAN_POINT('',(30.249999994463,-10.25,99.));
#634 = VECTOR('',#635,1.);
#635 = DIRECTION('',(-0.,-0.,-1.));
#636 = ORIENTED_EDGE('',*,*,#637,.T.);
#637 = EDGE_CURVE('',#630,#572,#638,.T.);
#638 = CIRCLE('',#639,10.25);
#639 = AXIS2_PLACEMENT_3D('',#640,#641,#642);
#640 = CARTESIAN_POINT('',(30.25,-2.009255805285E-16,95.));
#641 = DIRECTION('',(0.,0.,1.));
#642 = DIRECTION('',(1.,0.,0.));
#643 = CYLINDRICAL_SURFACE('',#644,10.25);
#644 = AXIS2_PLACEMENT_3D('',#645,#646,#647);
#645 = CARTESIAN_POINT('',(30.25,-2.009255805285E-16,99.));
#646 = DIRECTION('',(0.,0.,1.));
#647 = DIRECTION('',(1.,0.,0.));
#648 = ADVANCED_FACE('',(#649),#660,.F.);
#649 = FACE_BOUND('',#650,.F.);
#650 = EDGE_LOOP('',(#651,#652,#653,#654));
#651 = ORIENTED_EDGE('',*,*,#629,.F.);
#652 = ORIENTED_EDGE('',*,*,#261,.T.);
#653 = ORIENTED_EDGE('',*,*,#602,.T.);
#654 = ORIENTED_EDGE('',*,*,#655,.T.);
#655 = EDGE_CURVE('',#603,#630,#656,.T.);
#656 = LINE('',#657,#658);
#657 = CARTESIAN_POINT('',(-15.125,-10.25,95.));
#658 = VECTOR('',#659,1.);
#659 = DIRECTION('',(1.,0.,0.));
#660 = PLANE('',#661);
#661 = AXIS2_PLACEMENT_3D('',#662,#663,#664);
#662 = CARTESIAN_POINT('',(-30.25,-10.25,99.));
#663 = DIRECTION('',(0.,-1.,0.));
#664 = DIRECTION('',(1.,0.,0.));
#665 = ADVANCED_FACE('',(#666),#685,.F.);
#666 = FACE_BOUND('',#667,.F.);
#667 = EDGE_LOOP('',(#668,#676,#677,#678));
#668 = ORIENTED_EDGE('',*,*,#669,.T.);
#669 = EDGE_CURVE('',#670,#276,#672,.T.);
#670 = VERTEX_POINT('',#671);
#671 = CARTESIAN_POINT('',(-37.95,-15.,95.));
#672 = LINE('',#673,#674);
#673 = CARTESIAN_POINT('',(-37.95,-15.,95.));
#674 = VECTOR('',#675,1.);
#675 = DIRECTION('',(0.,0.,1.));
#676 = ORIENTED_EDGE('',*,*,#285,.T.);
#677 = ORIENTED_EDGE('',*,*,#669,.F.);
#678 = ORIENTED_EDGE('',*,*,#679,.F.);
#679 = EDGE_CURVE('',#670,#670,#680,.T.);
#680 = CIRCLE('',#681,2.05);
#681 = AXIS2_PLACEMENT_3D('',#682,#683,#684);
#682 = CARTESIAN_POINT('',(-40.,-15.,95.));
#683 = DIRECTION('',(0.,0.,-1.));
#684 = DIRECTION('',(1.,0.,0.));
#685 = CYLINDRICAL_SURFACE('',#686,2.05);
#686 = AXIS2_PLACEMENT_3D('',#687,#688,#689);
#687 = CARTESIAN_POINT('',(-40.,-15.,95.));
#688 = DIRECTION('',(0.,0.,-1.));
#689 = DIRECTION('',(1.,0.,0.));
#690 = ADVANCED_FACE('',(#691,#701,#704,#715,#726,#732),#743,.F.);
#691 = FACE_BOUND('',#692,.F.);
#692 = EDGE_LOOP('',(#693,#694,#695,#696,#697,#698,#699,#700));
#693 = ORIENTED_EDGE('',*,*,#317,.T.);
#694 = ORIENTED_EDGE('',*,*,#366,.T.);
#695 = ORIENTED_EDGE('',*,*,#415,.T.);
#696 = ORIENTED_EDGE('',*,*,#464,.T.);
#697 = ORIENTED_EDGE('',*,*,#482,.T.);
#698 = ORIENTED_EDGE('',*,*,#439,.T.);
#699 = ORIENTED_EDGE('',*,*,#391,.T.);
#700 = ORIENTED_EDGE('',*,*,#341,.T.);
#701 = FACE_BOUND('',#702,.F.);
#702 = EDGE_LOOP('',(#703));
#703 = ORIENTED_EDGE('',*,*,#679,.T.);
#704 = FACE_BOUND('',#705,.F.);
#705 = EDGE_LOOP('',(#706));
#706 = ORIENTED_EDGE('',*,*,#707,.F.);
#707 = EDGE_CURVE('',#708,#708,#710,.T.);
#708 = VERTEX_POINT('',#709);
#709 = CARTESIAN_POINT('',(37.95,-15.,95.));
#710 = CIRCLE('',#711,2.05);
#711 = AXIS2_PLACEMENT_3D('',#712,#713,#714);
#712 = CARTESIAN_POINT('',(40.,-15.,95.));
#713 = DIRECTION('',(0.,0.,1.));
#714 = DIRECTION('',(-1.,0.,0.));
#715 = FACE_BOUND('',#716,.F.);
#716 = EDGE_LOOP('',(#717));
#717 = ORIENTED_EDGE('',*,*,#718,.F.);
#718 = EDGE_CURVE('',#719,#719,#721,.T.);
#719 = VERTEX_POINT('',#720);
#720 = CARTESIAN_POINT('',(-37.95,15.,95.));
#721 = CIRCLE('',#722,2.05);
#722 = AXIS2_PLACEMENT_3D('',#723,#724,#725);
#723 = CARTESIAN_POINT('',(-40.,15.,95.));
#724 = DIRECTION('',(0.,0.,1.));
#725 = DIRECTION('',(1.,0.,0.));
#726 = FACE_BOUND('',#727,.F.);
#727 = EDGE_LOOP('',(#728,#729,#730,#731));
#728 = ORIENTED_EDGE('',*,*,#612,.F.);
#729 = ORIENTED_EDGE('',*,*,#588,.T.);
#730 = ORIENTED_EDGE('',*,*,#637,.F.);
#731 = ORIENTED_EDGE('',*,*,#655,.F.);
#732 = FACE_BOUND('',#733,.F.);
#733 = EDGE_LOOP('',(#734));
#734 = ORIENTED_EDGE('',*,*,#735,.T.);
#735 = EDGE_CURVE('',#736,#736,#738,.T.);
#736 = VERTEX_POINT('',#737);
#737 = CARTESIAN_POINT('',(37.95,15.,95.));
#738 = CIRCLE('',#739,2.05);
#739 = AXIS2_PLACEMENT_3D('',#740,#741,#742);
#740 = CARTESIAN_POINT('',(40.,15.,95.));
#741 = DIRECTION('',(0.,0.,-1.));
#742 = DIRECTION('',(-1.,-0.,-0.));
#743 = PLANE('',#744);
#744 = AXIS2_PLACEMENT_3D('',#745,#746,#747);
#745 = CARTESIAN_POINT('',(-1.26E-15,1.05E-15,95.));
#746 = DIRECTION('',(0.,0.,1.));
#747 = DIRECTION('',(1.,0.,0.));
#748 = ADVANCED_FACE('',(#749),#760,.F.);
#749 = FACE_BOUND('',#750,.T.);
#750 = EDGE_LOOP('',(#751,#757,#758,#759));
#751 = ORIENTED_EDGE('',*,*,#752,.T.);
#752 = EDGE_CURVE('',#719,#497,#753,.T.);
#753 = LINE('',#754,#755);
#754 = CARTESIAN_POINT('',(-37.95,15.,95.));
#755 = VECTOR('',#756,1.);
#756 = DIRECTION('',(0.,0.,1.));
#757 = ORIENTED_EDGE('',*,*,#506,.T.);
#758 = ORIENTED_EDGE('',*,*,#752,.F.);
#759 = ORIENTED_EDGE('',*,*,#718,.F.);
#760 = CYLINDRICAL_SURFACE('',#761,2.05);
#761 = AXIS2_PLACEMENT_3D('',#762,#763,#764);
#762 = CARTESIAN_POINT('',(-40.,15.,95.));
#763 = DIRECTION('',(-0.,-0.,-1.));
#764 = DIRECTION('',(1.,0.,0.));
#765 = ADVANCED_FACE('',(#766),#777,.F.);
#766 = FACE_BOUND('',#767,.T.);
#767 = EDGE_LOOP('',(#768,#774,#775,#776));
#768 = ORIENTED_EDGE('',*,*,#769,.T.);
#769 = EDGE_CURVE('',#708,#522,#770,.T.);
#770 = LINE('',#771,#772);
#771 = CARTESIAN_POINT('',(37.95,-15.,95.));
#772 = VECTOR('',#773,1.);
#773 = DIRECTION('',(0.,0.,1.));
#774 = ORIENTED_EDGE('',*,*,#531,.T.);
#775 = ORIENTED_EDGE('',*,*,#769,.F.);
#776 = ORIENTED_EDGE('',*,*,#707,.F.);
#777 = CYLINDRICAL_SURFACE('',#778,2.05);
#778 = AXIS2_PLACEMENT_3D('',#779,#780,#781);
#779 = CARTESIAN_POINT('',(40.,-15.,95.));
#780 = DIRECTION('',(-0.,-0.,-1.));
#781 = DIRECTION('',(-1.,0.,0.));
#782 = ADVANCED_FACE('',(#783),#794,.F.);
#783 = FACE_BOUND('',#784,.F.);
#784 = EDGE_LOOP('',(#785,#791,#792,#793));
#785 = ORIENTED_EDGE('',*,*,#786,.T.);
#786 = EDGE_CURVE('',#736,#547,#787,.T.);
#787 = LINE('',#788,#789);
#788 = CARTESIAN_POINT('',(37.95,15.,95.));
#789 = VECTOR('',#790,1.);
#790 = DIRECTION('',(0.,0.,1.));
#791 = ORIENTED_EDGE('',*,*,#556,.T.);
#792 = ORIENTED_EDGE('',*,*,#786,.F.);
#793 = ORIENTED_EDGE('',*,*,#735,.F.);
#794 = CYLINDRICAL_SURFACE('',#795,2.05);
#795 = AXIS2_PLACEMENT_3D('',#796,#797,#798);
#796 = CARTESIAN_POINT('',(40.,15.,95.));
#797 = DIRECTION('',(0.,0.,-1.));
#798 = DIRECTION('',(-1.,-0.,-0.));
#799 = ( GEOMETRIC_REPRESENTATION_CONTEXT(3) 
GLOBAL_UNCERTAINTY_ASSIGNED_CONTEXT((#803)) GLOBAL_UNIT_ASSIGNED_CONTEXT
((#800,#801,#802)) REPRESENTATION_CONTEXT('Context #1',
  '3D Context with UNIT and UNCERTAINTY') );
#800 = ( LENGTH_UNIT() NAMED_UNIT(*) SI_UNIT(.MILLI.,.METRE.) );
#801 = ( NAMED_UNIT(*) PLANE_ANGLE_UNIT() SI_UNIT($,.RADIAN.) );
#802 = ( NAMED_UNIT(*) SI_UNIT($,.STERADIAN.) SOLID_ANGLE_UNIT() );
#803 = UNCERTAINTY_MEASURE_WITH_UNIT(LENGTH_MEASURE(1.E-07),#800,
  'distance_accuracy_value','confusion accuracy');
#804 = PRODUCT_RELATED_PRODUCT_CATEGORY('part',$,(#7));
#805 = MECHANICAL_DESIGN_GEOMETRIC_PRESENTATION_REPRESENTATION('',(#806)
  ,#799);
#806 = STYLED_ITEM('color',(#807),#15);
#807 = PRESENTATION_STYLE_ASSIGNMENT((#808,#814));
#808 = SURFACE_STYLE_USAGE(.BOTH.,#809);
#809 = SURFACE_SIDE_STYLE('',(#810));
#810 = SURFACE_STYLE_FILL_AREA(#811);
#811 = FILL_AREA_STYLE('',(#812));
#812 = FILL_AREA_STYLE_COLOUR('',#813);
#813 = COLOUR_RGB('',0.254901970902,0.592156890614,0.274509816483);
#814 = CURVE_STYLE('',#815,POSITIVE_LENGTH_MEASURE(0.1),#816);
#815 = DRAUGHTING_PRE_DEFINED_CURVE_FONT('continuous');
#816 = DRAUGHTING_PRE_DEFINED_COLOUR('black');
ENDSEC;
END-ISO-10303-21;
