%TF.GenerationSoftware,KiCad,Pcbnew,9.0.6-9.0.6~ubuntu24.04.1*%
%TF.CreationDate,2025-12-30T22:30:39+05:30*%
%TF.ProjectId,wled-esp01-controller,776c6564-2d65-4737-9030-312d636f6e74,rev?*%
%TF.SameCoordinates,Original*%
%TF.FileFunction,Legend,Top*%
%TF.FilePolarity,Positive*%
%FSLAX46Y46*%
G04 Gerber Fmt 4.6, Leading zero omitted, Abs format (unit mm)*
G04 Created by KiCad (PCBNEW 9.0.6-9.0.6~ubuntu24.04.1) date 2025-12-30 22:30:39*
%MOMM*%
%LPD*%
G01*
G04 APERTURE LIST*
%ADD10C,0.150000*%
%ADD11C,0.200000*%
%ADD12C,0.127000*%
%ADD13C,0.120000*%
G04 APERTURE END LIST*
D10*
X115708095Y-58519819D02*
X115708095Y-59329342D01*
X115708095Y-59329342D02*
X115755714Y-59424580D01*
X115755714Y-59424580D02*
X115803333Y-59472200D01*
X115803333Y-59472200D02*
X115898571Y-59519819D01*
X115898571Y-59519819D02*
X116089047Y-59519819D01*
X116089047Y-59519819D02*
X116184285Y-59472200D01*
X116184285Y-59472200D02*
X116231904Y-59424580D01*
X116231904Y-59424580D02*
X116279523Y-59329342D01*
X116279523Y-59329342D02*
X116279523Y-58519819D01*
X116708095Y-58615057D02*
X116755714Y-58567438D01*
X116755714Y-58567438D02*
X116850952Y-58519819D01*
X116850952Y-58519819D02*
X117089047Y-58519819D01*
X117089047Y-58519819D02*
X117184285Y-58567438D01*
X117184285Y-58567438D02*
X117231904Y-58615057D01*
X117231904Y-58615057D02*
X117279523Y-58710295D01*
X117279523Y-58710295D02*
X117279523Y-58805533D01*
X117279523Y-58805533D02*
X117231904Y-58948390D01*
X117231904Y-58948390D02*
X116660476Y-59519819D01*
X116660476Y-59519819D02*
X117279523Y-59519819D01*
X133166666Y-67074819D02*
X133166666Y-67789104D01*
X133166666Y-67789104D02*
X133119047Y-67931961D01*
X133119047Y-67931961D02*
X133023809Y-68027200D01*
X133023809Y-68027200D02*
X132880952Y-68074819D01*
X132880952Y-68074819D02*
X132785714Y-68074819D01*
X133595238Y-67170057D02*
X133642857Y-67122438D01*
X133642857Y-67122438D02*
X133738095Y-67074819D01*
X133738095Y-67074819D02*
X133976190Y-67074819D01*
X133976190Y-67074819D02*
X134071428Y-67122438D01*
X134071428Y-67122438D02*
X134119047Y-67170057D01*
X134119047Y-67170057D02*
X134166666Y-67265295D01*
X134166666Y-67265295D02*
X134166666Y-67360533D01*
X134166666Y-67360533D02*
X134119047Y-67503390D01*
X134119047Y-67503390D02*
X133547619Y-68074819D01*
X133547619Y-68074819D02*
X134166666Y-68074819D01*
X105916666Y-66784819D02*
X105916666Y-67499104D01*
X105916666Y-67499104D02*
X105869047Y-67641961D01*
X105869047Y-67641961D02*
X105773809Y-67737200D01*
X105773809Y-67737200D02*
X105630952Y-67784819D01*
X105630952Y-67784819D02*
X105535714Y-67784819D01*
X106916666Y-67784819D02*
X106345238Y-67784819D01*
X106630952Y-67784819D02*
X106630952Y-66784819D01*
X106630952Y-66784819D02*
X106535714Y-66927676D01*
X106535714Y-66927676D02*
X106440476Y-67022914D01*
X106440476Y-67022914D02*
X106345238Y-67070533D01*
D11*
%TO.C,U2*%
X112895000Y-81710000D02*
G75*
G02*
X112695000Y-81710000I-100000J0D01*
G01*
X112695000Y-81710000D02*
G75*
G02*
X112895000Y-81710000I100000J0D01*
G01*
D12*
X127845000Y-85750000D02*
X127845000Y-60950000D01*
X127845000Y-60950000D02*
X113545000Y-60950000D01*
X113545000Y-85750000D02*
X127845000Y-85750000D01*
X113545000Y-60950000D02*
X113545000Y-85750000D01*
D13*
%TO.C,J2*%
X132120000Y-68620000D02*
X133500000Y-68620000D01*
X132120000Y-70000000D02*
X132120000Y-68620000D01*
X132120000Y-71270000D02*
X132120000Y-76460000D01*
X132120000Y-71270000D02*
X134880000Y-71270000D01*
X132120000Y-76460000D02*
X134880000Y-76460000D01*
X134880000Y-71270000D02*
X134880000Y-76460000D01*
%TO.C,J1*%
X104870000Y-68330000D02*
X106250000Y-68330000D01*
X104870000Y-69710000D02*
X104870000Y-68330000D01*
X104870000Y-70980000D02*
X104870000Y-73630000D01*
X104870000Y-70980000D02*
X107630000Y-70980000D01*
X104870000Y-73630000D02*
X107630000Y-73630000D01*
X107630000Y-70980000D02*
X107630000Y-73630000D01*
%TD*%
M02*
