G04 #@! TF.GenerationSoftware,KiCad,Pcbnew,(2017-01-24 revision 0b6147e)-makepkg*
G04 #@! TF.CreationDate,2017-01-26T21:48:18+05:30*
G04 #@! TF.ProjectId,bRF24-breakout,62524632342D627265616B6F75742E6B,0.01*
G04 #@! TF.FileFunction,Copper,L1,Top,Signal*
G04 #@! TF.FilePolarity,Positive*
%FSLAX46Y46*%
G04 Gerber Fmt 4.6, Leading zero omitted, Abs format (unit mm)*
G04 Created by KiCad (PCBNEW (2017-01-24 revision 0b6147e)-makepkg) date 01/26/17 21:48:18*
%MOMM*%
%LPD*%
G01*
G04 APERTURE LIST*
%ADD10C,0.100000*%
%ADD11R,1.600000X1.600000*%
%ADD12C,1.600000*%
%ADD13O,2.032000X1.727200*%
%ADD14R,2.032000X1.727200*%
%ADD15C,1.524000*%
%ADD16C,0.250000*%
%ADD17C,0.381000*%
%ADD18C,0.508000*%
%ADD19C,0.254000*%
G04 APERTURE END LIST*
D10*
D11*
X136652000Y-92202000D03*
D12*
X139152000Y-92202000D03*
D13*
X154940000Y-92456000D03*
X154940000Y-89916000D03*
X154940000Y-87376000D03*
X154940000Y-84836000D03*
X154940000Y-82296000D03*
X154940000Y-79756000D03*
X154940000Y-77216000D03*
D14*
X154940000Y-74676000D03*
D15*
X141245001Y-87728000D03*
X141245001Y-85188000D03*
X141245001Y-82648000D03*
X141245001Y-80108000D03*
X143785001Y-80108000D03*
X143785001Y-82648000D03*
X143785001Y-85188000D03*
X143785001Y-87728000D03*
D16*
X154940000Y-89916000D02*
X144145000Y-89916000D01*
X142494000Y-86436999D02*
X141245001Y-85188000D01*
X142494000Y-88265000D02*
X142494000Y-86436999D01*
X144145000Y-89916000D02*
X142494000Y-88265000D01*
X154940000Y-87376000D02*
X146050000Y-87376000D01*
X142494000Y-83896999D02*
X141245001Y-82648000D01*
X142494000Y-85725000D02*
X142494000Y-83896999D01*
X143129000Y-86360000D02*
X142494000Y-85725000D01*
X145034000Y-86360000D02*
X143129000Y-86360000D01*
X146050000Y-87376000D02*
X145034000Y-86360000D01*
X154940000Y-84836000D02*
X146050000Y-84836000D01*
X141245001Y-80920001D02*
X141245001Y-80108000D01*
X142367000Y-82042000D02*
X141245001Y-80920001D01*
X142367000Y-82931000D02*
X142367000Y-82042000D01*
X143256000Y-83820000D02*
X142367000Y-82931000D01*
X145034000Y-83820000D02*
X143256000Y-83820000D01*
X146050000Y-84836000D02*
X145034000Y-83820000D01*
X154940000Y-82296000D02*
X152527000Y-82296000D01*
X151101000Y-80108000D02*
X143785001Y-80108000D01*
X151892000Y-80899000D02*
X151101000Y-80108000D01*
X151892000Y-81661000D02*
X151892000Y-80899000D01*
X152527000Y-82296000D02*
X151892000Y-81661000D01*
X154940000Y-79756000D02*
X153797000Y-79756000D01*
X142367000Y-81229999D02*
X143785001Y-82648000D01*
X142367000Y-78740000D02*
X142367000Y-81229999D01*
X142494000Y-78613000D02*
X142367000Y-78740000D01*
X152654000Y-78613000D02*
X142494000Y-78613000D01*
X153797000Y-79756000D02*
X152654000Y-78613000D01*
X154940000Y-77216000D02*
X156972000Y-77216000D01*
X144878000Y-85188000D02*
X143785001Y-85188000D01*
X145796000Y-86106000D02*
X144878000Y-85188000D01*
X157099000Y-86106000D02*
X145796000Y-86106000D01*
X157099000Y-77343000D02*
X157099000Y-86106000D01*
X156972000Y-77216000D02*
X157099000Y-77343000D01*
D17*
X139152000Y-92202000D02*
X142240000Y-92202000D01*
X142240000Y-92202000D02*
X144780000Y-94742000D01*
X144780000Y-94742000D02*
X156845000Y-94742000D01*
X156845000Y-94742000D02*
X156972000Y-94615000D01*
X156972000Y-94615000D02*
X156972000Y-88646000D01*
X157988000Y-74676000D02*
X154940000Y-74676000D01*
X157988000Y-87630000D02*
X157988000Y-74676000D01*
X146304000Y-88646000D02*
X156972000Y-88646000D01*
X156972000Y-88646000D02*
X146304000Y-88646000D01*
X145386000Y-87728000D02*
X146304000Y-88646000D01*
X143785001Y-87728000D02*
X145386000Y-87728000D01*
X146304000Y-88646000D02*
X145386000Y-87728000D01*
X156972000Y-88646000D02*
X157988000Y-87630000D01*
D16*
X136652000Y-92202000D02*
X136771001Y-92202000D01*
D18*
X136771001Y-92202000D02*
X141245001Y-87728000D01*
X154940000Y-92456000D02*
X143891000Y-92456000D01*
X143891000Y-92456000D02*
X141245001Y-89810001D01*
X141245001Y-89810001D02*
X141245001Y-87728000D01*
D19*
G36*
X157786000Y-77029490D02*
X157636401Y-76805599D01*
X157509401Y-76678599D01*
X157262839Y-76513852D01*
X156972000Y-76456000D01*
X156384648Y-76456000D01*
X156184415Y-76156330D01*
X156162220Y-76141500D01*
X156315699Y-76077927D01*
X156494327Y-75899298D01*
X156591000Y-75665909D01*
X156591000Y-74961750D01*
X156432250Y-74803000D01*
X155067000Y-74803000D01*
X155067000Y-74823000D01*
X154813000Y-74823000D01*
X154813000Y-74803000D01*
X153447750Y-74803000D01*
X153289000Y-74961750D01*
X153289000Y-75665909D01*
X153385673Y-75899298D01*
X153564301Y-76077927D01*
X153717780Y-76141500D01*
X153695585Y-76156330D01*
X153370729Y-76642511D01*
X153256655Y-77216000D01*
X153370729Y-77789489D01*
X153695585Y-78275670D01*
X154010366Y-78486000D01*
X153765450Y-78649648D01*
X153191401Y-78075599D01*
X152944839Y-77910852D01*
X152654000Y-77853000D01*
X142494000Y-77853000D01*
X142203161Y-77910852D01*
X141956599Y-78075599D01*
X141829599Y-78202599D01*
X141664852Y-78449161D01*
X141607000Y-78740000D01*
X141607000Y-78745666D01*
X141524101Y-78711243D01*
X140968340Y-78710758D01*
X140454698Y-78922990D01*
X140061372Y-79315630D01*
X139848244Y-79828900D01*
X139847759Y-80384661D01*
X140059991Y-80898303D01*
X140452631Y-81291629D01*
X140652207Y-81374500D01*
X140655810Y-81379892D01*
X140454698Y-81462990D01*
X140061372Y-81855630D01*
X139848244Y-82368900D01*
X139847759Y-82924661D01*
X140059991Y-83438303D01*
X140452631Y-83831629D01*
X140660513Y-83917949D01*
X140454698Y-84002990D01*
X140061372Y-84395630D01*
X139848244Y-84908900D01*
X139847759Y-85464661D01*
X140059991Y-85978303D01*
X140452631Y-86371629D01*
X140660513Y-86457949D01*
X140454698Y-86542990D01*
X140061372Y-86935630D01*
X139848244Y-87448900D01*
X139847878Y-87867887D01*
X136961205Y-90754560D01*
X135852000Y-90754560D01*
X135604235Y-90803843D01*
X135394191Y-90944191D01*
X135253843Y-91154235D01*
X135204560Y-91402000D01*
X135204560Y-93002000D01*
X135253843Y-93249765D01*
X135394191Y-93459809D01*
X135604235Y-93600157D01*
X135852000Y-93649440D01*
X137452000Y-93649440D01*
X137699765Y-93600157D01*
X137909809Y-93459809D01*
X138050157Y-93249765D01*
X138058117Y-93209745D01*
X138323861Y-93209745D01*
X138397995Y-93455864D01*
X138935223Y-93648965D01*
X139505454Y-93621778D01*
X139906005Y-93455864D01*
X139980139Y-93209745D01*
X139152000Y-92381605D01*
X138323861Y-93209745D01*
X138058117Y-93209745D01*
X138096693Y-93015813D01*
X138144255Y-93030139D01*
X138972395Y-92202000D01*
X139331605Y-92202000D01*
X140159745Y-93030139D01*
X140405864Y-92956005D01*
X140598965Y-92418777D01*
X140571778Y-91848546D01*
X140405864Y-91447995D01*
X140159745Y-91373861D01*
X139331605Y-92202000D01*
X138972395Y-92202000D01*
X138958253Y-92187858D01*
X139137858Y-92008253D01*
X139152000Y-92022395D01*
X139980139Y-91194255D01*
X139906005Y-90948136D01*
X139447063Y-90783174D01*
X140366658Y-89863579D01*
X140423672Y-90150207D01*
X140616383Y-90438619D01*
X143262382Y-93084618D01*
X143550795Y-93277330D01*
X143891000Y-93345000D01*
X153581547Y-93345000D01*
X153695585Y-93515670D01*
X154181766Y-93840526D01*
X154755255Y-93954600D01*
X155124745Y-93954600D01*
X155698234Y-93840526D01*
X156184415Y-93515670D01*
X156509271Y-93029489D01*
X156623345Y-92456000D01*
X156509271Y-91882511D01*
X156184415Y-91396330D01*
X155869634Y-91186000D01*
X156184415Y-90975670D01*
X156509271Y-90489489D01*
X156623345Y-89916000D01*
X156509271Y-89342511D01*
X156184415Y-88856330D01*
X155869634Y-88646000D01*
X156184415Y-88435670D01*
X156509271Y-87949489D01*
X156623345Y-87376000D01*
X156521900Y-86866000D01*
X157099000Y-86866000D01*
X157389839Y-86808148D01*
X157636401Y-86643401D01*
X157786000Y-86419510D01*
X157786000Y-94286000D01*
X123011000Y-94286000D01*
X123011000Y-73686091D01*
X153289000Y-73686091D01*
X153289000Y-74390250D01*
X153447750Y-74549000D01*
X154813000Y-74549000D01*
X154813000Y-73336150D01*
X155067000Y-73336150D01*
X155067000Y-74549000D01*
X156432250Y-74549000D01*
X156591000Y-74390250D01*
X156591000Y-73686091D01*
X156494327Y-73452702D01*
X156315699Y-73274073D01*
X156082310Y-73177400D01*
X155225750Y-73177400D01*
X155067000Y-73336150D01*
X154813000Y-73336150D01*
X154654250Y-73177400D01*
X153797690Y-73177400D01*
X153564301Y-73274073D01*
X153385673Y-73452702D01*
X153289000Y-73686091D01*
X123011000Y-73686091D01*
X123011000Y-72084000D01*
X157786000Y-72084000D01*
X157786000Y-77029490D01*
X157786000Y-77029490D01*
G37*
X157786000Y-77029490D02*
X157636401Y-76805599D01*
X157509401Y-76678599D01*
X157262839Y-76513852D01*
X156972000Y-76456000D01*
X156384648Y-76456000D01*
X156184415Y-76156330D01*
X156162220Y-76141500D01*
X156315699Y-76077927D01*
X156494327Y-75899298D01*
X156591000Y-75665909D01*
X156591000Y-74961750D01*
X156432250Y-74803000D01*
X155067000Y-74803000D01*
X155067000Y-74823000D01*
X154813000Y-74823000D01*
X154813000Y-74803000D01*
X153447750Y-74803000D01*
X153289000Y-74961750D01*
X153289000Y-75665909D01*
X153385673Y-75899298D01*
X153564301Y-76077927D01*
X153717780Y-76141500D01*
X153695585Y-76156330D01*
X153370729Y-76642511D01*
X153256655Y-77216000D01*
X153370729Y-77789489D01*
X153695585Y-78275670D01*
X154010366Y-78486000D01*
X153765450Y-78649648D01*
X153191401Y-78075599D01*
X152944839Y-77910852D01*
X152654000Y-77853000D01*
X142494000Y-77853000D01*
X142203161Y-77910852D01*
X141956599Y-78075599D01*
X141829599Y-78202599D01*
X141664852Y-78449161D01*
X141607000Y-78740000D01*
X141607000Y-78745666D01*
X141524101Y-78711243D01*
X140968340Y-78710758D01*
X140454698Y-78922990D01*
X140061372Y-79315630D01*
X139848244Y-79828900D01*
X139847759Y-80384661D01*
X140059991Y-80898303D01*
X140452631Y-81291629D01*
X140652207Y-81374500D01*
X140655810Y-81379892D01*
X140454698Y-81462990D01*
X140061372Y-81855630D01*
X139848244Y-82368900D01*
X139847759Y-82924661D01*
X140059991Y-83438303D01*
X140452631Y-83831629D01*
X140660513Y-83917949D01*
X140454698Y-84002990D01*
X140061372Y-84395630D01*
X139848244Y-84908900D01*
X139847759Y-85464661D01*
X140059991Y-85978303D01*
X140452631Y-86371629D01*
X140660513Y-86457949D01*
X140454698Y-86542990D01*
X140061372Y-86935630D01*
X139848244Y-87448900D01*
X139847878Y-87867887D01*
X136961205Y-90754560D01*
X135852000Y-90754560D01*
X135604235Y-90803843D01*
X135394191Y-90944191D01*
X135253843Y-91154235D01*
X135204560Y-91402000D01*
X135204560Y-93002000D01*
X135253843Y-93249765D01*
X135394191Y-93459809D01*
X135604235Y-93600157D01*
X135852000Y-93649440D01*
X137452000Y-93649440D01*
X137699765Y-93600157D01*
X137909809Y-93459809D01*
X138050157Y-93249765D01*
X138058117Y-93209745D01*
X138323861Y-93209745D01*
X138397995Y-93455864D01*
X138935223Y-93648965D01*
X139505454Y-93621778D01*
X139906005Y-93455864D01*
X139980139Y-93209745D01*
X139152000Y-92381605D01*
X138323861Y-93209745D01*
X138058117Y-93209745D01*
X138096693Y-93015813D01*
X138144255Y-93030139D01*
X138972395Y-92202000D01*
X139331605Y-92202000D01*
X140159745Y-93030139D01*
X140405864Y-92956005D01*
X140598965Y-92418777D01*
X140571778Y-91848546D01*
X140405864Y-91447995D01*
X140159745Y-91373861D01*
X139331605Y-92202000D01*
X138972395Y-92202000D01*
X138958253Y-92187858D01*
X139137858Y-92008253D01*
X139152000Y-92022395D01*
X139980139Y-91194255D01*
X139906005Y-90948136D01*
X139447063Y-90783174D01*
X140366658Y-89863579D01*
X140423672Y-90150207D01*
X140616383Y-90438619D01*
X143262382Y-93084618D01*
X143550795Y-93277330D01*
X143891000Y-93345000D01*
X153581547Y-93345000D01*
X153695585Y-93515670D01*
X154181766Y-93840526D01*
X154755255Y-93954600D01*
X155124745Y-93954600D01*
X155698234Y-93840526D01*
X156184415Y-93515670D01*
X156509271Y-93029489D01*
X156623345Y-92456000D01*
X156509271Y-91882511D01*
X156184415Y-91396330D01*
X155869634Y-91186000D01*
X156184415Y-90975670D01*
X156509271Y-90489489D01*
X156623345Y-89916000D01*
X156509271Y-89342511D01*
X156184415Y-88856330D01*
X155869634Y-88646000D01*
X156184415Y-88435670D01*
X156509271Y-87949489D01*
X156623345Y-87376000D01*
X156521900Y-86866000D01*
X157099000Y-86866000D01*
X157389839Y-86808148D01*
X157636401Y-86643401D01*
X157786000Y-86419510D01*
X157786000Y-94286000D01*
X123011000Y-94286000D01*
X123011000Y-73686091D01*
X153289000Y-73686091D01*
X153289000Y-74390250D01*
X153447750Y-74549000D01*
X154813000Y-74549000D01*
X154813000Y-73336150D01*
X155067000Y-73336150D01*
X155067000Y-74549000D01*
X156432250Y-74549000D01*
X156591000Y-74390250D01*
X156591000Y-73686091D01*
X156494327Y-73452702D01*
X156315699Y-73274073D01*
X156082310Y-73177400D01*
X155225750Y-73177400D01*
X155067000Y-73336150D01*
X154813000Y-73336150D01*
X154654250Y-73177400D01*
X153797690Y-73177400D01*
X153564301Y-73274073D01*
X153385673Y-73452702D01*
X153289000Y-73686091D01*
X123011000Y-73686091D01*
X123011000Y-72084000D01*
X157786000Y-72084000D01*
X157786000Y-77029490D01*
G36*
X143978749Y-87713858D02*
X143964606Y-87728000D01*
X144765214Y-88528608D01*
X145007398Y-88459143D01*
X145194145Y-87935698D01*
X145176191Y-87576993D01*
X145512599Y-87913401D01*
X145759161Y-88078148D01*
X146050000Y-88136000D01*
X153495352Y-88136000D01*
X153695585Y-88435670D01*
X154010366Y-88646000D01*
X153695585Y-88856330D01*
X153495352Y-89156000D01*
X144459802Y-89156000D01*
X144330921Y-89027119D01*
X144516144Y-88950397D01*
X144585609Y-88708213D01*
X143785001Y-87907605D01*
X143770859Y-87921748D01*
X143591254Y-87742143D01*
X143605396Y-87728000D01*
X143591254Y-87713858D01*
X143770859Y-87534253D01*
X143785001Y-87548395D01*
X143799144Y-87534253D01*
X143978749Y-87713858D01*
X143978749Y-87713858D01*
G37*
X143978749Y-87713858D02*
X143964606Y-87728000D01*
X144765214Y-88528608D01*
X145007398Y-88459143D01*
X145194145Y-87935698D01*
X145176191Y-87576993D01*
X145512599Y-87913401D01*
X145759161Y-88078148D01*
X146050000Y-88136000D01*
X153495352Y-88136000D01*
X153695585Y-88435670D01*
X154010366Y-88646000D01*
X153695585Y-88856330D01*
X153495352Y-89156000D01*
X144459802Y-89156000D01*
X144330921Y-89027119D01*
X144516144Y-88950397D01*
X144585609Y-88708213D01*
X143785001Y-87907605D01*
X143770859Y-87921748D01*
X143591254Y-87742143D01*
X143605396Y-87728000D01*
X143591254Y-87713858D01*
X143770859Y-87534253D01*
X143785001Y-87548395D01*
X143799144Y-87534253D01*
X143978749Y-87713858D01*
M02*
