G04 #@! TF.GenerationSoftware,KiCad,Pcbnew,(2017-01-24 revision 0b6147e)-makepkg*
G04 #@! TF.CreationDate,2017-01-26T21:48:18+05:30*
G04 #@! TF.ProjectId,bRF24-breakout,62524632342D627265616B6F75742E6B,0.01*
G04 #@! TF.FileFunction,Legend,Top*
G04 #@! TF.FilePolarity,Positive*
%FSLAX46Y46*%
G04 Gerber Fmt 4.6, Leading zero omitted, Abs format (unit mm)*
G04 Created by KiCad (PCBNEW (2017-01-24 revision 0b6147e)-makepkg) date 01/26/17 21:48:18*
%MOMM*%
%LPD*%
G01*
G04 APERTURE LIST*
%ADD10C,0.100000*%
%ADD11C,0.200000*%
%ADD12C,0.250000*%
%ADD13C,0.120000*%
%ADD14C,0.150000*%
G04 APERTURE END LIST*
D10*
D11*
X150368000Y-72136000D02*
X124333000Y-72136000D01*
X150368000Y-73914000D02*
X150368000Y-72136000D01*
X124333000Y-73914000D02*
X150368000Y-73914000D01*
X124333000Y-72136000D02*
X124333000Y-73914000D01*
X126492000Y-72136000D02*
X126492000Y-72263000D01*
D12*
X125294952Y-73477380D02*
X125294952Y-72953571D01*
X125247333Y-72858333D01*
X125152095Y-72810714D01*
X124961619Y-72810714D01*
X124866380Y-72858333D01*
X125294952Y-73429761D02*
X125199714Y-73477380D01*
X124961619Y-73477380D01*
X124866380Y-73429761D01*
X124818761Y-73334523D01*
X124818761Y-73239285D01*
X124866380Y-73144047D01*
X124961619Y-73096428D01*
X125199714Y-73096428D01*
X125294952Y-73048809D01*
X125771142Y-73477380D02*
X125771142Y-72810714D01*
X125771142Y-72905952D02*
X125818761Y-72858333D01*
X125914000Y-72810714D01*
X126056857Y-72810714D01*
X126152095Y-72858333D01*
X126199714Y-72953571D01*
X126199714Y-73477380D01*
X126199714Y-72953571D02*
X126247333Y-72858333D01*
X126342571Y-72810714D01*
X126485428Y-72810714D01*
X126580666Y-72858333D01*
X126628285Y-72953571D01*
X126628285Y-73477380D01*
X127104476Y-73477380D02*
X127104476Y-72810714D01*
X127104476Y-72477380D02*
X127056857Y-72525000D01*
X127104476Y-72572619D01*
X127152095Y-72525000D01*
X127104476Y-72477380D01*
X127104476Y-72572619D01*
X127628285Y-72477380D02*
X127533047Y-72667857D01*
X128009238Y-73429761D02*
X128104476Y-73477380D01*
X128294952Y-73477380D01*
X128390190Y-73429761D01*
X128437809Y-73334523D01*
X128437809Y-73286904D01*
X128390190Y-73191666D01*
X128294952Y-73144047D01*
X128152095Y-73144047D01*
X128056857Y-73096428D01*
X128009238Y-73001190D01*
X128009238Y-72953571D01*
X128056857Y-72858333D01*
X128152095Y-72810714D01*
X128294952Y-72810714D01*
X128390190Y-72858333D01*
X129628285Y-72810714D02*
X129628285Y-73477380D01*
X129628285Y-72905952D02*
X129675904Y-72858333D01*
X129771142Y-72810714D01*
X129914000Y-72810714D01*
X130009238Y-72858333D01*
X130056857Y-72953571D01*
X130056857Y-73477380D01*
X131104476Y-73477380D02*
X130771142Y-73001190D01*
X130533047Y-73477380D02*
X130533047Y-72477380D01*
X130914000Y-72477380D01*
X131009238Y-72525000D01*
X131056857Y-72572619D01*
X131104476Y-72667857D01*
X131104476Y-72810714D01*
X131056857Y-72905952D01*
X131009238Y-72953571D01*
X130914000Y-73001190D01*
X130533047Y-73001190D01*
X131866380Y-72953571D02*
X131533047Y-72953571D01*
X131533047Y-73477380D02*
X131533047Y-72477380D01*
X132009238Y-72477380D01*
X132342571Y-72572619D02*
X132390190Y-72525000D01*
X132485428Y-72477380D01*
X132723523Y-72477380D01*
X132818761Y-72525000D01*
X132866380Y-72572619D01*
X132914000Y-72667857D01*
X132914000Y-72763095D01*
X132866380Y-72905952D01*
X132294952Y-73477380D01*
X132914000Y-73477380D01*
X133771142Y-72810714D02*
X133771142Y-73477380D01*
X133533047Y-72429761D02*
X133294952Y-73144047D01*
X133914000Y-73144047D01*
X135056857Y-73477380D02*
X135056857Y-72477380D01*
X135056857Y-72858333D02*
X135152095Y-72810714D01*
X135342571Y-72810714D01*
X135437809Y-72858333D01*
X135485428Y-72905952D01*
X135533047Y-73001190D01*
X135533047Y-73286904D01*
X135485428Y-73382142D01*
X135437809Y-73429761D01*
X135342571Y-73477380D01*
X135152095Y-73477380D01*
X135056857Y-73429761D01*
X135961619Y-73477380D02*
X135961619Y-72810714D01*
X135961619Y-73001190D02*
X136009238Y-72905952D01*
X136056857Y-72858333D01*
X136152095Y-72810714D01*
X136247333Y-72810714D01*
X136961619Y-73429761D02*
X136866380Y-73477380D01*
X136675904Y-73477380D01*
X136580666Y-73429761D01*
X136533047Y-73334523D01*
X136533047Y-72953571D01*
X136580666Y-72858333D01*
X136675904Y-72810714D01*
X136866380Y-72810714D01*
X136961619Y-72858333D01*
X137009238Y-72953571D01*
X137009238Y-73048809D01*
X136533047Y-73144047D01*
X137866380Y-73477380D02*
X137866380Y-72953571D01*
X137818761Y-72858333D01*
X137723523Y-72810714D01*
X137533047Y-72810714D01*
X137437809Y-72858333D01*
X137866380Y-73429761D02*
X137771142Y-73477380D01*
X137533047Y-73477380D01*
X137437809Y-73429761D01*
X137390190Y-73334523D01*
X137390190Y-73239285D01*
X137437809Y-73144047D01*
X137533047Y-73096428D01*
X137771142Y-73096428D01*
X137866380Y-73048809D01*
X138342571Y-73477380D02*
X138342571Y-72477380D01*
X138437809Y-73096428D02*
X138723523Y-73477380D01*
X138723523Y-72810714D02*
X138342571Y-73191666D01*
X139294952Y-73477380D02*
X139199714Y-73429761D01*
X139152095Y-73382142D01*
X139104476Y-73286904D01*
X139104476Y-73001190D01*
X139152095Y-72905952D01*
X139199714Y-72858333D01*
X139294952Y-72810714D01*
X139437809Y-72810714D01*
X139533047Y-72858333D01*
X139580666Y-72905952D01*
X139628285Y-73001190D01*
X139628285Y-73286904D01*
X139580666Y-73382142D01*
X139533047Y-73429761D01*
X139437809Y-73477380D01*
X139294952Y-73477380D01*
X140485428Y-72810714D02*
X140485428Y-73477380D01*
X140056857Y-72810714D02*
X140056857Y-73334523D01*
X140104476Y-73429761D01*
X140199714Y-73477380D01*
X140342571Y-73477380D01*
X140437809Y-73429761D01*
X140485428Y-73382142D01*
X140818761Y-72810714D02*
X141199714Y-72810714D01*
X140961619Y-72477380D02*
X140961619Y-73334523D01*
X141009238Y-73429761D01*
X141104476Y-73477380D01*
X141199714Y-73477380D01*
X142294952Y-73477380D02*
X142294952Y-72477380D01*
X142294952Y-72858333D02*
X142390190Y-72810714D01*
X142580666Y-72810714D01*
X142675904Y-72858333D01*
X142723523Y-72905952D01*
X142771142Y-73001190D01*
X142771142Y-73286904D01*
X142723523Y-73382142D01*
X142675904Y-73429761D01*
X142580666Y-73477380D01*
X142390190Y-73477380D01*
X142294952Y-73429761D01*
X143342571Y-73477380D02*
X143247333Y-73429761D01*
X143199714Y-73382142D01*
X143152095Y-73286904D01*
X143152095Y-73001190D01*
X143199714Y-72905952D01*
X143247333Y-72858333D01*
X143342571Y-72810714D01*
X143485428Y-72810714D01*
X143580666Y-72858333D01*
X143628285Y-72905952D01*
X143675904Y-73001190D01*
X143675904Y-73286904D01*
X143628285Y-73382142D01*
X143580666Y-73429761D01*
X143485428Y-73477380D01*
X143342571Y-73477380D01*
X144533047Y-73477380D02*
X144533047Y-72953571D01*
X144485428Y-72858333D01*
X144390190Y-72810714D01*
X144199714Y-72810714D01*
X144104476Y-72858333D01*
X144533047Y-73429761D02*
X144437809Y-73477380D01*
X144199714Y-73477380D01*
X144104476Y-73429761D01*
X144056857Y-73334523D01*
X144056857Y-73239285D01*
X144104476Y-73144047D01*
X144199714Y-73096428D01*
X144437809Y-73096428D01*
X144533047Y-73048809D01*
X145009238Y-73477380D02*
X145009238Y-72810714D01*
X145009238Y-73001190D02*
X145056857Y-72905952D01*
X145104476Y-72858333D01*
X145199714Y-72810714D01*
X145294952Y-72810714D01*
X146056857Y-73477380D02*
X146056857Y-72477380D01*
X146056857Y-73429761D02*
X145961619Y-73477380D01*
X145771142Y-73477380D01*
X145675904Y-73429761D01*
X145628285Y-73382142D01*
X145580666Y-73286904D01*
X145580666Y-73001190D01*
X145628285Y-72905952D01*
X145675904Y-72858333D01*
X145771142Y-72810714D01*
X145961619Y-72810714D01*
X146056857Y-72858333D01*
X147199714Y-72810714D02*
X147437809Y-73477380D01*
X147675904Y-72810714D01*
X148247333Y-72477380D02*
X148342571Y-72477380D01*
X148437809Y-72525000D01*
X148485428Y-72572619D01*
X148533047Y-72667857D01*
X148580666Y-72858333D01*
X148580666Y-73096428D01*
X148533047Y-73286904D01*
X148485428Y-73382142D01*
X148437809Y-73429761D01*
X148342571Y-73477380D01*
X148247333Y-73477380D01*
X148152095Y-73429761D01*
X148104476Y-73382142D01*
X148056857Y-73286904D01*
X148009238Y-73096428D01*
X148009238Y-72858333D01*
X148056857Y-72667857D01*
X148104476Y-72572619D01*
X148152095Y-72525000D01*
X148247333Y-72477380D01*
X149009238Y-73382142D02*
X149056857Y-73429761D01*
X149009238Y-73477380D01*
X148961619Y-73429761D01*
X149009238Y-73382142D01*
X149009238Y-73477380D01*
X150009238Y-73477380D02*
X149437809Y-73477380D01*
X149723523Y-73477380D02*
X149723523Y-72477380D01*
X149628285Y-72620238D01*
X149533047Y-72715476D01*
X149437809Y-72763095D01*
D11*
X151028476Y-74149000D02*
X150952285Y-74110904D01*
X150838000Y-74110904D01*
X150723714Y-74149000D01*
X150647523Y-74225190D01*
X150609428Y-74301380D01*
X150571333Y-74453761D01*
X150571333Y-74568047D01*
X150609428Y-74720428D01*
X150647523Y-74796619D01*
X150723714Y-74872809D01*
X150838000Y-74910904D01*
X150914190Y-74910904D01*
X151028476Y-74872809D01*
X151066571Y-74834714D01*
X151066571Y-74568047D01*
X150914190Y-74568047D01*
X151409428Y-74910904D02*
X151409428Y-74110904D01*
X151866571Y-74910904D01*
X151866571Y-74110904D01*
X152247523Y-74910904D02*
X152247523Y-74110904D01*
X152438000Y-74110904D01*
X152552285Y-74149000D01*
X152628476Y-74225190D01*
X152666571Y-74301380D01*
X152704666Y-74453761D01*
X152704666Y-74568047D01*
X152666571Y-74720428D01*
X152628476Y-74796619D01*
X152552285Y-74872809D01*
X152438000Y-74910904D01*
X152247523Y-74910904D01*
X151650714Y-77374714D02*
X151612619Y-77412809D01*
X151498333Y-77450904D01*
X151422142Y-77450904D01*
X151307857Y-77412809D01*
X151231666Y-77336619D01*
X151193571Y-77260428D01*
X151155476Y-77108047D01*
X151155476Y-76993761D01*
X151193571Y-76841380D01*
X151231666Y-76765190D01*
X151307857Y-76689000D01*
X151422142Y-76650904D01*
X151498333Y-76650904D01*
X151612619Y-76689000D01*
X151650714Y-76727095D01*
X151993571Y-77031857D02*
X152260238Y-77031857D01*
X152374523Y-77450904D02*
X151993571Y-77450904D01*
X151993571Y-76650904D01*
X152374523Y-76650904D01*
X150990428Y-79825809D02*
X151104714Y-79863904D01*
X151295190Y-79863904D01*
X151371380Y-79825809D01*
X151409476Y-79787714D01*
X151447571Y-79711523D01*
X151447571Y-79635333D01*
X151409476Y-79559142D01*
X151371380Y-79521047D01*
X151295190Y-79482952D01*
X151142809Y-79444857D01*
X151066619Y-79406761D01*
X151028523Y-79368666D01*
X150990428Y-79292476D01*
X150990428Y-79216285D01*
X151028523Y-79140095D01*
X151066619Y-79102000D01*
X151142809Y-79063904D01*
X151333285Y-79063904D01*
X151447571Y-79102000D01*
X152247571Y-79787714D02*
X152209476Y-79825809D01*
X152095190Y-79863904D01*
X152019000Y-79863904D01*
X151904714Y-79825809D01*
X151828523Y-79749619D01*
X151790428Y-79673428D01*
X151752333Y-79521047D01*
X151752333Y-79406761D01*
X151790428Y-79254380D01*
X151828523Y-79178190D01*
X151904714Y-79102000D01*
X152019000Y-79063904D01*
X152095190Y-79063904D01*
X152209476Y-79102000D01*
X152247571Y-79140095D01*
X152590428Y-79863904D02*
X152590428Y-79063904D01*
X153047571Y-79863904D02*
X152704714Y-79406761D01*
X153047571Y-79063904D02*
X152590428Y-79521047D01*
X150634857Y-82530904D02*
X150634857Y-81730904D01*
X150901523Y-82302333D01*
X151168190Y-81730904D01*
X151168190Y-82530904D01*
X151549142Y-82530904D02*
X151549142Y-81730904D01*
X151892000Y-82492809D02*
X152006285Y-82530904D01*
X152196761Y-82530904D01*
X152272952Y-82492809D01*
X152311047Y-82454714D01*
X152349142Y-82378523D01*
X152349142Y-82302333D01*
X152311047Y-82226142D01*
X152272952Y-82188047D01*
X152196761Y-82149952D01*
X152044380Y-82111857D01*
X151968190Y-82073761D01*
X151930095Y-82035666D01*
X151892000Y-81959476D01*
X151892000Y-81883285D01*
X151930095Y-81807095D01*
X151968190Y-81769000D01*
X152044380Y-81730904D01*
X152234857Y-81730904D01*
X152349142Y-81769000D01*
X152844380Y-81730904D02*
X152996761Y-81730904D01*
X153072952Y-81769000D01*
X153149142Y-81845190D01*
X153187238Y-81997571D01*
X153187238Y-82264238D01*
X153149142Y-82416619D01*
X153072952Y-82492809D01*
X152996761Y-82530904D01*
X152844380Y-82530904D01*
X152768190Y-82492809D01*
X152692000Y-82416619D01*
X152653904Y-82264238D01*
X152653904Y-81997571D01*
X152692000Y-81845190D01*
X152768190Y-81769000D01*
X152844380Y-81730904D01*
X150945952Y-84943904D02*
X150945952Y-84143904D01*
X151784047Y-84943904D02*
X151517380Y-84562952D01*
X151326904Y-84943904D02*
X151326904Y-84143904D01*
X151631666Y-84143904D01*
X151707857Y-84182000D01*
X151745952Y-84220095D01*
X151784047Y-84296285D01*
X151784047Y-84410571D01*
X151745952Y-84486761D01*
X151707857Y-84524857D01*
X151631666Y-84562952D01*
X151326904Y-84562952D01*
X152660238Y-85020095D02*
X152584047Y-84982000D01*
X152507857Y-84905809D01*
X152393571Y-84791523D01*
X152317380Y-84753428D01*
X152241190Y-84753428D01*
X152279285Y-84943904D02*
X152203095Y-84905809D01*
X152126904Y-84829619D01*
X152088809Y-84677238D01*
X152088809Y-84410571D01*
X152126904Y-84258190D01*
X152203095Y-84182000D01*
X152279285Y-84143904D01*
X152431666Y-84143904D01*
X152507857Y-84182000D01*
X152584047Y-84258190D01*
X152622142Y-84410571D01*
X152622142Y-84677238D01*
X152584047Y-84829619D01*
X152507857Y-84905809D01*
X152431666Y-84943904D01*
X152279285Y-84943904D01*
X150761857Y-87610904D02*
X150761857Y-86810904D01*
X151028523Y-87382333D01*
X151295190Y-86810904D01*
X151295190Y-87610904D01*
X151828523Y-86810904D02*
X151980904Y-86810904D01*
X152057095Y-86849000D01*
X152133285Y-86925190D01*
X152171380Y-87077571D01*
X152171380Y-87344238D01*
X152133285Y-87496619D01*
X152057095Y-87572809D01*
X151980904Y-87610904D01*
X151828523Y-87610904D01*
X151752333Y-87572809D01*
X151676142Y-87496619D01*
X151638047Y-87344238D01*
X151638047Y-87077571D01*
X151676142Y-86925190D01*
X151752333Y-86849000D01*
X151828523Y-86810904D01*
X152476142Y-87572809D02*
X152590428Y-87610904D01*
X152780904Y-87610904D01*
X152857095Y-87572809D01*
X152895190Y-87534714D01*
X152933285Y-87458523D01*
X152933285Y-87382333D01*
X152895190Y-87306142D01*
X152857095Y-87268047D01*
X152780904Y-87229952D01*
X152628523Y-87191857D01*
X152552333Y-87153761D01*
X152514238Y-87115666D01*
X152476142Y-87039476D01*
X152476142Y-86963285D01*
X152514238Y-86887095D01*
X152552333Y-86849000D01*
X152628523Y-86810904D01*
X152819000Y-86810904D01*
X152933285Y-86849000D01*
X153276142Y-87610904D02*
X153276142Y-86810904D01*
X151339619Y-90074714D02*
X151301523Y-90112809D01*
X151187238Y-90150904D01*
X151111047Y-90150904D01*
X150996761Y-90112809D01*
X150920571Y-90036619D01*
X150882476Y-89960428D01*
X150844380Y-89808047D01*
X150844380Y-89693761D01*
X150882476Y-89541380D01*
X150920571Y-89465190D01*
X150996761Y-89389000D01*
X151111047Y-89350904D01*
X151187238Y-89350904D01*
X151301523Y-89389000D01*
X151339619Y-89427095D01*
X151644380Y-90112809D02*
X151758666Y-90150904D01*
X151949142Y-90150904D01*
X152025333Y-90112809D01*
X152063428Y-90074714D01*
X152101523Y-89998523D01*
X152101523Y-89922333D01*
X152063428Y-89846142D01*
X152025333Y-89808047D01*
X151949142Y-89769952D01*
X151796761Y-89731857D01*
X151720571Y-89693761D01*
X151682476Y-89655666D01*
X151644380Y-89579476D01*
X151644380Y-89503285D01*
X151682476Y-89427095D01*
X151720571Y-89389000D01*
X151796761Y-89350904D01*
X151987238Y-89350904D01*
X152101523Y-89389000D01*
X152444380Y-90150904D02*
X152444380Y-89350904D01*
X152901523Y-90150904D01*
X152901523Y-89350904D01*
X150812619Y-91890904D02*
X151079285Y-92690904D01*
X151345952Y-91890904D01*
X151955476Y-92652809D02*
X151879285Y-92690904D01*
X151726904Y-92690904D01*
X151650714Y-92652809D01*
X151612619Y-92614714D01*
X151574523Y-92538523D01*
X151574523Y-92309952D01*
X151612619Y-92233761D01*
X151650714Y-92195666D01*
X151726904Y-92157571D01*
X151879285Y-92157571D01*
X151955476Y-92195666D01*
X152641190Y-92652809D02*
X152565000Y-92690904D01*
X152412619Y-92690904D01*
X152336428Y-92652809D01*
X152298333Y-92614714D01*
X152260238Y-92538523D01*
X152260238Y-92309952D01*
X152298333Y-92233761D01*
X152336428Y-92195666D01*
X152412619Y-92157571D01*
X152565000Y-92157571D01*
X152641190Y-92195666D01*
D13*
X140298863Y-91220600D02*
G75*
G03X135504564Y-91222000I-2396863J-981400D01*
G01*
X140298863Y-93183400D02*
G75*
G02X135504564Y-93182000I-2396863J981400D01*
G01*
X140298863Y-93183400D02*
G75*
G03X140299436Y-91222000I-2396863J981400D01*
G01*
X137902000Y-89652000D02*
X137902000Y-94752000D01*
X137942000Y-89652000D02*
X137942000Y-94752000D01*
X137982000Y-89653000D02*
X137982000Y-94751000D01*
X138022000Y-89654000D02*
X138022000Y-94750000D01*
X138062000Y-89656000D02*
X138062000Y-94748000D01*
X138102000Y-89659000D02*
X138102000Y-94745000D01*
X138142000Y-89663000D02*
X138142000Y-94741000D01*
X138182000Y-89667000D02*
X138182000Y-91222000D01*
X138182000Y-93182000D02*
X138182000Y-94737000D01*
X138222000Y-89671000D02*
X138222000Y-91222000D01*
X138222000Y-93182000D02*
X138222000Y-94733000D01*
X138262000Y-89677000D02*
X138262000Y-91222000D01*
X138262000Y-93182000D02*
X138262000Y-94727000D01*
X138302000Y-89683000D02*
X138302000Y-91222000D01*
X138302000Y-93182000D02*
X138302000Y-94721000D01*
X138342000Y-89689000D02*
X138342000Y-91222000D01*
X138342000Y-93182000D02*
X138342000Y-94715000D01*
X138382000Y-89696000D02*
X138382000Y-91222000D01*
X138382000Y-93182000D02*
X138382000Y-94708000D01*
X138422000Y-89704000D02*
X138422000Y-91222000D01*
X138422000Y-93182000D02*
X138422000Y-94700000D01*
X138462000Y-89713000D02*
X138462000Y-91222000D01*
X138462000Y-93182000D02*
X138462000Y-94691000D01*
X138502000Y-89722000D02*
X138502000Y-91222000D01*
X138502000Y-93182000D02*
X138502000Y-94682000D01*
X138542000Y-89732000D02*
X138542000Y-91222000D01*
X138542000Y-93182000D02*
X138542000Y-94672000D01*
X138582000Y-89742000D02*
X138582000Y-91222000D01*
X138582000Y-93182000D02*
X138582000Y-94662000D01*
X138623000Y-89754000D02*
X138623000Y-91222000D01*
X138623000Y-93182000D02*
X138623000Y-94650000D01*
X138663000Y-89766000D02*
X138663000Y-91222000D01*
X138663000Y-93182000D02*
X138663000Y-94638000D01*
X138703000Y-89778000D02*
X138703000Y-91222000D01*
X138703000Y-93182000D02*
X138703000Y-94626000D01*
X138743000Y-89792000D02*
X138743000Y-91222000D01*
X138743000Y-93182000D02*
X138743000Y-94612000D01*
X138783000Y-89806000D02*
X138783000Y-91222000D01*
X138783000Y-93182000D02*
X138783000Y-94598000D01*
X138823000Y-89820000D02*
X138823000Y-91222000D01*
X138823000Y-93182000D02*
X138823000Y-94584000D01*
X138863000Y-89836000D02*
X138863000Y-91222000D01*
X138863000Y-93182000D02*
X138863000Y-94568000D01*
X138903000Y-89852000D02*
X138903000Y-91222000D01*
X138903000Y-93182000D02*
X138903000Y-94552000D01*
X138943000Y-89869000D02*
X138943000Y-91222000D01*
X138943000Y-93182000D02*
X138943000Y-94535000D01*
X138983000Y-89887000D02*
X138983000Y-91222000D01*
X138983000Y-93182000D02*
X138983000Y-94517000D01*
X139023000Y-89906000D02*
X139023000Y-91222000D01*
X139023000Y-93182000D02*
X139023000Y-94498000D01*
X139063000Y-89926000D02*
X139063000Y-91222000D01*
X139063000Y-93182000D02*
X139063000Y-94478000D01*
X139103000Y-89946000D02*
X139103000Y-91222000D01*
X139103000Y-93182000D02*
X139103000Y-94458000D01*
X139143000Y-89968000D02*
X139143000Y-91222000D01*
X139143000Y-93182000D02*
X139143000Y-94436000D01*
X139183000Y-89990000D02*
X139183000Y-91222000D01*
X139183000Y-93182000D02*
X139183000Y-94414000D01*
X139223000Y-90013000D02*
X139223000Y-91222000D01*
X139223000Y-93182000D02*
X139223000Y-94391000D01*
X139263000Y-90037000D02*
X139263000Y-91222000D01*
X139263000Y-93182000D02*
X139263000Y-94367000D01*
X139303000Y-90062000D02*
X139303000Y-91222000D01*
X139303000Y-93182000D02*
X139303000Y-94342000D01*
X139343000Y-90089000D02*
X139343000Y-91222000D01*
X139343000Y-93182000D02*
X139343000Y-94315000D01*
X139383000Y-90116000D02*
X139383000Y-91222000D01*
X139383000Y-93182000D02*
X139383000Y-94288000D01*
X139423000Y-90144000D02*
X139423000Y-91222000D01*
X139423000Y-93182000D02*
X139423000Y-94260000D01*
X139463000Y-90174000D02*
X139463000Y-91222000D01*
X139463000Y-93182000D02*
X139463000Y-94230000D01*
X139503000Y-90205000D02*
X139503000Y-91222000D01*
X139503000Y-93182000D02*
X139503000Y-94199000D01*
X139543000Y-90237000D02*
X139543000Y-91222000D01*
X139543000Y-93182000D02*
X139543000Y-94167000D01*
X139583000Y-90270000D02*
X139583000Y-91222000D01*
X139583000Y-93182000D02*
X139583000Y-94134000D01*
X139623000Y-90305000D02*
X139623000Y-91222000D01*
X139623000Y-93182000D02*
X139623000Y-94099000D01*
X139663000Y-90341000D02*
X139663000Y-91222000D01*
X139663000Y-93182000D02*
X139663000Y-94063000D01*
X139703000Y-90379000D02*
X139703000Y-91222000D01*
X139703000Y-93182000D02*
X139703000Y-94025000D01*
X139743000Y-90419000D02*
X139743000Y-91222000D01*
X139743000Y-93182000D02*
X139743000Y-93985000D01*
X139783000Y-90460000D02*
X139783000Y-91222000D01*
X139783000Y-93182000D02*
X139783000Y-93944000D01*
X139823000Y-90503000D02*
X139823000Y-91222000D01*
X139823000Y-93182000D02*
X139823000Y-93901000D01*
X139863000Y-90548000D02*
X139863000Y-91222000D01*
X139863000Y-93182000D02*
X139863000Y-93856000D01*
X139903000Y-90596000D02*
X139903000Y-91222000D01*
X139903000Y-93182000D02*
X139903000Y-93808000D01*
X139943000Y-90646000D02*
X139943000Y-91222000D01*
X139943000Y-93182000D02*
X139943000Y-93758000D01*
X139983000Y-90698000D02*
X139983000Y-91222000D01*
X139983000Y-93182000D02*
X139983000Y-93706000D01*
X140023000Y-90754000D02*
X140023000Y-91222000D01*
X140023000Y-93182000D02*
X140023000Y-93650000D01*
X140063000Y-90812000D02*
X140063000Y-91222000D01*
X140063000Y-93182000D02*
X140063000Y-93592000D01*
X140103000Y-90875000D02*
X140103000Y-91222000D01*
X140103000Y-93182000D02*
X140103000Y-93529000D01*
X140143000Y-90941000D02*
X140143000Y-93463000D01*
X140183000Y-91013000D02*
X140183000Y-93391000D01*
X140223000Y-91090000D02*
X140223000Y-93314000D01*
X140263000Y-91174000D02*
X140263000Y-93230000D01*
X140303000Y-91268000D02*
X140303000Y-93136000D01*
X140343000Y-91373000D02*
X140343000Y-93031000D01*
X140383000Y-91495000D02*
X140383000Y-92909000D01*
X140423000Y-91643000D02*
X140423000Y-92761000D01*
X140463000Y-91848000D02*
X140463000Y-92556000D01*
X134452000Y-92202000D02*
X135652000Y-92202000D01*
X135052000Y-91552000D02*
X135052000Y-92852000D01*
D14*
X156490000Y-73126000D02*
X153390000Y-73126000D01*
X156490000Y-74676000D02*
X156490000Y-73126000D01*
X153670000Y-75946000D02*
X156210000Y-75946000D01*
X153390000Y-73126000D02*
X153390000Y-74676000D01*
X156210000Y-93726000D02*
X156210000Y-75946000D01*
X153670000Y-93726000D02*
X156210000Y-93726000D01*
X153670000Y-75946000D02*
X153670000Y-93726000D01*
X124735001Y-78838000D02*
X124735001Y-88998000D01*
X146325001Y-78838000D02*
X124735001Y-78838000D01*
X148865001Y-78838000D02*
X146325001Y-78838000D01*
X148865001Y-88998000D02*
X148865001Y-78838000D01*
X124735001Y-88998000D02*
X148865001Y-88998000D01*
X137735333Y-88999142D02*
X137687714Y-89046761D01*
X137544857Y-89094380D01*
X137449619Y-89094380D01*
X137306761Y-89046761D01*
X137211523Y-88951523D01*
X137163904Y-88856285D01*
X137116285Y-88665809D01*
X137116285Y-88522952D01*
X137163904Y-88332476D01*
X137211523Y-88237238D01*
X137306761Y-88142000D01*
X137449619Y-88094380D01*
X137544857Y-88094380D01*
X137687714Y-88142000D01*
X137735333Y-88189619D01*
X138687714Y-89094380D02*
X138116285Y-89094380D01*
X138402000Y-89094380D02*
X138402000Y-88094380D01*
X138306761Y-88237238D01*
X138211523Y-88332476D01*
X138116285Y-88380095D01*
X154328904Y-72461380D02*
X154328904Y-71461380D01*
X154709857Y-71461380D01*
X154805095Y-71509000D01*
X154852714Y-71556619D01*
X154900333Y-71651857D01*
X154900333Y-71794714D01*
X154852714Y-71889952D01*
X154805095Y-71937571D01*
X154709857Y-71985190D01*
X154328904Y-71985190D01*
X155852714Y-72461380D02*
X155281285Y-72461380D01*
X155567000Y-72461380D02*
X155567000Y-71461380D01*
X155471761Y-71604238D01*
X155376523Y-71699476D01*
X155281285Y-71747095D01*
X127381095Y-89368380D02*
X127381095Y-90177904D01*
X127428714Y-90273142D01*
X127476333Y-90320761D01*
X127571571Y-90368380D01*
X127762047Y-90368380D01*
X127857285Y-90320761D01*
X127904904Y-90273142D01*
X127952523Y-90177904D01*
X127952523Y-89368380D01*
X128952523Y-90368380D02*
X128381095Y-90368380D01*
X128666809Y-90368380D02*
X128666809Y-89368380D01*
X128571571Y-89511238D01*
X128476333Y-89606476D01*
X128381095Y-89654095D01*
X145563096Y-87228000D02*
X145467858Y-87180380D01*
X145325001Y-87180380D01*
X145182143Y-87228000D01*
X145086905Y-87323238D01*
X145039286Y-87418476D01*
X144991667Y-87608952D01*
X144991667Y-87751809D01*
X145039286Y-87942285D01*
X145086905Y-88037523D01*
X145182143Y-88132761D01*
X145325001Y-88180380D01*
X145420239Y-88180380D01*
X145563096Y-88132761D01*
X145610715Y-88085142D01*
X145610715Y-87751809D01*
X145420239Y-87751809D01*
X146039286Y-88180380D02*
X146039286Y-87180380D01*
X146610715Y-88180380D01*
X146610715Y-87180380D01*
X147086905Y-88180380D02*
X147086905Y-87180380D01*
X147325001Y-87180380D01*
X147467858Y-87228000D01*
X147563096Y-87323238D01*
X147610715Y-87418476D01*
X147658334Y-87608952D01*
X147658334Y-87751809D01*
X147610715Y-87942285D01*
X147563096Y-88037523D01*
X147467858Y-88132761D01*
X147325001Y-88180380D01*
X147086905Y-88180380D01*
X146182143Y-85545142D02*
X146134524Y-85592761D01*
X145991667Y-85640380D01*
X145896429Y-85640380D01*
X145753572Y-85592761D01*
X145658334Y-85497523D01*
X145610715Y-85402285D01*
X145563096Y-85211809D01*
X145563096Y-85068952D01*
X145610715Y-84878476D01*
X145658334Y-84783238D01*
X145753572Y-84688000D01*
X145896429Y-84640380D01*
X145991667Y-84640380D01*
X146134524Y-84688000D01*
X146182143Y-84735619D01*
X146610715Y-85116571D02*
X146944048Y-85116571D01*
X147086905Y-85640380D02*
X146610715Y-85640380D01*
X146610715Y-84640380D01*
X147086905Y-84640380D01*
X144753572Y-80560380D02*
X144753572Y-79560380D01*
X145086905Y-80274666D01*
X145420239Y-79560380D01*
X145420239Y-80560380D01*
X145896429Y-80560380D02*
X145896429Y-79560380D01*
X146325001Y-80512761D02*
X146467858Y-80560380D01*
X146705953Y-80560380D01*
X146801191Y-80512761D01*
X146848810Y-80465142D01*
X146896429Y-80369904D01*
X146896429Y-80274666D01*
X146848810Y-80179428D01*
X146801191Y-80131809D01*
X146705953Y-80084190D01*
X146515477Y-80036571D01*
X146420239Y-79988952D01*
X146372620Y-79941333D01*
X146325001Y-79846095D01*
X146325001Y-79750857D01*
X146372620Y-79655619D01*
X146420239Y-79608000D01*
X146515477Y-79560380D01*
X146753572Y-79560380D01*
X146896429Y-79608000D01*
X147515477Y-79560380D02*
X147705953Y-79560380D01*
X147801191Y-79608000D01*
X147896429Y-79703238D01*
X147944048Y-79893714D01*
X147944048Y-80227047D01*
X147896429Y-80417523D01*
X147801191Y-80512761D01*
X147705953Y-80560380D01*
X147515477Y-80560380D01*
X147420239Y-80512761D01*
X147325001Y-80417523D01*
X147277381Y-80227047D01*
X147277381Y-79893714D01*
X147325001Y-79703238D01*
X147420239Y-79608000D01*
X147515477Y-79560380D01*
X145039286Y-83052761D02*
X145182143Y-83100380D01*
X145420239Y-83100380D01*
X145515477Y-83052761D01*
X145563096Y-83005142D01*
X145610715Y-82909904D01*
X145610715Y-82814666D01*
X145563096Y-82719428D01*
X145515477Y-82671809D01*
X145420239Y-82624190D01*
X145229762Y-82576571D01*
X145134524Y-82528952D01*
X145086905Y-82481333D01*
X145039286Y-82386095D01*
X145039286Y-82290857D01*
X145086905Y-82195619D01*
X145134524Y-82148000D01*
X145229762Y-82100380D01*
X145467858Y-82100380D01*
X145610715Y-82148000D01*
X146610715Y-83005142D02*
X146563096Y-83052761D01*
X146420239Y-83100380D01*
X146325001Y-83100380D01*
X146182143Y-83052761D01*
X146086905Y-82957523D01*
X146039286Y-82862285D01*
X145991667Y-82671809D01*
X145991667Y-82528952D01*
X146039286Y-82338476D01*
X146086905Y-82243238D01*
X146182143Y-82148000D01*
X146325001Y-82100380D01*
X146420239Y-82100380D01*
X146563096Y-82148000D01*
X146610715Y-82195619D01*
X147039286Y-83100380D02*
X147039286Y-82100380D01*
X147610715Y-83100380D02*
X147182143Y-82528952D01*
X147610715Y-82100380D02*
X147039286Y-82671809D01*
X137514524Y-87180380D02*
X137847858Y-88180380D01*
X138181191Y-87180380D01*
X138943096Y-88132761D02*
X138847858Y-88180380D01*
X138657381Y-88180380D01*
X138562143Y-88132761D01*
X138514524Y-88085142D01*
X138466905Y-87989904D01*
X138466905Y-87704190D01*
X138514524Y-87608952D01*
X138562143Y-87561333D01*
X138657381Y-87513714D01*
X138847858Y-87513714D01*
X138943096Y-87561333D01*
X139800239Y-88132761D02*
X139705001Y-88180380D01*
X139514524Y-88180380D01*
X139419286Y-88132761D01*
X139371667Y-88085142D01*
X139324048Y-87989904D01*
X139324048Y-87704190D01*
X139371667Y-87608952D01*
X139419286Y-87561333D01*
X139514524Y-87513714D01*
X139705001Y-87513714D01*
X139800239Y-87561333D01*
X138014524Y-85545142D02*
X137966905Y-85592761D01*
X137824048Y-85640380D01*
X137728810Y-85640380D01*
X137585953Y-85592761D01*
X137490715Y-85497523D01*
X137443096Y-85402285D01*
X137395477Y-85211809D01*
X137395477Y-85068952D01*
X137443096Y-84878476D01*
X137490715Y-84783238D01*
X137585953Y-84688000D01*
X137728810Y-84640380D01*
X137824048Y-84640380D01*
X137966905Y-84688000D01*
X138014524Y-84735619D01*
X138395477Y-85592761D02*
X138538334Y-85640380D01*
X138776429Y-85640380D01*
X138871667Y-85592761D01*
X138919286Y-85545142D01*
X138966905Y-85449904D01*
X138966905Y-85354666D01*
X138919286Y-85259428D01*
X138871667Y-85211809D01*
X138776429Y-85164190D01*
X138585953Y-85116571D01*
X138490715Y-85068952D01*
X138443096Y-85021333D01*
X138395477Y-84926095D01*
X138395477Y-84830857D01*
X138443096Y-84735619D01*
X138490715Y-84688000D01*
X138585953Y-84640380D01*
X138824048Y-84640380D01*
X138966905Y-84688000D01*
X139395477Y-85640380D02*
X139395477Y-84640380D01*
X139966905Y-85640380D01*
X139966905Y-84640380D01*
X137133572Y-83100380D02*
X137133572Y-82100380D01*
X137466905Y-82814666D01*
X137800239Y-82100380D01*
X137800239Y-83100380D01*
X138466905Y-82100380D02*
X138657381Y-82100380D01*
X138752620Y-82148000D01*
X138847858Y-82243238D01*
X138895477Y-82433714D01*
X138895477Y-82767047D01*
X138847858Y-82957523D01*
X138752620Y-83052761D01*
X138657381Y-83100380D01*
X138466905Y-83100380D01*
X138371667Y-83052761D01*
X138276429Y-82957523D01*
X138228810Y-82767047D01*
X138228810Y-82433714D01*
X138276429Y-82243238D01*
X138371667Y-82148000D01*
X138466905Y-82100380D01*
X139276429Y-83052761D02*
X139419286Y-83100380D01*
X139657381Y-83100380D01*
X139752620Y-83052761D01*
X139800239Y-83005142D01*
X139847858Y-82909904D01*
X139847858Y-82814666D01*
X139800239Y-82719428D01*
X139752620Y-82671809D01*
X139657381Y-82624190D01*
X139466905Y-82576571D01*
X139371667Y-82528952D01*
X139324048Y-82481333D01*
X139276429Y-82386095D01*
X139276429Y-82290857D01*
X139324048Y-82195619D01*
X139371667Y-82148000D01*
X139466905Y-82100380D01*
X139705001Y-82100380D01*
X139847858Y-82148000D01*
X140276429Y-83100380D02*
X140276429Y-82100380D01*
X137681191Y-80560380D02*
X137681191Y-79560380D01*
X138728810Y-80560380D02*
X138395477Y-80084190D01*
X138157381Y-80560380D02*
X138157381Y-79560380D01*
X138538334Y-79560380D01*
X138633572Y-79608000D01*
X138681191Y-79655619D01*
X138728810Y-79750857D01*
X138728810Y-79893714D01*
X138681191Y-79988952D01*
X138633572Y-80036571D01*
X138538334Y-80084190D01*
X138157381Y-80084190D01*
X139824048Y-80655619D02*
X139728810Y-80608000D01*
X139633572Y-80512761D01*
X139490715Y-80369904D01*
X139395477Y-80322285D01*
X139300239Y-80322285D01*
X139347858Y-80560380D02*
X139252620Y-80512761D01*
X139157381Y-80417523D01*
X139109762Y-80227047D01*
X139109762Y-79893714D01*
X139157381Y-79703238D01*
X139252620Y-79608000D01*
X139347858Y-79560380D01*
X139538334Y-79560380D01*
X139633572Y-79608000D01*
X139728810Y-79703238D01*
X139776429Y-79893714D01*
X139776429Y-80227047D01*
X139728810Y-80417523D01*
X139633572Y-80512761D01*
X139538334Y-80560380D01*
X139347858Y-80560380D01*
M02*
