G04 #@! TF.GenerationSoftware,KiCad,Pcbnew,(2017-01-24 revision 0b6147e)-makepkg*
G04 #@! TF.CreationDate,2017-01-27T23:50:26+05:30*
G04 #@! TF.ProjectId,7segment,377365676D656E742E6B696361645F70,0.01*
G04 #@! TF.FileFunction,Legend,Bot*
G04 #@! TF.FilePolarity,Positive*
%FSLAX46Y46*%
G04 Gerber Fmt 4.6, Leading zero omitted, Abs format (unit mm)*
G04 Created by KiCad (PCBNEW (2017-01-24 revision 0b6147e)-makepkg) date 01/27/17 23:50:26*
%MOMM*%
%LPD*%
G01*
G04 APERTURE LIST*
%ADD10C,0.100000*%
%ADD11C,0.300000*%
G04 APERTURE END LIST*
D10*
D11*
X137902000Y-78694000D02*
X137830571Y-78622571D01*
X137616285Y-78479714D01*
X137473428Y-78408285D01*
X137259142Y-78336857D01*
X136902000Y-78265428D01*
X136616285Y-78265428D01*
X136259142Y-78336857D01*
X136044857Y-78408285D01*
X135902000Y-78479714D01*
X135687714Y-78622571D01*
X135616285Y-78694000D01*
X137187714Y-80122571D02*
X137259142Y-80051142D01*
X137330571Y-79836857D01*
X137330571Y-79694000D01*
X137259142Y-79479714D01*
X137116285Y-79336857D01*
X136973428Y-79265428D01*
X136687714Y-79194000D01*
X136473428Y-79194000D01*
X136187714Y-79265428D01*
X136044857Y-79336857D01*
X135902000Y-79479714D01*
X135830571Y-79694000D01*
X135830571Y-79836857D01*
X135902000Y-80051142D01*
X135973428Y-80122571D01*
X137902000Y-80622571D02*
X137830571Y-80694000D01*
X137616285Y-80836857D01*
X137473428Y-80908285D01*
X137259142Y-80979714D01*
X136902000Y-81051142D01*
X136616285Y-81051142D01*
X136259142Y-80979714D01*
X136044857Y-80908285D01*
X135902000Y-80836857D01*
X135687714Y-80694000D01*
X135616285Y-80622571D01*
X136902000Y-82836857D02*
X136902000Y-83551142D01*
X137330571Y-82694000D02*
X135830571Y-83194000D01*
X137330571Y-83694000D01*
X137330571Y-84194000D02*
X136330571Y-84194000D01*
X136473428Y-84194000D02*
X136402000Y-84265428D01*
X136330571Y-84408285D01*
X136330571Y-84622571D01*
X136402000Y-84765428D01*
X136544857Y-84836857D01*
X137330571Y-84836857D01*
X136544857Y-84836857D02*
X136402000Y-84908285D01*
X136330571Y-85051142D01*
X136330571Y-85265428D01*
X136402000Y-85408285D01*
X136544857Y-85479714D01*
X137330571Y-85479714D01*
X137330571Y-86194000D02*
X136330571Y-86194000D01*
X135830571Y-86194000D02*
X135902000Y-86122571D01*
X135973428Y-86194000D01*
X135902000Y-86265428D01*
X135830571Y-86194000D01*
X135973428Y-86194000D01*
X136330571Y-86694000D02*
X136330571Y-87265428D01*
X135830571Y-86908285D02*
X137116285Y-86908285D01*
X137259142Y-86979714D01*
X137330571Y-87122571D01*
X137330571Y-87265428D01*
X137259142Y-88336857D02*
X137330571Y-88194000D01*
X137330571Y-87908285D01*
X137259142Y-87765428D01*
X137116285Y-87694000D01*
X136544857Y-87694000D01*
X136402000Y-87765428D01*
X136330571Y-87908285D01*
X136330571Y-88194000D01*
X136402000Y-88336857D01*
X136544857Y-88408285D01*
X136687714Y-88408285D01*
X136830571Y-87694000D01*
X137259142Y-88979714D02*
X137330571Y-89122571D01*
X137330571Y-89408285D01*
X137259142Y-89551142D01*
X137116285Y-89622571D01*
X137044857Y-89622571D01*
X136902000Y-89551142D01*
X136830571Y-89408285D01*
X136830571Y-89194000D01*
X136759142Y-89051142D01*
X136616285Y-88979714D01*
X136544857Y-88979714D01*
X136402000Y-89051142D01*
X136330571Y-89194000D01*
X136330571Y-89408285D01*
X136402000Y-89551142D01*
X137330571Y-90265428D02*
X135830571Y-90265428D01*
X137330571Y-90908285D02*
X136544857Y-90908285D01*
X136402000Y-90836857D01*
X136330571Y-90694000D01*
X136330571Y-90479714D01*
X136402000Y-90336857D01*
X136473428Y-90265428D01*
X137259142Y-92694000D02*
X137330571Y-92908285D01*
X137330571Y-93265428D01*
X137259142Y-93408285D01*
X137187714Y-93479714D01*
X137044857Y-93551142D01*
X136902000Y-93551142D01*
X136759142Y-93479714D01*
X136687714Y-93408285D01*
X136616285Y-93265428D01*
X136544857Y-92979714D01*
X136473428Y-92836857D01*
X136402000Y-92765428D01*
X136259142Y-92694000D01*
X136116285Y-92694000D01*
X135973428Y-92765428D01*
X135902000Y-92836857D01*
X135830571Y-92979714D01*
X135830571Y-93336857D01*
X135902000Y-93551142D01*
X137330571Y-94194000D02*
X136330571Y-94194000D01*
X135830571Y-94194000D02*
X135902000Y-94122571D01*
X135973428Y-94194000D01*
X135902000Y-94265428D01*
X135830571Y-94194000D01*
X135973428Y-94194000D01*
X136330571Y-94908285D02*
X137330571Y-94908285D01*
X136473428Y-94908285D02*
X136402000Y-94979714D01*
X136330571Y-95122571D01*
X136330571Y-95336857D01*
X136402000Y-95479714D01*
X136544857Y-95551142D01*
X137330571Y-95551142D01*
X136330571Y-96908285D02*
X137544857Y-96908285D01*
X137687714Y-96836857D01*
X137759142Y-96765428D01*
X137830571Y-96622571D01*
X137830571Y-96408285D01*
X137759142Y-96265428D01*
X137259142Y-96908285D02*
X137330571Y-96765428D01*
X137330571Y-96479714D01*
X137259142Y-96336857D01*
X137187714Y-96265428D01*
X137044857Y-96194000D01*
X136616285Y-96194000D01*
X136473428Y-96265428D01*
X136402000Y-96336857D01*
X136330571Y-96479714D01*
X136330571Y-96765428D01*
X136402000Y-96908285D01*
X137330571Y-97622571D02*
X135830571Y-97622571D01*
X137330571Y-98265428D02*
X136544857Y-98265428D01*
X136402000Y-98194000D01*
X136330571Y-98051142D01*
X136330571Y-97836857D01*
X136402000Y-97694000D01*
X136473428Y-97622571D01*
X135973428Y-100051142D02*
X135902000Y-100122571D01*
X135830571Y-100265428D01*
X135830571Y-100622571D01*
X135902000Y-100765428D01*
X135973428Y-100836857D01*
X136116285Y-100908285D01*
X136259142Y-100908285D01*
X136473428Y-100836857D01*
X137330571Y-99979714D01*
X137330571Y-100908285D01*
X135830571Y-101836857D02*
X135830571Y-101979714D01*
X135902000Y-102122571D01*
X135973428Y-102194000D01*
X136116285Y-102265428D01*
X136402000Y-102336857D01*
X136759142Y-102336857D01*
X137044857Y-102265428D01*
X137187714Y-102194000D01*
X137259142Y-102122571D01*
X137330571Y-101979714D01*
X137330571Y-101836857D01*
X137259142Y-101694000D01*
X137187714Y-101622571D01*
X137044857Y-101551142D01*
X136759142Y-101479714D01*
X136402000Y-101479714D01*
X136116285Y-101551142D01*
X135973428Y-101622571D01*
X135902000Y-101694000D01*
X135830571Y-101836857D01*
X137330571Y-103765428D02*
X137330571Y-102908285D01*
X137330571Y-103336857D02*
X135830571Y-103336857D01*
X136044857Y-103194000D01*
X136187714Y-103051142D01*
X136259142Y-102908285D01*
X135830571Y-104265428D02*
X135830571Y-105265428D01*
X137330571Y-104622571D01*
M02*
