M48
METRIC,TZ
T1C0.400
T2C0.800
T3C1.016
%
G90
G05
T1
X123952Y-096520
X123952Y-099060
X140716Y-097536
X143002Y-092964
X148082Y-080772
X148590Y-101600
X148844Y-103124
X151638Y-087376
T2
X121285Y-082550
X121285Y-085090
X121285Y-087630
X121285Y-090170
X121285Y-092710
X121285Y-095250
X121285Y-097790
X121285Y-100330
X128905Y-082550
X128905Y-085090
X128905Y-087630
X128905Y-090170
X128905Y-092710
X128905Y-095250
X128905Y-097790
X128905Y-100330
X144780Y-083185
X144780Y-098425
X147320Y-083185
X147320Y-098425
X149860Y-083185
X149860Y-098425
X152400Y-083185
X152400Y-098425
X154940Y-083185
X154940Y-098425
T3
X113030Y-086360
X113030Y-088900
X113030Y-091440
X113030Y-093980
X113030Y-096520
T0
M30
