G04 #@! TF.GenerationSoftware,KiCad,Pcbnew,(2017-01-24 revision 0b6147e)-makepkg*
G04 #@! TF.CreationDate,2017-01-27T23:50:26+05:30*
G04 #@! TF.ProjectId,7segment,377365676D656E742E6B696361645F70,0.01*
G04 #@! TF.FileFunction,Soldermask,Top*
G04 #@! TF.FilePolarity,Negative*
%FSLAX46Y46*%
G04 Gerber Fmt 4.6, Leading zero omitted, Abs format (unit mm)*
G04 Created by KiCad (PCBNEW (2017-01-24 revision 0b6147e)-makepkg) date 01/27/17 23:50:26*
%MOMM*%
%LPD*%
G01*
G04 APERTURE LIST*
%ADD10C,0.100000*%
%ADD11O,1.924000X2.924000*%
%ADD12O,2.000000X2.000000*%
%ADD13R,2.000000X2.000000*%
%ADD14O,2.432000X2.127200*%
%ADD15R,2.432000X2.127200*%
%ADD16R,1.100000X1.700000*%
G04 APERTURE END LIST*
D10*
D11*
X144780000Y-83185000D03*
X147320000Y-83185000D03*
X149860000Y-83185000D03*
X152400000Y-83185000D03*
X154940000Y-83185000D03*
X154940000Y-98425000D03*
X152400000Y-98425000D03*
X149860000Y-98425000D03*
X147320000Y-98425000D03*
X144780000Y-98425000D03*
D12*
X121285000Y-100330000D03*
X128905000Y-82550000D03*
X121285000Y-97790000D03*
X128905000Y-85090000D03*
X121285000Y-95250000D03*
X128905000Y-87630000D03*
X121285000Y-92710000D03*
X128905000Y-90170000D03*
X121285000Y-90170000D03*
X128905000Y-92710000D03*
X121285000Y-87630000D03*
X128905000Y-95250000D03*
X121285000Y-85090000D03*
X128905000Y-97790000D03*
X121285000Y-82550000D03*
D13*
X128905000Y-100330000D03*
D14*
X113030000Y-86360000D03*
X113030000Y-88900000D03*
X113030000Y-91440000D03*
X113030000Y-93980000D03*
D15*
X113030000Y-96520000D03*
D16*
X137856000Y-80772000D03*
X135956000Y-80772000D03*
X135956000Y-83312000D03*
X137856000Y-83312000D03*
X137856000Y-86106000D03*
X135956000Y-86106000D03*
X135956000Y-89662000D03*
X137856000Y-89662000D03*
X137856000Y-92964000D03*
X135956000Y-92964000D03*
X135956000Y-96012000D03*
X137856000Y-96012000D03*
X137856000Y-99060000D03*
X135956000Y-99060000D03*
X135956000Y-102108000D03*
X137856000Y-102108000D03*
M02*
